  0
SECTION
  2
HEADER
  9
$EXTMIN
 10
-258.359834
 20
-58.010602
 30
0.00
  9
$EXTMAX
 10
470.00
 20
419.20
 30
0.00
  0
ENDSEC
  0
SECTION
  2
TABLES
  0
TABLE
  2
LTYPE
 70
3
  0
LTYPE
  2
BYBLOCK
 70
0
  3

 72
65
 73
0
 40
0.00
  0
LTYPE
  2
BYLAYER
 70
0
  3

 72
65
 73
0
 40
0.00
  0
LTYPE
  2
CONTINUOUS
 70
0
  3
Solid line
 72
65
 73
0
 40
0.00
  0
ENDTAB
  0
TABLE
  2
LAYER
 70
99
  0
LAYER
  2
0
 70
0
 62
7
  6
CONTINUOUS
  0
LAYER
  2
020671-1ROU1_GBR
 70
0
 62
7
  6
CONTINUOUS
  0
LAYER
  2
027417-3ROU1_GBR
 70
0
 62
7
  6
CONTINUOUS
  0
LAYER
  2
027419-1ROU1_GBR
 70
0
 62
2
  6
CONTINUOUS
  0
LAYER
  2
027419-2ROU1_GBR
 70
0
 62
6
  6
CONTINUOUS
  0
LAYER
  2
027674-1ROU1_GBR
 70
0
 62
1
  6
CONTINUOUS
  0
LAYER
  2
027676-1ROU1_GBR
 70
0
 62
4
  6
CONTINUOUS
  0
LAYER
  2
027678-3ROU1_GBR
 70
0
 62
3
  6
CONTINUOUS
  0
LAYER
  2
028122-1ROU1_GBR
 70
0
 62
5
  6
CONTINUOUS
  0
LAYER
  2
028124-5ROU1_GBR
 70
0
 62
10
  6
CONTINUOUS
  0
LAYER
  2
028126-1ROU1_GBR
 70
0
 62
14
  6
CONTINUOUS
  0
LAYER
  2
028126-3ROU1_GBR
 70
0
 62
9
  6
CONTINUOUS
  0
LAYER
  2
028126-6ROU1_GBR
 70
0
 62
12
  6
CONTINUOUS
  0
LAYER
  2
028126-7ROU1_GBR
 70
0
 62
11
  6
CONTINUOUS
  0
LAYER
  2
028129-1ROU1_GBR
 70
0
 62
13
  6
CONTINUOUS
  0
LAYER
  2
028130-1ROU1_GBR
 70
0
 62
8
  6
CONTINUOUS
  0
LAYER
  2
028130-4ROU1_GBR
 70
0
 62
15
  6
CONTINUOUS
  0
LAYER
  2
028130-5ROU1_GBR
 70
0
 62
7
  6
CONTINUOUS
  0
LAYER
  2
028130-7ROU1_GBR
 70
0
 62
7
  6
CONTINUOUS
  0
LAYER
  2
028655-1ROU1_GBR
 70
0
 62
2
  6
CONTINUOUS
  0
LAYER
  2
028657-1ROU1_GBR
 70
0
 62
6
  6
CONTINUOUS
  0
LAYER
  2
028659-2ROU1_GBR
 70
0
 62
1
  6
CONTINUOUS
  0
LAYER
  2
028659-4ROU1_GBR
 70
0
 62
4
  6
CONTINUOUS
  0
LAYER
  2
028661-1ROU1_GBR
 70
0
 62
3
  6
CONTINUOUS
  0
LAYER
  2
028663-1ROU1_GBR
 70
0
 62
5
  6
CONTINUOUS
  0
LAYER
  2
028665-1ROU1_GBR
 70
0
 62
10
  6
CONTINUOUS
  0
LAYER
  2
028669-1ROU1_GBR
 70
0
 62
14
  6
CONTINUOUS
  0
LAYER
  2
028673-2ROU1_GBR
 70
0
 62
9
  6
CONTINUOUS
  0
LAYER
  2
037088-3ROU1_GBR
 70
0
 62
12
  6
CONTINUOUS
  0
LAYER
  2
037682-1ROU1_GBR
 70
0
 62
11
  6
CONTINUOUS
  0
LAYER
  2
037686-1ROU1_GBR
 70
0
 62
13
  6
CONTINUOUS
  0
LAYER
  2
037688-1ROU1_GBR
 70
0
 62
8
  6
CONTINUOUS
  0
LAYER
  2
038681-1ROU1_GBR
 70
0
 62
15
  6
CONTINUOUS
  0
LAYER
  2
038683-1ROU1_GBR
 70
0
 62
7
  6
CONTINUOUS
  0
LAYER
  2
038683-2ROU1_GBR
 70
0
 62
7
  6
CONTINUOUS
  0
LAYER
  2
038685-1ROU1_GBR
 70
0
 62
2
  6
CONTINUOUS
  0
LAYER
  2
038689-1ROU1_GBR
 70
0
 62
6
  6
CONTINUOUS
  0
LAYER
  2
038689-2ROU1_GBR
 70
0
 62
1
  6
CONTINUOUS
  0
LAYER
  2
038691-1ROU1_GBR
 70
0
 62
4
  6
CONTINUOUS
  0
LAYER
  2
038691-2ROU1_GBR
 70
0
 62
3
  6
CONTINUOUS
  0
LAYER
  2
038691-3ROU1_GBR
 70
0
 62
5
  6
CONTINUOUS
  0
LAYER
  2
038691-4ROU1_GBR
 70
0
 62
10
  6
CONTINUOUS
  0
LAYER
  2
038693-1ROU1_GBR
 70
0
 62
14
  6
CONTINUOUS
  0
LAYER
  2
038695-1ROU1_GBR
 70
0
 62
9
  6
CONTINUOUS
  0
LAYER
  2
038697-1ROU1_GBR
 70
0
 62
12
  6
CONTINUOUS
  0
LAYER
  2
038697-3ROU1_GBR
 70
0
 62
11
  6
CONTINUOUS
  0
LAYER
  2
038697-4ROU1_GBR
 70
0
 62
13
  6
CONTINUOUS
  0
LAYER
  2
038697-5ROU1_GBR
 70
0
 62
8
  6
CONTINUOUS
  0
LAYER
  2
047706-4ROU1_GBR
 70
0
 62
15
  6
CONTINUOUS
  0
LAYER
  2
047706-5ROU1_GBR
 70
0
 62
7
  6
CONTINUOUS
  0
LAYER
  2
047706-6ROU1_GBR
 70
0
 62
7
  6
CONTINUOUS
  0
LAYER
  2
047708-1ROU1_GBR
 70
0
 62
2
  6
CONTINUOUS
  0
LAYER
  2
047710-1ROU1_GBR
 70
0
 62
6
  6
CONTINUOUS
  0
LAYER
  2
047712-1ROU1_GBR
 70
0
 62
1
  6
CONTINUOUS
  0
LAYER
  2
047714-2ROU1_GBR
 70
0
 62
4
  6
CONTINUOUS
  0
LAYER
  2
048701-1ROU1_GBR
 70
0
 62
3
  6
CONTINUOUS
  0
LAYER
  2
048703-1ROU1_GBR
 70
0
 62
10
  6
CONTINUOUS
  0
LAYER
  2
048711-1ROU1_GBR
 70
0
 62
14
  6
CONTINUOUS
  0
LAYER
  2
048715-1ROU1_GBR
 70
0
 62
9
  6
CONTINUOUS
  0
LAYER
  2
058721-2ROU1_GBR
 70
0
 62
12
  6
CONTINUOUS
  0
LAYER
  2
058723-10ROU1_GBR
 70
0
 62
11
  6
CONTINUOUS
  0
LAYER
  2
058723-1ROU1_GBR
 70
0
 62
13
  6
CONTINUOUS
  0
LAYER
  2
058723-6ROU1_GBR
 70
0
 62
8
  6
CONTINUOUS
  0
LAYER
  2
058723-9ROU1_GBR
 70
0
 62
15
  6
CONTINUOUS
  0
LAYER
  2
067601-1ROU1_GBR
 70
0
 62
7
  6
CONTINUOUS
  0
LAYER
  2
068162-1ROU1_GBR
 70
0
 62
7
  6
CONTINUOUS
  0
LAYER
  2
068162-3ROU1_GBR
 70
0
 62
2
  6
CONTINUOUS
  0
LAYER
  2
068162-4ROU1_GBR
 70
0
 62
6
  6
CONTINUOUS
  0
LAYER
  2
077742-1ROU1_GBR
 70
0
 62
1
  6
CONTINUOUS
  0
LAYER
  2
078731-1ROU1_GBR
 70
0
 62
4
  6
CONTINUOUS
  0
LAYER
  2
078735-3ROU1_GBR
 70
0
 62
3
  6
CONTINUOUS
  0
LAYER
  2
078739-1ROU1_GBR
 70
0
 62
5
  6
CONTINUOUS
  0
LAYER
  2
078753-1ROU1_GBR
 70
0
 62
10
  6
CONTINUOUS
  0
LAYER
  2
078757-1ROU1_GBR
 70
0
 62
14
  6
CONTINUOUS
  0
LAYER
  2
087768-2ROU1_GBR
 70
0
 62
9
  6
CONTINUOUS
  0
LAYER
  2
087772-1ROU1_GBR
 70
0
 62
12
  6
CONTINUOUS
  0
LAYER
  2
087780-1ROU1_GBR
 70
0
 62
11
  6
CONTINUOUS
  0
LAYER
  2
087782-9ROU1_GBR
 70
0
 62
13
  6
CONTINUOUS
  0
LAYER
  2
088783-4ROU1_GBR
 70
0
 62
8
  6
CONTINUOUS
  0
LAYER
  2
088785-1ROU1_GBR
 70
0
 62
15
  6
CONTINUOUS
  0
LAYER
  2
097800-6ROU1_GBR
 70
0
 62
7
  6
CONTINUOUS
  0
LAYER
  2
097810-1ROU1_GBR
 70
0
 62
7
  6
CONTINUOUS
  0
LAYER
  2
098787-1ROU1_GBR
 70
0
 62
2
  6
CONTINUOUS
  0
LAYER
  2
098787-2ROU1_GBR
 70
0
 62
6
  6
CONTINUOUS
  0
LAYER
  2
098789-1ROU1_GBR
 70
0
 62
1
  6
CONTINUOUS
  0
LAYER
  2
098811-1ROU1_GBR
 70
0
 62
4
  6
CONTINUOUS
  0
LAYER
  2
098815-1ROU1_GBR
 70
0
 62
3
  6
CONTINUOUS
  0
LAYER
  2
098815-2ROU1_GBR
 70
0
 62
5
  6
CONTINUOUS
  0
LAYER
  2
107824-1ROU1_GBR
 70
0
 62
10
  6
CONTINUOUS
  0
LAYER
  2
118200-1ROU1_GBR
 70
0
 62
14
  6
CONTINUOUS
  0
LAYER
  2
257017-1ROU1_GBR
 70
0
 62
9
  6
CONTINUOUS
  0
LAYER
  2
268076-7ROU1_GBR
 70
0
 62
12
  6
CONTINUOUS
  0
LAYER
  2
288088-1ROU1_GBR
 70
0
 62
11
  6
CONTINUOUS
  0
LAYER
  2
307251-1ROU1_GBR
 70
0
 62
13
  6
CONTINUOUS
  0
LAYER
  2
307273-4ROU1_GBR
 70
0
 62
8
  6
CONTINUOUS
  0
LAYER
  2
307283-1ROU1_GBR
 70
0
 62
15
  6
CONTINUOUS
  0
LAYER
  2
307291-1ROU1_GBR
 70
0
 62
7
  6
CONTINUOUS
  0
LAYER
  2
308108-1ROU1_GBR
 70
0
 62
7
  6
CONTINUOUS
  0
LAYER
  2
308111-1ROU1_GBR
 70
0
 62
2
  6
CONTINUOUS
  0
LAYER
  2
308112-1ROU1_GBR
 70
0
 62
6
  6
CONTINUOUS
  0
ENDTAB
  0
TABLE
  2
STYLE
 70
0
  0
ENDTAB
  0
ENDSEC
  0
SECTION
  2
BLOCKS
  0
BLOCK
  2
ROUND_1
  3
ROUND_1
 70
64
 10
0.00
 20
0.00
 30
0.00
  0
CIRCLE
  8
0
 10
0.00
 20
0.00
 30
0.00
 40
0.10
  0
ENDBLK
  0
ENDSEC
  0
SECTION
  2
ENTITIES
  0
POLYLINE
  8
028126-7ROU1_GBR
 66
1
 10
0.00
 20
0.00
 30
0.00
 40
0.20
 41
0.20
  0
VERTEX
  8
028126-7ROU1_GBR
 10
142.777972
 20
128.904492
 30
0.00
  0
VERTEX
  8
028126-7ROU1_GBR
 10
142.777972
 20
124.550906
 30
0.00
  0
VERTEX
  8
028126-7ROU1_GBR
 10
142.873756
 20
124.54641
 30
0.00
  0
SEQEND
  0
POLYLINE
  8
028126-7ROU1_GBR
 66
1
 10
0.00
 20
0.00
 30
0.00
 40
0.20
 41
0.20
  0
VERTEX
  8
028126-7ROU1_GBR
 10
144.809972
 20
122.517154
 30
0.00
 42
0.4005378
  0
VERTEX
  8
028126-7ROU1_GBR
 10
142.873756
 20
124.54641
 30
0.00
 42
0.00
  0
SEQEND
  0
POLYLINE
  8
028126-7ROU1_GBR
 66
1
 10
0.00
 20
0.00
 30
0.00
 40
0.20
 41
0.20
  0
VERTEX
  8
028126-7ROU1_GBR
 10
144.809972
 20
122.517154
 30
0.00
  0
VERTEX
  8
028126-7ROU1_GBR
 10
144.809972
 20
94.754954
 30
0.00
  0
SEQEND
  0
POLYLINE
  8
028126-7ROU1_GBR
 66
1
 10
0.00
 20
0.00
 30
0.00
 40
0.20
 41
0.20
  0
VERTEX
  8
028126-7ROU1_GBR
 10
143.402812
 20
92.82176
 30
0.00
 42
0.3254116
  0
VERTEX
  8
028126-7ROU1_GBR
 10
144.809988
 20
94.754954
 30
0.00
 42
0.00
  0
SEQEND
  0
POLYLINE
  8
028126-7ROU1_GBR
 66
1
 10
0.00
 20
0.00
 30
0.00
 40
0.20
 41
0.20
  0
VERTEX
  8
028126-7ROU1_GBR
 10
143.402812
 20
92.82176
 30
0.00
 42
0.727891
  0
VERTEX
  8
028126-7ROU1_GBR
 10
143.402812
 20
92.630498
 30
0.00
 42
0.00
  0
SEQEND
  0
POLYLINE
  8
028126-7ROU1_GBR
 66
1
 10
0.00
 20
0.00
 30
0.00
 40
0.20
 41
0.20
  0
VERTEX
  8
028126-7ROU1_GBR
 10
144.809972
 20
90.697304
 30
0.00
 42
0.3254117
  0
VERTEX
  8
028126-7ROU1_GBR
 10
143.402812
 20
92.630498
 30
0.00
 42
0.00
  0
SEQEND
  0
POLYLINE
  8
028126-7ROU1_GBR
 66
1
 10
0.00
 20
0.00
 30
0.00
 40
0.20
 41
0.20
  0
VERTEX
  8
028126-7ROU1_GBR
 10
144.809972
 20
90.697304
 30
0.00
  0
VERTEX
  8
028126-7ROU1_GBR
 10
144.809972
 20
62.935104
 30
0.00
  0
SEQEND
  0
POLYLINE
  8
028126-7ROU1_GBR
 66
1
 10
0.00
 20
0.00
 30
0.00
 40
0.20
 41
0.20
  0
VERTEX
  8
028126-7ROU1_GBR
 10
143.402432
 20
61.001782
 30
0.00
 42
0.3254661
  0
VERTEX
  8
028126-7ROU1_GBR
 10
144.809972
 20
62.935104
 30
0.00
 42
0.00
  0
SEQEND
  0
POLYLINE
  8
028126-7ROU1_GBR
 66
1
 10
0.00
 20
0.00
 30
0.00
 40
0.20
 41
0.20
  0
VERTEX
  8
028126-7ROU1_GBR
 10
143.402432
 20
61.001782
 30
0.00
 42
0.728077
  0
VERTEX
  8
028126-7ROU1_GBR
 10
143.402432
 20
60.810522
 30
0.00
 42
0.00
  0
SEQEND
  0
POLYLINE
  8
028126-7ROU1_GBR
 66
1
 10
0.00
 20
0.00
 30
0.00
 40
0.20
 41
0.20
  0
VERTEX
  8
028126-7ROU1_GBR
 10
144.809972
 20
58.8772
 30
0.00
 42
0.3254662
  0
VERTEX
  8
028126-7ROU1_GBR
 10
143.402432
 20
60.810522
 30
0.00
 42
0.00
  0
SEQEND
  0
POLYLINE
  8
028126-7ROU1_GBR
 66
1
 10
0.00
 20
0.00
 30
0.00
 40
0.20
 41
0.20
  0
VERTEX
  8
028126-7ROU1_GBR
 10
144.809972
 20
58.8772
 30
0.00
  0
VERTEX
  8
028126-7ROU1_GBR
 10
144.809972
 20
31.115
 30
0.00
  0
SEQEND
  0
POLYLINE
  8
028126-7ROU1_GBR
 66
1
 10
0.00
 20
0.00
 30
0.00
 40
0.20
 41
0.20
  0
VERTEX
  8
028126-7ROU1_GBR
 10
142.873756
 20
29.085744
 30
0.00
 42
0.4005378
  0
VERTEX
  8
028126-7ROU1_GBR
 10
144.809972
 20
31.115
 30
0.00
 42
0.00
  0
SEQEND
  0
POLYLINE
  8
028126-7ROU1_GBR
 66
1
 10
0.00
 20
0.00
 30
0.00
 40
0.20
 41
0.20
  0
VERTEX
  8
028126-7ROU1_GBR
 10
142.873756
 20
29.085744
 30
0.00
  0
VERTEX
  8
028126-7ROU1_GBR
 10
142.777972
 20
29.081248
 30
0.00
  0
VERTEX
  8
028126-7ROU1_GBR
 10
142.777972
 20
24.536908
 30
0.00
  0
VERTEX
  8
028126-7ROU1_GBR
 10
54.585108
 20
24.536908
 30
0.00
  0
VERTEX
  8
028126-7ROU1_GBR
 10
54.585108
 20
29.081248
 30
0.00
  0
VERTEX
  8
028126-7ROU1_GBR
 10
54.489324
 20
29.085744
 30
0.00
  0
SEQEND
  0
POLYLINE
  8
028126-7ROU1_GBR
 66
1
 10
0.00
 20
0.00
 30
0.00
 40
0.20
 41
0.20
  0
VERTEX
  8
028126-7ROU1_GBR
 10
52.553108
 20
31.115
 30
0.00
 42
0.4005339
  0
VERTEX
  8
028126-7ROU1_GBR
 10
54.489324
 20
29.085744
 30
0.00
 42
0.00
  0
SEQEND
  0
POLYLINE
  8
028126-7ROU1_GBR
 66
1
 10
0.00
 20
0.00
 30
0.00
 40
0.20
 41
0.20
  0
VERTEX
  8
028126-7ROU1_GBR
 10
52.553108
 20
31.115
 30
0.00
  0
VERTEX
  8
028126-7ROU1_GBR
 10
52.553108
 20
58.883854
 30
0.00
  0
SEQEND
  0
POLYLINE
  8
028126-7ROU1_GBR
 66
1
 10
0.00
 20
0.00
 30
0.00
 40
0.20
 41
0.20
  0
VERTEX
  8
028126-7ROU1_GBR
 10
53.96065
 20
60.810522
 30
0.00
 42
0.3245611
  0
VERTEX
  8
028126-7ROU1_GBR
 10
52.553098
 20
58.883854
 30
0.00
 42
0.00
  0
SEQEND
  0
POLYLINE
  8
028126-7ROU1_GBR
 66
1
 10
0.00
 20
0.00
 30
0.00
 40
0.20
 41
0.20
  0
VERTEX
  8
028126-7ROU1_GBR
 10
53.96065
 20
60.810522
 30
0.00
 42
0.7280625
  0
VERTEX
  8
028126-7ROU1_GBR
 10
53.96065
 20
61.001782
 30
0.00
 42
0.00
  0
SEQEND
  0
POLYLINE
  8
028126-7ROU1_GBR
 66
1
 10
0.00
 20
0.00
 30
0.00
 40
0.20
 41
0.20
  0
VERTEX
  8
028126-7ROU1_GBR
 10
52.553108
 20
62.935104
 30
0.00
 42
0.3254687
  0
VERTEX
  8
028126-7ROU1_GBR
 10
53.960648
 20
61.001778
 30
0.00
 42
0.00
  0
SEQEND
  0
POLYLINE
  8
028126-7ROU1_GBR
 66
1
 10
0.00
 20
0.00
 30
0.00
 40
0.20
 41
0.20
  0
VERTEX
  8
028126-7ROU1_GBR
 10
52.553108
 20
62.935104
 30
0.00
  0
VERTEX
  8
028126-7ROU1_GBR
 10
52.553108
 20
90.703958
 30
0.00
  0
SEQEND
  0
POLYLINE
  8
028126-7ROU1_GBR
 66
1
 10
0.00
 20
0.00
 30
0.00
 40
0.20
 41
0.20
  0
VERTEX
  8
028126-7ROU1_GBR
 10
53.960268
 20
92.630498
 30
0.00
 42
0.3245063
  0
VERTEX
  8
028126-7ROU1_GBR
 10
52.553102
 20
90.703958
 30
0.00
 42
0.00
  0
SEQEND
  0
POLYLINE
  8
028126-7ROU1_GBR
 66
1
 10
0.00
 20
0.00
 30
0.00
 40
0.20
 41
0.20
  0
VERTEX
  8
028126-7ROU1_GBR
 10
53.960268
 20
92.630498
 30
0.00
 42
0.727891
  0
VERTEX
  8
028126-7ROU1_GBR
 10
53.960268
 20
92.82176
 30
0.00
 42
0.00
  0
SEQEND
  0
POLYLINE
  8
028126-7ROU1_GBR
 66
1
 10
0.00
 20
0.00
 30
0.00
 40
0.20
 41
0.20
  0
VERTEX
  8
028126-7ROU1_GBR
 10
52.553108
 20
94.754954
 30
0.00
 42
0.3254138
  0
VERTEX
  8
028126-7ROU1_GBR
 10
53.960264
 20
92.821752
 30
0.00
 42
0.00
  0
SEQEND
  0
POLYLINE
  8
028126-7ROU1_GBR
 66
1
 10
0.00
 20
0.00
 30
0.00
 40
0.20
 41
0.20
  0
VERTEX
  8
028126-7ROU1_GBR
 10
52.553108
 20
94.754954
 30
0.00
  0
VERTEX
  8
028126-7ROU1_GBR
 10
52.553108
 20
122.523808
 30
0.00
  0
SEQEND
  0
POLYLINE
  8
028126-7ROU1_GBR
 66
1
 10
0.00
 20
0.00
 30
0.00
 40
0.20
 41
0.20
  0
VERTEX
  8
028126-7ROU1_GBR
 10
54.489324
 20
124.54641
 30
0.00
 42
0.3995882
  0
VERTEX
  8
028126-7ROU1_GBR
 10
52.553108
 20
122.523808
 30
0.00
 42
0.00
  0
SEQEND
  0
POLYLINE
  8
028126-7ROU1_GBR
 66
1
 10
0.00
 20
0.00
 30
0.00
 40
0.20
 41
0.20
  0
VERTEX
  8
028126-7ROU1_GBR
 10
54.489324
 20
124.54641
 30
0.00
  0
VERTEX
  8
028126-7ROU1_GBR
 10
54.585108
 20
124.550906
 30
0.00
  0
VERTEX
  8
028126-7ROU1_GBR
 10
54.585108
 20
128.904492
 30
0.00
  0
VERTEX
  8
028126-7ROU1_GBR
 10
142.777972
 20
128.904492
 30
0.00
  0
SEQEND
  0
ENDSEC
  0
EOF
