  0
SECTION
  2
HEADER
  9
$EXTMIN
 10
-258.359834
 20
-58.010602
 30
0.00
  9
$EXTMAX
 10
470.00
 20
419.20
 30
0.00
  0
ENDSEC
  0
SECTION
  2
TABLES
  0
TABLE
  2
LTYPE
 70
3
  0
LTYPE
  2
BYBLOCK
 70
0
  3

 72
65
 73
0
 40
0.00
  0
LTYPE
  2
BYLAYER
 70
0
  3

 72
65
 73
0
 40
0.00
  0
LTYPE
  2
CONTINUOUS
 70
0
  3
Solid line
 72
65
 73
0
 40
0.00
  0
ENDTAB
  0
TABLE
  2
LAYER
 70
99
  0
LAYER
  2
0
 70
0
 62
7
  6
CONTINUOUS
  0
LAYER
  2
020671-1ROU1_GBR
 70
0
 62
7
  6
CONTINUOUS
  0
LAYER
  2
027417-3ROU1_GBR
 70
0
 62
7
  6
CONTINUOUS
  0
LAYER
  2
027419-1ROU1_GBR
 70
0
 62
2
  6
CONTINUOUS
  0
LAYER
  2
027419-2ROU1_GBR
 70
0
 62
6
  6
CONTINUOUS
  0
LAYER
  2
027674-1ROU1_GBR
 70
0
 62
1
  6
CONTINUOUS
  0
LAYER
  2
027676-1ROU1_GBR
 70
0
 62
4
  6
CONTINUOUS
  0
LAYER
  2
027678-3ROU1_GBR
 70
0
 62
3
  6
CONTINUOUS
  0
LAYER
  2
028122-1ROU1_GBR
 70
0
 62
5
  6
CONTINUOUS
  0
LAYER
  2
028124-5ROU1_GBR
 70
0
 62
10
  6
CONTINUOUS
  0
LAYER
  2
028126-1ROU1_GBR
 70
0
 62
14
  6
CONTINUOUS
  0
LAYER
  2
028126-3ROU1_GBR
 70
0
 62
9
  6
CONTINUOUS
  0
LAYER
  2
028126-6ROU1_GBR
 70
0
 62
12
  6
CONTINUOUS
  0
LAYER
  2
028126-7ROU1_GBR
 70
0
 62
11
  6
CONTINUOUS
  0
LAYER
  2
028129-1ROU1_GBR
 70
0
 62
13
  6
CONTINUOUS
  0
LAYER
  2
028130-1ROU1_GBR
 70
0
 62
8
  6
CONTINUOUS
  0
LAYER
  2
028130-4ROU1_GBR
 70
0
 62
15
  6
CONTINUOUS
  0
LAYER
  2
028130-5ROU1_GBR
 70
0
 62
7
  6
CONTINUOUS
  0
LAYER
  2
028130-7ROU1_GBR
 70
0
 62
7
  6
CONTINUOUS
  0
LAYER
  2
028655-1ROU1_GBR
 70
0
 62
2
  6
CONTINUOUS
  0
LAYER
  2
028657-1ROU1_GBR
 70
0
 62
6
  6
CONTINUOUS
  0
LAYER
  2
028659-2ROU1_GBR
 70
0
 62
1
  6
CONTINUOUS
  0
LAYER
  2
028659-4ROU1_GBR
 70
0
 62
4
  6
CONTINUOUS
  0
LAYER
  2
028661-1ROU1_GBR
 70
0
 62
3
  6
CONTINUOUS
  0
LAYER
  2
028663-1ROU1_GBR
 70
0
 62
5
  6
CONTINUOUS
  0
LAYER
  2
028665-1ROU1_GBR
 70
0
 62
10
  6
CONTINUOUS
  0
LAYER
  2
028669-1ROU1_GBR
 70
0
 62
14
  6
CONTINUOUS
  0
LAYER
  2
028673-2ROU1_GBR
 70
0
 62
9
  6
CONTINUOUS
  0
LAYER
  2
037088-3ROU1_GBR
 70
0
 62
12
  6
CONTINUOUS
  0
LAYER
  2
037682-1ROU1_GBR
 70
0
 62
11
  6
CONTINUOUS
  0
LAYER
  2
037686-1ROU1_GBR
 70
0
 62
13
  6
CONTINUOUS
  0
LAYER
  2
037688-1ROU1_GBR
 70
0
 62
8
  6
CONTINUOUS
  0
LAYER
  2
038681-1ROU1_GBR
 70
0
 62
15
  6
CONTINUOUS
  0
LAYER
  2
038683-1ROU1_GBR
 70
0
 62
7
  6
CONTINUOUS
  0
LAYER
  2
038683-2ROU1_GBR
 70
0
 62
7
  6
CONTINUOUS
  0
LAYER
  2
038685-1ROU1_GBR
 70
0
 62
2
  6
CONTINUOUS
  0
LAYER
  2
038689-1ROU1_GBR
 70
0
 62
6
  6
CONTINUOUS
  0
LAYER
  2
038689-2ROU1_GBR
 70
0
 62
1
  6
CONTINUOUS
  0
LAYER
  2
038691-1ROU1_GBR
 70
0
 62
4
  6
CONTINUOUS
  0
LAYER
  2
038691-2ROU1_GBR
 70
0
 62
3
  6
CONTINUOUS
  0
LAYER
  2
038691-3ROU1_GBR
 70
0
 62
5
  6
CONTINUOUS
  0
LAYER
  2
038691-4ROU1_GBR
 70
0
 62
10
  6
CONTINUOUS
  0
LAYER
  2
038693-1ROU1_GBR
 70
0
 62
14
  6
CONTINUOUS
  0
LAYER
  2
038695-1ROU1_GBR
 70
0
 62
9
  6
CONTINUOUS
  0
LAYER
  2
038697-1ROU1_GBR
 70
0
 62
12
  6
CONTINUOUS
  0
LAYER
  2
038697-3ROU1_GBR
 70
0
 62
11
  6
CONTINUOUS
  0
LAYER
  2
038697-4ROU1_GBR
 70
0
 62
13
  6
CONTINUOUS
  0
LAYER
  2
038697-5ROU1_GBR
 70
0
 62
8
  6
CONTINUOUS
  0
LAYER
  2
047706-4ROU1_GBR
 70
0
 62
15
  6
CONTINUOUS
  0
LAYER
  2
047706-5ROU1_GBR
 70
0
 62
7
  6
CONTINUOUS
  0
LAYER
  2
047706-6ROU1_GBR
 70
0
 62
7
  6
CONTINUOUS
  0
LAYER
  2
047708-1ROU1_GBR
 70
0
 62
2
  6
CONTINUOUS
  0
LAYER
  2
047710-1ROU1_GBR
 70
0
 62
6
  6
CONTINUOUS
  0
LAYER
  2
047712-1ROU1_GBR
 70
0
 62
1
  6
CONTINUOUS
  0
LAYER
  2
047714-2ROU1_GBR
 70
0
 62
4
  6
CONTINUOUS
  0
LAYER
  2
048701-1ROU1_GBR
 70
0
 62
3
  6
CONTINUOUS
  0
LAYER
  2
048703-1ROU1_GBR
 70
0
 62
10
  6
CONTINUOUS
  0
LAYER
  2
048711-1ROU1_GBR
 70
0
 62
14
  6
CONTINUOUS
  0
LAYER
  2
048715-1ROU1_GBR
 70
0
 62
9
  6
CONTINUOUS
  0
LAYER
  2
058721-2ROU1_GBR
 70
0
 62
12
  6
CONTINUOUS
  0
LAYER
  2
058723-10ROU1_GBR
 70
0
 62
11
  6
CONTINUOUS
  0
LAYER
  2
058723-1ROU1_GBR
 70
0
 62
13
  6
CONTINUOUS
  0
LAYER
  2
058723-6ROU1_GBR
 70
0
 62
8
  6
CONTINUOUS
  0
LAYER
  2
058723-9ROU1_GBR
 70
0
 62
15
  6
CONTINUOUS
  0
LAYER
  2
067601-1ROU1_GBR
 70
0
 62
7
  6
CONTINUOUS
  0
LAYER
  2
068162-1ROU1_GBR
 70
0
 62
7
  6
CONTINUOUS
  0
LAYER
  2
068162-3ROU1_GBR
 70
0
 62
2
  6
CONTINUOUS
  0
LAYER
  2
068162-4ROU1_GBR
 70
0
 62
6
  6
CONTINUOUS
  0
LAYER
  2
077742-1ROU1_GBR
 70
0
 62
1
  6
CONTINUOUS
  0
LAYER
  2
078731-1ROU1_GBR
 70
0
 62
4
  6
CONTINUOUS
  0
LAYER
  2
078735-3ROU1_GBR
 70
0
 62
3
  6
CONTINUOUS
  0
LAYER
  2
078739-1ROU1_GBR
 70
0
 62
5
  6
CONTINUOUS
  0
LAYER
  2
078753-1ROU1_GBR
 70
0
 62
10
  6
CONTINUOUS
  0
LAYER
  2
078757-1ROU1_GBR
 70
0
 62
14
  6
CONTINUOUS
  0
LAYER
  2
087768-2ROU1_GBR
 70
0
 62
9
  6
CONTINUOUS
  0
LAYER
  2
087772-1ROU1_GBR
 70
0
 62
12
  6
CONTINUOUS
  0
LAYER
  2
087780-1ROU1_GBR
 70
0
 62
11
  6
CONTINUOUS
  0
LAYER
  2
087782-9ROU1_GBR
 70
0
 62
13
  6
CONTINUOUS
  0
LAYER
  2
088783-4ROU1_GBR
 70
0
 62
8
  6
CONTINUOUS
  0
LAYER
  2
088785-1ROU1_GBR
 70
0
 62
15
  6
CONTINUOUS
  0
LAYER
  2
097800-6ROU1_GBR
 70
0
 62
7
  6
CONTINUOUS
  0
LAYER
  2
097810-1ROU1_GBR
 70
0
 62
7
  6
CONTINUOUS
  0
LAYER
  2
098787-1ROU1_GBR
 70
0
 62
2
  6
CONTINUOUS
  0
LAYER
  2
098787-2ROU1_GBR
 70
0
 62
6
  6
CONTINUOUS
  0
LAYER
  2
098789-1ROU1_GBR
 70
0
 62
1
  6
CONTINUOUS
  0
LAYER
  2
098811-1ROU1_GBR
 70
0
 62
4
  6
CONTINUOUS
  0
LAYER
  2
098815-1ROU1_GBR
 70
0
 62
3
  6
CONTINUOUS
  0
LAYER
  2
098815-2ROU1_GBR
 70
0
 62
5
  6
CONTINUOUS
  0
LAYER
  2
107824-1ROU1_GBR
 70
0
 62
10
  6
CONTINUOUS
  0
LAYER
  2
118200-1ROU1_GBR
 70
0
 62
14
  6
CONTINUOUS
  0
LAYER
  2
257017-1ROU1_GBR
 70
0
 62
9
  6
CONTINUOUS
  0
LAYER
  2
268076-7ROU1_GBR
 70
0
 62
12
  6
CONTINUOUS
  0
LAYER
  2
288088-1ROU1_GBR
 70
0
 62
11
  6
CONTINUOUS
  0
LAYER
  2
307251-1ROU1_GBR
 70
0
 62
13
  6
CONTINUOUS
  0
LAYER
  2
307273-4ROU1_GBR
 70
0
 62
8
  6
CONTINUOUS
  0
LAYER
  2
307283-1ROU1_GBR
 70
0
 62
15
  6
CONTINUOUS
  0
LAYER
  2
307291-1ROU1_GBR
 70
0
 62
7
  6
CONTINUOUS
  0
LAYER
  2
308108-1ROU1_GBR
 70
0
 62
7
  6
CONTINUOUS
  0
LAYER
  2
308111-1ROU1_GBR
 70
0
 62
2
  6
CONTINUOUS
  0
LAYER
  2
308112-1ROU1_GBR
 70
0
 62
6
  6
CONTINUOUS
  0
ENDTAB
  0
TABLE
  2
STYLE
 70
0
  0
ENDTAB
  0
ENDSEC
  0
SECTION
  2
BLOCKS
  0
BLOCK
  2
ROUND_1
  3
ROUND_1
 70
64
 10
0.00
 20
0.00
 30
0.00
  0
CIRCLE
  8
0
 10
0.00
 20
0.00
 30
0.00
 40
0.10
  0
ENDBLK
  0
ENDSEC
  0
SECTION
  2
ENTITIES
  0
POLYLINE
  8
028126-1ROU1_GBR
 66
1
 10
0.00
 20
0.00
 30
0.00
 40
0.20
 41
0.20
  0
VERTEX
  8
028126-1ROU1_GBR
 10
164.520372
 20
136.651492
 30
0.00
  0
VERTEX
  8
028126-1ROU1_GBR
 10
164.520372
 20
133.078602
 30
0.00
  0
VERTEX
  8
028126-1ROU1_GBR
 10
164.614174
 20
133.072328
 30
0.00
  0
SEQEND
  0
POLYLINE
  8
028126-1ROU1_GBR
 66
1
 10
0.00
 20
0.00
 30
0.00
 40
0.20
 41
0.20
  0
VERTEX
  8
028126-1ROU1_GBR
 10
165.917626
 20
131.678934
 30
0.00
 42
0.3948179
  0
VERTEX
  8
028126-1ROU1_GBR
 10
164.614174
 20
133.072328
 30
0.00
 42
0.00
  0
SEQEND
  0
POLYLINE
  8
028126-1ROU1_GBR
 66
1
 10
0.00
 20
0.00
 30
0.00
 40
0.20
 41
0.20
  0
VERTEX
  8
028126-1ROU1_GBR
 10
165.917626
 20
131.678934
 30
0.00
  0
VERTEX
  8
028126-1ROU1_GBR
 10
165.917626
 20
118.978934
 30
0.00
  0
SEQEND
  0
POLYLINE
  8
028126-1ROU1_GBR
 66
1
 10
0.00
 20
0.00
 30
0.00
 40
0.20
 41
0.20
  0
VERTEX
  8
028126-1ROU1_GBR
 10
165.027864
 20
117.677616
 30
0.00
 42
0.3091892
  0
VERTEX
  8
028126-1ROU1_GBR
 10
165.91763
 20
118.978934
 30
0.00
 42
0.00
  0
SEQEND
  0
POLYLINE
  8
028126-1ROU1_GBR
 66
1
 10
0.00
 20
0.00
 30
0.00
 40
0.20
 41
0.20
  0
VERTEX
  8
028126-1ROU1_GBR
 10
165.027864
 20
117.677616
 30
0.00
  0
VERTEX
  8
028126-1ROU1_GBR
 10
164.787376
 20
117.583966
 30
0.00
  0
VERTEX
  8
028126-1ROU1_GBR
 10
165.027864
 20
117.490316
 30
0.00
  0
SEQEND
  0
POLYLINE
  8
028126-1ROU1_GBR
 66
1
 10
0.00
 20
0.00
 30
0.00
 40
0.20
 41
0.20
  0
VERTEX
  8
028126-1ROU1_GBR
 10
165.917626
 20
116.188998
 30
0.00
 42
0.3091895
  0
VERTEX
  8
028126-1ROU1_GBR
 10
165.027864
 20
117.490316
 30
0.00
 42
0.00
  0
SEQEND
  0
POLYLINE
  8
028126-1ROU1_GBR
 66
1
 10
0.00
 20
0.00
 30
0.00
 40
0.20
 41
0.20
  0
VERTEX
  8
028126-1ROU1_GBR
 10
165.917626
 20
116.188998
 30
0.00
  0
VERTEX
  8
028126-1ROU1_GBR
 10
165.917626
 20
103.488998
 30
0.00
  0
SEQEND
  0
POLYLINE
  8
028126-1ROU1_GBR
 66
1
 10
0.00
 20
0.00
 30
0.00
 40
0.20
 41
0.20
  0
VERTEX
  8
028126-1ROU1_GBR
 10
165.027864
 20
102.18768
 30
0.00
 42
0.3091892
  0
VERTEX
  8
028126-1ROU1_GBR
 10
165.91763
 20
103.488998
 30
0.00
 42
0.00
  0
SEQEND
  0
POLYLINE
  8
028126-1ROU1_GBR
 66
1
 10
0.00
 20
0.00
 30
0.00
 40
0.20
 41
0.20
  0
VERTEX
  8
028126-1ROU1_GBR
 10
165.027864
 20
102.18768
 30
0.00
  0
VERTEX
  8
028126-1ROU1_GBR
 10
164.787376
 20
102.09403
 30
0.00
  0
VERTEX
  8
028126-1ROU1_GBR
 10
165.027864
 20
102.00038
 30
0.00
  0
SEQEND
  0
POLYLINE
  8
028126-1ROU1_GBR
 66
1
 10
0.00
 20
0.00
 30
0.00
 40
0.20
 41
0.20
  0
VERTEX
  8
028126-1ROU1_GBR
 10
165.917626
 20
100.699062
 30
0.00
 42
0.3091895
  0
VERTEX
  8
028126-1ROU1_GBR
 10
165.027864
 20
102.00038
 30
0.00
 42
0.00
  0
SEQEND
  0
POLYLINE
  8
028126-1ROU1_GBR
 66
1
 10
0.00
 20
0.00
 30
0.00
 40
0.20
 41
0.20
  0
VERTEX
  8
028126-1ROU1_GBR
 10
165.917626
 20
100.699062
 30
0.00
  0
VERTEX
  8
028126-1ROU1_GBR
 10
165.917626
 20
87.999062
 30
0.00
  0
SEQEND
  0
POLYLINE
  8
028126-1ROU1_GBR
 66
1
 10
0.00
 20
0.00
 30
0.00
 40
0.20
 41
0.20
  0
VERTEX
  8
028126-1ROU1_GBR
 10
165.02761
 20
86.697642
 30
0.00
 42
0.3092429
  0
VERTEX
  8
028126-1ROU1_GBR
 10
165.917632
 20
87.999062
 30
0.00
 42
0.00
  0
SEQEND
  0
POLYLINE
  8
028126-1ROU1_GBR
 66
1
 10
0.00
 20
0.00
 30
0.00
 40
0.20
 41
0.20
  0
VERTEX
  8
028126-1ROU1_GBR
 10
165.02761
 20
86.697642
 30
0.00
  0
VERTEX
  8
028126-1ROU1_GBR
 10
164.786946
 20
86.603992
 30
0.00
  0
VERTEX
  8
028126-1ROU1_GBR
 10
165.02761
 20
86.510342
 30
0.00
  0
SEQEND
  0
POLYLINE
  8
028126-1ROU1_GBR
 66
1
 10
0.00
 20
0.00
 30
0.00
 40
0.20
 41
0.20
  0
VERTEX
  8
028126-1ROU1_GBR
 10
165.917626
 20
85.209126
 30
0.00
 42
0.3092345
  0
VERTEX
  8
028126-1ROU1_GBR
 10
165.02761
 20
86.510342
 30
0.00
 42
0.00
  0
SEQEND
  0
POLYLINE
  8
028126-1ROU1_GBR
 66
1
 10
0.00
 20
0.00
 30
0.00
 40
0.20
 41
0.20
  0
VERTEX
  8
028126-1ROU1_GBR
 10
165.917626
 20
85.209126
 30
0.00
  0
VERTEX
  8
028126-1ROU1_GBR
 10
165.917626
 20
72.509126
 30
0.00
  0
SEQEND
  0
POLYLINE
  8
028126-1ROU1_GBR
 66
1
 10
0.00
 20
0.00
 30
0.00
 40
0.20
 41
0.20
  0
VERTEX
  8
028126-1ROU1_GBR
 10
165.02756
 20
71.20768
 30
0.00
 42
0.3092539
  0
VERTEX
  8
028126-1ROU1_GBR
 10
165.917638
 20
72.509126
 30
0.00
 42
0.00
  0
SEQEND
  0
POLYLINE
  8
028126-1ROU1_GBR
 66
1
 10
0.00
 20
0.00
 30
0.00
 40
0.20
 41
0.20
  0
VERTEX
  8
028126-1ROU1_GBR
 10
165.02756
 20
71.20768
 30
0.00
  0
VERTEX
  8
028126-1ROU1_GBR
 10
164.786894
 20
71.114032
 30
0.00
  0
VERTEX
  8
028126-1ROU1_GBR
 10
165.02756
 20
71.020382
 30
0.00
  0
SEQEND
  0
POLYLINE
  8
028126-1ROU1_GBR
 66
1
 10
0.00
 20
0.00
 30
0.00
 40
0.20
 41
0.20
  0
VERTEX
  8
028126-1ROU1_GBR
 10
165.917626
 20
69.718936
 30
0.00
 42
0.3092544
  0
VERTEX
  8
028126-1ROU1_GBR
 10
165.02756
 20
71.020382
 30
0.00
 42
0.00
  0
SEQEND
  0
POLYLINE
  8
028126-1ROU1_GBR
 66
1
 10
0.00
 20
0.00
 30
0.00
 40
0.20
 41
0.20
  0
VERTEX
  8
028126-1ROU1_GBR
 10
165.917626
 20
69.718936
 30
0.00
  0
VERTEX
  8
028126-1ROU1_GBR
 10
165.917626
 20
57.018936
 30
0.00
  0
SEQEND
  0
POLYLINE
  8
028126-1ROU1_GBR
 66
1
 10
0.00
 20
0.00
 30
0.00
 40
0.20
 41
0.20
  0
VERTEX
  8
028126-1ROU1_GBR
 10
165.027864
 20
55.717618
 30
0.00
 42
0.3091892
  0
VERTEX
  8
028126-1ROU1_GBR
 10
165.91763
 20
57.018936
 30
0.00
 42
0.00
  0
SEQEND
  0
POLYLINE
  8
028126-1ROU1_GBR
 66
1
 10
0.00
 20
0.00
 30
0.00
 40
0.20
 41
0.20
  0
VERTEX
  8
028126-1ROU1_GBR
 10
165.027864
 20
55.717618
 30
0.00
  0
VERTEX
  8
028126-1ROU1_GBR
 10
164.787376
 20
55.623968
 30
0.00
  0
VERTEX
  8
028126-1ROU1_GBR
 10
165.027864
 20
55.530318
 30
0.00
  0
SEQEND
  0
POLYLINE
  8
028126-1ROU1_GBR
 66
1
 10
0.00
 20
0.00
 30
0.00
 40
0.20
 41
0.20
  0
VERTEX
  8
028126-1ROU1_GBR
 10
165.917626
 20
54.229
 30
0.00
 42
0.3091895
  0
VERTEX
  8
028126-1ROU1_GBR
 10
165.027864
 20
55.530318
 30
0.00
 42
0.00
  0
SEQEND
  0
POLYLINE
  8
028126-1ROU1_GBR
 66
1
 10
0.00
 20
0.00
 30
0.00
 40
0.20
 41
0.20
  0
VERTEX
  8
028126-1ROU1_GBR
 10
165.917626
 20
54.229
 30
0.00
  0
VERTEX
  8
028126-1ROU1_GBR
 10
165.917626
 20
41.529
 30
0.00
  0
SEQEND
  0
POLYLINE
  8
028126-1ROU1_GBR
 66
1
 10
0.00
 20
0.00
 30
0.00
 40
0.20
 41
0.20
  0
VERTEX
  8
028126-1ROU1_GBR
 10
164.614174
 20
40.135606
 30
0.00
 42
0.3948175
  0
VERTEX
  8
028126-1ROU1_GBR
 10
165.91763
 20
41.529
 30
0.00
 42
0.00
  0
SEQEND
  0
POLYLINE
  8
028126-1ROU1_GBR
 66
1
 10
0.00
 20
0.00
 30
0.00
 40
0.20
 41
0.20
  0
VERTEX
  8
028126-1ROU1_GBR
 10
164.614174
 20
40.135606
 30
0.00
  0
VERTEX
  8
028126-1ROU1_GBR
 10
164.520372
 20
40.129334
 30
0.00
  0
VERTEX
  8
028126-1ROU1_GBR
 10
164.520372
 20
36.424108
 30
0.00
  0
VERTEX
  8
028126-1ROU1_GBR
 10
71.501508
 20
36.424108
 30
0.00
  0
VERTEX
  8
028126-1ROU1_GBR
 10
71.501508
 20
40.129334
 30
0.00
  0
VERTEX
  8
028126-1ROU1_GBR
 10
71.407706
 20
40.135606
 30
0.00
  0
SEQEND
  0
POLYLINE
  8
028126-1ROU1_GBR
 66
1
 10
0.00
 20
0.00
 30
0.00
 40
0.20
 41
0.20
  0
VERTEX
  8
028126-1ROU1_GBR
 10
70.104508
 20
41.529
 30
0.00
 42
0.3947654
  0
VERTEX
  8
028126-1ROU1_GBR
 10
71.407706
 20
40.135606
 30
0.00
 42
0.00
  0
SEQEND
  0
POLYLINE
  8
028126-1ROU1_GBR
 66
1
 10
0.00
 20
0.00
 30
0.00
 40
0.20
 41
0.20
  0
VERTEX
  8
028126-1ROU1_GBR
 10
70.104508
 20
41.529
 30
0.00
  0
VERTEX
  8
028126-1ROU1_GBR
 10
70.104508
 20
54.229
 30
0.00
  0
SEQEND
  0
POLYLINE
  8
028126-1ROU1_GBR
 66
1
 10
0.00
 20
0.00
 30
0.00
 40
0.20
 41
0.20
  0
VERTEX
  8
028126-1ROU1_GBR
 10
70.99427
 20
55.530318
 30
0.00
 42
0.3091892
  0
VERTEX
  8
028126-1ROU1_GBR
 10
70.104504
 20
54.229
 30
0.00
 42
0.00
  0
SEQEND
  0
POLYLINE
  8
028126-1ROU1_GBR
 66
1
 10
0.00
 20
0.00
 30
0.00
 40
0.20
 41
0.20
  0
VERTEX
  8
028126-1ROU1_GBR
 10
70.99427
 20
55.530318
 30
0.00
  0
VERTEX
  8
028126-1ROU1_GBR
 10
71.234758
 20
55.623968
 30
0.00
  0
VERTEX
  8
028126-1ROU1_GBR
 10
70.99427
 20
55.717618
 30
0.00
  0
SEQEND
  0
POLYLINE
  8
028126-1ROU1_GBR
 66
1
 10
0.00
 20
0.00
 30
0.00
 40
0.20
 41
0.20
  0
VERTEX
  8
028126-1ROU1_GBR
 10
70.104508
 20
57.018936
 30
0.00
 42
0.3091895
  0
VERTEX
  8
028126-1ROU1_GBR
 10
70.99427
 20
55.717618
 30
0.00
 42
0.00
  0
SEQEND
  0
POLYLINE
  8
028126-1ROU1_GBR
 66
1
 10
0.00
 20
0.00
 30
0.00
 40
0.20
 41
0.20
  0
VERTEX
  8
028126-1ROU1_GBR
 10
70.104508
 20
57.018936
 30
0.00
  0
VERTEX
  8
028126-1ROU1_GBR
 10
70.104508
 20
69.718936
 30
0.00
  0
SEQEND
  0
POLYLINE
  8
028126-1ROU1_GBR
 66
1
 10
0.00
 20
0.00
 30
0.00
 40
0.20
 41
0.20
  0
VERTEX
  8
028126-1ROU1_GBR
 10
70.994574
 20
71.020382
 30
0.00
 42
0.3092539
  0
VERTEX
  8
028126-1ROU1_GBR
 10
70.104496
 20
69.718936
 30
0.00
 42
0.00
  0
SEQEND
  0
POLYLINE
  8
028126-1ROU1_GBR
 66
1
 10
0.00
 20
0.00
 30
0.00
 40
0.20
 41
0.20
  0
VERTEX
  8
028126-1ROU1_GBR
 10
70.994574
 20
71.020382
 30
0.00
  0
VERTEX
  8
028126-1ROU1_GBR
 10
71.235266
 20
71.114032
 30
0.00
  0
VERTEX
  8
028126-1ROU1_GBR
 10
70.994574
 20
71.20768
 30
0.00
  0
SEQEND
  0
POLYLINE
  8
028126-1ROU1_GBR
 66
1
 10
0.00
 20
0.00
 30
0.00
 40
0.20
 41
0.20
  0
VERTEX
  8
028126-1ROU1_GBR
 10
70.104508
 20
72.509126
 30
0.00
 42
0.3092544
  0
VERTEX
  8
028126-1ROU1_GBR
 10
70.994574
 20
71.20768
 30
0.00
 42
0.00
  0
SEQEND
  0
POLYLINE
  8
028126-1ROU1_GBR
 66
1
 10
0.00
 20
0.00
 30
0.00
 40
0.20
 41
0.20
  0
VERTEX
  8
028126-1ROU1_GBR
 10
70.104508
 20
72.509126
 30
0.00
  0
VERTEX
  8
028126-1ROU1_GBR
 10
70.104508
 20
85.209126
 30
0.00
  0
SEQEND
  0
POLYLINE
  8
028126-1ROU1_GBR
 66
1
 10
0.00
 20
0.00
 30
0.00
 40
0.20
 41
0.20
  0
VERTEX
  8
028126-1ROU1_GBR
 10
70.994574
 20
86.510318
 30
0.00
 42
0.3092041
  0
VERTEX
  8
028126-1ROU1_GBR
 10
70.104496
 20
85.209126
 30
0.00
 42
0.00
  0
SEQEND
  0
POLYLINE
  8
028126-1ROU1_GBR
 66
1
 10
0.00
 20
0.00
 30
0.00
 40
0.20
 41
0.20
  0
VERTEX
  8
028126-1ROU1_GBR
 10
70.994574
 20
86.510318
 30
0.00
  0
VERTEX
  8
028126-1ROU1_GBR
 10
71.235266
 20
86.603968
 30
0.00
  0
VERTEX
  8
028126-1ROU1_GBR
 10
70.994574
 20
86.697616
 30
0.00
  0
SEQEND
  0
POLYLINE
  8
028126-1ROU1_GBR
 66
1
 10
0.00
 20
0.00
 30
0.00
 40
0.20
 41
0.20
  0
VERTEX
  8
028126-1ROU1_GBR
 10
70.104508
 20
87.999062
 30
0.00
 42
0.3092544
  0
VERTEX
  8
028126-1ROU1_GBR
 10
70.994574
 20
86.697616
 30
0.00
 42
0.00
  0
SEQEND
  0
POLYLINE
  8
028126-1ROU1_GBR
 66
1
 10
0.00
 20
0.00
 30
0.00
 40
0.20
 41
0.20
  0
VERTEX
  8
028126-1ROU1_GBR
 10
70.104508
 20
87.999062
 30
0.00
  0
VERTEX
  8
028126-1ROU1_GBR
 10
70.104508
 20
100.699062
 30
0.00
  0
SEQEND
  0
POLYLINE
  8
028126-1ROU1_GBR
 66
1
 10
0.00
 20
0.00
 30
0.00
 40
0.20
 41
0.20
  0
VERTEX
  8
028126-1ROU1_GBR
 10
70.99427
 20
102.00038
 30
0.00
 42
0.3091892
  0
VERTEX
  8
028126-1ROU1_GBR
 10
70.104504
 20
100.699062
 30
0.00
 42
0.00
  0
SEQEND
  0
POLYLINE
  8
028126-1ROU1_GBR
 66
1
 10
0.00
 20
0.00
 30
0.00
 40
0.20
 41
0.20
  0
VERTEX
  8
028126-1ROU1_GBR
 10
70.99427
 20
102.00038
 30
0.00
  0
VERTEX
  8
028126-1ROU1_GBR
 10
71.234758
 20
102.09403
 30
0.00
  0
VERTEX
  8
028126-1ROU1_GBR
 10
70.99427
 20
102.18768
 30
0.00
  0
SEQEND
  0
POLYLINE
  8
028126-1ROU1_GBR
 66
1
 10
0.00
 20
0.00
 30
0.00
 40
0.20
 41
0.20
  0
VERTEX
  8
028126-1ROU1_GBR
 10
70.104508
 20
103.488998
 30
0.00
 42
0.3091895
  0
VERTEX
  8
028126-1ROU1_GBR
 10
70.99427
 20
102.18768
 30
0.00
 42
0.00
  0
SEQEND
  0
POLYLINE
  8
028126-1ROU1_GBR
 66
1
 10
0.00
 20
0.00
 30
0.00
 40
0.20
 41
0.20
  0
VERTEX
  8
028126-1ROU1_GBR
 10
70.104508
 20
103.488998
 30
0.00
  0
VERTEX
  8
028126-1ROU1_GBR
 10
70.104508
 20
116.188998
 30
0.00
  0
SEQEND
  0
POLYLINE
  8
028126-1ROU1_GBR
 66
1
 10
0.00
 20
0.00
 30
0.00
 40
0.20
 41
0.20
  0
VERTEX
  8
028126-1ROU1_GBR
 10
70.99427
 20
117.490316
 30
0.00
 42
0.3091892
  0
VERTEX
  8
028126-1ROU1_GBR
 10
70.104504
 20
116.188998
 30
0.00
 42
0.00
  0
SEQEND
  0
POLYLINE
  8
028126-1ROU1_GBR
 66
1
 10
0.00
 20
0.00
 30
0.00
 40
0.20
 41
0.20
  0
VERTEX
  8
028126-1ROU1_GBR
 10
70.99427
 20
117.490316
 30
0.00
  0
VERTEX
  8
028126-1ROU1_GBR
 10
71.234758
 20
117.583966
 30
0.00
  0
VERTEX
  8
028126-1ROU1_GBR
 10
70.99427
 20
117.677616
 30
0.00
  0
SEQEND
  0
POLYLINE
  8
028126-1ROU1_GBR
 66
1
 10
0.00
 20
0.00
 30
0.00
 40
0.20
 41
0.20
  0
VERTEX
  8
028126-1ROU1_GBR
 10
70.104508
 20
118.978934
 30
0.00
 42
0.3091895
  0
VERTEX
  8
028126-1ROU1_GBR
 10
70.99427
 20
117.677616
 30
0.00
 42
0.00
  0
SEQEND
  0
POLYLINE
  8
028126-1ROU1_GBR
 66
1
 10
0.00
 20
0.00
 30
0.00
 40
0.20
 41
0.20
  0
VERTEX
  8
028126-1ROU1_GBR
 10
70.104508
 20
118.978934
 30
0.00
  0
VERTEX
  8
028126-1ROU1_GBR
 10
70.104508
 20
131.678934
 30
0.00
  0
SEQEND
  0
POLYLINE
  8
028126-1ROU1_GBR
 66
1
 10
0.00
 20
0.00
 30
0.00
 40
0.20
 41
0.20
  0
VERTEX
  8
028126-1ROU1_GBR
 10
71.407706
 20
133.072328
 30
0.00
 42
0.3947657
  0
VERTEX
  8
028126-1ROU1_GBR
 10
70.104508
 20
131.678934
 30
0.00
 42
0.00
  0
SEQEND
  0
POLYLINE
  8
028126-1ROU1_GBR
 66
1
 10
0.00
 20
0.00
 30
0.00
 40
0.20
 41
0.20
  0
VERTEX
  8
028126-1ROU1_GBR
 10
71.407706
 20
133.072328
 30
0.00
  0
VERTEX
  8
028126-1ROU1_GBR
 10
71.501508
 20
133.078602
 30
0.00
  0
VERTEX
  8
028126-1ROU1_GBR
 10
71.501508
 20
136.651492
 30
0.00
  0
VERTEX
  8
028126-1ROU1_GBR
 10
164.520372
 20
136.651492
 30
0.00
  0
SEQEND
  0
ENDSEC
  0
EOF
