  0
SECTION
  2
HEADER
  9
$EXTMIN
 10
-258.359834
 20
-58.010602
 30
0.00
  9
$EXTMAX
 10
470.00
 20
419.20
 30
0.00
  0
ENDSEC
  0
SECTION
  2
TABLES
  0
TABLE
  2
LTYPE
 70
3
  0
LTYPE
  2
BYBLOCK
 70
0
  3

 72
65
 73
0
 40
0.00
  0
LTYPE
  2
BYLAYER
 70
0
  3

 72
65
 73
0
 40
0.00
  0
LTYPE
  2
CONTINUOUS
 70
0
  3
Solid line
 72
65
 73
0
 40
0.00
  0
ENDTAB
  0
TABLE
  2
LAYER
 70
99
  0
LAYER
  2
0
 70
0
 62
7
  6
CONTINUOUS
  0
LAYER
  2
020671-1ROU1_GBR
 70
0
 62
7
  6
CONTINUOUS
  0
LAYER
  2
027417-3ROU1_GBR
 70
0
 62
7
  6
CONTINUOUS
  0
LAYER
  2
027419-1ROU1_GBR
 70
0
 62
2
  6
CONTINUOUS
  0
LAYER
  2
027419-2ROU1_GBR
 70
0
 62
6
  6
CONTINUOUS
  0
LAYER
  2
027674-1ROU1_GBR
 70
0
 62
1
  6
CONTINUOUS
  0
LAYER
  2
027676-1ROU1_GBR
 70
0
 62
4
  6
CONTINUOUS
  0
LAYER
  2
027678-3ROU1_GBR
 70
0
 62
3
  6
CONTINUOUS
  0
LAYER
  2
028122-1ROU1_GBR
 70
0
 62
5
  6
CONTINUOUS
  0
LAYER
  2
028124-5ROU1_GBR
 70
0
 62
10
  6
CONTINUOUS
  0
LAYER
  2
028126-1ROU1_GBR
 70
0
 62
14
  6
CONTINUOUS
  0
LAYER
  2
028126-3ROU1_GBR
 70
0
 62
9
  6
CONTINUOUS
  0
LAYER
  2
028126-6ROU1_GBR
 70
0
 62
12
  6
CONTINUOUS
  0
LAYER
  2
028126-7ROU1_GBR
 70
0
 62
11
  6
CONTINUOUS
  0
LAYER
  2
028129-1ROU1_GBR
 70
0
 62
13
  6
CONTINUOUS
  0
LAYER
  2
028130-1ROU1_GBR
 70
0
 62
8
  6
CONTINUOUS
  0
LAYER
  2
028130-4ROU1_GBR
 70
0
 62
15
  6
CONTINUOUS
  0
LAYER
  2
028130-5ROU1_GBR
 70
0
 62
7
  6
CONTINUOUS
  0
LAYER
  2
028130-7ROU1_GBR
 70
0
 62
7
  6
CONTINUOUS
  0
LAYER
  2
028655-1ROU1_GBR
 70
0
 62
2
  6
CONTINUOUS
  0
LAYER
  2
028657-1ROU1_GBR
 70
0
 62
6
  6
CONTINUOUS
  0
LAYER
  2
028659-2ROU1_GBR
 70
0
 62
1
  6
CONTINUOUS
  0
LAYER
  2
028659-4ROU1_GBR
 70
0
 62
4
  6
CONTINUOUS
  0
LAYER
  2
028661-1ROU1_GBR
 70
0
 62
3
  6
CONTINUOUS
  0
LAYER
  2
028663-1ROU1_GBR
 70
0
 62
5
  6
CONTINUOUS
  0
LAYER
  2
028665-1ROU1_GBR
 70
0
 62
10
  6
CONTINUOUS
  0
LAYER
  2
028669-1ROU1_GBR
 70
0
 62
14
  6
CONTINUOUS
  0
LAYER
  2
028673-2ROU1_GBR
 70
0
 62
9
  6
CONTINUOUS
  0
LAYER
  2
037088-3ROU1_GBR
 70
0
 62
12
  6
CONTINUOUS
  0
LAYER
  2
037682-1ROU1_GBR
 70
0
 62
11
  6
CONTINUOUS
  0
LAYER
  2
037686-1ROU1_GBR
 70
0
 62
13
  6
CONTINUOUS
  0
LAYER
  2
037688-1ROU1_GBR
 70
0
 62
8
  6
CONTINUOUS
  0
LAYER
  2
038681-1ROU1_GBR
 70
0
 62
15
  6
CONTINUOUS
  0
LAYER
  2
038683-1ROU1_GBR
 70
0
 62
7
  6
CONTINUOUS
  0
LAYER
  2
038683-2ROU1_GBR
 70
0
 62
7
  6
CONTINUOUS
  0
LAYER
  2
038685-1ROU1_GBR
 70
0
 62
2
  6
CONTINUOUS
  0
LAYER
  2
038689-1ROU1_GBR
 70
0
 62
6
  6
CONTINUOUS
  0
LAYER
  2
038689-2ROU1_GBR
 70
0
 62
1
  6
CONTINUOUS
  0
LAYER
  2
038691-1ROU1_GBR
 70
0
 62
4
  6
CONTINUOUS
  0
LAYER
  2
038691-2ROU1_GBR
 70
0
 62
3
  6
CONTINUOUS
  0
LAYER
  2
038691-3ROU1_GBR
 70
0
 62
5
  6
CONTINUOUS
  0
LAYER
  2
038691-4ROU1_GBR
 70
0
 62
10
  6
CONTINUOUS
  0
LAYER
  2
038693-1ROU1_GBR
 70
0
 62
14
  6
CONTINUOUS
  0
LAYER
  2
038695-1ROU1_GBR
 70
0
 62
9
  6
CONTINUOUS
  0
LAYER
  2
038697-1ROU1_GBR
 70
0
 62
12
  6
CONTINUOUS
  0
LAYER
  2
038697-3ROU1_GBR
 70
0
 62
11
  6
CONTINUOUS
  0
LAYER
  2
038697-4ROU1_GBR
 70
0
 62
13
  6
CONTINUOUS
  0
LAYER
  2
038697-5ROU1_GBR
 70
0
 62
8
  6
CONTINUOUS
  0
LAYER
  2
047706-4ROU1_GBR
 70
0
 62
15
  6
CONTINUOUS
  0
LAYER
  2
047706-5ROU1_GBR
 70
0
 62
7
  6
CONTINUOUS
  0
LAYER
  2
047706-6ROU1_GBR
 70
0
 62
7
  6
CONTINUOUS
  0
LAYER
  2
047708-1ROU1_GBR
 70
0
 62
2
  6
CONTINUOUS
  0
LAYER
  2
047710-1ROU1_GBR
 70
0
 62
6
  6
CONTINUOUS
  0
LAYER
  2
047712-1ROU1_GBR
 70
0
 62
1
  6
CONTINUOUS
  0
LAYER
  2
047714-2ROU1_GBR
 70
0
 62
4
  6
CONTINUOUS
  0
LAYER
  2
048701-1ROU1_GBR
 70
0
 62
3
  6
CONTINUOUS
  0
LAYER
  2
048703-1ROU1_GBR
 70
0
 62
10
  6
CONTINUOUS
  0
LAYER
  2
048711-1ROU1_GBR
 70
0
 62
14
  6
CONTINUOUS
  0
LAYER
  2
048715-1ROU1_GBR
 70
0
 62
9
  6
CONTINUOUS
  0
LAYER
  2
058721-2ROU1_GBR
 70
0
 62
12
  6
CONTINUOUS
  0
LAYER
  2
058723-10ROU1_GBR
 70
0
 62
11
  6
CONTINUOUS
  0
LAYER
  2
058723-1ROU1_GBR
 70
0
 62
13
  6
CONTINUOUS
  0
LAYER
  2
058723-6ROU1_GBR
 70
0
 62
8
  6
CONTINUOUS
  0
LAYER
  2
058723-9ROU1_GBR
 70
0
 62
15
  6
CONTINUOUS
  0
LAYER
  2
067601-1ROU1_GBR
 70
0
 62
7
  6
CONTINUOUS
  0
LAYER
  2
068162-1ROU1_GBR
 70
0
 62
7
  6
CONTINUOUS
  0
LAYER
  2
068162-3ROU1_GBR
 70
0
 62
2
  6
CONTINUOUS
  0
LAYER
  2
068162-4ROU1_GBR
 70
0
 62
6
  6
CONTINUOUS
  0
LAYER
  2
077742-1ROU1_GBR
 70
0
 62
1
  6
CONTINUOUS
  0
LAYER
  2
078731-1ROU1_GBR
 70
0
 62
4
  6
CONTINUOUS
  0
LAYER
  2
078735-3ROU1_GBR
 70
0
 62
3
  6
CONTINUOUS
  0
LAYER
  2
078739-1ROU1_GBR
 70
0
 62
5
  6
CONTINUOUS
  0
LAYER
  2
078753-1ROU1_GBR
 70
0
 62
10
  6
CONTINUOUS
  0
LAYER
  2
078757-1ROU1_GBR
 70
0
 62
14
  6
CONTINUOUS
  0
LAYER
  2
087768-2ROU1_GBR
 70
0
 62
9
  6
CONTINUOUS
  0
LAYER
  2
087772-1ROU1_GBR
 70
0
 62
12
  6
CONTINUOUS
  0
LAYER
  2
087780-1ROU1_GBR
 70
0
 62
11
  6
CONTINUOUS
  0
LAYER
  2
087782-9ROU1_GBR
 70
0
 62
13
  6
CONTINUOUS
  0
LAYER
  2
088783-4ROU1_GBR
 70
0
 62
8
  6
CONTINUOUS
  0
LAYER
  2
088785-1ROU1_GBR
 70
0
 62
15
  6
CONTINUOUS
  0
LAYER
  2
097800-6ROU1_GBR
 70
0
 62
7
  6
CONTINUOUS
  0
LAYER
  2
097810-1ROU1_GBR
 70
0
 62
7
  6
CONTINUOUS
  0
LAYER
  2
098787-1ROU1_GBR
 70
0
 62
2
  6
CONTINUOUS
  0
LAYER
  2
098787-2ROU1_GBR
 70
0
 62
6
  6
CONTINUOUS
  0
LAYER
  2
098789-1ROU1_GBR
 70
0
 62
1
  6
CONTINUOUS
  0
LAYER
  2
098811-1ROU1_GBR
 70
0
 62
4
  6
CONTINUOUS
  0
LAYER
  2
098815-1ROU1_GBR
 70
0
 62
3
  6
CONTINUOUS
  0
LAYER
  2
098815-2ROU1_GBR
 70
0
 62
5
  6
CONTINUOUS
  0
LAYER
  2
107824-1ROU1_GBR
 70
0
 62
10
  6
CONTINUOUS
  0
LAYER
  2
118200-1ROU1_GBR
 70
0
 62
14
  6
CONTINUOUS
  0
LAYER
  2
257017-1ROU1_GBR
 70
0
 62
9
  6
CONTINUOUS
  0
LAYER
  2
268076-7ROU1_GBR
 70
0
 62
12
  6
CONTINUOUS
  0
LAYER
  2
288088-1ROU1_GBR
 70
0
 62
11
  6
CONTINUOUS
  0
LAYER
  2
307251-1ROU1_GBR
 70
0
 62
13
  6
CONTINUOUS
  0
LAYER
  2
307273-4ROU1_GBR
 70
0
 62
8
  6
CONTINUOUS
  0
LAYER
  2
307283-1ROU1_GBR
 70
0
 62
15
  6
CONTINUOUS
  0
LAYER
  2
307291-1ROU1_GBR
 70
0
 62
7
  6
CONTINUOUS
  0
LAYER
  2
308108-1ROU1_GBR
 70
0
 62
7
  6
CONTINUOUS
  0
LAYER
  2
308111-1ROU1_GBR
 70
0
 62
2
  6
CONTINUOUS
  0
LAYER
  2
308112-1ROU1_GBR
 70
0
 62
6
  6
CONTINUOUS
  0
ENDTAB
  0
TABLE
  2
STYLE
 70
0
  0
ENDTAB
  0
ENDSEC
  0
SECTION
  2
BLOCKS
  0
BLOCK
  2
ROUND_1
  3
ROUND_1
 70
64
 10
0.00
 20
0.00
 30
0.00
  0
CIRCLE
  8
0
 10
0.00
 20
0.00
 30
0.00
 40
0.10
  0
ENDBLK
  0
ENDSEC
  0
SECTION
  2
ENTITIES
  0
POLYLINE
  8
028126-6ROU1_GBR
 66
1
 10
0.00
 20
0.00
 30
0.00
 40
0.20
 41
0.20
  0
VERTEX
  8
028126-6ROU1_GBR
 10
144.205706
 20
118.236492
 30
0.00
  0
VERTEX
  8
028126-6ROU1_GBR
 10
144.205706
 20
113.878106
 30
0.00
  0
VERTEX
  8
028126-6ROU1_GBR
 10
144.303648
 20
113.875616
 30
0.00
  0
SEQEND
  0
POLYLINE
  8
028126-6ROU1_GBR
 66
1
 10
0.00
 20
0.00
 30
0.00
 40
0.20
 41
0.20
  0
VERTEX
  8
028126-6ROU1_GBR
 10
146.56783
 20
111.584104
 30
0.00
 42
0.4028261
  0
VERTEX
  8
028126-6ROU1_GBR
 10
144.303648
 20
113.875616
 30
0.00
 42
0.00
  0
SEQEND
  0
POLYLINE
  8
028126-6ROU1_GBR
 66
1
 10
0.00
 20
0.00
 30
0.00
 40
0.20
 41
0.20
  0
VERTEX
  8
028126-6ROU1_GBR
 10
146.56783
 20
111.584104
 30
0.00
  0
VERTEX
  8
028126-6ROU1_GBR
 10
146.542506
 20
111.517226
 30
0.00
  0
VERTEX
  8
028126-6ROU1_GBR
 10
146.542506
 20
95.512586
 30
0.00
  0
SEQEND
  0
POLYLINE
  8
028126-6ROU1_GBR
 66
1
 10
0.00
 20
0.00
 30
0.00
 40
0.20
 41
0.20
  0
VERTEX
  8
028126-6ROU1_GBR
 10
144.900548
 20
93.303928
 30
0.00
 42
0.3279473
  0
VERTEX
  8
028126-6ROU1_GBR
 10
146.542512
 20
95.512584
 30
0.00
 42
0.00
  0
SEQEND
  0
POLYLINE
  8
028126-6ROU1_GBR
 66
1
 10
0.00
 20
0.00
 30
0.00
 40
0.20
 41
0.20
  0
VERTEX
  8
028126-6ROU1_GBR
 10
144.900548
 20
93.303928
 30
0.00
 42
0.7434385
  0
VERTEX
  8
028126-6ROU1_GBR
 10
144.901616
 20
93.111448
 30
0.00
 42
0.00
  0
SEQEND
  0
POLYLINE
  8
028126-6ROU1_GBR
 66
1
 10
0.00
 20
0.00
 30
0.00
 40
0.20
 41
0.20
  0
VERTEX
  8
028126-6ROU1_GBR
 10
146.56783
 20
90.914118
 30
0.00
 42
0.328753
  0
VERTEX
  8
028126-6ROU1_GBR
 10
144.901616
 20
93.111448
 30
0.00
 42
0.00
  0
SEQEND
  0
POLYLINE
  8
028126-6ROU1_GBR
 66
1
 10
0.00
 20
0.00
 30
0.00
 40
0.20
 41
0.20
  0
VERTEX
  8
028126-6ROU1_GBR
 10
146.56783
 20
90.914118
 30
0.00
  0
VERTEX
  8
028126-6ROU1_GBR
 10
146.542506
 20
90.847214
 30
0.00
  0
VERTEX
  8
028126-6ROU1_GBR
 10
146.542506
 20
74.842574
 30
0.00
  0
SEQEND
  0
POLYLINE
  8
028126-6ROU1_GBR
 66
1
 10
0.00
 20
0.00
 30
0.00
 40
0.20
 41
0.20
  0
VERTEX
  8
028126-6ROU1_GBR
 10
144.900548
 20
72.633916
 30
0.00
 42
0.3279473
  0
VERTEX
  8
028126-6ROU1_GBR
 10
146.542512
 20
74.842572
 30
0.00
 42
0.00
  0
SEQEND
  0
POLYLINE
  8
028126-6ROU1_GBR
 66
1
 10
0.00
 20
0.00
 30
0.00
 40
0.20
 41
0.20
  0
VERTEX
  8
028126-6ROU1_GBR
 10
144.900548
 20
72.633916
 30
0.00
 42
0.7434385
  0
VERTEX
  8
028126-6ROU1_GBR
 10
144.901616
 20
72.441436
 30
0.00
 42
0.00
  0
SEQEND
  0
POLYLINE
  8
028126-6ROU1_GBR
 66
1
 10
0.00
 20
0.00
 30
0.00
 40
0.20
 41
0.20
  0
VERTEX
  8
028126-6ROU1_GBR
 10
146.56783
 20
70.244106
 30
0.00
 42
0.328753
  0
VERTEX
  8
028126-6ROU1_GBR
 10
144.901616
 20
72.441436
 30
0.00
 42
0.00
  0
SEQEND
  0
POLYLINE
  8
028126-6ROU1_GBR
 66
1
 10
0.00
 20
0.00
 30
0.00
 40
0.20
 41
0.20
  0
VERTEX
  8
028126-6ROU1_GBR
 10
146.56783
 20
70.244106
 30
0.00
  0
VERTEX
  8
028126-6ROU1_GBR
 10
146.542506
 20
70.177202
 30
0.00
  0
VERTEX
  8
028126-6ROU1_GBR
 10
146.542506
 20
54.172562
 30
0.00
  0
SEQEND
  0
POLYLINE
  8
028126-6ROU1_GBR
 66
1
 10
0.00
 20
0.00
 30
0.00
 40
0.20
 41
0.20
  0
VERTEX
  8
028126-6ROU1_GBR
 10
144.900548
 20
51.963904
 30
0.00
 42
0.3279473
  0
VERTEX
  8
028126-6ROU1_GBR
 10
146.542512
 20
54.17256
 30
0.00
 42
0.00
  0
SEQEND
  0
POLYLINE
  8
028126-6ROU1_GBR
 66
1
 10
0.00
 20
0.00
 30
0.00
 40
0.20
 41
0.20
  0
VERTEX
  8
028126-6ROU1_GBR
 10
144.900548
 20
51.963904
 30
0.00
 42
0.7434385
  0
VERTEX
  8
028126-6ROU1_GBR
 10
144.901616
 20
51.771424
 30
0.00
 42
0.00
  0
SEQEND
  0
POLYLINE
  8
028126-6ROU1_GBR
 66
1
 10
0.00
 20
0.00
 30
0.00
 40
0.20
 41
0.20
  0
VERTEX
  8
028126-6ROU1_GBR
 10
146.56783
 20
49.574094
 30
0.00
 42
0.328753
  0
VERTEX
  8
028126-6ROU1_GBR
 10
144.901616
 20
51.771424
 30
0.00
 42
0.00
  0
SEQEND
  0
POLYLINE
  8
028126-6ROU1_GBR
 66
1
 10
0.00
 20
0.00
 30
0.00
 40
0.20
 41
0.20
  0
VERTEX
  8
028126-6ROU1_GBR
 10
146.56783
 20
49.574094
 30
0.00
  0
VERTEX
  8
028126-6ROU1_GBR
 10
146.542506
 20
49.50719
 30
0.00
  0
VERTEX
  8
028126-6ROU1_GBR
 10
146.542506
 20
33.50255
 30
0.00
  0
SEQEND
  0
POLYLINE
  8
028126-6ROU1_GBR
 66
1
 10
0.00
 20
0.00
 30
0.00
 40
0.20
 41
0.20
  0
VERTEX
  8
028126-6ROU1_GBR
 10
144.32694
 20
31.194172
 30
0.00
 42
0.3990658
  0
VERTEX
  8
028126-6ROU1_GBR
 10
146.542506
 20
33.50255
 30
0.00
 42
0.00
  0
SEQEND
  0
POLYLINE
  8
028126-6ROU1_GBR
 66
1
 10
0.00
 20
0.00
 30
0.00
 40
0.20
 41
0.20
  0
VERTEX
  8
028126-6ROU1_GBR
 10
144.32694
 20
31.194172
 30
0.00
  0
VERTEX
  8
028126-6ROU1_GBR
 10
144.231106
 20
31.189726
 30
0.00
  0
VERTEX
  8
028126-6ROU1_GBR
 10
144.231106
 20
27.280108
 30
0.00
  0
VERTEX
  8
028126-6ROU1_GBR
 10
63.271908
 20
27.280108
 30
0.00
  0
VERTEX
  8
028126-6ROU1_GBR
 10
63.271908
 20
31.188914
 30
0.00
  0
VERTEX
  8
028126-6ROU1_GBR
 10
63.181764
 20
31.198262
 30
0.00
  0
SEQEND
  0
POLYLINE
  8
028126-6ROU1_GBR
 66
1
 10
0.00
 20
0.00
 30
0.00
 40
0.20
 41
0.20
  0
VERTEX
  8
028126-6ROU1_GBR
 10
61.849508
 20
32.613498
 30
0.00
 42
0.3720726
  0
VERTEX
  8
028126-6ROU1_GBR
 10
63.181764
 20
31.198262
 30
0.00
 42
0.00
  0
SEQEND
  0
POLYLINE
  8
028126-6ROU1_GBR
 66
1
 10
0.00
 20
0.00
 30
0.00
 40
0.20
 41
0.20
  0
VERTEX
  8
028126-6ROU1_GBR
 10
61.849508
 20
32.613498
 30
0.00
  0
VERTEX
  8
028126-6ROU1_GBR
 10
61.849914
 20
50.453366
 30
0.00
  0
SEQEND
  0
POLYLINE
  8
028126-6ROU1_GBR
 66
1
 10
0.00
 20
0.00
 30
0.00
 40
0.20
 41
0.20
  0
VERTEX
  8
028126-6ROU1_GBR
 10
62.805208
 20
51.770102
 30
0.00
 42
0.2978031
  0
VERTEX
  8
028126-6ROU1_GBR
 10
61.849906
 20
50.453366
 30
0.00
 42
0.00
  0
SEQEND
  0
POLYLINE
  8
028126-6ROU1_GBR
 66
1
 10
0.00
 20
0.00
 30
0.00
 40
0.20
 41
0.20
  0
VERTEX
  8
028126-6ROU1_GBR
 10
62.805208
 20
51.770102
 30
0.00
  0
VERTEX
  8
028126-6ROU1_GBR
 10
63.051486
 20
51.864006
 30
0.00
  0
VERTEX
  8
028126-6ROU1_GBR
 10
62.805208
 20
51.95791
 30
0.00
  0
SEQEND
  0
POLYLINE
  8
028126-6ROU1_GBR
 66
1
 10
0.00
 20
0.00
 30
0.00
 40
0.20
 41
0.20
  0
VERTEX
  8
028126-6ROU1_GBR
 10
61.849508
 20
53.28351
 30
0.00
 42
0.2994286
  0
VERTEX
  8
028126-6ROU1_GBR
 10
62.805208
 20
51.95791
 30
0.00
 42
0.00
  0
SEQEND
  0
POLYLINE
  8
028126-6ROU1_GBR
 66
1
 10
0.00
 20
0.00
 30
0.00
 40
0.20
 41
0.20
  0
VERTEX
  8
028126-6ROU1_GBR
 10
61.849508
 20
53.28351
 30
0.00
  0
VERTEX
  8
028126-6ROU1_GBR
 10
61.849914
 20
71.123378
 30
0.00
  0
SEQEND
  0
POLYLINE
  8
028126-6ROU1_GBR
 66
1
 10
0.00
 20
0.00
 30
0.00
 40
0.20
 41
0.20
  0
VERTEX
  8
028126-6ROU1_GBR
 10
62.805208
 20
72.440114
 30
0.00
 42
0.2978031
  0
VERTEX
  8
028126-6ROU1_GBR
 10
61.849906
 20
71.123378
 30
0.00
 42
0.00
  0
SEQEND
  0
POLYLINE
  8
028126-6ROU1_GBR
 66
1
 10
0.00
 20
0.00
 30
0.00
 40
0.20
 41
0.20
  0
VERTEX
  8
028126-6ROU1_GBR
 10
62.805208
 20
72.440114
 30
0.00
  0
VERTEX
  8
028126-6ROU1_GBR
 10
63.051486
 20
72.534018
 30
0.00
  0
VERTEX
  8
028126-6ROU1_GBR
 10
62.805208
 20
72.627922
 30
0.00
  0
SEQEND
  0
POLYLINE
  8
028126-6ROU1_GBR
 66
1
 10
0.00
 20
0.00
 30
0.00
 40
0.20
 41
0.20
  0
VERTEX
  8
028126-6ROU1_GBR
 10
61.849508
 20
73.953522
 30
0.00
 42
0.2994286
  0
VERTEX
  8
028126-6ROU1_GBR
 10
62.805208
 20
72.627922
 30
0.00
 42
0.00
  0
SEQEND
  0
POLYLINE
  8
028126-6ROU1_GBR
 66
1
 10
0.00
 20
0.00
 30
0.00
 40
0.20
 41
0.20
  0
VERTEX
  8
028126-6ROU1_GBR
 10
61.849508
 20
73.953522
 30
0.00
  0
VERTEX
  8
028126-6ROU1_GBR
 10
61.849914
 20
91.79339
 30
0.00
  0
SEQEND
  0
POLYLINE
  8
028126-6ROU1_GBR
 66
1
 10
0.00
 20
0.00
 30
0.00
 40
0.20
 41
0.20
  0
VERTEX
  8
028126-6ROU1_GBR
 10
62.805208
 20
93.110126
 30
0.00
 42
0.2978031
  0
VERTEX
  8
028126-6ROU1_GBR
 10
61.849906
 20
91.79339
 30
0.00
 42
0.00
  0
SEQEND
  0
POLYLINE
  8
028126-6ROU1_GBR
 66
1
 10
0.00
 20
0.00
 30
0.00
 40
0.20
 41
0.20
  0
VERTEX
  8
028126-6ROU1_GBR
 10
62.805208
 20
93.110126
 30
0.00
  0
VERTEX
  8
028126-6ROU1_GBR
 10
63.051486
 20
93.20403
 30
0.00
  0
VERTEX
  8
028126-6ROU1_GBR
 10
62.805208
 20
93.297934
 30
0.00
  0
SEQEND
  0
POLYLINE
  8
028126-6ROU1_GBR
 66
1
 10
0.00
 20
0.00
 30
0.00
 40
0.20
 41
0.20
  0
VERTEX
  8
028126-6ROU1_GBR
 10
61.849508
 20
94.623534
 30
0.00
 42
0.2994286
  0
VERTEX
  8
028126-6ROU1_GBR
 10
62.805208
 20
93.297934
 30
0.00
 42
0.00
  0
SEQEND
  0
POLYLINE
  8
028126-6ROU1_GBR
 66
1
 10
0.00
 20
0.00
 30
0.00
 40
0.20
 41
0.20
  0
VERTEX
  8
028126-6ROU1_GBR
 10
61.849508
 20
94.623534
 30
0.00
  0
VERTEX
  8
028126-6ROU1_GBR
 10
61.849914
 20
112.463402
 30
0.00
  0
SEQEND
  0
POLYLINE
  8
028126-6ROU1_GBR
 66
1
 10
0.00
 20
0.00
 30
0.00
 40
0.20
 41
0.20
  0
VERTEX
  8
028126-6ROU1_GBR
 10
63.300712
 20
113.877294
 30
0.00
 42
0.3933491
  0
VERTEX
  8
028126-6ROU1_GBR
 10
61.849914
 20
112.463402
 30
0.00
 42
0.00
  0
SEQEND
  0
POLYLINE
  8
028126-6ROU1_GBR
 66
1
 10
0.00
 20
0.00
 30
0.00
 40
0.20
 41
0.20
  0
VERTEX
  8
028126-6ROU1_GBR
 10
63.300712
 20
113.877294
 30
0.00
  0
VERTEX
  8
028126-6ROU1_GBR
 10
63.398908
 20
113.879554
 30
0.00
  0
VERTEX
  8
028126-6ROU1_GBR
 10
63.398908
 20
118.236492
 30
0.00
  0
VERTEX
  8
028126-6ROU1_GBR
 10
144.205706
 20
118.236492
 30
0.00
  0
SEQEND
  0
ENDSEC
  0
EOF
