  0
SECTION
  2
HEADER
  9
$EXTMIN
 10
-258.359834
 20
-58.010602
 30
0.00
  9
$EXTMAX
 10
470.00
 20
419.20
 30
0.00
  0
ENDSEC
  0
SECTION
  2
TABLES
  0
TABLE
  2
LTYPE
 70
3
  0
LTYPE
  2
BYBLOCK
 70
0
  3

 72
65
 73
0
 40
0.00
  0
LTYPE
  2
BYLAYER
 70
0
  3

 72
65
 73
0
 40
0.00
  0
LTYPE
  2
CONTINUOUS
 70
0
  3
Solid line
 72
65
 73
0
 40
0.00
  0
ENDTAB
  0
TABLE
  2
LAYER
 70
99
  0
LAYER
  2
0
 70
0
 62
7
  6
CONTINUOUS
  0
LAYER
  2
020671-1ROU1_GBR
 70
0
 62
7
  6
CONTINUOUS
  0
LAYER
  2
027417-3ROU1_GBR
 70
0
 62
7
  6
CONTINUOUS
  0
LAYER
  2
027419-1ROU1_GBR
 70
0
 62
2
  6
CONTINUOUS
  0
LAYER
  2
027419-2ROU1_GBR
 70
0
 62
6
  6
CONTINUOUS
  0
LAYER
  2
027674-1ROU1_GBR
 70
0
 62
1
  6
CONTINUOUS
  0
LAYER
  2
027676-1ROU1_GBR
 70
0
 62
4
  6
CONTINUOUS
  0
LAYER
  2
027678-3ROU1_GBR
 70
0
 62
3
  6
CONTINUOUS
  0
LAYER
  2
028122-1ROU1_GBR
 70
0
 62
5
  6
CONTINUOUS
  0
LAYER
  2
028124-5ROU1_GBR
 70
0
 62
10
  6
CONTINUOUS
  0
LAYER
  2
028126-1ROU1_GBR
 70
0
 62
14
  6
CONTINUOUS
  0
LAYER
  2
028126-3ROU1_GBR
 70
0
 62
9
  6
CONTINUOUS
  0
LAYER
  2
028126-6ROU1_GBR
 70
0
 62
12
  6
CONTINUOUS
  0
LAYER
  2
028126-7ROU1_GBR
 70
0
 62
11
  6
CONTINUOUS
  0
LAYER
  2
028129-1ROU1_GBR
 70
0
 62
13
  6
CONTINUOUS
  0
LAYER
  2
028130-1ROU1_GBR
 70
0
 62
8
  6
CONTINUOUS
  0
LAYER
  2
028130-4ROU1_GBR
 70
0
 62
15
  6
CONTINUOUS
  0
LAYER
  2
028130-5ROU1_GBR
 70
0
 62
7
  6
CONTINUOUS
  0
LAYER
  2
028130-7ROU1_GBR
 70
0
 62
7
  6
CONTINUOUS
  0
LAYER
  2
028655-1ROU1_GBR
 70
0
 62
2
  6
CONTINUOUS
  0
LAYER
  2
028657-1ROU1_GBR
 70
0
 62
6
  6
CONTINUOUS
  0
LAYER
  2
028659-2ROU1_GBR
 70
0
 62
1
  6
CONTINUOUS
  0
LAYER
  2
028659-4ROU1_GBR
 70
0
 62
4
  6
CONTINUOUS
  0
LAYER
  2
028661-1ROU1_GBR
 70
0
 62
3
  6
CONTINUOUS
  0
LAYER
  2
028663-1ROU1_GBR
 70
0
 62
5
  6
CONTINUOUS
  0
LAYER
  2
028665-1ROU1_GBR
 70
0
 62
10
  6
CONTINUOUS
  0
LAYER
  2
028669-1ROU1_GBR
 70
0
 62
14
  6
CONTINUOUS
  0
LAYER
  2
028673-2ROU1_GBR
 70
0
 62
9
  6
CONTINUOUS
  0
LAYER
  2
037088-3ROU1_GBR
 70
0
 62
12
  6
CONTINUOUS
  0
LAYER
  2
037682-1ROU1_GBR
 70
0
 62
11
  6
CONTINUOUS
  0
LAYER
  2
037686-1ROU1_GBR
 70
0
 62
13
  6
CONTINUOUS
  0
LAYER
  2
037688-1ROU1_GBR
 70
0
 62
8
  6
CONTINUOUS
  0
LAYER
  2
038681-1ROU1_GBR
 70
0
 62
15
  6
CONTINUOUS
  0
LAYER
  2
038683-1ROU1_GBR
 70
0
 62
7
  6
CONTINUOUS
  0
LAYER
  2
038683-2ROU1_GBR
 70
0
 62
7
  6
CONTINUOUS
  0
LAYER
  2
038685-1ROU1_GBR
 70
0
 62
2
  6
CONTINUOUS
  0
LAYER
  2
038689-1ROU1_GBR
 70
0
 62
6
  6
CONTINUOUS
  0
LAYER
  2
038689-2ROU1_GBR
 70
0
 62
1
  6
CONTINUOUS
  0
LAYER
  2
038691-1ROU1_GBR
 70
0
 62
4
  6
CONTINUOUS
  0
LAYER
  2
038691-2ROU1_GBR
 70
0
 62
3
  6
CONTINUOUS
  0
LAYER
  2
038691-3ROU1_GBR
 70
0
 62
5
  6
CONTINUOUS
  0
LAYER
  2
038691-4ROU1_GBR
 70
0
 62
10
  6
CONTINUOUS
  0
LAYER
  2
038693-1ROU1_GBR
 70
0
 62
14
  6
CONTINUOUS
  0
LAYER
  2
038695-1ROU1_GBR
 70
0
 62
9
  6
CONTINUOUS
  0
LAYER
  2
038697-1ROU1_GBR
 70
0
 62
12
  6
CONTINUOUS
  0
LAYER
  2
038697-3ROU1_GBR
 70
0
 62
11
  6
CONTINUOUS
  0
LAYER
  2
038697-4ROU1_GBR
 70
0
 62
13
  6
CONTINUOUS
  0
LAYER
  2
038697-5ROU1_GBR
 70
0
 62
8
  6
CONTINUOUS
  0
LAYER
  2
047706-4ROU1_GBR
 70
0
 62
15
  6
CONTINUOUS
  0
LAYER
  2
047706-5ROU1_GBR
 70
0
 62
7
  6
CONTINUOUS
  0
LAYER
  2
047706-6ROU1_GBR
 70
0
 62
7
  6
CONTINUOUS
  0
LAYER
  2
047708-1ROU1_GBR
 70
0
 62
2
  6
CONTINUOUS
  0
LAYER
  2
047710-1ROU1_GBR
 70
0
 62
6
  6
CONTINUOUS
  0
LAYER
  2
047712-1ROU1_GBR
 70
0
 62
1
  6
CONTINUOUS
  0
LAYER
  2
047714-2ROU1_GBR
 70
0
 62
4
  6
CONTINUOUS
  0
LAYER
  2
048701-1ROU1_GBR
 70
0
 62
3
  6
CONTINUOUS
  0
LAYER
  2
048703-1ROU1_GBR
 70
0
 62
10
  6
CONTINUOUS
  0
LAYER
  2
048711-1ROU1_GBR
 70
0
 62
14
  6
CONTINUOUS
  0
LAYER
  2
048715-1ROU1_GBR
 70
0
 62
9
  6
CONTINUOUS
  0
LAYER
  2
058721-2ROU1_GBR
 70
0
 62
12
  6
CONTINUOUS
  0
LAYER
  2
058723-10ROU1_GBR
 70
0
 62
11
  6
CONTINUOUS
  0
LAYER
  2
058723-1ROU1_GBR
 70
0
 62
13
  6
CONTINUOUS
  0
LAYER
  2
058723-6ROU1_GBR
 70
0
 62
8
  6
CONTINUOUS
  0
LAYER
  2
058723-9ROU1_GBR
 70
0
 62
15
  6
CONTINUOUS
  0
LAYER
  2
067601-1ROU1_GBR
 70
0
 62
7
  6
CONTINUOUS
  0
LAYER
  2
068162-1ROU1_GBR
 70
0
 62
7
  6
CONTINUOUS
  0
LAYER
  2
068162-3ROU1_GBR
 70
0
 62
2
  6
CONTINUOUS
  0
LAYER
  2
068162-4ROU1_GBR
 70
0
 62
6
  6
CONTINUOUS
  0
LAYER
  2
077742-1ROU1_GBR
 70
0
 62
1
  6
CONTINUOUS
  0
LAYER
  2
078731-1ROU1_GBR
 70
0
 62
4
  6
CONTINUOUS
  0
LAYER
  2
078735-3ROU1_GBR
 70
0
 62
3
  6
CONTINUOUS
  0
LAYER
  2
078739-1ROU1_GBR
 70
0
 62
5
  6
CONTINUOUS
  0
LAYER
  2
078753-1ROU1_GBR
 70
0
 62
10
  6
CONTINUOUS
  0
LAYER
  2
078757-1ROU1_GBR
 70
0
 62
14
  6
CONTINUOUS
  0
LAYER
  2
087768-2ROU1_GBR
 70
0
 62
9
  6
CONTINUOUS
  0
LAYER
  2
087772-1ROU1_GBR
 70
0
 62
12
  6
CONTINUOUS
  0
LAYER
  2
087780-1ROU1_GBR
 70
0
 62
11
  6
CONTINUOUS
  0
LAYER
  2
087782-9ROU1_GBR
 70
0
 62
13
  6
CONTINUOUS
  0
LAYER
  2
088783-4ROU1_GBR
 70
0
 62
8
  6
CONTINUOUS
  0
LAYER
  2
088785-1ROU1_GBR
 70
0
 62
15
  6
CONTINUOUS
  0
LAYER
  2
097800-6ROU1_GBR
 70
0
 62
7
  6
CONTINUOUS
  0
LAYER
  2
097810-1ROU1_GBR
 70
0
 62
7
  6
CONTINUOUS
  0
LAYER
  2
098787-1ROU1_GBR
 70
0
 62
2
  6
CONTINUOUS
  0
LAYER
  2
098787-2ROU1_GBR
 70
0
 62
6
  6
CONTINUOUS
  0
LAYER
  2
098789-1ROU1_GBR
 70
0
 62
1
  6
CONTINUOUS
  0
LAYER
  2
098811-1ROU1_GBR
 70
0
 62
4
  6
CONTINUOUS
  0
LAYER
  2
098815-1ROU1_GBR
 70
0
 62
3
  6
CONTINUOUS
  0
LAYER
  2
098815-2ROU1_GBR
 70
0
 62
5
  6
CONTINUOUS
  0
LAYER
  2
107824-1ROU1_GBR
 70
0
 62
10
  6
CONTINUOUS
  0
LAYER
  2
118200-1ROU1_GBR
 70
0
 62
14
  6
CONTINUOUS
  0
LAYER
  2
257017-1ROU1_GBR
 70
0
 62
9
  6
CONTINUOUS
  0
LAYER
  2
268076-7ROU1_GBR
 70
0
 62
12
  6
CONTINUOUS
  0
LAYER
  2
288088-1ROU1_GBR
 70
0
 62
11
  6
CONTINUOUS
  0
LAYER
  2
307251-1ROU1_GBR
 70
0
 62
13
  6
CONTINUOUS
  0
LAYER
  2
307273-4ROU1_GBR
 70
0
 62
8
  6
CONTINUOUS
  0
LAYER
  2
307283-1ROU1_GBR
 70
0
 62
15
  6
CONTINUOUS
  0
LAYER
  2
307291-1ROU1_GBR
 70
0
 62
7
  6
CONTINUOUS
  0
LAYER
  2
308108-1ROU1_GBR
 70
0
 62
7
  6
CONTINUOUS
  0
LAYER
  2
308111-1ROU1_GBR
 70
0
 62
2
  6
CONTINUOUS
  0
LAYER
  2
308112-1ROU1_GBR
 70
0
 62
6
  6
CONTINUOUS
  0
ENDTAB
  0
TABLE
  2
STYLE
 70
0
  0
ENDTAB
  0
ENDSEC
  0
SECTION
  2
BLOCKS
  0
BLOCK
  2
ROUND_1
  3
ROUND_1
 70
64
 10
0.00
 20
0.00
 30
0.00
  0
CIRCLE
  8
0
 10
0.00
 20
0.00
 30
0.00
 40
0.10
  0
ENDBLK
  0
ENDSEC
  0
SECTION
  2
ENTITIES
  0
POLYLINE
  8
028661-1ROU1_GBR
 66
1
 10
0.00
 20
0.00
 30
0.00
 40
0.20
 41
0.20
  0
VERTEX
  8
028661-1ROU1_GBR
 10
47.244
 20
113.690146
 30
0.00
  0
VERTEX
  8
028661-1ROU1_GBR
 10
47.487078
 20
113.616232
 30
0.00
  0
VERTEX
  8
028661-1ROU1_GBR
 10
47.710852
 20
113.49609
 30
0.00
  0
VERTEX
  8
028661-1ROU1_GBR
 10
47.910166
 20
113.331092
 30
0.00
  0
VERTEX
  8
028661-1ROU1_GBR
 10
48.067722
 20
113.138484
 30
0.00
  0
VERTEX
  8
028661-1ROU1_GBR
 10
48.2664
 20
112.765636
 30
0.00
  0
VERTEX
  8
028661-1ROU1_GBR
 10
48.457028
 20
113.119764
 30
0.00
  0
VERTEX
  8
028661-1ROU1_GBR
 10
48.61908
 20
113.315216
 30
0.00
  0
VERTEX
  8
028661-1ROU1_GBR
 10
48.81593
 20
113.47511
 30
0.00
  0
VERTEX
  8
028661-1ROU1_GBR
 10
49.035462
 20
113.592102
 30
0.00
  0
VERTEX
  8
028661-1ROU1_GBR
 10
49.276838
 20
113.665
 30
0.00
  0
VERTEX
  8
028661-1ROU1_GBR
 10
95.503974
 20
113.665
 30
0.00
  0
VERTEX
  8
028661-1ROU1_GBR
 10
95.76689
 20
113.630456
 30
0.00
  0
VERTEX
  8
028661-1ROU1_GBR
 10
96.005954
 20
113.531346
 30
0.00
  0
VERTEX
  8
028661-1ROU1_GBR
 10
96.017562
 20
113.524588
 30
0.00
  0
VERTEX
  8
028661-1ROU1_GBR
 10
96.222312
 20
113.367566
 30
0.00
  0
VERTEX
  8
028661-1ROU1_GBR
 10
96.383856
 20
113.157
 30
0.00
  0
VERTEX
  8
028661-1ROU1_GBR
 10
96.485202
 20
112.912144
 30
0.00
  0
VERTEX
  8
028661-1ROU1_GBR
 10
96.519696
 20
112.65126
 30
0.00
  0
VERTEX
  8
028661-1ROU1_GBR
 10
98.019998
 20
112.65126
 30
0.00
  0
VERTEX
  8
028661-1ROU1_GBR
 10
98.019844
 20
113.665
 30
0.00
  0
VERTEX
  8
028661-1ROU1_GBR
 10
101.51999
 20
113.665
 30
0.00
  0
VERTEX
  8
028661-1ROU1_GBR
 10
101.51999
 20
0.00
 30
0.00
  0
VERTEX
  8
028661-1ROU1_GBR
 10
98.019844
 20
0.00
 30
0.00
  0
VERTEX
  8
028661-1ROU1_GBR
 10
98.019844
 20
0.836244
 30
0.00
  0
VERTEX
  8
028661-1ROU1_GBR
 10
96.519568
 20
0.836244
 30
0.00
  0
VERTEX
  8
028661-1ROU1_GBR
 10
96.383856
 20
0.508
 30
0.00
  0
VERTEX
  8
028661-1ROU1_GBR
 10
96.222312
 20
0.297688
 30
0.00
  0
VERTEX
  8
028661-1ROU1_GBR
 10
96.012
 20
0.136144
 30
0.00
  0
VERTEX
  8
028661-1ROU1_GBR
 10
95.76689
 20
0.034544
 30
0.00
  0
VERTEX
  8
028661-1ROU1_GBR
 10
95.500648
 20
0.00
 30
0.00
  0
VERTEX
  8
028661-1ROU1_GBR
 10
49.276
 20
0.00
 30
0.00
  0
VERTEX
  8
028661-1ROU1_GBR
 10
49.032922
 20
0.073914
 30
0.00
  0
VERTEX
  8
028661-1ROU1_GBR
 10
48.809148
 20
0.194056
 30
0.00
  0
VERTEX
  8
028661-1ROU1_GBR
 10
48.609808
 20
0.359054
 30
0.00
  0
VERTEX
  8
028661-1ROU1_GBR
 10
48.452278
 20
0.551688
 30
0.00
  0
VERTEX
  8
028661-1ROU1_GBR
 10
48.2536
 20
0.92451
 30
0.00
  0
VERTEX
  8
028661-1ROU1_GBR
 10
48.062972
 20
0.570382
 30
0.00
  0
VERTEX
  8
028661-1ROU1_GBR
 10
47.904882
 20
0.378206
 30
0.00
  0
VERTEX
  8
028661-1ROU1_GBR
 10
47.708566
 20
0.217424
 30
0.00
  0
VERTEX
  8
028661-1ROU1_GBR
 10
47.484538
 20
0.098044
 30
0.00
  0
VERTEX
  8
028661-1ROU1_GBR
 10
47.243162
 20
0.025146
 30
0.00
  0
VERTEX
  8
028661-1ROU1_GBR
 10
1.016026
 20
0.025146
 30
0.00
  0
VERTEX
  8
028661-1ROU1_GBR
 10
0.75311
 20
0.05969
 30
0.00
  0
VERTEX
  8
028661-1ROU1_GBR
 10
0.514046
 20
0.1588
 30
0.00
  0
VERTEX
  8
028661-1ROU1_GBR
 10
0.502438
 20
0.165558
 30
0.00
  0
VERTEX
  8
028661-1ROU1_GBR
 10
0.297688
 20
0.32258
 30
0.00
  0
VERTEX
  8
028661-1ROU1_GBR
 10
0.136144
 20
0.533146
 30
0.00
  0
VERTEX
  8
028661-1ROU1_GBR
 10
0.034798
 20
0.778002
 30
0.00
  0
VERTEX
  8
028661-1ROU1_GBR
 10
0.000304
 20
1.038758
 30
0.00
  0
VERTEX
  8
028661-1ROU1_GBR
 10
-1.499996
 20
1.038758
 30
0.00
  0
VERTEX
  8
028661-1ROU1_GBR
 10
-1.499844
 20
0.00
 30
0.00
  0
VERTEX
  8
028661-1ROU1_GBR
 10
-4.99999
 20
0.00
 30
0.00
  0
VERTEX
  8
028661-1ROU1_GBR
 10
-4.99999
 20
113.665
 30
0.00
  0
VERTEX
  8
028661-1ROU1_GBR
 10
-1.499844
 20
113.665
 30
0.00
  0
VERTEX
  8
028661-1ROU1_GBR
 10
-1.499996
 20
112.85375
 30
0.00
  0
VERTEX
  8
028661-1ROU1_GBR
 10
0.000356
 20
112.85375
 30
0.00
  0
VERTEX
  8
028661-1ROU1_GBR
 10
0.136144
 20
113.18212
 30
0.00
  0
VERTEX
  8
028661-1ROU1_GBR
 10
0.297688
 20
113.392458
 30
0.00
  0
VERTEX
  8
028661-1ROU1_GBR
 10
0.508
 20
113.554002
 30
0.00
  0
VERTEX
  8
028661-1ROU1_GBR
 10
0.75311
 20
113.655602
 30
0.00
  0
VERTEX
  8
028661-1ROU1_GBR
 10
1.019328
 20
113.690146
 30
0.00
  0
VERTEX
  8
028661-1ROU1_GBR
 10
47.244
 20
113.690146
 30
0.00
  0
SEQEND
  0
ENDSEC
  0
EOF
