  0
SECTION
  2
HEADER
  9
$EXTMIN
 10
-258.359834
 20
-58.010602
 30
0.00
  9
$EXTMAX
 10
470.00
 20
419.20
 30
0.00
  0
ENDSEC
  0
SECTION
  2
TABLES
  0
TABLE
  2
LTYPE
 70
3
  0
LTYPE
  2
BYBLOCK
 70
0
  3

 72
65
 73
0
 40
0.00
  0
LTYPE
  2
BYLAYER
 70
0
  3

 72
65
 73
0
 40
0.00
  0
LTYPE
  2
CONTINUOUS
 70
0
  3
Solid line
 72
65
 73
0
 40
0.00
  0
ENDTAB
  0
TABLE
  2
LAYER
 70
99
  0
LAYER
  2
0
 70
0
 62
7
  6
CONTINUOUS
  0
LAYER
  2
020671-1ROU1_GBR
 70
0
 62
7
  6
CONTINUOUS
  0
LAYER
  2
027417-3ROU1_GBR
 70
0
 62
7
  6
CONTINUOUS
  0
LAYER
  2
027419-1ROU1_GBR
 70
0
 62
2
  6
CONTINUOUS
  0
LAYER
  2
027419-2ROU1_GBR
 70
0
 62
6
  6
CONTINUOUS
  0
LAYER
  2
027674-1ROU1_GBR
 70
0
 62
1
  6
CONTINUOUS
  0
LAYER
  2
027676-1ROU1_GBR
 70
0
 62
4
  6
CONTINUOUS
  0
LAYER
  2
027678-3ROU1_GBR
 70
0
 62
3
  6
CONTINUOUS
  0
LAYER
  2
028122-1ROU1_GBR
 70
0
 62
5
  6
CONTINUOUS
  0
LAYER
  2
028124-5ROU1_GBR
 70
0
 62
10
  6
CONTINUOUS
  0
LAYER
  2
028126-1ROU1_GBR
 70
0
 62
14
  6
CONTINUOUS
  0
LAYER
  2
028126-3ROU1_GBR
 70
0
 62
9
  6
CONTINUOUS
  0
LAYER
  2
028126-6ROU1_GBR
 70
0
 62
12
  6
CONTINUOUS
  0
LAYER
  2
028126-7ROU1_GBR
 70
0
 62
11
  6
CONTINUOUS
  0
LAYER
  2
028129-1ROU1_GBR
 70
0
 62
13
  6
CONTINUOUS
  0
LAYER
  2
028130-1ROU1_GBR
 70
0
 62
8
  6
CONTINUOUS
  0
LAYER
  2
028130-4ROU1_GBR
 70
0
 62
15
  6
CONTINUOUS
  0
LAYER
  2
028130-5ROU1_GBR
 70
0
 62
7
  6
CONTINUOUS
  0
LAYER
  2
028130-7ROU1_GBR
 70
0
 62
7
  6
CONTINUOUS
  0
LAYER
  2
028655-1ROU1_GBR
 70
0
 62
2
  6
CONTINUOUS
  0
LAYER
  2
028657-1ROU1_GBR
 70
0
 62
6
  6
CONTINUOUS
  0
LAYER
  2
028659-2ROU1_GBR
 70
0
 62
1
  6
CONTINUOUS
  0
LAYER
  2
028659-4ROU1_GBR
 70
0
 62
4
  6
CONTINUOUS
  0
LAYER
  2
028661-1ROU1_GBR
 70
0
 62
3
  6
CONTINUOUS
  0
LAYER
  2
028663-1ROU1_GBR
 70
0
 62
5
  6
CONTINUOUS
  0
LAYER
  2
028665-1ROU1_GBR
 70
0
 62
10
  6
CONTINUOUS
  0
LAYER
  2
028669-1ROU1_GBR
 70
0
 62
14
  6
CONTINUOUS
  0
LAYER
  2
028673-2ROU1_GBR
 70
0
 62
9
  6
CONTINUOUS
  0
LAYER
  2
037088-3ROU1_GBR
 70
0
 62
12
  6
CONTINUOUS
  0
LAYER
  2
037682-1ROU1_GBR
 70
0
 62
11
  6
CONTINUOUS
  0
LAYER
  2
037686-1ROU1_GBR
 70
0
 62
13
  6
CONTINUOUS
  0
LAYER
  2
037688-1ROU1_GBR
 70
0
 62
8
  6
CONTINUOUS
  0
LAYER
  2
038681-1ROU1_GBR
 70
0
 62
15
  6
CONTINUOUS
  0
LAYER
  2
038683-1ROU1_GBR
 70
0
 62
7
  6
CONTINUOUS
  0
LAYER
  2
038683-2ROU1_GBR
 70
0
 62
7
  6
CONTINUOUS
  0
LAYER
  2
038685-1ROU1_GBR
 70
0
 62
2
  6
CONTINUOUS
  0
LAYER
  2
038689-1ROU1_GBR
 70
0
 62
6
  6
CONTINUOUS
  0
LAYER
  2
038689-2ROU1_GBR
 70
0
 62
1
  6
CONTINUOUS
  0
LAYER
  2
038691-1ROU1_GBR
 70
0
 62
4
  6
CONTINUOUS
  0
LAYER
  2
038691-2ROU1_GBR
 70
0
 62
3
  6
CONTINUOUS
  0
LAYER
  2
038691-3ROU1_GBR
 70
0
 62
5
  6
CONTINUOUS
  0
LAYER
  2
038691-4ROU1_GBR
 70
0
 62
10
  6
CONTINUOUS
  0
LAYER
  2
038693-1ROU1_GBR
 70
0
 62
14
  6
CONTINUOUS
  0
LAYER
  2
038695-1ROU1_GBR
 70
0
 62
9
  6
CONTINUOUS
  0
LAYER
  2
038697-1ROU1_GBR
 70
0
 62
12
  6
CONTINUOUS
  0
LAYER
  2
038697-3ROU1_GBR
 70
0
 62
11
  6
CONTINUOUS
  0
LAYER
  2
038697-4ROU1_GBR
 70
0
 62
13
  6
CONTINUOUS
  0
LAYER
  2
038697-5ROU1_GBR
 70
0
 62
8
  6
CONTINUOUS
  0
LAYER
  2
047706-4ROU1_GBR
 70
0
 62
15
  6
CONTINUOUS
  0
LAYER
  2
047706-5ROU1_GBR
 70
0
 62
7
  6
CONTINUOUS
  0
LAYER
  2
047706-6ROU1_GBR
 70
0
 62
7
  6
CONTINUOUS
  0
LAYER
  2
047708-1ROU1_GBR
 70
0
 62
2
  6
CONTINUOUS
  0
LAYER
  2
047710-1ROU1_GBR
 70
0
 62
6
  6
CONTINUOUS
  0
LAYER
  2
047712-1ROU1_GBR
 70
0
 62
1
  6
CONTINUOUS
  0
LAYER
  2
047714-2ROU1_GBR
 70
0
 62
4
  6
CONTINUOUS
  0
LAYER
  2
048701-1ROU1_GBR
 70
0
 62
3
  6
CONTINUOUS
  0
LAYER
  2
048703-1ROU1_GBR
 70
0
 62
10
  6
CONTINUOUS
  0
LAYER
  2
048711-1ROU1_GBR
 70
0
 62
14
  6
CONTINUOUS
  0
LAYER
  2
048715-1ROU1_GBR
 70
0
 62
9
  6
CONTINUOUS
  0
LAYER
  2
058721-2ROU1_GBR
 70
0
 62
12
  6
CONTINUOUS
  0
LAYER
  2
058723-10ROU1_GBR
 70
0
 62
11
  6
CONTINUOUS
  0
LAYER
  2
058723-1ROU1_GBR
 70
0
 62
13
  6
CONTINUOUS
  0
LAYER
  2
058723-6ROU1_GBR
 70
0
 62
8
  6
CONTINUOUS
  0
LAYER
  2
058723-9ROU1_GBR
 70
0
 62
15
  6
CONTINUOUS
  0
LAYER
  2
067601-1ROU1_GBR
 70
0
 62
7
  6
CONTINUOUS
  0
LAYER
  2
068162-1ROU1_GBR
 70
0
 62
7
  6
CONTINUOUS
  0
LAYER
  2
068162-3ROU1_GBR
 70
0
 62
2
  6
CONTINUOUS
  0
LAYER
  2
068162-4ROU1_GBR
 70
0
 62
6
  6
CONTINUOUS
  0
LAYER
  2
077742-1ROU1_GBR
 70
0
 62
1
  6
CONTINUOUS
  0
LAYER
  2
078731-1ROU1_GBR
 70
0
 62
4
  6
CONTINUOUS
  0
LAYER
  2
078735-3ROU1_GBR
 70
0
 62
3
  6
CONTINUOUS
  0
LAYER
  2
078739-1ROU1_GBR
 70
0
 62
5
  6
CONTINUOUS
  0
LAYER
  2
078753-1ROU1_GBR
 70
0
 62
10
  6
CONTINUOUS
  0
LAYER
  2
078757-1ROU1_GBR
 70
0
 62
14
  6
CONTINUOUS
  0
LAYER
  2
087768-2ROU1_GBR
 70
0
 62
9
  6
CONTINUOUS
  0
LAYER
  2
087772-1ROU1_GBR
 70
0
 62
12
  6
CONTINUOUS
  0
LAYER
  2
087780-1ROU1_GBR
 70
0
 62
11
  6
CONTINUOUS
  0
LAYER
  2
087782-9ROU1_GBR
 70
0
 62
13
  6
CONTINUOUS
  0
LAYER
  2
088783-4ROU1_GBR
 70
0
 62
8
  6
CONTINUOUS
  0
LAYER
  2
088785-1ROU1_GBR
 70
0
 62
15
  6
CONTINUOUS
  0
LAYER
  2
097800-6ROU1_GBR
 70
0
 62
7
  6
CONTINUOUS
  0
LAYER
  2
097810-1ROU1_GBR
 70
0
 62
7
  6
CONTINUOUS
  0
LAYER
  2
098787-1ROU1_GBR
 70
0
 62
2
  6
CONTINUOUS
  0
LAYER
  2
098787-2ROU1_GBR
 70
0
 62
6
  6
CONTINUOUS
  0
LAYER
  2
098789-1ROU1_GBR
 70
0
 62
1
  6
CONTINUOUS
  0
LAYER
  2
098811-1ROU1_GBR
 70
0
 62
4
  6
CONTINUOUS
  0
LAYER
  2
098815-1ROU1_GBR
 70
0
 62
3
  6
CONTINUOUS
  0
LAYER
  2
098815-2ROU1_GBR
 70
0
 62
5
  6
CONTINUOUS
  0
LAYER
  2
107824-1ROU1_GBR
 70
0
 62
10
  6
CONTINUOUS
  0
LAYER
  2
118200-1ROU1_GBR
 70
0
 62
14
  6
CONTINUOUS
  0
LAYER
  2
257017-1ROU1_GBR
 70
0
 62
9
  6
CONTINUOUS
  0
LAYER
  2
268076-7ROU1_GBR
 70
0
 62
12
  6
CONTINUOUS
  0
LAYER
  2
288088-1ROU1_GBR
 70
0
 62
11
  6
CONTINUOUS
  0
LAYER
  2
307251-1ROU1_GBR
 70
0
 62
13
  6
CONTINUOUS
  0
LAYER
  2
307273-4ROU1_GBR
 70
0
 62
8
  6
CONTINUOUS
  0
LAYER
  2
307283-1ROU1_GBR
 70
0
 62
15
  6
CONTINUOUS
  0
LAYER
  2
307291-1ROU1_GBR
 70
0
 62
7
  6
CONTINUOUS
  0
LAYER
  2
308108-1ROU1_GBR
 70
0
 62
7
  6
CONTINUOUS
  0
LAYER
  2
308111-1ROU1_GBR
 70
0
 62
2
  6
CONTINUOUS
  0
LAYER
  2
308112-1ROU1_GBR
 70
0
 62
6
  6
CONTINUOUS
  0
ENDTAB
  0
TABLE
  2
STYLE
 70
0
  0
ENDTAB
  0
ENDSEC
  0
SECTION
  2
BLOCKS
  0
BLOCK
  2
ROUND_1
  3
ROUND_1
 70
64
 10
0.00
 20
0.00
 30
0.00
  0
CIRCLE
  8
0
 10
0.00
 20
0.00
 30
0.00
 40
0.10
  0
ENDBLK
  0
ENDSEC
  0
SECTION
  2
ENTITIES
  0
POLYLINE
  8
028663-1ROU1_GBR
 66
1
 10
0.00
 20
0.00
 30
0.00
 40
0.20
 41
0.20
  0
VERTEX
  8
028663-1ROU1_GBR
 10
116.595296
 20
246.028006
 30
0.00
  0
VERTEX
  8
028663-1ROU1_GBR
 10
117.356662
 20
246.022418
 30
0.00
  0
VERTEX
  8
028663-1ROU1_GBR
 10
118.11889
 20
246.004892
 30
0.00
  0
VERTEX
  8
028663-1ROU1_GBR
 10
118.880738
 20
245.975124
 30
0.00
  0
VERTEX
  8
028663-1ROU1_GBR
 10
119.639868
 20
245.933316
 30
0.00
  0
VERTEX
  8
028663-1ROU1_GBR
 10
120.401512
 20
245.879086
 30
0.00
  0
VERTEX
  8
028663-1ROU1_GBR
 10
120.906922
 20
245.836466
 30
0.00
  0
VERTEX
  8
028663-1ROU1_GBR
 10
121.665136
 20
245.762298
 30
0.00
  0
VERTEX
  8
028663-1ROU1_GBR
 10
122.192414
 20
245.703878
 30
0.00
  0
SEQEND
  0
POLYLINE
  8
028663-1ROU1_GBR
 66
1
 10
0.00
 20
0.00
 30
0.00
 40
0.20
 41
0.20
  0
VERTEX
  8
028663-1ROU1_GBR
 10
122.192414
 20
245.703878
 30
0.00
 42
0.0619947
  0
VERTEX
  8
028663-1ROU1_GBR
 10
121.712534
 20
243.38996
 30
0.00
 42
0.00
  0
SEQEND
  0
POLYLINE
  8
028663-1ROU1_GBR
 66
1
 10
0.00
 20
0.00
 30
0.00
 40
0.20
 41
0.20
  0
VERTEX
  8
028663-1ROU1_GBR
 10
121.712532
 20
243.389962
 30
0.00
  0
VERTEX
  8
028663-1ROU1_GBR
 10
121.694752
 20
243.129282
 30
0.00
  0
VERTEX
  8
028663-1ROU1_GBR
 10
121.684898
 20
242.882294
 30
0.00
  0
VERTEX
  8
028663-1ROU1_GBR
 10
121.662342
 20
242.814018
 30
0.00
  0
VERTEX
  8
028663-1ROU1_GBR
 10
121.6835
 20
242.740104
 30
0.00
  0
VERTEX
  8
028663-1ROU1_GBR
 10
121.67494
 20
242.502258
 30
0.00
  0
VERTEX
  8
028663-1ROU1_GBR
 10
121.687132
 20
242.248716
 30
0.00
  0
VERTEX
  8
028663-1ROU1_GBR
 10
121.721168
 20
241.997026
 30
0.00
  0
VERTEX
  8
028663-1ROU1_GBR
 10
121.77654
 20
241.749402
 30
0.00
  0
VERTEX
  8
028663-1ROU1_GBR
 10
121.85274
 20
241.50706
 30
0.00
  0
VERTEX
  8
028663-1ROU1_GBR
 10
121.949286
 20
241.272314
 30
0.00
  0
VERTEX
  8
028663-1ROU1_GBR
 10
122.065592
 20
241.046558
 30
0.00
  0
VERTEX
  8
028663-1ROU1_GBR
 10
122.20072
 20
240.831674
 30
0.00
  0
VERTEX
  8
028663-1ROU1_GBR
 10
122.353858
 20
240.629008
 30
0.00
  0
VERTEX
  8
028663-1ROU1_GBR
 10
122.523554
 20
240.44026
 30
0.00
  0
VERTEX
  8
028663-1ROU1_GBR
 10
122.70872
 20
240.266524
 30
0.00
  0
VERTEX
  8
028663-1ROU1_GBR
 10
122.908136
 20
240.109298
 30
0.00
  0
VERTEX
  8
028663-1ROU1_GBR
 10
123.119946
 20
239.969598
 30
0.00
  0
VERTEX
  8
028663-1ROU1_GBR
 10
123.343212
 20
239.84844
 30
0.00
  0
VERTEX
  8
028663-1ROU1_GBR
 10
123.575876
 20
239.74684
 30
0.00
  0
VERTEX
  8
028663-1ROU1_GBR
 10
123.816414
 20
239.66556
 30
0.00
  0
VERTEX
  8
028663-1ROU1_GBR
 10
124.06277
 20
239.605108
 30
0.00
  0
VERTEX
  8
028663-1ROU1_GBR
 10
124.313772
 20
239.565738
 30
0.00
  0
VERTEX
  8
028663-1ROU1_GBR
 10
124.566984
 20
239.547958
 30
0.00
  0
VERTEX
  8
028663-1ROU1_GBR
 10
124.820984
 20
239.551768
 30
0.00
  0
VERTEX
  8
028663-1ROU1_GBR
 10
125.07346
 20
239.577422
 30
0.00
  0
VERTEX
  8
028663-1ROU1_GBR
 10
125.322864
 20
239.624412
 30
0.00
  0
VERTEX
  8
028663-1ROU1_GBR
 10
125.567516
 20
239.69251
 30
0.00
  0
VERTEX
  8
028663-1ROU1_GBR
 10
125.805488
 20
239.781384
 30
0.00
  0
VERTEX
  8
028663-1ROU1_GBR
 10
126.034826
 20
239.890072
 30
0.00
  0
VERTEX
  8
028663-1ROU1_GBR
 10
126.254306
 20
240.017858
 30
0.00
  0
VERTEX
  8
028663-1ROU1_GBR
 10
126.46185
 20
240.163934
 30
0.00
  0
VERTEX
  8
028663-1ROU1_GBR
 10
126.656134
 20
240.327484
 30
0.00
  0
VERTEX
  8
028663-1ROU1_GBR
 10
126.835966
 20
240.506554
 30
0.00
  0
VERTEX
  8
028663-1ROU1_GBR
 10
126.999796
 20
240.70061
 30
0.00
  0
VERTEX
  8
028663-1ROU1_GBR
 10
127.146608
 20
240.907874
 30
0.00
  0
VERTEX
  8
028663-1ROU1_GBR
 10
127.274878
 20
241.126822
 30
0.00
  0
VERTEX
  8
028663-1ROU1_GBR
 10
127.382042
 20
241.351842
 30
0.00
  0
VERTEX
  8
028663-1ROU1_GBR
 10
127.37531
 20
241.423418
 30
0.00
  0
VERTEX
  8
028663-1ROU1_GBR
 10
128.07216
 20
244.70835
 30
0.00
  0
VERTEX
  8
028663-1ROU1_GBR
 10
128.813154
 20
244.526028
 30
0.00
  0
VERTEX
  8
028663-1ROU1_GBR
 10
129.552066
 20
244.33182
 30
0.00
  0
VERTEX
  8
028663-1ROU1_GBR
 10
130.28648
 20
244.125928
 30
0.00
  0
VERTEX
  8
028663-1ROU1_GBR
 10
131.017722
 20
243.908402
 30
0.00
  0
VERTEX
  8
028663-1ROU1_GBR
 10
131.74632
 20
243.678838
 30
0.00
  0
VERTEX
  8
028663-1ROU1_GBR
 10
132.470526
 20
243.438122
 30
0.00
  0
VERTEX
  8
028663-1ROU1_GBR
 10
133.190412
 20
243.185798
 30
0.00
  0
VERTEX
  8
028663-1ROU1_GBR
 10
133.668898
 20
243.010868
 30
0.00
  0
VERTEX
  8
028663-1ROU1_GBR
 10
134.38246
 20
242.739316
 30
0.00
  0
VERTEX
  8
028663-1ROU1_GBR
 10
135.090636
 20
242.45664
 30
0.00
  0
VERTEX
  8
028663-1ROU1_GBR
 10
135.796502
 20
242.161618
 30
0.00
  0
VERTEX
  8
028663-1ROU1_GBR
 10
136.494368
 20
241.857022
 30
0.00
  0
VERTEX
  8
028663-1ROU1_GBR
 10
137.188906
 20
241.540234
 30
0.00
  0
VERTEX
  8
028663-1ROU1_GBR
 10
137.877092
 20
241.213284
 30
0.00
  0
VERTEX
  8
028663-1ROU1_GBR
 10
138.335054
 20
240.988138
 30
0.00
  0
VERTEX
  8
028663-1ROU1_GBR
 10
139.017984
 20
240.64092
 30
0.00
  0
VERTEX
  8
028663-1ROU1_GBR
 10
139.691516
 20
240.28499
 30
0.00
  0
VERTEX
  8
028663-1ROU1_GBR
 10
140.36068
 20
239.917376
 30
0.00
  0
VERTEX
  8
028663-1ROU1_GBR
 10
141.023238
 20
239.539374
 30
0.00
  0
VERTEX
  8
028663-1ROU1_GBR
 10
141.68054
 20
239.150626
 30
0.00
  0
VERTEX
  8
028663-1ROU1_GBR
 10
142.330144
 20
238.752024
 30
0.00
  0
VERTEX
  8
028663-1ROU1_GBR
 10
142.975864
 20
238.341586
 30
0.00
  0
VERTEX
  8
028663-1ROU1_GBR
 10
143.612946
 20
237.922258
 30
0.00
  0
VERTEX
  8
028663-1ROU1_GBR
 10
144.243806
 20
237.49226
 30
0.00
  0
VERTEX
  8
028663-1ROU1_GBR
 10
144.86758
 20
237.052358
 30
0.00
  0
VERTEX
  8
028663-1ROU1_GBR
 10
145.484138
 20
236.602652
 30
0.00
  0
VERTEX
  8
028663-1ROU1_GBR
 10
146.294754
 20
235.988022
 30
0.00
  0
VERTEX
  8
028663-1ROU1_GBR
 10
146.894728
 20
235.51515
 30
0.00
  0
VERTEX
  8
028663-1ROU1_GBR
 10
147.486446
 20
235.033134
 30
0.00
  0
VERTEX
  8
028663-1ROU1_GBR
 10
148.070036
 20
234.542152
 30
0.00
  0
VERTEX
  8
028663-1ROU1_GBR
 10
148.646464
 20
234.041238
 30
0.00
  0
VERTEX
  8
028663-1ROU1_GBR
 10
149.214536
 20
233.531562
 30
0.00
  0
VERTEX
  8
028663-1ROU1_GBR
 10
149.954082
 20
232.842536
 30
0.00
  0
VERTEX
  8
028663-1ROU1_GBR
 10
149.979354
 20
232.810508
 30
0.00
  0
VERTEX
  8
028663-1ROU1_GBR
 10
150.068712
 20
232.758768
 30
0.00
  0
VERTEX
  8
028663-1ROU1_GBR
 10
150.26358
 20
232.943756
 30
0.00
  0
VERTEX
  8
028663-1ROU1_GBR
 10
150.82365
 20
233.463872
 30
0.00
  0
VERTEX
  8
028663-1ROU1_GBR
 10
151.20079
 20
233.804764
 30
0.00
  0
VERTEX
  8
028663-1ROU1_GBR
 10
151.776532
 20
234.3118
 30
0.00
  0
VERTEX
  8
028663-1ROU1_GBR
 10
152.354458
 20
234.804306
 30
0.00
  0
VERTEX
  8
028663-1ROU1_GBR
 10
152.943458
 20
235.290664
 30
0.00
  0
VERTEX
  8
028663-1ROU1_GBR
 10
153.54018
 20
235.7675
 30
0.00
  0
VERTEX
  8
028663-1ROU1_GBR
 10
154.144498
 20
236.234834
 30
0.00
  0
VERTEX
  8
028663-1ROU1_GBR
 10
154.961666
 20
236.842858
 30
0.00
  0
VERTEX
  8
028663-1ROU1_GBR
 10
155.581858
 20
237.28652
 30
0.00
  0
VERTEX
  8
028663-1ROU1_GBR
 10
156.210458
 20
237.721598
 30
0.00
  0
VERTEX
  8
028663-1ROU1_GBR
 10
156.845508
 20
238.146056
 30
0.00
  0
VERTEX
  8
028663-1ROU1_GBR
 10
157.486376
 20
238.560026
 30
0.00
  0
VERTEX
  8
028663-1ROU1_GBR
 10
158.134786
 20
238.964166
 30
0.00
  0
VERTEX
  8
028663-1ROU1_GBR
 10
158.788862
 20
239.357688
 30
0.00
  0
VERTEX
  8
028663-1ROU1_GBR
 10
159.449668
 20
239.740822
 30
0.00
  0
VERTEX
  8
028663-1ROU1_GBR
 10
160.115936
 20
240.113312
 30
0.00
  0
VERTEX
  8
028663-1ROU1_GBR
 10
160.788146
 20
240.475186
 30
0.00
  0
VERTEX
  8
028663-1ROU1_GBR
 10
161.46653
 20
240.82657
 30
0.00
  0
VERTEX
  8
028663-1ROU1_GBR
 10
162.149866
 20
241.166854
 30
0.00
  0
VERTEX
  8
028663-1ROU1_GBR
 10
162.838486
 20
241.496164
 30
0.00
  0
VERTEX
  8
028663-1ROU1_GBR
 10
163.532744
 20
241.814478
 30
0.00
  0
VERTEX
  8
028663-1ROU1_GBR
 10
164.232464
 20
242.122122
 30
0.00
  0
VERTEX
  8
028663-1ROU1_GBR
 10
164.936628
 20
242.418412
 30
0.00
  0
VERTEX
  8
028663-1ROU1_GBR
 10
165.644652
 20
242.703222
 30
0.00
  0
VERTEX
  8
028663-1ROU1_GBR
 10
166.357174
 20
242.976604
 30
0.00
  0
VERTEX
  8
028663-1ROU1_GBR
 10
167.07452
 20
243.239112
 30
0.00
  0
VERTEX
  8
028663-1ROU1_GBR
 10
167.31427
 20
243.323846
 30
0.00
  0
VERTEX
  8
028663-1ROU1_GBR
 10
168.036952
 20
243.570734
 30
0.00
  0
VERTEX
  8
028663-1ROU1_GBR
 10
168.763798
 20
243.80632
 30
0.00
  0
VERTEX
  8
028663-1ROU1_GBR
 10
169.493108
 20
244.03012
 30
0.00
  0
VERTEX
  8
028663-1ROU1_GBR
 10
170.226456
 20
244.242158
 30
0.00
  0
VERTEX
  8
028663-1ROU1_GBR
 10
170.96387
 20
244.442716
 30
0.00
  0
VERTEX
  8
028663-1ROU1_GBR
 10
171.704178
 20
244.63154
 30
0.00
  0
VERTEX
  8
028663-1ROU1_GBR
 10
172.446162
 20
244.8084
 30
0.00
  0
VERTEX
  8
028663-1ROU1_GBR
 10
173.192618
 20
244.973652
 30
0.00
  0
VERTEX
  8
028663-1ROU1_GBR
 10
173.94009
 20
245.126968
 30
0.00
  0
VERTEX
  8
028663-1ROU1_GBR
 10
174.68972
 20
245.268064
 30
0.00
  0
VERTEX
  8
028663-1ROU1_GBR
 10
175.443592
 20
245.397554
 30
0.00
  0
VERTEX
  8
028663-1ROU1_GBR
 10
176.198174
 20
245.514902
 30
0.00
  0
VERTEX
  8
028663-1ROU1_GBR
 10
176.9539
 20
245.620236
 30
0.00
  0
VERTEX
  8
028663-1ROU1_GBR
 10
177.711888
 20
245.713454
 30
0.00
  0
VERTEX
  8
028663-1ROU1_GBR
 10
178.471042
 20
245.794708
 30
0.00
  0
VERTEX
  8
028663-1ROU1_GBR
 10
179.23261
 20
245.863872
 30
0.00
  0
VERTEX
  8
028663-1ROU1_GBR
 10
179.992986
 20
245.920692
 30
0.00
  0
VERTEX
  8
028663-1ROU1_GBR
 10
180.755874
 20
245.965676
 30
0.00
  0
VERTEX
  8
028663-1ROU1_GBR
 10
181.263366
 20
245.988738
 30
0.00
  0
VERTEX
  8
028663-1ROU1_GBR
 10
182.027932
 20
246.013428
 30
0.00
  0
VERTEX
  8
028663-1ROU1_GBR
 10
182.789906
 20
246.025848
 30
0.00
  0
VERTEX
  8
028663-1ROU1_GBR
 10
183.55465
 20
246.026102
 30
0.00
  0
VERTEX
  8
028663-1ROU1_GBR
 10
184.31731
 20
246.014418
 30
0.00
  0
VERTEX
  8
028663-1ROU1_GBR
 10
185.081138
 20
245.990288
 30
0.00
  0
VERTEX
  8
028663-1ROU1_GBR
 10
185.58919
 20
245.967708
 30
0.00
  0
VERTEX
  8
028663-1ROU1_GBR
 10
186.352054
 20
245.92346
 30
0.00
  0
VERTEX
  8
028663-1ROU1_GBR
 10
187.113926
 20
245.867072
 30
0.00
  0
VERTEX
  8
028663-1ROU1_GBR
 10
187.874402
 20
245.798722
 30
0.00
  0
VERTEX
  8
028663-1ROU1_GBR
 10
188.63315
 20
245.718254
 30
0.00
  0
VERTEX
  8
028663-1ROU1_GBR
 10
188.027868
 20
242.618184
 30
0.00
  0
VERTEX
  8
028663-1ROU1_GBR
 10
188.04133
 20
242.361872
 30
0.00
  0
VERTEX
  8
028663-1ROU1_GBR
 10
188.076382
 20
242.107924
 30
0.00
  0
VERTEX
  8
028663-1ROU1_GBR
 10
188.132516
 20
241.857428
 30
0.00
  0
VERTEX
  8
028663-1ROU1_GBR
 10
188.209732
 20
241.612852
 30
0.00
  0
VERTEX
  8
028663-1ROU1_GBR
 10
188.307268
 20
241.375616
 30
0.00
  0
VERTEX
  8
028663-1ROU1_GBR
 10
188.424616
 20
241.14727
 30
0.00
  0
VERTEX
  8
028663-1ROU1_GBR
 10
188.560506
 20
240.929846
 30
0.00
  0
VERTEX
  8
028663-1ROU1_GBR
 10
188.714406
 20
240.72464
 30
0.00
  0
VERTEX
  8
028663-1ROU1_GBR
 10
188.885144
 20
240.533072
 30
0.00
  0
VERTEX
  8
028663-1ROU1_GBR
 10
189.0713
 20
240.356568
 30
0.00
  0
VERTEX
  8
028663-1ROU1_GBR
 10
189.271478
 20
240.196268
 30
0.00
  0
VERTEX
  8
028663-1ROU1_GBR
 10
189.484812
 20
240.053546
 30
0.00
  0
VERTEX
  8
028663-1ROU1_GBR
 10
189.709094
 20
239.92934
 30
0.00
  0
VERTEX
  8
028663-1ROU1_GBR
 10
189.943282
 20
239.824438
 30
0.00
  0
VERTEX
  8
028663-1ROU1_GBR
 10
190.185344
 20
239.739602
 30
0.00
  0
VERTEX
  8
028663-1ROU1_GBR
 10
190.433782
 20
239.675594
 30
0.00
  0
VERTEX
  8
028663-1ROU1_GBR
 10
190.68674
 20
239.632922
 30
0.00
  0
VERTEX
  8
028663-1ROU1_GBR
 10
190.942518
 20
239.611332
 30
0.00
  0
VERTEX
  8
028663-1ROU1_GBR
 10
191.199058
 20
239.611586
 30
0.00
  0
VERTEX
  8
028663-1ROU1_GBR
 10
191.454582
 20
239.63343
 30
0.00
  0
VERTEX
  8
028663-1ROU1_GBR
 10
191.707566
 20
239.676864
 30
0.00
  0
VERTEX
  8
028663-1ROU1_GBR
 10
191.955724
 20
239.74138
 30
0.00
  0
VERTEX
  8
028663-1ROU1_GBR
 10
192.197786
 20
239.82647
 30
0.00
  0
VERTEX
  8
028663-1ROU1_GBR
 10
192.43172
 20
239.93188
 30
0.00
  0
VERTEX
  8
028663-1ROU1_GBR
 10
192.656028
 20
240.05662
 30
0.00
  0
VERTEX
  8
028663-1ROU1_GBR
 10
192.86883
 20
240.199596
 30
0.00
  0
VERTEX
  8
028663-1ROU1_GBR
 10
193.068752
 20
240.360124
 30
0.00
  0
VERTEX
  8
028663-1ROU1_GBR
 10
193.254706
 20
240.536934
 30
0.00
  0
VERTEX
  8
028663-1ROU1_GBR
 10
193.425114
 20
240.728906
 30
0.00
  0
VERTEX
  8
028663-1ROU1_GBR
 10
193.57853
 20
240.934418
 30
0.00
  0
VERTEX
  8
028663-1ROU1_GBR
 10
193.714166
 20
241.15235
 30
0.00
  0
VERTEX
  8
028663-1ROU1_GBR
 10
193.830752
 20
241.380696
 30
0.00
  0
VERTEX
  8
028663-1ROU1_GBR
 10
193.928034
 20
241.618186
 30
0.00
  0
VERTEX
  8
028663-1ROU1_GBR
 10
194.514064
 20
244.646324
 30
0.00
  0
VERTEX
  8
028663-1ROU1_GBR
 10
194.61292
 20
244.657778
 30
0.00
  0
VERTEX
  8
028663-1ROU1_GBR
 10
195.261866
 20
244.495092
 30
0.00
  0
VERTEX
  8
028663-1ROU1_GBR
 10
196.001182
 20
244.298064
 30
0.00
  0
VERTEX
  8
028663-1ROU1_GBR
 10
196.491936
 20
244.160142
 30
0.00
  0
VERTEX
  8
028663-1ROU1_GBR
 10
197.22526
 20
243.943784
 30
0.00
  0
VERTEX
  8
028663-1ROU1_GBR
 10
197.712178
 20
243.792832
 30
0.00
  0
VERTEX
  8
028663-1ROU1_GBR
 10
198.440218
 20
243.556662
 30
0.00
  0
VERTEX
  8
028663-1ROU1_GBR
 10
199.162594
 20
243.309622
 30
0.00
  0
VERTEX
  8
028663-1ROU1_GBR
 10
199.881794
 20
243.050594
 30
0.00
  0
VERTEX
  8
028663-1ROU1_GBR
 10
200.59777
 20
242.779804
 30
0.00
  0
VERTEX
  8
028663-1ROU1_GBR
 10
201.308868
 20
242.49794
 30
0.00
  0
VERTEX
  8
028663-1ROU1_GBR
 10
202.014354
 20
242.205078
 30
0.00
  0
VERTEX
  8
028663-1ROU1_GBR
 10
202.716028
 20
241.900736
 30
0.00
  0
VERTEX
  8
028663-1ROU1_GBR
 10
203.413894
 20
241.584608
 30
0.00
  0
VERTEX
  8
028663-1ROU1_GBR
 10
204.104088
 20
241.258496
 30
0.00
  0
VERTEX
  8
028663-1ROU1_GBR
 10
204.789634
 20
240.921184
 30
0.00
  0
VERTEX
  8
028663-1ROU1_GBR
 10
205.46982
 20
240.572848
 30
0.00
  0
VERTEX
  8
028663-1ROU1_GBR
 10
205.920772
 20
240.334394
 30
0.00
  0
VERTEX
  8
028663-1ROU1_GBR
 10
206.592728
 20
239.967644
 30
0.00
  0
VERTEX
  8
028663-1ROU1_GBR
 10
207.256736
 20
239.591138
 30
0.00
  0
VERTEX
  8
028663-1ROU1_GBR
 10
207.916348
 20
239.20351
 30
0.00
  0
VERTEX
  8
028663-1ROU1_GBR
 10
208.352034
 20
238.939198
 30
0.00
  0
VERTEX
  8
028663-1ROU1_GBR
 10
209.000648
 20
238.53422
 30
0.00
  0
VERTEX
  8
028663-1ROU1_GBR
 10
209.642456
 20
238.119132
 30
0.00
  0
VERTEX
  8
028663-1ROU1_GBR
 10
210.066432
 20
237.836812
 30
0.00
  0
VERTEX
  8
028663-1ROU1_GBR
 10
210.69686
 20
237.404682
 30
0.00
  0
VERTEX
  8
028663-1ROU1_GBR
 10
211.321472
 20
236.961908
 30
0.00
  0
VERTEX
  8
028663-1ROU1_GBR
 10
211.937752
 20
236.510348
 30
0.00
  0
VERTEX
  8
028663-1ROU1_GBR
 10
212.547658
 20
236.047916
 30
0.00
  0
VERTEX
  8
028663-1ROU1_GBR
 10
213.34791
 20
235.41769
 30
0.00
  0
VERTEX
  8
028663-1ROU1_GBR
 10
213.939602
 20
234.93349
 30
0.00
  0
VERTEX
  8
028663-1ROU1_GBR
 10
214.523422
 20
234.44007
 30
0.00
  0
VERTEX
  8
028663-1ROU1_GBR
 10
215.099646
 20
233.937022
 30
0.00
  0
VERTEX
  8
028663-1ROU1_GBR
 10
215.667666
 20
233.424882
 30
0.00
  0
VERTEX
  8
028663-1ROU1_GBR
 10
216.177164
 20
232.952722
 30
0.00
  0
VERTEX
  8
028663-1ROU1_GBR
 10
216.177164
 20
162.999572
 30
0.00
  0
VERTEX
  8
028663-1ROU1_GBR
 10
215.39482
 20
162.282556
 30
0.00
  0
VERTEX
  8
028663-1ROU1_GBR
 10
214.824056
 20
161.777376
 30
0.00
  0
VERTEX
  8
028663-1ROU1_GBR
 10
214.246206
 20
161.282024
 30
0.00
  0
VERTEX
  8
028663-1ROU1_GBR
 10
213.660024
 20
160.795386
 30
0.00
  0
VERTEX
  8
028663-1ROU1_GBR
 10
213.06602
 20
160.318272
 30
0.00
  0
VERTEX
  8
028663-1ROU1_GBR
 10
212.464676
 20
159.850506
 30
0.00
  0
VERTEX
  8
028663-1ROU1_GBR
 10
211.85599
 20
159.392442
 30
0.00
  0
VERTEX
  8
028663-1ROU1_GBR
 10
211.239684
 20
158.943904
 30
0.00
  0
VERTEX
  8
028663-1ROU1_GBR
 10
210.61675
 20
158.505602
 30
0.00
  0
VERTEX
  8
028663-1ROU1_GBR
 10
209.987438
 20
158.07751
 30
0.00
  0
VERTEX
  8
028663-1ROU1_GBR
 10
209.35094
 20
157.658918
 30
0.00
  0
VERTEX
  8
028663-1ROU1_GBR
 10
208.491278
 20
157.116628
 30
0.00
  0
VERTEX
  8
028663-1ROU1_GBR
 10
207.839716
 20
156.722318
 30
0.00
  0
VERTEX
  8
028663-1ROU1_GBR
 10
207.181018
 20
156.337762
 30
0.00
  0
VERTEX
  8
028663-1ROU1_GBR
 10
206.516504
 20
155.963848
 30
0.00
  0
VERTEX
  8
028663-1ROU1_GBR
 10
205.847772
 20
155.601466
 30
0.00
  0
VERTEX
  8
028663-1ROU1_GBR
 10
205.17231
 20
155.249144
 30
0.00
  0
VERTEX
  8
028663-1ROU1_GBR
 10
204.718844
 20
155.02062
 30
0.00
  0
VERTEX
  8
028663-1ROU1_GBR
 10
204.034288
 20
154.686356
 30
0.00
  0
VERTEX
  8
028663-1ROU1_GBR
 10
203.344424
 20
154.363014
 30
0.00
  0
VERTEX
  8
028663-1ROU1_GBR
 10
202.64887
 20
154.050492
 30
0.00
  0
VERTEX
  8
028663-1ROU1_GBR
 10
201.949862
 20
153.749578
 30
0.00
  0
VERTEX
  8
028663-1ROU1_GBR
 10
201.244936
 20
153.459384
 30
0.00
  0
VERTEX
  8
028663-1ROU1_GBR
 10
200.536328
 20
153.180872
 30
0.00
  0
VERTEX
  8
028663-1ROU1_GBR
 10
199.822892
 20
152.913436
 30
0.00
  0
VERTEX
  8
028663-1ROU1_GBR
 10
199.34522
 20
152.741504
 30
0.00
  0
VERTEX
  8
028663-1ROU1_GBR
 10
198.625002
 20
152.493142
 30
0.00
  0
VERTEX
  8
028663-1ROU1_GBR
 10
197.900874
 20
152.256084
 30
0.00
  0
VERTEX
  8
028663-1ROU1_GBR
 10
197.173418
 20
152.030862
 30
0.00
  0
VERTEX
  8
028663-1ROU1_GBR
 10
196.441822
 20
151.816918
 30
0.00
  0
VERTEX
  8
028663-1ROU1_GBR
 10
195.70573
 20
151.614328
 30
0.00
  0
VERTEX
  8
028663-1ROU1_GBR
 10
194.970096
 20
151.42436
 30
0.00
  0
VERTEX
  8
028663-1ROU1_GBR
 10
194.229152
 20
151.245722
 30
0.00
  0
VERTEX
  8
028663-1ROU1_GBR
 10
193.484196
 20
151.07854
 30
0.00
  0
VERTEX
  8
028663-1ROU1_GBR
 10
192.738984
 20
150.923702
 30
0.00
  0
VERTEX
  8
028663-1ROU1_GBR
 10
191.991362
 20
150.780852
 30
0.00
  0
VERTEX
  8
028663-1ROU1_GBR
 10
191.241046
 20
150.649584
 30
0.00
  0
VERTEX
  8
028663-1ROU1_GBR
 10
190.489028
 20
150.53051
 30
0.00
  0
VERTEX
  8
028663-1ROU1_GBR
 10
189.482704
 20
150.390022
 30
0.00
  0
VERTEX
  8
028663-1ROU1_GBR
 10
188.725912
 20
150.298786
 30
0.00
  0
VERTEX
  8
028663-1ROU1_GBR
 10
187.9679
 20
150.219512
 30
0.00
  0
VERTEX
  8
028663-1ROU1_GBR
 10
187.210218
 20
150.152558
 30
0.00
  0
VERTEX
  8
028663-1ROU1_GBR
 10
186.449868
 20
150.097668
 30
0.00
  0
VERTEX
  8
028663-1ROU1_GBR
 10
185.913522
 20
150.064344
 30
0.00
  0
VERTEX
  8
028663-1ROU1_GBR
 10
185.913064
 20
149.927158
 30
0.00
  0
VERTEX
  8
028663-1ROU1_GBR
 10
186.8598
 20
149.860558
 30
0.00
  0
VERTEX
  8
028663-1ROU1_GBR
 10
187.620198
 20
149.796322
 30
0.00
  0
VERTEX
  8
028663-1ROU1_GBR
 10
188.381208
 20
149.719716
 30
0.00
  0
VERTEX
  8
028663-1ROU1_GBR
 10
188.63315
 20
149.691648
 30
0.00
  0
VERTEX
  8
028663-1ROU1_GBR
 10
188.027868
 20
146.591578
 30
0.00
  0
VERTEX
  8
028663-1ROU1_GBR
 10
188.04133
 20
146.335268
 30
0.00
  0
VERTEX
  8
028663-1ROU1_GBR
 10
188.076382
 20
146.081318
 30
0.00
  0
VERTEX
  8
028663-1ROU1_GBR
 10
188.132516
 20
145.830824
 30
0.00
  0
VERTEX
  8
028663-1ROU1_GBR
 10
188.209732
 20
145.586246
 30
0.00
  0
VERTEX
  8
028663-1ROU1_GBR
 10
188.307268
 20
145.34901
 30
0.00
  0
VERTEX
  8
028663-1ROU1_GBR
 10
188.424616
 20
145.120664
 30
0.00
  0
VERTEX
  8
028663-1ROU1_GBR
 10
188.560506
 20
144.90324
 30
0.00
  0
VERTEX
  8
028663-1ROU1_GBR
 10
188.714406
 20
144.698034
 30
0.00
  0
VERTEX
  8
028663-1ROU1_GBR
 10
188.885144
 20
144.506468
 30
0.00
  0
VERTEX
  8
028663-1ROU1_GBR
 10
189.0713
 20
144.329962
 30
0.00
  0
VERTEX
  8
028663-1ROU1_GBR
 10
189.271478
 20
144.169664
 30
0.00
  0
VERTEX
  8
028663-1ROU1_GBR
 10
189.484812
 20
144.02694
 30
0.00
  0
VERTEX
  8
028663-1ROU1_GBR
 10
189.709094
 20
143.902734
 30
0.00
  0
VERTEX
  8
028663-1ROU1_GBR
 10
189.943282
 20
143.797832
 30
0.00
  0
VERTEX
  8
028663-1ROU1_GBR
 10
190.185344
 20
143.712996
 30
0.00
  0
VERTEX
  8
028663-1ROU1_GBR
 10
190.433782
 20
143.648988
 30
0.00
  0
VERTEX
  8
028663-1ROU1_GBR
 10
190.68674
 20
143.606316
 30
0.00
  0
VERTEX
  8
028663-1ROU1_GBR
 10
190.942518
 20
143.584726
 30
0.00
  0
VERTEX
  8
028663-1ROU1_GBR
 10
191.199058
 20
143.58498
 30
0.00
  0
VERTEX
  8
028663-1ROU1_GBR
 10
191.454582
 20
143.606824
 30
0.00
  0
VERTEX
  8
028663-1ROU1_GBR
 10
191.707566
 20
143.650258
 30
0.00
  0
VERTEX
  8
028663-1ROU1_GBR
 10
191.955724
 20
143.714774
 30
0.00
  0
VERTEX
  8
028663-1ROU1_GBR
 10
192.197786
 20
143.799864
 30
0.00
  0
VERTEX
  8
028663-1ROU1_GBR
 10
192.43172
 20
143.905274
 30
0.00
  0
VERTEX
  8
028663-1ROU1_GBR
 10
192.656028
 20
144.030014
 30
0.00
  0
VERTEX
  8
028663-1ROU1_GBR
 10
192.86883
 20
144.17299
 30
0.00
  0
VERTEX
  8
028663-1ROU1_GBR
 10
193.068752
 20
144.333518
 30
0.00
  0
VERTEX
  8
028663-1ROU1_GBR
 10
193.254706
 20
144.510328
 30
0.00
  0
VERTEX
  8
028663-1ROU1_GBR
 10
193.425114
 20
144.702302
 30
0.00
  0
VERTEX
  8
028663-1ROU1_GBR
 10
193.57853
 20
144.907812
 30
0.00
  0
VERTEX
  8
028663-1ROU1_GBR
 10
193.714166
 20
145.125744
 30
0.00
  0
VERTEX
  8
028663-1ROU1_GBR
 10
193.830752
 20
145.35409
 30
0.00
  0
VERTEX
  8
028663-1ROU1_GBR
 10
193.928034
 20
145.59158
 30
0.00
  0
VERTEX
  8
028663-1ROU1_GBR
 10
194.514064
 20
148.619718
 30
0.00
  0
VERTEX
  8
028663-1ROU1_GBR
 10
194.61292
 20
148.631174
 30
0.00
  0
VERTEX
  8
028663-1ROU1_GBR
 10
195.261866
 20
148.468486
 30
0.00
  0
VERTEX
  8
028663-1ROU1_GBR
 10
196.001182
 20
148.271458
 30
0.00
  0
VERTEX
  8
028663-1ROU1_GBR
 10
196.491936
 20
148.133536
 30
0.00
  0
VERTEX
  8
028663-1ROU1_GBR
 10
197.22526
 20
147.91718
 30
0.00
  0
VERTEX
  8
028663-1ROU1_GBR
 10
197.712178
 20
147.766228
 30
0.00
  0
VERTEX
  8
028663-1ROU1_GBR
 10
198.440218
 20
147.530058
 30
0.00
  0
VERTEX
  8
028663-1ROU1_GBR
 10
199.162594
 20
147.283018
 30
0.00
  0
VERTEX
  8
028663-1ROU1_GBR
 10
199.881794
 20
147.023988
 30
0.00
  0
VERTEX
  8
028663-1ROU1_GBR
 10
200.59777
 20
146.7532
 30
0.00
  0
VERTEX
  8
028663-1ROU1_GBR
 10
201.308868
 20
146.471336
 30
0.00
  0
VERTEX
  8
028663-1ROU1_GBR
 10
202.014354
 20
146.178474
 30
0.00
  0
VERTEX
  8
028663-1ROU1_GBR
 10
202.716028
 20
145.87413
 30
0.00
  0
VERTEX
  8
028663-1ROU1_GBR
 10
203.413894
 20
145.558002
 30
0.00
  0
VERTEX
  8
028663-1ROU1_GBR
 10
204.104088
 20
145.231892
 30
0.00
  0
VERTEX
  8
028663-1ROU1_GBR
 10
204.789634
 20
144.89458
 30
0.00
  0
VERTEX
  8
028663-1ROU1_GBR
 10
205.46982
 20
144.546244
 30
0.00
  0
VERTEX
  8
028663-1ROU1_GBR
 10
205.920772
 20
144.307788
 30
0.00
  0
VERTEX
  8
028663-1ROU1_GBR
 10
206.592728
 20
143.941038
 30
0.00
  0
VERTEX
  8
028663-1ROU1_GBR
 10
207.256736
 20
143.564534
 30
0.00
  0
VERTEX
  8
028663-1ROU1_GBR
 10
207.916348
 20
143.176904
 30
0.00
  0
VERTEX
  8
028663-1ROU1_GBR
 10
208.352034
 20
142.912592
 30
0.00
  0
VERTEX
  8
028663-1ROU1_GBR
 10
209.000648
 20
142.507614
 30
0.00
  0
VERTEX
  8
028663-1ROU1_GBR
 10
209.642456
 20
142.092528
 30
0.00
  0
VERTEX
  8
028663-1ROU1_GBR
 10
210.066432
 20
141.810206
 30
0.00
  0
VERTEX
  8
028663-1ROU1_GBR
 10
210.69686
 20
141.378076
 30
0.00
  0
VERTEX
  8
028663-1ROU1_GBR
 10
211.321472
 20
140.935304
 30
0.00
  0
VERTEX
  8
028663-1ROU1_GBR
 10
211.937752
 20
140.483742
 30
0.00
  0
VERTEX
  8
028663-1ROU1_GBR
 10
212.547658
 20
140.02131
 30
0.00
  0
VERTEX
  8
028663-1ROU1_GBR
 10
213.34791
 20
139.391086
 30
0.00
  0
VERTEX
  8
028663-1ROU1_GBR
 10
213.939602
 20
138.906886
 30
0.00
  0
VERTEX
  8
028663-1ROU1_GBR
 10
214.523422
 20
138.413464
 30
0.00
  0
VERTEX
  8
028663-1ROU1_GBR
 10
215.099646
 20
137.910418
 30
0.00
  0
VERTEX
  8
028663-1ROU1_GBR
 10
215.667666
 20
137.398278
 30
0.00
  0
VERTEX
  8
028663-1ROU1_GBR
 10
216.177164
 20
136.926116
 30
0.00
  0
VERTEX
  8
028663-1ROU1_GBR
 10
216.177164
 20
66.972968
 30
0.00
  0
VERTEX
  8
028663-1ROU1_GBR
 10
215.39482
 20
66.25595
 30
0.00
  0
VERTEX
  8
028663-1ROU1_GBR
 10
214.824056
 20
65.75077
 30
0.00
  0
VERTEX
  8
028663-1ROU1_GBR
 10
214.246206
 20
65.25542
 30
0.00
  0
VERTEX
  8
028663-1ROU1_GBR
 10
213.660024
 20
64.76878
 30
0.00
  0
VERTEX
  8
028663-1ROU1_GBR
 10
213.06602
 20
64.291668
 30
0.00
  0
VERTEX
  8
028663-1ROU1_GBR
 10
212.464676
 20
63.8239
 30
0.00
  0
VERTEX
  8
028663-1ROU1_GBR
 10
211.85599
 20
63.365838
 30
0.00
  0
VERTEX
  8
028663-1ROU1_GBR
 10
211.239684
 20
62.917298
 30
0.00
  0
VERTEX
  8
028663-1ROU1_GBR
 10
210.61675
 20
62.478996
 30
0.00
  0
VERTEX
  8
028663-1ROU1_GBR
 10
209.987438
 20
62.050904
 30
0.00
  0
VERTEX
  8
028663-1ROU1_GBR
 10
209.35094
 20
61.632312
 30
0.00
  0
VERTEX
  8
028663-1ROU1_GBR
 10
208.491278
 20
61.090022
 30
0.00
  0
VERTEX
  8
028663-1ROU1_GBR
 10
207.839716
 20
60.695714
 30
0.00
  0
VERTEX
  8
028663-1ROU1_GBR
 10
207.181018
 20
60.311158
 30
0.00
  0
VERTEX
  8
028663-1ROU1_GBR
 10
206.516504
 20
59.937244
 30
0.00
  0
VERTEX
  8
028663-1ROU1_GBR
 10
205.847772
 20
59.574862
 30
0.00
  0
VERTEX
  8
028663-1ROU1_GBR
 10
205.17231
 20
59.222538
 30
0.00
  0
VERTEX
  8
028663-1ROU1_GBR
 10
204.718844
 20
58.994014
 30
0.00
  0
VERTEX
  8
028663-1ROU1_GBR
 10
204.034288
 20
58.65975
 30
0.00
  0
VERTEX
  8
028663-1ROU1_GBR
 10
203.344424
 20
58.336408
 30
0.00
  0
VERTEX
  8
028663-1ROU1_GBR
 10
202.64887
 20
58.023888
 30
0.00
  0
VERTEX
  8
028663-1ROU1_GBR
 10
201.949862
 20
57.722974
 30
0.00
  0
VERTEX
  8
028663-1ROU1_GBR
 10
201.244936
 20
57.432778
 30
0.00
  0
VERTEX
  8
028663-1ROU1_GBR
 10
200.536328
 20
57.154268
 30
0.00
  0
VERTEX
  8
028663-1ROU1_GBR
 10
199.822892
 20
56.88683
 30
0.00
  0
VERTEX
  8
028663-1ROU1_GBR
 10
199.34522
 20
56.714898
 30
0.00
  0
VERTEX
  8
028663-1ROU1_GBR
 10
198.625002
 20
56.466536
 30
0.00
  0
VERTEX
  8
028663-1ROU1_GBR
 10
197.900874
 20
56.229478
 30
0.00
  0
VERTEX
  8
028663-1ROU1_GBR
 10
197.173418
 20
56.004256
 30
0.00
  0
VERTEX
  8
028663-1ROU1_GBR
 10
196.441822
 20
55.790312
 30
0.00
  0
VERTEX
  8
028663-1ROU1_GBR
 10
195.70573
 20
55.587722
 30
0.00
  0
VERTEX
  8
028663-1ROU1_GBR
 10
194.970096
 20
55.397756
 30
0.00
  0
VERTEX
  8
028663-1ROU1_GBR
 10
194.229152
 20
55.219118
 30
0.00
  0
VERTEX
  8
028663-1ROU1_GBR
 10
193.484196
 20
55.051934
 30
0.00
  0
VERTEX
  8
028663-1ROU1_GBR
 10
192.738984
 20
54.897096
 30
0.00
  0
VERTEX
  8
028663-1ROU1_GBR
 10
191.991362
 20
54.754246
 30
0.00
  0
VERTEX
  8
028663-1ROU1_GBR
 10
191.241046
 20
54.62298
 30
0.00
  0
VERTEX
  8
028663-1ROU1_GBR
 10
190.489028
 20
54.503904
 30
0.00
  0
VERTEX
  8
028663-1ROU1_GBR
 10
189.482704
 20
54.363416
 30
0.00
  0
VERTEX
  8
028663-1ROU1_GBR
 10
188.725912
 20
54.27218
 30
0.00
  0
VERTEX
  8
028663-1ROU1_GBR
 10
187.9679
 20
54.192906
 30
0.00
  0
VERTEX
  8
028663-1ROU1_GBR
 10
187.210218
 20
54.125952
 30
0.00
  0
VERTEX
  8
028663-1ROU1_GBR
 10
186.470086
 20
54.07241
 30
0.00
  0
VERTEX
  8
028663-1ROU1_GBR
 10
185.943036
 20
54.04109
 30
0.00
  0
VERTEX
  8
028663-1ROU1_GBR
 10
185.181774
 20
54.006292
 30
0.00
  0
VERTEX
  8
028663-1ROU1_GBR
 10
184.420028
 20
53.983408
 30
0.00
  0
VERTEX
  8
028663-1ROU1_GBR
 10
183.65879
 20
53.972764
 30
0.00
  0
VERTEX
  8
028663-1ROU1_GBR
 10
182.896256
 20
53.974288
 30
0.00
  0
VERTEX
  8
028663-1ROU1_GBR
 10
181.88112
 20
53.995116
 30
0.00
  0
VERTEX
  8
028663-1ROU1_GBR
 10
181.119272
 20
54.024886
 30
0.00
  0
VERTEX
  8
028663-1ROU1_GBR
 10
180.360142
 20
54.066694
 30
0.00
  0
VERTEX
  8
028663-1ROU1_GBR
 10
179.598498
 20
54.120924
 30
0.00
  0
VERTEX
  8
028663-1ROU1_GBR
 10
179.093088
 20
54.163544
 30
0.00
  0
VERTEX
  8
028663-1ROU1_GBR
 10
178.334874
 20
54.237738
 30
0.00
  0
VERTEX
  8
028663-1ROU1_GBR
 10
177.807594
 20
54.296132
 30
0.00
  0
SEQEND
  0
POLYLINE
  8
028663-1ROU1_GBR
 66
1
 10
0.00
 20
0.00
 30
0.00
 40
0.20
 41
0.20
  0
VERTEX
  8
028663-1ROU1_GBR
 10
177.807594
 20
54.296132
 30
0.00
 42
0.0619946
  0
VERTEX
  8
028663-1ROU1_GBR
 10
178.287472
 20
56.610046
 30
0.00
 42
0.00
  0
SEQEND
  0
POLYLINE
  8
028663-1ROU1_GBR
 66
1
 10
0.00
 20
0.00
 30
0.00
 40
0.20
 41
0.20
  0
VERTEX
  8
028663-1ROU1_GBR
 10
178.287476
 20
56.610046
 30
0.00
  0
VERTEX
  8
028663-1ROU1_GBR
 10
178.305256
 20
56.870728
 30
0.00
  0
VERTEX
  8
028663-1ROU1_GBR
 10
178.315112
 20
57.117716
 30
0.00
  0
VERTEX
  8
028663-1ROU1_GBR
 10
178.337668
 20
57.185992
 30
0.00
  0
VERTEX
  8
028663-1ROU1_GBR
 10
178.31651
 20
57.259906
 30
0.00
  0
VERTEX
  8
028663-1ROU1_GBR
 10
178.325068
 20
57.497752
 30
0.00
  0
VERTEX
  8
028663-1ROU1_GBR
 10
178.312876
 20
57.751294
 30
0.00
  0
VERTEX
  8
028663-1ROU1_GBR
 10
178.27884
 20
58.002982
 30
0.00
  0
VERTEX
  8
028663-1ROU1_GBR
 10
178.223468
 20
58.250608
 30
0.00
  0
VERTEX
  8
028663-1ROU1_GBR
 10
178.147268
 20
58.492948
 30
0.00
  0
VERTEX
  8
028663-1ROU1_GBR
 10
178.050724
 20
58.727696
 30
0.00
  0
VERTEX
  8
028663-1ROU1_GBR
 10
177.934416
 20
58.95345
 30
0.00
  0
VERTEX
  8
028663-1ROU1_GBR
 10
177.799288
 20
59.168334
 30
0.00
  0
VERTEX
  8
028663-1ROU1_GBR
 10
177.646152
 20
59.371002
 30
0.00
  0
VERTEX
  8
028663-1ROU1_GBR
 10
177.476454
 20
59.559748
 30
0.00
  0
VERTEX
  8
028663-1ROU1_GBR
 10
177.291288
 20
59.733484
 30
0.00
  0
VERTEX
  8
028663-1ROU1_GBR
 10
177.091874
 20
59.89071
 30
0.00
  0
VERTEX
  8
028663-1ROU1_GBR
 10
176.880062
 20
60.03041
 30
0.00
  0
VERTEX
  8
028663-1ROU1_GBR
 10
176.656796
 20
60.151568
 30
0.00
  0
VERTEX
  8
028663-1ROU1_GBR
 10
176.424132
 20
60.253168
 30
0.00
  0
VERTEX
  8
028663-1ROU1_GBR
 10
176.183594
 20
60.334448
 30
0.00
  0
VERTEX
  8
028663-1ROU1_GBR
 10
175.93724
 20
60.3949
 30
0.00
  0
VERTEX
  8
028663-1ROU1_GBR
 10
175.686238
 20
60.43427
 30
0.00
  0
VERTEX
  8
028663-1ROU1_GBR
 10
175.433024
 20
60.45205
 30
0.00
  0
VERTEX
  8
028663-1ROU1_GBR
 10
175.179024
 20
60.44824
 30
0.00
  0
VERTEX
  8
028663-1ROU1_GBR
 10
174.926548
 20
60.422586
 30
0.00
  0
VERTEX
  8
028663-1ROU1_GBR
 10
174.677146
 20
60.375596
 30
0.00
  0
VERTEX
  8
028663-1ROU1_GBR
 10
174.432494
 20
60.307524
 30
0.00
  0
VERTEX
  8
028663-1ROU1_GBR
 10
174.19452
 20
60.218624
 30
0.00
  0
VERTEX
  8
028663-1ROU1_GBR
 10
173.965184
 20
60.109938
 30
0.00
  0
VERTEX
  8
028663-1ROU1_GBR
 10
173.745702
 20
59.98215
 30
0.00
  0
VERTEX
  8
028663-1ROU1_GBR
 10
173.53816
 20
59.836076
 30
0.00
  0
VERTEX
  8
028663-1ROU1_GBR
 10
173.343874
 20
59.672524
 30
0.00
  0
VERTEX
  8
028663-1ROU1_GBR
 10
173.164042
 20
59.493454
 30
0.00
  0
VERTEX
  8
028663-1ROU1_GBR
 10
173.000212
 20
59.299398
 30
0.00
  0
VERTEX
  8
028663-1ROU1_GBR
 10
172.8534
 20
59.092134
 30
0.00
  0
VERTEX
  8
028663-1ROU1_GBR
 10
172.72513
 20
58.873186
 30
0.00
  0
VERTEX
  8
028663-1ROU1_GBR
 10
172.617968
 20
58.648168
 30
0.00
  0
VERTEX
  8
028663-1ROU1_GBR
 10
172.6247
 20
58.576592
 30
0.00
  0
VERTEX
  8
028663-1ROU1_GBR
 10
171.92785
 20
55.29166
 30
0.00
  0
VERTEX
  8
028663-1ROU1_GBR
 10
171.186856
 20
55.473982
 30
0.00
  0
VERTEX
  8
028663-1ROU1_GBR
 10
170.447944
 20
55.66819
 30
0.00
  0
VERTEX
  8
028663-1ROU1_GBR
 10
169.71353
 20
55.874082
 30
0.00
  0
VERTEX
  8
028663-1ROU1_GBR
 10
168.982288
 20
56.091608
 30
0.00
  0
VERTEX
  8
028663-1ROU1_GBR
 10
168.25369
 20
56.321172
 30
0.00
  0
VERTEX
  8
028663-1ROU1_GBR
 10
167.529484
 20
56.561888
 30
0.00
  0
VERTEX
  8
028663-1ROU1_GBR
 10
166.809598
 20
56.814212
 30
0.00
  0
VERTEX
  8
028663-1ROU1_GBR
 10
166.331112
 20
56.989142
 30
0.00
  0
VERTEX
  8
028663-1ROU1_GBR
 10
165.61755
 20
57.260694
 30
0.00
  0
VERTEX
  8
028663-1ROU1_GBR
 10
164.909374
 20
57.54337
 30
0.00
  0
VERTEX
  8
028663-1ROU1_GBR
 10
164.203508
 20
57.83839
 30
0.00
  0
VERTEX
  8
028663-1ROU1_GBR
 10
163.505642
 20
58.142988
 30
0.00
  0
VERTEX
  8
028663-1ROU1_GBR
 10
162.811104
 20
58.459776
 30
0.00
  0
VERTEX
  8
028663-1ROU1_GBR
 10
162.122916
 20
58.786726
 30
0.00
  0
VERTEX
  8
028663-1ROU1_GBR
 10
161.664954
 20
59.01187
 30
0.00
  0
VERTEX
  8
028663-1ROU1_GBR
 10
160.982026
 20
59.359088
 30
0.00
  0
VERTEX
  8
028663-1ROU1_GBR
 10
160.308494
 20
59.71502
 30
0.00
  0
VERTEX
  8
028663-1ROU1_GBR
 10
159.63933
 20
60.082634
 30
0.00
  0
VERTEX
  8
028663-1ROU1_GBR
 10
158.976772
 20
60.460636
 30
0.00
  0
VERTEX
  8
028663-1ROU1_GBR
 10
158.31947
 20
60.849384
 30
0.00
  0
VERTEX
  8
028663-1ROU1_GBR
 10
157.669866
 20
61.247986
 30
0.00
  0
VERTEX
  8
028663-1ROU1_GBR
 10
157.024146
 20
61.658424
 30
0.00
  0
VERTEX
  8
028663-1ROU1_GBR
 10
156.387064
 20
62.077752
 30
0.00
  0
VERTEX
  8
028663-1ROU1_GBR
 10
155.756204
 20
62.50775
 30
0.00
  0
VERTEX
  8
028663-1ROU1_GBR
 10
155.13243
 20
62.947652
 30
0.00
  0
VERTEX
  8
028663-1ROU1_GBR
 10
154.51587
 20
63.397358
 30
0.00
  0
VERTEX
  8
028663-1ROU1_GBR
 10
153.705256
 20
64.011988
 30
0.00
  0
VERTEX
  8
028663-1ROU1_GBR
 10
153.105282
 20
64.48486
 30
0.00
  0
VERTEX
  8
028663-1ROU1_GBR
 10
152.513564
 20
64.966876
 30
0.00
  0
VERTEX
  8
028663-1ROU1_GBR
 10
151.929974
 20
65.457858
 30
0.00
  0
VERTEX
  8
028663-1ROU1_GBR
 10
151.353546
 20
65.95877
 30
0.00
  0
VERTEX
  8
028663-1ROU1_GBR
 10
150.785474
 20
66.468472
 30
0.00
  0
VERTEX
  8
028663-1ROU1_GBR
 10
150.045902
 20
67.157498
 30
0.00
  0
VERTEX
  8
028663-1ROU1_GBR
 10
150.02068
 20
67.189478
 30
0.00
  0
VERTEX
  8
028663-1ROU1_GBR
 10
149.931298
 20
67.241216
 30
0.00
  0
VERTEX
  8
028663-1ROU1_GBR
 10
149.364242
 20
66.708732
 30
0.00
  0
VERTEX
  8
028663-1ROU1_GBR
 10
149.176994
 20
66.536698
 30
0.00
  0
VERTEX
  8
028663-1ROU1_GBR
 10
148.6091
 20
66.02598
 30
0.00
  0
VERTEX
  8
028663-1ROU1_GBR
 10
148.033968
 20
65.524938
 30
0.00
  0
VERTEX
  8
028663-1ROU1_GBR
 10
147.44982
 20
65.03228
 30
0.00
  0
VERTEX
  8
028663-1ROU1_GBR
 10
146.857822
 20
64.548842
 30
0.00
  0
VERTEX
  8
028663-1ROU1_GBR
 10
146.259398
 20
64.075792
 30
0.00
  0
VERTEX
  8
028663-1ROU1_GBR
 10
145.855512
 20
63.765176
 30
0.00
  0
VERTEX
  8
028663-1ROU1_GBR
 10
145.038344
 20
63.15715
 30
0.00
  0
VERTEX
  8
028663-1ROU1_GBR
 10
144.418152
 20
62.71349
 30
0.00
  0
VERTEX
  8
028663-1ROU1_GBR
 10
143.789552
 20
62.278412
 30
0.00
  0
VERTEX
  8
028663-1ROU1_GBR
 10
143.154502
 20
61.853954
 30
0.00
  0
VERTEX
  8
028663-1ROU1_GBR
 10
142.513634
 20
61.439984
 30
0.00
  0
VERTEX
  8
028663-1ROU1_GBR
 10
141.865224
 20
61.035844
 30
0.00
  0
VERTEX
  8
028663-1ROU1_GBR
 10
141.211148
 20
60.642322
 30
0.00
  0
VERTEX
  8
028663-1ROU1_GBR
 10
140.550342
 20
60.259188
 30
0.00
  0
VERTEX
  8
028663-1ROU1_GBR
 10
139.884074
 20
59.886698
 30
0.00
  0
VERTEX
  8
028663-1ROU1_GBR
 10
139.211862
 20
59.524824
 30
0.00
  0
VERTEX
  8
028663-1ROU1_GBR
 10
138.53348
 20
59.17344
 30
0.00
  0
VERTEX
  8
028663-1ROU1_GBR
 10
137.850144
 20
58.833156
 30
0.00
  0
VERTEX
  8
028663-1ROU1_GBR
 10
137.161524
 20
58.503846
 30
0.00
  0
VERTEX
  8
028663-1ROU1_GBR
 10
136.467266
 20
58.185532
 30
0.00
  0
VERTEX
  8
028663-1ROU1_GBR
 10
135.767546
 20
57.877888
 30
0.00
  0
VERTEX
  8
028663-1ROU1_GBR
 10
135.063382
 20
57.581596
 30
0.00
  0
VERTEX
  8
028663-1ROU1_GBR
 10
134.355358
 20
57.296786
 30
0.00
  0
VERTEX
  8
028663-1ROU1_GBR
 10
133.642836
 20
57.023406
 30
0.00
  0
VERTEX
  8
028663-1ROU1_GBR
 10
132.92549
 20
56.760898
 30
0.00
  0
VERTEX
  8
028663-1ROU1_GBR
 10
132.68574
 20
56.676164
 30
0.00
  0
VERTEX
  8
028663-1ROU1_GBR
 10
131.963058
 20
56.429276
 30
0.00
  0
VERTEX
  8
028663-1ROU1_GBR
 10
131.236212
 20
56.19369
 30
0.00
  0
VERTEX
  8
028663-1ROU1_GBR
 10
130.506902
 20
55.96989
 30
0.00
  0
VERTEX
  8
028663-1ROU1_GBR
 10
129.773554
 20
55.757852
 30
0.00
  0
VERTEX
  8
028663-1ROU1_GBR
 10
129.03614
 20
55.557294
 30
0.00
  0
VERTEX
  8
028663-1ROU1_GBR
 10
128.295832
 20
55.36847
 30
0.00
  0
VERTEX
  8
028663-1ROU1_GBR
 10
127.553846
 20
55.19161
 30
0.00
  0
VERTEX
  8
028663-1ROU1_GBR
 10
126.807392
 20
55.026356
 30
0.00
  0
VERTEX
  8
028663-1ROU1_GBR
 10
126.05992
 20
54.873042
 30
0.00
  0
VERTEX
  8
028663-1ROU1_GBR
 10
125.31029
 20
54.731946
 30
0.00
  0
VERTEX
  8
028663-1ROU1_GBR
 10
124.556418
 20
54.602456
 30
0.00
  0
VERTEX
  8
028663-1ROU1_GBR
 10
123.801836
 20
54.485108
 30
0.00
  0
VERTEX
  8
028663-1ROU1_GBR
 10
123.04611
 20
54.379774
 30
0.00
  0
VERTEX
  8
028663-1ROU1_GBR
 10
122.288122
 20
54.286556
 30
0.00
  0
VERTEX
  8
028663-1ROU1_GBR
 10
121.528968
 20
54.205302
 30
0.00
  0
VERTEX
  8
028663-1ROU1_GBR
 10
120.767398
 20
54.136138
 30
0.00
  0
VERTEX
  8
028663-1ROU1_GBR
 10
120.007024
 20
54.079318
 30
0.00
  0
VERTEX
  8
028663-1ROU1_GBR
 10
119.244136
 20
54.034334
 30
0.00
  0
VERTEX
  8
028663-1ROU1_GBR
 10
118.736644
 20
54.011272
 30
0.00
  0
VERTEX
  8
028663-1ROU1_GBR
 10
117.972078
 20
53.986582
 30
0.00
  0
VERTEX
  8
028663-1ROU1_GBR
 10
117.210104
 20
53.974162
 30
0.00
  0
VERTEX
  8
028663-1ROU1_GBR
 10
116.44536
 20
53.973908
 30
0.00
  0
VERTEX
  8
028663-1ROU1_GBR
 10
115.6827
 20
53.985592
 30
0.00
  0
VERTEX
  8
028663-1ROU1_GBR
 10
114.918872
 20
54.009722
 30
0.00
  0
VERTEX
  8
028663-1ROU1_GBR
 10
114.41082
 20
54.032302
 30
0.00
  0
VERTEX
  8
028663-1ROU1_GBR
 10
113.647956
 20
54.07655
 30
0.00
  0
VERTEX
  8
028663-1ROU1_GBR
 10
112.886084
 20
54.132962
 30
0.00
  0
VERTEX
  8
028663-1ROU1_GBR
 10
112.125608
 20
54.201288
 30
0.00
  0
VERTEX
  8
028663-1ROU1_GBR
 10
111.366858
 20
54.281756
 30
0.00
  0
VERTEX
  8
028663-1ROU1_GBR
 10
111.97214
 20
57.381826
 30
0.00
  0
VERTEX
  8
028663-1ROU1_GBR
 10
111.958678
 20
57.638138
 30
0.00
  0
VERTEX
  8
028663-1ROU1_GBR
 10
111.923626
 20
57.892086
 30
0.00
  0
VERTEX
  8
028663-1ROU1_GBR
 10
111.867492
 20
58.142582
 30
0.00
  0
VERTEX
  8
028663-1ROU1_GBR
 10
111.790276
 20
58.387158
 30
0.00
  0
VERTEX
  8
028663-1ROU1_GBR
 10
111.69274
 20
58.624394
 30
0.00
  0
VERTEX
  8
028663-1ROU1_GBR
 10
111.575392
 20
58.85274
 30
0.00
  0
VERTEX
  8
028663-1ROU1_GBR
 10
111.439502
 20
59.070164
 30
0.00
  0
VERTEX
  8
028663-1ROU1_GBR
 10
111.285604
 20
59.27537
 30
0.00
  0
VERTEX
  8
028663-1ROU1_GBR
 10
111.114866
 20
59.466938
 30
0.00
  0
VERTEX
  8
028663-1ROU1_GBR
 10
110.928708
 20
59.643442
 30
0.00
  0
VERTEX
  8
028663-1ROU1_GBR
 10
110.728532
 20
59.803742
 30
0.00
  0
VERTEX
  8
028663-1ROU1_GBR
 10
110.515196
 20
59.946464
 30
0.00
  0
VERTEX
  8
028663-1ROU1_GBR
 10
110.290914
 20
60.07067
 30
0.00
  0
VERTEX
  8
028663-1ROU1_GBR
 10
110.056726
 20
60.175572
 30
0.00
  0
VERTEX
  8
028663-1ROU1_GBR
 10
109.814664
 20
60.260408
 30
0.00
  0
VERTEX
  8
028663-1ROU1_GBR
 10
109.566228
 20
60.324416
 30
0.00
  0
VERTEX
  8
028663-1ROU1_GBR
 10
109.313268
 20
60.367088
 30
0.00
  0
VERTEX
  8
028663-1ROU1_GBR
 10
109.05749
 20
60.388678
 30
0.00
  0
VERTEX
  8
028663-1ROU1_GBR
 10
108.80095
 20
60.388424
 30
0.00
  0
VERTEX
  8
028663-1ROU1_GBR
 10
108.545426
 20
60.36658
 30
0.00
  0
VERTEX
  8
028663-1ROU1_GBR
 10
108.292442
 20
60.323146
 30
0.00
  0
VERTEX
  8
028663-1ROU1_GBR
 10
108.044284
 20
60.25863
 30
0.00
  0
VERTEX
  8
028663-1ROU1_GBR
 10
107.802222
 20
60.17354
 30
0.00
  0
VERTEX
  8
028663-1ROU1_GBR
 10
107.568288
 20
60.06813
 30
0.00
  0
VERTEX
  8
028663-1ROU1_GBR
 10
107.343982
 20
59.94339
 30
0.00
  0
VERTEX
  8
028663-1ROU1_GBR
 10
107.13118
 20
59.800414
 30
0.00
  0
VERTEX
  8
028663-1ROU1_GBR
 10
106.931256
 20
59.639886
 30
0.00
  0
VERTEX
  8
028663-1ROU1_GBR
 10
106.745304
 20
59.463076
 30
0.00
  0
VERTEX
  8
028663-1ROU1_GBR
 10
106.574894
 20
59.271104
 30
0.00
  0
VERTEX
  8
028663-1ROU1_GBR
 10
106.421478
 20
59.065592
 30
0.00
  0
VERTEX
  8
028663-1ROU1_GBR
 10
106.285842
 20
58.84766
 30
0.00
  0
VERTEX
  8
028663-1ROU1_GBR
 10
106.169256
 20
58.619314
 30
0.00
  0
VERTEX
  8
028663-1ROU1_GBR
 10
106.071974
 20
58.381824
 30
0.00
  0
VERTEX
  8
028663-1ROU1_GBR
 10
105.485946
 20
55.353686
 30
0.00
  0
VERTEX
  8
028663-1ROU1_GBR
 10
105.38709
 20
55.342232
 30
0.00
  0
VERTEX
  8
028663-1ROU1_GBR
 10
104.738144
 20
55.504918
 30
0.00
  0
VERTEX
  8
028663-1ROU1_GBR
 10
103.998826
 20
55.701946
 30
0.00
  0
VERTEX
  8
028663-1ROU1_GBR
 10
103.508074
 20
55.839868
 30
0.00
  0
VERTEX
  8
028663-1ROU1_GBR
 10
102.77475
 20
56.056226
 30
0.00
  0
VERTEX
  8
028663-1ROU1_GBR
 10
102.287832
 20
56.207178
 30
0.00
  0
VERTEX
  8
028663-1ROU1_GBR
 10
101.559792
 20
56.443346
 30
0.00
  0
VERTEX
  8
028663-1ROU1_GBR
 10
100.837416
 20
56.690386
 30
0.00
  0
VERTEX
  8
028663-1ROU1_GBR
 10
100.11824
 20
56.949416
 30
0.00
  0
VERTEX
  8
028663-1ROU1_GBR
 10
99.40224
 20
57.220206
 30
0.00
  0
VERTEX
  8
028663-1ROU1_GBR
 10
98.692208
 20
57.501638
 30
0.00
  0
VERTEX
  8
028663-1ROU1_GBR
 10
97.985656
 20
57.794932
 30
0.00
  0
VERTEX
  8
028663-1ROU1_GBR
 10
97.283982
 20
58.099274
 30
0.00
  0
VERTEX
  8
028663-1ROU1_GBR
 10
96.586116
 20
58.415402
 30
0.00
  0
VERTEX
  8
028663-1ROU1_GBR
 10
95.895922
 20
58.741514
 30
0.00
  0
VERTEX
  8
028663-1ROU1_GBR
 10
95.210376
 20
59.078826
 30
0.00
  0
VERTEX
  8
028663-1ROU1_GBR
 10
94.530214
 20
59.42716
 30
0.00
  0
VERTEX
  8
028663-1ROU1_GBR
 10
94.079238
 20
59.665616
 30
0.00
  0
VERTEX
  8
028663-1ROU1_GBR
 10
93.40728
 20
60.032366
 30
0.00
  0
VERTEX
  8
028663-1ROU1_GBR
 10
92.743274
 20
60.40887
 30
0.00
  0
VERTEX
  8
028663-1ROU1_GBR
 10
92.083662
 20
60.7965
 30
0.00
  0
VERTEX
  8
028663-1ROU1_GBR
 10
91.647976
 20
61.060812
 30
0.00
  0
VERTEX
  8
028663-1ROU1_GBR
 10
90.99936
 20
61.46579
 30
0.00
  0
VERTEX
  8
028663-1ROU1_GBR
 10
90.357554
 20
61.880878
 30
0.00
  0
VERTEX
  8
028663-1ROU1_GBR
 10
89.933576
 20
62.163198
 30
0.00
  0
VERTEX
  8
028663-1ROU1_GBR
 10
89.303148
 20
62.595328
 30
0.00
  0
VERTEX
  8
028663-1ROU1_GBR
 10
88.678538
 20
63.038102
 30
0.00
  0
VERTEX
  8
028663-1ROU1_GBR
 10
88.062258
 20
63.489662
 30
0.00
  0
VERTEX
  8
028663-1ROU1_GBR
 10
87.452352
 20
63.952094
 30
0.00
  0
VERTEX
  8
028663-1ROU1_GBR
 10
86.6521
 20
64.58232
 30
0.00
  0
VERTEX
  8
028663-1ROU1_GBR
 10
86.060432
 20
65.06652
 30
0.00
  0
VERTEX
  8
028663-1ROU1_GBR
 10
85.476588
 20
65.55994
 30
0.00
  0
VERTEX
  8
028663-1ROU1_GBR
 10
84.900364
 20
66.062988
 30
0.00
  0
VERTEX
  8
028663-1ROU1_GBR
 10
84.332344
 20
66.575128
 30
0.00
  0
VERTEX
  8
028663-1ROU1_GBR
 10
83.822844
 20
67.047288
 30
0.00
  0
VERTEX
  8
028663-1ROU1_GBR
 10
83.822844
 20
137.000438
 30
0.00
  0
VERTEX
  8
028663-1ROU1_GBR
 10
84.60519
 20
137.717454
 30
0.00
  0
VERTEX
  8
028663-1ROU1_GBR
 10
85.175954
 20
138.22266
 30
0.00
  0
VERTEX
  8
028663-1ROU1_GBR
 10
85.753804
 20
138.717986
 30
0.00
  0
VERTEX
  8
028663-1ROU1_GBR
 10
86.339984
 20
139.204624
 30
0.00
  0
VERTEX
  8
028663-1ROU1_GBR
 10
86.93399
 20
139.681738
 30
0.00
  0
VERTEX
  8
028663-1ROU1_GBR
 10
87.535334
 20
140.149504
 30
0.00
  0
VERTEX
  8
028663-1ROU1_GBR
 10
88.14402
 20
140.607568
 30
0.00
  0
VERTEX
  8
028663-1ROU1_GBR
 10
88.760326
 20
141.056106
 30
0.00
  0
VERTEX
  8
028663-1ROU1_GBR
 10
89.38326
 20
141.494408
 30
0.00
  0
VERTEX
  8
028663-1ROU1_GBR
 10
90.01257
 20
141.9225
 30
0.00
  0
VERTEX
  8
028663-1ROU1_GBR
 10
90.64907
 20
142.341092
 30
0.00
  0
VERTEX
  8
028663-1ROU1_GBR
 10
91.508732
 20
142.883382
 30
0.00
  0
VERTEX
  8
028663-1ROU1_GBR
 10
92.160294
 20
143.277692
 30
0.00
  0
VERTEX
  8
028663-1ROU1_GBR
 10
92.818992
 20
143.662248
 30
0.00
  0
VERTEX
  8
028663-1ROU1_GBR
 10
93.483506
 20
144.036162
 30
0.00
  0
VERTEX
  8
028663-1ROU1_GBR
 10
94.152238
 20
144.398542
 30
0.00
  0
VERTEX
  8
028663-1ROU1_GBR
 10
94.8277
 20
144.750866
 30
0.00
  0
VERTEX
  8
028663-1ROU1_GBR
 10
95.281166
 20
144.97939
 30
0.00
  0
VERTEX
  8
028663-1ROU1_GBR
 10
95.965722
 20
145.313654
 30
0.00
  0
VERTEX
  8
028663-1ROU1_GBR
 10
96.655586
 20
145.636996
 30
0.00
  0
VERTEX
  8
028663-1ROU1_GBR
 10
97.351138
 20
145.949518
 30
0.00
  0
VERTEX
  8
028663-1ROU1_GBR
 10
98.050146
 20
146.250432
 30
0.00
  0
VERTEX
  8
028663-1ROU1_GBR
 10
98.755074
 20
146.540626
 30
0.00
  0
VERTEX
  8
028663-1ROU1_GBR
 10
99.463682
 20
146.819138
 30
0.00
  0
VERTEX
  8
028663-1ROU1_GBR
 10
100.177118
 20
147.086574
 30
0.00
  0
VERTEX
  8
028663-1ROU1_GBR
 10
100.65479
 20
147.258506
 30
0.00
  0
VERTEX
  8
028663-1ROU1_GBR
 10
101.375006
 20
147.506868
 30
0.00
  0
VERTEX
  8
028663-1ROU1_GBR
 10
102.099136
 20
147.743926
 30
0.00
  0
VERTEX
  8
028663-1ROU1_GBR
 10
102.826592
 20
147.969148
 30
0.00
  0
VERTEX
  8
028663-1ROU1_GBR
 10
103.558188
 20
148.183092
 30
0.00
  0
VERTEX
  8
028663-1ROU1_GBR
 10
104.29428
 20
148.385682
 30
0.00
  0
VERTEX
  8
028663-1ROU1_GBR
 10
105.029914
 20
148.57565
 30
0.00
  0
VERTEX
  8
028663-1ROU1_GBR
 10
105.770858
 20
148.754288
 30
0.00
  0
VERTEX
  8
028663-1ROU1_GBR
 10
106.515814
 20
148.92147
 30
0.00
  0
VERTEX
  8
028663-1ROU1_GBR
 10
107.261026
 20
149.076308
 30
0.00
  0
VERTEX
  8
028663-1ROU1_GBR
 10
108.008648
 20
149.219158
 30
0.00
  0
VERTEX
  8
028663-1ROU1_GBR
 10
108.758964
 20
149.350426
 30
0.00
  0
VERTEX
  8
028663-1ROU1_GBR
 10
109.510982
 20
149.4695
 30
0.00
  0
VERTEX
  8
028663-1ROU1_GBR
 10
110.517306
 20
149.609988
 30
0.00
  0
VERTEX
  8
028663-1ROU1_GBR
 10
111.274098
 20
149.701224
 30
0.00
  0
VERTEX
  8
028663-1ROU1_GBR
 10
112.03211
 20
149.780498
 30
0.00
  0
VERTEX
  8
028663-1ROU1_GBR
 10
112.789792
 20
149.847452
 30
0.00
  0
VERTEX
  8
028663-1ROU1_GBR
 10
113.550142
 20
149.902342
 30
0.00
  0
VERTEX
  8
028663-1ROU1_GBR
 10
114.086462
 20
149.935666
 30
0.00
  0
VERTEX
  8
028663-1ROU1_GBR
 10
114.086944
 20
150.072852
 30
0.00
  0
VERTEX
  8
028663-1ROU1_GBR
 10
113.14021
 20
150.13945
 30
0.00
  0
VERTEX
  8
028663-1ROU1_GBR
 10
112.37981
 20
150.203688
 30
0.00
  0
VERTEX
  8
028663-1ROU1_GBR
 10
111.618802
 20
150.280294
 30
0.00
  0
VERTEX
  8
028663-1ROU1_GBR
 10
111.366858
 20
150.30836
 30
0.00
  0
VERTEX
  8
028663-1ROU1_GBR
 10
111.97214
 20
153.40843
 30
0.00
  0
VERTEX
  8
028663-1ROU1_GBR
 10
111.958678
 20
153.664742
 30
0.00
  0
VERTEX
  8
028663-1ROU1_GBR
 10
111.923626
 20
153.918692
 30
0.00
  0
VERTEX
  8
028663-1ROU1_GBR
 10
111.867492
 20
154.169186
 30
0.00
  0
VERTEX
  8
028663-1ROU1_GBR
 10
111.790276
 20
154.413762
 30
0.00
  0
VERTEX
  8
028663-1ROU1_GBR
 10
111.69274
 20
154.650998
 30
0.00
  0
VERTEX
  8
028663-1ROU1_GBR
 10
111.575392
 20
154.879344
 30
0.00
  0
VERTEX
  8
028663-1ROU1_GBR
 10
111.439502
 20
155.096768
 30
0.00
  0
VERTEX
  8
028663-1ROU1_GBR
 10
111.285604
 20
155.301976
 30
0.00
  0
VERTEX
  8
028663-1ROU1_GBR
 10
111.114866
 20
155.493542
 30
0.00
  0
VERTEX
  8
028663-1ROU1_GBR
 10
110.928708
 20
155.670046
 30
0.00
  0
VERTEX
  8
028663-1ROU1_GBR
 10
110.728532
 20
155.830346
 30
0.00
  0
VERTEX
  8
028663-1ROU1_GBR
 10
110.515196
 20
155.973068
 30
0.00
  0
VERTEX
  8
028663-1ROU1_GBR
 10
110.290914
 20
156.097274
 30
0.00
  0
VERTEX
  8
028663-1ROU1_GBR
 10
110.056726
 20
156.202176
 30
0.00
  0
VERTEX
  8
028663-1ROU1_GBR
 10
109.814664
 20
156.287012
 30
0.00
  0
VERTEX
  8
028663-1ROU1_GBR
 10
109.566228
 20
156.35102
 30
0.00
  0
VERTEX
  8
028663-1ROU1_GBR
 10
109.313268
 20
156.393692
 30
0.00
  0
VERTEX
  8
028663-1ROU1_GBR
 10
109.05749
 20
156.415282
 30
0.00
  0
VERTEX
  8
028663-1ROU1_GBR
 10
108.80095
 20
156.415028
 30
0.00
  0
VERTEX
  8
028663-1ROU1_GBR
 10
108.545426
 20
156.393184
 30
0.00
  0
VERTEX
  8
028663-1ROU1_GBR
 10
108.292442
 20
156.34975
 30
0.00
  0
VERTEX
  8
028663-1ROU1_GBR
 10
108.044284
 20
156.285234
 30
0.00
  0
VERTEX
  8
028663-1ROU1_GBR
 10
107.802222
 20
156.200144
 30
0.00
  0
VERTEX
  8
028663-1ROU1_GBR
 10
107.568288
 20
156.094734
 30
0.00
  0
VERTEX
  8
028663-1ROU1_GBR
 10
107.343982
 20
155.969996
 30
0.00
  0
VERTEX
  8
028663-1ROU1_GBR
 10
107.13118
 20
155.827018
 30
0.00
  0
VERTEX
  8
028663-1ROU1_GBR
 10
106.931256
 20
155.66649
 30
0.00
  0
VERTEX
  8
028663-1ROU1_GBR
 10
106.745304
 20
155.489682
 30
0.00
  0
VERTEX
  8
028663-1ROU1_GBR
 10
106.574894
 20
155.297708
 30
0.00
  0
VERTEX
  8
028663-1ROU1_GBR
 10
106.421478
 20
155.092196
 30
0.00
  0
VERTEX
  8
028663-1ROU1_GBR
 10
106.285842
 20
154.874264
 30
0.00
  0
VERTEX
  8
028663-1ROU1_GBR
 10
106.169256
 20
154.645918
 30
0.00
  0
VERTEX
  8
028663-1ROU1_GBR
 10
106.071974
 20
154.408428
 30
0.00
  0
VERTEX
  8
028663-1ROU1_GBR
 10
105.485946
 20
151.380292
 30
0.00
  0
VERTEX
  8
028663-1ROU1_GBR
 10
105.38709
 20
151.368836
 30
0.00
  0
VERTEX
  8
028663-1ROU1_GBR
 10
104.738144
 20
151.531524
 30
0.00
  0
VERTEX
  8
028663-1ROU1_GBR
 10
103.998826
 20
151.728552
 30
0.00
  0
VERTEX
  8
028663-1ROU1_GBR
 10
103.508074
 20
151.866474
 30
0.00
  0
VERTEX
  8
028663-1ROU1_GBR
 10
102.77475
 20
152.08283
 30
0.00
  0
VERTEX
  8
028663-1ROU1_GBR
 10
102.287832
 20
152.233782
 30
0.00
  0
VERTEX
  8
028663-1ROU1_GBR
 10
101.559792
 20
152.469952
 30
0.00
  0
VERTEX
  8
028663-1ROU1_GBR
 10
100.837416
 20
152.716992
 30
0.00
  0
VERTEX
  8
028663-1ROU1_GBR
 10
100.11824
 20
152.976022
 30
0.00
  0
VERTEX
  8
028663-1ROU1_GBR
 10
99.40224
 20
153.24681
 30
0.00
  0
VERTEX
  8
028663-1ROU1_GBR
 10
98.691142
 20
153.528674
 30
0.00
  0
VERTEX
  8
028663-1ROU1_GBR
 10
97.985656
 20
153.821536
 30
0.00
  0
VERTEX
  8
028663-1ROU1_GBR
 10
97.283982
 20
154.12588
 30
0.00
  0
VERTEX
  8
028663-1ROU1_GBR
 10
96.586116
 20
154.442008
 30
0.00
  0
VERTEX
  8
028663-1ROU1_GBR
 10
95.895922
 20
154.768118
 30
0.00
  0
VERTEX
  8
028663-1ROU1_GBR
 10
95.210376
 20
155.10543
 30
0.00
  0
VERTEX
  8
028663-1ROU1_GBR
 10
94.530214
 20
155.453766
 30
0.00
  0
VERTEX
  8
028663-1ROU1_GBR
 10
94.079238
 20
155.692222
 30
0.00
  0
VERTEX
  8
028663-1ROU1_GBR
 10
93.40728
 20
156.058972
 30
0.00
  0
VERTEX
  8
028663-1ROU1_GBR
 10
92.743274
 20
156.435476
 30
0.00
  0
VERTEX
  8
028663-1ROU1_GBR
 10
92.083662
 20
156.823106
 30
0.00
  0
VERTEX
  8
028663-1ROU1_GBR
 10
91.647976
 20
157.087418
 30
0.00
  0
VERTEX
  8
028663-1ROU1_GBR
 10
90.99936
 20
157.492396
 30
0.00
  0
VERTEX
  8
028663-1ROU1_GBR
 10
90.357554
 20
157.907482
 30
0.00
  0
VERTEX
  8
028663-1ROU1_GBR
 10
89.933576
 20
158.189804
 30
0.00
  0
VERTEX
  8
028663-1ROU1_GBR
 10
89.303148
 20
158.621934
 30
0.00
  0
VERTEX
  8
028663-1ROU1_GBR
 10
88.678538
 20
159.064706
 30
0.00
  0
VERTEX
  8
028663-1ROU1_GBR
 10
88.062258
 20
159.516268
 30
0.00
  0
VERTEX
  8
028663-1ROU1_GBR
 10
87.452352
 20
159.9787
 30
0.00
  0
VERTEX
  8
028663-1ROU1_GBR
 10
86.6521
 20
160.608924
 30
0.00
  0
VERTEX
  8
028663-1ROU1_GBR
 10
86.060432
 20
161.093124
 30
0.00
  0
VERTEX
  8
028663-1ROU1_GBR
 10
85.476588
 20
161.586546
 30
0.00
  0
VERTEX
  8
028663-1ROU1_GBR
 10
84.900364
 20
162.089592
 30
0.00
  0
VERTEX
  8
028663-1ROU1_GBR
 10
84.332344
 20
162.601732
 30
0.00
  0
VERTEX
  8
028663-1ROU1_GBR
 10
83.822844
 20
163.073892
 30
0.00
  0
VERTEX
  8
028663-1ROU1_GBR
 10
83.822844
 20
233.027016
 30
0.00
  0
VERTEX
  8
028663-1ROU1_GBR
 10
84.605292
 20
233.74416
 30
0.00
  0
VERTEX
  8
028663-1ROU1_GBR
 10
85.175954
 20
234.249264
 30
0.00
  0
VERTEX
  8
028663-1ROU1_GBR
 10
85.753804
 20
234.74459
 30
0.00
  0
VERTEX
  8
028663-1ROU1_GBR
 10
86.339984
 20
235.231228
 30
0.00
  0
VERTEX
  8
028663-1ROU1_GBR
 10
86.93399
 20
235.708342
 30
0.00
  0
VERTEX
  8
028663-1ROU1_GBR
 10
87.535334
 20
236.176108
 30
0.00
  0
VERTEX
  8
028663-1ROU1_GBR
 10
88.14402
 20
236.634172
 30
0.00
  0
VERTEX
  8
028663-1ROU1_GBR
 10
88.760326
 20
237.08271
 30
0.00
  0
VERTEX
  8
028663-1ROU1_GBR
 10
89.38326
 20
237.521014
 30
0.00
  0
VERTEX
  8
028663-1ROU1_GBR
 10
90.01257
 20
237.949104
 30
0.00
  0
VERTEX
  8
028663-1ROU1_GBR
 10
90.64907
 20
238.367698
 30
0.00
  0
VERTEX
  8
028663-1ROU1_GBR
 10
91.508732
 20
238.909988
 30
0.00
  0
VERTEX
  8
028663-1ROU1_GBR
 10
92.160294
 20
239.304296
 30
0.00
  0
VERTEX
  8
028663-1ROU1_GBR
 10
92.818992
 20
239.688852
 30
0.00
  0
VERTEX
  8
028663-1ROU1_GBR
 10
93.483506
 20
240.062766
 30
0.00
  0
VERTEX
  8
028663-1ROU1_GBR
 10
94.152238
 20
240.425148
 30
0.00
  0
VERTEX
  8
028663-1ROU1_GBR
 10
94.8277
 20
240.777472
 30
0.00
  0
VERTEX
  8
028663-1ROU1_GBR
 10
95.281166
 20
241.005996
 30
0.00
  0
VERTEX
  8
028663-1ROU1_GBR
 10
95.965722
 20
241.34026
 30
0.00
  0
VERTEX
  8
028663-1ROU1_GBR
 10
96.655586
 20
241.663602
 30
0.00
  0
VERTEX
  8
028663-1ROU1_GBR
 10
97.351138
 20
241.976122
 30
0.00
  0
VERTEX
  8
028663-1ROU1_GBR
 10
98.050146
 20
242.277036
 30
0.00
  0
VERTEX
  8
028663-1ROU1_GBR
 10
98.755074
 20
242.567232
 30
0.00
  0
VERTEX
  8
028663-1ROU1_GBR
 10
99.463682
 20
242.845742
 30
0.00
  0
VERTEX
  8
028663-1ROU1_GBR
 10
100.177118
 20
243.113178
 30
0.00
  0
VERTEX
  8
028663-1ROU1_GBR
 10
100.65479
 20
243.285112
 30
0.00
  0
VERTEX
  8
028663-1ROU1_GBR
 10
101.375006
 20
243.533472
 30
0.00
  0
VERTEX
  8
028663-1ROU1_GBR
 10
102.099136
 20
243.770532
 30
0.00
  0
VERTEX
  8
028663-1ROU1_GBR
 10
102.826592
 20
243.995752
 30
0.00
  0
VERTEX
  8
028663-1ROU1_GBR
 10
103.558188
 20
244.209696
 30
0.00
  0
VERTEX
  8
028663-1ROU1_GBR
 10
104.29428
 20
244.412288
 30
0.00
  0
VERTEX
  8
028663-1ROU1_GBR
 10
105.029914
 20
244.602254
 30
0.00
  0
VERTEX
  8
028663-1ROU1_GBR
 10
105.770858
 20
244.780892
 30
0.00
  0
VERTEX
  8
028663-1ROU1_GBR
 10
106.515814
 20
244.948076
 30
0.00
  0
VERTEX
  8
028663-1ROU1_GBR
 10
107.261026
 20
245.102914
 30
0.00
  0
VERTEX
  8
028663-1ROU1_GBR
 10
108.008648
 20
245.245764
 30
0.00
  0
VERTEX
  8
028663-1ROU1_GBR
 10
108.758964
 20
245.37703
 30
0.00
  0
VERTEX
  8
028663-1ROU1_GBR
 10
109.510982
 20
245.496106
 30
0.00
  0
VERTEX
  8
028663-1ROU1_GBR
 10
110.517306
 20
245.636592
 30
0.00
  0
VERTEX
  8
028663-1ROU1_GBR
 10
111.274098
 20
245.72783
 30
0.00
  0
VERTEX
  8
028663-1ROU1_GBR
 10
112.03211
 20
245.807104
 30
0.00
  0
VERTEX
  8
028663-1ROU1_GBR
 10
112.789792
 20
245.874058
 30
0.00
  0
VERTEX
  8
028663-1ROU1_GBR
 10
113.550116
 20
245.928946
 30
0.00
  0
VERTEX
  8
028663-1ROU1_GBR
 10
114.056972
 20
245.958918
 30
0.00
  0
VERTEX
  8
028663-1ROU1_GBR
 10
114.818236
 20
245.993716
 30
0.00
  0
VERTEX
  8
028663-1ROU1_GBR
 10
115.579982
 20
246.016602
 30
0.00
  0
VERTEX
  8
028663-1ROU1_GBR
 10
116.34122
 20
246.027244
 30
0.00
  0
VERTEX
  8
028663-1ROU1_GBR
 10
116.595296
 20
246.028006
 30
0.00
  0
SEQEND
  0
ENDSEC
  0
EOF
