  0
SECTION
  2
HEADER
  9
$EXTMIN
 10
-258.359834
 20
-58.010602
 30
0.00
  9
$EXTMAX
 10
470.00
 20
419.20
 30
0.00
  0
ENDSEC
  0
SECTION
  2
TABLES
  0
TABLE
  2
LTYPE
 70
3
  0
LTYPE
  2
BYBLOCK
 70
0
  3

 72
65
 73
0
 40
0.00
  0
LTYPE
  2
BYLAYER
 70
0
  3

 72
65
 73
0
 40
0.00
  0
LTYPE
  2
CONTINUOUS
 70
0
  3
Solid line
 72
65
 73
0
 40
0.00
  0
ENDTAB
  0
TABLE
  2
LAYER
 70
99
  0
LAYER
  2
0
 70
0
 62
7
  6
CONTINUOUS
  0
LAYER
  2
020671-1ROU1_GBR
 70
0
 62
7
  6
CONTINUOUS
  0
LAYER
  2
027417-3ROU1_GBR
 70
0
 62
7
  6
CONTINUOUS
  0
LAYER
  2
027419-1ROU1_GBR
 70
0
 62
2
  6
CONTINUOUS
  0
LAYER
  2
027419-2ROU1_GBR
 70
0
 62
6
  6
CONTINUOUS
  0
LAYER
  2
027674-1ROU1_GBR
 70
0
 62
1
  6
CONTINUOUS
  0
LAYER
  2
027676-1ROU1_GBR
 70
0
 62
4
  6
CONTINUOUS
  0
LAYER
  2
027678-3ROU1_GBR
 70
0
 62
3
  6
CONTINUOUS
  0
LAYER
  2
028122-1ROU1_GBR
 70
0
 62
5
  6
CONTINUOUS
  0
LAYER
  2
028124-5ROU1_GBR
 70
0
 62
10
  6
CONTINUOUS
  0
LAYER
  2
028126-1ROU1_GBR
 70
0
 62
14
  6
CONTINUOUS
  0
LAYER
  2
028126-3ROU1_GBR
 70
0
 62
9
  6
CONTINUOUS
  0
LAYER
  2
028126-6ROU1_GBR
 70
0
 62
12
  6
CONTINUOUS
  0
LAYER
  2
028126-7ROU1_GBR
 70
0
 62
11
  6
CONTINUOUS
  0
LAYER
  2
028129-1ROU1_GBR
 70
0
 62
13
  6
CONTINUOUS
  0
LAYER
  2
028130-1ROU1_GBR
 70
0
 62
8
  6
CONTINUOUS
  0
LAYER
  2
028130-4ROU1_GBR
 70
0
 62
15
  6
CONTINUOUS
  0
LAYER
  2
028130-5ROU1_GBR
 70
0
 62
7
  6
CONTINUOUS
  0
LAYER
  2
028130-7ROU1_GBR
 70
0
 62
7
  6
CONTINUOUS
  0
LAYER
  2
028655-1ROU1_GBR
 70
0
 62
2
  6
CONTINUOUS
  0
LAYER
  2
028657-1ROU1_GBR
 70
0
 62
6
  6
CONTINUOUS
  0
LAYER
  2
028659-2ROU1_GBR
 70
0
 62
1
  6
CONTINUOUS
  0
LAYER
  2
028659-4ROU1_GBR
 70
0
 62
4
  6
CONTINUOUS
  0
LAYER
  2
028661-1ROU1_GBR
 70
0
 62
3
  6
CONTINUOUS
  0
LAYER
  2
028663-1ROU1_GBR
 70
0
 62
5
  6
CONTINUOUS
  0
LAYER
  2
028665-1ROU1_GBR
 70
0
 62
10
  6
CONTINUOUS
  0
LAYER
  2
028669-1ROU1_GBR
 70
0
 62
14
  6
CONTINUOUS
  0
LAYER
  2
028673-2ROU1_GBR
 70
0
 62
9
  6
CONTINUOUS
  0
LAYER
  2
037088-3ROU1_GBR
 70
0
 62
12
  6
CONTINUOUS
  0
LAYER
  2
037682-1ROU1_GBR
 70
0
 62
11
  6
CONTINUOUS
  0
LAYER
  2
037686-1ROU1_GBR
 70
0
 62
13
  6
CONTINUOUS
  0
LAYER
  2
037688-1ROU1_GBR
 70
0
 62
8
  6
CONTINUOUS
  0
LAYER
  2
038681-1ROU1_GBR
 70
0
 62
15
  6
CONTINUOUS
  0
LAYER
  2
038683-1ROU1_GBR
 70
0
 62
7
  6
CONTINUOUS
  0
LAYER
  2
038683-2ROU1_GBR
 70
0
 62
7
  6
CONTINUOUS
  0
LAYER
  2
038685-1ROU1_GBR
 70
0
 62
2
  6
CONTINUOUS
  0
LAYER
  2
038689-1ROU1_GBR
 70
0
 62
6
  6
CONTINUOUS
  0
LAYER
  2
038689-2ROU1_GBR
 70
0
 62
1
  6
CONTINUOUS
  0
LAYER
  2
038691-1ROU1_GBR
 70
0
 62
4
  6
CONTINUOUS
  0
LAYER
  2
038691-2ROU1_GBR
 70
0
 62
3
  6
CONTINUOUS
  0
LAYER
  2
038691-3ROU1_GBR
 70
0
 62
5
  6
CONTINUOUS
  0
LAYER
  2
038691-4ROU1_GBR
 70
0
 62
10
  6
CONTINUOUS
  0
LAYER
  2
038693-1ROU1_GBR
 70
0
 62
14
  6
CONTINUOUS
  0
LAYER
  2
038695-1ROU1_GBR
 70
0
 62
9
  6
CONTINUOUS
  0
LAYER
  2
038697-1ROU1_GBR
 70
0
 62
12
  6
CONTINUOUS
  0
LAYER
  2
038697-3ROU1_GBR
 70
0
 62
11
  6
CONTINUOUS
  0
LAYER
  2
038697-4ROU1_GBR
 70
0
 62
13
  6
CONTINUOUS
  0
LAYER
  2
038697-5ROU1_GBR
 70
0
 62
8
  6
CONTINUOUS
  0
LAYER
  2
047706-4ROU1_GBR
 70
0
 62
15
  6
CONTINUOUS
  0
LAYER
  2
047706-5ROU1_GBR
 70
0
 62
7
  6
CONTINUOUS
  0
LAYER
  2
047706-6ROU1_GBR
 70
0
 62
7
  6
CONTINUOUS
  0
LAYER
  2
047708-1ROU1_GBR
 70
0
 62
2
  6
CONTINUOUS
  0
LAYER
  2
047710-1ROU1_GBR
 70
0
 62
6
  6
CONTINUOUS
  0
LAYER
  2
047712-1ROU1_GBR
 70
0
 62
1
  6
CONTINUOUS
  0
LAYER
  2
047714-2ROU1_GBR
 70
0
 62
4
  6
CONTINUOUS
  0
LAYER
  2
048701-1ROU1_GBR
 70
0
 62
3
  6
CONTINUOUS
  0
LAYER
  2
048703-1ROU1_GBR
 70
0
 62
10
  6
CONTINUOUS
  0
LAYER
  2
048711-1ROU1_GBR
 70
0
 62
14
  6
CONTINUOUS
  0
LAYER
  2
048715-1ROU1_GBR
 70
0
 62
9
  6
CONTINUOUS
  0
LAYER
  2
058721-2ROU1_GBR
 70
0
 62
12
  6
CONTINUOUS
  0
LAYER
  2
058723-10ROU1_GBR
 70
0
 62
11
  6
CONTINUOUS
  0
LAYER
  2
058723-1ROU1_GBR
 70
0
 62
13
  6
CONTINUOUS
  0
LAYER
  2
058723-6ROU1_GBR
 70
0
 62
8
  6
CONTINUOUS
  0
LAYER
  2
058723-9ROU1_GBR
 70
0
 62
15
  6
CONTINUOUS
  0
LAYER
  2
067601-1ROU1_GBR
 70
0
 62
7
  6
CONTINUOUS
  0
LAYER
  2
068162-1ROU1_GBR
 70
0
 62
7
  6
CONTINUOUS
  0
LAYER
  2
068162-3ROU1_GBR
 70
0
 62
2
  6
CONTINUOUS
  0
LAYER
  2
068162-4ROU1_GBR
 70
0
 62
6
  6
CONTINUOUS
  0
LAYER
  2
077742-1ROU1_GBR
 70
0
 62
1
  6
CONTINUOUS
  0
LAYER
  2
078731-1ROU1_GBR
 70
0
 62
4
  6
CONTINUOUS
  0
LAYER
  2
078735-3ROU1_GBR
 70
0
 62
3
  6
CONTINUOUS
  0
LAYER
  2
078739-1ROU1_GBR
 70
0
 62
5
  6
CONTINUOUS
  0
LAYER
  2
078753-1ROU1_GBR
 70
0
 62
10
  6
CONTINUOUS
  0
LAYER
  2
078757-1ROU1_GBR
 70
0
 62
14
  6
CONTINUOUS
  0
LAYER
  2
087768-2ROU1_GBR
 70
0
 62
9
  6
CONTINUOUS
  0
LAYER
  2
087772-1ROU1_GBR
 70
0
 62
12
  6
CONTINUOUS
  0
LAYER
  2
087780-1ROU1_GBR
 70
0
 62
11
  6
CONTINUOUS
  0
LAYER
  2
087782-9ROU1_GBR
 70
0
 62
13
  6
CONTINUOUS
  0
LAYER
  2
088783-4ROU1_GBR
 70
0
 62
8
  6
CONTINUOUS
  0
LAYER
  2
088785-1ROU1_GBR
 70
0
 62
15
  6
CONTINUOUS
  0
LAYER
  2
097800-6ROU1_GBR
 70
0
 62
7
  6
CONTINUOUS
  0
LAYER
  2
097810-1ROU1_GBR
 70
0
 62
7
  6
CONTINUOUS
  0
LAYER
  2
098787-1ROU1_GBR
 70
0
 62
2
  6
CONTINUOUS
  0
LAYER
  2
098787-2ROU1_GBR
 70
0
 62
6
  6
CONTINUOUS
  0
LAYER
  2
098789-1ROU1_GBR
 70
0
 62
1
  6
CONTINUOUS
  0
LAYER
  2
098811-1ROU1_GBR
 70
0
 62
4
  6
CONTINUOUS
  0
LAYER
  2
098815-1ROU1_GBR
 70
0
 62
3
  6
CONTINUOUS
  0
LAYER
  2
098815-2ROU1_GBR
 70
0
 62
5
  6
CONTINUOUS
  0
LAYER
  2
107824-1ROU1_GBR
 70
0
 62
10
  6
CONTINUOUS
  0
LAYER
  2
118200-1ROU1_GBR
 70
0
 62
14
  6
CONTINUOUS
  0
LAYER
  2
257017-1ROU1_GBR
 70
0
 62
9
  6
CONTINUOUS
  0
LAYER
  2
268076-7ROU1_GBR
 70
0
 62
12
  6
CONTINUOUS
  0
LAYER
  2
288088-1ROU1_GBR
 70
0
 62
11
  6
CONTINUOUS
  0
LAYER
  2
307251-1ROU1_GBR
 70
0
 62
13
  6
CONTINUOUS
  0
LAYER
  2
307273-4ROU1_GBR
 70
0
 62
8
  6
CONTINUOUS
  0
LAYER
  2
307283-1ROU1_GBR
 70
0
 62
15
  6
CONTINUOUS
  0
LAYER
  2
307291-1ROU1_GBR
 70
0
 62
7
  6
CONTINUOUS
  0
LAYER
  2
308108-1ROU1_GBR
 70
0
 62
7
  6
CONTINUOUS
  0
LAYER
  2
308111-1ROU1_GBR
 70
0
 62
2
  6
CONTINUOUS
  0
LAYER
  2
308112-1ROU1_GBR
 70
0
 62
6
  6
CONTINUOUS
  0
ENDTAB
  0
TABLE
  2
STYLE
 70
0
  0
ENDTAB
  0
ENDSEC
  0
SECTION
  2
BLOCKS
  0
BLOCK
  2
ROUND_1
  3
ROUND_1
 70
64
 10
0.00
 20
0.00
 30
0.00
  0
CIRCLE
  8
0
 10
0.00
 20
0.00
 30
0.00
 40
0.10
  0
ENDBLK
  0
ENDSEC
  0
SECTION
  2
ENTITIES
  0
POLYLINE
  8
037088-3ROU1_GBR
 66
1
 10
0.00
 20
0.00
 30
0.00
 40
0.20
 41
0.20
  0
VERTEX
  8
037088-3ROU1_GBR
 10
79.003602
 20
149.091142
 30
0.00
  0
VERTEX
  8
037088-3ROU1_GBR
 10
79.36611
 20
149.056726
 30
0.00
  0
VERTEX
  8
037088-3ROU1_GBR
 10
79.678174
 20
149.014612
 30
0.00
  0
VERTEX
  8
037088-3ROU1_GBR
 10
79.98559
 20
148.951086
 30
0.00
  0
VERTEX
  8
037088-3ROU1_GBR
 10
80.287952
 20
148.8662
 30
0.00
  0
VERTEX
  8
037088-3ROU1_GBR
 10
80.583888
 20
148.760332
 30
0.00
  0
VERTEX
  8
037088-3ROU1_GBR
 10
80.87205
 20
148.633916
 30
0.00
  0
VERTEX
  8
037088-3ROU1_GBR
 10
81.149724
 20
148.488248
 30
0.00
  0
VERTEX
  8
037088-3ROU1_GBR
 10
81.416956
 20
148.3233
 30
0.00
  0
VERTEX
  8
037088-3ROU1_GBR
 10
81.67243
 20
148.139786
 30
0.00
  0
VERTEX
  8
037088-3ROU1_GBR
 10
81.91378
 20
147.939532
 30
0.00
  0
VERTEX
  8
037088-3ROU1_GBR
 10
82.14045
 20
147.723148
 30
0.00
  0
VERTEX
  8
037088-3ROU1_GBR
 10
82.351168
 20
147.491932
 30
0.00
  0
VERTEX
  8
037088-3ROU1_GBR
 10
82.547256
 20
147.24375
 30
0.00
  0
VERTEX
  8
037088-3ROU1_GBR
 10
82.724092
 20
146.984746
 30
0.00
  0
VERTEX
  8
037088-3ROU1_GBR
 10
82.88279
 20
146.713296
 30
0.00
  0
VERTEX
  8
037088-3ROU1_GBR
 10
83.021982
 20
146.43189
 30
0.00
  0
VERTEX
  8
037088-3ROU1_GBR
 10
83.141362
 20
146.141084
 30
0.00
  0
VERTEX
  8
037088-3ROU1_GBR
 10
83.239914
 20
145.843372
 30
0.00
  0
VERTEX
  8
037088-3ROU1_GBR
 10
83.31769
 20
145.538622
 30
0.00
  0
VERTEX
  8
037088-3ROU1_GBR
 10
83.41111
 20
145.026938
 30
0.00
  0
VERTEX
  8
037088-3ROU1_GBR
 10
83.421194
 20
145.026812
 30
0.00
  0
VERTEX
  8
037088-3ROU1_GBR
 10
83.548296
 20
145.642788
 30
0.00
  0
VERTEX
  8
037088-3ROU1_GBR
 10
83.633158
 20
145.945148
 30
0.00
  0
VERTEX
  8
037088-3ROU1_GBR
 10
83.738822
 20
146.240704
 30
0.00
  0
VERTEX
  8
037088-3ROU1_GBR
 10
83.865008
 20
146.528536
 30
0.00
  0
VERTEX
  8
037088-3ROU1_GBR
 10
84.010474
 20
146.806032
 30
0.00
  0
VERTEX
  8
037088-3ROU1_GBR
 10
84.175728
 20
147.073798
 30
0.00
  0
VERTEX
  8
037088-3ROU1_GBR
 10
84.358734
 20
147.328788
 30
0.00
  0
VERTEX
  8
037088-3ROU1_GBR
 10
84.559648
 20
147.570978
 30
0.00
  0
VERTEX
  8
037088-3ROU1_GBR
 10
84.77631
 20
147.797926
 30
0.00
  0
VERTEX
  8
037088-3ROU1_GBR
 10
85.007754
 20
148.008798
 30
0.00
  0
VERTEX
  8
037088-3ROU1_GBR
 10
85.254694
 20
148.204022
 30
0.00
  0
VERTEX
  8
037088-3ROU1_GBR
 10
85.51451
 20
148.381416
 30
0.00
  0
VERTEX
  8
037088-3ROU1_GBR
 10
85.78629
 20
148.540344
 30
0.00
  0
VERTEX
  8
037088-3ROU1_GBR
 10
86.066858
 20
148.67918
 30
0.00
  0
VERTEX
  8
037088-3ROU1_GBR
 10
86.357308
 20
148.798458
 30
0.00
  0
VERTEX
  8
037088-3ROU1_GBR
 10
86.655504
 20
148.897238
 30
0.00
  0
VERTEX
  8
037088-3ROU1_GBR
 10
86.957916
 20
148.974632
 30
0.00
  0
VERTEX
  8
037088-3ROU1_GBR
 10
87.26838
 20
149.031224
 30
0.00
  0
VERTEX
  8
037088-3ROU1_GBR
 10
87.80399
 20
149.091396
 30
0.00
  0
VERTEX
  8
037088-3ROU1_GBR
 10
99.859034
 20
149.091142
 30
0.00
  0
VERTEX
  8
037088-3ROU1_GBR
 10
100.221542
 20
149.056726
 30
0.00
  0
VERTEX
  8
037088-3ROU1_GBR
 10
100.533606
 20
149.014612
 30
0.00
  0
VERTEX
  8
037088-3ROU1_GBR
 10
100.841022
 20
148.951086
 30
0.00
  0
VERTEX
  8
037088-3ROU1_GBR
 10
101.143384
 20
148.8662
 30
0.00
  0
VERTEX
  8
037088-3ROU1_GBR
 10
101.439522
 20
148.76023
 30
0.00
  0
VERTEX
  8
037088-3ROU1_GBR
 10
101.726974
 20
148.634196
 30
0.00
  0
VERTEX
  8
037088-3ROU1_GBR
 10
102.004876
 20
148.488426
 30
0.00
  0
VERTEX
  8
037088-3ROU1_GBR
 10
102.272388
 20
148.3233
 30
0.00
  0
VERTEX
  8
037088-3ROU1_GBR
 10
102.527862
 20
148.139786
 30
0.00
  0
VERTEX
  8
037088-3ROU1_GBR
 10
102.769212
 20
147.939532
 30
0.00
  0
VERTEX
  8
037088-3ROU1_GBR
 10
102.995882
 20
147.723148
 30
0.00
  0
VERTEX
  8
037088-3ROU1_GBR
 10
103.207794
 20
147.490408
 30
0.00
  0
VERTEX
  8
037088-3ROU1_GBR
 10
103.402232
 20
147.244436
 30
0.00
  0
VERTEX
  8
037088-3ROU1_GBR
 10
103.579574
 20
146.984644
 30
0.00
  0
VERTEX
  8
037088-3ROU1_GBR
 10
103.738274
 20
146.71322
 30
0.00
  0
VERTEX
  8
037088-3ROU1_GBR
 10
103.878076
 20
146.430288
 30
0.00
  0
VERTEX
  8
037088-3ROU1_GBR
 10
103.996744
 20
146.14116
 30
0.00
  0
VERTEX
  8
037088-3ROU1_GBR
 10
104.095398
 20
145.843142
 30
0.00
  0
VERTEX
  8
037088-3ROU1_GBR
 10
104.173096
 20
145.53885
 30
0.00
  0
VERTEX
  8
037088-3ROU1_GBR
 10
104.229128
 20
145.231764
 30
0.00
  0
VERTEX
  8
037088-3ROU1_GBR
 10
104.262478
 20
144.93174
 30
0.00
  0
VERTEX
  8
037088-3ROU1_GBR
 10
104.254732
 20
144.873624
 30
0.00
  0
VERTEX
  8
037088-3ROU1_GBR
 10
104.27589
 20
144.808372
 30
0.00
  0
VERTEX
  8
037088-3ROU1_GBR
 10
104.27589
 20
144.605756
 30
0.00
  0
VERTEX
  8
037088-3ROU1_GBR
 10
109.27715
 20
144.605756
 30
0.00
  0
VERTEX
  8
037088-3ROU1_GBR
 10
109.27715
 20
4.3434
 30
0.00
  0
VERTEX
  8
037088-3ROU1_GBR
 10
104.27335
 20
4.3434
 30
0.00
  0
VERTEX
  8
037088-3ROU1_GBR
 10
104.255646
 20
4.067784
 30
0.00
  0
VERTEX
  8
037088-3ROU1_GBR
 10
104.213762
 20
3.756788
 30
0.00
  0
VERTEX
  8
037088-3ROU1_GBR
 10
104.150084
 20
3.448608
 30
0.00
  0
VERTEX
  8
037088-3ROU1_GBR
 10
104.065298
 20
3.146426
 30
0.00
  0
VERTEX
  8
037088-3ROU1_GBR
 10
103.959914
 20
2.85148
 30
0.00
  0
VERTEX
  8
037088-3ROU1_GBR
 10
103.833626
 20
2.563342
 30
0.00
  0
VERTEX
  8
037088-3ROU1_GBR
 10
103.687676
 20
2.285034
 30
0.00
  0
VERTEX
  8
037088-3ROU1_GBR
 10
103.522652
 20
2.017598
 30
0.00
  0
VERTEX
  8
037088-3ROU1_GBR
 10
103.339672
 20
1.762634
 30
0.00
  0
VERTEX
  8
037088-3ROU1_GBR
 10
103.138758
 20
1.520444
 30
0.00
  0
VERTEX
  8
037088-3ROU1_GBR
 10
102.92207
 20
1.29347
 30
0.00
  0
VERTEX
  8
037088-3ROU1_GBR
 10
102.690626
 20
1.082598
 30
0.00
  0
VERTEX
  8
037088-3ROU1_GBR
 10
102.443686
 20
0.887374
 30
0.00
  0
VERTEX
  8
037088-3ROU1_GBR
 10
102.183896
 20
0.710006
 30
0.00
  0
VERTEX
  8
037088-3ROU1_GBR
 10
101.913182
 20
0.551612
 30
0.00
  0
VERTEX
  8
037088-3ROU1_GBR
 10
101.631216
 20
0.412116
 30
0.00
  0
VERTEX
  8
037088-3ROU1_GBR
 10
101.341072
 20
0.292938
 30
0.00
  0
VERTEX
  8
037088-3ROU1_GBR
 10
101.04252
 20
0.194082
 30
0.00
  0
VERTEX
  8
037088-3ROU1_GBR
 10
100.738482
 20
0.116408
 30
0.00
  0
VERTEX
  8
037088-3ROU1_GBR
 10
100.429974
 20
0.060148
 30
0.00
  0
VERTEX
  8
037088-3ROU1_GBR
 10
99.89439
 20
0.00
 30
0.00
  0
VERTEX
  8
037088-3ROU1_GBR
 10
87.839346
 20
0.000254
 30
0.00
  0
VERTEX
  8
037088-3ROU1_GBR
 10
87.476838
 20
0.034672
 30
0.00
  0
VERTEX
  8
037088-3ROU1_GBR
 10
87.164774
 20
0.076784
 30
0.00
  0
VERTEX
  8
037088-3ROU1_GBR
 10
86.857104
 20
0.140386
 30
0.00
  0
VERTEX
  8
037088-3ROU1_GBR
 10
86.554792
 20
0.225272
 30
0.00
  0
VERTEX
  8
037088-3ROU1_GBR
 10
86.258882
 20
0.33114
 30
0.00
  0
VERTEX
  8
037088-3ROU1_GBR
 10
85.971482
 20
0.457174
 30
0.00
  0
VERTEX
  8
037088-3ROU1_GBR
 10
85.693046
 20
0.60325
 30
0.00
  0
VERTEX
  8
037088-3ROU1_GBR
 10
85.426068
 20
0.768046
 30
0.00
  0
VERTEX
  8
037088-3ROU1_GBR
 10
85.170518
 20
0.951612
 30
0.00
  0
VERTEX
  8
037088-3ROU1_GBR
 10
84.929168
 20
1.151864
 30
0.00
  0
VERTEX
  8
037088-3ROU1_GBR
 10
84.702498
 20
1.368248
 30
0.00
  0
VERTEX
  8
037088-3ROU1_GBR
 10
84.490586
 20
1.600988
 30
0.00
  0
VERTEX
  8
037088-3ROU1_GBR
 10
84.295666
 20
1.847672
 30
0.00
  0
VERTEX
  8
037088-3ROU1_GBR
 10
84.118856
 20
2.10665
 30
0.00
  0
VERTEX
  8
037088-3ROU1_GBR
 10
83.960132
 20
2.378126
 30
0.00
  0
VERTEX
  8
037088-3ROU1_GBR
 10
83.820304
 20
2.661108
 30
0.00
  0
VERTEX
  8
037088-3ROU1_GBR
 10
83.701636
 20
2.950236
 30
0.00
  0
VERTEX
  8
037088-3ROU1_GBR
 10
83.602982
 20
3.248254
 30
0.00
  0
VERTEX
  8
037088-3ROU1_GBR
 10
83.525258
 20
3.552698
 30
0.00
  0
VERTEX
  8
037088-3ROU1_GBR
 10
83.431888
 20
4.064458
 30
0.00
  0
VERTEX
  8
037088-3ROU1_GBR
 10
83.421754
 20
4.064584
 30
0.00
  0
VERTEX
  8
037088-3ROU1_GBR
 10
83.294804
 20
3.449092
 30
0.00
  0
VERTEX
  8
037088-3ROU1_GBR
 10
83.209816
 20
3.146298
 30
0.00
  0
VERTEX
  8
037088-3ROU1_GBR
 10
83.104126
 20
2.850718
 30
0.00
  0
VERTEX
  8
037088-3ROU1_GBR
 10
82.977888
 20
2.562784
 30
0.00
  0
VERTEX
  8
037088-3ROU1_GBR
 10
82.832244
 20
2.285034
 30
0.00
  0
VERTEX
  8
037088-3ROU1_GBR
 10
82.667222
 20
2.017598
 30
0.00
  0
VERTEX
  8
037088-3ROU1_GBR
 10
82.48424
 20
1.762634
 30
0.00
  0
VERTEX
  8
037088-3ROU1_GBR
 10
82.283452
 20
1.520572
 30
0.00
  0
VERTEX
  8
037088-3ROU1_GBR
 10
82.066638
 20
1.29347
 30
0.00
  0
VERTEX
  8
037088-3ROU1_GBR
 10
81.835194
 20
1.082598
 30
0.00
  0
VERTEX
  8
037088-3ROU1_GBR
 10
81.588254
 20
0.887374
 30
0.00
  0
VERTEX
  8
037088-3ROU1_GBR
 10
81.328464
 20
0.710006
 30
0.00
  0
VERTEX
  8
037088-3ROU1_GBR
 10
81.05775
 20
0.551612
 30
0.00
  0
VERTEX
  8
037088-3ROU1_GBR
 10
80.775784
 20
0.412116
 30
0.00
  0
VERTEX
  8
037088-3ROU1_GBR
 10
80.48564
 20
0.292938
 30
0.00
  0
VERTEX
  8
037088-3ROU1_GBR
 10
80.187088
 20
0.194082
 30
0.00
  0
VERTEX
  8
037088-3ROU1_GBR
 10
79.88305
 20
0.116408
 30
0.00
  0
VERTEX
  8
037088-3ROU1_GBR
 10
79.574542
 20
0.060148
 30
0.00
  0
VERTEX
  8
037088-3ROU1_GBR
 10
79.038958
 20
0.00
 30
0.00
  0
VERTEX
  8
037088-3ROU1_GBR
 10
66.983914
 20
0.000254
 30
0.00
  0
VERTEX
  8
037088-3ROU1_GBR
 10
66.621406
 20
0.034672
 30
0.00
  0
VERTEX
  8
037088-3ROU1_GBR
 10
66.309342
 20
0.076784
 30
0.00
  0
VERTEX
  8
037088-3ROU1_GBR
 10
66.001672
 20
0.140386
 30
0.00
  0
VERTEX
  8
037088-3ROU1_GBR
 10
65.69936
 20
0.225272
 30
0.00
  0
VERTEX
  8
037088-3ROU1_GBR
 10
65.40345
 20
0.33114
 30
0.00
  0
VERTEX
  8
037088-3ROU1_GBR
 10
65.11605
 20
0.457174
 30
0.00
  0
VERTEX
  8
037088-3ROU1_GBR
 10
64.837614
 20
0.60325
 30
0.00
  0
VERTEX
  8
037088-3ROU1_GBR
 10
64.57061
 20
0.768046
 30
0.00
  0
VERTEX
  8
037088-3ROU1_GBR
 10
64.315086
 20
0.951612
 30
0.00
  0
VERTEX
  8
037088-3ROU1_GBR
 10
64.073736
 20
1.151864
 30
0.00
  0
VERTEX
  8
037088-3ROU1_GBR
 10
63.847066
 20
1.368248
 30
0.00
  0
VERTEX
  8
037088-3ROU1_GBR
 10
63.636348
 20
1.599464
 30
0.00
  0
VERTEX
  8
037088-3ROU1_GBR
 10
63.440488
 20
1.847292
 30
0.00
  0
VERTEX
  8
037088-3ROU1_GBR
 10
63.263272
 20
2.10693
 30
0.00
  0
VERTEX
  8
037088-3ROU1_GBR
 10
63.1047
 20
2.378126
 30
0.00
  0
VERTEX
  8
037088-3ROU1_GBR
 10
62.964872
 20
2.661108
 30
0.00
  0
VERTEX
  8
037088-3ROU1_GBR
 10
62.846204
 20
2.950236
 30
0.00
  0
VERTEX
  8
037088-3ROU1_GBR
 10
62.74755
 20
3.248254
 30
0.00
  0
VERTEX
  8
037088-3ROU1_GBR
 10
62.669826
 20
3.552698
 30
0.00
  0
VERTEX
  8
037088-3ROU1_GBR
 10
62.576456
 20
4.064458
 30
0.00
  0
VERTEX
  8
037088-3ROU1_GBR
 10
62.566322
 20
4.064584
 30
0.00
  0
VERTEX
  8
037088-3ROU1_GBR
 10
62.439372
 20
3.449092
 30
0.00
  0
VERTEX
  8
037088-3ROU1_GBR
 10
62.354384
 20
3.146298
 30
0.00
  0
VERTEX
  8
037088-3ROU1_GBR
 10
62.248694
 20
2.850718
 30
0.00
  0
VERTEX
  8
037088-3ROU1_GBR
 10
62.122456
 20
2.562784
 30
0.00
  0
VERTEX
  8
037088-3ROU1_GBR
 10
61.976812
 20
2.285034
 30
0.00
  0
VERTEX
  8
037088-3ROU1_GBR
 10
61.81179
 20
2.017598
 30
0.00
  0
VERTEX
  8
037088-3ROU1_GBR
 10
61.628808
 20
1.762634
 30
0.00
  0
VERTEX
  8
037088-3ROU1_GBR
 10
61.42802
 20
1.520572
 30
0.00
  0
VERTEX
  8
037088-3ROU1_GBR
 10
61.211206
 20
1.29347
 30
0.00
  0
VERTEX
  8
037088-3ROU1_GBR
 10
60.979762
 20
1.082598
 30
0.00
  0
VERTEX
  8
037088-3ROU1_GBR
 10
60.732822
 20
0.887374
 30
0.00
  0
VERTEX
  8
037088-3ROU1_GBR
 10
60.473286
 20
0.710158
 30
0.00
  0
VERTEX
  8
037088-3ROU1_GBR
 10
60.202192
 20
0.551562
 30
0.00
  0
VERTEX
  8
037088-3ROU1_GBR
 10
59.920328
 20
0.41209
 30
0.00
  0
VERTEX
  8
037088-3ROU1_GBR
 10
59.630208
 20
0.292938
 30
0.00
  0
VERTEX
  8
037088-3ROU1_GBR
 10
59.331656
 20
0.194082
 30
0.00
  0
VERTEX
  8
037088-3ROU1_GBR
 10
59.027618
 20
0.116408
 30
0.00
  0
VERTEX
  8
037088-3ROU1_GBR
 10
58.71911
 20
0.060148
 30
0.00
  0
VERTEX
  8
037088-3ROU1_GBR
 10
58.183526
 20
0.00
 30
0.00
  0
VERTEX
  8
037088-3ROU1_GBR
 10
46.128482
 20
0.000254
 30
0.00
  0
VERTEX
  8
037088-3ROU1_GBR
 10
45.765974
 20
0.034672
 30
0.00
  0
VERTEX
  8
037088-3ROU1_GBR
 10
45.45391
 20
0.076784
 30
0.00
  0
VERTEX
  8
037088-3ROU1_GBR
 10
45.14624
 20
0.140386
 30
0.00
  0
VERTEX
  8
037088-3ROU1_GBR
 10
44.843928
 20
0.225272
 30
0.00
  0
VERTEX
  8
037088-3ROU1_GBR
 10
44.548426
 20
0.330962
 30
0.00
  0
VERTEX
  8
037088-3ROU1_GBR
 10
44.261126
 20
0.456896
 30
0.00
  0
VERTEX
  8
037088-3ROU1_GBR
 10
43.982208
 20
0.60325
 30
0.00
  0
VERTEX
  8
037088-3ROU1_GBR
 10
43.715178
 20
0.768046
 30
0.00
  0
VERTEX
  8
037088-3ROU1_GBR
 10
43.459654
 20
0.951612
 30
0.00
  0
VERTEX
  8
037088-3ROU1_GBR
 10
43.218304
 20
1.151864
 30
0.00
  0
VERTEX
  8
037088-3ROU1_GBR
 10
42.991634
 20
1.368248
 30
0.00
  0
VERTEX
  8
037088-3ROU1_GBR
 10
42.780916
 20
1.599464
 30
0.00
  0
VERTEX
  8
037088-3ROU1_GBR
 10
42.585056
 20
1.847292
 30
0.00
  0
VERTEX
  8
037088-3ROU1_GBR
 10
42.40784
 20
2.106956
 30
0.00
  0
VERTEX
  8
037088-3ROU1_GBR
 10
42.249496
 20
2.377668
 30
0.00
  0
VERTEX
  8
037088-3ROU1_GBR
 10
42.10944
 20
2.661108
 30
0.00
  0
VERTEX
  8
037088-3ROU1_GBR
 10
41.990772
 20
2.950236
 30
0.00
  0
VERTEX
  8
037088-3ROU1_GBR
 10
41.892118
 20
3.248254
 30
0.00
  0
VERTEX
  8
037088-3ROU1_GBR
 10
41.814394
 20
3.552698
 30
0.00
  0
VERTEX
  8
037088-3ROU1_GBR
 10
41.721024
 20
4.064458
 30
0.00
  0
VERTEX
  8
037088-3ROU1_GBR
 10
41.71089
 20
4.064584
 30
0.00
  0
VERTEX
  8
037088-3ROU1_GBR
 10
41.58394
 20
3.449092
 30
0.00
  0
VERTEX
  8
037088-3ROU1_GBR
 10
41.498952
 20
3.146298
 30
0.00
  0
VERTEX
  8
037088-3ROU1_GBR
 10
41.393262
 20
2.850718
 30
0.00
  0
VERTEX
  8
037088-3ROU1_GBR
 10
41.267024
 20
2.562784
 30
0.00
  0
VERTEX
  8
037088-3ROU1_GBR
 10
41.12138
 20
2.285034
 30
0.00
  0
VERTEX
  8
037088-3ROU1_GBR
 10
40.956358
 20
2.017598
 30
0.00
  0
VERTEX
  8
037088-3ROU1_GBR
 10
40.773146
 20
1.76238
 30
0.00
  0
VERTEX
  8
037088-3ROU1_GBR
 10
40.572588
 20
1.520572
 30
0.00
  0
VERTEX
  8
037088-3ROU1_GBR
 10
40.35585
 20
1.293546
 30
0.00
  0
VERTEX
  8
037088-3ROU1_GBR
 10
40.12433
 20
1.082598
 30
0.00
  0
VERTEX
  8
037088-3ROU1_GBR
 10
39.87739
 20
0.887374
 30
0.00
  0
VERTEX
  8
037088-3ROU1_GBR
 10
39.617854
 20
0.710158
 30
0.00
  0
VERTEX
  8
037088-3ROU1_GBR
 10
39.34681
 20
0.551562
 30
0.00
  0
VERTEX
  8
037088-3ROU1_GBR
 10
39.065022
 20
0.41214
 30
0.00
  0
VERTEX
  8
037088-3ROU1_GBR
 10
38.774776
 20
0.292938
 30
0.00
  0
VERTEX
  8
037088-3ROU1_GBR
 10
38.476224
 20
0.194082
 30
0.00
  0
VERTEX
  8
037088-3ROU1_GBR
 10
38.172186
 20
0.116408
 30
0.00
  0
VERTEX
  8
037088-3ROU1_GBR
 10
37.863678
 20
0.060148
 30
0.00
  0
VERTEX
  8
037088-3ROU1_GBR
 10
37.328094
 20
0.00
 30
0.00
  0
VERTEX
  8
037088-3ROU1_GBR
 10
25.27305
 20
0.000254
 30
0.00
  0
VERTEX
  8
037088-3ROU1_GBR
 10
24.910542
 20
0.034672
 30
0.00
  0
VERTEX
  8
037088-3ROU1_GBR
 10
24.598478
 20
0.076784
 30
0.00
  0
VERTEX
  8
037088-3ROU1_GBR
 10
24.290808
 20
0.140386
 30
0.00
  0
VERTEX
  8
037088-3ROU1_GBR
 10
23.988496
 20
0.225272
 30
0.00
  0
VERTEX
  8
037088-3ROU1_GBR
 10
23.692968
 20
0.330962
 30
0.00
  0
VERTEX
  8
037088-3ROU1_GBR
 10
23.405694
 20
0.456896
 30
0.00
  0
VERTEX
  8
037088-3ROU1_GBR
 10
23.126776
 20
0.60325
 30
0.00
  0
VERTEX
  8
037088-3ROU1_GBR
 10
22.85972
 20
0.76807
 30
0.00
  0
VERTEX
  8
037088-3ROU1_GBR
 10
22.604526
 20
0.951358
 30
0.00
  0
VERTEX
  8
037088-3ROU1_GBR
 10
22.362796
 20
1.151916
 30
0.00
  0
VERTEX
  8
037088-3ROU1_GBR
 10
22.136202
 20
1.368248
 30
0.00
  0
VERTEX
  8
037088-3ROU1_GBR
 10
21.925484
 20
1.599464
 30
0.00
  0
VERTEX
  8
037088-3ROU1_GBR
 10
21.729624
 20
1.847292
 30
0.00
  0
VERTEX
  8
037088-3ROU1_GBR
 10
21.552408
 20
2.106956
 30
0.00
  0
VERTEX
  8
037088-3ROU1_GBR
 10
21.394064
 20
2.377668
 30
0.00
  0
VERTEX
  8
037088-3ROU1_GBR
 10
21.254008
 20
2.661108
 30
0.00
  0
VERTEX
  8
037088-3ROU1_GBR
 10
21.13529
 20
2.950338
 30
0.00
  0
VERTEX
  8
037088-3ROU1_GBR
 10
21.036712
 20
3.248102
 30
0.00
  0
VERTEX
  8
037088-3ROU1_GBR
 10
20.958962
 20
3.552748
 30
0.00
  0
VERTEX
  8
037088-3ROU1_GBR
 10
20.865592
 20
4.064458
 30
0.00
  0
VERTEX
  8
037088-3ROU1_GBR
 10
20.855458
 20
4.064584
 30
0.00
  0
VERTEX
  8
037088-3ROU1_GBR
 10
20.728356
 20
3.448608
 30
0.00
  0
VERTEX
  8
037088-3ROU1_GBR
 10
20.64357
 20
3.146426
 30
0.00
  0
VERTEX
  8
037088-3ROU1_GBR
 10
20.538186
 20
2.85148
 30
0.00
  0
VERTEX
  8
037088-3ROU1_GBR
 10
20.411898
 20
2.563342
 30
0.00
  0
VERTEX
  8
037088-3ROU1_GBR
 10
20.266076
 20
2.285212
 30
0.00
  0
VERTEX
  8
037088-3ROU1_GBR
 10
20.101052
 20
2.017776
 30
0.00
  0
VERTEX
  8
037088-3ROU1_GBR
 10
19.917714
 20
1.76238
 30
0.00
  0
VERTEX
  8
037088-3ROU1_GBR
 10
19.717156
 20
1.520572
 30
0.00
  0
VERTEX
  8
037088-3ROU1_GBR
 10
19.500418
 20
1.293546
 30
0.00
  0
VERTEX
  8
037088-3ROU1_GBR
 10
19.268898
 20
1.082598
 30
0.00
  0
VERTEX
  8
037088-3ROU1_GBR
 10
19.021958
 20
0.887374
 30
0.00
  0
VERTEX
  8
037088-3ROU1_GBR
 10
18.762396
 20
0.710134
 30
0.00
  0
VERTEX
  8
037088-3ROU1_GBR
 10
18.491454
 20
0.551612
 30
0.00
  0
VERTEX
  8
037088-3ROU1_GBR
 10
18.209488
 20
0.412116
 30
0.00
  0
VERTEX
  8
037088-3ROU1_GBR
 10
17.919344
 20
0.292938
 30
0.00
  0
VERTEX
  8
037088-3ROU1_GBR
 10
17.620792
 20
0.194082
 30
0.00
  0
VERTEX
  8
037088-3ROU1_GBR
 10
17.316754
 20
0.116408
 30
0.00
  0
VERTEX
  8
037088-3ROU1_GBR
 10
17.008246
 20
0.060148
 30
0.00
  0
VERTEX
  8
037088-3ROU1_GBR
 10
16.472662
 20
0.00
 30
0.00
  0
VERTEX
  8
037088-3ROU1_GBR
 10
4.417618
 20
0.000254
 30
0.00
  0
VERTEX
  8
037088-3ROU1_GBR
 10
4.05511
 20
0.034672
 30
0.00
  0
VERTEX
  8
037088-3ROU1_GBR
 10
3.74302
 20
0.076784
 30
0.00
  0
VERTEX
  8
037088-3ROU1_GBR
 10
3.4354
 20
0.140386
 30
0.00
  0
VERTEX
  8
037088-3ROU1_GBR
 10
3.133064
 20
0.225272
 30
0.00
  0
VERTEX
  8
037088-3ROU1_GBR
 10
2.837536
 20
0.330962
 30
0.00
  0
VERTEX
  8
037088-3ROU1_GBR
 10
2.549246
 20
0.457428
 30
0.00
  0
VERTEX
  8
037088-3ROU1_GBR
 10
2.271318
 20
0.60325
 30
0.00
  0
VERTEX
  8
037088-3ROU1_GBR
 10
2.00434
 20
0.768046
 30
0.00
  0
VERTEX
  8
037088-3ROU1_GBR
 10
1.74879
 20
0.951612
 30
0.00
  0
VERTEX
  8
037088-3ROU1_GBR
 10
1.50744
 20
1.151864
 30
0.00
  0
VERTEX
  8
037088-3ROU1_GBR
 10
1.28077
 20
1.368248
 30
0.00
  0
VERTEX
  8
037088-3ROU1_GBR
 10
1.070052
 20
1.599464
 30
0.00
  0
VERTEX
  8
037088-3ROU1_GBR
 10
0.874192
 20
1.847292
 30
0.00
  0
VERTEX
  8
037088-3ROU1_GBR
 10
0.696976
 20
2.106956
 30
0.00
  0
VERTEX
  8
037088-3ROU1_GBR
 10
0.53843
 20
2.378076
 30
0.00
  0
VERTEX
  8
037088-3ROU1_GBR
 10
0.399238
 20
2.659508
 30
0.00
  0
VERTEX
  8
037088-3ROU1_GBR
 10
0.279858
 20
2.950312
 30
0.00
  0
VERTEX
  8
037088-3ROU1_GBR
 10
0.181306
 20
3.248024
 30
0.00
  0
VERTEX
  8
037088-3ROU1_GBR
 10
0.103556
 20
3.55252
 30
0.00
  0
VERTEX
  8
037088-3ROU1_GBR
 10
0.047524
 20
3.859632
 30
0.00
  0
VERTEX
  8
037088-3ROU1_GBR
 10
0.014174
 20
4.159656
 30
0.00
  0
VERTEX
  8
037088-3ROU1_GBR
 10
0.02192
 20
4.217772
 30
0.00
  0
VERTEX
  8
037088-3ROU1_GBR
 10
0.000762
 20
4.283024
 30
0.00
  0
VERTEX
  8
037088-3ROU1_GBR
 10
0.000762
 20
4.48564
 30
0.00
  0
VERTEX
  8
037088-3ROU1_GBR
 10
-4.99999
 20
4.48564
 30
0.00
  0
VERTEX
  8
037088-3ROU1_GBR
 10
-4.99999
 20
144.519396
 30
0.00
  0
VERTEX
  8
037088-3ROU1_GBR
 10
0.000762
 20
144.519396
 30
0.00
  0
VERTEX
  8
037088-3ROU1_GBR
 10
0.000762
 20
144.740758
 30
0.00
  0
VERTEX
  8
037088-3ROU1_GBR
 10
0.021006
 20
145.023612
 30
0.00
  0
VERTEX
  8
037088-3ROU1_GBR
 10
0.06289
 20
145.33461
 30
0.00
  0
VERTEX
  8
037088-3ROU1_GBR
 10
0.126416
 20
145.642304
 30
0.00
  0
VERTEX
  8
037088-3ROU1_GBR
 10
0.211404
 20
145.945098
 30
0.00
  0
VERTEX
  8
037088-3ROU1_GBR
 10
0.317068
 20
146.240652
 30
0.00
  0
VERTEX
  8
037088-3ROU1_GBR
 10
0.443128
 20
146.528256
 30
0.00
  0
VERTEX
  8
037088-3ROU1_GBR
 10
0.588746
 20
146.806032
 30
0.00
  0
VERTEX
  8
037088-3ROU1_GBR
 10
0.754
 20
147.073798
 30
0.00
  0
VERTEX
  8
037088-3ROU1_GBR
 10
0.937006
 20
147.328788
 30
0.00
  0
VERTEX
  8
037088-3ROU1_GBR
 10
1.137768
 20
147.570826
 30
0.00
  0
VERTEX
  8
037088-3ROU1_GBR
 10
1.354582
 20
147.797926
 30
0.00
  0
VERTEX
  8
037088-3ROU1_GBR
 10
1.58651
 20
148.009178
 30
0.00
  0
VERTEX
  8
037088-3ROU1_GBR
 10
1.83294
 20
148.203996
 30
0.00
  0
VERTEX
  8
037088-3ROU1_GBR
 10
2.092782
 20
148.381416
 30
0.00
  0
VERTEX
  8
037088-3ROU1_GBR
 10
2.364562
 20
148.540344
 30
0.00
  0
VERTEX
  8
037088-3ROU1_GBR
 10
2.64513
 20
148.67918
 30
0.00
  0
VERTEX
  8
037088-3ROU1_GBR
 10
2.93558
 20
148.798458
 30
0.00
  0
VERTEX
  8
037088-3ROU1_GBR
 10
3.233776
 20
148.897238
 30
0.00
  0
VERTEX
  8
037088-3ROU1_GBR
 10
3.536188
 20
148.974632
 30
0.00
  0
VERTEX
  8
037088-3ROU1_GBR
 10
3.846626
 20
149.031224
 30
0.00
  0
VERTEX
  8
037088-3ROU1_GBR
 10
4.382262
 20
149.091396
 30
0.00
  0
VERTEX
  8
037088-3ROU1_GBR
 10
16.437306
 20
149.091142
 30
0.00
  0
VERTEX
  8
037088-3ROU1_GBR
 10
16.799814
 20
149.056726
 30
0.00
  0
VERTEX
  8
037088-3ROU1_GBR
 10
17.111878
 20
149.014612
 30
0.00
  0
VERTEX
  8
037088-3ROU1_GBR
 10
17.419294
 20
148.951086
 30
0.00
  0
VERTEX
  8
037088-3ROU1_GBR
 10
17.721656
 20
148.8662
 30
0.00
  0
VERTEX
  8
037088-3ROU1_GBR
 10
18.017794
 20
148.76023
 30
0.00
  0
VERTEX
  8
037088-3ROU1_GBR
 10
18.305246
 20
148.634196
 30
0.00
  0
VERTEX
  8
037088-3ROU1_GBR
 10
18.583148
 20
148.488426
 30
0.00
  0
VERTEX
  8
037088-3ROU1_GBR
 10
18.85066
 20
148.3233
 30
0.00
  0
VERTEX
  8
037088-3ROU1_GBR
 10
19.106134
 20
148.139786
 30
0.00
  0
VERTEX
  8
037088-3ROU1_GBR
 10
19.347484
 20
147.939532
 30
0.00
  0
VERTEX
  8
037088-3ROU1_GBR
 10
19.574154
 20
147.723148
 30
0.00
  0
VERTEX
  8
037088-3ROU1_GBR
 10
19.784872
 20
147.491932
 30
0.00
  0
VERTEX
  8
037088-3ROU1_GBR
 10
19.98096
 20
147.24375
 30
0.00
  0
VERTEX
  8
037088-3ROU1_GBR
 10
20.157744
 20
146.984822
 30
0.00
  0
VERTEX
  8
037088-3ROU1_GBR
 10
20.316546
 20
146.71322
 30
0.00
  0
VERTEX
  8
037088-3ROU1_GBR
 10
20.456348
 20
146.430288
 30
0.00
  0
VERTEX
  8
037088-3ROU1_GBR
 10
20.575016
 20
146.14116
 30
0.00
  0
VERTEX
  8
037088-3ROU1_GBR
 10
20.67367
 20
145.843142
 30
0.00
  0
VERTEX
  8
037088-3ROU1_GBR
 10
20.751394
 20
145.538698
 30
0.00
  0
VERTEX
  8
037088-3ROU1_GBR
 10
20.844764
 20
145.026938
 30
0.00
  0
VERTEX
  8
037088-3ROU1_GBR
 10
20.854898
 20
145.026812
 30
0.00
  0
VERTEX
  8
037088-3ROU1_GBR
 10
20.981848
 20
145.642304
 30
0.00
  0
VERTEX
  8
037088-3ROU1_GBR
 10
21.066836
 20
145.945098
 30
0.00
  0
VERTEX
  8
037088-3ROU1_GBR
 10
21.1725
 20
146.240652
 30
0.00
  0
VERTEX
  8
037088-3ROU1_GBR
 10
21.29856
 20
146.528256
 30
0.00
  0
VERTEX
  8
037088-3ROU1_GBR
 10
21.444178
 20
146.806032
 30
0.00
  0
VERTEX
  8
037088-3ROU1_GBR
 10
21.609432
 20
147.073798
 30
0.00
  0
VERTEX
  8
037088-3ROU1_GBR
 10
21.792438
 20
147.328788
 30
0.00
  0
VERTEX
  8
037088-3ROU1_GBR
 10
21.9932
 20
147.570826
 30
0.00
  0
VERTEX
  8
037088-3ROU1_GBR
 10
22.210014
 20
147.797926
 30
0.00
  0
VERTEX
  8
037088-3ROU1_GBR
 10
22.441942
 20
148.009178
 30
0.00
  0
VERTEX
  8
037088-3ROU1_GBR
 10
22.688144
 20
148.20387
 30
0.00
  0
VERTEX
  8
037088-3ROU1_GBR
 10
22.948188
 20
148.38139
 30
0.00
  0
VERTEX
  8
037088-3ROU1_GBR
 10
23.219994
 20
148.540344
 30
0.00
  0
VERTEX
  8
037088-3ROU1_GBR
 10
23.500562
 20
148.67918
 30
0.00
  0
VERTEX
  8
037088-3ROU1_GBR
 10
23.791012
 20
148.798458
 30
0.00
  0
VERTEX
  8
037088-3ROU1_GBR
 10
24.089208
 20
148.897238
 30
0.00
  0
VERTEX
  8
037088-3ROU1_GBR
 10
24.39162
 20
148.974632
 30
0.00
  0
VERTEX
  8
037088-3ROU1_GBR
 10
24.702058
 20
149.031224
 30
0.00
  0
VERTEX
  8
037088-3ROU1_GBR
 10
25.237694
 20
149.091396
 30
0.00
  0
VERTEX
  8
037088-3ROU1_GBR
 10
37.292738
 20
149.091142
 30
0.00
  0
VERTEX
  8
037088-3ROU1_GBR
 10
37.655246
 20
149.056726
 30
0.00
  0
VERTEX
  8
037088-3ROU1_GBR
 10
37.96731
 20
149.014612
 30
0.00
  0
VERTEX
  8
037088-3ROU1_GBR
 10
38.274726
 20
148.951086
 30
0.00
  0
VERTEX
  8
037088-3ROU1_GBR
 10
38.577088
 20
148.8662
 30
0.00
  0
VERTEX
  8
037088-3ROU1_GBR
 10
38.872998
 20
148.760332
 30
0.00
  0
VERTEX
  8
037088-3ROU1_GBR
 10
39.16078
 20
148.634146
 30
0.00
  0
VERTEX
  8
037088-3ROU1_GBR
 10
39.43858
 20
148.488426
 30
0.00
  0
VERTEX
  8
037088-3ROU1_GBR
 10
39.706092
 20
148.3233
 30
0.00
  0
VERTEX
  8
037088-3ROU1_GBR
 10
39.961566
 20
148.139786
 30
0.00
  0
VERTEX
  8
037088-3ROU1_GBR
 10
40.202916
 20
147.939532
 30
0.00
  0
VERTEX
  8
037088-3ROU1_GBR
 10
40.429586
 20
147.723148
 30
0.00
  0
VERTEX
  8
037088-3ROU1_GBR
 10
40.640304
 20
147.491932
 30
0.00
  0
VERTEX
  8
037088-3ROU1_GBR
 10
40.836392
 20
147.24375
 30
0.00
  0
VERTEX
  8
037088-3ROU1_GBR
 10
41.013228
 20
146.984746
 30
0.00
  0
VERTEX
  8
037088-3ROU1_GBR
 10
41.171952
 20
146.71327
 30
0.00
  0
VERTEX
  8
037088-3ROU1_GBR
 10
41.31178
 20
146.430288
 30
0.00
  0
VERTEX
  8
037088-3ROU1_GBR
 10
41.430448
 20
146.14116
 30
0.00
  0
VERTEX
  8
037088-3ROU1_GBR
 10
41.529102
 20
145.843142
 30
0.00
  0
VERTEX
  8
037088-3ROU1_GBR
 10
41.606826
 20
145.538698
 30
0.00
  0
VERTEX
  8
037088-3ROU1_GBR
 10
41.700196
 20
145.026938
 30
0.00
  0
VERTEX
  8
037088-3ROU1_GBR
 10
41.71033
 20
145.026812
 30
0.00
  0
VERTEX
  8
037088-3ROU1_GBR
 10
41.837306
 20
145.642304
 30
0.00
  0
VERTEX
  8
037088-3ROU1_GBR
 10
41.922268
 20
145.945098
 30
0.00
  0
VERTEX
  8
037088-3ROU1_GBR
 10
42.027932
 20
146.240652
 30
0.00
  0
VERTEX
  8
037088-3ROU1_GBR
 10
42.153992
 20
146.528256
 30
0.00
  0
VERTEX
  8
037088-3ROU1_GBR
 10
42.29961
 20
146.806032
 30
0.00
  0
VERTEX
  8
037088-3ROU1_GBR
 10
42.464864
 20
147.073798
 30
0.00
  0
VERTEX
  8
037088-3ROU1_GBR
 10
42.647844
 20
147.328764
 30
0.00
  0
VERTEX
  8
037088-3ROU1_GBR
 10
42.848758
 20
147.570952
 30
0.00
  0
VERTEX
  8
037088-3ROU1_GBR
 10
43.065446
 20
147.797926
 30
0.00
  0
VERTEX
  8
037088-3ROU1_GBR
 10
43.297374
 20
148.009178
 30
0.00
  0
VERTEX
  8
037088-3ROU1_GBR
 10
43.543576
 20
148.20387
 30
0.00
  0
VERTEX
  8
037088-3ROU1_GBR
 10
43.80362
 20
148.38139
 30
0.00
  0
VERTEX
  8
037088-3ROU1_GBR
 10
44.075426
 20
148.540344
 30
0.00
  0
VERTEX
  8
037088-3ROU1_GBR
 10
44.355994
 20
148.67918
 30
0.00
  0
VERTEX
  8
037088-3ROU1_GBR
 10
44.646444
 20
148.798458
 30
0.00
  0
VERTEX
  8
037088-3ROU1_GBR
 10
44.94464
 20
148.897238
 30
0.00
  0
VERTEX
  8
037088-3ROU1_GBR
 10
45.247052
 20
148.974632
 30
0.00
  0
VERTEX
  8
037088-3ROU1_GBR
 10
45.55749
 20
149.031224
 30
0.00
  0
VERTEX
  8
037088-3ROU1_GBR
 10
46.093126
 20
149.091396
 30
0.00
  0
VERTEX
  8
037088-3ROU1_GBR
 10
58.14817
 20
149.091142
 30
0.00
  0
VERTEX
  8
037088-3ROU1_GBR
 10
58.510678
 20
149.056726
 30
0.00
  0
VERTEX
  8
037088-3ROU1_GBR
 10
58.822742
 20
149.014612
 30
0.00
  0
VERTEX
  8
037088-3ROU1_GBR
 10
59.130158
 20
148.951086
 30
0.00
  0
VERTEX
  8
037088-3ROU1_GBR
 10
59.43252
 20
148.8662
 30
0.00
  0
VERTEX
  8
037088-3ROU1_GBR
 10
59.72843
 20
148.760332
 30
0.00
  0
VERTEX
  8
037088-3ROU1_GBR
 10
60.016212
 20
148.634146
 30
0.00
  0
VERTEX
  8
037088-3ROU1_GBR
 10
60.294012
 20
148.488426
 30
0.00
  0
VERTEX
  8
037088-3ROU1_GBR
 10
60.561348
 20
148.323428
 30
0.00
  0
VERTEX
  8
037088-3ROU1_GBR
 10
60.816694
 20
148.14004
 30
0.00
  0
VERTEX
  8
037088-3ROU1_GBR
 10
61.058426
 20
147.93948
 30
0.00
  0
VERTEX
  8
037088-3ROU1_GBR
 10
61.285018
 20
147.723148
 30
0.00
  0
VERTEX
  8
037088-3ROU1_GBR
 10
61.495736
 20
147.491932
 30
0.00
  0
VERTEX
  8
037088-3ROU1_GBR
 10
61.691824
 20
147.24375
 30
0.00
  0
VERTEX
  8
037088-3ROU1_GBR
 10
61.86866
 20
146.984746
 30
0.00
  0
VERTEX
  8
037088-3ROU1_GBR
 10
62.027384
 20
146.71327
 30
0.00
  0
VERTEX
  8
037088-3ROU1_GBR
 10
62.167212
 20
146.430288
 30
0.00
  0
VERTEX
  8
037088-3ROU1_GBR
 10
62.28593
 20
146.14106
 30
0.00
  0
VERTEX
  8
037088-3ROU1_GBR
 10
62.384508
 20
145.843294
 30
0.00
  0
VERTEX
  8
037088-3ROU1_GBR
 10
62.462284
 20
145.538494
 30
0.00
  0
VERTEX
  8
037088-3ROU1_GBR
 10
62.555654
 20
145.026938
 30
0.00
  0
VERTEX
  8
037088-3ROU1_GBR
 10
62.565762
 20
145.026838
 30
0.00
  0
VERTEX
  8
037088-3ROU1_GBR
 10
62.692788
 20
145.642534
 30
0.00
  0
VERTEX
  8
037088-3ROU1_GBR
 10
62.7777
 20
145.945148
 30
0.00
  0
VERTEX
  8
037088-3ROU1_GBR
 10
62.88339
 20
146.240704
 30
0.00
  0
VERTEX
  8
037088-3ROU1_GBR
 10
63.009576
 20
146.528536
 30
0.00
  0
VERTEX
  8
037088-3ROU1_GBR
 10
63.155144
 20
146.806184
 30
0.00
  0
VERTEX
  8
037088-3ROU1_GBR
 10
63.320168
 20
147.07362
 30
0.00
  0
VERTEX
  8
037088-3ROU1_GBR
 10
63.503276
 20
147.328764
 30
0.00
  0
VERTEX
  8
037088-3ROU1_GBR
 10
63.70419
 20
147.570952
 30
0.00
  0
VERTEX
  8
037088-3ROU1_GBR
 10
63.920878
 20
147.797926
 30
0.00
  0
VERTEX
  8
037088-3ROU1_GBR
 10
64.152806
 20
148.009178
 30
0.00
  0
VERTEX
  8
037088-3ROU1_GBR
 10
64.399008
 20
148.20387
 30
0.00
  0
VERTEX
  8
037088-3ROU1_GBR
 10
64.659052
 20
148.38139
 30
0.00
  0
VERTEX
  8
037088-3ROU1_GBR
 10
64.930858
 20
148.540344
 30
0.00
  0
VERTEX
  8
037088-3ROU1_GBR
 10
65.211426
 20
148.67918
 30
0.00
  0
VERTEX
  8
037088-3ROU1_GBR
 10
65.501876
 20
148.798458
 30
0.00
  0
VERTEX
  8
037088-3ROU1_GBR
 10
65.800072
 20
148.897238
 30
0.00
  0
VERTEX
  8
037088-3ROU1_GBR
 10
66.102484
 20
148.974632
 30
0.00
  0
VERTEX
  8
037088-3ROU1_GBR
 10
66.412922
 20
149.031224
 30
0.00
  0
VERTEX
  8
037088-3ROU1_GBR
 10
66.948558
 20
149.091396
 30
0.00
  0
VERTEX
  8
037088-3ROU1_GBR
 10
79.003602
 20
149.091142
 30
0.00
  0
SEQEND
  0
ENDSEC
  0
EOF
