  0
SECTION
  2
HEADER
  9
$EXTMIN
 10
-258.359834
 20
-58.010602
 30
0.00
  9
$EXTMAX
 10
470.00
 20
419.20
 30
0.00
  0
ENDSEC
  0
SECTION
  2
TABLES
  0
TABLE
  2
LTYPE
 70
3
  0
LTYPE
  2
BYBLOCK
 70
0
  3

 72
65
 73
0
 40
0.00
  0
LTYPE
  2
BYLAYER
 70
0
  3

 72
65
 73
0
 40
0.00
  0
LTYPE
  2
CONTINUOUS
 70
0
  3
Solid line
 72
65
 73
0
 40
0.00
  0
ENDTAB
  0
TABLE
  2
LAYER
 70
99
  0
LAYER
  2
0
 70
0
 62
7
  6
CONTINUOUS
  0
LAYER
  2
020671-1ROU1_GBR
 70
0
 62
7
  6
CONTINUOUS
  0
LAYER
  2
027417-3ROU1_GBR
 70
0
 62
7
  6
CONTINUOUS
  0
LAYER
  2
027419-1ROU1_GBR
 70
0
 62
2
  6
CONTINUOUS
  0
LAYER
  2
027419-2ROU1_GBR
 70
0
 62
6
  6
CONTINUOUS
  0
LAYER
  2
027674-1ROU1_GBR
 70
0
 62
1
  6
CONTINUOUS
  0
LAYER
  2
027676-1ROU1_GBR
 70
0
 62
4
  6
CONTINUOUS
  0
LAYER
  2
027678-3ROU1_GBR
 70
0
 62
3
  6
CONTINUOUS
  0
LAYER
  2
028122-1ROU1_GBR
 70
0
 62
5
  6
CONTINUOUS
  0
LAYER
  2
028124-5ROU1_GBR
 70
0
 62
10
  6
CONTINUOUS
  0
LAYER
  2
028126-1ROU1_GBR
 70
0
 62
14
  6
CONTINUOUS
  0
LAYER
  2
028126-3ROU1_GBR
 70
0
 62
9
  6
CONTINUOUS
  0
LAYER
  2
028126-6ROU1_GBR
 70
0
 62
12
  6
CONTINUOUS
  0
LAYER
  2
028126-7ROU1_GBR
 70
0
 62
11
  6
CONTINUOUS
  0
LAYER
  2
028129-1ROU1_GBR
 70
0
 62
13
  6
CONTINUOUS
  0
LAYER
  2
028130-1ROU1_GBR
 70
0
 62
8
  6
CONTINUOUS
  0
LAYER
  2
028130-4ROU1_GBR
 70
0
 62
15
  6
CONTINUOUS
  0
LAYER
  2
028130-5ROU1_GBR
 70
0
 62
7
  6
CONTINUOUS
  0
LAYER
  2
028130-7ROU1_GBR
 70
0
 62
7
  6
CONTINUOUS
  0
LAYER
  2
028655-1ROU1_GBR
 70
0
 62
2
  6
CONTINUOUS
  0
LAYER
  2
028657-1ROU1_GBR
 70
0
 62
6
  6
CONTINUOUS
  0
LAYER
  2
028659-2ROU1_GBR
 70
0
 62
1
  6
CONTINUOUS
  0
LAYER
  2
028659-4ROU1_GBR
 70
0
 62
4
  6
CONTINUOUS
  0
LAYER
  2
028661-1ROU1_GBR
 70
0
 62
3
  6
CONTINUOUS
  0
LAYER
  2
028663-1ROU1_GBR
 70
0
 62
5
  6
CONTINUOUS
  0
LAYER
  2
028665-1ROU1_GBR
 70
0
 62
10
  6
CONTINUOUS
  0
LAYER
  2
028669-1ROU1_GBR
 70
0
 62
14
  6
CONTINUOUS
  0
LAYER
  2
028673-2ROU1_GBR
 70
0
 62
9
  6
CONTINUOUS
  0
LAYER
  2
037088-3ROU1_GBR
 70
0
 62
12
  6
CONTINUOUS
  0
LAYER
  2
037682-1ROU1_GBR
 70
0
 62
11
  6
CONTINUOUS
  0
LAYER
  2
037686-1ROU1_GBR
 70
0
 62
13
  6
CONTINUOUS
  0
LAYER
  2
037688-1ROU1_GBR
 70
0
 62
8
  6
CONTINUOUS
  0
LAYER
  2
038681-1ROU1_GBR
 70
0
 62
15
  6
CONTINUOUS
  0
LAYER
  2
038683-1ROU1_GBR
 70
0
 62
7
  6
CONTINUOUS
  0
LAYER
  2
038683-2ROU1_GBR
 70
0
 62
7
  6
CONTINUOUS
  0
LAYER
  2
038685-1ROU1_GBR
 70
0
 62
2
  6
CONTINUOUS
  0
LAYER
  2
038689-1ROU1_GBR
 70
0
 62
6
  6
CONTINUOUS
  0
LAYER
  2
038689-2ROU1_GBR
 70
0
 62
1
  6
CONTINUOUS
  0
LAYER
  2
038691-1ROU1_GBR
 70
0
 62
4
  6
CONTINUOUS
  0
LAYER
  2
038691-2ROU1_GBR
 70
0
 62
3
  6
CONTINUOUS
  0
LAYER
  2
038691-3ROU1_GBR
 70
0
 62
5
  6
CONTINUOUS
  0
LAYER
  2
038691-4ROU1_GBR
 70
0
 62
10
  6
CONTINUOUS
  0
LAYER
  2
038693-1ROU1_GBR
 70
0
 62
14
  6
CONTINUOUS
  0
LAYER
  2
038695-1ROU1_GBR
 70
0
 62
9
  6
CONTINUOUS
  0
LAYER
  2
038697-1ROU1_GBR
 70
0
 62
12
  6
CONTINUOUS
  0
LAYER
  2
038697-3ROU1_GBR
 70
0
 62
11
  6
CONTINUOUS
  0
LAYER
  2
038697-4ROU1_GBR
 70
0
 62
13
  6
CONTINUOUS
  0
LAYER
  2
038697-5ROU1_GBR
 70
0
 62
8
  6
CONTINUOUS
  0
LAYER
  2
047706-4ROU1_GBR
 70
0
 62
15
  6
CONTINUOUS
  0
LAYER
  2
047706-5ROU1_GBR
 70
0
 62
7
  6
CONTINUOUS
  0
LAYER
  2
047706-6ROU1_GBR
 70
0
 62
7
  6
CONTINUOUS
  0
LAYER
  2
047708-1ROU1_GBR
 70
0
 62
2
  6
CONTINUOUS
  0
LAYER
  2
047710-1ROU1_GBR
 70
0
 62
6
  6
CONTINUOUS
  0
LAYER
  2
047712-1ROU1_GBR
 70
0
 62
1
  6
CONTINUOUS
  0
LAYER
  2
047714-2ROU1_GBR
 70
0
 62
4
  6
CONTINUOUS
  0
LAYER
  2
048701-1ROU1_GBR
 70
0
 62
3
  6
CONTINUOUS
  0
LAYER
  2
048703-1ROU1_GBR
 70
0
 62
10
  6
CONTINUOUS
  0
LAYER
  2
048711-1ROU1_GBR
 70
0
 62
14
  6
CONTINUOUS
  0
LAYER
  2
048715-1ROU1_GBR
 70
0
 62
9
  6
CONTINUOUS
  0
LAYER
  2
058721-2ROU1_GBR
 70
0
 62
12
  6
CONTINUOUS
  0
LAYER
  2
058723-10ROU1_GBR
 70
0
 62
11
  6
CONTINUOUS
  0
LAYER
  2
058723-1ROU1_GBR
 70
0
 62
13
  6
CONTINUOUS
  0
LAYER
  2
058723-6ROU1_GBR
 70
0
 62
8
  6
CONTINUOUS
  0
LAYER
  2
058723-9ROU1_GBR
 70
0
 62
15
  6
CONTINUOUS
  0
LAYER
  2
067601-1ROU1_GBR
 70
0
 62
7
  6
CONTINUOUS
  0
LAYER
  2
068162-1ROU1_GBR
 70
0
 62
7
  6
CONTINUOUS
  0
LAYER
  2
068162-3ROU1_GBR
 70
0
 62
2
  6
CONTINUOUS
  0
LAYER
  2
068162-4ROU1_GBR
 70
0
 62
6
  6
CONTINUOUS
  0
LAYER
  2
077742-1ROU1_GBR
 70
0
 62
1
  6
CONTINUOUS
  0
LAYER
  2
078731-1ROU1_GBR
 70
0
 62
4
  6
CONTINUOUS
  0
LAYER
  2
078735-3ROU1_GBR
 70
0
 62
3
  6
CONTINUOUS
  0
LAYER
  2
078739-1ROU1_GBR
 70
0
 62
5
  6
CONTINUOUS
  0
LAYER
  2
078753-1ROU1_GBR
 70
0
 62
10
  6
CONTINUOUS
  0
LAYER
  2
078757-1ROU1_GBR
 70
0
 62
14
  6
CONTINUOUS
  0
LAYER
  2
087768-2ROU1_GBR
 70
0
 62
9
  6
CONTINUOUS
  0
LAYER
  2
087772-1ROU1_GBR
 70
0
 62
12
  6
CONTINUOUS
  0
LAYER
  2
087780-1ROU1_GBR
 70
0
 62
11
  6
CONTINUOUS
  0
LAYER
  2
087782-9ROU1_GBR
 70
0
 62
13
  6
CONTINUOUS
  0
LAYER
  2
088783-4ROU1_GBR
 70
0
 62
8
  6
CONTINUOUS
  0
LAYER
  2
088785-1ROU1_GBR
 70
0
 62
15
  6
CONTINUOUS
  0
LAYER
  2
097800-6ROU1_GBR
 70
0
 62
7
  6
CONTINUOUS
  0
LAYER
  2
097810-1ROU1_GBR
 70
0
 62
7
  6
CONTINUOUS
  0
LAYER
  2
098787-1ROU1_GBR
 70
0
 62
2
  6
CONTINUOUS
  0
LAYER
  2
098787-2ROU1_GBR
 70
0
 62
6
  6
CONTINUOUS
  0
LAYER
  2
098789-1ROU1_GBR
 70
0
 62
1
  6
CONTINUOUS
  0
LAYER
  2
098811-1ROU1_GBR
 70
0
 62
4
  6
CONTINUOUS
  0
LAYER
  2
098815-1ROU1_GBR
 70
0
 62
3
  6
CONTINUOUS
  0
LAYER
  2
098815-2ROU1_GBR
 70
0
 62
5
  6
CONTINUOUS
  0
LAYER
  2
107824-1ROU1_GBR
 70
0
 62
10
  6
CONTINUOUS
  0
LAYER
  2
118200-1ROU1_GBR
 70
0
 62
14
  6
CONTINUOUS
  0
LAYER
  2
257017-1ROU1_GBR
 70
0
 62
9
  6
CONTINUOUS
  0
LAYER
  2
268076-7ROU1_GBR
 70
0
 62
12
  6
CONTINUOUS
  0
LAYER
  2
288088-1ROU1_GBR
 70
0
 62
11
  6
CONTINUOUS
  0
LAYER
  2
307251-1ROU1_GBR
 70
0
 62
13
  6
CONTINUOUS
  0
LAYER
  2
307273-4ROU1_GBR
 70
0
 62
8
  6
CONTINUOUS
  0
LAYER
  2
307283-1ROU1_GBR
 70
0
 62
15
  6
CONTINUOUS
  0
LAYER
  2
307291-1ROU1_GBR
 70
0
 62
7
  6
CONTINUOUS
  0
LAYER
  2
308108-1ROU1_GBR
 70
0
 62
7
  6
CONTINUOUS
  0
LAYER
  2
308111-1ROU1_GBR
 70
0
 62
2
  6
CONTINUOUS
  0
LAYER
  2
308112-1ROU1_GBR
 70
0
 62
6
  6
CONTINUOUS
  0
ENDTAB
  0
TABLE
  2
STYLE
 70
0
  0
ENDTAB
  0
ENDSEC
  0
SECTION
  2
BLOCKS
  0
BLOCK
  2
ROUND_1
  3
ROUND_1
 70
64
 10
0.00
 20
0.00
 30
0.00
  0
CIRCLE
  8
0
 10
0.00
 20
0.00
 30
0.00
 40
0.10
  0
ENDBLK
  0
ENDSEC
  0
SECTION
  2
ENTITIES
  0
POLYLINE
  8
037682-1ROU1_GBR
 66
1
 10
0.00
 20
0.00
 30
0.00
 40
0.20
 41
0.20
  0
VERTEX
  8
037682-1ROU1_GBR
 10
291.991694
 20
267.994282
 30
0.00
  0
VERTEX
  8
037682-1ROU1_GBR
 10
291.991694
 20
242.69451
 30
0.00
  0
SEQEND
  0
POLYLINE
  8
037682-1ROU1_GBR
 66
1
 10
0.00
 20
0.00
 30
0.00
 40
0.20
 41
0.20
  0
VERTEX
  8
037682-1ROU1_GBR
 10
291.792788
 20
242.65697
 30
0.00
 42
0.828921
  0
VERTEX
  8
037682-1ROU1_GBR
 10
291.991694
 20
242.69451
 30
0.00
 42
0.00
  0
SEQEND
  0
POLYLINE
  8
037682-1ROU1_GBR
 66
1
 10
0.00
 20
0.00
 30
0.00
 40
0.20
 41
0.20
  0
VERTEX
  8
037682-1ROU1_GBR
 10
291.792788
 20
242.65697
 30
0.00
 42
0.1013075
  0
VERTEX
  8
037682-1ROU1_GBR
 10
284.814016
 20
253.428658
 30
0.00
 42
0.00
  0
SEQEND
  0
POLYLINE
  8
037682-1ROU1_GBR
 66
1
 10
0.00
 20
0.00
 30
0.00
 40
0.20
 41
0.20
  0
VERTEX
  8
037682-1ROU1_GBR
 10
284.81401
 20
253.428652
 30
0.00
  0
VERTEX
  8
037682-1ROU1_GBR
 10
283.52689
 20
251.88258
 30
0.00
  0
SEQEND
  0
POLYLINE
  8
037682-1ROU1_GBR
 66
1
 10
0.00
 20
0.00
 30
0.00
 40
0.20
 41
0.20
  0
VERTEX
  8
037682-1ROU1_GBR
 10
291.991694
 20
231.047494
 30
0.00
 42
0.1945187
  0
VERTEX
  8
037682-1ROU1_GBR
 10
283.526886
 20
251.882576
 30
0.00
 42
0.00
  0
SEQEND
  0
POLYLINE
  8
037682-1ROU1_GBR
 66
1
 10
0.00
 20
0.00
 30
0.00
 40
0.20
 41
0.20
  0
VERTEX
  8
037682-1ROU1_GBR
 10
291.991694
 20
231.047494
 30
0.00
  0
VERTEX
  8
037682-1ROU1_GBR
 10
291.991542
 20
168.902938
 30
0.00
  0
SEQEND
  0
POLYLINE
  8
037682-1ROU1_GBR
 66
1
 10
0.00
 20
0.00
 30
0.00
 40
0.20
 41
0.20
  0
VERTEX
  8
037682-1ROU1_GBR
 10
277.29015
 20
143.198012
 30
0.00
 42
0.2639912
  0
VERTEX
  8
037682-1ROU1_GBR
 10
291.991548
 20
168.902936
 30
0.00
 42
0.00
  0
SEQEND
  0
POLYLINE
  8
037682-1ROU1_GBR
 66
1
 10
0.00
 20
0.00
 30
0.00
 40
0.20
 41
0.20
  0
VERTEX
  8
037682-1ROU1_GBR
 10
277.29015
 20
143.198012
 30
0.00
  0
VERTEX
  8
037682-1ROU1_GBR
 10
278.387784
 20
141.522678
 30
0.00
  0
SEQEND
  0
POLYLINE
  8
037682-1ROU1_GBR
 66
1
 10
0.00
 20
0.00
 30
0.00
 40
0.20
 41
0.20
  0
VERTEX
  8
037682-1ROU1_GBR
 10
278.387784
 20
141.522678
 30
0.00
 42
0.1665005
  0
VERTEX
  8
037682-1ROU1_GBR
 10
291.792778
 20
157.342994
 30
0.00
 42
0.00
  0
SEQEND
  0
POLYLINE
  8
037682-1ROU1_GBR
 66
1
 10
0.00
 20
0.00
 30
0.00
 40
0.20
 41
0.20
  0
VERTEX
  8
037682-1ROU1_GBR
 10
291.991694
 20
157.305476
 30
0.00
 42
0.8288227
  0
VERTEX
  8
037682-1ROU1_GBR
 10
291.792788
 20
157.342992
 30
0.00
 42
0.00
  0
SEQEND
  0
POLYLINE
  8
037682-1ROU1_GBR
 66
1
 10
0.00
 20
0.00
 30
0.00
 40
0.20
 41
0.20
  0
VERTEX
  8
037682-1ROU1_GBR
 10
291.991694
 20
157.305476
 30
0.00
  0
VERTEX
  8
037682-1ROU1_GBR
 10
291.991694
 20
132.005706
 30
0.00
  0
VERTEX
  8
037682-1ROU1_GBR
 10
108.008318
 20
132.005706
 30
0.00
  0
VERTEX
  8
037682-1ROU1_GBR
 10
108.008318
 20
157.305476
 30
0.00
  0
SEQEND
  0
POLYLINE
  8
037682-1ROU1_GBR
 66
1
 10
0.00
 20
0.00
 30
0.00
 40
0.20
 41
0.20
  0
VERTEX
  8
037682-1ROU1_GBR
 10
108.207226
 20
157.343018
 30
0.00
 42
0.8289134
  0
VERTEX
  8
037682-1ROU1_GBR
 10
108.008318
 20
157.305476
 30
0.00
 42
0.00
  0
SEQEND
  0
POLYLINE
  8
037682-1ROU1_GBR
 66
1
 10
0.00
 20
0.00
 30
0.00
 40
0.20
 41
0.20
  0
VERTEX
  8
037682-1ROU1_GBR
 10
108.207226
 20
157.343018
 30
0.00
 42
0.0301869
  0
VERTEX
  8
037682-1ROU1_GBR
 10
109.82808
 20
153.839648
 30
0.00
 42
0.00
  0
SEQEND
  0
POLYLINE
  8
037682-1ROU1_GBR
 66
1
 10
0.00
 20
0.00
 30
0.00
 40
0.20
 41
0.20
  0
VERTEX
  8
037682-1ROU1_GBR
 10
109.828076
 20
153.839646
 30
0.00
  0
VERTEX
  8
037682-1ROU1_GBR
 10
109.874482
 20
153.753414
 30
0.00
  0
VERTEX
  8
037682-1ROU1_GBR
 10
111.66127
 20
154.656104
 30
0.00
  0
SEQEND
  0
POLYLINE
  8
037682-1ROU1_GBR
 66
1
 10
0.00
 20
0.00
 30
0.00
 40
0.20
 41
0.20
  0
VERTEX
  8
037682-1ROU1_GBR
 10
157.211826
 20
192.044524
 30
0.00
 42
0.8271614
  0
VERTEX
  8
037682-1ROU1_GBR
 10
111.66127
 20
154.656104
 30
0.00
 42
0.00
  0
SEQEND
  0
POLYLINE
  8
037682-1ROU1_GBR
 66
1
 10
0.00
 20
0.00
 30
0.00
 40
0.20
 41
0.20
  0
VERTEX
  8
037682-1ROU1_GBR
 10
157.211826
 20
192.044524
 30
0.00
  0
VERTEX
  8
037682-1ROU1_GBR
 10
158.473496
 20
193.597834
 30
0.00
  0
SEQEND
  0
POLYLINE
  8
037682-1ROU1_GBR
 66
1
 10
0.00
 20
0.00
 30
0.00
 40
0.20
 41
0.20
  0
VERTEX
  8
037682-1ROU1_GBR
 10
158.473496
 20
193.597834
 30
0.00
 42
0.1081968
  0
VERTEX
  8
037682-1ROU1_GBR
 10
146.322826
 20
199.900556
 30
0.00
 42
0.00
  0
SEQEND
  0
POLYLINE
  8
037682-1ROU1_GBR
 66
1
 10
0.00
 20
0.00
 30
0.00
 40
0.20
 41
0.20
  0
VERTEX
  8
037682-1ROU1_GBR
 10
146.322822
 20
200.099472
 30
0.00
 42
0.7664322
  0
VERTEX
  8
037682-1ROU1_GBR
 10
146.322822
 20
199.90054
 30
0.00
 42
0.00
  0
SEQEND
  0
POLYLINE
  8
037682-1ROU1_GBR
 66
1
 10
0.00
 20
0.00
 30
0.00
 40
0.20
 41
0.20
  0
VERTEX
  8
037682-1ROU1_GBR
 10
146.322822
 20
200.099472
 30
0.00
 42
0.0418888
  0
VERTEX
  8
037682-1ROU1_GBR
 10
151.35641
 20
201.91802
 30
0.00
 42
0.00
  0
SEQEND
  0
POLYLINE
  8
037682-1ROU1_GBR
 66
1
 10
0.00
 20
0.00
 30
0.00
 40
0.20
 41
0.20
  0
VERTEX
  8
037682-1ROU1_GBR
 10
151.356416
 20
201.918012
 30
0.00
  0
VERTEX
  8
037682-1ROU1_GBR
 10
151.45479
 20
201.963172
 30
0.00
  0
VERTEX
  8
037682-1ROU1_GBR
 10
150.484738
 20
203.719506
 30
0.00
  0
SEQEND
  0
POLYLINE
  8
037682-1ROU1_GBR
 66
1
 10
0.00
 20
0.00
 30
0.00
 40
0.20
 41
0.20
  0
VERTEX
  8
037682-1ROU1_GBR
 10
113.828932
 20
248.755002
 30
0.00
 42
0.7734547
  0
VERTEX
  8
037682-1ROU1_GBR
 10
150.484738
 20
203.719506
 30
0.00
 42
0.00
  0
SEQEND
  0
POLYLINE
  8
037682-1ROU1_GBR
 66
1
 10
0.00
 20
0.00
 30
0.00
 40
0.20
 41
0.20
  0
VERTEX
  8
037682-1ROU1_GBR
 10
113.828932
 20
248.755002
 30
0.00
  0
VERTEX
  8
037682-1ROU1_GBR
 10
112.198658
 20
249.915578
 30
0.00
  0
VERTEX
  8
037682-1ROU1_GBR
 10
112.132898
 20
249.825282
 30
0.00
  0
SEQEND
  0
POLYLINE
  8
037682-1ROU1_GBR
 66
1
 10
0.00
 20
0.00
 30
0.00
 40
0.20
 41
0.20
  0
VERTEX
  8
037682-1ROU1_GBR
 10
112.132898
 20
249.825282
 30
0.00
 42
0.064117
  0
VERTEX
  8
037682-1ROU1_GBR
 10
108.20723
 20
242.656992
 30
0.00
 42
0.00
  0
SEQEND
  0
POLYLINE
  8
037682-1ROU1_GBR
 66
1
 10
0.00
 20
0.00
 30
0.00
 40
0.20
 41
0.20
  0
VERTEX
  8
037682-1ROU1_GBR
 10
108.008318
 20
242.69451
 30
0.00
 42
0.8288099
  0
VERTEX
  8
037682-1ROU1_GBR
 10
108.207228
 20
242.656994
 30
0.00
 42
0.00
  0
SEQEND
  0
POLYLINE
  8
037682-1ROU1_GBR
 66
1
 10
0.00
 20
0.00
 30
0.00
 40
0.20
 41
0.20
  0
VERTEX
  8
037682-1ROU1_GBR
 10
108.008318
 20
242.69451
 30
0.00
  0
VERTEX
  8
037682-1ROU1_GBR
 10
108.008318
 20
267.994282
 30
0.00
  0
VERTEX
  8
037682-1ROU1_GBR
 10
291.991694
 20
267.994282
 30
0.00
  0
SEQEND
  0
ENDSEC
  0
EOF
