  0
SECTION
  2
HEADER
  9
$EXTMIN
 10
-258.359834
 20
-58.010602
 30
0.00
  9
$EXTMAX
 10
470.00
 20
419.20
 30
0.00
  0
ENDSEC
  0
SECTION
  2
TABLES
  0
TABLE
  2
LTYPE
 70
3
  0
LTYPE
  2
BYBLOCK
 70
0
  3

 72
65
 73
0
 40
0.00
  0
LTYPE
  2
BYLAYER
 70
0
  3

 72
65
 73
0
 40
0.00
  0
LTYPE
  2
CONTINUOUS
 70
0
  3
Solid line
 72
65
 73
0
 40
0.00
  0
ENDTAB
  0
TABLE
  2
LAYER
 70
99
  0
LAYER
  2
0
 70
0
 62
7
  6
CONTINUOUS
  0
LAYER
  2
020671-1ROU1_GBR
 70
0
 62
7
  6
CONTINUOUS
  0
LAYER
  2
027417-3ROU1_GBR
 70
0
 62
7
  6
CONTINUOUS
  0
LAYER
  2
027419-1ROU1_GBR
 70
0
 62
2
  6
CONTINUOUS
  0
LAYER
  2
027419-2ROU1_GBR
 70
0
 62
6
  6
CONTINUOUS
  0
LAYER
  2
027674-1ROU1_GBR
 70
0
 62
1
  6
CONTINUOUS
  0
LAYER
  2
027676-1ROU1_GBR
 70
0
 62
4
  6
CONTINUOUS
  0
LAYER
  2
027678-3ROU1_GBR
 70
0
 62
3
  6
CONTINUOUS
  0
LAYER
  2
028122-1ROU1_GBR
 70
0
 62
5
  6
CONTINUOUS
  0
LAYER
  2
028124-5ROU1_GBR
 70
0
 62
10
  6
CONTINUOUS
  0
LAYER
  2
028126-1ROU1_GBR
 70
0
 62
14
  6
CONTINUOUS
  0
LAYER
  2
028126-3ROU1_GBR
 70
0
 62
9
  6
CONTINUOUS
  0
LAYER
  2
028126-6ROU1_GBR
 70
0
 62
12
  6
CONTINUOUS
  0
LAYER
  2
028126-7ROU1_GBR
 70
0
 62
11
  6
CONTINUOUS
  0
LAYER
  2
028129-1ROU1_GBR
 70
0
 62
13
  6
CONTINUOUS
  0
LAYER
  2
028130-1ROU1_GBR
 70
0
 62
8
  6
CONTINUOUS
  0
LAYER
  2
028130-4ROU1_GBR
 70
0
 62
15
  6
CONTINUOUS
  0
LAYER
  2
028130-5ROU1_GBR
 70
0
 62
7
  6
CONTINUOUS
  0
LAYER
  2
028130-7ROU1_GBR
 70
0
 62
7
  6
CONTINUOUS
  0
LAYER
  2
028655-1ROU1_GBR
 70
0
 62
2
  6
CONTINUOUS
  0
LAYER
  2
028657-1ROU1_GBR
 70
0
 62
6
  6
CONTINUOUS
  0
LAYER
  2
028659-2ROU1_GBR
 70
0
 62
1
  6
CONTINUOUS
  0
LAYER
  2
028659-4ROU1_GBR
 70
0
 62
4
  6
CONTINUOUS
  0
LAYER
  2
028661-1ROU1_GBR
 70
0
 62
3
  6
CONTINUOUS
  0
LAYER
  2
028663-1ROU1_GBR
 70
0
 62
5
  6
CONTINUOUS
  0
LAYER
  2
028665-1ROU1_GBR
 70
0
 62
10
  6
CONTINUOUS
  0
LAYER
  2
028669-1ROU1_GBR
 70
0
 62
14
  6
CONTINUOUS
  0
LAYER
  2
028673-2ROU1_GBR
 70
0
 62
9
  6
CONTINUOUS
  0
LAYER
  2
037088-3ROU1_GBR
 70
0
 62
12
  6
CONTINUOUS
  0
LAYER
  2
037682-1ROU1_GBR
 70
0
 62
11
  6
CONTINUOUS
  0
LAYER
  2
037686-1ROU1_GBR
 70
0
 62
13
  6
CONTINUOUS
  0
LAYER
  2
037688-1ROU1_GBR
 70
0
 62
8
  6
CONTINUOUS
  0
LAYER
  2
038681-1ROU1_GBR
 70
0
 62
15
  6
CONTINUOUS
  0
LAYER
  2
038683-1ROU1_GBR
 70
0
 62
7
  6
CONTINUOUS
  0
LAYER
  2
038683-2ROU1_GBR
 70
0
 62
7
  6
CONTINUOUS
  0
LAYER
  2
038685-1ROU1_GBR
 70
0
 62
2
  6
CONTINUOUS
  0
LAYER
  2
038689-1ROU1_GBR
 70
0
 62
6
  6
CONTINUOUS
  0
LAYER
  2
038689-2ROU1_GBR
 70
0
 62
1
  6
CONTINUOUS
  0
LAYER
  2
038691-1ROU1_GBR
 70
0
 62
4
  6
CONTINUOUS
  0
LAYER
  2
038691-2ROU1_GBR
 70
0
 62
3
  6
CONTINUOUS
  0
LAYER
  2
038691-3ROU1_GBR
 70
0
 62
5
  6
CONTINUOUS
  0
LAYER
  2
038691-4ROU1_GBR
 70
0
 62
10
  6
CONTINUOUS
  0
LAYER
  2
038693-1ROU1_GBR
 70
0
 62
14
  6
CONTINUOUS
  0
LAYER
  2
038695-1ROU1_GBR
 70
0
 62
9
  6
CONTINUOUS
  0
LAYER
  2
038697-1ROU1_GBR
 70
0
 62
12
  6
CONTINUOUS
  0
LAYER
  2
038697-3ROU1_GBR
 70
0
 62
11
  6
CONTINUOUS
  0
LAYER
  2
038697-4ROU1_GBR
 70
0
 62
13
  6
CONTINUOUS
  0
LAYER
  2
038697-5ROU1_GBR
 70
0
 62
8
  6
CONTINUOUS
  0
LAYER
  2
047706-4ROU1_GBR
 70
0
 62
15
  6
CONTINUOUS
  0
LAYER
  2
047706-5ROU1_GBR
 70
0
 62
7
  6
CONTINUOUS
  0
LAYER
  2
047706-6ROU1_GBR
 70
0
 62
7
  6
CONTINUOUS
  0
LAYER
  2
047708-1ROU1_GBR
 70
0
 62
2
  6
CONTINUOUS
  0
LAYER
  2
047710-1ROU1_GBR
 70
0
 62
6
  6
CONTINUOUS
  0
LAYER
  2
047712-1ROU1_GBR
 70
0
 62
1
  6
CONTINUOUS
  0
LAYER
  2
047714-2ROU1_GBR
 70
0
 62
4
  6
CONTINUOUS
  0
LAYER
  2
048701-1ROU1_GBR
 70
0
 62
3
  6
CONTINUOUS
  0
LAYER
  2
048703-1ROU1_GBR
 70
0
 62
10
  6
CONTINUOUS
  0
LAYER
  2
048711-1ROU1_GBR
 70
0
 62
14
  6
CONTINUOUS
  0
LAYER
  2
048715-1ROU1_GBR
 70
0
 62
9
  6
CONTINUOUS
  0
LAYER
  2
058721-2ROU1_GBR
 70
0
 62
12
  6
CONTINUOUS
  0
LAYER
  2
058723-10ROU1_GBR
 70
0
 62
11
  6
CONTINUOUS
  0
LAYER
  2
058723-1ROU1_GBR
 70
0
 62
13
  6
CONTINUOUS
  0
LAYER
  2
058723-6ROU1_GBR
 70
0
 62
8
  6
CONTINUOUS
  0
LAYER
  2
058723-9ROU1_GBR
 70
0
 62
15
  6
CONTINUOUS
  0
LAYER
  2
067601-1ROU1_GBR
 70
0
 62
7
  6
CONTINUOUS
  0
LAYER
  2
068162-1ROU1_GBR
 70
0
 62
7
  6
CONTINUOUS
  0
LAYER
  2
068162-3ROU1_GBR
 70
0
 62
2
  6
CONTINUOUS
  0
LAYER
  2
068162-4ROU1_GBR
 70
0
 62
6
  6
CONTINUOUS
  0
LAYER
  2
077742-1ROU1_GBR
 70
0
 62
1
  6
CONTINUOUS
  0
LAYER
  2
078731-1ROU1_GBR
 70
0
 62
4
  6
CONTINUOUS
  0
LAYER
  2
078735-3ROU1_GBR
 70
0
 62
3
  6
CONTINUOUS
  0
LAYER
  2
078739-1ROU1_GBR
 70
0
 62
5
  6
CONTINUOUS
  0
LAYER
  2
078753-1ROU1_GBR
 70
0
 62
10
  6
CONTINUOUS
  0
LAYER
  2
078757-1ROU1_GBR
 70
0
 62
14
  6
CONTINUOUS
  0
LAYER
  2
087768-2ROU1_GBR
 70
0
 62
9
  6
CONTINUOUS
  0
LAYER
  2
087772-1ROU1_GBR
 70
0
 62
12
  6
CONTINUOUS
  0
LAYER
  2
087780-1ROU1_GBR
 70
0
 62
11
  6
CONTINUOUS
  0
LAYER
  2
087782-9ROU1_GBR
 70
0
 62
13
  6
CONTINUOUS
  0
LAYER
  2
088783-4ROU1_GBR
 70
0
 62
8
  6
CONTINUOUS
  0
LAYER
  2
088785-1ROU1_GBR
 70
0
 62
15
  6
CONTINUOUS
  0
LAYER
  2
097800-6ROU1_GBR
 70
0
 62
7
  6
CONTINUOUS
  0
LAYER
  2
097810-1ROU1_GBR
 70
0
 62
7
  6
CONTINUOUS
  0
LAYER
  2
098787-1ROU1_GBR
 70
0
 62
2
  6
CONTINUOUS
  0
LAYER
  2
098787-2ROU1_GBR
 70
0
 62
6
  6
CONTINUOUS
  0
LAYER
  2
098789-1ROU1_GBR
 70
0
 62
1
  6
CONTINUOUS
  0
LAYER
  2
098811-1ROU1_GBR
 70
0
 62
4
  6
CONTINUOUS
  0
LAYER
  2
098815-1ROU1_GBR
 70
0
 62
3
  6
CONTINUOUS
  0
LAYER
  2
098815-2ROU1_GBR
 70
0
 62
5
  6
CONTINUOUS
  0
LAYER
  2
107824-1ROU1_GBR
 70
0
 62
10
  6
CONTINUOUS
  0
LAYER
  2
118200-1ROU1_GBR
 70
0
 62
14
  6
CONTINUOUS
  0
LAYER
  2
257017-1ROU1_GBR
 70
0
 62
9
  6
CONTINUOUS
  0
LAYER
  2
268076-7ROU1_GBR
 70
0
 62
12
  6
CONTINUOUS
  0
LAYER
  2
288088-1ROU1_GBR
 70
0
 62
11
  6
CONTINUOUS
  0
LAYER
  2
307251-1ROU1_GBR
 70
0
 62
13
  6
CONTINUOUS
  0
LAYER
  2
307273-4ROU1_GBR
 70
0
 62
8
  6
CONTINUOUS
  0
LAYER
  2
307283-1ROU1_GBR
 70
0
 62
15
  6
CONTINUOUS
  0
LAYER
  2
307291-1ROU1_GBR
 70
0
 62
7
  6
CONTINUOUS
  0
LAYER
  2
308108-1ROU1_GBR
 70
0
 62
7
  6
CONTINUOUS
  0
LAYER
  2
308111-1ROU1_GBR
 70
0
 62
2
  6
CONTINUOUS
  0
LAYER
  2
308112-1ROU1_GBR
 70
0
 62
6
  6
CONTINUOUS
  0
ENDTAB
  0
TABLE
  2
STYLE
 70
0
  0
ENDTAB
  0
ENDSEC
  0
SECTION
  2
BLOCKS
  0
BLOCK
  2
ROUND_1
  3
ROUND_1
 70
64
 10
0.00
 20
0.00
 30
0.00
  0
CIRCLE
  8
0
 10
0.00
 20
0.00
 30
0.00
 40
0.10
  0
ENDBLK
  0
ENDSEC
  0
SECTION
  2
ENTITIES
  0
POLYLINE
  8
038691-1ROU1_GBR
 66
1
 10
0.00
 20
0.00
 30
0.00
 40
0.20
 41
0.20
  0
VERTEX
  8
038691-1ROU1_GBR
 10
329.294516
 20
295.834308
 30
0.00
  0
VERTEX
  8
038691-1ROU1_GBR
 10
329.55954
 20
295.810254
 30
0.00
  0
VERTEX
  8
038691-1ROU1_GBR
 10
329.811684
 20
295.74198
 30
0.00
  0
VERTEX
  8
038691-1ROU1_GBR
 10
330.04854
 20
295.6306
 30
0.00
  0
VERTEX
  8
038691-1ROU1_GBR
 10
330.262052
 20
295.479902
 30
0.00
  0
VERTEX
  8
038691-1ROU1_GBR
 10
330.446126
 20
295.294736
 30
0.00
  0
VERTEX
  8
038691-1ROU1_GBR
 10
330.595834
 20
295.079674
 30
0.00
  0
VERTEX
  8
038691-1ROU1_GBR
 10
330.70541
 20
294.842692
 30
0.00
  0
VERTEX
  8
038691-1ROU1_GBR
 10
330.77216
 20
294.590166
 30
0.00
  0
VERTEX
  8
038691-1ROU1_GBR
 10
330.794614
 20
294.33421
 30
0.00
  0
VERTEX
  8
038691-1ROU1_GBR
 10
330.794614
 20
290.634166
 30
0.00
  0
VERTEX
  8
038691-1ROU1_GBR
 10
328.294492
 20
290.634166
 30
0.00
  0
VERTEX
  8
038691-1ROU1_GBR
 10
328.035666
 20
290.60013
 30
0.00
  0
VERTEX
  8
038691-1ROU1_GBR
 10
327.79462
 20
290.500308
 30
0.00
  0
VERTEX
  8
038691-1ROU1_GBR
 10
327.58761
 20
290.341304
 30
0.00
  0
VERTEX
  8
038691-1ROU1_GBR
 10
327.428606
 20
290.134294
 30
0.00
  0
VERTEX
  8
038691-1ROU1_GBR
 10
327.328784
 20
289.89302
 30
0.00
  0
VERTEX
  8
038691-1ROU1_GBR
 10
327.294494
 20
289.634168
 30
0.00
  0
VERTEX
  8
038691-1ROU1_GBR
 10
327.328784
 20
289.375342
 30
0.00
  0
VERTEX
  8
038691-1ROU1_GBR
 10
327.428606
 20
289.134296
 30
0.00
  0
VERTEX
  8
038691-1ROU1_GBR
 10
327.58761
 20
288.927032
 30
0.00
  0
VERTEX
  8
038691-1ROU1_GBR
 10
327.79462
 20
288.768282
 30
0.00
  0
VERTEX
  8
038691-1ROU1_GBR
 10
328.035666
 20
288.668206
 30
0.00
  0
VERTEX
  8
038691-1ROU1_GBR
 10
328.294492
 20
288.63417
 30
0.00
  0
VERTEX
  8
038691-1ROU1_GBR
 10
330.794614
 20
288.63417
 30
0.00
  0
VERTEX
  8
038691-1ROU1_GBR
 10
330.794614
 20
202.334368
 30
0.00
  0
VERTEX
  8
038691-1ROU1_GBR
 10
328.294518
 20
202.334368
 30
0.00
  0
VERTEX
  8
038691-1ROU1_GBR
 10
328.03564
 20
202.300078
 30
0.00
  0
VERTEX
  8
038691-1ROU1_GBR
 10
327.79462
 20
202.200256
 30
0.00
  0
VERTEX
  8
038691-1ROU1_GBR
 10
327.58761
 20
202.041252
 30
0.00
  0
VERTEX
  8
038691-1ROU1_GBR
 10
327.428606
 20
201.834242
 30
0.00
  0
VERTEX
  8
038691-1ROU1_GBR
 10
327.328784
 20
201.593196
 30
0.00
  0
VERTEX
  8
038691-1ROU1_GBR
 10
327.294494
 20
201.33437
 30
0.00
  0
VERTEX
  8
038691-1ROU1_GBR
 10
327.328784
 20
201.075544
 30
0.00
  0
VERTEX
  8
038691-1ROU1_GBR
 10
327.428606
 20
200.834244
 30
0.00
  0
VERTEX
  8
038691-1ROU1_GBR
 10
327.58761
 20
200.627234
 30
0.00
  0
VERTEX
  8
038691-1ROU1_GBR
 10
327.79462
 20
200.46823
 30
0.00
  0
VERTEX
  8
038691-1ROU1_GBR
 10
328.035666
 20
200.368408
 30
0.00
  0
VERTEX
  8
038691-1ROU1_GBR
 10
328.294492
 20
200.334372
 30
0.00
  0
VERTEX
  8
038691-1ROU1_GBR
 10
330.794614
 20
200.334372
 30
0.00
  0
VERTEX
  8
038691-1ROU1_GBR
 10
330.794614
 20
169.33418
 30
0.00
  0
VERTEX
  8
038691-1ROU1_GBR
 10
330.294742
 20
168.834308
 30
0.00
  0
VERTEX
  8
038691-1ROU1_GBR
 10
330.094616
 20
168.834308
 30
0.00
  0
VERTEX
  8
038691-1ROU1_GBR
 10
329.839548
 20
168.801288
 30
0.00
  0
VERTEX
  8
038691-1ROU1_GBR
 10
329.601576
 20
168.70426
 30
0.00
  0
VERTEX
  8
038691-1ROU1_GBR
 10
329.395836
 20
168.549828
 30
0.00
  0
VERTEX
  8
038691-1ROU1_GBR
 10
329.236578
 20
168.347898
 30
0.00
  0
VERTEX
  8
038691-1ROU1_GBR
 10
329.133962
 20
168.112186
 30
0.00
  0
VERTEX
  8
038691-1ROU1_GBR
 10
329.094846
 20
167.857932
 30
0.00
  0
VERTEX
  8
038691-1ROU1_GBR
 10
329.12177
 20
167.602408
 30
0.00
  0
VERTEX
  8
038691-1ROU1_GBR
 10
329.21321
 20
167.36187
 30
0.00
  0
VERTEX
  8
038691-1ROU1_GBR
 10
329.362816
 20
167.152828
 30
0.00
  0
VERTEX
  8
038691-1ROU1_GBR
 10
329.560682
 20
166.988744
 30
0.00
  0
VERTEX
  8
038691-1ROU1_GBR
 10
329.794616
 20
166.880184
 30
0.00
  0
VERTEX
  8
038691-1ROU1_GBR
 10
329.794616
 20
158.002682
 30
0.00
  0
VERTEX
  8
038691-1ROU1_GBR
 10
329.551538
 20
157.90418
 30
0.00
  0
VERTEX
  8
038691-1ROU1_GBR
 10
329.342496
 20
157.746446
 30
0.00
  0
VERTEX
  8
038691-1ROU1_GBR
 10
329.181714
 20
157.53969
 30
0.00
  0
VERTEX
  8
038691-1ROU1_GBR
 10
329.080114
 20
157.29839
 30
0.00
  0
VERTEX
  8
038691-1ROU1_GBR
 10
329.044554
 20
157.039056
 30
0.00
  0
VERTEX
  8
038691-1ROU1_GBR
 10
329.077574
 20
156.779214
 30
0.00
  0
VERTEX
  8
038691-1ROU1_GBR
 10
329.176888
 20
156.536898
 30
0.00
  0
VERTEX
  8
038691-1ROU1_GBR
 10
329.335892
 20
156.328872
 30
0.00
  0
VERTEX
  8
038691-1ROU1_GBR
 10
329.543156
 20
156.169106
 30
0.00
  0
VERTEX
  8
038691-1ROU1_GBR
 10
329.784964
 20
156.068522
 30
0.00
  0
VERTEX
  8
038691-1ROU1_GBR
 10
330.044578
 20
156.034232
 30
0.00
  0
VERTEX
  8
038691-1ROU1_GBR
 10
330.794614
 20
156.034232
 30
0.00
  0
VERTEX
  8
038691-1ROU1_GBR
 10
330.79441
 20
152.331852
 30
0.00
  0
VERTEX
  8
038691-1ROU1_GBR
 10
330.772034
 20
152.07714
 30
0.00
  0
VERTEX
  8
038691-1ROU1_GBR
 10
330.702032
 20
151.816512
 30
0.00
  0
VERTEX
  8
038691-1ROU1_GBR
 10
330.590906
 20
151.580164
 30
0.00
  0
VERTEX
  8
038691-1ROU1_GBR
 10
330.440208
 20
151.366652
 30
0.00
  0
VERTEX
  8
038691-1ROU1_GBR
 10
330.255144
 20
151.182654
 30
0.00
  0
VERTEX
  8
038691-1ROU1_GBR
 10
330.044552
 20
151.035258
 30
0.00
  0
VERTEX
  8
038691-1ROU1_GBR
 10
329.803328
 20
150.923626
 30
0.00
  0
VERTEX
  8
038691-1ROU1_GBR
 10
329.550294
 20
150.856544
 30
0.00
  0
VERTEX
  8
038691-1ROU1_GBR
 10
329.292204
 20
150.834344
 30
0.00
  0
VERTEX
  8
038691-1ROU1_GBR
 10
121.29234
 20
150.834548
 30
0.00
  0
VERTEX
  8
038691-1ROU1_GBR
 10
121.029578
 20
150.858144
 30
0.00
  0
VERTEX
  8
038691-1ROU1_GBR
 10
120.777254
 20
150.926774
 30
0.00
  0
VERTEX
  8
038691-1ROU1_GBR
 10
120.54459
 20
151.035258
 30
0.00
  0
VERTEX
  8
038691-1ROU1_GBR
 10
120.32714
 20
151.188446
 30
0.00
  0
VERTEX
  8
038691-1ROU1_GBR
 10
120.142838
 20
151.373916
 30
0.00
  0
VERTEX
  8
038691-1ROU1_GBR
 10
119.993664
 20
151.588496
 30
0.00
  0
VERTEX
  8
038691-1ROU1_GBR
 10
119.883784
 20
151.825478
 30
0.00
  0
VERTEX
  8
038691-1ROU1_GBR
 10
119.817388
 20
152.073864
 30
0.00
  0
VERTEX
  8
038691-1ROU1_GBR
 10
119.794528
 20
152.336678
 30
0.00
  0
VERTEX
  8
038691-1ROU1_GBR
 10
119.794528
 20
156.034232
 30
0.00
  0
VERTEX
  8
038691-1ROU1_GBR
 10
120.54459
 20
156.034232
 30
0.00
  0
VERTEX
  8
038691-1ROU1_GBR
 10
120.803416
 20
156.068268
 30
0.00
  0
VERTEX
  8
038691-1ROU1_GBR
 10
121.044716
 20
156.168344
 30
0.00
  0
VERTEX
  8
038691-1ROU1_GBR
 10
121.251726
 20
156.327094
 30
0.00
  0
VERTEX
  8
038691-1ROU1_GBR
 10
121.41073
 20
156.534358
 30
0.00
  0
VERTEX
  8
038691-1ROU1_GBR
 10
121.510552
 20
156.775404
 30
0.00
  0
VERTEX
  8
038691-1ROU1_GBR
 10
121.544588
 20
157.03423
 30
0.00
  0
VERTEX
  8
038691-1ROU1_GBR
 10
121.510552
 20
157.293056
 30
0.00
  0
VERTEX
  8
038691-1ROU1_GBR
 10
121.41073
 20
157.534356
 30
0.00
  0
VERTEX
  8
038691-1ROU1_GBR
 10
121.251726
 20
157.741366
 30
0.00
  0
VERTEX
  8
038691-1ROU1_GBR
 10
121.044716
 20
157.90037
 30
0.00
  0
VERTEX
  8
038691-1ROU1_GBR
 10
120.803416
 20
158.000192
 30
0.00
  0
VERTEX
  8
038691-1ROU1_GBR
 10
120.54459
 20
158.034228
 30
0.00
  0
VERTEX
  8
038691-1ROU1_GBR
 10
119.794528
 20
158.034228
 30
0.00
  0
VERTEX
  8
038691-1ROU1_GBR
 10
119.794528
 20
175.334168
 30
0.00
  0
VERTEX
  8
038691-1ROU1_GBR
 10
120.54459
 20
175.334168
 30
0.00
  0
VERTEX
  8
038691-1ROU1_GBR
 10
120.803416
 20
175.368204
 30
0.00
  0
VERTEX
  8
038691-1ROU1_GBR
 10
121.044716
 20
175.46828
 30
0.00
  0
VERTEX
  8
038691-1ROU1_GBR
 10
121.251726
 20
175.62703
 30
0.00
  0
VERTEX
  8
038691-1ROU1_GBR
 10
121.41073
 20
175.834294
 30
0.00
  0
VERTEX
  8
038691-1ROU1_GBR
 10
121.510552
 20
176.07534
 30
0.00
  0
VERTEX
  8
038691-1ROU1_GBR
 10
121.544588
 20
176.334166
 30
0.00
  0
VERTEX
  8
038691-1ROU1_GBR
 10
121.510552
 20
176.592992
 30
0.00
  0
VERTEX
  8
038691-1ROU1_GBR
 10
121.41073
 20
176.834292
 30
0.00
  0
VERTEX
  8
038691-1ROU1_GBR
 10
121.251726
 20
177.041302
 30
0.00
  0
VERTEX
  8
038691-1ROU1_GBR
 10
121.044716
 20
177.200306
 30
0.00
  0
VERTEX
  8
038691-1ROU1_GBR
 10
120.803416
 20
177.300128
 30
0.00
  0
VERTEX
  8
038691-1ROU1_GBR
 10
120.54459
 20
177.334164
 30
0.00
  0
VERTEX
  8
038691-1ROU1_GBR
 10
120.294654
 20
177.334164
 30
0.00
  0
VERTEX
  8
038691-1ROU1_GBR
 10
119.794528
 20
177.83429
 30
0.00
  0
VERTEX
  8
038691-1ROU1_GBR
 10
119.794528
 20
277.334218
 30
0.00
  0
VERTEX
  8
038691-1ROU1_GBR
 10
120.294654
 20
277.834344
 30
0.00
  0
VERTEX
  8
038691-1ROU1_GBR
 10
122.794522
 20
277.834344
 30
0.00
  0
VERTEX
  8
038691-1ROU1_GBR
 10
123.053348
 20
277.86838
 30
0.00
  0
VERTEX
  8
038691-1ROU1_GBR
 10
123.294648
 20
277.968202
 30
0.00
  0
VERTEX
  8
038691-1ROU1_GBR
 10
123.501658
 20
278.127206
 30
0.00
  0
VERTEX
  8
038691-1ROU1_GBR
 10
123.660662
 20
278.334216
 30
0.00
  0
VERTEX
  8
038691-1ROU1_GBR
 10
123.760484
 20
278.575516
 30
0.00
  0
VERTEX
  8
038691-1ROU1_GBR
 10
123.79452
 20
278.834342
 30
0.00
  0
VERTEX
  8
038691-1ROU1_GBR
 10
123.760484
 20
279.093168
 30
0.00
  0
VERTEX
  8
038691-1ROU1_GBR
 10
123.660662
 20
279.334214
 30
0.00
  0
VERTEX
  8
038691-1ROU1_GBR
 10
123.501658
 20
279.541224
 30
0.00
  0
VERTEX
  8
038691-1ROU1_GBR
 10
123.294648
 20
279.700228
 30
0.00
  0
VERTEX
  8
038691-1ROU1_GBR
 10
123.053348
 20
279.80005
 30
0.00
  0
VERTEX
  8
038691-1ROU1_GBR
 10
122.794496
 20
279.83434
 30
0.00
  0
VERTEX
  8
038691-1ROU1_GBR
 10
119.794528
 20
279.83434
 30
0.00
  0
VERTEX
  8
038691-1ROU1_GBR
 10
119.794528
 20
288.63417
 30
0.00
  0
VERTEX
  8
038691-1ROU1_GBR
 10
122.794522
 20
288.63417
 30
0.00
  0
VERTEX
  8
038691-1ROU1_GBR
 10
123.053348
 20
288.668206
 30
0.00
  0
VERTEX
  8
038691-1ROU1_GBR
 10
123.294648
 20
288.768282
 30
0.00
  0
VERTEX
  8
038691-1ROU1_GBR
 10
123.501658
 20
288.927032
 30
0.00
  0
VERTEX
  8
038691-1ROU1_GBR
 10
123.660662
 20
289.134296
 30
0.00
  0
VERTEX
  8
038691-1ROU1_GBR
 10
123.760484
 20
289.375342
 30
0.00
  0
VERTEX
  8
038691-1ROU1_GBR
 10
123.79452
 20
289.634168
 30
0.00
  0
VERTEX
  8
038691-1ROU1_GBR
 10
123.760484
 20
289.892994
 30
0.00
  0
VERTEX
  8
038691-1ROU1_GBR
 10
123.660662
 20
290.134294
 30
0.00
  0
VERTEX
  8
038691-1ROU1_GBR
 10
123.501658
 20
290.341304
 30
0.00
  0
VERTEX
  8
038691-1ROU1_GBR
 10
123.294648
 20
290.500308
 30
0.00
  0
VERTEX
  8
038691-1ROU1_GBR
 10
123.053348
 20
290.60013
 30
0.00
  0
VERTEX
  8
038691-1ROU1_GBR
 10
122.794522
 20
290.634166
 30
0.00
  0
VERTEX
  8
038691-1ROU1_GBR
 10
119.794528
 20
290.634166
 30
0.00
  0
VERTEX
  8
038691-1ROU1_GBR
 10
119.794528
 20
294.334184
 30
0.00
  0
VERTEX
  8
038691-1ROU1_GBR
 10
119.818582
 20
294.599284
 30
0.00
  0
VERTEX
  8
038691-1ROU1_GBR
 10
119.884952
 20
294.847264
 30
0.00
  0
VERTEX
  8
038691-1ROU1_GBR
 10
119.998186
 20
295.087802
 30
0.00
  0
VERTEX
  8
038691-1ROU1_GBR
 10
120.148884
 20
295.301696
 30
0.00
  0
VERTEX
  8
038691-1ROU1_GBR
 10
120.334152
 20
295.485846
 30
0.00
  0
VERTEX
  8
038691-1ROU1_GBR
 10
120.549162
 20
295.635528
 30
0.00
  0
VERTEX
  8
038691-1ROU1_GBR
 10
120.786068
 20
295.745078
 30
0.00
  0
VERTEX
  8
038691-1ROU1_GBR
 10
121.038162
 20
295.811804
 30
0.00
  0
VERTEX
  8
038691-1ROU1_GBR
 10
121.294626
 20
295.834308
 30
0.00
  0
VERTEX
  8
038691-1ROU1_GBR
 10
329.294516
 20
295.834308
 30
0.00
  0
SEQEND
  0
ENDSEC
  0
EOF
