  0
SECTION
  2
HEADER
  9
$EXTMIN
 10
-258.359834
 20
-58.010602
 30
0.00
  9
$EXTMAX
 10
470.00
 20
419.20
 30
0.00
  0
ENDSEC
  0
SECTION
  2
TABLES
  0
TABLE
  2
LTYPE
 70
3
  0
LTYPE
  2
BYBLOCK
 70
0
  3

 72
65
 73
0
 40
0.00
  0
LTYPE
  2
BYLAYER
 70
0
  3

 72
65
 73
0
 40
0.00
  0
LTYPE
  2
CONTINUOUS
 70
0
  3
Solid line
 72
65
 73
0
 40
0.00
  0
ENDTAB
  0
TABLE
  2
LAYER
 70
99
  0
LAYER
  2
0
 70
0
 62
7
  6
CONTINUOUS
  0
LAYER
  2
020671-1ROU1_GBR
 70
0
 62
7
  6
CONTINUOUS
  0
LAYER
  2
027417-3ROU1_GBR
 70
0
 62
7
  6
CONTINUOUS
  0
LAYER
  2
027419-1ROU1_GBR
 70
0
 62
2
  6
CONTINUOUS
  0
LAYER
  2
027419-2ROU1_GBR
 70
0
 62
6
  6
CONTINUOUS
  0
LAYER
  2
027674-1ROU1_GBR
 70
0
 62
1
  6
CONTINUOUS
  0
LAYER
  2
027676-1ROU1_GBR
 70
0
 62
4
  6
CONTINUOUS
  0
LAYER
  2
027678-3ROU1_GBR
 70
0
 62
3
  6
CONTINUOUS
  0
LAYER
  2
028122-1ROU1_GBR
 70
0
 62
5
  6
CONTINUOUS
  0
LAYER
  2
028124-5ROU1_GBR
 70
0
 62
10
  6
CONTINUOUS
  0
LAYER
  2
028126-1ROU1_GBR
 70
0
 62
14
  6
CONTINUOUS
  0
LAYER
  2
028126-3ROU1_GBR
 70
0
 62
9
  6
CONTINUOUS
  0
LAYER
  2
028126-6ROU1_GBR
 70
0
 62
12
  6
CONTINUOUS
  0
LAYER
  2
028126-7ROU1_GBR
 70
0
 62
11
  6
CONTINUOUS
  0
LAYER
  2
028129-1ROU1_GBR
 70
0
 62
13
  6
CONTINUOUS
  0
LAYER
  2
028130-1ROU1_GBR
 70
0
 62
8
  6
CONTINUOUS
  0
LAYER
  2
028130-4ROU1_GBR
 70
0
 62
15
  6
CONTINUOUS
  0
LAYER
  2
028130-5ROU1_GBR
 70
0
 62
7
  6
CONTINUOUS
  0
LAYER
  2
028130-7ROU1_GBR
 70
0
 62
7
  6
CONTINUOUS
  0
LAYER
  2
028655-1ROU1_GBR
 70
0
 62
2
  6
CONTINUOUS
  0
LAYER
  2
028657-1ROU1_GBR
 70
0
 62
6
  6
CONTINUOUS
  0
LAYER
  2
028659-2ROU1_GBR
 70
0
 62
1
  6
CONTINUOUS
  0
LAYER
  2
028659-4ROU1_GBR
 70
0
 62
4
  6
CONTINUOUS
  0
LAYER
  2
028661-1ROU1_GBR
 70
0
 62
3
  6
CONTINUOUS
  0
LAYER
  2
028663-1ROU1_GBR
 70
0
 62
5
  6
CONTINUOUS
  0
LAYER
  2
028665-1ROU1_GBR
 70
0
 62
10
  6
CONTINUOUS
  0
LAYER
  2
028669-1ROU1_GBR
 70
0
 62
14
  6
CONTINUOUS
  0
LAYER
  2
028673-2ROU1_GBR
 70
0
 62
9
  6
CONTINUOUS
  0
LAYER
  2
037088-3ROU1_GBR
 70
0
 62
12
  6
CONTINUOUS
  0
LAYER
  2
037682-1ROU1_GBR
 70
0
 62
11
  6
CONTINUOUS
  0
LAYER
  2
037686-1ROU1_GBR
 70
0
 62
13
  6
CONTINUOUS
  0
LAYER
  2
037688-1ROU1_GBR
 70
0
 62
8
  6
CONTINUOUS
  0
LAYER
  2
038681-1ROU1_GBR
 70
0
 62
15
  6
CONTINUOUS
  0
LAYER
  2
038683-1ROU1_GBR
 70
0
 62
7
  6
CONTINUOUS
  0
LAYER
  2
038683-2ROU1_GBR
 70
0
 62
7
  6
CONTINUOUS
  0
LAYER
  2
038685-1ROU1_GBR
 70
0
 62
2
  6
CONTINUOUS
  0
LAYER
  2
038689-1ROU1_GBR
 70
0
 62
6
  6
CONTINUOUS
  0
LAYER
  2
038689-2ROU1_GBR
 70
0
 62
1
  6
CONTINUOUS
  0
LAYER
  2
038691-1ROU1_GBR
 70
0
 62
4
  6
CONTINUOUS
  0
LAYER
  2
038691-2ROU1_GBR
 70
0
 62
3
  6
CONTINUOUS
  0
LAYER
  2
038691-3ROU1_GBR
 70
0
 62
5
  6
CONTINUOUS
  0
LAYER
  2
038691-4ROU1_GBR
 70
0
 62
10
  6
CONTINUOUS
  0
LAYER
  2
038693-1ROU1_GBR
 70
0
 62
14
  6
CONTINUOUS
  0
LAYER
  2
038695-1ROU1_GBR
 70
0
 62
9
  6
CONTINUOUS
  0
LAYER
  2
038697-1ROU1_GBR
 70
0
 62
12
  6
CONTINUOUS
  0
LAYER
  2
038697-3ROU1_GBR
 70
0
 62
11
  6
CONTINUOUS
  0
LAYER
  2
038697-4ROU1_GBR
 70
0
 62
13
  6
CONTINUOUS
  0
LAYER
  2
038697-5ROU1_GBR
 70
0
 62
8
  6
CONTINUOUS
  0
LAYER
  2
047706-4ROU1_GBR
 70
0
 62
15
  6
CONTINUOUS
  0
LAYER
  2
047706-5ROU1_GBR
 70
0
 62
7
  6
CONTINUOUS
  0
LAYER
  2
047706-6ROU1_GBR
 70
0
 62
7
  6
CONTINUOUS
  0
LAYER
  2
047708-1ROU1_GBR
 70
0
 62
2
  6
CONTINUOUS
  0
LAYER
  2
047710-1ROU1_GBR
 70
0
 62
6
  6
CONTINUOUS
  0
LAYER
  2
047712-1ROU1_GBR
 70
0
 62
1
  6
CONTINUOUS
  0
LAYER
  2
047714-2ROU1_GBR
 70
0
 62
4
  6
CONTINUOUS
  0
LAYER
  2
048701-1ROU1_GBR
 70
0
 62
3
  6
CONTINUOUS
  0
LAYER
  2
048703-1ROU1_GBR
 70
0
 62
10
  6
CONTINUOUS
  0
LAYER
  2
048711-1ROU1_GBR
 70
0
 62
14
  6
CONTINUOUS
  0
LAYER
  2
048715-1ROU1_GBR
 70
0
 62
9
  6
CONTINUOUS
  0
LAYER
  2
058721-2ROU1_GBR
 70
0
 62
12
  6
CONTINUOUS
  0
LAYER
  2
058723-10ROU1_GBR
 70
0
 62
11
  6
CONTINUOUS
  0
LAYER
  2
058723-1ROU1_GBR
 70
0
 62
13
  6
CONTINUOUS
  0
LAYER
  2
058723-6ROU1_GBR
 70
0
 62
8
  6
CONTINUOUS
  0
LAYER
  2
058723-9ROU1_GBR
 70
0
 62
15
  6
CONTINUOUS
  0
LAYER
  2
067601-1ROU1_GBR
 70
0
 62
7
  6
CONTINUOUS
  0
LAYER
  2
068162-1ROU1_GBR
 70
0
 62
7
  6
CONTINUOUS
  0
LAYER
  2
068162-3ROU1_GBR
 70
0
 62
2
  6
CONTINUOUS
  0
LAYER
  2
068162-4ROU1_GBR
 70
0
 62
6
  6
CONTINUOUS
  0
LAYER
  2
077742-1ROU1_GBR
 70
0
 62
1
  6
CONTINUOUS
  0
LAYER
  2
078731-1ROU1_GBR
 70
0
 62
4
  6
CONTINUOUS
  0
LAYER
  2
078735-3ROU1_GBR
 70
0
 62
3
  6
CONTINUOUS
  0
LAYER
  2
078739-1ROU1_GBR
 70
0
 62
5
  6
CONTINUOUS
  0
LAYER
  2
078753-1ROU1_GBR
 70
0
 62
10
  6
CONTINUOUS
  0
LAYER
  2
078757-1ROU1_GBR
 70
0
 62
14
  6
CONTINUOUS
  0
LAYER
  2
087768-2ROU1_GBR
 70
0
 62
9
  6
CONTINUOUS
  0
LAYER
  2
087772-1ROU1_GBR
 70
0
 62
12
  6
CONTINUOUS
  0
LAYER
  2
087780-1ROU1_GBR
 70
0
 62
11
  6
CONTINUOUS
  0
LAYER
  2
087782-9ROU1_GBR
 70
0
 62
13
  6
CONTINUOUS
  0
LAYER
  2
088783-4ROU1_GBR
 70
0
 62
8
  6
CONTINUOUS
  0
LAYER
  2
088785-1ROU1_GBR
 70
0
 62
15
  6
CONTINUOUS
  0
LAYER
  2
097800-6ROU1_GBR
 70
0
 62
7
  6
CONTINUOUS
  0
LAYER
  2
097810-1ROU1_GBR
 70
0
 62
7
  6
CONTINUOUS
  0
LAYER
  2
098787-1ROU1_GBR
 70
0
 62
2
  6
CONTINUOUS
  0
LAYER
  2
098787-2ROU1_GBR
 70
0
 62
6
  6
CONTINUOUS
  0
LAYER
  2
098789-1ROU1_GBR
 70
0
 62
1
  6
CONTINUOUS
  0
LAYER
  2
098811-1ROU1_GBR
 70
0
 62
4
  6
CONTINUOUS
  0
LAYER
  2
098815-1ROU1_GBR
 70
0
 62
3
  6
CONTINUOUS
  0
LAYER
  2
098815-2ROU1_GBR
 70
0
 62
5
  6
CONTINUOUS
  0
LAYER
  2
107824-1ROU1_GBR
 70
0
 62
10
  6
CONTINUOUS
  0
LAYER
  2
118200-1ROU1_GBR
 70
0
 62
14
  6
CONTINUOUS
  0
LAYER
  2
257017-1ROU1_GBR
 70
0
 62
9
  6
CONTINUOUS
  0
LAYER
  2
268076-7ROU1_GBR
 70
0
 62
12
  6
CONTINUOUS
  0
LAYER
  2
288088-1ROU1_GBR
 70
0
 62
11
  6
CONTINUOUS
  0
LAYER
  2
307251-1ROU1_GBR
 70
0
 62
13
  6
CONTINUOUS
  0
LAYER
  2
307273-4ROU1_GBR
 70
0
 62
8
  6
CONTINUOUS
  0
LAYER
  2
307283-1ROU1_GBR
 70
0
 62
15
  6
CONTINUOUS
  0
LAYER
  2
307291-1ROU1_GBR
 70
0
 62
7
  6
CONTINUOUS
  0
LAYER
  2
308108-1ROU1_GBR
 70
0
 62
7
  6
CONTINUOUS
  0
LAYER
  2
308111-1ROU1_GBR
 70
0
 62
2
  6
CONTINUOUS
  0
LAYER
  2
308112-1ROU1_GBR
 70
0
 62
6
  6
CONTINUOUS
  0
ENDTAB
  0
TABLE
  2
STYLE
 70
0
  0
ENDTAB
  0
ENDSEC
  0
SECTION
  2
BLOCKS
  0
BLOCK
  2
ROUND_1
  3
ROUND_1
 70
64
 10
0.00
 20
0.00
 30
0.00
  0
CIRCLE
  8
0
 10
0.00
 20
0.00
 30
0.00
 40
0.10
  0
ENDBLK
  0
ENDSEC
  0
SECTION
  2
ENTITIES
  0
POLYLINE
  8
038691-2ROU1_GBR
 66
1
 10
0.00
 20
0.00
 30
0.00
 40
0.20
 41
0.20
  0
VERTEX
  8
038691-2ROU1_GBR
 10
308.737
 20
332.134718
 30
0.00
  0
VERTEX
  8
038691-2ROU1_GBR
 10
308.737
 20
327.409886
 30
0.00
  0
VERTEX
  8
038691-2ROU1_GBR
 10
307.321078
 20
327.409886
 30
0.00
  0
VERTEX
  8
038691-2ROU1_GBR
 10
308.201696
 20
326.902344
 30
0.00
  0
VERTEX
  8
038691-2ROU1_GBR
 10
308.392094
 20
326.732798
 30
0.00
  0
VERTEX
  8
038691-2ROU1_GBR
 10
308.535298
 20
326.546464
 30
0.00
  0
VERTEX
  8
038691-2ROU1_GBR
 10
308.656278
 20
326.302498
 30
0.00
  0
VERTEX
  8
038691-2ROU1_GBR
 10
308.71767
 20
326.073644
 30
0.00
  0
VERTEX
  8
038691-2ROU1_GBR
 10
308.737
 20
325.825054
 30
0.00
  0
VERTEX
  8
038691-2ROU1_GBR
 10
308.737
 20
306.109878
 30
0.00
  0
VERTEX
  8
038691-2ROU1_GBR
 10
315.921136
 20
306.109878
 30
0.00
  0
VERTEX
  8
038691-2ROU1_GBR
 10
316.22525
 20
306.068882
 30
0.00
  0
VERTEX
  8
038691-2ROU1_GBR
 10
316.481156
 20
305.981812
 30
0.00
  0
VERTEX
  8
038691-2ROU1_GBR
 10
316.701652
 20
305.8525
 30
0.00
  0
VERTEX
  8
038691-2ROU1_GBR
 10
316.892204
 20
305.682802
 30
0.00
  0
VERTEX
  8
038691-2ROU1_GBR
 10
317.035154
 20
305.496798
 30
0.00
  0
VERTEX
  8
038691-2ROU1_GBR
 10
317.149404
 20
305.269646
 30
0.00
  0
VERTEX
  8
038691-2ROU1_GBR
 10
317.156566
 20
305.25085
 30
0.00
  0
VERTEX
  8
038691-2ROU1_GBR
 10
317.236856
 20
304.937592
 30
0.00
  0
VERTEX
  8
038691-2ROU1_GBR
 10
317.236856
 20
283.739286
 30
0.00
  0
VERTEX
  8
038691-2ROU1_GBR
 10
317.208992
 20
283.646652
 30
0.00
  0
VERTEX
  8
038691-2ROU1_GBR
 10
317.199214
 20
283.59359
 30
0.00
  0
VERTEX
  8
038691-2ROU1_GBR
 10
317.117044
 20
283.357016
 30
0.00
  0
VERTEX
  8
038691-2ROU1_GBR
 10
316.99934
 20
283.152876
 30
0.00
  0
VERTEX
  8
038691-2ROU1_GBR
 10
316.83325
 20
282.960978
 30
0.00
  0
VERTEX
  8
038691-2ROU1_GBR
 10
316.6316
 20
282.803574
 30
0.00
  0
VERTEX
  8
038691-2ROU1_GBR
 10
316.396116
 20
282.685236
 30
0.00
  0
VERTEX
  8
038691-2ROU1_GBR
 10
316.172622
 20
282.625266
 30
0.00
  0
VERTEX
  8
038691-2ROU1_GBR
 10
316.087938
 20
282.622828
 30
0.00
  0
VERTEX
  8
038691-2ROU1_GBR
 10
316.018368
 20
282.609798
 30
0.00
  0
VERTEX
  8
038691-2ROU1_GBR
 10
308.737
 20
282.609798
 30
0.00
  0
VERTEX
  8
038691-2ROU1_GBR
 10
308.737
 20
269.36197
 30
0.00
  0
VERTEX
  8
038691-2ROU1_GBR
 10
308.708172
 20
269.258136
 30
0.00
  0
VERTEX
  8
038691-2ROU1_GBR
 10
308.709136
 20
269.132584
 30
0.00
  0
VERTEX
  8
038691-2ROU1_GBR
 10
308.633318
 20
268.914778
 30
0.00
  0
VERTEX
  8
038691-2ROU1_GBR
 10
308.504184
 20
268.694814
 30
0.00
  0
VERTEX
  8
038691-2ROU1_GBR
 10
308.343046
 20
268.510766
 30
0.00
  0
VERTEX
  8
038691-2ROU1_GBR
 10
308.140862
 20
268.355572
 30
0.00
  0
VERTEX
  8
038691-2ROU1_GBR
 10
307.935808
 20
268.254404
 30
0.00
  0
VERTEX
  8
038691-2ROU1_GBR
 10
307.785948
 20
268.224432
 30
0.00
  0
VERTEX
  8
038691-2ROU1_GBR
 10
307.693188
 20
268.102004
 30
0.00
  0
VERTEX
  8
038691-2ROU1_GBR
 10
307.69311
 20
267.719404
 30
0.00
  0
VERTEX
  8
038691-2ROU1_GBR
 10
307.779192
 20
267.60203
 30
0.00
  0
VERTEX
  8
038691-2ROU1_GBR
 10
307.965144
 20
267.538988
 30
0.00
  0
VERTEX
  8
038691-2ROU1_GBR
 10
308.185388
 20
267.413994
 30
0.00
  0
VERTEX
  8
038691-2ROU1_GBR
 10
308.378606
 20
267.247218
 30
0.00
  0
VERTEX
  8
038691-2ROU1_GBR
 10
308.535222
 20
267.046584
 30
0.00
  0
VERTEX
  8
038691-2ROU1_GBR
 10
308.654196
 20
266.810236
 30
0.00
  0
VERTEX
  8
038691-2ROU1_GBR
 10
308.720872
 20
266.554408
 30
0.00
  0
VERTEX
  8
038691-2ROU1_GBR
 10
308.737
 20
266.32502
 30
0.00
  0
VERTEX
  8
038691-2ROU1_GBR
 10
308.737
 20
246.60987
 30
0.00
  0
VERTEX
  8
038691-2ROU1_GBR
 10
315.921136
 20
246.60987
 30
0.00
  0
VERTEX
  8
038691-2ROU1_GBR
 10
316.22525
 20
246.568874
 30
0.00
  0
VERTEX
  8
038691-2ROU1_GBR
 10
316.481156
 20
246.481804
 30
0.00
  0
VERTEX
  8
038691-2ROU1_GBR
 10
316.701806
 20
246.352364
 30
0.00
  0
VERTEX
  8
038691-2ROU1_GBR
 10
316.886108
 20
246.191024
 30
0.00
  0
VERTEX
  8
038691-2ROU1_GBR
 10
317.045874
 20
245.979492
 30
0.00
  0
VERTEX
  8
038691-2ROU1_GBR
 10
317.156592
 20
245.750766
 30
0.00
  0
VERTEX
  8
038691-2ROU1_GBR
 10
317.236856
 20
245.437584
 30
0.00
  0
VERTEX
  8
038691-2ROU1_GBR
 10
317.236856
 20
224.239278
 30
0.00
  0
VERTEX
  8
038691-2ROU1_GBR
 10
317.208992
 20
224.146644
 30
0.00
  0
VERTEX
  8
038691-2ROU1_GBR
 10
317.199214
 20
224.093582
 30
0.00
  0
VERTEX
  8
038691-2ROU1_GBR
 10
317.117044
 20
223.857008
 30
0.00
  0
VERTEX
  8
038691-2ROU1_GBR
 10
316.988216
 20
223.637476
 30
0.00
  0
VERTEX
  8
038691-2ROU1_GBR
 10
316.826646
 20
223.453452
 30
0.00
  0
VERTEX
  8
038691-2ROU1_GBR
 10
316.632464
 20
223.303972
 30
0.00
  0
VERTEX
  8
038691-2ROU1_GBR
 10
316.404956
 20
223.189596
 30
0.00
  0
VERTEX
  8
038691-2ROU1_GBR
 10
316.172622
 20
223.125258
 30
0.00
  0
VERTEX
  8
038691-2ROU1_GBR
 10
316.087938
 20
223.12282
 30
0.00
  0
VERTEX
  8
038691-2ROU1_GBR
 10
316.018368
 20
223.10979
 30
0.00
  0
VERTEX
  8
038691-2ROU1_GBR
 10
308.737
 20
223.10979
 30
0.00
  0
VERTEX
  8
038691-2ROU1_GBR
 10
308.737
 20
209.861962
 30
0.00
  0
VERTEX
  8
038691-2ROU1_GBR
 10
308.708172
 20
209.758128
 30
0.00
  0
VERTEX
  8
038691-2ROU1_GBR
 10
308.709136
 20
209.632576
 30
0.00
  0
VERTEX
  8
038691-2ROU1_GBR
 10
308.633318
 20
209.41477
 30
0.00
  0
VERTEX
  8
038691-2ROU1_GBR
 10
308.504184
 20
209.194806
 30
0.00
  0
VERTEX
  8
038691-2ROU1_GBR
 10
308.343046
 20
209.010758
 30
0.00
  0
VERTEX
  8
038691-2ROU1_GBR
 10
308.140862
 20
208.855564
 30
0.00
  0
VERTEX
  8
038691-2ROU1_GBR
 10
307.935808
 20
208.754396
 30
0.00
  0
VERTEX
  8
038691-2ROU1_GBR
 10
307.785922
 20
208.724424
 30
0.00
  0
VERTEX
  8
038691-2ROU1_GBR
 10
307.693212
 20
208.602022
 30
0.00
  0
VERTEX
  8
038691-2ROU1_GBR
 10
307.69311
 20
208.219422
 30
0.00
  0
VERTEX
  8
038691-2ROU1_GBR
 10
307.779192
 20
208.102022
 30
0.00
  0
VERTEX
  8
038691-2ROU1_GBR
 10
307.967736
 20
208.038116
 30
0.00
  0
VERTEX
  8
038691-2ROU1_GBR
 10
308.185566
 20
207.913884
 30
0.00
  0
VERTEX
  8
038691-2ROU1_GBR
 10
308.378302
 20
207.74749
 30
0.00
  0
VERTEX
  8
038691-2ROU1_GBR
 10
308.535298
 20
207.546448
 30
0.00
  0
VERTEX
  8
038691-2ROU1_GBR
 10
308.654196
 20
207.310228
 30
0.00
  0
VERTEX
  8
038691-2ROU1_GBR
 10
308.720872
 20
207.0544
 30
0.00
  0
VERTEX
  8
038691-2ROU1_GBR
 10
308.737
 20
206.825012
 30
0.00
  0
VERTEX
  8
038691-2ROU1_GBR
 10
308.737
 20
187.109862
 30
0.00
  0
VERTEX
  8
038691-2ROU1_GBR
 10
315.921416
 20
187.109862
 30
0.00
  0
VERTEX
  8
038691-2ROU1_GBR
 10
316.24176
 20
187.064752
 30
0.00
  0
VERTEX
  8
038691-2ROU1_GBR
 10
316.467846
 20
186.98812
 30
0.00
  0
VERTEX
  8
038691-2ROU1_GBR
 10
316.68565
 20
186.863888
 30
0.00
  0
VERTEX
  8
038691-2ROU1_GBR
 10
316.886082
 20
186.691016
 30
0.00
  0
VERTEX
  8
038691-2ROU1_GBR
 10
317.041276
 20
186.488806
 30
0.00
  0
VERTEX
  8
038691-2ROU1_GBR
 10
317.156618
 20
186.250682
 30
0.00
  0
VERTEX
  8
038691-2ROU1_GBR
 10
317.236856
 20
185.937576
 30
0.00
  0
VERTEX
  8
038691-2ROU1_GBR
 10
317.236856
 20
164.73927
 30
0.00
  0
VERTEX
  8
038691-2ROU1_GBR
 10
317.209018
 20
164.646686
 30
0.00
  0
VERTEX
  8
038691-2ROU1_GBR
 10
317.199214
 20
164.593574
 30
0.00
  0
VERTEX
  8
038691-2ROU1_GBR
 10
317.122048
 20
164.36594
 30
0.00
  0
VERTEX
  8
038691-2ROU1_GBR
 10
316.994794
 20
164.14496
 30
0.00
  0
VERTEX
  8
038691-2ROU1_GBR
 10
316.826646
 20
163.953444
 30
0.00
  0
VERTEX
  8
038691-2ROU1_GBR
 10
316.615446
 20
163.793424
 30
0.00
  0
VERTEX
  8
038691-2ROU1_GBR
 10
316.404828
 20
163.689512
 30
0.00
  0
VERTEX
  8
038691-2ROU1_GBR
 10
316.172622
 20
163.62525
 30
0.00
  0
VERTEX
  8
038691-2ROU1_GBR
 10
316.087938
 20
163.622812
 30
0.00
  0
VERTEX
  8
038691-2ROU1_GBR
 10
316.018368
 20
163.609782
 30
0.00
  0
VERTEX
  8
038691-2ROU1_GBR
 10
308.737
 20
163.609782
 30
0.00
  0
VERTEX
  8
038691-2ROU1_GBR
 10
308.737
 20
150.361954
 30
0.00
  0
VERTEX
  8
038691-2ROU1_GBR
 10
308.708172
 20
150.25812
 30
0.00
  0
VERTEX
  8
038691-2ROU1_GBR
 10
308.709136
 20
150.132568
 30
0.00
  0
VERTEX
  8
038691-2ROU1_GBR
 10
308.64109
 20
149.93178
 30
0.00
  0
VERTEX
  8
038691-2ROU1_GBR
 10
308.515944
 20
149.711206
 30
0.00
  0
VERTEX
  8
038691-2ROU1_GBR
 10
308.349904
 20
149.518574
 30
0.00
  0
VERTEX
  8
038691-2ROU1_GBR
 10
308.33502
 20
149.504604
 30
0.00
  0
VERTEX
  8
038691-2ROU1_GBR
 10
308.131998
 20
149.351188
 30
0.00
  0
VERTEX
  8
038691-2ROU1_GBR
 10
307.935808
 20
149.254388
 30
0.00
  0
VERTEX
  8
038691-2ROU1_GBR
 10
307.785922
 20
149.224416
 30
0.00
  0
VERTEX
  8
038691-2ROU1_GBR
 10
307.693188
 20
149.102014
 30
0.00
  0
VERTEX
  8
038691-2ROU1_GBR
 10
307.69311
 20
148.719414
 30
0.00
  0
VERTEX
  8
038691-2ROU1_GBR
 10
307.779192
 20
148.602014
 30
0.00
  0
VERTEX
  8
038691-2ROU1_GBR
 10
307.967736
 20
148.538108
 30
0.00
  0
VERTEX
  8
038691-2ROU1_GBR
 10
308.186024
 20
148.413622
 30
0.00
  0
VERTEX
  8
038691-2ROU1_GBR
 10
308.385972
 20
148.241004
 30
0.00
  0
VERTEX
  8
038691-2ROU1_GBR
 10
308.5354
 20
148.046338
 30
0.00
  0
VERTEX
  8
038691-2ROU1_GBR
 10
308.654196
 20
147.81022
 30
0.00
  0
VERTEX
  8
038691-2ROU1_GBR
 10
308.720872
 20
147.554392
 30
0.00
  0
VERTEX
  8
038691-2ROU1_GBR
 10
308.737
 20
147.325004
 30
0.00
  0
VERTEX
  8
038691-2ROU1_GBR
 10
308.737
 20
127.609854
 30
0.00
  0
VERTEX
  8
038691-2ROU1_GBR
 10
315.921136
 20
127.609854
 30
0.00
  0
VERTEX
  8
038691-2ROU1_GBR
 10
316.240566
 20
127.56515
 30
0.00
  0
VERTEX
  8
038691-2ROU1_GBR
 10
316.473586
 20
127.486156
 30
0.00
  0
VERTEX
  8
038691-2ROU1_GBR
 10
316.70183
 20
127.352324
 30
0.00
  0
VERTEX
  8
038691-2ROU1_GBR
 10
316.892204
 20
127.182778
 30
0.00
  0
VERTEX
  8
038691-2ROU1_GBR
 10
317.035154
 20
126.996774
 30
0.00
  0
VERTEX
  8
038691-2ROU1_GBR
 10
317.149328
 20
126.769826
 30
0.00
  0
VERTEX
  8
038691-2ROU1_GBR
 10
317.156542
 20
126.751004
 30
0.00
  0
VERTEX
  8
038691-2ROU1_GBR
 10
317.236856
 20
126.437568
 30
0.00
  0
VERTEX
  8
038691-2ROU1_GBR
 10
317.236856
 20
105.239262
 30
0.00
  0
VERTEX
  8
038691-2ROU1_GBR
 10
317.209018
 20
105.146678
 30
0.00
  0
VERTEX
  8
038691-2ROU1_GBR
 10
317.199214
 20
105.093566
 30
0.00
  0
VERTEX
  8
038691-2ROU1_GBR
 10
317.122048
 20
104.865932
 30
0.00
  0
VERTEX
  8
038691-2ROU1_GBR
 10
316.994794
 20
104.644952
 30
0.00
  0
VERTEX
  8
038691-2ROU1_GBR
 10
316.819102
 20
104.447644
 30
0.00
  0
VERTEX
  8
038691-2ROU1_GBR
 10
316.616384
 20
104.294128
 30
0.00
  0
VERTEX
  8
038691-2ROU1_GBR
 10
316.396116
 20
104.185212
 30
0.00
  0
VERTEX
  8
038691-2ROU1_GBR
 10
316.172646
 20
104.125242
 30
0.00
  0
VERTEX
  8
038691-2ROU1_GBR
 10
316.087938
 20
104.122804
 30
0.00
  0
VERTEX
  8
038691-2ROU1_GBR
 10
316.018368
 20
104.109774
 30
0.00
  0
VERTEX
  8
038691-2ROU1_GBR
 10
308.737
 20
104.109774
 30
0.00
  0
VERTEX
  8
038691-2ROU1_GBR
 10
308.737
 20
90.861946
 30
0.00
  0
VERTEX
  8
038691-2ROU1_GBR
 10
308.708172
 20
90.758112
 30
0.00
  0
VERTEX
  8
038691-2ROU1_GBR
 10
308.709136
 20
90.63256
 30
0.00
  0
VERTEX
  8
038691-2ROU1_GBR
 10
308.64109
 20
90.431772
 30
0.00
  0
VERTEX
  8
038691-2ROU1_GBR
 10
308.515944
 20
90.211198
 30
0.00
  0
VERTEX
  8
038691-2ROU1_GBR
 10
308.349904
 20
90.018566
 30
0.00
  0
VERTEX
  8
038691-2ROU1_GBR
 10
308.33502
 20
90.004596
 30
0.00
  0
VERTEX
  8
038691-2ROU1_GBR
 10
308.131998
 20
89.85118
 30
0.00
  0
VERTEX
  8
038691-2ROU1_GBR
 10
307.186966
 20
89.384962
 30
0.00
  0
VERTEX
  8
038691-2ROU1_GBR
 10
308.737
 20
89.384962
 30
0.00
  0
VERTEX
  8
038691-2ROU1_GBR
 10
308.737
 20
84.634832
 30
0.00
  0
VERTEX
  8
038691-2ROU1_GBR
 10
201.236834
 20
84.634832
 30
0.00
  0
VERTEX
  8
038691-2ROU1_GBR
 10
201.236834
 20
89.384962
 30
0.00
  0
VERTEX
  8
038691-2ROU1_GBR
 10
202.930126
 20
89.384962
 30
0.00
  0
VERTEX
  8
038691-2ROU1_GBR
 10
202.943054
 20
89.463168
 30
0.00
  0
VERTEX
  8
038691-2ROU1_GBR
 10
202.000358
 20
89.783666
 30
0.00
  0
VERTEX
  8
038691-2ROU1_GBR
 10
201.788318
 20
89.905916
 30
0.00
  0
VERTEX
  8
038691-2ROU1_GBR
 10
201.595686
 20
90.071956
 30
0.00
  0
VERTEX
  8
038691-2ROU1_GBR
 10
201.58169
 20
90.08684
 30
0.00
  0
VERTEX
  8
038691-2ROU1_GBR
 10
201.428224
 20
90.28999
 30
0.00
  0
VERTEX
  8
038691-2ROU1_GBR
 10
201.317656
 20
90.5177
 30
0.00
  0
VERTEX
  8
038691-2ROU1_GBR
 10
201.257154
 20
90.743152
 30
0.00
  0
VERTEX
  8
038691-2ROU1_GBR
 10
201.236834
 20
90.855572
 30
0.00
  0
VERTEX
  8
038691-2ROU1_GBR
 10
201.236834
 20
147.325258
 30
0.00
  0
VERTEX
  8
038691-2ROU1_GBR
 10
201.24067
 20
147.365746
 30
0.00
  0
VERTEX
  8
038691-2ROU1_GBR
 10
201.238916
 20
147.425816
 30
0.00
  0
VERTEX
  8
038691-2ROU1_GBR
 10
201.273308
 20
147.672094
 30
0.00
  0
VERTEX
  8
038691-2ROU1_GBR
 10
201.34994
 20
147.898206
 30
0.00
  0
VERTEX
  8
038691-2ROU1_GBR
 10
201.47407
 20
148.115858
 30
0.00
  0
VERTEX
  8
038691-2ROU1_GBR
 10
201.640034
 20
148.308188
 30
0.00
  0
VERTEX
  8
038691-2ROU1_GBR
 10
201.654868
 20
148.322208
 30
0.00
  0
VERTEX
  8
038691-2ROU1_GBR
 10
201.84115
 20
148.465414
 30
0.00
  0
VERTEX
  8
038691-2ROU1_GBR
 10
202.05662
 20
148.573948
 30
0.00
  0
VERTEX
  8
038691-2ROU1_GBR
 10
202.192864
 20
148.604834
 30
0.00
  0
VERTEX
  8
038691-2ROU1_GBR
 10
202.280724
 20
148.71479
 30
0.00
  0
VERTEX
  8
038691-2ROU1_GBR
 10
202.280648
 20
149.10021
 30
0.00
  0
VERTEX
  8
038691-2ROU1_GBR
 10
202.194668
 20
149.217608
 30
0.00
  0
VERTEX
  8
038691-2ROU1_GBR
 10
202.000358
 20
149.283674
 30
0.00
  0
VERTEX
  8
038691-2ROU1_GBR
 10
201.771886
 20
149.417736
 30
0.00
  0
VERTEX
  8
038691-2ROU1_GBR
 10
201.58169
 20
149.586874
 30
0.00
  0
VERTEX
  8
038691-2ROU1_GBR
 10
201.428224
 20
149.789998
 30
0.00
  0
VERTEX
  8
038691-2ROU1_GBR
 10
201.317656
 20
150.017708
 30
0.00
  0
VERTEX
  8
038691-2ROU1_GBR
 10
201.257154
 20
150.24316
 30
0.00
  0
VERTEX
  8
038691-2ROU1_GBR
 10
201.236834
 20
150.35558
 30
0.00
  0
VERTEX
  8
038691-2ROU1_GBR
 10
201.236834
 20
206.825266
 30
0.00
  0
VERTEX
  8
038691-2ROU1_GBR
 10
201.24067
 20
206.865754
 30
0.00
  0
VERTEX
  8
038691-2ROU1_GBR
 10
201.238942
 20
206.925824
 30
0.00
  0
VERTEX
  8
038691-2ROU1_GBR
 10
201.269194
 20
207.15539
 30
0.00
  0
VERTEX
  8
038691-2ROU1_GBR
 10
201.348644
 20
207.394352
 30
0.00
  0
VERTEX
  8
038691-2ROU1_GBR
 10
201.474222
 20
207.61617
 30
0.00
  0
VERTEX
  8
038691-2ROU1_GBR
 10
201.647044
 20
207.816196
 30
0.00
  0
VERTEX
  8
038691-2ROU1_GBR
 10
201.858246
 20
207.976088
 30
0.00
  0
VERTEX
  8
038691-2ROU1_GBR
 10
202.05662
 20
208.073956
 30
0.00
  0
VERTEX
  8
038691-2ROU1_GBR
 10
202.19294
 20
208.104842
 30
0.00
  0
VERTEX
  8
038691-2ROU1_GBR
 10
202.280724
 20
208.214874
 30
0.00
  0
VERTEX
  8
038691-2ROU1_GBR
 10
202.280648
 20
208.600268
 30
0.00
  0
VERTEX
  8
038691-2ROU1_GBR
 10
202.194668
 20
208.717566
 30
0.00
  0
VERTEX
  8
038691-2ROU1_GBR
 10
201.991874
 20
208.78833
 30
0.00
  0
VERTEX
  8
038691-2ROU1_GBR
 10
201.788014
 20
208.906084
 30
0.00
  0
VERTEX
  8
038691-2ROU1_GBR
 10
201.587862
 20
209.07883
 30
0.00
  0
VERTEX
  8
038691-2ROU1_GBR
 10
201.428224
 20
209.290006
 30
0.00
  0
VERTEX
  8
038691-2ROU1_GBR
 10
201.324006
 20
209.501028
 30
0.00
  0
VERTEX
  8
038691-2ROU1_GBR
 10
201.257154
 20
209.743192
 30
0.00
  0
VERTEX
  8
038691-2ROU1_GBR
 10
201.236834
 20
209.855588
 30
0.00
  0
VERTEX
  8
038691-2ROU1_GBR
 10
201.236834
 20
266.325274
 30
0.00
  0
VERTEX
  8
038691-2ROU1_GBR
 10
201.24067
 20
266.365762
 30
0.00
  0
VERTEX
  8
038691-2ROU1_GBR
 10
201.238942
 20
266.425832
 30
0.00
  0
VERTEX
  8
038691-2ROU1_GBR
 10
201.269194
 20
266.655398
 30
0.00
  0
VERTEX
  8
038691-2ROU1_GBR
 10
201.348644
 20
266.89436
 30
0.00
  0
VERTEX
  8
038691-2ROU1_GBR
 10
201.474146
 20
267.116002
 30
0.00
  0
VERTEX
  8
038691-2ROU1_GBR
 10
201.640186
 20
267.308634
 30
0.00
  0
VERTEX
  8
038691-2ROU1_GBR
 10
201.65507
 20
267.322604
 30
0.00
  0
VERTEX
  8
038691-2ROU1_GBR
 10
201.858092
 20
267.47602
 30
0.00
  0
VERTEX
  8
038691-2ROU1_GBR
 10
202.05662
 20
267.573964
 30
0.00
  0
VERTEX
  8
038691-2ROU1_GBR
 10
202.19294
 20
267.60485
 30
0.00
  0
VERTEX
  8
038691-2ROU1_GBR
 10
202.280724
 20
267.714882
 30
0.00
  0
VERTEX
  8
038691-2ROU1_GBR
 10
202.280648
 20
268.100252
 30
0.00
  0
VERTEX
  8
038691-2ROU1_GBR
 10
202.194668
 20
268.217574
 30
0.00
  0
VERTEX
  8
038691-2ROU1_GBR
 10
201.991824
 20
268.288364
 30
0.00
  0
VERTEX
  8
038691-2ROU1_GBR
 10
201.779632
 20
268.410944
 30
0.00
  0
VERTEX
  8
038691-2ROU1_GBR
 10
201.595406
 20
268.572234
 30
0.00
  0
VERTEX
  8
038691-2ROU1_GBR
 10
201.438358
 20
268.773606
 30
0.00
  0
VERTEX
  8
038691-2ROU1_GBR
 10
201.32449
 20
269.000046
 30
0.00
  0
VERTEX
  8
038691-2ROU1_GBR
 10
201.317402
 20
269.01869
 30
0.00
  0
VERTEX
  8
038691-2ROU1_GBR
 10
201.257154
 20
269.243176
 30
0.00
  0
VERTEX
  8
038691-2ROU1_GBR
 10
201.236834
 20
269.355596
 30
0.00
  0
VERTEX
  8
038691-2ROU1_GBR
 10
201.236834
 20
325.825282
 30
0.00
  0
VERTEX
  8
038691-2ROU1_GBR
 10
201.24067
 20
325.86577
 30
0.00
  0
VERTEX
  8
038691-2ROU1_GBR
 10
201.238942
 20
325.92584
 30
0.00
  0
VERTEX
  8
038691-2ROU1_GBR
 10
201.269194
 20
326.155406
 30
0.00
  0
VERTEX
  8
038691-2ROU1_GBR
 10
201.348518
 20
326.394014
 30
0.00
  0
VERTEX
  8
038691-2ROU1_GBR
 10
201.35685
 20
326.412556
 30
0.00
  0
VERTEX
  8
038691-2ROU1_GBR
 10
201.474628
 20
326.616848
 30
0.00
  0
VERTEX
  8
038691-2ROU1_GBR
 10
201.640338
 20
326.808566
 30
0.00
  0
VERTEX
  8
038691-2ROU1_GBR
 10
201.849228
 20
326.97166
 30
0.00
  0
VERTEX
  8
038691-2ROU1_GBR
 10
202.737516
 20
327.409886
 30
0.00
  0
VERTEX
  8
038691-2ROU1_GBR
 10
201.236834
 20
327.409886
 30
0.00
  0
VERTEX
  8
038691-2ROU1_GBR
 10
201.236834
 20
332.134718
 30
0.00
  0
VERTEX
  8
038691-2ROU1_GBR
 10
308.737
 20
332.134718
 30
0.00
  0
SEQEND
  0
ENDSEC
  0
EOF
