  0
SECTION
  2
HEADER
  9
$EXTMIN
 10
-258.359834
 20
-58.010602
 30
0.00
  9
$EXTMAX
 10
470.00
 20
419.20
 30
0.00
  0
ENDSEC
  0
SECTION
  2
TABLES
  0
TABLE
  2
LTYPE
 70
3
  0
LTYPE
  2
BYBLOCK
 70
0
  3

 72
65
 73
0
 40
0.00
  0
LTYPE
  2
BYLAYER
 70
0
  3

 72
65
 73
0
 40
0.00
  0
LTYPE
  2
CONTINUOUS
 70
0
  3
Solid line
 72
65
 73
0
 40
0.00
  0
ENDTAB
  0
TABLE
  2
LAYER
 70
99
  0
LAYER
  2
0
 70
0
 62
7
  6
CONTINUOUS
  0
LAYER
  2
020671-1ROU1_GBR
 70
0
 62
7
  6
CONTINUOUS
  0
LAYER
  2
027417-3ROU1_GBR
 70
0
 62
7
  6
CONTINUOUS
  0
LAYER
  2
027419-1ROU1_GBR
 70
0
 62
2
  6
CONTINUOUS
  0
LAYER
  2
027419-2ROU1_GBR
 70
0
 62
6
  6
CONTINUOUS
  0
LAYER
  2
027674-1ROU1_GBR
 70
0
 62
1
  6
CONTINUOUS
  0
LAYER
  2
027676-1ROU1_GBR
 70
0
 62
4
  6
CONTINUOUS
  0
LAYER
  2
027678-3ROU1_GBR
 70
0
 62
3
  6
CONTINUOUS
  0
LAYER
  2
028122-1ROU1_GBR
 70
0
 62
5
  6
CONTINUOUS
  0
LAYER
  2
028124-5ROU1_GBR
 70
0
 62
10
  6
CONTINUOUS
  0
LAYER
  2
028126-1ROU1_GBR
 70
0
 62
14
  6
CONTINUOUS
  0
LAYER
  2
028126-3ROU1_GBR
 70
0
 62
9
  6
CONTINUOUS
  0
LAYER
  2
028126-6ROU1_GBR
 70
0
 62
12
  6
CONTINUOUS
  0
LAYER
  2
028126-7ROU1_GBR
 70
0
 62
11
  6
CONTINUOUS
  0
LAYER
  2
028129-1ROU1_GBR
 70
0
 62
13
  6
CONTINUOUS
  0
LAYER
  2
028130-1ROU1_GBR
 70
0
 62
8
  6
CONTINUOUS
  0
LAYER
  2
028130-4ROU1_GBR
 70
0
 62
15
  6
CONTINUOUS
  0
LAYER
  2
028130-5ROU1_GBR
 70
0
 62
7
  6
CONTINUOUS
  0
LAYER
  2
028130-7ROU1_GBR
 70
0
 62
7
  6
CONTINUOUS
  0
LAYER
  2
028655-1ROU1_GBR
 70
0
 62
2
  6
CONTINUOUS
  0
LAYER
  2
028657-1ROU1_GBR
 70
0
 62
6
  6
CONTINUOUS
  0
LAYER
  2
028659-2ROU1_GBR
 70
0
 62
1
  6
CONTINUOUS
  0
LAYER
  2
028659-4ROU1_GBR
 70
0
 62
4
  6
CONTINUOUS
  0
LAYER
  2
028661-1ROU1_GBR
 70
0
 62
3
  6
CONTINUOUS
  0
LAYER
  2
028663-1ROU1_GBR
 70
0
 62
5
  6
CONTINUOUS
  0
LAYER
  2
028665-1ROU1_GBR
 70
0
 62
10
  6
CONTINUOUS
  0
LAYER
  2
028669-1ROU1_GBR
 70
0
 62
14
  6
CONTINUOUS
  0
LAYER
  2
028673-2ROU1_GBR
 70
0
 62
9
  6
CONTINUOUS
  0
LAYER
  2
037088-3ROU1_GBR
 70
0
 62
12
  6
CONTINUOUS
  0
LAYER
  2
037682-1ROU1_GBR
 70
0
 62
11
  6
CONTINUOUS
  0
LAYER
  2
037686-1ROU1_GBR
 70
0
 62
13
  6
CONTINUOUS
  0
LAYER
  2
037688-1ROU1_GBR
 70
0
 62
8
  6
CONTINUOUS
  0
LAYER
  2
038681-1ROU1_GBR
 70
0
 62
15
  6
CONTINUOUS
  0
LAYER
  2
038683-1ROU1_GBR
 70
0
 62
7
  6
CONTINUOUS
  0
LAYER
  2
038683-2ROU1_GBR
 70
0
 62
7
  6
CONTINUOUS
  0
LAYER
  2
038685-1ROU1_GBR
 70
0
 62
2
  6
CONTINUOUS
  0
LAYER
  2
038689-1ROU1_GBR
 70
0
 62
6
  6
CONTINUOUS
  0
LAYER
  2
038689-2ROU1_GBR
 70
0
 62
1
  6
CONTINUOUS
  0
LAYER
  2
038691-1ROU1_GBR
 70
0
 62
4
  6
CONTINUOUS
  0
LAYER
  2
038691-2ROU1_GBR
 70
0
 62
3
  6
CONTINUOUS
  0
LAYER
  2
038691-3ROU1_GBR
 70
0
 62
5
  6
CONTINUOUS
  0
LAYER
  2
038691-4ROU1_GBR
 70
0
 62
10
  6
CONTINUOUS
  0
LAYER
  2
038693-1ROU1_GBR
 70
0
 62
14
  6
CONTINUOUS
  0
LAYER
  2
038695-1ROU1_GBR
 70
0
 62
9
  6
CONTINUOUS
  0
LAYER
  2
038697-1ROU1_GBR
 70
0
 62
12
  6
CONTINUOUS
  0
LAYER
  2
038697-3ROU1_GBR
 70
0
 62
11
  6
CONTINUOUS
  0
LAYER
  2
038697-4ROU1_GBR
 70
0
 62
13
  6
CONTINUOUS
  0
LAYER
  2
038697-5ROU1_GBR
 70
0
 62
8
  6
CONTINUOUS
  0
LAYER
  2
047706-4ROU1_GBR
 70
0
 62
15
  6
CONTINUOUS
  0
LAYER
  2
047706-5ROU1_GBR
 70
0
 62
7
  6
CONTINUOUS
  0
LAYER
  2
047706-6ROU1_GBR
 70
0
 62
7
  6
CONTINUOUS
  0
LAYER
  2
047708-1ROU1_GBR
 70
0
 62
2
  6
CONTINUOUS
  0
LAYER
  2
047710-1ROU1_GBR
 70
0
 62
6
  6
CONTINUOUS
  0
LAYER
  2
047712-1ROU1_GBR
 70
0
 62
1
  6
CONTINUOUS
  0
LAYER
  2
047714-2ROU1_GBR
 70
0
 62
4
  6
CONTINUOUS
  0
LAYER
  2
048701-1ROU1_GBR
 70
0
 62
3
  6
CONTINUOUS
  0
LAYER
  2
048703-1ROU1_GBR
 70
0
 62
10
  6
CONTINUOUS
  0
LAYER
  2
048711-1ROU1_GBR
 70
0
 62
14
  6
CONTINUOUS
  0
LAYER
  2
048715-1ROU1_GBR
 70
0
 62
9
  6
CONTINUOUS
  0
LAYER
  2
058721-2ROU1_GBR
 70
0
 62
12
  6
CONTINUOUS
  0
LAYER
  2
058723-10ROU1_GBR
 70
0
 62
11
  6
CONTINUOUS
  0
LAYER
  2
058723-1ROU1_GBR
 70
0
 62
13
  6
CONTINUOUS
  0
LAYER
  2
058723-6ROU1_GBR
 70
0
 62
8
  6
CONTINUOUS
  0
LAYER
  2
058723-9ROU1_GBR
 70
0
 62
15
  6
CONTINUOUS
  0
LAYER
  2
067601-1ROU1_GBR
 70
0
 62
7
  6
CONTINUOUS
  0
LAYER
  2
068162-1ROU1_GBR
 70
0
 62
7
  6
CONTINUOUS
  0
LAYER
  2
068162-3ROU1_GBR
 70
0
 62
2
  6
CONTINUOUS
  0
LAYER
  2
068162-4ROU1_GBR
 70
0
 62
6
  6
CONTINUOUS
  0
LAYER
  2
077742-1ROU1_GBR
 70
0
 62
1
  6
CONTINUOUS
  0
LAYER
  2
078731-1ROU1_GBR
 70
0
 62
4
  6
CONTINUOUS
  0
LAYER
  2
078735-3ROU1_GBR
 70
0
 62
3
  6
CONTINUOUS
  0
LAYER
  2
078739-1ROU1_GBR
 70
0
 62
5
  6
CONTINUOUS
  0
LAYER
  2
078753-1ROU1_GBR
 70
0
 62
10
  6
CONTINUOUS
  0
LAYER
  2
078757-1ROU1_GBR
 70
0
 62
14
  6
CONTINUOUS
  0
LAYER
  2
087768-2ROU1_GBR
 70
0
 62
9
  6
CONTINUOUS
  0
LAYER
  2
087772-1ROU1_GBR
 70
0
 62
12
  6
CONTINUOUS
  0
LAYER
  2
087780-1ROU1_GBR
 70
0
 62
11
  6
CONTINUOUS
  0
LAYER
  2
087782-9ROU1_GBR
 70
0
 62
13
  6
CONTINUOUS
  0
LAYER
  2
088783-4ROU1_GBR
 70
0
 62
8
  6
CONTINUOUS
  0
LAYER
  2
088785-1ROU1_GBR
 70
0
 62
15
  6
CONTINUOUS
  0
LAYER
  2
097800-6ROU1_GBR
 70
0
 62
7
  6
CONTINUOUS
  0
LAYER
  2
097810-1ROU1_GBR
 70
0
 62
7
  6
CONTINUOUS
  0
LAYER
  2
098787-1ROU1_GBR
 70
0
 62
2
  6
CONTINUOUS
  0
LAYER
  2
098787-2ROU1_GBR
 70
0
 62
6
  6
CONTINUOUS
  0
LAYER
  2
098789-1ROU1_GBR
 70
0
 62
1
  6
CONTINUOUS
  0
LAYER
  2
098811-1ROU1_GBR
 70
0
 62
4
  6
CONTINUOUS
  0
LAYER
  2
098815-1ROU1_GBR
 70
0
 62
3
  6
CONTINUOUS
  0
LAYER
  2
098815-2ROU1_GBR
 70
0
 62
5
  6
CONTINUOUS
  0
LAYER
  2
107824-1ROU1_GBR
 70
0
 62
10
  6
CONTINUOUS
  0
LAYER
  2
118200-1ROU1_GBR
 70
0
 62
14
  6
CONTINUOUS
  0
LAYER
  2
257017-1ROU1_GBR
 70
0
 62
9
  6
CONTINUOUS
  0
LAYER
  2
268076-7ROU1_GBR
 70
0
 62
12
  6
CONTINUOUS
  0
LAYER
  2
288088-1ROU1_GBR
 70
0
 62
11
  6
CONTINUOUS
  0
LAYER
  2
307251-1ROU1_GBR
 70
0
 62
13
  6
CONTINUOUS
  0
LAYER
  2
307273-4ROU1_GBR
 70
0
 62
8
  6
CONTINUOUS
  0
LAYER
  2
307283-1ROU1_GBR
 70
0
 62
15
  6
CONTINUOUS
  0
LAYER
  2
307291-1ROU1_GBR
 70
0
 62
7
  6
CONTINUOUS
  0
LAYER
  2
308108-1ROU1_GBR
 70
0
 62
7
  6
CONTINUOUS
  0
LAYER
  2
308111-1ROU1_GBR
 70
0
 62
2
  6
CONTINUOUS
  0
LAYER
  2
308112-1ROU1_GBR
 70
0
 62
6
  6
CONTINUOUS
  0
ENDTAB
  0
TABLE
  2
STYLE
 70
0
  0
ENDTAB
  0
ENDSEC
  0
SECTION
  2
BLOCKS
  0
BLOCK
  2
ROUND_1
  3
ROUND_1
 70
64
 10
0.00
 20
0.00
 30
0.00
  0
CIRCLE
  8
0
 10
0.00
 20
0.00
 30
0.00
 40
0.10
  0
ENDBLK
  0
ENDSEC
  0
SECTION
  2
ENTITIES
  0
POLYLINE
  8
038685-1ROU1_GBR
 66
1
 10
0.00
 20
0.00
 30
0.00
 40
0.20
 41
0.20
  0
VERTEX
  8
038685-1ROU1_GBR
 10
143.939996
 20
141.048766
 30
0.00
  0
VERTEX
  8
038685-1ROU1_GBR
 10
143.939996
 20
136.051062
 30
0.00
  0
VERTEX
  8
038685-1ROU1_GBR
 10
144.03573
 20
136.04649
 30
0.00
  0
SEQEND
  0
POLYLINE
  8
038685-1ROU1_GBR
 66
1
 10
0.00
 20
0.00
 30
0.00
 40
0.20
 41
0.20
  0
VERTEX
  8
038685-1ROU1_GBR
 10
145.939992
 20
134.049262
 30
0.00
 42
0.4003274
  0
VERTEX
  8
038685-1ROU1_GBR
 10
144.03573
 20
136.04649
 30
0.00
 42
0.00
  0
SEQEND
  0
POLYLINE
  8
038685-1ROU1_GBR
 66
1
 10
0.00
 20
0.00
 30
0.00
 40
0.20
 41
0.20
  0
VERTEX
  8
038685-1ROU1_GBR
 10
145.939992
 20
134.049262
 30
0.00
  0
VERTEX
  8
038685-1ROU1_GBR
 10
145.939992
 20
120.024652
 30
0.00
  0
SEQEND
  0
POLYLINE
  8
038685-1ROU1_GBR
 66
1
 10
0.00
 20
0.00
 30
0.00
 40
0.20
 41
0.20
  0
VERTEX
  8
038685-1ROU1_GBR
 10
144.550104
 20
118.120338
 30
0.00
 42
0.3261229
  0
VERTEX
  8
038685-1ROU1_GBR
 10
145.940008
 20
120.024652
 30
0.00
 42
0.00
  0
SEQEND
  0
POLYLINE
  8
038685-1ROU1_GBR
 66
1
 10
0.00
 20
0.00
 30
0.00
 40
0.20
 41
0.20
  0
VERTEX
  8
038685-1ROU1_GBR
 10
144.550104
 20
118.120338
 30
0.00
 42
0.729896
  0
VERTEX
  8
038685-1ROU1_GBR
 10
144.550104
 20
117.928924
 30
0.00
 42
0.00
  0
SEQEND
  0
POLYLINE
  8
038685-1ROU1_GBR
 66
1
 10
0.00
 20
0.00
 30
0.00
 40
0.20
 41
0.20
  0
VERTEX
  8
038685-1ROU1_GBR
 10
145.939992
 20
116.02461
 30
0.00
 42
0.3261231
  0
VERTEX
  8
038685-1ROU1_GBR
 10
144.550104
 20
117.928924
 30
0.00
 42
0.00
  0
SEQEND
  0
POLYLINE
  8
038685-1ROU1_GBR
 66
1
 10
0.00
 20
0.00
 30
0.00
 40
0.20
 41
0.20
  0
VERTEX
  8
038685-1ROU1_GBR
 10
145.939992
 20
116.02461
 30
0.00
  0
VERTEX
  8
038685-1ROU1_GBR
 10
145.939992
 20
102.00
 30
0.00
  0
SEQEND
  0
POLYLINE
  8
038685-1ROU1_GBR
 66
1
 10
0.00
 20
0.00
 30
0.00
 40
0.20
 41
0.20
  0
VERTEX
  8
038685-1ROU1_GBR
 10
144.550054
 20
100.095686
 30
0.00
 42
0.3261295
  0
VERTEX
  8
038685-1ROU1_GBR
 10
145.939992
 20
102.00
 30
0.00
 42
0.00
  0
SEQEND
  0
POLYLINE
  8
038685-1ROU1_GBR
 66
1
 10
0.00
 20
0.00
 30
0.00
 40
0.20
 41
0.20
  0
VERTEX
  8
038685-1ROU1_GBR
 10
144.550054
 20
100.095686
 30
0.00
 42
0.7299408
  0
VERTEX
  8
038685-1ROU1_GBR
 10
144.550054
 20
99.904246
 30
0.00
 42
0.00
  0
SEQEND
  0
POLYLINE
  8
038685-1ROU1_GBR
 66
1
 10
0.00
 20
0.00
 30
0.00
 40
0.20
 41
0.20
  0
VERTEX
  8
038685-1ROU1_GBR
 10
145.939992
 20
97.999932
 30
0.00
 42
0.3261295
  0
VERTEX
  8
038685-1ROU1_GBR
 10
144.550054
 20
99.904246
 30
0.00
 42
0.00
  0
SEQEND
  0
POLYLINE
  8
038685-1ROU1_GBR
 66
1
 10
0.00
 20
0.00
 30
0.00
 40
0.20
 41
0.20
  0
VERTEX
  8
038685-1ROU1_GBR
 10
145.939992
 20
97.999932
 30
0.00
  0
VERTEX
  8
038685-1ROU1_GBR
 10
145.939992
 20
83.975322
 30
0.00
  0
SEQEND
  0
POLYLINE
  8
038685-1ROU1_GBR
 66
1
 10
0.00
 20
0.00
 30
0.00
 40
0.20
 41
0.20
  0
VERTEX
  8
038685-1ROU1_GBR
 10
144.550104
 20
82.071006
 30
0.00
 42
0.326123
  0
VERTEX
  8
038685-1ROU1_GBR
 10
145.939992
 20
83.975322
 30
0.00
 42
0.00
  0
SEQEND
  0
POLYLINE
  8
038685-1ROU1_GBR
 66
1
 10
0.00
 20
0.00
 30
0.00
 40
0.20
 41
0.20
  0
VERTEX
  8
038685-1ROU1_GBR
 10
144.550104
 20
82.071006
 30
0.00
 42
0.729896
  0
VERTEX
  8
038685-1ROU1_GBR
 10
144.550104
 20
81.879592
 30
0.00
 42
0.00
  0
SEQEND
  0
POLYLINE
  8
038685-1ROU1_GBR
 66
1
 10
0.00
 20
0.00
 30
0.00
 40
0.20
 41
0.20
  0
VERTEX
  8
038685-1ROU1_GBR
 10
145.939992
 20
79.975278
 30
0.00
 42
0.3261231
  0
VERTEX
  8
038685-1ROU1_GBR
 10
144.550104
 20
81.879592
 30
0.00
 42
0.00
  0
SEQEND
  0
POLYLINE
  8
038685-1ROU1_GBR
 66
1
 10
0.00
 20
0.00
 30
0.00
 40
0.20
 41
0.20
  0
VERTEX
  8
038685-1ROU1_GBR
 10
145.939992
 20
79.975278
 30
0.00
  0
VERTEX
  8
038685-1ROU1_GBR
 10
145.939992
 20
65.950668
 30
0.00
  0
SEQEND
  0
POLYLINE
  8
038685-1ROU1_GBR
 66
1
 10
0.00
 20
0.00
 30
0.00
 40
0.20
 41
0.20
  0
VERTEX
  8
038685-1ROU1_GBR
 10
144.03573
 20
63.95344
 30
0.00
 42
0.4003274
  0
VERTEX
  8
038685-1ROU1_GBR
 10
145.939992
 20
65.950668
 30
0.00
 42
0.00
  0
SEQEND
  0
POLYLINE
  8
038685-1ROU1_GBR
 66
1
 10
0.00
 20
0.00
 30
0.00
 40
0.20
 41
0.20
  0
VERTEX
  8
038685-1ROU1_GBR
 10
144.03573
 20
63.95344
 30
0.00
  0
VERTEX
  8
038685-1ROU1_GBR
 10
143.939996
 20
63.948868
 30
0.00
  0
VERTEX
  8
038685-1ROU1_GBR
 10
143.939996
 20
58.951164
 30
0.00
  0
VERTEX
  8
038685-1ROU1_GBR
 10
56.066614
 20
58.951164
 30
0.00
  0
VERTEX
  8
038685-1ROU1_GBR
 10
56.066614
 20
63.948868
 30
0.00
  0
VERTEX
  8
038685-1ROU1_GBR
 10
55.970882
 20
63.95344
 30
0.00
  0
SEQEND
  0
POLYLINE
  8
038685-1ROU1_GBR
 66
1
 10
0.00
 20
0.00
 30
0.00
 40
0.20
 41
0.20
  0
VERTEX
  8
038685-1ROU1_GBR
 10
54.067278
 20
65.895932
 30
0.00
 42
0.3924398
  0
VERTEX
  8
038685-1ROU1_GBR
 10
55.970882
 20
63.95344
 30
0.00
 42
0.00
  0
SEQEND
  0
POLYLINE
  8
038685-1ROU1_GBR
 66
1
 10
0.00
 20
0.00
 30
0.00
 40
0.20
 41
0.20
  0
VERTEX
  8
038685-1ROU1_GBR
 10
54.067278
 20
65.895932
 30
0.00
  0
VERTEX
  8
038685-1ROU1_GBR
 10
54.060014
 20
65.932608
 30
0.00
  0
VERTEX
  8
038685-1ROU1_GBR
 10
54.060014
 20
79.985058
 30
0.00
  0
SEQEND
  0
POLYLINE
  8
038685-1ROU1_GBR
 66
1
 10
0.00
 20
0.00
 30
0.00
 40
0.20
 41
0.20
  0
VERTEX
  8
038685-1ROU1_GBR
 10
55.451096
 20
81.881244
 30
0.00
 42
0.3251194
  0
VERTEX
  8
038685-1ROU1_GBR
 10
54.060014
 20
79.985058
 30
0.00
 42
0.00
  0
SEQEND
  0
POLYLINE
  8
038685-1ROU1_GBR
 66
1
 10
0.00
 20
0.00
 30
0.00
 40
0.20
 41
0.20
  0
VERTEX
  8
038685-1ROU1_GBR
 10
55.451096
 20
81.881244
 30
0.00
 42
0.7290202
  0
VERTEX
  8
038685-1ROU1_GBR
 10
55.451424
 20
82.072604
 30
0.00
 42
0.00
  0
SEQEND
  0
POLYLINE
  8
038685-1ROU1_GBR
 66
1
 10
0.00
 20
0.00
 30
0.00
 40
0.20
 41
0.20
  0
VERTEX
  8
038685-1ROU1_GBR
 10
54.067278
 20
83.92061
 30
0.00
 42
0.3178664
  0
VERTEX
  8
038685-1ROU1_GBR
 10
55.451426
 20
82.072608
 30
0.00
 42
0.00
  0
SEQEND
  0
POLYLINE
  8
038685-1ROU1_GBR
 66
1
 10
0.00
 20
0.00
 30
0.00
 40
0.20
 41
0.20
  0
VERTEX
  8
038685-1ROU1_GBR
 10
54.067278
 20
83.92061
 30
0.00
  0
VERTEX
  8
038685-1ROU1_GBR
 10
54.060014
 20
83.957262
 30
0.00
  0
VERTEX
  8
038685-1ROU1_GBR
 10
54.060014
 20
98.009684
 30
0.00
  0
SEQEND
  0
POLYLINE
  8
038685-1ROU1_GBR
 66
1
 10
0.00
 20
0.00
 30
0.00
 40
0.20
 41
0.20
  0
VERTEX
  8
038685-1ROU1_GBR
 10
55.451146
 20
99.905896
 30
0.00
 42
0.3251273
  0
VERTEX
  8
038685-1ROU1_GBR
 10
54.060008
 20
98.009684
 30
0.00
 42
0.00
  0
SEQEND
  0
POLYLINE
  8
038685-1ROU1_GBR
 66
1
 10
0.00
 20
0.00
 30
0.00
 40
0.20
 41
0.20
  0
VERTEX
  8
038685-1ROU1_GBR
 10
55.451146
 20
99.905896
 30
0.00
 42
0.7291349
  0
VERTEX
  8
038685-1ROU1_GBR
 10
55.451452
 20
100.097286
 30
0.00
 42
0.00
  0
SEQEND
  0
POLYLINE
  8
038685-1ROU1_GBR
 66
1
 10
0.00
 20
0.00
 30
0.00
 40
0.20
 41
0.20
  0
VERTEX
  8
038685-1ROU1_GBR
 10
54.067278
 20
101.945262
 30
0.00
 42
0.3178641
  0
VERTEX
  8
038685-1ROU1_GBR
 10
55.451452
 20
100.097286
 30
0.00
 42
0.00
  0
SEQEND
  0
POLYLINE
  8
038685-1ROU1_GBR
 66
1
 10
0.00
 20
0.00
 30
0.00
 40
0.20
 41
0.20
  0
VERTEX
  8
038685-1ROU1_GBR
 10
54.067278
 20
101.945262
 30
0.00
  0
VERTEX
  8
038685-1ROU1_GBR
 10
54.060014
 20
101.98194
 30
0.00
  0
VERTEX
  8
038685-1ROU1_GBR
 10
54.060014
 20
116.034388
 30
0.00
  0
SEQEND
  0
POLYLINE
  8
038685-1ROU1_GBR
 66
1
 10
0.00
 20
0.00
 30
0.00
 40
0.20
 41
0.20
  0
VERTEX
  8
038685-1ROU1_GBR
 10
55.451096
 20
117.930574
 30
0.00
 42
0.3251196
  0
VERTEX
  8
038685-1ROU1_GBR
 10
54.060014
 20
116.034388
 30
0.00
 42
0.00
  0
SEQEND
  0
POLYLINE
  8
038685-1ROU1_GBR
 66
1
 10
0.00
 20
0.00
 30
0.00
 40
0.20
 41
0.20
  0
VERTEX
  8
038685-1ROU1_GBR
 10
55.451096
 20
117.930574
 30
0.00
 42
0.7290176
  0
VERTEX
  8
038685-1ROU1_GBR
 10
55.451426
 20
118.121938
 30
0.00
 42
0.00
  0
SEQEND
  0
POLYLINE
  8
038685-1ROU1_GBR
 66
1
 10
0.00
 20
0.00
 30
0.00
 40
0.20
 41
0.20
  0
VERTEX
  8
038685-1ROU1_GBR
 10
54.067278
 20
119.969916
 30
0.00
 42
0.317863
  0
VERTEX
  8
038685-1ROU1_GBR
 10
55.451426
 20
118.121938
 30
0.00
 42
0.00
  0
SEQEND
  0
POLYLINE
  8
038685-1ROU1_GBR
 66
1
 10
0.00
 20
0.00
 30
0.00
 40
0.20
 41
0.20
  0
VERTEX
  8
038685-1ROU1_GBR
 10
54.067278
 20
119.969916
 30
0.00
  0
VERTEX
  8
038685-1ROU1_GBR
 10
54.060014
 20
120.006592
 30
0.00
  0
VERTEX
  8
038685-1ROU1_GBR
 10
54.060014
 20
134.059016
 30
0.00
  0
SEQEND
  0
POLYLINE
  8
038685-1ROU1_GBR
 66
1
 10
0.00
 20
0.00
 30
0.00
 40
0.20
 41
0.20
  0
VERTEX
  8
038685-1ROU1_GBR
 10
55.964278
 20
136.04776
 30
0.00
 42
0.3990938
  0
VERTEX
  8
038685-1ROU1_GBR
 10
54.060014
 20
134.059016
 30
0.00
 42
0.00
  0
SEQEND
  0
POLYLINE
  8
038685-1ROU1_GBR
 66
1
 10
0.00
 20
0.00
 30
0.00
 40
0.20
 41
0.20
  0
VERTEX
  8
038685-1ROU1_GBR
 10
55.964278
 20
136.04776
 30
0.00
  0
VERTEX
  8
038685-1ROU1_GBR
 10
56.06001
 20
136.052332
 30
0.00
  0
VERTEX
  8
038685-1ROU1_GBR
 10
56.06001
 20
141.048766
 30
0.00
  0
VERTEX
  8
038685-1ROU1_GBR
 10
143.939996
 20
141.048766
 30
0.00
  0
SEQEND
  0
ENDSEC
  0
EOF
