  0
SECTION
  2
HEADER
  9
$EXTMIN
 10
-258.359834
 20
-58.010602
 30
0.00
  9
$EXTMAX
 10
470.00
 20
419.20
 30
0.00
  0
ENDSEC
  0
SECTION
  2
TABLES
  0
TABLE
  2
LTYPE
 70
3
  0
LTYPE
  2
BYBLOCK
 70
0
  3

 72
65
 73
0
 40
0.00
  0
LTYPE
  2
BYLAYER
 70
0
  3

 72
65
 73
0
 40
0.00
  0
LTYPE
  2
CONTINUOUS
 70
0
  3
Solid line
 72
65
 73
0
 40
0.00
  0
ENDTAB
  0
TABLE
  2
LAYER
 70
99
  0
LAYER
  2
0
 70
0
 62
7
  6
CONTINUOUS
  0
LAYER
  2
020671-1ROU1_GBR
 70
0
 62
7
  6
CONTINUOUS
  0
LAYER
  2
027417-3ROU1_GBR
 70
0
 62
7
  6
CONTINUOUS
  0
LAYER
  2
027419-1ROU1_GBR
 70
0
 62
2
  6
CONTINUOUS
  0
LAYER
  2
027419-2ROU1_GBR
 70
0
 62
6
  6
CONTINUOUS
  0
LAYER
  2
027674-1ROU1_GBR
 70
0
 62
1
  6
CONTINUOUS
  0
LAYER
  2
027676-1ROU1_GBR
 70
0
 62
4
  6
CONTINUOUS
  0
LAYER
  2
027678-3ROU1_GBR
 70
0
 62
3
  6
CONTINUOUS
  0
LAYER
  2
028122-1ROU1_GBR
 70
0
 62
5
  6
CONTINUOUS
  0
LAYER
  2
028124-5ROU1_GBR
 70
0
 62
10
  6
CONTINUOUS
  0
LAYER
  2
028126-1ROU1_GBR
 70
0
 62
14
  6
CONTINUOUS
  0
LAYER
  2
028126-3ROU1_GBR
 70
0
 62
9
  6
CONTINUOUS
  0
LAYER
  2
028126-6ROU1_GBR
 70
0
 62
12
  6
CONTINUOUS
  0
LAYER
  2
028126-7ROU1_GBR
 70
0
 62
11
  6
CONTINUOUS
  0
LAYER
  2
028129-1ROU1_GBR
 70
0
 62
13
  6
CONTINUOUS
  0
LAYER
  2
028130-1ROU1_GBR
 70
0
 62
8
  6
CONTINUOUS
  0
LAYER
  2
028130-4ROU1_GBR
 70
0
 62
15
  6
CONTINUOUS
  0
LAYER
  2
028130-5ROU1_GBR
 70
0
 62
7
  6
CONTINUOUS
  0
LAYER
  2
028130-7ROU1_GBR
 70
0
 62
7
  6
CONTINUOUS
  0
LAYER
  2
028655-1ROU1_GBR
 70
0
 62
2
  6
CONTINUOUS
  0
LAYER
  2
028657-1ROU1_GBR
 70
0
 62
6
  6
CONTINUOUS
  0
LAYER
  2
028659-2ROU1_GBR
 70
0
 62
1
  6
CONTINUOUS
  0
LAYER
  2
028659-4ROU1_GBR
 70
0
 62
4
  6
CONTINUOUS
  0
LAYER
  2
028661-1ROU1_GBR
 70
0
 62
3
  6
CONTINUOUS
  0
LAYER
  2
028663-1ROU1_GBR
 70
0
 62
5
  6
CONTINUOUS
  0
LAYER
  2
028665-1ROU1_GBR
 70
0
 62
10
  6
CONTINUOUS
  0
LAYER
  2
028669-1ROU1_GBR
 70
0
 62
14
  6
CONTINUOUS
  0
LAYER
  2
028673-2ROU1_GBR
 70
0
 62
9
  6
CONTINUOUS
  0
LAYER
  2
037088-3ROU1_GBR
 70
0
 62
12
  6
CONTINUOUS
  0
LAYER
  2
037682-1ROU1_GBR
 70
0
 62
11
  6
CONTINUOUS
  0
LAYER
  2
037686-1ROU1_GBR
 70
0
 62
13
  6
CONTINUOUS
  0
LAYER
  2
037688-1ROU1_GBR
 70
0
 62
8
  6
CONTINUOUS
  0
LAYER
  2
038681-1ROU1_GBR
 70
0
 62
15
  6
CONTINUOUS
  0
LAYER
  2
038683-1ROU1_GBR
 70
0
 62
7
  6
CONTINUOUS
  0
LAYER
  2
038683-2ROU1_GBR
 70
0
 62
7
  6
CONTINUOUS
  0
LAYER
  2
038685-1ROU1_GBR
 70
0
 62
2
  6
CONTINUOUS
  0
LAYER
  2
038689-1ROU1_GBR
 70
0
 62
6
  6
CONTINUOUS
  0
LAYER
  2
038689-2ROU1_GBR
 70
0
 62
1
  6
CONTINUOUS
  0
LAYER
  2
038691-1ROU1_GBR
 70
0
 62
4
  6
CONTINUOUS
  0
LAYER
  2
038691-2ROU1_GBR
 70
0
 62
3
  6
CONTINUOUS
  0
LAYER
  2
038691-3ROU1_GBR
 70
0
 62
5
  6
CONTINUOUS
  0
LAYER
  2
038691-4ROU1_GBR
 70
0
 62
10
  6
CONTINUOUS
  0
LAYER
  2
038693-1ROU1_GBR
 70
0
 62
14
  6
CONTINUOUS
  0
LAYER
  2
038695-1ROU1_GBR
 70
0
 62
9
  6
CONTINUOUS
  0
LAYER
  2
038697-1ROU1_GBR
 70
0
 62
12
  6
CONTINUOUS
  0
LAYER
  2
038697-3ROU1_GBR
 70
0
 62
11
  6
CONTINUOUS
  0
LAYER
  2
038697-4ROU1_GBR
 70
0
 62
13
  6
CONTINUOUS
  0
LAYER
  2
038697-5ROU1_GBR
 70
0
 62
8
  6
CONTINUOUS
  0
LAYER
  2
047706-4ROU1_GBR
 70
0
 62
15
  6
CONTINUOUS
  0
LAYER
  2
047706-5ROU1_GBR
 70
0
 62
7
  6
CONTINUOUS
  0
LAYER
  2
047706-6ROU1_GBR
 70
0
 62
7
  6
CONTINUOUS
  0
LAYER
  2
047708-1ROU1_GBR
 70
0
 62
2
  6
CONTINUOUS
  0
LAYER
  2
047710-1ROU1_GBR
 70
0
 62
6
  6
CONTINUOUS
  0
LAYER
  2
047712-1ROU1_GBR
 70
0
 62
1
  6
CONTINUOUS
  0
LAYER
  2
047714-2ROU1_GBR
 70
0
 62
4
  6
CONTINUOUS
  0
LAYER
  2
048701-1ROU1_GBR
 70
0
 62
3
  6
CONTINUOUS
  0
LAYER
  2
048703-1ROU1_GBR
 70
0
 62
10
  6
CONTINUOUS
  0
LAYER
  2
048711-1ROU1_GBR
 70
0
 62
14
  6
CONTINUOUS
  0
LAYER
  2
048715-1ROU1_GBR
 70
0
 62
9
  6
CONTINUOUS
  0
LAYER
  2
058721-2ROU1_GBR
 70
0
 62
12
  6
CONTINUOUS
  0
LAYER
  2
058723-10ROU1_GBR
 70
0
 62
11
  6
CONTINUOUS
  0
LAYER
  2
058723-1ROU1_GBR
 70
0
 62
13
  6
CONTINUOUS
  0
LAYER
  2
058723-6ROU1_GBR
 70
0
 62
8
  6
CONTINUOUS
  0
LAYER
  2
058723-9ROU1_GBR
 70
0
 62
15
  6
CONTINUOUS
  0
LAYER
  2
067601-1ROU1_GBR
 70
0
 62
7
  6
CONTINUOUS
  0
LAYER
  2
068162-1ROU1_GBR
 70
0
 62
7
  6
CONTINUOUS
  0
LAYER
  2
068162-3ROU1_GBR
 70
0
 62
2
  6
CONTINUOUS
  0
LAYER
  2
068162-4ROU1_GBR
 70
0
 62
6
  6
CONTINUOUS
  0
LAYER
  2
077742-1ROU1_GBR
 70
0
 62
1
  6
CONTINUOUS
  0
LAYER
  2
078731-1ROU1_GBR
 70
0
 62
4
  6
CONTINUOUS
  0
LAYER
  2
078735-3ROU1_GBR
 70
0
 62
3
  6
CONTINUOUS
  0
LAYER
  2
078739-1ROU1_GBR
 70
0
 62
5
  6
CONTINUOUS
  0
LAYER
  2
078753-1ROU1_GBR
 70
0
 62
10
  6
CONTINUOUS
  0
LAYER
  2
078757-1ROU1_GBR
 70
0
 62
14
  6
CONTINUOUS
  0
LAYER
  2
087768-2ROU1_GBR
 70
0
 62
9
  6
CONTINUOUS
  0
LAYER
  2
087772-1ROU1_GBR
 70
0
 62
12
  6
CONTINUOUS
  0
LAYER
  2
087780-1ROU1_GBR
 70
0
 62
11
  6
CONTINUOUS
  0
LAYER
  2
087782-9ROU1_GBR
 70
0
 62
13
  6
CONTINUOUS
  0
LAYER
  2
088783-4ROU1_GBR
 70
0
 62
8
  6
CONTINUOUS
  0
LAYER
  2
088785-1ROU1_GBR
 70
0
 62
15
  6
CONTINUOUS
  0
LAYER
  2
097800-6ROU1_GBR
 70
0
 62
7
  6
CONTINUOUS
  0
LAYER
  2
097810-1ROU1_GBR
 70
0
 62
7
  6
CONTINUOUS
  0
LAYER
  2
098787-1ROU1_GBR
 70
0
 62
2
  6
CONTINUOUS
  0
LAYER
  2
098787-2ROU1_GBR
 70
0
 62
6
  6
CONTINUOUS
  0
LAYER
  2
098789-1ROU1_GBR
 70
0
 62
1
  6
CONTINUOUS
  0
LAYER
  2
098811-1ROU1_GBR
 70
0
 62
4
  6
CONTINUOUS
  0
LAYER
  2
098815-1ROU1_GBR
 70
0
 62
3
  6
CONTINUOUS
  0
LAYER
  2
098815-2ROU1_GBR
 70
0
 62
5
  6
CONTINUOUS
  0
LAYER
  2
107824-1ROU1_GBR
 70
0
 62
10
  6
CONTINUOUS
  0
LAYER
  2
118200-1ROU1_GBR
 70
0
 62
14
  6
CONTINUOUS
  0
LAYER
  2
257017-1ROU1_GBR
 70
0
 62
9
  6
CONTINUOUS
  0
LAYER
  2
268076-7ROU1_GBR
 70
0
 62
12
  6
CONTINUOUS
  0
LAYER
  2
288088-1ROU1_GBR
 70
0
 62
11
  6
CONTINUOUS
  0
LAYER
  2
307251-1ROU1_GBR
 70
0
 62
13
  6
CONTINUOUS
  0
LAYER
  2
307273-4ROU1_GBR
 70
0
 62
8
  6
CONTINUOUS
  0
LAYER
  2
307283-1ROU1_GBR
 70
0
 62
15
  6
CONTINUOUS
  0
LAYER
  2
307291-1ROU1_GBR
 70
0
 62
7
  6
CONTINUOUS
  0
LAYER
  2
308108-1ROU1_GBR
 70
0
 62
7
  6
CONTINUOUS
  0
LAYER
  2
308111-1ROU1_GBR
 70
0
 62
2
  6
CONTINUOUS
  0
LAYER
  2
308112-1ROU1_GBR
 70
0
 62
6
  6
CONTINUOUS
  0
ENDTAB
  0
TABLE
  2
STYLE
 70
0
  0
ENDTAB
  0
ENDSEC
  0
SECTION
  2
BLOCKS
  0
BLOCK
  2
ROUND_1
  3
ROUND_1
 70
64
 10
0.00
 20
0.00
 30
0.00
  0
CIRCLE
  8
0
 10
0.00
 20
0.00
 30
0.00
 40
0.10
  0
ENDBLK
  0
ENDSEC
  0
SECTION
  2
ENTITIES
  0
POLYLINE
  8
047706-6ROU1_GBR
 66
1
 10
0.00
 20
0.00
 30
0.00
 40
0.20
 41
0.20
  0
VERTEX
  8
047706-6ROU1_GBR
 10
210.000952
 20
258.999736
 30
0.00
  0
VERTEX
  8
047706-6ROU1_GBR
 10
212.000008
 20
257.00068
 30
0.00
  0
VERTEX
  8
047706-6ROU1_GBR
 10
212.000008
 20
242.834516
 30
0.00
  0
SEQEND
  0
POLYLINE
  8
047706-6ROU1_GBR
 66
1
 10
0.00
 20
0.00
 30
0.00
 40
0.20
 41
0.20
  0
VERTEX
  8
047706-6ROU1_GBR
 10
212.000008
 20
242.834516
 30
0.00
 42
0.9935696
  0
VERTEX
  8
047706-6ROU1_GBR
 10
213.999934
 20
242.847418
 30
0.00
 42
0.00
  0
SEQEND
  0
POLYLINE
  8
047706-6ROU1_GBR
 66
1
 10
0.00
 20
0.00
 30
0.00
 40
0.20
 41
0.20
  0
VERTEX
  8
047706-6ROU1_GBR
 10
213.999928
 20
242.847418
 30
0.00
  0
VERTEX
  8
047706-6ROU1_GBR
 10
213.999928
 20
258.999736
 30
0.00
  0
VERTEX
  8
047706-6ROU1_GBR
 10
218.499918
 20
258.999736
 30
0.00
  0
SEQEND
  0
POLYLINE
  8
047706-6ROU1_GBR
 66
1
 10
0.00
 20
0.00
 30
0.00
 40
0.20
 41
0.20
  0
VERTEX
  8
047706-6ROU1_GBR
 10
218.999918
 20
258.499738
 30
0.00
 42
0.4142136
  0
VERTEX
  8
047706-6ROU1_GBR
 10
218.499918
 20
258.999736
 30
0.00
 42
0.00
  0
SEQEND
  0
POLYLINE
  8
047706-6ROU1_GBR
 66
1
 10
0.00
 20
0.00
 30
0.00
 40
0.20
 41
0.20
  0
VERTEX
  8
047706-6ROU1_GBR
 10
218.999918
 20
258.499738
 30
0.00
  0
VERTEX
  8
047706-6ROU1_GBR
 10
218.999918
 20
41.500094
 30
0.00
  0
SEQEND
  0
POLYLINE
  8
047706-6ROU1_GBR
 66
1
 10
0.00
 20
0.00
 30
0.00
 40
0.20
 41
0.20
  0
VERTEX
  8
047706-6ROU1_GBR
 10
218.499918
 20
41.000096
 30
0.00
 42
0.4142136
  0
VERTEX
  8
047706-6ROU1_GBR
 10
218.999918
 20
41.500094
 30
0.00
 42
0.00
  0
SEQEND
  0
POLYLINE
  8
047706-6ROU1_GBR
 66
1
 10
0.00
 20
0.00
 30
0.00
 40
0.20
 41
0.20
  0
VERTEX
  8
047706-6ROU1_GBR
 10
218.499918
 20
41.000096
 30
0.00
  0
VERTEX
  8
047706-6ROU1_GBR
 10
213.999928
 20
41.000096
 30
0.00
  0
VERTEX
  8
047706-6ROU1_GBR
 10
213.999928
 20
71.447432
 30
0.00
  0
SEQEND
  0
POLYLINE
  8
047706-6ROU1_GBR
 66
1
 10
0.00
 20
0.00
 30
0.00
 40
0.20
 41
0.20
  0
VERTEX
  8
047706-6ROU1_GBR
 10
213.999928
 20
71.447432
 30
0.00
 42
0.9935706
  0
VERTEX
  8
047706-6ROU1_GBR
 10
212.000012
 20
71.460332
 30
0.00
 42
0.00
  0
SEQEND
  0
POLYLINE
  8
047706-6ROU1_GBR
 66
1
 10
0.00
 20
0.00
 30
0.00
 40
0.20
 41
0.20
  0
VERTEX
  8
047706-6ROU1_GBR
 10
212.000008
 20
71.460334
 30
0.00
  0
VERTEX
  8
047706-6ROU1_GBR
 10
212.000008
 20
42.999152
 30
0.00
  0
VERTEX
  8
047706-6ROU1_GBR
 10
210.000952
 20
41.000096
 30
0.00
  0
VERTEX
  8
047706-6ROU1_GBR
 10
173.998992
 20
41.000096
 30
0.00
  0
VERTEX
  8
047706-6ROU1_GBR
 10
172.000012
 20
42.999076
 30
0.00
  0
VERTEX
  8
047706-6ROU1_GBR
 10
172.000012
 20
71.447432
 30
0.00
  0
SEQEND
  0
POLYLINE
  8
047706-6ROU1_GBR
 66
1
 10
0.00
 20
0.00
 30
0.00
 40
0.20
 41
0.20
  0
VERTEX
  8
047706-6ROU1_GBR
 10
172.000012
 20
71.447432
 30
0.00
 42
0.9935709
  0
VERTEX
  8
047706-6ROU1_GBR
 10
169.999992
 20
71.460332
 30
0.00
 42
0.00
  0
SEQEND
  0
POLYLINE
  8
047706-6ROU1_GBR
 66
1
 10
0.00
 20
0.00
 30
0.00
 40
0.20
 41
0.20
  0
VERTEX
  8
047706-6ROU1_GBR
 10
169.99999
 20
71.460334
 30
0.00
  0
VERTEX
  8
047706-6ROU1_GBR
 10
169.99999
 20
42.999152
 30
0.00
  0
VERTEX
  8
047706-6ROU1_GBR
 10
168.000934
 20
41.000096
 30
0.00
  0
VERTEX
  8
047706-6ROU1_GBR
 10
131.998974
 20
41.000096
 30
0.00
  0
VERTEX
  8
047706-6ROU1_GBR
 10
129.999994
 20
42.999076
 30
0.00
  0
VERTEX
  8
047706-6ROU1_GBR
 10
129.999994
 20
71.447432
 30
0.00
  0
SEQEND
  0
POLYLINE
  8
047706-6ROU1_GBR
 66
1
 10
0.00
 20
0.00
 30
0.00
 40
0.20
 41
0.20
  0
VERTEX
  8
047706-6ROU1_GBR
 10
129.999994
 20
71.447432
 30
0.00
 42
0.9935699
  0
VERTEX
  8
047706-6ROU1_GBR
 10
127.99998
 20
71.460334
 30
0.00
 42
0.00
  0
SEQEND
  0
POLYLINE
  8
047706-6ROU1_GBR
 66
1
 10
0.00
 20
0.00
 30
0.00
 40
0.20
 41
0.20
  0
VERTEX
  8
047706-6ROU1_GBR
 10
127.999998
 20
71.460334
 30
0.00
  0
VERTEX
  8
047706-6ROU1_GBR
 10
127.999998
 20
42.999152
 30
0.00
  0
VERTEX
  8
047706-6ROU1_GBR
 10
126.000942
 20
41.000096
 30
0.00
  0
VERTEX
  8
047706-6ROU1_GBR
 10
89.998982
 20
41.000096
 30
0.00
  0
VERTEX
  8
047706-6ROU1_GBR
 10
88.000002
 20
42.999076
 30
0.00
  0
VERTEX
  8
047706-6ROU1_GBR
 10
88.000002
 20
71.447432
 30
0.00
  0
SEQEND
  0
POLYLINE
  8
047706-6ROU1_GBR
 66
1
 10
0.00
 20
0.00
 30
0.00
 40
0.20
 41
0.20
  0
VERTEX
  8
047706-6ROU1_GBR
 10
88.000002
 20
71.447432
 30
0.00
 42
1.00
  0
VERTEX
  8
047706-6ROU1_GBR
 10
86.000006
 20
71.447432
 30
0.00
 42
0.00
  0
SEQEND
  0
POLYLINE
  8
047706-6ROU1_GBR
 66
1
 10
0.00
 20
0.00
 30
0.00
 40
0.20
 41
0.20
  0
VERTEX
  8
047706-6ROU1_GBR
 10
86.000006
 20
71.447432
 30
0.00
  0
VERTEX
  8
047706-6ROU1_GBR
 10
86.000006
 20
41.000096
 30
0.00
  0
VERTEX
  8
047706-6ROU1_GBR
 10
81.49999
 20
41.000096
 30
0.00
  0
SEQEND
  0
POLYLINE
  8
047706-6ROU1_GBR
 66
1
 10
0.00
 20
0.00
 30
0.00
 40
0.20
 41
0.20
  0
VERTEX
  8
047706-6ROU1_GBR
 10
80.99999
 20
41.500094
 30
0.00
 42
0.4142136
  0
VERTEX
  8
047706-6ROU1_GBR
 10
81.49999
 20
41.000096
 30
0.00
 42
0.00
  0
SEQEND
  0
POLYLINE
  8
047706-6ROU1_GBR
 66
1
 10
0.00
 20
0.00
 30
0.00
 40
0.20
 41
0.20
  0
VERTEX
  8
047706-6ROU1_GBR
 10
80.99999
 20
41.500094
 30
0.00
  0
VERTEX
  8
047706-6ROU1_GBR
 10
80.99999
 20
258.499738
 30
0.00
  0
SEQEND
  0
POLYLINE
  8
047706-6ROU1_GBR
 66
1
 10
0.00
 20
0.00
 30
0.00
 40
0.20
 41
0.20
  0
VERTEX
  8
047706-6ROU1_GBR
 10
81.49999
 20
258.999736
 30
0.00
 42
0.4142136
  0
VERTEX
  8
047706-6ROU1_GBR
 10
80.99999
 20
258.499738
 30
0.00
 42
0.00
  0
SEQEND
  0
POLYLINE
  8
047706-6ROU1_GBR
 66
1
 10
0.00
 20
0.00
 30
0.00
 40
0.20
 41
0.20
  0
VERTEX
  8
047706-6ROU1_GBR
 10
81.49999
 20
258.999736
 30
0.00
  0
VERTEX
  8
047706-6ROU1_GBR
 10
86.000006
 20
258.999736
 30
0.00
  0
VERTEX
  8
047706-6ROU1_GBR
 10
86.000006
 20
242.847418
 30
0.00
  0
SEQEND
  0
POLYLINE
  8
047706-6ROU1_GBR
 66
1
 10
0.00
 20
0.00
 30
0.00
 40
0.20
 41
0.20
  0
VERTEX
  8
047706-6ROU1_GBR
 10
86.000006
 20
242.847418
 30
0.00
 42
1.00
  0
VERTEX
  8
047706-6ROU1_GBR
 10
88.000002
 20
242.847418
 30
0.00
 42
0.00
  0
SEQEND
  0
POLYLINE
  8
047706-6ROU1_GBR
 66
1
 10
0.00
 20
0.00
 30
0.00
 40
0.20
 41
0.20
  0
VERTEX
  8
047706-6ROU1_GBR
 10
88.000002
 20
242.847418
 30
0.00
  0
VERTEX
  8
047706-6ROU1_GBR
 10
88.000002
 20
257.000756
 30
0.00
  0
VERTEX
  8
047706-6ROU1_GBR
 10
89.998982
 20
258.999736
 30
0.00
  0
VERTEX
  8
047706-6ROU1_GBR
 10
126.000942
 20
258.999736
 30
0.00
  0
VERTEX
  8
047706-6ROU1_GBR
 10
127.999998
 20
257.00068
 30
0.00
  0
VERTEX
  8
047706-6ROU1_GBR
 10
127.999998
 20
242.834516
 30
0.00
  0
SEQEND
  0
POLYLINE
  8
047706-6ROU1_GBR
 66
1
 10
0.00
 20
0.00
 30
0.00
 40
0.20
 41
0.20
  0
VERTEX
  8
047706-6ROU1_GBR
 10
127.999998
 20
242.834516
 30
0.00
 42
0.9935697
  0
VERTEX
  8
047706-6ROU1_GBR
 10
129.999976
 20
242.847418
 30
0.00
 42
0.00
  0
SEQEND
  0
POLYLINE
  8
047706-6ROU1_GBR
 66
1
 10
0.00
 20
0.00
 30
0.00
 40
0.20
 41
0.20
  0
VERTEX
  8
047706-6ROU1_GBR
 10
129.999994
 20
242.847418
 30
0.00
  0
VERTEX
  8
047706-6ROU1_GBR
 10
129.999994
 20
257.000756
 30
0.00
  0
VERTEX
  8
047706-6ROU1_GBR
 10
131.998974
 20
258.999736
 30
0.00
  0
VERTEX
  8
047706-6ROU1_GBR
 10
168.000934
 20
258.999736
 30
0.00
  0
VERTEX
  8
047706-6ROU1_GBR
 10
169.99999
 20
257.00068
 30
0.00
  0
VERTEX
  8
047706-6ROU1_GBR
 10
169.99999
 20
242.834516
 30
0.00
  0
SEQEND
  0
POLYLINE
  8
047706-6ROU1_GBR
 66
1
 10
0.00
 20
0.00
 30
0.00
 40
0.20
 41
0.20
  0
VERTEX
  8
047706-6ROU1_GBR
 10
169.99999
 20
242.834516
 30
0.00
 42
0.9935699
  0
VERTEX
  8
047706-6ROU1_GBR
 10
172.000016
 20
242.847418
 30
0.00
 42
0.00
  0
SEQEND
  0
POLYLINE
  8
047706-6ROU1_GBR
 66
1
 10
0.00
 20
0.00
 30
0.00
 40
0.20
 41
0.20
  0
VERTEX
  8
047706-6ROU1_GBR
 10
172.000012
 20
242.847418
 30
0.00
  0
VERTEX
  8
047706-6ROU1_GBR
 10
172.000012
 20
257.000756
 30
0.00
  0
VERTEX
  8
047706-6ROU1_GBR
 10
173.998992
 20
258.999736
 30
0.00
  0
VERTEX
  8
047706-6ROU1_GBR
 10
210.000952
 20
258.999736
 30
0.00
  0
SEQEND
  0
ENDSEC
  0
EOF
