  0
SECTION
  2
HEADER
  9
$EXTMIN
 10
-258.359834
 20
-58.010602
 30
0.00
  9
$EXTMAX
 10
470.00
 20
419.20
 30
0.00
  0
ENDSEC
  0
SECTION
  2
TABLES
  0
TABLE
  2
LTYPE
 70
3
  0
LTYPE
  2
BYBLOCK
 70
0
  3

 72
65
 73
0
 40
0.00
  0
LTYPE
  2
BYLAYER
 70
0
  3

 72
65
 73
0
 40
0.00
  0
LTYPE
  2
CONTINUOUS
 70
0
  3
Solid line
 72
65
 73
0
 40
0.00
  0
ENDTAB
  0
TABLE
  2
LAYER
 70
99
  0
LAYER
  2
0
 70
0
 62
7
  6
CONTINUOUS
  0
LAYER
  2
020671-1ROU1_GBR
 70
0
 62
7
  6
CONTINUOUS
  0
LAYER
  2
027417-3ROU1_GBR
 70
0
 62
7
  6
CONTINUOUS
  0
LAYER
  2
027419-1ROU1_GBR
 70
0
 62
2
  6
CONTINUOUS
  0
LAYER
  2
027419-2ROU1_GBR
 70
0
 62
6
  6
CONTINUOUS
  0
LAYER
  2
027674-1ROU1_GBR
 70
0
 62
1
  6
CONTINUOUS
  0
LAYER
  2
027676-1ROU1_GBR
 70
0
 62
4
  6
CONTINUOUS
  0
LAYER
  2
027678-3ROU1_GBR
 70
0
 62
3
  6
CONTINUOUS
  0
LAYER
  2
028122-1ROU1_GBR
 70
0
 62
5
  6
CONTINUOUS
  0
LAYER
  2
028124-5ROU1_GBR
 70
0
 62
10
  6
CONTINUOUS
  0
LAYER
  2
028126-1ROU1_GBR
 70
0
 62
14
  6
CONTINUOUS
  0
LAYER
  2
028126-3ROU1_GBR
 70
0
 62
9
  6
CONTINUOUS
  0
LAYER
  2
028126-6ROU1_GBR
 70
0
 62
12
  6
CONTINUOUS
  0
LAYER
  2
028126-7ROU1_GBR
 70
0
 62
11
  6
CONTINUOUS
  0
LAYER
  2
028129-1ROU1_GBR
 70
0
 62
13
  6
CONTINUOUS
  0
LAYER
  2
028130-1ROU1_GBR
 70
0
 62
8
  6
CONTINUOUS
  0
LAYER
  2
028130-4ROU1_GBR
 70
0
 62
15
  6
CONTINUOUS
  0
LAYER
  2
028130-5ROU1_GBR
 70
0
 62
7
  6
CONTINUOUS
  0
LAYER
  2
028130-7ROU1_GBR
 70
0
 62
7
  6
CONTINUOUS
  0
LAYER
  2
028655-1ROU1_GBR
 70
0
 62
2
  6
CONTINUOUS
  0
LAYER
  2
028657-1ROU1_GBR
 70
0
 62
6
  6
CONTINUOUS
  0
LAYER
  2
028659-2ROU1_GBR
 70
0
 62
1
  6
CONTINUOUS
  0
LAYER
  2
028659-4ROU1_GBR
 70
0
 62
4
  6
CONTINUOUS
  0
LAYER
  2
028661-1ROU1_GBR
 70
0
 62
3
  6
CONTINUOUS
  0
LAYER
  2
028663-1ROU1_GBR
 70
0
 62
5
  6
CONTINUOUS
  0
LAYER
  2
028665-1ROU1_GBR
 70
0
 62
10
  6
CONTINUOUS
  0
LAYER
  2
028669-1ROU1_GBR
 70
0
 62
14
  6
CONTINUOUS
  0
LAYER
  2
028673-2ROU1_GBR
 70
0
 62
9
  6
CONTINUOUS
  0
LAYER
  2
037088-3ROU1_GBR
 70
0
 62
12
  6
CONTINUOUS
  0
LAYER
  2
037682-1ROU1_GBR
 70
0
 62
11
  6
CONTINUOUS
  0
LAYER
  2
037686-1ROU1_GBR
 70
0
 62
13
  6
CONTINUOUS
  0
LAYER
  2
037688-1ROU1_GBR
 70
0
 62
8
  6
CONTINUOUS
  0
LAYER
  2
038681-1ROU1_GBR
 70
0
 62
15
  6
CONTINUOUS
  0
LAYER
  2
038683-1ROU1_GBR
 70
0
 62
7
  6
CONTINUOUS
  0
LAYER
  2
038683-2ROU1_GBR
 70
0
 62
7
  6
CONTINUOUS
  0
LAYER
  2
038685-1ROU1_GBR
 70
0
 62
2
  6
CONTINUOUS
  0
LAYER
  2
038689-1ROU1_GBR
 70
0
 62
6
  6
CONTINUOUS
  0
LAYER
  2
038689-2ROU1_GBR
 70
0
 62
1
  6
CONTINUOUS
  0
LAYER
  2
038691-1ROU1_GBR
 70
0
 62
4
  6
CONTINUOUS
  0
LAYER
  2
038691-2ROU1_GBR
 70
0
 62
3
  6
CONTINUOUS
  0
LAYER
  2
038691-3ROU1_GBR
 70
0
 62
5
  6
CONTINUOUS
  0
LAYER
  2
038691-4ROU1_GBR
 70
0
 62
10
  6
CONTINUOUS
  0
LAYER
  2
038693-1ROU1_GBR
 70
0
 62
14
  6
CONTINUOUS
  0
LAYER
  2
038695-1ROU1_GBR
 70
0
 62
9
  6
CONTINUOUS
  0
LAYER
  2
038697-1ROU1_GBR
 70
0
 62
12
  6
CONTINUOUS
  0
LAYER
  2
038697-3ROU1_GBR
 70
0
 62
11
  6
CONTINUOUS
  0
LAYER
  2
038697-4ROU1_GBR
 70
0
 62
13
  6
CONTINUOUS
  0
LAYER
  2
038697-5ROU1_GBR
 70
0
 62
8
  6
CONTINUOUS
  0
LAYER
  2
047706-4ROU1_GBR
 70
0
 62
15
  6
CONTINUOUS
  0
LAYER
  2
047706-5ROU1_GBR
 70
0
 62
7
  6
CONTINUOUS
  0
LAYER
  2
047706-6ROU1_GBR
 70
0
 62
7
  6
CONTINUOUS
  0
LAYER
  2
047708-1ROU1_GBR
 70
0
 62
2
  6
CONTINUOUS
  0
LAYER
  2
047710-1ROU1_GBR
 70
0
 62
6
  6
CONTINUOUS
  0
LAYER
  2
047712-1ROU1_GBR
 70
0
 62
1
  6
CONTINUOUS
  0
LAYER
  2
047714-2ROU1_GBR
 70
0
 62
4
  6
CONTINUOUS
  0
LAYER
  2
048701-1ROU1_GBR
 70
0
 62
3
  6
CONTINUOUS
  0
LAYER
  2
048703-1ROU1_GBR
 70
0
 62
10
  6
CONTINUOUS
  0
LAYER
  2
048711-1ROU1_GBR
 70
0
 62
14
  6
CONTINUOUS
  0
LAYER
  2
048715-1ROU1_GBR
 70
0
 62
9
  6
CONTINUOUS
  0
LAYER
  2
058721-2ROU1_GBR
 70
0
 62
12
  6
CONTINUOUS
  0
LAYER
  2
058723-10ROU1_GBR
 70
0
 62
11
  6
CONTINUOUS
  0
LAYER
  2
058723-1ROU1_GBR
 70
0
 62
13
  6
CONTINUOUS
  0
LAYER
  2
058723-6ROU1_GBR
 70
0
 62
8
  6
CONTINUOUS
  0
LAYER
  2
058723-9ROU1_GBR
 70
0
 62
15
  6
CONTINUOUS
  0
LAYER
  2
067601-1ROU1_GBR
 70
0
 62
7
  6
CONTINUOUS
  0
LAYER
  2
068162-1ROU1_GBR
 70
0
 62
7
  6
CONTINUOUS
  0
LAYER
  2
068162-3ROU1_GBR
 70
0
 62
2
  6
CONTINUOUS
  0
LAYER
  2
068162-4ROU1_GBR
 70
0
 62
6
  6
CONTINUOUS
  0
LAYER
  2
077742-1ROU1_GBR
 70
0
 62
1
  6
CONTINUOUS
  0
LAYER
  2
078731-1ROU1_GBR
 70
0
 62
4
  6
CONTINUOUS
  0
LAYER
  2
078735-3ROU1_GBR
 70
0
 62
3
  6
CONTINUOUS
  0
LAYER
  2
078739-1ROU1_GBR
 70
0
 62
5
  6
CONTINUOUS
  0
LAYER
  2
078753-1ROU1_GBR
 70
0
 62
10
  6
CONTINUOUS
  0
LAYER
  2
078757-1ROU1_GBR
 70
0
 62
14
  6
CONTINUOUS
  0
LAYER
  2
087768-2ROU1_GBR
 70
0
 62
9
  6
CONTINUOUS
  0
LAYER
  2
087772-1ROU1_GBR
 70
0
 62
12
  6
CONTINUOUS
  0
LAYER
  2
087780-1ROU1_GBR
 70
0
 62
11
  6
CONTINUOUS
  0
LAYER
  2
087782-9ROU1_GBR
 70
0
 62
13
  6
CONTINUOUS
  0
LAYER
  2
088783-4ROU1_GBR
 70
0
 62
8
  6
CONTINUOUS
  0
LAYER
  2
088785-1ROU1_GBR
 70
0
 62
15
  6
CONTINUOUS
  0
LAYER
  2
097800-6ROU1_GBR
 70
0
 62
7
  6
CONTINUOUS
  0
LAYER
  2
097810-1ROU1_GBR
 70
0
 62
7
  6
CONTINUOUS
  0
LAYER
  2
098787-1ROU1_GBR
 70
0
 62
2
  6
CONTINUOUS
  0
LAYER
  2
098787-2ROU1_GBR
 70
0
 62
6
  6
CONTINUOUS
  0
LAYER
  2
098789-1ROU1_GBR
 70
0
 62
1
  6
CONTINUOUS
  0
LAYER
  2
098811-1ROU1_GBR
 70
0
 62
4
  6
CONTINUOUS
  0
LAYER
  2
098815-1ROU1_GBR
 70
0
 62
3
  6
CONTINUOUS
  0
LAYER
  2
098815-2ROU1_GBR
 70
0
 62
5
  6
CONTINUOUS
  0
LAYER
  2
107824-1ROU1_GBR
 70
0
 62
10
  6
CONTINUOUS
  0
LAYER
  2
118200-1ROU1_GBR
 70
0
 62
14
  6
CONTINUOUS
  0
LAYER
  2
257017-1ROU1_GBR
 70
0
 62
9
  6
CONTINUOUS
  0
LAYER
  2
268076-7ROU1_GBR
 70
0
 62
12
  6
CONTINUOUS
  0
LAYER
  2
288088-1ROU1_GBR
 70
0
 62
11
  6
CONTINUOUS
  0
LAYER
  2
307251-1ROU1_GBR
 70
0
 62
13
  6
CONTINUOUS
  0
LAYER
  2
307273-4ROU1_GBR
 70
0
 62
8
  6
CONTINUOUS
  0
LAYER
  2
307283-1ROU1_GBR
 70
0
 62
15
  6
CONTINUOUS
  0
LAYER
  2
307291-1ROU1_GBR
 70
0
 62
7
  6
CONTINUOUS
  0
LAYER
  2
308108-1ROU1_GBR
 70
0
 62
7
  6
CONTINUOUS
  0
LAYER
  2
308111-1ROU1_GBR
 70
0
 62
2
  6
CONTINUOUS
  0
LAYER
  2
308112-1ROU1_GBR
 70
0
 62
6
  6
CONTINUOUS
  0
ENDTAB
  0
TABLE
  2
STYLE
 70
0
  0
ENDTAB
  0
ENDSEC
  0
SECTION
  2
BLOCKS
  0
BLOCK
  2
ROUND_1
  3
ROUND_1
 70
64
 10
0.00
 20
0.00
 30
0.00
  0
CIRCLE
  8
0
 10
0.00
 20
0.00
 30
0.00
 40
0.10
  0
ENDBLK
  0
ENDSEC
  0
SECTION
  2
ENTITIES
  0
POLYLINE
  8
047706-5ROU1_GBR
 66
1
 10
0.00
 20
0.00
 30
0.00
 40
0.20
 41
0.20
  0
VERTEX
  8
047706-5ROU1_GBR
 10
209.000826
 20
247.002682
 30
0.00
 42
0.4137378
  0
VERTEX
  8
047706-5ROU1_GBR
 10
206.999306
 20
249.00095
 30
0.00
 42
0.00
  0
SEQEND
  0
POLYLINE
  8
047706-5ROU1_GBR
 66
1
 10
0.00
 20
0.00
 30
0.00
 40
0.20
 41
0.20
  0
VERTEX
  8
047706-5ROU1_GBR
 10
209.000826
 20
247.002682
 30
0.00
  0
VERTEX
  8
047706-5ROU1_GBR
 10
209.000852
 20
233.19293
 30
0.00
  0
SEQEND
  0
POLYLINE
  8
047706-5ROU1_GBR
 66
1
 10
0.00
 20
0.00
 30
0.00
 40
0.20
 41
0.20
  0
VERTEX
  8
047706-5ROU1_GBR
 10
209.000852
 20
233.19293
 30
0.00
 42
0.9968678
  0
VERTEX
  8
047706-5ROU1_GBR
 10
211.000814
 20
233.199204
 30
0.00
 42
0.00
  0
SEQEND
  0
POLYLINE
  8
047706-5ROU1_GBR
 66
1
 10
0.00
 20
0.00
 30
0.00
 40
0.20
 41
0.20
  0
VERTEX
  8
047706-5ROU1_GBR
 10
211.000822
 20
233.199204
 30
0.00
  0
VERTEX
  8
047706-5ROU1_GBR
 10
211.000822
 20
249.00095
 30
0.00
  0
VERTEX
  8
047706-5ROU1_GBR
 10
215.50084
 20
249.00095
 30
0.00
  0
SEQEND
  0
POLYLINE
  8
047706-5ROU1_GBR
 66
1
 10
0.00
 20
0.00
 30
0.00
 40
0.20
 41
0.20
  0
VERTEX
  8
047706-5ROU1_GBR
 10
216.000838
 20
248.50095
 30
0.00
 42
0.4142136
  0
VERTEX
  8
047706-5ROU1_GBR
 10
215.50084
 20
249.00095
 30
0.00
 42
0.00
  0
SEQEND
  0
POLYLINE
  8
047706-5ROU1_GBR
 66
1
 10
0.00
 20
0.00
 30
0.00
 40
0.20
 41
0.20
  0
VERTEX
  8
047706-5ROU1_GBR
 10
216.000838
 20
248.50095
 30
0.00
  0
VERTEX
  8
047706-5ROU1_GBR
 10
216.000838
 20
51.499998
 30
0.00
  0
SEQEND
  0
POLYLINE
  8
047706-5ROU1_GBR
 66
1
 10
0.00
 20
0.00
 30
0.00
 40
0.20
 41
0.20
  0
VERTEX
  8
047706-5ROU1_GBR
 10
215.50084
 20
51.00
 30
0.00
 42
0.4142136
  0
VERTEX
  8
047706-5ROU1_GBR
 10
216.000838
 20
51.499998
 30
0.00
 42
0.00
  0
SEQEND
  0
POLYLINE
  8
047706-5ROU1_GBR
 66
1
 10
0.00
 20
0.00
 30
0.00
 40
0.20
 41
0.20
  0
VERTEX
  8
047706-5ROU1_GBR
 10
215.50084
 20
51.00
 30
0.00
  0
VERTEX
  8
047706-5ROU1_GBR
 10
211.000822
 20
51.00
 30
0.00
  0
VERTEX
  8
047706-5ROU1_GBR
 10
211.000822
 20
66.799206
 30
0.00
  0
SEQEND
  0
POLYLINE
  8
047706-5ROU1_GBR
 66
1
 10
0.00
 20
0.00
 30
0.00
 40
0.20
 41
0.20
  0
VERTEX
  8
047706-5ROU1_GBR
 10
211.000822
 20
66.799206
 30
0.00
 42
1.0048608
  0
VERTEX
  8
047706-5ROU1_GBR
 10
209.000006
 20
66.789504
 30
0.00
 42
0.00
  0
SEQEND
  0
POLYLINE
  8
047706-5ROU1_GBR
 66
1
 10
0.00
 20
0.00
 30
0.00
 40
0.20
 41
0.20
  0
VERTEX
  8
047706-5ROU1_GBR
 10
208.999988
 20
66.789504
 30
0.00
  0
VERTEX
  8
047706-5ROU1_GBR
 10
209.000802
 20
52.992224
 30
0.00
  0
SEQEND
  0
POLYLINE
  8
047706-5ROU1_GBR
 66
1
 10
0.00
 20
0.00
 30
0.00
 40
0.20
 41
0.20
  0
VERTEX
  8
047706-5ROU1_GBR
 10
207.001846
 20
51.00
 30
0.00
 42
0.4128533
  0
VERTEX
  8
047706-5ROU1_GBR
 10
209.000802
 20
52.992224
 30
0.00
 42
0.00
  0
SEQEND
  0
POLYLINE
  8
047706-5ROU1_GBR
 66
1
 10
0.00
 20
0.00
 30
0.00
 40
0.20
 41
0.20
  0
VERTEX
  8
047706-5ROU1_GBR
 10
207.001846
 20
51.00
 30
0.00
  0
VERTEX
  8
047706-5ROU1_GBR
 10
172.998866
 20
51.00
 30
0.00
  0
SEQEND
  0
POLYLINE
  8
047706-5ROU1_GBR
 66
1
 10
0.00
 20
0.00
 30
0.00
 40
0.20
 41
0.20
  0
VERTEX
  8
047706-5ROU1_GBR
 10
170.999988
 20
53.002306
 30
0.00
 42
0.4147007
  0
VERTEX
  8
047706-5ROU1_GBR
 10
172.998864
 20
50.999996
 30
0.00
 42
0.00
  0
SEQEND
  0
POLYLINE
  8
047706-5ROU1_GBR
 66
1
 10
0.00
 20
0.00
 30
0.00
 40
0.20
 41
0.20
  0
VERTEX
  8
047706-5ROU1_GBR
 10
170.999988
 20
53.002306
 30
0.00
  0
VERTEX
  8
047706-5ROU1_GBR
 10
170.999886
 20
66.80139
 30
0.00
  0
SEQEND
  0
POLYLINE
  8
047706-5ROU1_GBR
 66
1
 10
0.00
 20
0.00
 30
0.00
 40
0.20
 41
0.20
  0
VERTEX
  8
047706-5ROU1_GBR
 10
170.999886
 20
66.80139
 30
0.00
 42
1.0037552
  0
VERTEX
  8
047706-5ROU1_GBR
 10
168.999986
 20
66.789526
 30
0.00
 42
0.00
  0
SEQEND
  0
POLYLINE
  8
047706-5ROU1_GBR
 66
1
 10
0.00
 20
0.00
 30
0.00
 40
0.20
 41
0.20
  0
VERTEX
  8
047706-5ROU1_GBR
 10
168.999992
 20
66.789528
 30
0.00
  0
VERTEX
  8
047706-5ROU1_GBR
 10
169.000806
 20
52.992198
 30
0.00
  0
SEQEND
  0
POLYLINE
  8
047706-5ROU1_GBR
 66
1
 10
0.00
 20
0.00
 30
0.00
 40
0.20
 41
0.20
  0
VERTEX
  8
047706-5ROU1_GBR
 10
167.00185
 20
51.00
 30
0.00
 42
0.4128498
  0
VERTEX
  8
047706-5ROU1_GBR
 10
169.000806
 20
52.992198
 30
0.00
 42
0.00
  0
SEQEND
  0
POLYLINE
  8
047706-5ROU1_GBR
 66
1
 10
0.00
 20
0.00
 30
0.00
 40
0.20
 41
0.20
  0
VERTEX
  8
047706-5ROU1_GBR
 10
167.00185
 20
51.00
 30
0.00
  0
VERTEX
  8
047706-5ROU1_GBR
 10
132.99887
 20
51.00
 30
0.00
  0
SEQEND
  0
POLYLINE
  8
047706-5ROU1_GBR
 66
1
 10
0.00
 20
0.00
 30
0.00
 40
0.20
 41
0.20
  0
VERTEX
  8
047706-5ROU1_GBR
 10
130.999992
 20
53.002434
 30
0.00
 42
0.4147195
  0
VERTEX
  8
047706-5ROU1_GBR
 10
132.998868
 20
50.999996
 30
0.00
 42
0.00
  0
SEQEND
  0
POLYLINE
  8
047706-5ROU1_GBR
 66
1
 10
0.00
 20
0.00
 30
0.00
 40
0.20
 41
0.20
  0
VERTEX
  8
047706-5ROU1_GBR
 10
130.999992
 20
53.002434
 30
0.00
  0
VERTEX
  8
047706-5ROU1_GBR
 10
130.99989
 20
66.801366
 30
0.00
  0
SEQEND
  0
POLYLINE
  8
047706-5ROU1_GBR
 66
1
 10
0.00
 20
0.00
 30
0.00
 40
0.20
 41
0.20
  0
VERTEX
  8
047706-5ROU1_GBR
 10
130.99989
 20
66.801366
 30
0.00
 42
1.0037793
  0
VERTEX
  8
047706-5ROU1_GBR
 10
128.99999
 20
66.789502
 30
0.00
 42
0.00
  0
SEQEND
  0
POLYLINE
  8
047706-5ROU1_GBR
 66
1
 10
0.00
 20
0.00
 30
0.00
 40
0.20
 41
0.20
  0
VERTEX
  8
047706-5ROU1_GBR
 10
128.999996
 20
66.789504
 30
0.00
  0
VERTEX
  8
047706-5ROU1_GBR
 10
129.000808
 20
52.992224
 30
0.00
  0
SEQEND
  0
POLYLINE
  8
047706-5ROU1_GBR
 66
1
 10
0.00
 20
0.00
 30
0.00
 40
0.20
 41
0.20
  0
VERTEX
  8
047706-5ROU1_GBR
 10
127.001854
 20
51.00
 30
0.00
 42
0.412853
  0
VERTEX
  8
047706-5ROU1_GBR
 10
129.000808
 20
52.992224
 30
0.00
 42
0.00
  0
SEQEND
  0
POLYLINE
  8
047706-5ROU1_GBR
 66
1
 10
0.00
 20
0.00
 30
0.00
 40
0.20
 41
0.20
  0
VERTEX
  8
047706-5ROU1_GBR
 10
127.001854
 20
51.00
 30
0.00
  0
VERTEX
  8
047706-5ROU1_GBR
 10
92.998874
 20
51.00
 30
0.00
  0
SEQEND
  0
POLYLINE
  8
047706-5ROU1_GBR
 66
1
 10
0.00
 20
0.00
 30
0.00
 40
0.20
 41
0.20
  0
VERTEX
  8
047706-5ROU1_GBR
 10
90.999996
 20
53.002306
 30
0.00
 42
0.4147007
  0
VERTEX
  8
047706-5ROU1_GBR
 10
92.998872
 20
50.999996
 30
0.00
 42
0.00
  0
SEQEND
  0
POLYLINE
  8
047706-5ROU1_GBR
 66
1
 10
0.00
 20
0.00
 30
0.00
 40
0.20
 41
0.20
  0
VERTEX
  8
047706-5ROU1_GBR
 10
90.999996
 20
53.002306
 30
0.00
  0
VERTEX
  8
047706-5ROU1_GBR
 10
90.999894
 20
66.80139
 30
0.00
  0
SEQEND
  0
POLYLINE
  8
047706-5ROU1_GBR
 66
1
 10
0.00
 20
0.00
 30
0.00
 40
0.20
 41
0.20
  0
VERTEX
  8
047706-5ROU1_GBR
 10
90.999894
 20
66.80139
 30
0.00
 42
0.9989086
  0
VERTEX
  8
047706-5ROU1_GBR
 10
88.999898
 20
66.799206
 30
0.00
 42
0.00
  0
SEQEND
  0
POLYLINE
  8
047706-5ROU1_GBR
 66
1
 10
0.00
 20
0.00
 30
0.00
 40
0.20
 41
0.20
  0
VERTEX
  8
047706-5ROU1_GBR
 10
88.999898
 20
66.799206
 30
0.00
  0
VERTEX
  8
047706-5ROU1_GBR
 10
88.999898
 20
51.00
 30
0.00
  0
VERTEX
  8
047706-5ROU1_GBR
 10
84.499882
 20
51.00
 30
0.00
  0
SEQEND
  0
POLYLINE
  8
047706-5ROU1_GBR
 66
1
 10
0.00
 20
0.00
 30
0.00
 40
0.20
 41
0.20
  0
VERTEX
  8
047706-5ROU1_GBR
 10
83.999882
 20
51.499998
 30
0.00
 42
0.4142136
  0
VERTEX
  8
047706-5ROU1_GBR
 10
84.499882
 20
51.00
 30
0.00
 42
0.00
  0
SEQEND
  0
POLYLINE
  8
047706-5ROU1_GBR
 66
1
 10
0.00
 20
0.00
 30
0.00
 40
0.20
 41
0.20
  0
VERTEX
  8
047706-5ROU1_GBR
 10
83.999882
 20
51.499998
 30
0.00
  0
VERTEX
  8
047706-5ROU1_GBR
 10
83.999882
 20
248.50095
 30
0.00
  0
SEQEND
  0
POLYLINE
  8
047706-5ROU1_GBR
 66
1
 10
0.00
 20
0.00
 30
0.00
 40
0.20
 41
0.20
  0
VERTEX
  8
047706-5ROU1_GBR
 10
84.499882
 20
249.00095
 30
0.00
 42
0.4142136
  0
VERTEX
  8
047706-5ROU1_GBR
 10
83.999882
 20
248.50095
 30
0.00
 42
0.00
  0
SEQEND
  0
POLYLINE
  8
047706-5ROU1_GBR
 66
1
 10
0.00
 20
0.00
 30
0.00
 40
0.20
 41
0.20
  0
VERTEX
  8
047706-5ROU1_GBR
 10
84.499882
 20
249.00095
 30
0.00
  0
VERTEX
  8
047706-5ROU1_GBR
 10
88.999898
 20
249.00095
 30
0.00
  0
VERTEX
  8
047706-5ROU1_GBR
 10
88.999898
 20
233.199204
 30
0.00
  0
SEQEND
  0
POLYLINE
  8
047706-5ROU1_GBR
 66
1
 10
0.00
 20
0.00
 30
0.00
 40
0.20
 41
0.20
  0
VERTEX
  8
047706-5ROU1_GBR
 10
88.999898
 20
233.199204
 30
0.00
 42
1.0016773
  0
VERTEX
  8
047706-5ROU1_GBR
 10
90.999996
 20
233.202556
 30
0.00
 42
0.00
  0
SEQEND
  0
POLYLINE
  8
047706-5ROU1_GBR
 66
1
 10
0.00
 20
0.00
 30
0.00
 40
0.20
 41
0.20
  0
VERTEX
  8
047706-5ROU1_GBR
 10
90.999996
 20
233.202556
 30
0.00
  0
VERTEX
  8
047706-5ROU1_GBR
 10
90.999894
 20
247.00169
 30
0.00
  0
SEQEND
  0
POLYLINE
  8
047706-5ROU1_GBR
 66
1
 10
0.00
 20
0.00
 30
0.00
 40
0.20
 41
0.20
  0
VERTEX
  8
047706-5ROU1_GBR
 10
92.998874
 20
249.00095
 30
0.00
 42
0.4138827
  0
VERTEX
  8
047706-5ROU1_GBR
 10
90.999894
 20
247.00169
 30
0.00
 42
0.00
  0
SEQEND
  0
POLYLINE
  8
047706-5ROU1_GBR
 66
1
 10
0.00
 20
0.00
 30
0.00
 40
0.20
 41
0.20
  0
VERTEX
  8
047706-5ROU1_GBR
 10
92.998874
 20
249.00095
 30
0.00
  0
VERTEX
  8
047706-5ROU1_GBR
 10
126.999314
 20
249.00095
 30
0.00
  0
SEQEND
  0
POLYLINE
  8
047706-5ROU1_GBR
 66
1
 10
0.00
 20
0.00
 30
0.00
 40
0.20
 41
0.20
  0
VERTEX
  8
047706-5ROU1_GBR
 10
129.000834
 20
247.002682
 30
0.00
 42
0.4137378
  0
VERTEX
  8
047706-5ROU1_GBR
 10
126.999314
 20
249.00095
 30
0.00
 42
0.00
  0
SEQEND
  0
POLYLINE
  8
047706-5ROU1_GBR
 66
1
 10
0.00
 20
0.00
 30
0.00
 40
0.20
 41
0.20
  0
VERTEX
  8
047706-5ROU1_GBR
 10
129.000834
 20
247.002682
 30
0.00
  0
VERTEX
  8
047706-5ROU1_GBR
 10
129.00086
 20
233.19293
 30
0.00
  0
SEQEND
  0
POLYLINE
  8
047706-5ROU1_GBR
 66
1
 10
0.00
 20
0.00
 30
0.00
 40
0.20
 41
0.20
  0
VERTEX
  8
047706-5ROU1_GBR
 10
129.00086
 20
233.19293
 30
0.00
 42
0.9986034
  0
VERTEX
  8
047706-5ROU1_GBR
 10
131.000002
 20
233.202684
 30
0.00
 42
0.00
  0
SEQEND
  0
POLYLINE
  8
047706-5ROU1_GBR
 66
1
 10
0.00
 20
0.00
 30
0.00
 40
0.20
 41
0.20
  0
VERTEX
  8
047706-5ROU1_GBR
 10
130.999992
 20
233.202684
 30
0.00
  0
VERTEX
  8
047706-5ROU1_GBR
 10
130.99989
 20
247.001792
 30
0.00
  0
SEQEND
  0
POLYLINE
  8
047706-5ROU1_GBR
 66
1
 10
0.00
 20
0.00
 30
0.00
 40
0.20
 41
0.20
  0
VERTEX
  8
047706-5ROU1_GBR
 10
132.99887
 20
249.00095
 30
0.00
 42
0.4138677
  0
VERTEX
  8
047706-5ROU1_GBR
 10
130.99989
 20
247.001792
 30
0.00
 42
0.00
  0
SEQEND
  0
POLYLINE
  8
047706-5ROU1_GBR
 66
1
 10
0.00
 20
0.00
 30
0.00
 40
0.20
 41
0.20
  0
VERTEX
  8
047706-5ROU1_GBR
 10
132.99887
 20
249.00095
 30
0.00
  0
VERTEX
  8
047706-5ROU1_GBR
 10
166.99931
 20
249.00095
 30
0.00
  0
SEQEND
  0
POLYLINE
  8
047706-5ROU1_GBR
 66
1
 10
0.00
 20
0.00
 30
0.00
 40
0.20
 41
0.20
  0
VERTEX
  8
047706-5ROU1_GBR
 10
169.00083
 20
247.002656
 30
0.00
 42
0.4137416
  0
VERTEX
  8
047706-5ROU1_GBR
 10
166.99931
 20
249.00095
 30
0.00
 42
0.00
  0
SEQEND
  0
POLYLINE
  8
047706-5ROU1_GBR
 66
1
 10
0.00
 20
0.00
 30
0.00
 40
0.20
 41
0.20
  0
VERTEX
  8
047706-5ROU1_GBR
 10
169.00083
 20
247.002656
 30
0.00
  0
VERTEX
  8
047706-5ROU1_GBR
 10
169.000856
 20
233.192956
 30
0.00
  0
SEQEND
  0
POLYLINE
  8
047706-5ROU1_GBR
 66
1
 10
0.00
 20
0.00
 30
0.00
 40
0.20
 41
0.20
  0
VERTEX
  8
047706-5ROU1_GBR
 10
169.000856
 20
233.192956
 30
0.00
 42
0.9985524
  0
VERTEX
  8
047706-5ROU1_GBR
 10
171.00
 20
233.202556
 30
0.00
 42
0.00
  0
SEQEND
  0
POLYLINE
  8
047706-5ROU1_GBR
 66
1
 10
0.00
 20
0.00
 30
0.00
 40
0.20
 41
0.20
  0
VERTEX
  8
047706-5ROU1_GBR
 10
170.999988
 20
233.202556
 30
0.00
  0
VERTEX
  8
047706-5ROU1_GBR
 10
170.999886
 20
247.00169
 30
0.00
  0
SEQEND
  0
POLYLINE
  8
047706-5ROU1_GBR
 66
1
 10
0.00
 20
0.00
 30
0.00
 40
0.20
 41
0.20
  0
VERTEX
  8
047706-5ROU1_GBR
 10
172.998866
 20
249.00095
 30
0.00
 42
0.4138827
  0
VERTEX
  8
047706-5ROU1_GBR
 10
170.999886
 20
247.00169
 30
0.00
 42
0.00
  0
SEQEND
  0
POLYLINE
  8
047706-5ROU1_GBR
 66
1
 10
0.00
 20
0.00
 30
0.00
 40
0.20
 41
0.20
  0
VERTEX
  8
047706-5ROU1_GBR
 10
172.998866
 20
249.00095
 30
0.00
  0
VERTEX
  8
047706-5ROU1_GBR
 10
206.999306
 20
249.00095
 30
0.00
  0
SEQEND
  0
ENDSEC
  0
EOF
