  0
SECTION
  2
HEADER
  9
$EXTMIN
 10
-258.359834
 20
-58.010602
 30
0.00
  9
$EXTMAX
 10
470.00
 20
419.20
 30
0.00
  0
ENDSEC
  0
SECTION
  2
TABLES
  0
TABLE
  2
LTYPE
 70
3
  0
LTYPE
  2
BYBLOCK
 70
0
  3

 72
65
 73
0
 40
0.00
  0
LTYPE
  2
BYLAYER
 70
0
  3

 72
65
 73
0
 40
0.00
  0
LTYPE
  2
CONTINUOUS
 70
0
  3
Solid line
 72
65
 73
0
 40
0.00
  0
ENDTAB
  0
TABLE
  2
LAYER
 70
99
  0
LAYER
  2
0
 70
0
 62
7
  6
CONTINUOUS
  0
LAYER
  2
020671-1ROU1_GBR
 70
0
 62
7
  6
CONTINUOUS
  0
LAYER
  2
027417-3ROU1_GBR
 70
0
 62
7
  6
CONTINUOUS
  0
LAYER
  2
027419-1ROU1_GBR
 70
0
 62
2
  6
CONTINUOUS
  0
LAYER
  2
027419-2ROU1_GBR
 70
0
 62
6
  6
CONTINUOUS
  0
LAYER
  2
027674-1ROU1_GBR
 70
0
 62
1
  6
CONTINUOUS
  0
LAYER
  2
027676-1ROU1_GBR
 70
0
 62
4
  6
CONTINUOUS
  0
LAYER
  2
027678-3ROU1_GBR
 70
0
 62
3
  6
CONTINUOUS
  0
LAYER
  2
028122-1ROU1_GBR
 70
0
 62
5
  6
CONTINUOUS
  0
LAYER
  2
028124-5ROU1_GBR
 70
0
 62
10
  6
CONTINUOUS
  0
LAYER
  2
028126-1ROU1_GBR
 70
0
 62
14
  6
CONTINUOUS
  0
LAYER
  2
028126-3ROU1_GBR
 70
0
 62
9
  6
CONTINUOUS
  0
LAYER
  2
028126-6ROU1_GBR
 70
0
 62
12
  6
CONTINUOUS
  0
LAYER
  2
028126-7ROU1_GBR
 70
0
 62
11
  6
CONTINUOUS
  0
LAYER
  2
028129-1ROU1_GBR
 70
0
 62
13
  6
CONTINUOUS
  0
LAYER
  2
028130-1ROU1_GBR
 70
0
 62
8
  6
CONTINUOUS
  0
LAYER
  2
028130-4ROU1_GBR
 70
0
 62
15
  6
CONTINUOUS
  0
LAYER
  2
028130-5ROU1_GBR
 70
0
 62
7
  6
CONTINUOUS
  0
LAYER
  2
028130-7ROU1_GBR
 70
0
 62
7
  6
CONTINUOUS
  0
LAYER
  2
028655-1ROU1_GBR
 70
0
 62
2
  6
CONTINUOUS
  0
LAYER
  2
028657-1ROU1_GBR
 70
0
 62
6
  6
CONTINUOUS
  0
LAYER
  2
028659-2ROU1_GBR
 70
0
 62
1
  6
CONTINUOUS
  0
LAYER
  2
028659-4ROU1_GBR
 70
0
 62
4
  6
CONTINUOUS
  0
LAYER
  2
028661-1ROU1_GBR
 70
0
 62
3
  6
CONTINUOUS
  0
LAYER
  2
028663-1ROU1_GBR
 70
0
 62
5
  6
CONTINUOUS
  0
LAYER
  2
028665-1ROU1_GBR
 70
0
 62
10
  6
CONTINUOUS
  0
LAYER
  2
028669-1ROU1_GBR
 70
0
 62
14
  6
CONTINUOUS
  0
LAYER
  2
028673-2ROU1_GBR
 70
0
 62
9
  6
CONTINUOUS
  0
LAYER
  2
037088-3ROU1_GBR
 70
0
 62
12
  6
CONTINUOUS
  0
LAYER
  2
037682-1ROU1_GBR
 70
0
 62
11
  6
CONTINUOUS
  0
LAYER
  2
037686-1ROU1_GBR
 70
0
 62
13
  6
CONTINUOUS
  0
LAYER
  2
037688-1ROU1_GBR
 70
0
 62
8
  6
CONTINUOUS
  0
LAYER
  2
038681-1ROU1_GBR
 70
0
 62
15
  6
CONTINUOUS
  0
LAYER
  2
038683-1ROU1_GBR
 70
0
 62
7
  6
CONTINUOUS
  0
LAYER
  2
038683-2ROU1_GBR
 70
0
 62
7
  6
CONTINUOUS
  0
LAYER
  2
038685-1ROU1_GBR
 70
0
 62
2
  6
CONTINUOUS
  0
LAYER
  2
038689-1ROU1_GBR
 70
0
 62
6
  6
CONTINUOUS
  0
LAYER
  2
038689-2ROU1_GBR
 70
0
 62
1
  6
CONTINUOUS
  0
LAYER
  2
038691-1ROU1_GBR
 70
0
 62
4
  6
CONTINUOUS
  0
LAYER
  2
038691-2ROU1_GBR
 70
0
 62
3
  6
CONTINUOUS
  0
LAYER
  2
038691-3ROU1_GBR
 70
0
 62
5
  6
CONTINUOUS
  0
LAYER
  2
038691-4ROU1_GBR
 70
0
 62
10
  6
CONTINUOUS
  0
LAYER
  2
038693-1ROU1_GBR
 70
0
 62
14
  6
CONTINUOUS
  0
LAYER
  2
038695-1ROU1_GBR
 70
0
 62
9
  6
CONTINUOUS
  0
LAYER
  2
038697-1ROU1_GBR
 70
0
 62
12
  6
CONTINUOUS
  0
LAYER
  2
038697-3ROU1_GBR
 70
0
 62
11
  6
CONTINUOUS
  0
LAYER
  2
038697-4ROU1_GBR
 70
0
 62
13
  6
CONTINUOUS
  0
LAYER
  2
038697-5ROU1_GBR
 70
0
 62
8
  6
CONTINUOUS
  0
LAYER
  2
047706-4ROU1_GBR
 70
0
 62
15
  6
CONTINUOUS
  0
LAYER
  2
047706-5ROU1_GBR
 70
0
 62
7
  6
CONTINUOUS
  0
LAYER
  2
047706-6ROU1_GBR
 70
0
 62
7
  6
CONTINUOUS
  0
LAYER
  2
047708-1ROU1_GBR
 70
0
 62
2
  6
CONTINUOUS
  0
LAYER
  2
047710-1ROU1_GBR
 70
0
 62
6
  6
CONTINUOUS
  0
LAYER
  2
047712-1ROU1_GBR
 70
0
 62
1
  6
CONTINUOUS
  0
LAYER
  2
047714-2ROU1_GBR
 70
0
 62
4
  6
CONTINUOUS
  0
LAYER
  2
048701-1ROU1_GBR
 70
0
 62
3
  6
CONTINUOUS
  0
LAYER
  2
048703-1ROU1_GBR
 70
0
 62
10
  6
CONTINUOUS
  0
LAYER
  2
048711-1ROU1_GBR
 70
0
 62
14
  6
CONTINUOUS
  0
LAYER
  2
048715-1ROU1_GBR
 70
0
 62
9
  6
CONTINUOUS
  0
LAYER
  2
058721-2ROU1_GBR
 70
0
 62
12
  6
CONTINUOUS
  0
LAYER
  2
058723-10ROU1_GBR
 70
0
 62
11
  6
CONTINUOUS
  0
LAYER
  2
058723-1ROU1_GBR
 70
0
 62
13
  6
CONTINUOUS
  0
LAYER
  2
058723-6ROU1_GBR
 70
0
 62
8
  6
CONTINUOUS
  0
LAYER
  2
058723-9ROU1_GBR
 70
0
 62
15
  6
CONTINUOUS
  0
LAYER
  2
067601-1ROU1_GBR
 70
0
 62
7
  6
CONTINUOUS
  0
LAYER
  2
068162-1ROU1_GBR
 70
0
 62
7
  6
CONTINUOUS
  0
LAYER
  2
068162-3ROU1_GBR
 70
0
 62
2
  6
CONTINUOUS
  0
LAYER
  2
068162-4ROU1_GBR
 70
0
 62
6
  6
CONTINUOUS
  0
LAYER
  2
077742-1ROU1_GBR
 70
0
 62
1
  6
CONTINUOUS
  0
LAYER
  2
078731-1ROU1_GBR
 70
0
 62
4
  6
CONTINUOUS
  0
LAYER
  2
078735-3ROU1_GBR
 70
0
 62
3
  6
CONTINUOUS
  0
LAYER
  2
078739-1ROU1_GBR
 70
0
 62
5
  6
CONTINUOUS
  0
LAYER
  2
078753-1ROU1_GBR
 70
0
 62
10
  6
CONTINUOUS
  0
LAYER
  2
078757-1ROU1_GBR
 70
0
 62
14
  6
CONTINUOUS
  0
LAYER
  2
087768-2ROU1_GBR
 70
0
 62
9
  6
CONTINUOUS
  0
LAYER
  2
087772-1ROU1_GBR
 70
0
 62
12
  6
CONTINUOUS
  0
LAYER
  2
087780-1ROU1_GBR
 70
0
 62
11
  6
CONTINUOUS
  0
LAYER
  2
087782-9ROU1_GBR
 70
0
 62
13
  6
CONTINUOUS
  0
LAYER
  2
088783-4ROU1_GBR
 70
0
 62
8
  6
CONTINUOUS
  0
LAYER
  2
088785-1ROU1_GBR
 70
0
 62
15
  6
CONTINUOUS
  0
LAYER
  2
097800-6ROU1_GBR
 70
0
 62
7
  6
CONTINUOUS
  0
LAYER
  2
097810-1ROU1_GBR
 70
0
 62
7
  6
CONTINUOUS
  0
LAYER
  2
098787-1ROU1_GBR
 70
0
 62
2
  6
CONTINUOUS
  0
LAYER
  2
098787-2ROU1_GBR
 70
0
 62
6
  6
CONTINUOUS
  0
LAYER
  2
098789-1ROU1_GBR
 70
0
 62
1
  6
CONTINUOUS
  0
LAYER
  2
098811-1ROU1_GBR
 70
0
 62
4
  6
CONTINUOUS
  0
LAYER
  2
098815-1ROU1_GBR
 70
0
 62
3
  6
CONTINUOUS
  0
LAYER
  2
098815-2ROU1_GBR
 70
0
 62
5
  6
CONTINUOUS
  0
LAYER
  2
107824-1ROU1_GBR
 70
0
 62
10
  6
CONTINUOUS
  0
LAYER
  2
118200-1ROU1_GBR
 70
0
 62
14
  6
CONTINUOUS
  0
LAYER
  2
257017-1ROU1_GBR
 70
0
 62
9
  6
CONTINUOUS
  0
LAYER
  2
268076-7ROU1_GBR
 70
0
 62
12
  6
CONTINUOUS
  0
LAYER
  2
288088-1ROU1_GBR
 70
0
 62
11
  6
CONTINUOUS
  0
LAYER
  2
307251-1ROU1_GBR
 70
0
 62
13
  6
CONTINUOUS
  0
LAYER
  2
307273-4ROU1_GBR
 70
0
 62
8
  6
CONTINUOUS
  0
LAYER
  2
307283-1ROU1_GBR
 70
0
 62
15
  6
CONTINUOUS
  0
LAYER
  2
307291-1ROU1_GBR
 70
0
 62
7
  6
CONTINUOUS
  0
LAYER
  2
308108-1ROU1_GBR
 70
0
 62
7
  6
CONTINUOUS
  0
LAYER
  2
308111-1ROU1_GBR
 70
0
 62
2
  6
CONTINUOUS
  0
LAYER
  2
308112-1ROU1_GBR
 70
0
 62
6
  6
CONTINUOUS
  0
ENDTAB
  0
TABLE
  2
STYLE
 70
0
  0
ENDTAB
  0
ENDSEC
  0
SECTION
  2
BLOCKS
  0
BLOCK
  2
ROUND_1
  3
ROUND_1
 70
64
 10
0.00
 20
0.00
 30
0.00
  0
CIRCLE
  8
0
 10
0.00
 20
0.00
 30
0.00
 40
0.10
  0
ENDBLK
  0
ENDSEC
  0
SECTION
  2
ENTITIES
  0
POLYLINE
  8
068162-1ROU1_GBR
 66
1
 10
0.00
 20
0.00
 30
0.00
 40
0.20
 41
0.20
  0
VERTEX
  8
068162-1ROU1_GBR
 10
260.897116
 20
213.37552
 30
0.00
  0
VERTEX
  8
068162-1ROU1_GBR
 10
261.403466
 20
213.324592
 30
0.00
  0
VERTEX
  8
068162-1ROU1_GBR
 10
261.906614
 20
213.262414
 30
0.00
  0
VERTEX
  8
068162-1ROU1_GBR
 10
262.40961
 20
213.188652
 30
0.00
  0
VERTEX
  8
068162-1ROU1_GBR
 10
262.909152
 20
213.103994
 30
0.00
  0
VERTEX
  8
068162-1ROU1_GBR
 10
263.407856
 20
213.007702
 30
0.00
  0
VERTEX
  8
068162-1ROU1_GBR
 10
263.903714
 20
212.90031
 30
0.00
  0
VERTEX
  8
068162-1ROU1_GBR
 10
264.39787
 20
212.78187
 30
0.00
  0
VERTEX
  8
068162-1ROU1_GBR
 10
264.888396
 20
212.652204
 30
0.00
  0
VERTEX
  8
068162-1ROU1_GBR
 10
265.376558
 20
212.511336
 30
0.00
  0
VERTEX
  8
068162-1ROU1_GBR
 10
265.861166
 20
212.359698
 30
0.00
  0
VERTEX
  8
068162-1ROU1_GBR
 10
266.341428
 20
212.19734
 30
0.00
  0
VERTEX
  8
068162-1ROU1_GBR
 10
266.819024
 20
212.023732
 30
0.00
  0
VERTEX
  8
068162-1ROU1_GBR
 10
265.666982
 20
209.631788
 30
0.00
  0
VERTEX
  8
068162-1ROU1_GBR
 10
265.69035
 20
209.374282
 30
0.00
  0
VERTEX
  8
068162-1ROU1_GBR
 10
265.742674
 20
209.120994
 30
0.00
  0
VERTEX
  8
068162-1ROU1_GBR
 10
265.823954
 20
208.875376
 30
0.00
  0
VERTEX
  8
068162-1ROU1_GBR
 10
265.932666
 20
208.640706
 30
0.00
  0
VERTEX
  8
068162-1ROU1_GBR
 10
266.067312
 20
208.419928
 30
0.00
  0
VERTEX
  8
068162-1ROU1_GBR
 10
266.226544
 20
208.216246
 30
0.00
  0
VERTEX
  8
068162-1ROU1_GBR
 10
266.408154
 20
208.031842
 30
0.00
  0
VERTEX
  8
068162-1ROU1_GBR
 10
266.609602
 20
207.86951
 30
0.00
  0
VERTEX
  8
068162-1ROU1_GBR
 10
266.828244
 20
207.731386
 30
0.00
  0
VERTEX
  8
068162-1ROU1_GBR
 10
267.061188
 20
207.619346
 30
0.00
  0
VERTEX
  8
068162-1ROU1_GBR
 10
267.305562
 20
207.53451
 30
0.00
  0
VERTEX
  8
068162-1ROU1_GBR
 10
267.557986
 20
207.478122
 30
0.00
  0
VERTEX
  8
068162-1ROU1_GBR
 10
267.815314
 20
207.451198
 30
0.00
  0
VERTEX
  8
068162-1ROU1_GBR
 10
268.073886
 20
207.453738
 30
0.00
  0
VERTEX
  8
068162-1ROU1_GBR
 10
268.330426
 20
207.485996
 30
0.00
  0
VERTEX
  8
068162-1ROU1_GBR
 10
268.581886
 20
207.54721
 30
0.00
  0
VERTEX
  8
068162-1ROU1_GBR
 10
268.824456
 20
207.636872
 30
0.00
  0
VERTEX
  8
068162-1ROU1_GBR
 10
269.055088
 20
207.753712
 30
0.00
  0
VERTEX
  8
068162-1ROU1_GBR
 10
269.270988
 20
207.896206
 30
0.00
  0
VERTEX
  8
068162-1ROU1_GBR
 10
270.422878
 20
210.288378
 30
0.00
  0
VERTEX
  8
068162-1ROU1_GBR
 10
270.855998
 20
210.023176
 30
0.00
  0
VERTEX
  8
068162-1ROU1_GBR
 10
271.28277
 20
209.74873
 30
0.00
  0
VERTEX
  8
068162-1ROU1_GBR
 10
271.70342
 20
209.464504
 30
0.00
  0
VERTEX
  8
068162-1ROU1_GBR
 10
272.117922
 20
209.170702
 30
0.00
  0
VERTEX
  8
068162-1ROU1_GBR
 10
272.524906
 20
208.86801
 30
0.00
  0
VERTEX
  8
068162-1ROU1_GBR
 10
272.925668
 20
208.555692
 30
0.00
  0
VERTEX
  8
068162-1ROU1_GBR
 10
273.319114
 20
208.23489
 30
0.00
  0
VERTEX
  8
068162-1ROU1_GBR
 10
273.70532
 20
207.904614
 30
0.00
  0
VERTEX
  8
068162-1ROU1_GBR
 10
274.08345
 20
207.566564
 30
0.00
  0
VERTEX
  8
068162-1ROU1_GBR
 10
274.454036
 20
207.219854
 30
0.00
  0
VERTEX
  8
068162-1ROU1_GBR
 10
274.817662
 20
206.863848
 30
0.00
  0
VERTEX
  8
068162-1ROU1_GBR
 10
275.171916
 20
206.501238
 30
0.00
  0
VERTEX
  8
068162-1ROU1_GBR
 10
273.095974
 20
204.84592
 30
0.00
  0
VERTEX
  8
068162-1ROU1_GBR
 10
273.005296
 20
204.603604
 30
0.00
  0
VERTEX
  8
068162-1ROU1_GBR
 10
272.942558
 20
204.352652
 30
0.00
  0
VERTEX
  8
068162-1ROU1_GBR
 10
272.90903
 20
204.096138
 30
0.00
  0
VERTEX
  8
068162-1ROU1_GBR
 10
272.90522
 20
203.83754
 30
0.00
  0
VERTEX
  8
068162-1ROU1_GBR
 10
272.930874
 20
203.580188
 30
0.00
  0
VERTEX
  8
068162-1ROU1_GBR
 10
272.985992
 20
203.327534
 30
0.00
  0
VERTEX
  8
068162-1ROU1_GBR
 10
273.069558
 20
203.08288
 30
0.00
  0
VERTEX
  8
068162-1ROU1_GBR
 10
273.180556
 20
202.849226
 30
0.00
  0
VERTEX
  8
068162-1ROU1_GBR
 10
273.317716
 20
202.62977
 30
0.00
  0
VERTEX
  8
068162-1ROU1_GBR
 10
273.479006
 20
202.42756
 30
0.00
  0
VERTEX
  8
068162-1ROU1_GBR
 10
273.662394
 20
202.245214
 30
0.00
  0
VERTEX
  8
068162-1ROU1_GBR
 10
273.86534
 20
202.08494
 30
0.00
  0
VERTEX
  8
068162-1ROU1_GBR
 10
274.085278
 20
201.94905
 30
0.00
  0
VERTEX
  8
068162-1ROU1_GBR
 10
274.319492
 20
201.839068
 30
0.00
  0
VERTEX
  8
068162-1ROU1_GBR
 10
274.564576
 20
201.756772
 30
0.00
  0
VERTEX
  8
068162-1ROU1_GBR
 10
274.817612
 20
201.702924
 30
0.00
  0
VERTEX
  8
068162-1ROU1_GBR
 10
275.075168
 20
201.67854
 30
0.00
  0
VERTEX
  8
068162-1ROU1_GBR
 10
275.333664
 20
201.683874
 30
0.00
  0
VERTEX
  8
068162-1ROU1_GBR
 10
275.59
 20
201.718418
 30
0.00
  0
VERTEX
  8
068162-1ROU1_GBR
 10
277.665688
 20
203.37399
 30
0.00
  0
VERTEX
  8
068162-1ROU1_GBR
 10
277.941354
 20
202.946762
 30
0.00
  0
VERTEX
  8
068162-1ROU1_GBR
 10
278.206556
 20
202.514302
 30
0.00
  0
VERTEX
  8
068162-1ROU1_GBR
 10
278.462994
 20
202.07445
 30
0.00
  0
VERTEX
  8
068162-1ROU1_GBR
 10
278.70818
 20
201.63094
 30
0.00
  0
VERTEX
  8
068162-1ROU1_GBR
 10
278.943436
 20
201.18225
 30
0.00
  0
VERTEX
  8
068162-1ROU1_GBR
 10
279.169038
 20
200.72665
 30
0.00
  0
VERTEX
  8
068162-1ROU1_GBR
 10
279.384074
 20
200.26691
 30
0.00
  0
VERTEX
  8
068162-1ROU1_GBR
 10
279.588926
 20
199.801988
 30
0.00
  0
VERTEX
  8
068162-1ROU1_GBR
 10
279.783006
 20
199.333408
 30
0.00
  0
VERTEX
  8
068162-1ROU1_GBR
 10
279.966598
 20
198.859394
 30
0.00
  0
VERTEX
  8
068162-1ROU1_GBR
 10
280.139242
 20
198.382332
 30
0.00
  0
VERTEX
  8
068162-1ROU1_GBR
 10
280.301192
 20
197.901306
 30
0.00
  0
VERTEX
  8
068162-1ROU1_GBR
 10
277.713008
 20
197.310578
 30
0.00
  0
VERTEX
  8
068162-1ROU1_GBR
 10
277.525988
 20
197.131686
 30
0.00
  0
VERTEX
  8
068162-1ROU1_GBR
 10
277.360634
 20
196.932804
 30
0.00
  0
VERTEX
  8
068162-1ROU1_GBR
 10
277.219156
 20
196.716142
 30
0.00
  0
VERTEX
  8
068162-1ROU1_GBR
 10
277.103332
 20
196.485002
 30
0.00
  0
VERTEX
  8
068162-1ROU1_GBR
 10
277.01494
 20
196.241924
 30
0.00
  0
VERTEX
  8
068162-1ROU1_GBR
 10
276.954996
 20
195.990464
 30
0.00
  0
VERTEX
  8
068162-1ROU1_GBR
 10
276.924008
 20
195.733696
 30
0.00
  0
VERTEX
  8
068162-1ROU1_GBR
 10
276.922738
 20
195.474844
 30
0.00
  0
VERTEX
  8
068162-1ROU1_GBR
 10
276.950932
 20
195.21777
 30
0.00
  0
VERTEX
  8
068162-1ROU1_GBR
 10
277.00859
 20
194.965574
 30
0.00
  0
VERTEX
  8
068162-1ROU1_GBR
 10
277.094696
 20
194.72176
 30
0.00
  0
VERTEX
  8
068162-1ROU1_GBR
 10
277.20798
 20
194.489324
 30
0.00
  0
VERTEX
  8
068162-1ROU1_GBR
 10
277.347172
 20
194.271392
 30
0.00
  0
VERTEX
  8
068162-1ROU1_GBR
 10
277.510494
 20
194.070732
 30
0.00
  0
VERTEX
  8
068162-1ROU1_GBR
 10
277.69566
 20
193.890138
 30
0.00
  0
VERTEX
  8
068162-1ROU1_GBR
 10
277.900358
 20
193.731896
 30
0.00
  0
VERTEX
  8
068162-1ROU1_GBR
 10
278.121618
 20
193.598292
 30
0.00
  0
VERTEX
  8
068162-1ROU1_GBR
 10
278.356848
 20
193.49057
 30
0.00
  0
VERTEX
  8
068162-1ROU1_GBR
 10
278.602948
 20
193.41084
 30
0.00
  0
VERTEX
  8
068162-1ROU1_GBR
 10
281.191182
 20
194.001644
 30
0.00
  0
VERTEX
  8
068162-1ROU1_GBR
 10
281.25425
 20
193.497276
 30
0.00
  0
VERTEX
  8
068162-1ROU1_GBR
 10
281.305534
 20
192.992198
 30
0.00
  0
VERTEX
  8
068162-1ROU1_GBR
 10
281.345614
 20
192.486814
 30
0.00
  0
VERTEX
  8
068162-1ROU1_GBR
 10
281.374368
 20
191.97894
 30
0.00
  0
VERTEX
  8
068162-1ROU1_GBR
 10
281.391614
 20
191.471778
 30
0.00
  0
VERTEX
  8
068162-1ROU1_GBR
 10
281.395678
 20
191.21816
 30
0.00
  0
SEQEND
  0
POLYLINE
  8
068162-1ROU1_GBR
 66
1
 10
0.00
 20
0.00
 30
0.00
 40
0.20
 41
0.20
  0
VERTEX
  8
068162-1ROU1_GBR
 10
281.224228
 20
188.179482
 30
0.00
 42
0.0338516
  0
VERTEX
  8
068162-1ROU1_GBR
 10
281.395678
 20
191.21816
 30
0.00
 42
0.00
  0
SEQEND
  0
POLYLINE
  8
068162-1ROU1_GBR
 66
1
 10
0.00
 20
0.00
 30
0.00
 40
0.20
 41
0.20
  0
VERTEX
  8
068162-1ROU1_GBR
 10
281.224228
 20
188.179482
 30
0.00
  0
VERTEX
  8
068162-1ROU1_GBR
 10
281.191182
 20
187.927488
 30
0.00
  0
VERTEX
  8
068162-1ROU1_GBR
 10
278.602948
 20
188.518292
 30
0.00
  0
VERTEX
  8
068162-1ROU1_GBR
 10
278.356822
 20
188.438282
 30
0.00
  0
VERTEX
  8
068162-1ROU1_GBR
 10
278.121618
 20
188.33084
 30
0.00
  0
VERTEX
  8
068162-1ROU1_GBR
 10
277.900384
 20
188.196982
 30
0.00
  0
VERTEX
  8
068162-1ROU1_GBR
 10
277.69566
 20
188.03874
 30
0.00
  0
VERTEX
  8
068162-1ROU1_GBR
 10
277.510494
 20
187.8584
 30
0.00
  0
VERTEX
  8
068162-1ROU1_GBR
 10
277.347172
 20
187.65774
 30
0.00
  0
VERTEX
  8
068162-1ROU1_GBR
 10
277.20798
 20
187.439808
 30
0.00
  0
VERTEX
  8
068162-1ROU1_GBR
 10
277.094696
 20
187.207398
 30
0.00
  0
VERTEX
  8
068162-1ROU1_GBR
 10
277.00859
 20
186.963304
 30
0.00
  0
VERTEX
  8
068162-1ROU1_GBR
 10
276.950932
 20
186.711108
 30
0.00
  0
VERTEX
  8
068162-1ROU1_GBR
 10
276.922738
 20
186.454034
 30
0.00
  0
VERTEX
  8
068162-1ROU1_GBR
 10
276.924008
 20
186.195436
 30
0.00
  0
VERTEX
  8
068162-1ROU1_GBR
 10
276.954996
 20
185.938668
 30
0.00
  0
VERTEX
  8
068162-1ROU1_GBR
 10
277.01494
 20
185.687208
 30
0.00
  0
VERTEX
  8
068162-1ROU1_GBR
 10
277.103332
 20
185.444104
 30
0.00
  0
VERTEX
  8
068162-1ROU1_GBR
 10
277.219156
 20
185.212762
 30
0.00
  0
VERTEX
  8
068162-1ROU1_GBR
 10
277.360634
 20
184.996328
 30
0.00
  0
VERTEX
  8
068162-1ROU1_GBR
 10
277.525988
 20
184.797192
 30
0.00
  0
VERTEX
  8
068162-1ROU1_GBR
 10
277.713008
 20
184.618554
 30
0.00
  0
VERTEX
  8
068162-1ROU1_GBR
 10
280.301268
 20
184.0278
 30
0.00
  0
VERTEX
  8
068162-1ROU1_GBR
 10
280.139014
 20
183.54614
 30
0.00
  0
VERTEX
  8
068162-1ROU1_GBR
 10
279.966166
 20
183.068342
 30
0.00
  0
VERTEX
  8
068162-1ROU1_GBR
 10
279.87592
 20
182.831562
 30
0.00
  0
VERTEX
  8
068162-1ROU1_GBR
 10
279.686868
 20
182.36019
 30
0.00
  0
VERTEX
  8
068162-1ROU1_GBR
 10
279.48725
 20
181.892854
 30
0.00
  0
VERTEX
  8
068162-1ROU1_GBR
 10
279.277776
 20
181.431362
 30
0.00
  0
SEQEND
  0
POLYLINE
  8
068162-1ROU1_GBR
 66
1
 10
0.00
 20
0.00
 30
0.00
 40
0.20
 41
0.20
  0
VERTEX
  8
068162-1ROU1_GBR
 10
278.074806
 20
179.197382
 30
0.00
 42
0.0282774
  0
VERTEX
  8
068162-1ROU1_GBR
 10
279.277788
 20
181.431356
 30
0.00
 42
0.00
  0
SEQEND
  0
POLYLINE
  8
068162-1ROU1_GBR
 66
1
 10
0.00
 20
0.00
 30
0.00
 40
0.20
 41
0.20
  0
VERTEX
  8
068162-1ROU1_GBR
 10
278.074806
 20
179.197382
 30
0.00
  0
VERTEX
  8
068162-1ROU1_GBR
 10
277.8045
 20
178.767536
 30
0.00
  0
VERTEX
  8
068162-1ROU1_GBR
 10
277.665688
 20
178.555142
 30
0.00
  0
VERTEX
  8
068162-1ROU1_GBR
 10
275.59
 20
180.21046
 30
0.00
  0
VERTEX
  8
068162-1ROU1_GBR
 10
275.33374
 20
180.245258
 30
0.00
  0
VERTEX
  8
068162-1ROU1_GBR
 10
275.075142
 20
180.250338
 30
0.00
  0
VERTEX
  8
068162-1ROU1_GBR
 10
274.817586
 20
180.225954
 30
0.00
  0
VERTEX
  8
068162-1ROU1_GBR
 10
274.564602
 20
180.17236
 30
0.00
  0
VERTEX
  8
068162-1ROU1_GBR
 10
274.319492
 20
180.08981
 30
0.00
  0
VERTEX
  8
068162-1ROU1_GBR
 10
274.085304
 20
179.980082
 30
0.00
  0
VERTEX
  8
068162-1ROU1_GBR
 10
273.86534
 20
179.843938
 30
0.00
  0
VERTEX
  8
068162-1ROU1_GBR
 10
273.662394
 20
179.683664
 30
0.00
  0
VERTEX
  8
068162-1ROU1_GBR
 10
273.479006
 20
179.501292
 30
0.00
  0
VERTEX
  8
068162-1ROU1_GBR
 10
273.317716
 20
179.299134
 30
0.00
  0
VERTEX
  8
068162-1ROU1_GBR
 10
273.18053
 20
179.07988
 30
0.00
  0
VERTEX
  8
068162-1ROU1_GBR
 10
273.069558
 20
178.846226
 30
0.00
  0
VERTEX
  8
068162-1ROU1_GBR
 10
272.985992
 20
178.60137
 30
0.00
  0
VERTEX
  8
068162-1ROU1_GBR
 10
272.930874
 20
178.34869
 30
0.00
  0
VERTEX
  8
068162-1ROU1_GBR
 10
272.90522
 20
178.091338
 30
0.00
  0
VERTEX
  8
068162-1ROU1_GBR
 10
272.90903
 20
177.83274
 30
0.00
  0
VERTEX
  8
068162-1ROU1_GBR
 10
272.942558
 20
177.576226
 30
0.00
  0
VERTEX
  8
068162-1ROU1_GBR
 10
273.005296
 20
177.325274
 30
0.00
  0
VERTEX
  8
068162-1ROU1_GBR
 10
273.095974
 20
177.083212
 30
0.00
  0
VERTEX
  8
068162-1ROU1_GBR
 10
275.171916
 20
175.427894
 30
0.00
  0
SEQEND
  0
POLYLINE
  8
068162-1ROU1_GBR
 66
1
 10
0.00
 20
0.00
 30
0.00
 40
0.20
 41
0.20
  0
VERTEX
  8
068162-1ROU1_GBR
 10
272.925464
 20
173.373034
 30
0.00
 42
0.0337111
  0
VERTEX
  8
068162-1ROU1_GBR
 10
275.17191
 20
175.427898
 30
0.00
 42
0.00
  0
SEQEND
  0
POLYLINE
  8
068162-1ROU1_GBR
 66
1
 10
0.00
 20
0.00
 30
0.00
 40
0.20
 41
0.20
  0
VERTEX
  8
068162-1ROU1_GBR
 10
272.925464
 20
173.373034
 30
0.00
  0
VERTEX
  8
068162-1ROU1_GBR
 10
272.524804
 20
173.061046
 30
0.00
  0
VERTEX
  8
068162-1ROU1_GBR
 10
272.322112
 20
172.908596
 30
0.00
  0
VERTEX
  8
068162-1ROU1_GBR
 10
271.911216
 20
172.610018
 30
0.00
  0
VERTEX
  8
068162-1ROU1_GBR
 10
271.493564
 20
172.32117
 30
0.00
  0
VERTEX
  8
068162-1ROU1_GBR
 10
271.070198
 20
172.041744
 30
0.00
  0
VERTEX
  8
068162-1ROU1_GBR
 10
270.640048
 20
171.772072
 30
0.00
  0
VERTEX
  8
068162-1ROU1_GBR
 10
270.422878
 20
171.640754
 30
0.00
  0
VERTEX
  8
068162-1ROU1_GBR
 10
269.270988
 20
174.032672
 30
0.00
  0
VERTEX
  8
068162-1ROU1_GBR
 10
269.055088
 20
174.175166
 30
0.00
  0
VERTEX
  8
068162-1ROU1_GBR
 10
268.824456
 20
174.29226
 30
0.00
  0
VERTEX
  8
068162-1ROU1_GBR
 10
268.581886
 20
174.381922
 30
0.00
  0
VERTEX
  8
068162-1ROU1_GBR
 10
268.330426
 20
174.443136
 30
0.00
  0
VERTEX
  8
068162-1ROU1_GBR
 10
268.073886
 20
174.475394
 30
0.00
  0
VERTEX
  8
068162-1ROU1_GBR
 10
267.815314
 20
174.477934
 30
0.00
  0
VERTEX
  8
068162-1ROU1_GBR
 10
267.558038
 20
174.450756
 30
0.00
  0
VERTEX
  8
068162-1ROU1_GBR
 10
267.30551
 20
174.394622
 30
0.00
  0
VERTEX
  8
068162-1ROU1_GBR
 10
267.061188
 20
174.309786
 30
0.00
  0
VERTEX
  8
068162-1ROU1_GBR
 10
266.82827
 20
174.197518
 30
0.00
  0
VERTEX
  8
068162-1ROU1_GBR
 10
266.609576
 20
174.059342
 30
0.00
  0
VERTEX
  8
068162-1ROU1_GBR
 10
266.408154
 20
173.897036
 30
0.00
  0
VERTEX
  8
068162-1ROU1_GBR
 10
266.226544
 20
173.712886
 30
0.00
  0
VERTEX
  8
068162-1ROU1_GBR
 10
266.067286
 20
173.509204
 30
0.00
  0
VERTEX
  8
068162-1ROU1_GBR
 10
265.932666
 20
173.288452
 30
0.00
  0
VERTEX
  8
068162-1ROU1_GBR
 10
265.823954
 20
173.05373
 30
0.00
  0
VERTEX
  8
068162-1ROU1_GBR
 10
265.742674
 20
172.808138
 30
0.00
  0
VERTEX
  8
068162-1ROU1_GBR
 10
265.69035
 20
172.554874
 30
0.00
  0
VERTEX
  8
068162-1ROU1_GBR
 10
265.666982
 20
172.297344
 30
0.00
  0
VERTEX
  8
068162-1ROU1_GBR
 10
266.819126
 20
169.905172
 30
0.00
  0
VERTEX
  8
068162-1ROU1_GBR
 10
266.341962
 20
169.73197
 30
0.00
  0
VERTEX
  8
068162-1ROU1_GBR
 10
265.861038
 20
169.569384
 30
0.00
  0
VERTEX
  8
068162-1ROU1_GBR
 10
265.376788
 20
169.41762
 30
0.00
  0
VERTEX
  8
068162-1ROU1_GBR
 10
264.888244
 20
169.276904
 30
0.00
  0
VERTEX
  8
068162-1ROU1_GBR
 10
264.397388
 20
169.14716
 30
0.00
  0
VERTEX
  8
068162-1ROU1_GBR
 10
263.90374
 20
169.028568
 30
0.00
  0
VERTEX
  8
068162-1ROU1_GBR
 10
263.40717
 20
168.921024
 30
0.00
  0
VERTEX
  8
068162-1ROU1_GBR
 10
262.909202
 20
168.825138
 30
0.00
  0
VERTEX
  8
068162-1ROU1_GBR
 10
262.408568
 20
168.740302
 30
0.00
  0
VERTEX
  8
068162-1ROU1_GBR
 10
261.906386
 20
168.666694
 30
0.00
  0
VERTEX
  8
068162-1ROU1_GBR
 10
261.401864
 20
168.604362
 30
0.00
  0
VERTEX
  8
068162-1ROU1_GBR
 10
260.897116
 20
168.553612
 30
0.00
  0
VERTEX
  8
068162-1ROU1_GBR
 10
260.897116
 20
171.208446
 30
0.00
  0
VERTEX
  8
068162-1ROU1_GBR
 10
260.764528
 20
171.430696
 30
0.00
  0
VERTEX
  8
068162-1ROU1_GBR
 10
260.607276
 20
171.635954
 30
0.00
  0
VERTEX
  8
068162-1ROU1_GBR
 10
260.42775
 20
171.82211
 30
0.00
  0
VERTEX
  8
068162-1ROU1_GBR
 10
260.228106
 20
171.986194
 30
0.00
  0
VERTEX
  8
068162-1ROU1_GBR
 10
260.010656
 20
172.126656
 30
0.00
  0
VERTEX
  8
068162-1ROU1_GBR
 10
259.778728
 20
172.24121
 30
0.00
  0
VERTEX
  8
068162-1ROU1_GBR
 10
259.535422
 20
172.328332
 30
0.00
  0
VERTEX
  8
068162-1ROU1_GBR
 10
259.283454
 20
172.38726
 30
0.00
  0
VERTEX
  8
068162-1ROU1_GBR
 10
259.02666
 20
172.416978
 30
0.00
  0
VERTEX
  8
068162-1ROU1_GBR
 10
258.767834
 20
172.416978
 30
0.00
  0
VERTEX
  8
068162-1ROU1_GBR
 10
258.51104
 20
172.38726
 30
0.00
  0
VERTEX
  8
068162-1ROU1_GBR
 10
258.259072
 20
172.328332
 30
0.00
  0
VERTEX
  8
068162-1ROU1_GBR
 10
258.01574
 20
172.24121
 30
0.00
  0
VERTEX
  8
068162-1ROU1_GBR
 10
257.783864
 20
172.126656
 30
0.00
  0
VERTEX
  8
068162-1ROU1_GBR
 10
257.566414
 20
171.986194
 30
0.00
  0
VERTEX
  8
068162-1ROU1_GBR
 10
257.36677
 20
171.82211
 30
0.00
  0
VERTEX
  8
068162-1ROU1_GBR
 10
257.186938
 20
171.635928
 30
0.00
  0
VERTEX
  8
068162-1ROU1_GBR
 10
257.029966
 20
171.430722
 30
0.00
  0
VERTEX
  8
068162-1ROU1_GBR
 10
256.897124
 20
171.208014
 30
0.00
  0
VERTEX
  8
068162-1ROU1_GBR
 10
256.897124
 20
168.553638
 30
0.00
  0
VERTEX
  8
068162-1ROU1_GBR
 10
256.392274
 20
168.604388
 30
0.00
  0
VERTEX
  8
068162-1ROU1_GBR
 10
255.887194
 20
168.66677
 30
0.00
  0
VERTEX
  8
068162-1ROU1_GBR
 10
255.384758
 20
168.740456
 30
0.00
  0
VERTEX
  8
068162-1ROU1_GBR
 10
254.884302
 20
168.825342
 30
0.00
  0
VERTEX
  8
068162-1ROU1_GBR
 10
254.38603
 20
168.921304
 30
0.00
  0
VERTEX
  8
068162-1ROU1_GBR
 10
253.8904
 20
169.028592
 30
0.00
  0
VERTEX
  8
068162-1ROU1_GBR
 10
253.396496
 20
169.147312
 30
0.00
  0
SEQEND
  0
POLYLINE
  8
068162-1ROU1_GBR
 66
1
 10
0.00
 20
0.00
 30
0.00
 40
0.20
 41
0.20
  0
VERTEX
  8
068162-1ROU1_GBR
 10
250.975368
 20
169.905172
 30
0.00
 42
0.0280988
  0
VERTEX
  8
068162-1ROU1_GBR
 10
253.396494
 20
169.147304
 30
0.00
 42
0.00
  0
SEQEND
  0
POLYLINE
  8
068162-1ROU1_GBR
 66
1
 10
0.00
 20
0.00
 30
0.00
 40
0.20
 41
0.20
  0
VERTEX
  8
068162-1ROU1_GBR
 10
250.975368
 20
169.905172
 30
0.00
  0
VERTEX
  8
068162-1ROU1_GBR
 10
252.127258
 20
172.297344
 30
0.00
  0
VERTEX
  8
068162-1ROU1_GBR
 10
252.104144
 20
172.5549
 30
0.00
  0
VERTEX
  8
068162-1ROU1_GBR
 10
252.051566
 20
172.808164
 30
0.00
  0
VERTEX
  8
068162-1ROU1_GBR
 10
251.97054
 20
173.05373
 30
0.00
  0
VERTEX
  8
068162-1ROU1_GBR
 10
251.861828
 20
173.288452
 30
0.00
  0
VERTEX
  8
068162-1ROU1_GBR
 10
251.726954
 20
173.509178
 30
0.00
  0
VERTEX
  8
068162-1ROU1_GBR
 10
251.567696
 20
173.712886
 30
0.00
  0
VERTEX
  8
068162-1ROU1_GBR
 10
251.38634
 20
173.897036
 30
0.00
  0
VERTEX
  8
068162-1ROU1_GBR
 10
251.184918
 20
174.059342
 30
0.00
  0
VERTEX
  8
068162-1ROU1_GBR
 10
250.966224
 20
174.197518
 30
0.00
  0
VERTEX
  8
068162-1ROU1_GBR
 10
250.733052
 20
174.309786
 30
0.00
  0
VERTEX
  8
068162-1ROU1_GBR
 10
250.488958
 20
174.394622
 30
0.00
  0
VERTEX
  8
068162-1ROU1_GBR
 10
250.236456
 20
174.450756
 30
0.00
  0
VERTEX
  8
068162-1ROU1_GBR
 10
249.97918
 20
174.477934
 30
0.00
  0
VERTEX
  8
068162-1ROU1_GBR
 10
249.720608
 20
174.475394
 30
0.00
  0
VERTEX
  8
068162-1ROU1_GBR
 10
249.463814
 20
174.443136
 30
0.00
  0
VERTEX
  8
068162-1ROU1_GBR
 10
249.212582
 20
174.381922
 30
0.00
  0
VERTEX
  8
068162-1ROU1_GBR
 10
248.970038
 20
174.29226
 30
0.00
  0
VERTEX
  8
068162-1ROU1_GBR
 10
248.739406
 20
174.175166
 30
0.00
  0
VERTEX
  8
068162-1ROU1_GBR
 10
248.523506
 20
174.032672
 30
0.00
  0
VERTEX
  8
068162-1ROU1_GBR
 10
247.371616
 20
171.640754
 30
0.00
  0
VERTEX
  8
068162-1ROU1_GBR
 10
246.938266
 20
171.905854
 30
0.00
  0
VERTEX
  8
068162-1ROU1_GBR
 10
246.511826
 20
172.180326
 30
0.00
  0
VERTEX
  8
068162-1ROU1_GBR
 10
246.090542
 20
172.464832
 30
0.00
  0
VERTEX
  8
068162-1ROU1_GBR
 10
245.676496
 20
172.758482
 30
0.00
  0
VERTEX
  8
068162-1ROU1_GBR
 10
245.269308
 20
173.061326
 30
0.00
  0
VERTEX
  8
068162-1ROU1_GBR
 10
244.868776
 20
173.373238
 30
0.00
  0
VERTEX
  8
068162-1ROU1_GBR
 10
244.475382
 20
173.694242
 30
0.00
  0
VERTEX
  8
068162-1ROU1_GBR
 10
244.088844
 20
174.024798
 30
0.00
  0
VERTEX
  8
068162-1ROU1_GBR
 10
243.711044
 20
174.362568
 30
0.00
  0
VERTEX
  8
068162-1ROU1_GBR
 10
243.340534
 20
174.709176
 30
0.00
  0
VERTEX
  8
068162-1ROU1_GBR
 10
242.97734
 20
175.06475
 30
0.00
  0
VERTEX
  8
068162-1ROU1_GBR
 10
242.622578
 20
175.427894
 30
0.00
  0
VERTEX
  8
068162-1ROU1_GBR
 10
244.698266
 20
177.083212
 30
0.00
  0
VERTEX
  8
068162-1ROU1_GBR
 10
244.789198
 20
177.325248
 30
0.00
  0
VERTEX
  8
068162-1ROU1_GBR
 10
244.851936
 20
177.576252
 30
0.00
  0
VERTEX
  8
068162-1ROU1_GBR
 10
244.88521
 20
177.832766
 30
0.00
  0
VERTEX
  8
068162-1ROU1_GBR
 10
244.889274
 20
178.091312
 30
0.00
  0
VERTEX
  8
068162-1ROU1_GBR
 10
244.863366
 20
178.34864
 30
0.00
  0
VERTEX
  8
068162-1ROU1_GBR
 10
244.808502
 20
178.601396
 30
0.00
  0
VERTEX
  8
068162-1ROU1_GBR
 10
244.724936
 20
178.846226
 30
0.00
  0
VERTEX
  8
068162-1ROU1_GBR
 10
244.613684
 20
179.079906
 30
0.00
  0
VERTEX
  8
068162-1ROU1_GBR
 10
244.476778
 20
179.299108
 30
0.00
  0
VERTEX
  8
068162-1ROU1_GBR
 10
244.315488
 20
179.501292
 30
0.00
  0
VERTEX
  8
068162-1ROU1_GBR
 10
244.132074
 20
179.68369
 30
0.00
  0
VERTEX
  8
068162-1ROU1_GBR
 10
243.929154
 20
179.843938
 30
0.00
  0
VERTEX
  8
068162-1ROU1_GBR
 10
243.70919
 20
179.980082
 30
0.00
  0
VERTEX
  8
068162-1ROU1_GBR
 10
243.475002
 20
180.08981
 30
0.00
  0
VERTEX
  8
068162-1ROU1_GBR
 10
243.229918
 20
180.17236
 30
0.00
  0
VERTEX
  8
068162-1ROU1_GBR
 10
242.976882
 20
180.225954
 30
0.00
  0
VERTEX
  8
068162-1ROU1_GBR
 10
242.719352
 20
180.250338
 30
0.00
  0
VERTEX
  8
068162-1ROU1_GBR
 10
242.460754
 20
180.245258
 30
0.00
  0
VERTEX
  8
068162-1ROU1_GBR
 10
242.204494
 20
180.21046
 30
0.00
  0
VERTEX
  8
068162-1ROU1_GBR
 10
240.12873
 20
178.55527
 30
0.00
  0
SEQEND
  0
POLYLINE
  8
068162-1ROU1_GBR
 66
1
 10
0.00
 20
0.00
 30
0.00
 40
0.20
 41
0.20
  0
VERTEX
  8
068162-1ROU1_GBR
 10
238.850754
 20
180.747492
 30
0.00
 42
0.0282485
  0
VERTEX
  8
068162-1ROU1_GBR
 10
240.128712
 20
178.555258
 30
0.00
 42
0.00
  0
SEQEND
  0
POLYLINE
  8
068162-1ROU1_GBR
 66
1
 10
0.00
 20
0.00
 30
0.00
 40
0.20
 41
0.20
  0
VERTEX
  8
068162-1ROU1_GBR
 10
238.850754
 20
180.747492
 30
0.00
  0
VERTEX
  8
068162-1ROU1_GBR
 10
238.625456
 20
181.201898
 30
0.00
  0
VERTEX
  8
068162-1ROU1_GBR
 10
238.410192
 20
181.662172
 30
0.00
  0
VERTEX
  8
068162-1ROU1_GBR
 10
238.20539
 20
182.127526
 30
0.00
  0
VERTEX
  8
068162-1ROU1_GBR
 10
238.011412
 20
182.595876
 30
0.00
  0
VERTEX
  8
068162-1ROU1_GBR
 10
237.828024
 20
183.069382
 30
0.00
  0
VERTEX
  8
068162-1ROU1_GBR
 10
237.655202
 20
183.546954
 30
0.00
  0
VERTEX
  8
068162-1ROU1_GBR
 10
237.493226
 20
184.0278
 30
0.00
  0
VERTEX
  8
068162-1ROU1_GBR
 10
240.081562
 20
184.61863
 30
0.00
  0
VERTEX
  8
068162-1ROU1_GBR
 10
240.268506
 20
184.797192
 30
0.00
  0
VERTEX
  8
068162-1ROU1_GBR
 10
240.43386
 20
184.996328
 30
0.00
  0
VERTEX
  8
068162-1ROU1_GBR
 10
240.575312
 20
185.21271
 30
0.00
  0
VERTEX
  8
068162-1ROU1_GBR
 10
240.690908
 20
185.444156
 30
0.00
  0
VERTEX
  8
068162-1ROU1_GBR
 10
240.7793
 20
185.687208
 30
0.00
  0
VERTEX
  8
068162-1ROU1_GBR
 10
240.839498
 20
185.938668
 30
0.00
  0
VERTEX
  8
068162-1ROU1_GBR
 10
240.870486
 20
186.195436
 30
0.00
  0
VERTEX
  8
068162-1ROU1_GBR
 10
240.871756
 20
186.45406
 30
0.00
  0
VERTEX
  8
068162-1ROU1_GBR
 10
240.843308
 20
186.711056
 30
0.00
  0
VERTEX
  8
068162-1ROU1_GBR
 10
240.785904
 20
186.963304
 30
0.00
  0
VERTEX
  8
068162-1ROU1_GBR
 10
240.699798
 20
187.207424
 30
0.00
  0
VERTEX
  8
068162-1ROU1_GBR
 10
240.586514
 20
187.439808
 30
0.00
  0
VERTEX
  8
068162-1ROU1_GBR
 10
240.447068
 20
187.65774
 30
0.00
  0
VERTEX
  8
068162-1ROU1_GBR
 10
240.284
 20
187.8584
 30
0.00
  0
VERTEX
  8
068162-1ROU1_GBR
 10
240.09886
 20
188.03874
 30
0.00
  0
VERTEX
  8
068162-1ROU1_GBR
 10
239.89411
 20
188.196982
 30
0.00
  0
VERTEX
  8
068162-1ROU1_GBR
 10
239.672622
 20
188.33084
 30
0.00
  0
VERTEX
  8
068162-1ROU1_GBR
 10
239.437444
 20
188.438282
 30
0.00
  0
VERTEX
  8
068162-1ROU1_GBR
 10
239.191546
 20
188.518292
 30
0.00
  0
VERTEX
  8
068162-1ROU1_GBR
 10
236.603058
 20
187.927488
 30
0.00
  0
VERTEX
  8
068162-1ROU1_GBR
 10
236.54032
 20
188.431246
 30
0.00
  0
VERTEX
  8
068162-1ROU1_GBR
 10
236.488732
 20
188.936326
 30
0.00
  0
VERTEX
  8
068162-1ROU1_GBR
 10
236.448854
 20
189.442726
 30
0.00
  0
VERTEX
  8
068162-1ROU1_GBR
 10
236.420202
 20
189.948464
 30
0.00
  0
VERTEX
  8
068162-1ROU1_GBR
 10
236.40288
 20
190.457202
 30
0.00
  0
VERTEX
  8
068162-1ROU1_GBR
 10
236.397292
 20
190.965226
 30
0.00
  0
VERTEX
  8
068162-1ROU1_GBR
 10
236.402906
 20
191.47287
 30
0.00
  0
VERTEX
  8
068162-1ROU1_GBR
 10
236.420202
 20
191.98044
 30
0.00
  0
VERTEX
  8
068162-1ROU1_GBR
 10
236.448904
 20
192.48717
 30
0.00
  0
VERTEX
  8
068162-1ROU1_GBR
 10
236.488732
 20
192.992476
 30
0.00
  0
VERTEX
  8
068162-1ROU1_GBR
 10
236.540344
 20
193.498064
 30
0.00
  0
VERTEX
  8
068162-1ROU1_GBR
 10
236.603058
 20
194.001644
 30
0.00
  0
VERTEX
  8
068162-1ROU1_GBR
 10
239.191546
 20
193.41084
 30
0.00
  0
VERTEX
  8
068162-1ROU1_GBR
 10
239.437392
 20
193.490596
 30
0.00
  0
VERTEX
  8
068162-1ROU1_GBR
 10
239.672648
 20
193.598318
 30
0.00
  0
VERTEX
  8
068162-1ROU1_GBR
 10
239.89411
 20
193.731896
 30
0.00
  0
VERTEX
  8
068162-1ROU1_GBR
 10
240.098808
 20
193.890112
 30
0.00
  0
VERTEX
  8
068162-1ROU1_GBR
 10
240.284026
 20
194.070758
 30
0.00
  0
VERTEX
  8
068162-1ROU1_GBR
 10
240.447068
 20
194.271392
 30
0.00
  0
VERTEX
  8
068162-1ROU1_GBR
 10
240.586514
 20
194.489324
 30
0.00
  0
VERTEX
  8
068162-1ROU1_GBR
 10
240.699798
 20
194.721734
 30
0.00
  0
VERTEX
  8
068162-1ROU1_GBR
 10
240.785878
 20
194.965524
 30
0.00
  0
VERTEX
  8
068162-1ROU1_GBR
 10
240.843308
 20
195.217822
 30
0.00
  0
VERTEX
  8
068162-1ROU1_GBR
 10
240.871756
 20
195.474818
 30
0.00
  0
VERTEX
  8
068162-1ROU1_GBR
 10
240.870486
 20
195.733696
 30
0.00
  0
VERTEX
  8
068162-1ROU1_GBR
 10
240.839498
 20
195.990464
 30
0.00
  0
VERTEX
  8
068162-1ROU1_GBR
 10
240.7793
 20
196.241924
 30
0.00
  0
VERTEX
  8
068162-1ROU1_GBR
 10
240.690908
 20
196.485002
 30
0.00
  0
VERTEX
  8
068162-1ROU1_GBR
 10
240.575338
 20
196.716142
 30
0.00
  0
VERTEX
  8
068162-1ROU1_GBR
 10
240.43386
 20
196.932804
 30
0.00
  0
VERTEX
  8
068162-1ROU1_GBR
 10
240.268506
 20
197.131686
 30
0.00
  0
VERTEX
  8
068162-1ROU1_GBR
 10
240.081562
 20
197.310502
 30
0.00
  0
VERTEX
  8
068162-1ROU1_GBR
 10
237.493302
 20
197.901306
 30
0.00
  0
VERTEX
  8
068162-1ROU1_GBR
 10
237.655482
 20
198.382966
 30
0.00
  0
VERTEX
  8
068162-1ROU1_GBR
 10
237.828226
 20
198.860308
 30
0.00
  0
VERTEX
  8
068162-1ROU1_GBR
 10
238.011436
 20
199.333308
 30
0.00
  0
VERTEX
  8
068162-1ROU1_GBR
 10
238.2059
 20
199.80275
 30
0.00
  0
VERTEX
  8
068162-1ROU1_GBR
 10
238.410394
 20
200.266834
 30
0.00
  0
VERTEX
  8
068162-1ROU1_GBR
 10
238.625608
 20
200.727514
 30
0.00
  0
VERTEX
  8
068162-1ROU1_GBR
 10
238.85111
 20
201.182326
 30
0.00
  0
VERTEX
  8
068162-1ROU1_GBR
 10
239.086568
 20
201.631398
 30
0.00
  0
VERTEX
  8
068162-1ROU1_GBR
 10
239.332136
 20
202.075846
 30
0.00
  0
VERTEX
  8
068162-1ROU1_GBR
 10
239.588014
 20
202.514404
 30
0.00
  0
VERTEX
  8
068162-1ROU1_GBR
 10
239.853344
 20
202.947066
 30
0.00
  0
VERTEX
  8
068162-1ROU1_GBR
 10
240.12873
 20
203.373864
 30
0.00
  0
VERTEX
  8
068162-1ROU1_GBR
 10
242.204494
 20
201.718418
 30
0.00
  0
VERTEX
  8
068162-1ROU1_GBR
 10
242.46083
 20
201.683874
 30
0.00
  0
VERTEX
  8
068162-1ROU1_GBR
 10
242.719326
 20
201.67854
 30
0.00
  0
VERTEX
  8
068162-1ROU1_GBR
 10
242.976882
 20
201.702924
 30
0.00
  0
VERTEX
  8
068162-1ROU1_GBR
 10
243.229892
 20
201.756772
 30
0.00
  0
VERTEX
  8
068162-1ROU1_GBR
 10
243.475002
 20
201.839068
 30
0.00
  0
VERTEX
  8
068162-1ROU1_GBR
 10
243.709216
 20
201.94905
 30
0.00
  0
VERTEX
  8
068162-1ROU1_GBR
 10
243.929154
 20
202.08494
 30
0.00
  0
VERTEX
  8
068162-1ROU1_GBR
 10
244.1321
 20
202.245214
 30
0.00
  0
VERTEX
  8
068162-1ROU1_GBR
 10
244.315488
 20
202.427586
 30
0.00
  0
VERTEX
  8
068162-1ROU1_GBR
 10
244.476778
 20
202.629744
 30
0.00
  0
VERTEX
  8
068162-1ROU1_GBR
 10
244.613684
 20
202.849226
 30
0.00
  0
VERTEX
  8
068162-1ROU1_GBR
 10
244.724936
 20
203.082906
 30
0.00
  0
VERTEX
  8
068162-1ROU1_GBR
 10
244.808502
 20
203.327482
 30
0.00
  0
VERTEX
  8
068162-1ROU1_GBR
 10
244.863366
 20
203.580238
 30
0.00
  0
VERTEX
  8
068162-1ROU1_GBR
 10
244.889274
 20
203.837566
 30
0.00
  0
VERTEX
  8
068162-1ROU1_GBR
 10
244.88521
 20
204.096112
 30
0.00
  0
VERTEX
  8
068162-1ROU1_GBR
 10
244.851936
 20
204.352652
 30
0.00
  0
VERTEX
  8
068162-1ROU1_GBR
 10
244.789198
 20
204.603604
 30
0.00
  0
VERTEX
  8
068162-1ROU1_GBR
 10
244.698266
 20
204.84592
 30
0.00
  0
VERTEX
  8
068162-1ROU1_GBR
 10
242.622578
 20
206.501238
 30
0.00
  0
VERTEX
  8
068162-1ROU1_GBR
 10
242.977314
 20
206.864356
 30
0.00
  0
VERTEX
  8
068162-1ROU1_GBR
 10
243.340382
 20
207.219804
 30
0.00
  0
VERTEX
  8
068162-1ROU1_GBR
 10
243.709596
 20
207.56527
 30
0.00
  0
VERTEX
  8
068162-1ROU1_GBR
 10
244.089758
 20
207.905122
 30
0.00
  0
VERTEX
  8
068162-1ROU1_GBR
 10
244.475128
 20
208.234686
 30
0.00
  0
VERTEX
  8
068162-1ROU1_GBR
 10
244.86903
 20
208.555844
 30
0.00
  0
VERTEX
  8
068162-1ROU1_GBR
 10
245.269308
 20
208.867806
 30
0.00
  0
VERTEX
  8
068162-1ROU1_GBR
 10
245.676724
 20
209.170804
 30
0.00
  0
VERTEX
  8
068162-1ROU1_GBR
 10
246.09044
 20
209.464224
 30
0.00
  0
VERTEX
  8
068162-1ROU1_GBR
 10
246.511242
 20
209.7484
 30
0.00
  0
VERTEX
  8
068162-1ROU1_GBR
 10
246.93875
 20
210.02333
 30
0.00
  0
VERTEX
  8
068162-1ROU1_GBR
 10
247.371616
 20
210.288378
 30
0.00
  0
VERTEX
  8
068162-1ROU1_GBR
 10
248.523506
 20
207.896206
 30
0.00
  0
VERTEX
  8
068162-1ROU1_GBR
 10
248.739406
 20
207.753712
 30
0.00
  0
VERTEX
  8
068162-1ROU1_GBR
 10
248.970038
 20
207.636872
 30
0.00
  0
VERTEX
  8
068162-1ROU1_GBR
 10
249.212608
 20
207.54721
 30
0.00
  0
VERTEX
  8
068162-1ROU1_GBR
 10
249.463814
 20
207.485996
 30
0.00
  0
VERTEX
  8
068162-1ROU1_GBR
 10
249.720608
 20
207.453738
 30
0.00
  0
VERTEX
  8
068162-1ROU1_GBR
 10
249.97918
 20
207.451198
 30
0.00
  0
VERTEX
  8
068162-1ROU1_GBR
 10
250.236508
 20
207.478122
 30
0.00
  0
VERTEX
  8
068162-1ROU1_GBR
 10
250.488932
 20
207.53451
 30
0.00
  0
VERTEX
  8
068162-1ROU1_GBR
 10
250.733052
 20
207.619346
 30
0.00
  0
VERTEX
  8
068162-1ROU1_GBR
 10
250.966224
 20
207.73136
 30
0.00
  0
VERTEX
  8
068162-1ROU1_GBR
 10
251.184918
 20
207.869536
 30
0.00
  0
VERTEX
  8
068162-1ROU1_GBR
 10
251.38634
 20
208.031842
 30
0.00
  0
VERTEX
  8
068162-1ROU1_GBR
 10
251.567696
 20
208.216246
 30
0.00
  0
VERTEX
  8
068162-1ROU1_GBR
 10
251.726954
 20
208.419954
 30
0.00
  0
VERTEX
  8
068162-1ROU1_GBR
 10
251.861828
 20
208.64068
 30
0.00
  0
VERTEX
  8
068162-1ROU1_GBR
 10
251.97054
 20
208.875376
 30
0.00
  0
VERTEX
  8
068162-1ROU1_GBR
 10
252.051566
 20
209.120994
 30
0.00
  0
VERTEX
  8
068162-1ROU1_GBR
 10
252.104144
 20
209.374232
 30
0.00
  0
VERTEX
  8
068162-1ROU1_GBR
 10
252.127258
 20
209.631788
 30
0.00
  0
VERTEX
  8
068162-1ROU1_GBR
 10
250.97547
 20
212.023732
 30
0.00
  0
VERTEX
  8
068162-1ROU1_GBR
 10
251.452278
 20
212.197162
 30
0.00
  0
VERTEX
  8
068162-1ROU1_GBR
 10
251.933684
 20
212.359824
 30
0.00
  0
VERTEX
  8
068162-1ROU1_GBR
 10
252.418952
 20
212.511716
 30
0.00
  0
VERTEX
  8
068162-1ROU1_GBR
 10
252.906226
 20
212.65223
 30
0.00
  0
VERTEX
  8
068162-1ROU1_GBR
 10
253.150878
 20
212.718396
 30
0.00
  0
VERTEX
  8
068162-1ROU1_GBR
 10
253.643766
 20
212.842754
 30
0.00
  0
VERTEX
  8
068162-1ROU1_GBR
 10
254.137998
 20
212.955352
 30
0.00
  0
VERTEX
  8
068162-1ROU1_GBR
 10
254.635966
 20
213.057308
 30
0.00
  0
VERTEX
  8
068162-1ROU1_GBR
 10
255.13566
 20
213.147758
 30
0.00
  0
VERTEX
  8
068162-1ROU1_GBR
 10
255.637412
 20
213.227006
 30
0.00
  0
VERTEX
  8
068162-1ROU1_GBR
 10
256.140306
 20
213.295052
 30
0.00
  0
VERTEX
  8
068162-1ROU1_GBR
 10
256.64447
 20
213.351364
 30
0.00
  0
VERTEX
  8
068162-1ROU1_GBR
 10
256.897124
 20
213.375494
 30
0.00
  0
VERTEX
  8
068162-1ROU1_GBR
 10
256.897124
 20
210.720864
 30
0.00
  0
VERTEX
  8
068162-1ROU1_GBR
 10
257.029966
 20
210.49841
 30
0.00
  0
VERTEX
  8
068162-1ROU1_GBR
 10
257.186912
 20
210.29295
 30
0.00
  0
VERTEX
  8
068162-1ROU1_GBR
 10
257.36677
 20
210.107022
 30
0.00
  0
VERTEX
  8
068162-1ROU1_GBR
 10
257.566414
 20
209.942684
 30
0.00
  0
VERTEX
  8
068162-1ROU1_GBR
 10
257.783838
 20
209.802476
 30
0.00
  0
VERTEX
  8
068162-1ROU1_GBR
 10
258.01574
 20
209.687922
 30
0.00
  0
VERTEX
  8
068162-1ROU1_GBR
 10
258.259072
 20
209.600546
 30
0.00
  0
VERTEX
  8
068162-1ROU1_GBR
 10
258.51104
 20
209.541618
 30
0.00
  0
VERTEX
  8
068162-1ROU1_GBR
 10
258.767834
 20
209.512154
 30
0.00
  0
VERTEX
  8
068162-1ROU1_GBR
 10
259.02666
 20
209.512154
 30
0.00
  0
VERTEX
  8
068162-1ROU1_GBR
 10
259.283454
 20
209.541618
 30
0.00
  0
VERTEX
  8
068162-1ROU1_GBR
 10
259.535422
 20
209.600546
 30
0.00
  0
VERTEX
  8
068162-1ROU1_GBR
 10
259.778754
 20
209.687922
 30
0.00
  0
VERTEX
  8
068162-1ROU1_GBR
 10
260.010656
 20
209.802476
 30
0.00
  0
VERTEX
  8
068162-1ROU1_GBR
 10
260.22808
 20
209.942684
 30
0.00
  0
VERTEX
  8
068162-1ROU1_GBR
 10
260.427724
 20
210.107022
 30
0.00
  0
VERTEX
  8
068162-1ROU1_GBR
 10
260.607302
 20
210.29295
 30
0.00
  0
VERTEX
  8
068162-1ROU1_GBR
 10
260.764528
 20
210.498436
 30
0.00
  0
VERTEX
  8
068162-1ROU1_GBR
 10
260.897116
 20
210.720432
 30
0.00
  0
VERTEX
  8
068162-1ROU1_GBR
 10
260.897116
 20
213.37552
 30
0.00
  0
SEQEND
  0
ENDSEC
  0
EOF
