  0
SECTION
  2
HEADER
  9
$EXTMIN
 10
-258.359834
 20
-58.010602
 30
0.00
  9
$EXTMAX
 10
470.00
 20
419.20
 30
0.00
  0
ENDSEC
  0
SECTION
  2
TABLES
  0
TABLE
  2
LTYPE
 70
3
  0
LTYPE
  2
BYBLOCK
 70
0
  3

 72
65
 73
0
 40
0.00
  0
LTYPE
  2
BYLAYER
 70
0
  3

 72
65
 73
0
 40
0.00
  0
LTYPE
  2
CONTINUOUS
 70
0
  3
Solid line
 72
65
 73
0
 40
0.00
  0
ENDTAB
  0
TABLE
  2
LAYER
 70
99
  0
LAYER
  2
0
 70
0
 62
7
  6
CONTINUOUS
  0
LAYER
  2
020671-1ROU1_GBR
 70
0
 62
7
  6
CONTINUOUS
  0
LAYER
  2
027417-3ROU1_GBR
 70
0
 62
7
  6
CONTINUOUS
  0
LAYER
  2
027419-1ROU1_GBR
 70
0
 62
2
  6
CONTINUOUS
  0
LAYER
  2
027419-2ROU1_GBR
 70
0
 62
6
  6
CONTINUOUS
  0
LAYER
  2
027674-1ROU1_GBR
 70
0
 62
1
  6
CONTINUOUS
  0
LAYER
  2
027676-1ROU1_GBR
 70
0
 62
4
  6
CONTINUOUS
  0
LAYER
  2
027678-3ROU1_GBR
 70
0
 62
3
  6
CONTINUOUS
  0
LAYER
  2
028122-1ROU1_GBR
 70
0
 62
5
  6
CONTINUOUS
  0
LAYER
  2
028124-5ROU1_GBR
 70
0
 62
10
  6
CONTINUOUS
  0
LAYER
  2
028126-1ROU1_GBR
 70
0
 62
14
  6
CONTINUOUS
  0
LAYER
  2
028126-3ROU1_GBR
 70
0
 62
9
  6
CONTINUOUS
  0
LAYER
  2
028126-6ROU1_GBR
 70
0
 62
12
  6
CONTINUOUS
  0
LAYER
  2
028126-7ROU1_GBR
 70
0
 62
11
  6
CONTINUOUS
  0
LAYER
  2
028129-1ROU1_GBR
 70
0
 62
13
  6
CONTINUOUS
  0
LAYER
  2
028130-1ROU1_GBR
 70
0
 62
8
  6
CONTINUOUS
  0
LAYER
  2
028130-4ROU1_GBR
 70
0
 62
15
  6
CONTINUOUS
  0
LAYER
  2
028130-5ROU1_GBR
 70
0
 62
7
  6
CONTINUOUS
  0
LAYER
  2
028130-7ROU1_GBR
 70
0
 62
7
  6
CONTINUOUS
  0
LAYER
  2
028655-1ROU1_GBR
 70
0
 62
2
  6
CONTINUOUS
  0
LAYER
  2
028657-1ROU1_GBR
 70
0
 62
6
  6
CONTINUOUS
  0
LAYER
  2
028659-2ROU1_GBR
 70
0
 62
1
  6
CONTINUOUS
  0
LAYER
  2
028659-4ROU1_GBR
 70
0
 62
4
  6
CONTINUOUS
  0
LAYER
  2
028661-1ROU1_GBR
 70
0
 62
3
  6
CONTINUOUS
  0
LAYER
  2
028663-1ROU1_GBR
 70
0
 62
5
  6
CONTINUOUS
  0
LAYER
  2
028665-1ROU1_GBR
 70
0
 62
10
  6
CONTINUOUS
  0
LAYER
  2
028669-1ROU1_GBR
 70
0
 62
14
  6
CONTINUOUS
  0
LAYER
  2
028673-2ROU1_GBR
 70
0
 62
9
  6
CONTINUOUS
  0
LAYER
  2
037088-3ROU1_GBR
 70
0
 62
12
  6
CONTINUOUS
  0
LAYER
  2
037682-1ROU1_GBR
 70
0
 62
11
  6
CONTINUOUS
  0
LAYER
  2
037686-1ROU1_GBR
 70
0
 62
13
  6
CONTINUOUS
  0
LAYER
  2
037688-1ROU1_GBR
 70
0
 62
8
  6
CONTINUOUS
  0
LAYER
  2
038681-1ROU1_GBR
 70
0
 62
15
  6
CONTINUOUS
  0
LAYER
  2
038683-1ROU1_GBR
 70
0
 62
7
  6
CONTINUOUS
  0
LAYER
  2
038683-2ROU1_GBR
 70
0
 62
7
  6
CONTINUOUS
  0
LAYER
  2
038685-1ROU1_GBR
 70
0
 62
2
  6
CONTINUOUS
  0
LAYER
  2
038689-1ROU1_GBR
 70
0
 62
6
  6
CONTINUOUS
  0
LAYER
  2
038689-2ROU1_GBR
 70
0
 62
1
  6
CONTINUOUS
  0
LAYER
  2
038691-1ROU1_GBR
 70
0
 62
4
  6
CONTINUOUS
  0
LAYER
  2
038691-2ROU1_GBR
 70
0
 62
3
  6
CONTINUOUS
  0
LAYER
  2
038691-3ROU1_GBR
 70
0
 62
5
  6
CONTINUOUS
  0
LAYER
  2
038691-4ROU1_GBR
 70
0
 62
10
  6
CONTINUOUS
  0
LAYER
  2
038693-1ROU1_GBR
 70
0
 62
14
  6
CONTINUOUS
  0
LAYER
  2
038695-1ROU1_GBR
 70
0
 62
9
  6
CONTINUOUS
  0
LAYER
  2
038697-1ROU1_GBR
 70
0
 62
12
  6
CONTINUOUS
  0
LAYER
  2
038697-3ROU1_GBR
 70
0
 62
11
  6
CONTINUOUS
  0
LAYER
  2
038697-4ROU1_GBR
 70
0
 62
13
  6
CONTINUOUS
  0
LAYER
  2
038697-5ROU1_GBR
 70
0
 62
8
  6
CONTINUOUS
  0
LAYER
  2
047706-4ROU1_GBR
 70
0
 62
15
  6
CONTINUOUS
  0
LAYER
  2
047706-5ROU1_GBR
 70
0
 62
7
  6
CONTINUOUS
  0
LAYER
  2
047706-6ROU1_GBR
 70
0
 62
7
  6
CONTINUOUS
  0
LAYER
  2
047708-1ROU1_GBR
 70
0
 62
2
  6
CONTINUOUS
  0
LAYER
  2
047710-1ROU1_GBR
 70
0
 62
6
  6
CONTINUOUS
  0
LAYER
  2
047712-1ROU1_GBR
 70
0
 62
1
  6
CONTINUOUS
  0
LAYER
  2
047714-2ROU1_GBR
 70
0
 62
4
  6
CONTINUOUS
  0
LAYER
  2
048701-1ROU1_GBR
 70
0
 62
3
  6
CONTINUOUS
  0
LAYER
  2
048703-1ROU1_GBR
 70
0
 62
10
  6
CONTINUOUS
  0
LAYER
  2
048711-1ROU1_GBR
 70
0
 62
14
  6
CONTINUOUS
  0
LAYER
  2
048715-1ROU1_GBR
 70
0
 62
9
  6
CONTINUOUS
  0
LAYER
  2
058721-2ROU1_GBR
 70
0
 62
12
  6
CONTINUOUS
  0
LAYER
  2
058723-10ROU1_GBR
 70
0
 62
11
  6
CONTINUOUS
  0
LAYER
  2
058723-1ROU1_GBR
 70
0
 62
13
  6
CONTINUOUS
  0
LAYER
  2
058723-6ROU1_GBR
 70
0
 62
8
  6
CONTINUOUS
  0
LAYER
  2
058723-9ROU1_GBR
 70
0
 62
15
  6
CONTINUOUS
  0
LAYER
  2
067601-1ROU1_GBR
 70
0
 62
7
  6
CONTINUOUS
  0
LAYER
  2
068162-1ROU1_GBR
 70
0
 62
7
  6
CONTINUOUS
  0
LAYER
  2
068162-3ROU1_GBR
 70
0
 62
2
  6
CONTINUOUS
  0
LAYER
  2
068162-4ROU1_GBR
 70
0
 62
6
  6
CONTINUOUS
  0
LAYER
  2
077742-1ROU1_GBR
 70
0
 62
1
  6
CONTINUOUS
  0
LAYER
  2
078731-1ROU1_GBR
 70
0
 62
4
  6
CONTINUOUS
  0
LAYER
  2
078735-3ROU1_GBR
 70
0
 62
3
  6
CONTINUOUS
  0
LAYER
  2
078739-1ROU1_GBR
 70
0
 62
5
  6
CONTINUOUS
  0
LAYER
  2
078753-1ROU1_GBR
 70
0
 62
10
  6
CONTINUOUS
  0
LAYER
  2
078757-1ROU1_GBR
 70
0
 62
14
  6
CONTINUOUS
  0
LAYER
  2
087768-2ROU1_GBR
 70
0
 62
9
  6
CONTINUOUS
  0
LAYER
  2
087772-1ROU1_GBR
 70
0
 62
12
  6
CONTINUOUS
  0
LAYER
  2
087780-1ROU1_GBR
 70
0
 62
11
  6
CONTINUOUS
  0
LAYER
  2
087782-9ROU1_GBR
 70
0
 62
13
  6
CONTINUOUS
  0
LAYER
  2
088783-4ROU1_GBR
 70
0
 62
8
  6
CONTINUOUS
  0
LAYER
  2
088785-1ROU1_GBR
 70
0
 62
15
  6
CONTINUOUS
  0
LAYER
  2
097800-6ROU1_GBR
 70
0
 62
7
  6
CONTINUOUS
  0
LAYER
  2
097810-1ROU1_GBR
 70
0
 62
7
  6
CONTINUOUS
  0
LAYER
  2
098787-1ROU1_GBR
 70
0
 62
2
  6
CONTINUOUS
  0
LAYER
  2
098787-2ROU1_GBR
 70
0
 62
6
  6
CONTINUOUS
  0
LAYER
  2
098789-1ROU1_GBR
 70
0
 62
1
  6
CONTINUOUS
  0
LAYER
  2
098811-1ROU1_GBR
 70
0
 62
4
  6
CONTINUOUS
  0
LAYER
  2
098815-1ROU1_GBR
 70
0
 62
3
  6
CONTINUOUS
  0
LAYER
  2
098815-2ROU1_GBR
 70
0
 62
5
  6
CONTINUOUS
  0
LAYER
  2
107824-1ROU1_GBR
 70
0
 62
10
  6
CONTINUOUS
  0
LAYER
  2
118200-1ROU1_GBR
 70
0
 62
14
  6
CONTINUOUS
  0
LAYER
  2
257017-1ROU1_GBR
 70
0
 62
9
  6
CONTINUOUS
  0
LAYER
  2
268076-7ROU1_GBR
 70
0
 62
12
  6
CONTINUOUS
  0
LAYER
  2
288088-1ROU1_GBR
 70
0
 62
11
  6
CONTINUOUS
  0
LAYER
  2
307251-1ROU1_GBR
 70
0
 62
13
  6
CONTINUOUS
  0
LAYER
  2
307273-4ROU1_GBR
 70
0
 62
8
  6
CONTINUOUS
  0
LAYER
  2
307283-1ROU1_GBR
 70
0
 62
15
  6
CONTINUOUS
  0
LAYER
  2
307291-1ROU1_GBR
 70
0
 62
7
  6
CONTINUOUS
  0
LAYER
  2
308108-1ROU1_GBR
 70
0
 62
7
  6
CONTINUOUS
  0
LAYER
  2
308111-1ROU1_GBR
 70
0
 62
2
  6
CONTINUOUS
  0
LAYER
  2
308112-1ROU1_GBR
 70
0
 62
6
  6
CONTINUOUS
  0
ENDTAB
  0
TABLE
  2
STYLE
 70
0
  0
ENDTAB
  0
ENDSEC
  0
SECTION
  2
BLOCKS
  0
BLOCK
  2
ROUND_1
  3
ROUND_1
 70
64
 10
0.00
 20
0.00
 30
0.00
  0
CIRCLE
  8
0
 10
0.00
 20
0.00
 30
0.00
 40
0.10
  0
ENDBLK
  0
ENDSEC
  0
SECTION
  2
ENTITIES
  0
POLYLINE
  8
078739-1ROU1_GBR
 66
1
 10
0.00
 20
0.00
 30
0.00
 40
0.20
 41
0.20
  0
VERTEX
  8
078739-1ROU1_GBR
 10
58.30702
 20
136.39795
 30
0.00
  0
VERTEX
  8
078739-1ROU1_GBR
 10
58.557796
 20
136.387408
 30
0.00
  0
VERTEX
  8
078739-1ROU1_GBR
 10
58.805318
 20
136.356598
 30
0.00
  0
VERTEX
  8
078739-1ROU1_GBR
 10
59.052994
 20
136.304426
 30
0.00
  0
VERTEX
  8
078739-1ROU1_GBR
 10
59.293456
 20
136.232544
 30
0.00
  0
VERTEX
  8
078739-1ROU1_GBR
 10
59.526906
 20
136.141256
 30
0.00
  0
VERTEX
  8
078739-1ROU1_GBR
 10
59.752154
 20
136.03097
 30
0.00
  0
VERTEX
  8
078739-1ROU1_GBR
 10
59.967572
 20
135.902496
 30
0.00
  0
VERTEX
  8
078739-1ROU1_GBR
 10
60.172042
 20
135.756244
 30
0.00
  0
VERTEX
  8
078739-1ROU1_GBR
 10
60.362998
 20
135.594192
 30
0.00
  0
VERTEX
  8
078739-1ROU1_GBR
 10
60.54024
 20
135.416696
 30
0.00
  0
VERTEX
  8
078739-1ROU1_GBR
 10
60.702418
 20
135.224724
 30
0.00
  0
VERTEX
  8
078739-1ROU1_GBR
 10
60.848214
 20
135.020354
 30
0.00
  0
VERTEX
  8
078739-1ROU1_GBR
 10
60.97623
 20
134.805166
 30
0.00
  0
VERTEX
  8
078739-1ROU1_GBR
 10
61.08639
 20
134.579564
 30
0.00
  0
VERTEX
  8
078739-1ROU1_GBR
 10
61.176662
 20
134.348246
 30
0.00
  0
VERTEX
  8
078739-1ROU1_GBR
 10
61.342398
 20
133.7897
 30
0.00
  0
VERTEX
  8
078739-1ROU1_GBR
 10
61.507116
 20
134.342404
 30
0.00
  0
VERTEX
  8
078739-1ROU1_GBR
 10
61.59881
 20
134.576592
 30
0.00
  0
VERTEX
  8
078739-1ROU1_GBR
 10
61.709326
 20
134.802576
 30
0.00
  0
VERTEX
  8
078739-1ROU1_GBR
 10
61.838434
 20
135.018806
 30
0.00
  0
VERTEX
  8
078739-1ROU1_GBR
 10
61.985118
 20
135.223986
 30
0.00
  0
VERTEX
  8
078739-1ROU1_GBR
 10
62.148008
 20
135.416086
 30
0.00
  0
VERTEX
  8
078739-1ROU1_GBR
 10
62.326444
 20
135.594014
 30
0.00
  0
VERTEX
  8
078739-1ROU1_GBR
 10
62.519332
 20
135.757208
 30
0.00
  0
VERTEX
  8
078739-1ROU1_GBR
 10
62.724106
 20
135.903182
 30
0.00
  0
VERTEX
  8
078739-1ROU1_GBR
 10
62.940058
 20
136.031528
 30
0.00
  0
VERTEX
  8
078739-1ROU1_GBR
 10
63.16472
 20
136.14146
 30
0.00
  0
VERTEX
  8
078739-1ROU1_GBR
 10
63.399442
 20
136.2329
 30
0.00
  0
VERTEX
  8
078739-1ROU1_GBR
 10
63.642926
 20
136.30524
 30
0.00
  0
VERTEX
  8
078739-1ROU1_GBR
 10
63.889332
 20
136.356852
 30
0.00
  0
VERTEX
  8
078739-1ROU1_GBR
 10
64.139928
 20
136.387942
 30
0.00
  0
VERTEX
  8
078739-1ROU1_GBR
 10
64.390144
 20
136.398
 30
0.00
  0
VERTEX
  8
078739-1ROU1_GBR
 10
119.635448
 20
136.39795
 30
0.00
  0
VERTEX
  8
078739-1ROU1_GBR
 10
119.887822
 20
136.387586
 30
0.00
  0
VERTEX
  8
078739-1ROU1_GBR
 10
120.138038
 20
136.35609
 30
0.00
  0
VERTEX
  8
078739-1ROU1_GBR
 10
120.38419
 20
136.304224
 30
0.00
  0
VERTEX
  8
078739-1ROU1_GBR
 10
120.62361
 20
136.2329
 30
0.00
  0
VERTEX
  8
078739-1ROU1_GBR
 10
120.85828
 20
136.14146
 30
0.00
  0
VERTEX
  8
078739-1ROU1_GBR
 10
121.086246
 20
136.029726
 30
0.00
  0
VERTEX
  8
078739-1ROU1_GBR
 10
121.30273
 20
135.900718
 30
0.00
  0
VERTEX
  8
078739-1ROU1_GBR
 10
121.506234
 20
135.75538
 30
0.00
  0
VERTEX
  8
078739-1ROU1_GBR
 10
121.699706
 20
135.591118
 30
0.00
  0
VERTEX
  8
078739-1ROU1_GBR
 10
121.877912
 20
135.412912
 30
0.00
  0
VERTEX
  8
078739-1ROU1_GBR
 10
122.040676
 20
135.220406
 30
0.00
  0
VERTEX
  8
078739-1ROU1_GBR
 10
122.186802
 20
135.015376
 30
0.00
  0
VERTEX
  8
078739-1ROU1_GBR
 10
122.315858
 20
134.798512
 30
0.00
  0
VERTEX
  8
078739-1ROU1_GBR
 10
122.426094
 20
134.572222
 30
0.00
  0
VERTEX
  8
078739-1ROU1_GBR
 10
122.517484
 20
134.337882
 30
0.00
  0
VERTEX
  8
078739-1ROU1_GBR
 10
122.589264
 20
134.095998
 30
0.00
  0
VERTEX
  8
078739-1ROU1_GBR
 10
122.640624
 20
133.849668
 30
0.00
  0
VERTEX
  8
078739-1ROU1_GBR
 10
122.671688
 20
133.599656
 30
0.00
  0
VERTEX
  8
078739-1ROU1_GBR
 10
122.682
 20
133.349136
 30
0.00
  0
VERTEX
  8
078739-1ROU1_GBR
 10
122.682
 20
126.619254
 30
0.00
  0
VERTEX
  8
078739-1ROU1_GBR
 10
122.428762
 20
126.61011
 30
0.00
  0
VERTEX
  8
078739-1ROU1_GBR
 10
122.17682
 20
126.582932
 30
0.00
  0
VERTEX
  8
078739-1ROU1_GBR
 10
121.92734
 20
126.537974
 30
0.00
  0
VERTEX
  8
078739-1ROU1_GBR
 10
121.681748
 20
126.475236
 30
0.00
  0
VERTEX
  8
078739-1ROU1_GBR
 10
121.441438
 20
126.395226
 30
0.00
  0
VERTEX
  8
078739-1ROU1_GBR
 10
121.207326
 20
126.298478
 30
0.00
  0
VERTEX
  8
078739-1ROU1_GBR
 10
120.980682
 20
126.184914
 30
0.00
  0
VERTEX
  8
078739-1ROU1_GBR
 10
120.762802
 20
126.055628
 30
0.00
  0
VERTEX
  8
078739-1ROU1_GBR
 10
120.554446
 20
125.911076
 30
0.00
  0
VERTEX
  8
078739-1ROU1_GBR
 10
120.357188
 20
125.752124
 30
0.00
  0
VERTEX
  8
078739-1ROU1_GBR
 10
120.171692
 20
125.579352
 30
0.00
  0
VERTEX
  8
078739-1ROU1_GBR
 10
119.998998
 20
125.393958
 30
0.00
  0
VERTEX
  8
078739-1ROU1_GBR
 10
119.839994
 20
125.1966
 30
0.00
  0
VERTEX
  8
078739-1ROU1_GBR
 10
119.695468
 20
124.98832
 30
0.00
  0
VERTEX
  8
078739-1ROU1_GBR
 10
119.566182
 20
124.770388
 30
0.00
  0
VERTEX
  8
078739-1ROU1_GBR
 10
119.452898
 20
124.54382
 30
0.00
  0
VERTEX
  8
078739-1ROU1_GBR
 10
119.35587
 20
124.309606
 30
0.00
  0
VERTEX
  8
078739-1ROU1_GBR
 10
119.275886
 20
124.069398
 30
0.00
  0
VERTEX
  8
078739-1ROU1_GBR
 10
119.213122
 20
123.82373
 30
0.00
  0
VERTEX
  8
078739-1ROU1_GBR
 10
119.168164
 20
123.574276
 30
0.00
  0
VERTEX
  8
078739-1ROU1_GBR
 10
119.140986
 20
123.322334
 30
0.00
  0
VERTEX
  8
078739-1ROU1_GBR
 10
119.132376
 20
123.07702
 30
0.00
  0
VERTEX
  8
078739-1ROU1_GBR
 10
119.126
 20
123.044408
 30
0.00
  0
VERTEX
  8
078739-1ROU1_GBR
 10
119.126
 20
81.661
 30
0.00
  0
VERTEX
  8
078739-1ROU1_GBR
 10
119.135144
 20
81.408016
 30
0.00
  0
VERTEX
  8
078739-1ROU1_GBR
 10
119.162068
 20
81.155768
 30
0.00
  0
VERTEX
  8
078739-1ROU1_GBR
 10
119.207
 20
80.906696
 30
0.00
  0
VERTEX
  8
078739-1ROU1_GBR
 10
119.26979
 20
80.660926
 30
0.00
  0
VERTEX
  8
078739-1ROU1_GBR
 10
119.349774
 20
80.42049
 30
0.00
  0
VERTEX
  8
078739-1ROU1_GBR
 10
119.446828
 20
80.186504
 30
0.00
  0
VERTEX
  8
078739-1ROU1_GBR
 10
119.56034
 20
79.959708
 30
0.00
  0
VERTEX
  8
078739-1ROU1_GBR
 10
119.689626
 20
79.741802
 30
0.00
  0
VERTEX
  8
078739-1ROU1_GBR
 10
119.834178
 20
79.533724
 30
0.00
  0
VERTEX
  8
078739-1ROU1_GBR
 10
119.99313
 20
79.336418
 30
0.00
  0
VERTEX
  8
078739-1ROU1_GBR
 10
120.165622
 20
79.150972
 30
0.00
  0
VERTEX
  8
078739-1ROU1_GBR
 10
120.351296
 20
78.978252
 30
0.00
  0
VERTEX
  8
078739-1ROU1_GBR
 10
120.548654
 20
78.819248
 30
0.00
  0
VERTEX
  8
078739-1ROU1_GBR
 10
120.75668
 20
78.674722
 30
0.00
  0
VERTEX
  8
078739-1ROU1_GBR
 10
120.974612
 20
78.545436
 30
0.00
  0
VERTEX
  8
078739-1ROU1_GBR
 10
121.20118
 20
78.431898
 30
0.00
  0
VERTEX
  8
078739-1ROU1_GBR
 10
121.435368
 20
78.33487
 30
0.00
  0
VERTEX
  8
078739-1ROU1_GBR
 10
121.675906
 20
78.25486
 30
0.00
  0
VERTEX
  8
078739-1ROU1_GBR
 10
121.921244
 20
78.192376
 30
0.00
  0
VERTEX
  8
078739-1ROU1_GBR
 10
122.170698
 20
78.147164
 30
0.00
  0
VERTEX
  8
078739-1ROU1_GBR
 10
122.422692
 20
78.12024
 30
0.00
  0
VERTEX
  8
078739-1ROU1_GBR
 10
122.682
 20
78.110868
 30
0.00
  0
VERTEX
  8
078739-1ROU1_GBR
 10
122.68195
 20
71.245806
 30
0.00
  0
VERTEX
  8
078739-1ROU1_GBR
 10
122.671586
 20
70.995514
 30
0.00
  0
VERTEX
  8
078739-1ROU1_GBR
 10
122.639862
 20
70.742962
 30
0.00
  0
VERTEX
  8
078739-1ROU1_GBR
 10
122.588096
 20
70.496634
 30
0.00
  0
VERTEX
  8
078739-1ROU1_GBR
 10
122.515884
 20
70.254826
 30
0.00
  0
VERTEX
  8
078739-1ROU1_GBR
 10
122.42424
 20
70.020738
 30
0.00
  0
VERTEX
  8
078739-1ROU1_GBR
 10
122.313548
 20
69.794424
 30
0.00
  0
VERTEX
  8
078739-1ROU1_GBR
 10
122.184236
 20
69.577992
 30
0.00
  0
VERTEX
  8
078739-1ROU1_GBR
 10
122.037984
 20
69.37337
 30
0.00
  0
VERTEX
  8
078739-1ROU1_GBR
 10
121.874916
 20
69.181092
 30
0.00
  0
VERTEX
  8
078739-1ROU1_GBR
 10
121.696454
 20
69.003164
 30
0.00
  0
VERTEX
  8
078739-1ROU1_GBR
 10
121.50443
 20
68.840578
 30
0.00
  0
VERTEX
  8
078739-1ROU1_GBR
 10
121.298844
 20
68.69402
 30
0.00
  0
VERTEX
  8
078739-1ROU1_GBR
 10
121.082258
 20
68.565396
 30
0.00
  0
VERTEX
  8
078739-1ROU1_GBR
 10
120.855866
 20
68.454854
 30
0.00
  0
VERTEX
  8
078739-1ROU1_GBR
 10
120.623584
 20
68.364354
 30
0.00
  0
VERTEX
  8
078739-1ROU1_GBR
 10
120.06895
 20
68.199128
 30
0.00
  0
VERTEX
  8
078739-1ROU1_GBR
 10
120.623584
 20
68.0339
 30
0.00
  0
VERTEX
  8
078739-1ROU1_GBR
 10
120.85828
 20
67.94246
 30
0.00
  0
VERTEX
  8
078739-1ROU1_GBR
 10
121.086246
 20
67.830726
 30
0.00
  0
VERTEX
  8
078739-1ROU1_GBR
 10
121.30273
 20
67.701718
 30
0.00
  0
VERTEX
  8
078739-1ROU1_GBR
 10
121.506234
 20
67.55638
 30
0.00
  0
VERTEX
  8
078739-1ROU1_GBR
 10
121.699706
 20
67.392118
 30
0.00
  0
VERTEX
  8
078739-1ROU1_GBR
 10
121.877912
 20
67.213912
 30
0.00
  0
VERTEX
  8
078739-1ROU1_GBR
 10
122.040676
 20
67.021406
 30
0.00
  0
VERTEX
  8
078739-1ROU1_GBR
 10
122.186802
 20
66.816376
 30
0.00
  0
VERTEX
  8
078739-1ROU1_GBR
 10
122.315858
 20
66.599512
 30
0.00
  0
VERTEX
  8
078739-1ROU1_GBR
 10
122.426094
 20
66.373222
 30
0.00
  0
VERTEX
  8
078739-1ROU1_GBR
 10
122.517484
 20
66.138882
 30
0.00
  0
VERTEX
  8
078739-1ROU1_GBR
 10
122.589264
 20
65.896998
 30
0.00
  0
VERTEX
  8
078739-1ROU1_GBR
 10
122.640624
 20
65.650668
 30
0.00
  0
VERTEX
  8
078739-1ROU1_GBR
 10
122.671688
 20
65.400656
 30
0.00
  0
VERTEX
  8
078739-1ROU1_GBR
 10
122.682
 20
65.150136
 30
0.00
  0
VERTEX
  8
078739-1ROU1_GBR
 10
122.682
 20
58.420254
 30
0.00
  0
VERTEX
  8
078739-1ROU1_GBR
 10
122.428762
 20
58.41111
 30
0.00
  0
VERTEX
  8
078739-1ROU1_GBR
 10
122.17682
 20
58.383932
 30
0.00
  0
VERTEX
  8
078739-1ROU1_GBR
 10
121.92734
 20
58.338974
 30
0.00
  0
VERTEX
  8
078739-1ROU1_GBR
 10
121.681748
 20
58.276236
 30
0.00
  0
VERTEX
  8
078739-1ROU1_GBR
 10
121.441438
 20
58.196226
 30
0.00
  0
VERTEX
  8
078739-1ROU1_GBR
 10
121.207326
 20
58.099478
 30
0.00
  0
VERTEX
  8
078739-1ROU1_GBR
 10
120.980682
 20
57.985914
 30
0.00
  0
VERTEX
  8
078739-1ROU1_GBR
 10
120.762802
 20
57.856628
 30
0.00
  0
VERTEX
  8
078739-1ROU1_GBR
 10
120.554446
 20
57.712076
 30
0.00
  0
VERTEX
  8
078739-1ROU1_GBR
 10
120.357188
 20
57.553124
 30
0.00
  0
VERTEX
  8
078739-1ROU1_GBR
 10
120.171692
 20
57.380352
 30
0.00
  0
VERTEX
  8
078739-1ROU1_GBR
 10
119.998998
 20
57.194958
 30
0.00
  0
VERTEX
  8
078739-1ROU1_GBR
 10
119.839994
 20
56.9976
 30
0.00
  0
VERTEX
  8
078739-1ROU1_GBR
 10
119.695468
 20
56.78932
 30
0.00
  0
VERTEX
  8
078739-1ROU1_GBR
 10
119.566182
 20
56.571388
 30
0.00
  0
VERTEX
  8
078739-1ROU1_GBR
 10
119.452898
 20
56.34482
 30
0.00
  0
VERTEX
  8
078739-1ROU1_GBR
 10
119.35587
 20
56.110606
 30
0.00
  0
VERTEX
  8
078739-1ROU1_GBR
 10
119.275886
 20
55.870398
 30
0.00
  0
VERTEX
  8
078739-1ROU1_GBR
 10
119.213122
 20
55.62473
 30
0.00
  0
VERTEX
  8
078739-1ROU1_GBR
 10
119.168164
 20
55.375276
 30
0.00
  0
VERTEX
  8
078739-1ROU1_GBR
 10
119.140986
 20
55.123334
 30
0.00
  0
VERTEX
  8
078739-1ROU1_GBR
 10
119.132376
 20
54.87802
 30
0.00
  0
VERTEX
  8
078739-1ROU1_GBR
 10
119.126
 20
54.845408
 30
0.00
  0
VERTEX
  8
078739-1ROU1_GBR
 10
119.126
 20
13.462
 30
0.00
  0
VERTEX
  8
078739-1ROU1_GBR
 10
119.135144
 20
13.209016
 30
0.00
  0
VERTEX
  8
078739-1ROU1_GBR
 10
119.162068
 20
12.956768
 30
0.00
  0
VERTEX
  8
078739-1ROU1_GBR
 10
119.207
 20
12.707696
 30
0.00
  0
VERTEX
  8
078739-1ROU1_GBR
 10
119.26979
 20
12.461926
 30
0.00
  0
VERTEX
  8
078739-1ROU1_GBR
 10
119.349774
 20
12.22149
 30
0.00
  0
VERTEX
  8
078739-1ROU1_GBR
 10
119.446828
 20
11.987504
 30
0.00
  0
VERTEX
  8
078739-1ROU1_GBR
 10
119.56034
 20
11.760708
 30
0.00
  0
VERTEX
  8
078739-1ROU1_GBR
 10
119.689626
 20
11.542802
 30
0.00
  0
VERTEX
  8
078739-1ROU1_GBR
 10
119.834178
 20
11.334724
 30
0.00
  0
VERTEX
  8
078739-1ROU1_GBR
 10
119.99313
 20
11.137418
 30
0.00
  0
VERTEX
  8
078739-1ROU1_GBR
 10
120.165622
 20
10.951972
 30
0.00
  0
VERTEX
  8
078739-1ROU1_GBR
 10
120.351296
 20
10.779252
 30
0.00
  0
VERTEX
  8
078739-1ROU1_GBR
 10
120.548654
 20
10.620248
 30
0.00
  0
VERTEX
  8
078739-1ROU1_GBR
 10
120.75668
 20
10.475722
 30
0.00
  0
VERTEX
  8
078739-1ROU1_GBR
 10
120.974612
 20
10.346436
 30
0.00
  0
VERTEX
  8
078739-1ROU1_GBR
 10
121.20118
 20
10.232898
 30
0.00
  0
VERTEX
  8
078739-1ROU1_GBR
 10
121.435368
 20
10.13587
 30
0.00
  0
VERTEX
  8
078739-1ROU1_GBR
 10
121.675906
 20
10.05586
 30
0.00
  0
VERTEX
  8
078739-1ROU1_GBR
 10
121.921244
 20
9.993376
 30
0.00
  0
VERTEX
  8
078739-1ROU1_GBR
 10
122.170698
 20
9.948164
 30
0.00
  0
VERTEX
  8
078739-1ROU1_GBR
 10
122.422692
 20
9.92124
 30
0.00
  0
VERTEX
  8
078739-1ROU1_GBR
 10
122.682
 20
9.911868
 30
0.00
  0
VERTEX
  8
078739-1ROU1_GBR
 10
122.68195
 20
3.046806
 30
0.00
  0
VERTEX
  8
078739-1ROU1_GBR
 10
122.671586
 20
2.796514
 30
0.00
  0
VERTEX
  8
078739-1ROU1_GBR
 10
122.639862
 20
2.543962
 30
0.00
  0
VERTEX
  8
078739-1ROU1_GBR
 10
122.588096
 20
2.297634
 30
0.00
  0
VERTEX
  8
078739-1ROU1_GBR
 10
122.515884
 20
2.055826
 30
0.00
  0
VERTEX
  8
078739-1ROU1_GBR
 10
122.42424
 20
1.821738
 30
0.00
  0
VERTEX
  8
078739-1ROU1_GBR
 10
122.313548
 20
1.595424
 30
0.00
  0
VERTEX
  8
078739-1ROU1_GBR
 10
122.184236
 20
1.378992
 30
0.00
  0
VERTEX
  8
078739-1ROU1_GBR
 10
122.037984
 20
1.17437
 30
0.00
  0
VERTEX
  8
078739-1ROU1_GBR
 10
121.874916
 20
0.982092
 30
0.00
  0
VERTEX
  8
078739-1ROU1_GBR
 10
121.696454
 20
0.804164
 30
0.00
  0
VERTEX
  8
078739-1ROU1_GBR
 10
121.50443
 20
0.641578
 30
0.00
  0
VERTEX
  8
078739-1ROU1_GBR
 10
121.298844
 20
0.49502
 30
0.00
  0
VERTEX
  8
078739-1ROU1_GBR
 10
121.082258
 20
0.366396
 30
0.00
  0
VERTEX
  8
078739-1ROU1_GBR
 10
120.855866
 20
0.255854
 30
0.00
  0
VERTEX
  8
078739-1ROU1_GBR
 10
120.623558
 20
0.165354
 30
0.00
  0
VERTEX
  8
078739-1ROU1_GBR
 10
120.380074
 20
0.093014
 30
0.00
  0
VERTEX
  8
078739-1ROU1_GBR
 10
120.133542
 20
0.041402
 30
0.00
  0
VERTEX
  8
078739-1ROU1_GBR
 10
119.883276
 20
0.010566
 30
0.00
  0
VERTEX
  8
078739-1ROU1_GBR
 10
119.632756
 20
0.00
 30
0.00
  0
VERTEX
  8
078739-1ROU1_GBR
 10
64.37498
 20
0.00005
 30
0.00
  0
VERTEX
  8
078739-1ROU1_GBR
 10
64.124206
 20
0.010592
 30
0.00
  0
VERTEX
  8
078739-1ROU1_GBR
 10
63.876682
 20
0.041402
 30
0.00
  0
VERTEX
  8
078739-1ROU1_GBR
 10
63.629006
 20
0.093574
 30
0.00
  0
VERTEX
  8
078739-1ROU1_GBR
 10
63.388544
 20
0.165456
 30
0.00
  0
VERTEX
  8
078739-1ROU1_GBR
 10
63.155094
 20
0.256744
 30
0.00
  0
VERTEX
  8
078739-1ROU1_GBR
 10
62.929846
 20
0.36703
 30
0.00
  0
VERTEX
  8
078739-1ROU1_GBR
 10
62.714428
 20
0.495504
 30
0.00
  0
VERTEX
  8
078739-1ROU1_GBR
 10
62.509958
 20
0.641756
 30
0.00
  0
VERTEX
  8
078739-1ROU1_GBR
 10
62.319002
 20
0.803808
 30
0.00
  0
VERTEX
  8
078739-1ROU1_GBR
 10
62.14176
 20
0.981304
 30
0.00
  0
VERTEX
  8
078739-1ROU1_GBR
 10
61.979582
 20
1.173276
 30
0.00
  0
VERTEX
  8
078739-1ROU1_GBR
 10
61.833786
 20
1.377646
 30
0.00
  0
VERTEX
  8
078739-1ROU1_GBR
 10
61.70577
 20
1.592834
 30
0.00
  0
VERTEX
  8
078739-1ROU1_GBR
 10
61.59561
 20
1.818436
 30
0.00
  0
VERTEX
  8
078739-1ROU1_GBR
 10
61.505338
 20
2.049754
 30
0.00
  0
VERTEX
  8
078739-1ROU1_GBR
 10
61.339604
 20
2.6083
 30
0.00
  0
VERTEX
  8
078739-1ROU1_GBR
 10
61.174884
 20
2.055596
 30
0.00
  0
VERTEX
  8
078739-1ROU1_GBR
 10
61.08319
 20
1.821408
 30
0.00
  0
VERTEX
  8
078739-1ROU1_GBR
 10
60.972674
 20
1.595424
 30
0.00
  0
VERTEX
  8
078739-1ROU1_GBR
 10
60.843566
 20
1.379194
 30
0.00
  0
VERTEX
  8
078739-1ROU1_GBR
 10
60.696882
 20
1.174014
 30
0.00
  0
VERTEX
  8
078739-1ROU1_GBR
 10
60.533992
 20
0.981914
 30
0.00
  0
VERTEX
  8
078739-1ROU1_GBR
 10
60.355556
 20
0.803986
 30
0.00
  0
VERTEX
  8
078739-1ROU1_GBR
 10
60.162668
 20
0.640792
 30
0.00
  0
VERTEX
  8
078739-1ROU1_GBR
 10
59.957894
 20
0.494818
 30
0.00
  0
VERTEX
  8
078739-1ROU1_GBR
 10
59.741944
 20
0.366472
 30
0.00
  0
VERTEX
  8
078739-1ROU1_GBR
 10
59.51728
 20
0.25654
 30
0.00
  0
VERTEX
  8
078739-1ROU1_GBR
 10
59.282558
 20
0.1651
 30
0.00
  0
VERTEX
  8
078739-1ROU1_GBR
 10
59.039074
 20
0.09276
 30
0.00
  0
VERTEX
  8
078739-1ROU1_GBR
 10
58.792668
 20
0.041148
 30
0.00
  0
VERTEX
  8
078739-1ROU1_GBR
 10
58.542072
 20
0.010058
 30
0.00
  0
VERTEX
  8
078739-1ROU1_GBR
 10
58.291858
 20
0.00
 30
0.00
  0
VERTEX
  8
078739-1ROU1_GBR
 10
3.046552
 20
0.00005
 30
0.00
  0
VERTEX
  8
078739-1ROU1_GBR
 10
2.794178
 20
0.010414
 30
0.00
  0
VERTEX
  8
078739-1ROU1_GBR
 10
2.543962
 20
0.04191
 30
0.00
  0
VERTEX
  8
078739-1ROU1_GBR
 10
2.297812
 20
0.093776
 30
0.00
  0
VERTEX
  8
078739-1ROU1_GBR
 10
2.05839
 20
0.1651
 30
0.00
  0
VERTEX
  8
078739-1ROU1_GBR
 10
1.82372
 20
0.25654
 30
0.00
  0
VERTEX
  8
078739-1ROU1_GBR
 10
1.595756
 20
0.368274
 30
0.00
  0
VERTEX
  8
078739-1ROU1_GBR
 10
1.37927
 20
0.497282
 30
0.00
  0
VERTEX
  8
078739-1ROU1_GBR
 10
1.175766
 20
0.64262
 30
0.00
  0
VERTEX
  8
078739-1ROU1_GBR
 10
0.982294
 20
0.806882
 30
0.00
  0
VERTEX
  8
078739-1ROU1_GBR
 10
0.804088
 20
0.985088
 30
0.00
  0
VERTEX
  8
078739-1ROU1_GBR
 10
0.641324
 20
1.177594
 30
0.00
  0
VERTEX
  8
078739-1ROU1_GBR
 10
0.495198
 20
1.382624
 30
0.00
  0
VERTEX
  8
078739-1ROU1_GBR
 10
0.366142
 20
1.599488
 30
0.00
  0
VERTEX
  8
078739-1ROU1_GBR
 10
0.255906
 20
1.825778
 30
0.00
  0
VERTEX
  8
078739-1ROU1_GBR
 10
0.164516
 20
2.060118
 30
0.00
  0
VERTEX
  8
078739-1ROU1_GBR
 10
0.092736
 20
2.302002
 30
0.00
  0
VERTEX
  8
078739-1ROU1_GBR
 10
0.041376
 20
2.548332
 30
0.00
  0
VERTEX
  8
078739-1ROU1_GBR
 10
0.010312
 20
2.798344
 30
0.00
  0
VERTEX
  8
078739-1ROU1_GBR
 10
0.00
 20
3.048864
 30
0.00
  0
VERTEX
  8
078739-1ROU1_GBR
 10
0.00
 20
9.778746
 30
0.00
  0
VERTEX
  8
078739-1ROU1_GBR
 10
0.253238
 20
9.78789
 30
0.00
  0
VERTEX
  8
078739-1ROU1_GBR
 10
0.50518
 20
9.815068
 30
0.00
  0
VERTEX
  8
078739-1ROU1_GBR
 10
0.75466
 20
9.860026
 30
0.00
  0
VERTEX
  8
078739-1ROU1_GBR
 10
1.000252
 20
9.922764
 30
0.00
  0
VERTEX
  8
078739-1ROU1_GBR
 10
1.240562
 20
10.002774
 30
0.00
  0
VERTEX
  8
078739-1ROU1_GBR
 10
1.474674
 20
10.099522
 30
0.00
  0
VERTEX
  8
078739-1ROU1_GBR
 10
1.701318
 20
10.213086
 30
0.00
  0
VERTEX
  8
078739-1ROU1_GBR
 10
1.919198
 20
10.342372
 30
0.00
  0
VERTEX
  8
078739-1ROU1_GBR
 10
2.127554
 20
10.486924
 30
0.00
  0
VERTEX
  8
078739-1ROU1_GBR
 10
2.324812
 20
10.645876
 30
0.00
  0
VERTEX
  8
078739-1ROU1_GBR
 10
2.510308
 20
10.818648
 30
0.00
  0
VERTEX
  8
078739-1ROU1_GBR
 10
2.683002
 20
11.004042
 30
0.00
  0
VERTEX
  8
078739-1ROU1_GBR
 10
2.842006
 20
11.2014
 30
0.00
  0
VERTEX
  8
078739-1ROU1_GBR
 10
2.986532
 20
11.40968
 30
0.00
  0
VERTEX
  8
078739-1ROU1_GBR
 10
3.115818
 20
11.627612
 30
0.00
  0
VERTEX
  8
078739-1ROU1_GBR
 10
3.229102
 20
11.85418
 30
0.00
  0
VERTEX
  8
078739-1ROU1_GBR
 10
3.32613
 20
12.088394
 30
0.00
  0
VERTEX
  8
078739-1ROU1_GBR
 10
3.406114
 20
12.328602
 30
0.00
  0
VERTEX
  8
078739-1ROU1_GBR
 10
3.468878
 20
12.57427
 30
0.00
  0
VERTEX
  8
078739-1ROU1_GBR
 10
3.513836
 20
12.823724
 30
0.00
  0
VERTEX
  8
078739-1ROU1_GBR
 10
3.541014
 20
13.075666
 30
0.00
  0
VERTEX
  8
078739-1ROU1_GBR
 10
3.549624
 20
13.32098
 30
0.00
  0
VERTEX
  8
078739-1ROU1_GBR
 10
3.556
 20
13.353592
 30
0.00
  0
VERTEX
  8
078739-1ROU1_GBR
 10
3.556
 20
54.737
 30
0.00
  0
VERTEX
  8
078739-1ROU1_GBR
 10
3.546856
 20
54.989984
 30
0.00
  0
VERTEX
  8
078739-1ROU1_GBR
 10
3.519932
 20
55.242232
 30
0.00
  0
VERTEX
  8
078739-1ROU1_GBR
 10
3.475
 20
55.491304
 30
0.00
  0
VERTEX
  8
078739-1ROU1_GBR
 10
3.41221
 20
55.737074
 30
0.00
  0
VERTEX
  8
078739-1ROU1_GBR
 10
3.332226
 20
55.97751
 30
0.00
  0
VERTEX
  8
078739-1ROU1_GBR
 10
3.235172
 20
56.211496
 30
0.00
  0
VERTEX
  8
078739-1ROU1_GBR
 10
3.12166
 20
56.438292
 30
0.00
  0
VERTEX
  8
078739-1ROU1_GBR
 10
2.992374
 20
56.656198
 30
0.00
  0
VERTEX
  8
078739-1ROU1_GBR
 10
2.847822
 20
56.864276
 30
0.00
  0
VERTEX
  8
078739-1ROU1_GBR
 10
2.68887
 20
57.061582
 30
0.00
  0
VERTEX
  8
078739-1ROU1_GBR
 10
2.516378
 20
57.247028
 30
0.00
  0
VERTEX
  8
078739-1ROU1_GBR
 10
2.330704
 20
57.419748
 30
0.00
  0
VERTEX
  8
078739-1ROU1_GBR
 10
2.133346
 20
57.578752
 30
0.00
  0
VERTEX
  8
078739-1ROU1_GBR
 10
1.92532
 20
57.723278
 30
0.00
  0
VERTEX
  8
078739-1ROU1_GBR
 10
1.707388
 20
57.852564
 30
0.00
  0
VERTEX
  8
078739-1ROU1_GBR
 10
1.48082
 20
57.966102
 30
0.00
  0
VERTEX
  8
078739-1ROU1_GBR
 10
1.246632
 20
58.06313
 30
0.00
  0
VERTEX
  8
078739-1ROU1_GBR
 10
1.006094
 20
58.14314
 30
0.00
  0
VERTEX
  8
078739-1ROU1_GBR
 10
0.760756
 20
58.205624
 30
0.00
  0
VERTEX
  8
078739-1ROU1_GBR
 10
0.511302
 20
58.250836
 30
0.00
  0
VERTEX
  8
078739-1ROU1_GBR
 10
0.259308
 20
58.27776
 30
0.00
  0
VERTEX
  8
078739-1ROU1_GBR
 10
0.00
 20
58.287132
 30
0.00
  0
VERTEX
  8
078739-1ROU1_GBR
 10
0.00005
 20
65.152194
 30
0.00
  0
VERTEX
  8
078739-1ROU1_GBR
 10
0.010414
 20
65.402486
 30
0.00
  0
VERTEX
  8
078739-1ROU1_GBR
 10
0.042138
 20
65.655038
 30
0.00
  0
VERTEX
  8
078739-1ROU1_GBR
 10
0.093904
 20
65.901366
 30
0.00
  0
VERTEX
  8
078739-1ROU1_GBR
 10
0.166116
 20
66.143174
 30
0.00
  0
VERTEX
  8
078739-1ROU1_GBR
 10
0.25776
 20
66.377262
 30
0.00
  0
VERTEX
  8
078739-1ROU1_GBR
 10
0.368452
 20
66.603576
 30
0.00
  0
VERTEX
  8
078739-1ROU1_GBR
 10
0.497764
 20
66.820008
 30
0.00
  0
VERTEX
  8
078739-1ROU1_GBR
 10
0.644018
 20
67.02463
 30
0.00
  0
VERTEX
  8
078739-1ROU1_GBR
 10
0.807084
 20
67.21691
 30
0.00
  0
VERTEX
  8
078739-1ROU1_GBR
 10
0.985546
 20
67.394836
 30
0.00
  0
VERTEX
  8
078739-1ROU1_GBR
 10
1.17757
 20
67.557422
 30
0.00
  0
VERTEX
  8
078739-1ROU1_GBR
 10
1.383158
 20
67.70398
 30
0.00
  0
VERTEX
  8
078739-1ROU1_GBR
 10
1.599742
 20
67.832606
 30
0.00
  0
VERTEX
  8
078739-1ROU1_GBR
 10
1.826134
 20
67.943146
 30
0.00
  0
VERTEX
  8
078739-1ROU1_GBR
 10
2.058442
 20
68.033646
 30
0.00
  0
VERTEX
  8
078739-1ROU1_GBR
 10
2.61305
 20
68.198874
 30
0.00
  0
VERTEX
  8
078739-1ROU1_GBR
 10
2.058416
 20
68.3641
 30
0.00
  0
VERTEX
  8
078739-1ROU1_GBR
 10
1.82372
 20
68.45554
 30
0.00
  0
VERTEX
  8
078739-1ROU1_GBR
 10
1.595756
 20
68.567274
 30
0.00
  0
VERTEX
  8
078739-1ROU1_GBR
 10
1.37927
 20
68.696282
 30
0.00
  0
VERTEX
  8
078739-1ROU1_GBR
 10
1.175766
 20
68.84162
 30
0.00
  0
VERTEX
  8
078739-1ROU1_GBR
 10
0.982294
 20
69.005882
 30
0.00
  0
VERTEX
  8
078739-1ROU1_GBR
 10
0.804088
 20
69.184088
 30
0.00
  0
VERTEX
  8
078739-1ROU1_GBR
 10
0.641324
 20
69.376594
 30
0.00
  0
VERTEX
  8
078739-1ROU1_GBR
 10
0.495198
 20
69.581624
 30
0.00
  0
VERTEX
  8
078739-1ROU1_GBR
 10
0.366142
 20
69.798488
 30
0.00
  0
VERTEX
  8
078739-1ROU1_GBR
 10
0.255906
 20
70.024778
 30
0.00
  0
VERTEX
  8
078739-1ROU1_GBR
 10
0.164516
 20
70.259118
 30
0.00
  0
VERTEX
  8
078739-1ROU1_GBR
 10
0.092736
 20
70.501002
 30
0.00
  0
VERTEX
  8
078739-1ROU1_GBR
 10
0.041376
 20
70.747332
 30
0.00
  0
VERTEX
  8
078739-1ROU1_GBR
 10
0.010312
 20
70.997344
 30
0.00
  0
VERTEX
  8
078739-1ROU1_GBR
 10
0.00
 20
71.247864
 30
0.00
  0
VERTEX
  8
078739-1ROU1_GBR
 10
0.00
 20
77.977746
 30
0.00
  0
VERTEX
  8
078739-1ROU1_GBR
 10
0.253238
 20
77.98689
 30
0.00
  0
VERTEX
  8
078739-1ROU1_GBR
 10
0.50518
 20
78.014068
 30
0.00
  0
VERTEX
  8
078739-1ROU1_GBR
 10
0.75466
 20
78.059026
 30
0.00
  0
VERTEX
  8
078739-1ROU1_GBR
 10
1.000252
 20
78.121764
 30
0.00
  0
VERTEX
  8
078739-1ROU1_GBR
 10
1.240562
 20
78.201774
 30
0.00
  0
VERTEX
  8
078739-1ROU1_GBR
 10
1.474674
 20
78.298522
 30
0.00
  0
VERTEX
  8
078739-1ROU1_GBR
 10
1.701318
 20
78.412086
 30
0.00
  0
VERTEX
  8
078739-1ROU1_GBR
 10
1.919198
 20
78.541372
 30
0.00
  0
VERTEX
  8
078739-1ROU1_GBR
 10
2.127554
 20
78.685924
 30
0.00
  0
VERTEX
  8
078739-1ROU1_GBR
 10
2.324812
 20
78.844876
 30
0.00
  0
VERTEX
  8
078739-1ROU1_GBR
 10
2.510308
 20
79.017648
 30
0.00
  0
VERTEX
  8
078739-1ROU1_GBR
 10
2.683002
 20
79.203042
 30
0.00
  0
VERTEX
  8
078739-1ROU1_GBR
 10
2.842006
 20
79.4004
 30
0.00
  0
VERTEX
  8
078739-1ROU1_GBR
 10
2.986532
 20
79.60868
 30
0.00
  0
VERTEX
  8
078739-1ROU1_GBR
 10
3.115818
 20
79.826612
 30
0.00
  0
VERTEX
  8
078739-1ROU1_GBR
 10
3.229102
 20
80.05318
 30
0.00
  0
VERTEX
  8
078739-1ROU1_GBR
 10
3.32613
 20
80.287394
 30
0.00
  0
VERTEX
  8
078739-1ROU1_GBR
 10
3.406114
 20
80.527602
 30
0.00
  0
VERTEX
  8
078739-1ROU1_GBR
 10
3.468878
 20
80.77327
 30
0.00
  0
VERTEX
  8
078739-1ROU1_GBR
 10
3.513836
 20
81.022724
 30
0.00
  0
VERTEX
  8
078739-1ROU1_GBR
 10
3.541014
 20
81.274666
 30
0.00
  0
VERTEX
  8
078739-1ROU1_GBR
 10
3.549624
 20
81.51998
 30
0.00
  0
VERTEX
  8
078739-1ROU1_GBR
 10
3.556
 20
81.552592
 30
0.00
  0
VERTEX
  8
078739-1ROU1_GBR
 10
3.556
 20
122.936
 30
0.00
  0
VERTEX
  8
078739-1ROU1_GBR
 10
3.546856
 20
123.188984
 30
0.00
  0
VERTEX
  8
078739-1ROU1_GBR
 10
3.519932
 20
123.441232
 30
0.00
  0
VERTEX
  8
078739-1ROU1_GBR
 10
3.475
 20
123.690304
 30
0.00
  0
VERTEX
  8
078739-1ROU1_GBR
 10
3.41221
 20
123.936074
 30
0.00
  0
VERTEX
  8
078739-1ROU1_GBR
 10
3.332226
 20
124.17651
 30
0.00
  0
VERTEX
  8
078739-1ROU1_GBR
 10
3.235172
 20
124.410496
 30
0.00
  0
VERTEX
  8
078739-1ROU1_GBR
 10
3.12166
 20
124.637292
 30
0.00
  0
VERTEX
  8
078739-1ROU1_GBR
 10
2.992374
 20
124.855198
 30
0.00
  0
VERTEX
  8
078739-1ROU1_GBR
 10
2.847822
 20
125.063276
 30
0.00
  0
VERTEX
  8
078739-1ROU1_GBR
 10
2.68887
 20
125.260582
 30
0.00
  0
VERTEX
  8
078739-1ROU1_GBR
 10
2.516378
 20
125.446028
 30
0.00
  0
VERTEX
  8
078739-1ROU1_GBR
 10
2.330704
 20
125.618748
 30
0.00
  0
VERTEX
  8
078739-1ROU1_GBR
 10
2.133346
 20
125.777752
 30
0.00
  0
VERTEX
  8
078739-1ROU1_GBR
 10
1.92532
 20
125.922278
 30
0.00
  0
VERTEX
  8
078739-1ROU1_GBR
 10
1.707388
 20
126.051564
 30
0.00
  0
VERTEX
  8
078739-1ROU1_GBR
 10
1.48082
 20
126.165102
 30
0.00
  0
VERTEX
  8
078739-1ROU1_GBR
 10
1.246632
 20
126.26213
 30
0.00
  0
VERTEX
  8
078739-1ROU1_GBR
 10
1.006094
 20
126.34214
 30
0.00
  0
VERTEX
  8
078739-1ROU1_GBR
 10
0.760756
 20
126.404624
 30
0.00
  0
VERTEX
  8
078739-1ROU1_GBR
 10
0.511302
 20
126.449836
 30
0.00
  0
VERTEX
  8
078739-1ROU1_GBR
 10
0.259308
 20
126.47676
 30
0.00
  0
VERTEX
  8
078739-1ROU1_GBR
 10
0.00
 20
126.486132
 30
0.00
  0
VERTEX
  8
078739-1ROU1_GBR
 10
0.00005
 20
133.351194
 30
0.00
  0
VERTEX
  8
078739-1ROU1_GBR
 10
0.010414
 20
133.601486
 30
0.00
  0
VERTEX
  8
078739-1ROU1_GBR
 10
0.042138
 20
133.854038
 30
0.00
  0
VERTEX
  8
078739-1ROU1_GBR
 10
0.093904
 20
134.100366
 30
0.00
  0
VERTEX
  8
078739-1ROU1_GBR
 10
0.166116
 20
134.342174
 30
0.00
  0
VERTEX
  8
078739-1ROU1_GBR
 10
0.25776
 20
134.576262
 30
0.00
  0
VERTEX
  8
078739-1ROU1_GBR
 10
0.368452
 20
134.802576
 30
0.00
  0
VERTEX
  8
078739-1ROU1_GBR
 10
0.497764
 20
135.019008
 30
0.00
  0
VERTEX
  8
078739-1ROU1_GBR
 10
0.644018
 20
135.223632
 30
0.00
  0
VERTEX
  8
078739-1ROU1_GBR
 10
0.807084
 20
135.41591
 30
0.00
  0
VERTEX
  8
078739-1ROU1_GBR
 10
0.985546
 20
135.593836
 30
0.00
  0
VERTEX
  8
078739-1ROU1_GBR
 10
1.17757
 20
135.756422
 30
0.00
  0
VERTEX
  8
078739-1ROU1_GBR
 10
1.383158
 20
135.90298
 30
0.00
  0
VERTEX
  8
078739-1ROU1_GBR
 10
1.599742
 20
136.031606
 30
0.00
  0
VERTEX
  8
078739-1ROU1_GBR
 10
1.826134
 20
136.142146
 30
0.00
  0
VERTEX
  8
078739-1ROU1_GBR
 10
2.058442
 20
136.232646
 30
0.00
  0
VERTEX
  8
078739-1ROU1_GBR
 10
2.301926
 20
136.304986
 30
0.00
  0
VERTEX
  8
078739-1ROU1_GBR
 10
2.548458
 20
136.356598
 30
0.00
  0
VERTEX
  8
078739-1ROU1_GBR
 10
2.798724
 20
136.387434
 30
0.00
  0
VERTEX
  8
078739-1ROU1_GBR
 10
3.049244
 20
136.398
 30
0.00
  0
VERTEX
  8
078739-1ROU1_GBR
 10
58.30702
 20
136.39795
 30
0.00
  0
SEQEND
  0
ENDSEC
  0
EOF
