  0
SECTION
  2
HEADER
  9
$EXTMIN
 10
-258.359834
 20
-58.010602
 30
0.00
  9
$EXTMAX
 10
470.00
 20
419.20
 30
0.00
  0
ENDSEC
  0
SECTION
  2
TABLES
  0
TABLE
  2
LTYPE
 70
3
  0
LTYPE
  2
BYBLOCK
 70
0
  3

 72
65
 73
0
 40
0.00
  0
LTYPE
  2
BYLAYER
 70
0
  3

 72
65
 73
0
 40
0.00
  0
LTYPE
  2
CONTINUOUS
 70
0
  3
Solid line
 72
65
 73
0
 40
0.00
  0
ENDTAB
  0
TABLE
  2
LAYER
 70
99
  0
LAYER
  2
0
 70
0
 62
7
  6
CONTINUOUS
  0
LAYER
  2
020671-1ROU1_GBR
 70
0
 62
7
  6
CONTINUOUS
  0
LAYER
  2
027417-3ROU1_GBR
 70
0
 62
7
  6
CONTINUOUS
  0
LAYER
  2
027419-1ROU1_GBR
 70
0
 62
2
  6
CONTINUOUS
  0
LAYER
  2
027419-2ROU1_GBR
 70
0
 62
6
  6
CONTINUOUS
  0
LAYER
  2
027674-1ROU1_GBR
 70
0
 62
1
  6
CONTINUOUS
  0
LAYER
  2
027676-1ROU1_GBR
 70
0
 62
4
  6
CONTINUOUS
  0
LAYER
  2
027678-3ROU1_GBR
 70
0
 62
3
  6
CONTINUOUS
  0
LAYER
  2
028122-1ROU1_GBR
 70
0
 62
5
  6
CONTINUOUS
  0
LAYER
  2
028124-5ROU1_GBR
 70
0
 62
10
  6
CONTINUOUS
  0
LAYER
  2
028126-1ROU1_GBR
 70
0
 62
14
  6
CONTINUOUS
  0
LAYER
  2
028126-3ROU1_GBR
 70
0
 62
9
  6
CONTINUOUS
  0
LAYER
  2
028126-6ROU1_GBR
 70
0
 62
12
  6
CONTINUOUS
  0
LAYER
  2
028126-7ROU1_GBR
 70
0
 62
11
  6
CONTINUOUS
  0
LAYER
  2
028129-1ROU1_GBR
 70
0
 62
13
  6
CONTINUOUS
  0
LAYER
  2
028130-1ROU1_GBR
 70
0
 62
8
  6
CONTINUOUS
  0
LAYER
  2
028130-4ROU1_GBR
 70
0
 62
15
  6
CONTINUOUS
  0
LAYER
  2
028130-5ROU1_GBR
 70
0
 62
7
  6
CONTINUOUS
  0
LAYER
  2
028130-7ROU1_GBR
 70
0
 62
7
  6
CONTINUOUS
  0
LAYER
  2
028655-1ROU1_GBR
 70
0
 62
2
  6
CONTINUOUS
  0
LAYER
  2
028657-1ROU1_GBR
 70
0
 62
6
  6
CONTINUOUS
  0
LAYER
  2
028659-2ROU1_GBR
 70
0
 62
1
  6
CONTINUOUS
  0
LAYER
  2
028659-4ROU1_GBR
 70
0
 62
4
  6
CONTINUOUS
  0
LAYER
  2
028661-1ROU1_GBR
 70
0
 62
3
  6
CONTINUOUS
  0
LAYER
  2
028663-1ROU1_GBR
 70
0
 62
5
  6
CONTINUOUS
  0
LAYER
  2
028665-1ROU1_GBR
 70
0
 62
10
  6
CONTINUOUS
  0
LAYER
  2
028669-1ROU1_GBR
 70
0
 62
14
  6
CONTINUOUS
  0
LAYER
  2
028673-2ROU1_GBR
 70
0
 62
9
  6
CONTINUOUS
  0
LAYER
  2
037088-3ROU1_GBR
 70
0
 62
12
  6
CONTINUOUS
  0
LAYER
  2
037682-1ROU1_GBR
 70
0
 62
11
  6
CONTINUOUS
  0
LAYER
  2
037686-1ROU1_GBR
 70
0
 62
13
  6
CONTINUOUS
  0
LAYER
  2
037688-1ROU1_GBR
 70
0
 62
8
  6
CONTINUOUS
  0
LAYER
  2
038681-1ROU1_GBR
 70
0
 62
15
  6
CONTINUOUS
  0
LAYER
  2
038683-1ROU1_GBR
 70
0
 62
7
  6
CONTINUOUS
  0
LAYER
  2
038683-2ROU1_GBR
 70
0
 62
7
  6
CONTINUOUS
  0
LAYER
  2
038685-1ROU1_GBR
 70
0
 62
2
  6
CONTINUOUS
  0
LAYER
  2
038689-1ROU1_GBR
 70
0
 62
6
  6
CONTINUOUS
  0
LAYER
  2
038689-2ROU1_GBR
 70
0
 62
1
  6
CONTINUOUS
  0
LAYER
  2
038691-1ROU1_GBR
 70
0
 62
4
  6
CONTINUOUS
  0
LAYER
  2
038691-2ROU1_GBR
 70
0
 62
3
  6
CONTINUOUS
  0
LAYER
  2
038691-3ROU1_GBR
 70
0
 62
5
  6
CONTINUOUS
  0
LAYER
  2
038691-4ROU1_GBR
 70
0
 62
10
  6
CONTINUOUS
  0
LAYER
  2
038693-1ROU1_GBR
 70
0
 62
14
  6
CONTINUOUS
  0
LAYER
  2
038695-1ROU1_GBR
 70
0
 62
9
  6
CONTINUOUS
  0
LAYER
  2
038697-1ROU1_GBR
 70
0
 62
12
  6
CONTINUOUS
  0
LAYER
  2
038697-3ROU1_GBR
 70
0
 62
11
  6
CONTINUOUS
  0
LAYER
  2
038697-4ROU1_GBR
 70
0
 62
13
  6
CONTINUOUS
  0
LAYER
  2
038697-5ROU1_GBR
 70
0
 62
8
  6
CONTINUOUS
  0
LAYER
  2
047706-4ROU1_GBR
 70
0
 62
15
  6
CONTINUOUS
  0
LAYER
  2
047706-5ROU1_GBR
 70
0
 62
7
  6
CONTINUOUS
  0
LAYER
  2
047706-6ROU1_GBR
 70
0
 62
7
  6
CONTINUOUS
  0
LAYER
  2
047708-1ROU1_GBR
 70
0
 62
2
  6
CONTINUOUS
  0
LAYER
  2
047710-1ROU1_GBR
 70
0
 62
6
  6
CONTINUOUS
  0
LAYER
  2
047712-1ROU1_GBR
 70
0
 62
1
  6
CONTINUOUS
  0
LAYER
  2
047714-2ROU1_GBR
 70
0
 62
4
  6
CONTINUOUS
  0
LAYER
  2
048701-1ROU1_GBR
 70
0
 62
3
  6
CONTINUOUS
  0
LAYER
  2
048703-1ROU1_GBR
 70
0
 62
10
  6
CONTINUOUS
  0
LAYER
  2
048711-1ROU1_GBR
 70
0
 62
14
  6
CONTINUOUS
  0
LAYER
  2
048715-1ROU1_GBR
 70
0
 62
9
  6
CONTINUOUS
  0
LAYER
  2
058721-2ROU1_GBR
 70
0
 62
12
  6
CONTINUOUS
  0
LAYER
  2
058723-10ROU1_GBR
 70
0
 62
11
  6
CONTINUOUS
  0
LAYER
  2
058723-1ROU1_GBR
 70
0
 62
13
  6
CONTINUOUS
  0
LAYER
  2
058723-6ROU1_GBR
 70
0
 62
8
  6
CONTINUOUS
  0
LAYER
  2
058723-9ROU1_GBR
 70
0
 62
15
  6
CONTINUOUS
  0
LAYER
  2
067601-1ROU1_GBR
 70
0
 62
7
  6
CONTINUOUS
  0
LAYER
  2
068162-1ROU1_GBR
 70
0
 62
7
  6
CONTINUOUS
  0
LAYER
  2
068162-3ROU1_GBR
 70
0
 62
2
  6
CONTINUOUS
  0
LAYER
  2
068162-4ROU1_GBR
 70
0
 62
6
  6
CONTINUOUS
  0
LAYER
  2
077742-1ROU1_GBR
 70
0
 62
1
  6
CONTINUOUS
  0
LAYER
  2
078731-1ROU1_GBR
 70
0
 62
4
  6
CONTINUOUS
  0
LAYER
  2
078735-3ROU1_GBR
 70
0
 62
3
  6
CONTINUOUS
  0
LAYER
  2
078739-1ROU1_GBR
 70
0
 62
5
  6
CONTINUOUS
  0
LAYER
  2
078753-1ROU1_GBR
 70
0
 62
10
  6
CONTINUOUS
  0
LAYER
  2
078757-1ROU1_GBR
 70
0
 62
14
  6
CONTINUOUS
  0
LAYER
  2
087768-2ROU1_GBR
 70
0
 62
9
  6
CONTINUOUS
  0
LAYER
  2
087772-1ROU1_GBR
 70
0
 62
12
  6
CONTINUOUS
  0
LAYER
  2
087780-1ROU1_GBR
 70
0
 62
11
  6
CONTINUOUS
  0
LAYER
  2
087782-9ROU1_GBR
 70
0
 62
13
  6
CONTINUOUS
  0
LAYER
  2
088783-4ROU1_GBR
 70
0
 62
8
  6
CONTINUOUS
  0
LAYER
  2
088785-1ROU1_GBR
 70
0
 62
15
  6
CONTINUOUS
  0
LAYER
  2
097800-6ROU1_GBR
 70
0
 62
7
  6
CONTINUOUS
  0
LAYER
  2
097810-1ROU1_GBR
 70
0
 62
7
  6
CONTINUOUS
  0
LAYER
  2
098787-1ROU1_GBR
 70
0
 62
2
  6
CONTINUOUS
  0
LAYER
  2
098787-2ROU1_GBR
 70
0
 62
6
  6
CONTINUOUS
  0
LAYER
  2
098789-1ROU1_GBR
 70
0
 62
1
  6
CONTINUOUS
  0
LAYER
  2
098811-1ROU1_GBR
 70
0
 62
4
  6
CONTINUOUS
  0
LAYER
  2
098815-1ROU1_GBR
 70
0
 62
3
  6
CONTINUOUS
  0
LAYER
  2
098815-2ROU1_GBR
 70
0
 62
5
  6
CONTINUOUS
  0
LAYER
  2
107824-1ROU1_GBR
 70
0
 62
10
  6
CONTINUOUS
  0
LAYER
  2
118200-1ROU1_GBR
 70
0
 62
14
  6
CONTINUOUS
  0
LAYER
  2
257017-1ROU1_GBR
 70
0
 62
9
  6
CONTINUOUS
  0
LAYER
  2
268076-7ROU1_GBR
 70
0
 62
12
  6
CONTINUOUS
  0
LAYER
  2
288088-1ROU1_GBR
 70
0
 62
11
  6
CONTINUOUS
  0
LAYER
  2
307251-1ROU1_GBR
 70
0
 62
13
  6
CONTINUOUS
  0
LAYER
  2
307273-4ROU1_GBR
 70
0
 62
8
  6
CONTINUOUS
  0
LAYER
  2
307283-1ROU1_GBR
 70
0
 62
15
  6
CONTINUOUS
  0
LAYER
  2
307291-1ROU1_GBR
 70
0
 62
7
  6
CONTINUOUS
  0
LAYER
  2
308108-1ROU1_GBR
 70
0
 62
7
  6
CONTINUOUS
  0
LAYER
  2
308111-1ROU1_GBR
 70
0
 62
2
  6
CONTINUOUS
  0
LAYER
  2
308112-1ROU1_GBR
 70
0
 62
6
  6
CONTINUOUS
  0
ENDTAB
  0
TABLE
  2
STYLE
 70
0
  0
ENDTAB
  0
ENDSEC
  0
SECTION
  2
BLOCKS
  0
BLOCK
  2
ROUND_1
  3
ROUND_1
 70
64
 10
0.00
 20
0.00
 30
0.00
  0
CIRCLE
  8
0
 10
0.00
 20
0.00
 30
0.00
 40
0.10
  0
ENDBLK
  0
ENDSEC
  0
SECTION
  2
ENTITIES
  0
POLYLINE
  8
087768-2ROU1_GBR
 66
1
 10
0.00
 20
0.00
 30
0.00
 40
0.20
 41
0.20
  0
VERTEX
  8
087768-2ROU1_GBR
 10
91.331822
 20
283.312006
 30
0.00
  0
VERTEX
  8
087768-2ROU1_GBR
 10
308.636696
 20
283.235552
 30
0.00
  0
VERTEX
  8
087768-2ROU1_GBR
 10
308.636696
 20
272.03875
 30
0.00
  0
VERTEX
  8
087768-2ROU1_GBR
 10
308.54076
 20
272.032604
 30
0.00
  0
SEQEND
  0
POLYLINE
  8
087768-2ROU1_GBR
 66
1
 10
0.00
 20
0.00
 30
0.00
 40
0.20
 41
0.20
  0
VERTEX
  8
087768-2ROU1_GBR
 10
308.54076
 20
272.032604
 30
0.00
 42
0.3847608
  0
VERTEX
  8
087768-2ROU1_GBR
 10
307.13759
 20
270.59204
 30
0.00
 42
0.00
  0
SEQEND
  0
POLYLINE
  8
087768-2ROU1_GBR
 66
1
 10
0.00
 20
0.00
 30
0.00
 40
0.20
 41
0.20
  0
VERTEX
  8
087768-2ROU1_GBR
 10
307.137588
 20
270.592042
 30
0.00
  0
VERTEX
  8
087768-2ROU1_GBR
 10
307.168092
 20
270.518636
 30
0.00
  0
SEQEND
  0
POLYLINE
  8
087768-2ROU1_GBR
 66
1
 10
0.00
 20
0.00
 30
0.00
 40
0.20
 41
0.20
  0
VERTEX
  8
087768-2ROU1_GBR
 10
307.168092
 20
270.518636
 30
0.00
 42
0.391697
  0
VERTEX
  8
087768-2ROU1_GBR
 10
308.572256
 20
269.041804
 30
0.00
 42
0.00
  0
SEQEND
  0
POLYLINE
  8
087768-2ROU1_GBR
 66
1
 10
0.00
 20
0.00
 30
0.00
 40
0.20
 41
0.20
  0
VERTEX
  8
087768-2ROU1_GBR
 10
308.572256
 20
269.041804
 30
0.00
  0
VERTEX
  8
087768-2ROU1_GBR
 10
308.668192
 20
269.035658
 30
0.00
  0
VERTEX
  8
087768-2ROU1_GBR
 10
308.668192
 20
242.88943
 30
0.00
  0
SEQEND
  0
POLYLINE
  8
087768-2ROU1_GBR
 66
1
 10
0.00
 20
0.00
 30
0.00
 40
0.20
 41
0.20
  0
VERTEX
  8
087768-2ROU1_GBR
 10
308.668192
 20
242.88943
 30
0.00
 42
0.3902851
  0
VERTEX
  8
087768-2ROU1_GBR
 10
309.717136
 20
241.750316
 30
0.00
 42
0.00
  0
SEQEND
  0
POLYLINE
  8
087768-2ROU1_GBR
 66
1
 10
0.00
 20
0.00
 30
0.00
 40
0.20
 41
0.20
  0
VERTEX
  8
087768-2ROU1_GBR
 10
309.717136
 20
241.750316
 30
0.00
  0
VERTEX
  8
087768-2ROU1_GBR
 10
309.811192
 20
241.742544
 30
0.00
  0
VERTEX
  8
087768-2ROU1_GBR
 10
309.811192
 20
228.796316
 30
0.00
  0
VERTEX
  8
087768-2ROU1_GBR
 10
309.717136
 20
228.788544
 30
0.00
  0
SEQEND
  0
POLYLINE
  8
087768-2ROU1_GBR
 66
1
 10
0.00
 20
0.00
 30
0.00
 40
0.20
 41
0.20
  0
VERTEX
  8
087768-2ROU1_GBR
 10
309.717136
 20
228.788544
 30
0.00
 42
0.3902851
  0
VERTEX
  8
087768-2ROU1_GBR
 10
308.668192
 20
227.64943
 30
0.00
 42
0.00
  0
SEQEND
  0
POLYLINE
  8
087768-2ROU1_GBR
 66
1
 10
0.00
 20
0.00
 30
0.00
 40
0.20
 41
0.20
  0
VERTEX
  8
087768-2ROU1_GBR
 10
308.668192
 20
227.64943
 30
0.00
  0
VERTEX
  8
087768-2ROU1_GBR
 10
308.668192
 20
201.503204
 30
0.00
  0
VERTEX
  8
087768-2ROU1_GBR
 10
308.572256
 20
201.497058
 30
0.00
  0
SEQEND
  0
POLYLINE
  8
087768-2ROU1_GBR
 66
1
 10
0.00
 20
0.00
 30
0.00
 40
0.20
 41
0.20
  0
VERTEX
  8
087768-2ROU1_GBR
 10
308.572256
 20
201.497058
 30
0.00
 42
0.9379679
  0
VERTEX
  8
087768-2ROU1_GBR
 10
308.572256
 20
198.502956
 30
0.00
 42
0.00
  0
SEQEND
  0
POLYLINE
  8
087768-2ROU1_GBR
 66
1
 10
0.00
 20
0.00
 30
0.00
 40
0.20
 41
0.20
  0
VERTEX
  8
087768-2ROU1_GBR
 10
308.572256
 20
198.502956
 30
0.00
  0
VERTEX
  8
087768-2ROU1_GBR
 10
308.668192
 20
198.49681
 30
0.00
  0
VERTEX
  8
087768-2ROU1_GBR
 10
308.668192
 20
172.350582
 30
0.00
  0
SEQEND
  0
POLYLINE
  8
087768-2ROU1_GBR
 66
1
 10
0.00
 20
0.00
 30
0.00
 40
0.20
 41
0.20
  0
VERTEX
  8
087768-2ROU1_GBR
 10
308.668192
 20
172.350582
 30
0.00
 42
0.3902851
  0
VERTEX
  8
087768-2ROU1_GBR
 10
309.717136
 20
171.211468
 30
0.00
 42
0.00
  0
SEQEND
  0
POLYLINE
  8
087768-2ROU1_GBR
 66
1
 10
0.00
 20
0.00
 30
0.00
 40
0.20
 41
0.20
  0
VERTEX
  8
087768-2ROU1_GBR
 10
309.717136
 20
171.211468
 30
0.00
  0
VERTEX
  8
087768-2ROU1_GBR
 10
309.811192
 20
171.203696
 30
0.00
  0
VERTEX
  8
087768-2ROU1_GBR
 10
309.811192
 20
158.257468
 30
0.00
  0
VERTEX
  8
087768-2ROU1_GBR
 10
309.717136
 20
158.249696
 30
0.00
  0
SEQEND
  0
POLYLINE
  8
087768-2ROU1_GBR
 66
1
 10
0.00
 20
0.00
 30
0.00
 40
0.20
 41
0.20
  0
VERTEX
  8
087768-2ROU1_GBR
 10
309.717136
 20
158.249696
 30
0.00
 42
0.3902851
  0
VERTEX
  8
087768-2ROU1_GBR
 10
308.668192
 20
157.110582
 30
0.00
 42
0.00
  0
SEQEND
  0
POLYLINE
  8
087768-2ROU1_GBR
 66
1
 10
0.00
 20
0.00
 30
0.00
 40
0.20
 41
0.20
  0
VERTEX
  8
087768-2ROU1_GBR
 10
308.668192
 20
157.110582
 30
0.00
  0
VERTEX
  8
087768-2ROU1_GBR
 10
308.668192
 20
130.964356
 30
0.00
  0
VERTEX
  8
087768-2ROU1_GBR
 10
308.572256
 20
130.95821
 30
0.00
  0
SEQEND
  0
POLYLINE
  8
087768-2ROU1_GBR
 66
1
 10
0.00
 20
0.00
 30
0.00
 40
0.20
 41
0.20
  0
VERTEX
  8
087768-2ROU1_GBR
 10
308.572256
 20
130.95821
 30
0.00
 42
0.391677
  0
VERTEX
  8
087768-2ROU1_GBR
 10
307.168092
 20
129.481478
 30
0.00
 42
0.00
  0
SEQEND
  0
POLYLINE
  8
087768-2ROU1_GBR
 66
1
 10
0.00
 20
0.00
 30
0.00
 40
0.20
 41
0.20
  0
VERTEX
  8
087768-2ROU1_GBR
 10
307.168092
 20
129.481478
 30
0.00
  0
VERTEX
  8
087768-2ROU1_GBR
 10
307.137358
 20
129.407894
 30
0.00
  0
SEQEND
  0
POLYLINE
  8
087768-2ROU1_GBR
 66
1
 10
0.00
 20
0.00
 30
0.00
 40
0.20
 41
0.20
  0
VERTEX
  8
087768-2ROU1_GBR
 10
307.137358
 20
129.407894
 30
0.00
 42
0.3852634
  0
VERTEX
  8
087768-2ROU1_GBR
 10
308.540506
 20
127.964388
 30
0.00
 42
0.00
  0
SEQEND
  0
POLYLINE
  8
087768-2ROU1_GBR
 66
1
 10
0.00
 20
0.00
 30
0.00
 40
0.20
 41
0.20
  0
VERTEX
  8
087768-2ROU1_GBR
 10
308.540506
 20
127.964388
 30
0.00
  0
VERTEX
  8
087768-2ROU1_GBR
 10
308.636442
 20
127.958216
 30
0.00
  0
VERTEX
  8
087768-2ROU1_GBR
 10
308.636442
 20
116.761412
 30
0.00
  0
VERTEX
  8
087768-2ROU1_GBR
 10
91.331822
 20
116.761666
 30
0.00
  0
VERTEX
  8
087768-2ROU1_GBR
 10
91.331822
 20
127.958216
 30
0.00
  0
VERTEX
  8
087768-2ROU1_GBR
 10
91.427782
 20
127.964336
 30
0.00
  0
SEQEND
  0
POLYLINE
  8
087768-2ROU1_GBR
 66
1
 10
0.00
 20
0.00
 30
0.00
 40
0.20
 41
0.20
  0
VERTEX
  8
087768-2ROU1_GBR
 10
91.427782
 20
127.964336
 30
0.00
 42
0.9381077
  0
VERTEX
  8
087768-2ROU1_GBR
 10
91.427782
 20
130.958234
 30
0.00
 42
0.00
  0
SEQEND
  0
POLYLINE
  8
087768-2ROU1_GBR
 66
1
 10
0.00
 20
0.00
 30
0.00
 40
0.20
 41
0.20
  0
VERTEX
  8
087768-2ROU1_GBR
 10
91.427782
 20
130.958234
 30
0.00
  0
VERTEX
  8
087768-2ROU1_GBR
 10
91.331822
 20
130.964356
 30
0.00
  0
VERTEX
  8
087768-2ROU1_GBR
 10
91.331822
 20
157.110582
 30
0.00
  0
SEQEND
  0
POLYLINE
  8
087768-2ROU1_GBR
 66
1
 10
0.00
 20
0.00
 30
0.00
 40
0.20
 41
0.20
  0
VERTEX
  8
087768-2ROU1_GBR
 10
91.331822
 20
157.110582
 30
0.00
 42
0.3902851
  0
VERTEX
  8
087768-2ROU1_GBR
 10
90.282878
 20
158.249696
 30
0.00
 42
0.00
  0
SEQEND
  0
POLYLINE
  8
087768-2ROU1_GBR
 66
1
 10
0.00
 20
0.00
 30
0.00
 40
0.20
 41
0.20
  0
VERTEX
  8
087768-2ROU1_GBR
 10
90.282878
 20
158.249696
 30
0.00
  0
VERTEX
  8
087768-2ROU1_GBR
 10
90.188822
 20
158.257468
 30
0.00
  0
VERTEX
  8
087768-2ROU1_GBR
 10
90.188822
 20
171.203696
 30
0.00
  0
VERTEX
  8
087768-2ROU1_GBR
 10
90.282878
 20
171.211468
 30
0.00
  0
SEQEND
  0
POLYLINE
  8
087768-2ROU1_GBR
 66
1
 10
0.00
 20
0.00
 30
0.00
 40
0.20
 41
0.20
  0
VERTEX
  8
087768-2ROU1_GBR
 10
90.282878
 20
171.211468
 30
0.00
 42
0.3902851
  0
VERTEX
  8
087768-2ROU1_GBR
 10
91.331822
 20
172.350582
 30
0.00
 42
0.00
  0
SEQEND
  0
POLYLINE
  8
087768-2ROU1_GBR
 66
1
 10
0.00
 20
0.00
 30
0.00
 40
0.20
 41
0.20
  0
VERTEX
  8
087768-2ROU1_GBR
 10
91.331822
 20
172.350582
 30
0.00
  0
VERTEX
  8
087768-2ROU1_GBR
 10
91.331822
 20
198.49681
 30
0.00
  0
VERTEX
  8
087768-2ROU1_GBR
 10
91.427782
 20
198.50293
 30
0.00
  0
SEQEND
  0
POLYLINE
  8
087768-2ROU1_GBR
 66
1
 10
0.00
 20
0.00
 30
0.00
 40
0.20
 41
0.20
  0
VERTEX
  8
087768-2ROU1_GBR
 10
91.427782
 20
198.50293
 30
0.00
 42
0.9381127
  0
VERTEX
  8
087768-2ROU1_GBR
 10
91.427782
 20
201.497082
 30
0.00
 42
0.00
  0
SEQEND
  0
POLYLINE
  8
087768-2ROU1_GBR
 66
1
 10
0.00
 20
0.00
 30
0.00
 40
0.20
 41
0.20
  0
VERTEX
  8
087768-2ROU1_GBR
 10
91.427782
 20
201.497082
 30
0.00
  0
VERTEX
  8
087768-2ROU1_GBR
 10
91.331822
 20
201.503204
 30
0.00
  0
VERTEX
  8
087768-2ROU1_GBR
 10
91.331822
 20
227.64943
 30
0.00
  0
SEQEND
  0
POLYLINE
  8
087768-2ROU1_GBR
 66
1
 10
0.00
 20
0.00
 30
0.00
 40
0.20
 41
0.20
  0
VERTEX
  8
087768-2ROU1_GBR
 10
91.331822
 20
227.64943
 30
0.00
 42
0.3902851
  0
VERTEX
  8
087768-2ROU1_GBR
 10
90.282878
 20
228.788544
 30
0.00
 42
0.00
  0
SEQEND
  0
POLYLINE
  8
087768-2ROU1_GBR
 66
1
 10
0.00
 20
0.00
 30
0.00
 40
0.20
 41
0.20
  0
VERTEX
  8
087768-2ROU1_GBR
 10
90.282878
 20
228.788544
 30
0.00
  0
VERTEX
  8
087768-2ROU1_GBR
 10
90.188822
 20
228.796316
 30
0.00
  0
VERTEX
  8
087768-2ROU1_GBR
 10
90.188822
 20
241.742544
 30
0.00
  0
VERTEX
  8
087768-2ROU1_GBR
 10
90.282878
 20
241.750316
 30
0.00
  0
SEQEND
  0
POLYLINE
  8
087768-2ROU1_GBR
 66
1
 10
0.00
 20
0.00
 30
0.00
 40
0.20
 41
0.20
  0
VERTEX
  8
087768-2ROU1_GBR
 10
90.282878
 20
241.750316
 30
0.00
 42
0.3902851
  0
VERTEX
  8
087768-2ROU1_GBR
 10
91.331822
 20
242.88943
 30
0.00
 42
0.00
  0
SEQEND
  0
POLYLINE
  8
087768-2ROU1_GBR
 66
1
 10
0.00
 20
0.00
 30
0.00
 40
0.20
 41
0.20
  0
VERTEX
  8
087768-2ROU1_GBR
 10
91.331822
 20
242.88943
 30
0.00
  0
VERTEX
  8
087768-2ROU1_GBR
 10
91.331822
 20
269.035658
 30
0.00
  0
VERTEX
  8
087768-2ROU1_GBR
 10
91.427782
 20
269.041778
 30
0.00
  0
SEQEND
  0
POLYLINE
  8
087768-2ROU1_GBR
 66
1
 10
0.00
 20
0.00
 30
0.00
 40
0.20
 41
0.20
  0
VERTEX
  8
087768-2ROU1_GBR
 10
91.427782
 20
269.041778
 30
0.00
 42
0.3953837
  0
VERTEX
  8
087768-2ROU1_GBR
 10
92.831946
 20
270.537306
 30
0.00
 42
0.00
  0
SEQEND
  0
POLYLINE
  8
087768-2ROU1_GBR
 66
1
 10
0.00
 20
0.00
 30
0.00
 40
0.20
 41
0.20
  0
VERTEX
  8
087768-2ROU1_GBR
 10
92.831946
 20
270.537306
 30
0.00
 42
0.3952992
  0
VERTEX
  8
087768-2ROU1_GBR
 10
91.428012
 20
272.032604
 30
0.00
 42
0.00
  0
SEQEND
  0
POLYLINE
  8
087768-2ROU1_GBR
 66
1
 10
0.00
 20
0.00
 30
0.00
 40
0.20
 41
0.20
  0
VERTEX
  8
087768-2ROU1_GBR
 10
91.428012
 20
272.032604
 30
0.00
  0
VERTEX
  8
087768-2ROU1_GBR
 10
91.332076
 20
272.03875
 30
0.00
  0
VERTEX
  8
087768-2ROU1_GBR
 10
91.331822
 20
283.312006
 30
0.00
  0
SEQEND
  0
ENDSEC
  0
EOF
