  0
SECTION
  2
HEADER
  9
$EXTMIN
 10
-258.359834
 20
-58.010602
 30
0.00
  9
$EXTMAX
 10
470.00
 20
419.20
 30
0.00
  0
ENDSEC
  0
SECTION
  2
TABLES
  0
TABLE
  2
LTYPE
 70
3
  0
LTYPE
  2
BYBLOCK
 70
0
  3

 72
65
 73
0
 40
0.00
  0
LTYPE
  2
BYLAYER
 70
0
  3

 72
65
 73
0
 40
0.00
  0
LTYPE
  2
CONTINUOUS
 70
0
  3
Solid line
 72
65
 73
0
 40
0.00
  0
ENDTAB
  0
TABLE
  2
LAYER
 70
99
  0
LAYER
  2
0
 70
0
 62
7
  6
CONTINUOUS
  0
LAYER
  2
020671-1ROU1_GBR
 70
0
 62
7
  6
CONTINUOUS
  0
LAYER
  2
027417-3ROU1_GBR
 70
0
 62
7
  6
CONTINUOUS
  0
LAYER
  2
027419-1ROU1_GBR
 70
0
 62
2
  6
CONTINUOUS
  0
LAYER
  2
027419-2ROU1_GBR
 70
0
 62
6
  6
CONTINUOUS
  0
LAYER
  2
027674-1ROU1_GBR
 70
0
 62
1
  6
CONTINUOUS
  0
LAYER
  2
027676-1ROU1_GBR
 70
0
 62
4
  6
CONTINUOUS
  0
LAYER
  2
027678-3ROU1_GBR
 70
0
 62
3
  6
CONTINUOUS
  0
LAYER
  2
028122-1ROU1_GBR
 70
0
 62
5
  6
CONTINUOUS
  0
LAYER
  2
028124-5ROU1_GBR
 70
0
 62
10
  6
CONTINUOUS
  0
LAYER
  2
028126-1ROU1_GBR
 70
0
 62
14
  6
CONTINUOUS
  0
LAYER
  2
028126-3ROU1_GBR
 70
0
 62
9
  6
CONTINUOUS
  0
LAYER
  2
028126-6ROU1_GBR
 70
0
 62
12
  6
CONTINUOUS
  0
LAYER
  2
028126-7ROU1_GBR
 70
0
 62
11
  6
CONTINUOUS
  0
LAYER
  2
028129-1ROU1_GBR
 70
0
 62
13
  6
CONTINUOUS
  0
LAYER
  2
028130-1ROU1_GBR
 70
0
 62
8
  6
CONTINUOUS
  0
LAYER
  2
028130-4ROU1_GBR
 70
0
 62
15
  6
CONTINUOUS
  0
LAYER
  2
028130-5ROU1_GBR
 70
0
 62
7
  6
CONTINUOUS
  0
LAYER
  2
028130-7ROU1_GBR
 70
0
 62
7
  6
CONTINUOUS
  0
LAYER
  2
028655-1ROU1_GBR
 70
0
 62
2
  6
CONTINUOUS
  0
LAYER
  2
028657-1ROU1_GBR
 70
0
 62
6
  6
CONTINUOUS
  0
LAYER
  2
028659-2ROU1_GBR
 70
0
 62
1
  6
CONTINUOUS
  0
LAYER
  2
028659-4ROU1_GBR
 70
0
 62
4
  6
CONTINUOUS
  0
LAYER
  2
028661-1ROU1_GBR
 70
0
 62
3
  6
CONTINUOUS
  0
LAYER
  2
028663-1ROU1_GBR
 70
0
 62
5
  6
CONTINUOUS
  0
LAYER
  2
028665-1ROU1_GBR
 70
0
 62
10
  6
CONTINUOUS
  0
LAYER
  2
028669-1ROU1_GBR
 70
0
 62
14
  6
CONTINUOUS
  0
LAYER
  2
028673-2ROU1_GBR
 70
0
 62
9
  6
CONTINUOUS
  0
LAYER
  2
037088-3ROU1_GBR
 70
0
 62
12
  6
CONTINUOUS
  0
LAYER
  2
037682-1ROU1_GBR
 70
0
 62
11
  6
CONTINUOUS
  0
LAYER
  2
037686-1ROU1_GBR
 70
0
 62
13
  6
CONTINUOUS
  0
LAYER
  2
037688-1ROU1_GBR
 70
0
 62
8
  6
CONTINUOUS
  0
LAYER
  2
038681-1ROU1_GBR
 70
0
 62
15
  6
CONTINUOUS
  0
LAYER
  2
038683-1ROU1_GBR
 70
0
 62
7
  6
CONTINUOUS
  0
LAYER
  2
038683-2ROU1_GBR
 70
0
 62
7
  6
CONTINUOUS
  0
LAYER
  2
038685-1ROU1_GBR
 70
0
 62
2
  6
CONTINUOUS
  0
LAYER
  2
038689-1ROU1_GBR
 70
0
 62
6
  6
CONTINUOUS
  0
LAYER
  2
038689-2ROU1_GBR
 70
0
 62
1
  6
CONTINUOUS
  0
LAYER
  2
038691-1ROU1_GBR
 70
0
 62
4
  6
CONTINUOUS
  0
LAYER
  2
038691-2ROU1_GBR
 70
0
 62
3
  6
CONTINUOUS
  0
LAYER
  2
038691-3ROU1_GBR
 70
0
 62
5
  6
CONTINUOUS
  0
LAYER
  2
038691-4ROU1_GBR
 70
0
 62
10
  6
CONTINUOUS
  0
LAYER
  2
038693-1ROU1_GBR
 70
0
 62
14
  6
CONTINUOUS
  0
LAYER
  2
038695-1ROU1_GBR
 70
0
 62
9
  6
CONTINUOUS
  0
LAYER
  2
038697-1ROU1_GBR
 70
0
 62
12
  6
CONTINUOUS
  0
LAYER
  2
038697-3ROU1_GBR
 70
0
 62
11
  6
CONTINUOUS
  0
LAYER
  2
038697-4ROU1_GBR
 70
0
 62
13
  6
CONTINUOUS
  0
LAYER
  2
038697-5ROU1_GBR
 70
0
 62
8
  6
CONTINUOUS
  0
LAYER
  2
047706-4ROU1_GBR
 70
0
 62
15
  6
CONTINUOUS
  0
LAYER
  2
047706-5ROU1_GBR
 70
0
 62
7
  6
CONTINUOUS
  0
LAYER
  2
047706-6ROU1_GBR
 70
0
 62
7
  6
CONTINUOUS
  0
LAYER
  2
047708-1ROU1_GBR
 70
0
 62
2
  6
CONTINUOUS
  0
LAYER
  2
047710-1ROU1_GBR
 70
0
 62
6
  6
CONTINUOUS
  0
LAYER
  2
047712-1ROU1_GBR
 70
0
 62
1
  6
CONTINUOUS
  0
LAYER
  2
047714-2ROU1_GBR
 70
0
 62
4
  6
CONTINUOUS
  0
LAYER
  2
048701-1ROU1_GBR
 70
0
 62
3
  6
CONTINUOUS
  0
LAYER
  2
048703-1ROU1_GBR
 70
0
 62
10
  6
CONTINUOUS
  0
LAYER
  2
048711-1ROU1_GBR
 70
0
 62
14
  6
CONTINUOUS
  0
LAYER
  2
048715-1ROU1_GBR
 70
0
 62
9
  6
CONTINUOUS
  0
LAYER
  2
058721-2ROU1_GBR
 70
0
 62
12
  6
CONTINUOUS
  0
LAYER
  2
058723-10ROU1_GBR
 70
0
 62
11
  6
CONTINUOUS
  0
LAYER
  2
058723-1ROU1_GBR
 70
0
 62
13
  6
CONTINUOUS
  0
LAYER
  2
058723-6ROU1_GBR
 70
0
 62
8
  6
CONTINUOUS
  0
LAYER
  2
058723-9ROU1_GBR
 70
0
 62
15
  6
CONTINUOUS
  0
LAYER
  2
067601-1ROU1_GBR
 70
0
 62
7
  6
CONTINUOUS
  0
LAYER
  2
068162-1ROU1_GBR
 70
0
 62
7
  6
CONTINUOUS
  0
LAYER
  2
068162-3ROU1_GBR
 70
0
 62
2
  6
CONTINUOUS
  0
LAYER
  2
068162-4ROU1_GBR
 70
0
 62
6
  6
CONTINUOUS
  0
LAYER
  2
077742-1ROU1_GBR
 70
0
 62
1
  6
CONTINUOUS
  0
LAYER
  2
078731-1ROU1_GBR
 70
0
 62
4
  6
CONTINUOUS
  0
LAYER
  2
078735-3ROU1_GBR
 70
0
 62
3
  6
CONTINUOUS
  0
LAYER
  2
078739-1ROU1_GBR
 70
0
 62
5
  6
CONTINUOUS
  0
LAYER
  2
078753-1ROU1_GBR
 70
0
 62
10
  6
CONTINUOUS
  0
LAYER
  2
078757-1ROU1_GBR
 70
0
 62
14
  6
CONTINUOUS
  0
LAYER
  2
087768-2ROU1_GBR
 70
0
 62
9
  6
CONTINUOUS
  0
LAYER
  2
087772-1ROU1_GBR
 70
0
 62
12
  6
CONTINUOUS
  0
LAYER
  2
087780-1ROU1_GBR
 70
0
 62
11
  6
CONTINUOUS
  0
LAYER
  2
087782-9ROU1_GBR
 70
0
 62
13
  6
CONTINUOUS
  0
LAYER
  2
088783-4ROU1_GBR
 70
0
 62
8
  6
CONTINUOUS
  0
LAYER
  2
088785-1ROU1_GBR
 70
0
 62
15
  6
CONTINUOUS
  0
LAYER
  2
097800-6ROU1_GBR
 70
0
 62
7
  6
CONTINUOUS
  0
LAYER
  2
097810-1ROU1_GBR
 70
0
 62
7
  6
CONTINUOUS
  0
LAYER
  2
098787-1ROU1_GBR
 70
0
 62
2
  6
CONTINUOUS
  0
LAYER
  2
098787-2ROU1_GBR
 70
0
 62
6
  6
CONTINUOUS
  0
LAYER
  2
098789-1ROU1_GBR
 70
0
 62
1
  6
CONTINUOUS
  0
LAYER
  2
098811-1ROU1_GBR
 70
0
 62
4
  6
CONTINUOUS
  0
LAYER
  2
098815-1ROU1_GBR
 70
0
 62
3
  6
CONTINUOUS
  0
LAYER
  2
098815-2ROU1_GBR
 70
0
 62
5
  6
CONTINUOUS
  0
LAYER
  2
107824-1ROU1_GBR
 70
0
 62
10
  6
CONTINUOUS
  0
LAYER
  2
118200-1ROU1_GBR
 70
0
 62
14
  6
CONTINUOUS
  0
LAYER
  2
257017-1ROU1_GBR
 70
0
 62
9
  6
CONTINUOUS
  0
LAYER
  2
268076-7ROU1_GBR
 70
0
 62
12
  6
CONTINUOUS
  0
LAYER
  2
288088-1ROU1_GBR
 70
0
 62
11
  6
CONTINUOUS
  0
LAYER
  2
307251-1ROU1_GBR
 70
0
 62
13
  6
CONTINUOUS
  0
LAYER
  2
307273-4ROU1_GBR
 70
0
 62
8
  6
CONTINUOUS
  0
LAYER
  2
307283-1ROU1_GBR
 70
0
 62
15
  6
CONTINUOUS
  0
LAYER
  2
307291-1ROU1_GBR
 70
0
 62
7
  6
CONTINUOUS
  0
LAYER
  2
308108-1ROU1_GBR
 70
0
 62
7
  6
CONTINUOUS
  0
LAYER
  2
308111-1ROU1_GBR
 70
0
 62
2
  6
CONTINUOUS
  0
LAYER
  2
308112-1ROU1_GBR
 70
0
 62
6
  6
CONTINUOUS
  0
ENDTAB
  0
TABLE
  2
STYLE
 70
0
  0
ENDTAB
  0
ENDSEC
  0
SECTION
  2
BLOCKS
  0
BLOCK
  2
ROUND_1
  3
ROUND_1
 70
64
 10
0.00
 20
0.00
 30
0.00
  0
CIRCLE
  8
0
 10
0.00
 20
0.00
 30
0.00
 40
0.10
  0
ENDBLK
  0
ENDSEC
  0
SECTION
  2
ENTITIES
  0
POLYLINE
  8
088785-1ROU1_GBR
 66
1
 10
0.00
 20
0.00
 30
0.00
 40
0.20
 41
0.20
  0
VERTEX
  8
088785-1ROU1_GBR
 10
202.51928
 20
89.550748
 30
0.00
  0
VERTEX
  8
088785-1ROU1_GBR
 10
202.702972
 20
89.538404
 30
0.00
  0
VERTEX
  8
088785-1ROU1_GBR
 10
203.067056
 20
89.49469
 30
0.00
  0
VERTEX
  8
088785-1ROU1_GBR
 10
203.42606
 20
89.42606
 30
0.00
  0
VERTEX
  8
088785-1ROU1_GBR
 10
203.77917
 20
89.332612
 30
0.00
  0
VERTEX
  8
088785-1ROU1_GBR
 10
204.125398
 20
89.214656
 30
0.00
  0
VERTEX
  8
088785-1ROU1_GBR
 10
204.463244
 20
89.072516
 30
0.00
  0
VERTEX
  8
088785-1ROU1_GBR
 10
204.789304
 20
88.907696
 30
0.00
  0
VERTEX
  8
088785-1ROU1_GBR
 10
205.103476
 20
88.720372
 30
0.00
  0
VERTEX
  8
088785-1ROU1_GBR
 10
205.404288
 20
88.511152
 30
0.00
  0
VERTEX
  8
088785-1ROU1_GBR
 10
205.688718
 20
88.282094
 30
0.00
  0
VERTEX
  8
088785-1ROU1_GBR
 10
205.957196
 20
88.033504
 30
0.00
  0
VERTEX
  8
088785-1ROU1_GBR
 10
206.20764
 20
87.766576
 30
0.00
  0
VERTEX
  8
088785-1ROU1_GBR
 10
206.438652
 20
87.483036
 30
0.00
  0
VERTEX
  8
088785-1ROU1_GBR
 10
206.649168
 20
87.184332
 30
0.00
  0
VERTEX
  8
088785-1ROU1_GBR
 10
206.838678
 20
86.871124
 30
0.00
  0
VERTEX
  8
088785-1ROU1_GBR
 10
207.00586
 20
86.545852
 30
0.00
  0
VERTEX
  8
088785-1ROU1_GBR
 10
207.149828
 20
86.209582
 30
0.00
  0
VERTEX
  8
088785-1ROU1_GBR
 10
207.269892
 20
85.863912
 30
0.00
  0
VERTEX
  8
088785-1ROU1_GBR
 10
207.365728
 20
85.51098
 30
0.00
  0
VERTEX
  8
088785-1ROU1_GBR
 10
207.43672
 20
85.151926
 30
0.00
  0
VERTEX
  8
088785-1ROU1_GBR
 10
207.482288
 20
84.78906
 30
0.00
  0
VERTEX
  8
088785-1ROU1_GBR
 10
207.486732
 20
84.71032
 30
0.00
  0
VERTEX
  8
088785-1ROU1_GBR
 10
207.501744
 20
84.65909
 30
0.00
  0
VERTEX
  8
088785-1ROU1_GBR
 10
207.501744
 20
16.21818
 30
0.00
  0
VERTEX
  8
088785-1ROU1_GBR
 10
207.465904
 20
16.144824
 30
0.00
  0
VERTEX
  8
088785-1ROU1_GBR
 10
207.445814
 20
15.97782
 30
0.00
  0
VERTEX
  8
088785-1ROU1_GBR
 10
207.37703
 20
15.61808
 30
0.00
  0
VERTEX
  8
088785-1ROU1_GBR
 10
207.283456
 20
15.264588
 30
0.00
  0
VERTEX
  8
088785-1ROU1_GBR
 10
207.16621
 20
14.920188
 30
0.00
  0
VERTEX
  8
088785-1ROU1_GBR
 10
207.02369
 20
14.581328
 30
0.00
  0
VERTEX
  8
088785-1ROU1_GBR
 10
206.858514
 20
14.254632
 30
0.00
  0
VERTEX
  8
088785-1ROU1_GBR
 10
206.671316
 20
13.940688
 30
0.00
  0
VERTEX
  8
088785-1ROU1_GBR
 10
206.4623
 20
13.640156
 30
0.00
  0
VERTEX
  8
088785-1ROU1_GBR
 10
206.232988
 20
13.355448
 30
0.00
  0
VERTEX
  8
088785-1ROU1_GBR
 10
205.9845
 20
13.08707
 30
0.00
  0
VERTEX
  8
088785-1ROU1_GBR
 10
205.71742
 20
12.8365
 30
0.00
  0
VERTEX
  8
088785-1ROU1_GBR
 10
205.434032
 20
12.605614
 30
0.00
  0
VERTEX
  8
088785-1ROU1_GBR
 10
205.13515
 20
12.394996
 30
0.00
  0
VERTEX
  8
088785-1ROU1_GBR
 10
204.821942
 20
12.205512
 30
0.00
  0
VERTEX
  8
088785-1ROU1_GBR
 10
204.496594
 20
12.038304
 30
0.00
  0
VERTEX
  8
088785-1ROU1_GBR
 10
204.160602
 20
11.894464
 30
0.00
  0
VERTEX
  8
088785-1ROU1_GBR
 10
203.81534
 20
11.7745
 30
0.00
  0
VERTEX
  8
088785-1ROU1_GBR
 10
203.463906
 20
11.67892
 30
0.00
  0
VERTEX
  8
088785-1ROU1_GBR
 10
203.102896
 20
11.607546
 30
0.00
  0
VERTEX
  8
088785-1ROU1_GBR
 10
202.740134
 20
11.561978
 30
0.00
  0
VERTEX
  8
088785-1ROU1_GBR
 10
202.374602
 20
11.541532
 30
0.00
  0
VERTEX
  8
088785-1ROU1_GBR
 10
202.017858
 20
11.546738
 30
0.00
  0
VERTEX
  8
088785-1ROU1_GBR
 10
201.99124
 20
11.55065
 30
0.00
  0
VERTEX
  8
088785-1ROU1_GBR
 10
112.51062
 20
11.55065
 30
0.00
  0
VERTEX
  8
088785-1ROU1_GBR
 10
112.468432
 20
11.543538
 30
0.00
  0
VERTEX
  8
088785-1ROU1_GBR
 10
112.295814
 20
11.554918
 30
0.00
  0
VERTEX
  8
088785-1ROU1_GBR
 10
111.93206
 20
11.59858
 30
0.00
  0
VERTEX
  8
088785-1ROU1_GBR
 10
111.57293
 20
11.667236
 30
0.00
  0
VERTEX
  8
088785-1ROU1_GBR
 10
111.219438
 20
11.76081
 30
0.00
  0
VERTEX
  8
088785-1ROU1_GBR
 10
110.872982
 20
11.87892
 30
0.00
  0
VERTEX
  8
088785-1ROU1_GBR
 10
110.535846
 20
12.020754
 30
0.00
  0
VERTEX
  8
088785-1ROU1_GBR
 10
110.209812
 20
12.185574
 30
0.00
  0
VERTEX
  8
088785-1ROU1_GBR
 10
109.89564
 20
12.372898
 30
0.00
  0
VERTEX
  8
088785-1ROU1_GBR
 10
109.594828
 20
12.582118
 30
0.00
  0
VERTEX
  8
088785-1ROU1_GBR
 10
109.310398
 20
12.811176
 30
0.00
  0
VERTEX
  8
088785-1ROU1_GBR
 10
109.04192
 20
13.059766
 30
0.00
  0
VERTEX
  8
088785-1ROU1_GBR
 10
108.791452
 20
13.32672
 30
0.00
  0
VERTEX
  8
088785-1ROU1_GBR
 10
108.560464
 20
13.610234
 30
0.00
  0
VERTEX
  8
088785-1ROU1_GBR
 10
108.349822
 20
13.909168
 30
0.00
  0
VERTEX
  8
088785-1ROU1_GBR
 10
108.160338
 20
14.222348
 30
0.00
  0
VERTEX
  8
088785-1ROU1_GBR
 10
107.993206
 20
14.54752
 30
0.00
  0
VERTEX
  8
088785-1ROU1_GBR
 10
107.849314
 20
14.883664
 30
0.00
  0
VERTEX
  8
088785-1ROU1_GBR
 10
107.72935
 20
15.228926
 30
0.00
  0
VERTEX
  8
088785-1ROU1_GBR
 10
107.63377
 20
15.58036
 30
0.00
  0
VERTEX
  8
088785-1ROU1_GBR
 10
107.562396
 20
15.94137
 30
0.00
  0
VERTEX
  8
088785-1ROU1_GBR
 10
107.516828
 20
16.304134
 30
0.00
  0
VERTEX
  8
088785-1ROU1_GBR
 10
107.496382
 20
16.66969
 30
0.00
  0
VERTEX
  8
088785-1ROU1_GBR
 10
107.50169
 20
17.033418
 30
0.00
  0
VERTEX
  8
088785-1ROU1_GBR
 10
107.50169
 20
84.762976
 30
0.00
  0
VERTEX
  8
088785-1ROU1_GBR
 10
107.51157
 20
84.80331
 30
0.00
  0
VERTEX
  8
088785-1ROU1_GBR
 10
107.54962
 20
85.120124
 30
0.00
  0
VERTEX
  8
088785-1ROU1_GBR
 10
107.61825
 20
85.479128
 30
0.00
  0
VERTEX
  8
088785-1ROU1_GBR
 10
107.711698
 20
85.832238
 30
0.00
  0
VERTEX
  8
088785-1ROU1_GBR
 10
107.829654
 20
86.178466
 30
0.00
  0
VERTEX
  8
088785-1ROU1_GBR
 10
107.971794
 20
86.516312
 30
0.00
  0
VERTEX
  8
088785-1ROU1_GBR
 10
108.136614
 20
86.842372
 30
0.00
  0
VERTEX
  8
088785-1ROU1_GBR
 10
108.323938
 20
87.156544
 30
0.00
  0
VERTEX
  8
088785-1ROU1_GBR
 10
108.533158
 20
87.457356
 30
0.00
  0
VERTEX
  8
088785-1ROU1_GBR
 10
108.762216
 20
87.741786
 30
0.00
  0
VERTEX
  8
088785-1ROU1_GBR
 10
109.010806
 20
88.010264
 30
0.00
  0
VERTEX
  8
088785-1ROU1_GBR
 10
109.277734
 20
88.260708
 30
0.00
  0
VERTEX
  8
088785-1ROU1_GBR
 10
109.561274
 20
88.49172
 30
0.00
  0
VERTEX
  8
088785-1ROU1_GBR
 10
109.859978
 20
88.702236
 30
0.00
  0
VERTEX
  8
088785-1ROU1_GBR
 10
110.173186
 20
88.891746
 30
0.00
  0
VERTEX
  8
088785-1ROU1_GBR
 10
110.498458
 20
89.058928
 30
0.00
  0
VERTEX
  8
088785-1ROU1_GBR
 10
110.834728
 20
89.202896
 30
0.00
  0
VERTEX
  8
088785-1ROU1_GBR
 10
111.179966
 20
89.322834
 30
0.00
  0
VERTEX
  8
088785-1ROU1_GBR
 10
111.5314
 20
89.418414
 30
0.00
  0
VERTEX
  8
088785-1ROU1_GBR
 10
111.89241
 20
89.489788
 30
0.00
  0
VERTEX
  8
088785-1ROU1_GBR
 10
112.246308
 20
89.53439
 30
0.00
  0
VERTEX
  8
088785-1ROU1_GBR
 10
112.28263
 20
89.533858
 30
0.00
  0
VERTEX
  8
088785-1ROU1_GBR
 10
112.338638
 20
89.550748
 30
0.00
  0
VERTEX
  8
088785-1ROU1_GBR
 10
202.51928
 20
89.550748
 30
0.00
  0
SEQEND
  0
ENDSEC
  0
EOF
