  0
SECTION
  2
HEADER
  9
$EXTMIN
 10
-258.359834
 20
-58.010602
 30
0.00
  9
$EXTMAX
 10
470.00
 20
419.20
 30
0.00
  0
ENDSEC
  0
SECTION
  2
TABLES
  0
TABLE
  2
LTYPE
 70
3
  0
LTYPE
  2
BYBLOCK
 70
0
  3

 72
65
 73
0
 40
0.00
  0
LTYPE
  2
BYLAYER
 70
0
  3

 72
65
 73
0
 40
0.00
  0
LTYPE
  2
CONTINUOUS
 70
0
  3
Solid line
 72
65
 73
0
 40
0.00
  0
ENDTAB
  0
TABLE
  2
LAYER
 70
99
  0
LAYER
  2
0
 70
0
 62
7
  6
CONTINUOUS
  0
LAYER
  2
020671-1ROU1_GBR
 70
0
 62
7
  6
CONTINUOUS
  0
LAYER
  2
027417-3ROU1_GBR
 70
0
 62
7
  6
CONTINUOUS
  0
LAYER
  2
027419-1ROU1_GBR
 70
0
 62
2
  6
CONTINUOUS
  0
LAYER
  2
027419-2ROU1_GBR
 70
0
 62
6
  6
CONTINUOUS
  0
LAYER
  2
027674-1ROU1_GBR
 70
0
 62
1
  6
CONTINUOUS
  0
LAYER
  2
027676-1ROU1_GBR
 70
0
 62
4
  6
CONTINUOUS
  0
LAYER
  2
027678-3ROU1_GBR
 70
0
 62
3
  6
CONTINUOUS
  0
LAYER
  2
028122-1ROU1_GBR
 70
0
 62
5
  6
CONTINUOUS
  0
LAYER
  2
028124-5ROU1_GBR
 70
0
 62
10
  6
CONTINUOUS
  0
LAYER
  2
028126-1ROU1_GBR
 70
0
 62
14
  6
CONTINUOUS
  0
LAYER
  2
028126-3ROU1_GBR
 70
0
 62
9
  6
CONTINUOUS
  0
LAYER
  2
028126-6ROU1_GBR
 70
0
 62
12
  6
CONTINUOUS
  0
LAYER
  2
028126-7ROU1_GBR
 70
0
 62
11
  6
CONTINUOUS
  0
LAYER
  2
028129-1ROU1_GBR
 70
0
 62
13
  6
CONTINUOUS
  0
LAYER
  2
028130-1ROU1_GBR
 70
0
 62
8
  6
CONTINUOUS
  0
LAYER
  2
028130-4ROU1_GBR
 70
0
 62
15
  6
CONTINUOUS
  0
LAYER
  2
028130-5ROU1_GBR
 70
0
 62
7
  6
CONTINUOUS
  0
LAYER
  2
028130-7ROU1_GBR
 70
0
 62
7
  6
CONTINUOUS
  0
LAYER
  2
028655-1ROU1_GBR
 70
0
 62
2
  6
CONTINUOUS
  0
LAYER
  2
028657-1ROU1_GBR
 70
0
 62
6
  6
CONTINUOUS
  0
LAYER
  2
028659-2ROU1_GBR
 70
0
 62
1
  6
CONTINUOUS
  0
LAYER
  2
028659-4ROU1_GBR
 70
0
 62
4
  6
CONTINUOUS
  0
LAYER
  2
028661-1ROU1_GBR
 70
0
 62
3
  6
CONTINUOUS
  0
LAYER
  2
028663-1ROU1_GBR
 70
0
 62
5
  6
CONTINUOUS
  0
LAYER
  2
028665-1ROU1_GBR
 70
0
 62
10
  6
CONTINUOUS
  0
LAYER
  2
028669-1ROU1_GBR
 70
0
 62
14
  6
CONTINUOUS
  0
LAYER
  2
028673-2ROU1_GBR
 70
0
 62
9
  6
CONTINUOUS
  0
LAYER
  2
037088-3ROU1_GBR
 70
0
 62
12
  6
CONTINUOUS
  0
LAYER
  2
037682-1ROU1_GBR
 70
0
 62
11
  6
CONTINUOUS
  0
LAYER
  2
037686-1ROU1_GBR
 70
0
 62
13
  6
CONTINUOUS
  0
LAYER
  2
037688-1ROU1_GBR
 70
0
 62
8
  6
CONTINUOUS
  0
LAYER
  2
038681-1ROU1_GBR
 70
0
 62
15
  6
CONTINUOUS
  0
LAYER
  2
038683-1ROU1_GBR
 70
0
 62
7
  6
CONTINUOUS
  0
LAYER
  2
038683-2ROU1_GBR
 70
0
 62
7
  6
CONTINUOUS
  0
LAYER
  2
038685-1ROU1_GBR
 70
0
 62
2
  6
CONTINUOUS
  0
LAYER
  2
038689-1ROU1_GBR
 70
0
 62
6
  6
CONTINUOUS
  0
LAYER
  2
038689-2ROU1_GBR
 70
0
 62
1
  6
CONTINUOUS
  0
LAYER
  2
038691-1ROU1_GBR
 70
0
 62
4
  6
CONTINUOUS
  0
LAYER
  2
038691-2ROU1_GBR
 70
0
 62
3
  6
CONTINUOUS
  0
LAYER
  2
038691-3ROU1_GBR
 70
0
 62
5
  6
CONTINUOUS
  0
LAYER
  2
038691-4ROU1_GBR
 70
0
 62
10
  6
CONTINUOUS
  0
LAYER
  2
038693-1ROU1_GBR
 70
0
 62
14
  6
CONTINUOUS
  0
LAYER
  2
038695-1ROU1_GBR
 70
0
 62
9
  6
CONTINUOUS
  0
LAYER
  2
038697-1ROU1_GBR
 70
0
 62
12
  6
CONTINUOUS
  0
LAYER
  2
038697-3ROU1_GBR
 70
0
 62
11
  6
CONTINUOUS
  0
LAYER
  2
038697-4ROU1_GBR
 70
0
 62
13
  6
CONTINUOUS
  0
LAYER
  2
038697-5ROU1_GBR
 70
0
 62
8
  6
CONTINUOUS
  0
LAYER
  2
047706-4ROU1_GBR
 70
0
 62
15
  6
CONTINUOUS
  0
LAYER
  2
047706-5ROU1_GBR
 70
0
 62
7
  6
CONTINUOUS
  0
LAYER
  2
047706-6ROU1_GBR
 70
0
 62
7
  6
CONTINUOUS
  0
LAYER
  2
047708-1ROU1_GBR
 70
0
 62
2
  6
CONTINUOUS
  0
LAYER
  2
047710-1ROU1_GBR
 70
0
 62
6
  6
CONTINUOUS
  0
LAYER
  2
047712-1ROU1_GBR
 70
0
 62
1
  6
CONTINUOUS
  0
LAYER
  2
047714-2ROU1_GBR
 70
0
 62
4
  6
CONTINUOUS
  0
LAYER
  2
048701-1ROU1_GBR
 70
0
 62
3
  6
CONTINUOUS
  0
LAYER
  2
048703-1ROU1_GBR
 70
0
 62
10
  6
CONTINUOUS
  0
LAYER
  2
048711-1ROU1_GBR
 70
0
 62
14
  6
CONTINUOUS
  0
LAYER
  2
048715-1ROU1_GBR
 70
0
 62
9
  6
CONTINUOUS
  0
LAYER
  2
058721-2ROU1_GBR
 70
0
 62
12
  6
CONTINUOUS
  0
LAYER
  2
058723-10ROU1_GBR
 70
0
 62
11
  6
CONTINUOUS
  0
LAYER
  2
058723-1ROU1_GBR
 70
0
 62
13
  6
CONTINUOUS
  0
LAYER
  2
058723-6ROU1_GBR
 70
0
 62
8
  6
CONTINUOUS
  0
LAYER
  2
058723-9ROU1_GBR
 70
0
 62
15
  6
CONTINUOUS
  0
LAYER
  2
067601-1ROU1_GBR
 70
0
 62
7
  6
CONTINUOUS
  0
LAYER
  2
068162-1ROU1_GBR
 70
0
 62
7
  6
CONTINUOUS
  0
LAYER
  2
068162-3ROU1_GBR
 70
0
 62
2
  6
CONTINUOUS
  0
LAYER
  2
068162-4ROU1_GBR
 70
0
 62
6
  6
CONTINUOUS
  0
LAYER
  2
077742-1ROU1_GBR
 70
0
 62
1
  6
CONTINUOUS
  0
LAYER
  2
078731-1ROU1_GBR
 70
0
 62
4
  6
CONTINUOUS
  0
LAYER
  2
078735-3ROU1_GBR
 70
0
 62
3
  6
CONTINUOUS
  0
LAYER
  2
078739-1ROU1_GBR
 70
0
 62
5
  6
CONTINUOUS
  0
LAYER
  2
078753-1ROU1_GBR
 70
0
 62
10
  6
CONTINUOUS
  0
LAYER
  2
078757-1ROU1_GBR
 70
0
 62
14
  6
CONTINUOUS
  0
LAYER
  2
087768-2ROU1_GBR
 70
0
 62
9
  6
CONTINUOUS
  0
LAYER
  2
087772-1ROU1_GBR
 70
0
 62
12
  6
CONTINUOUS
  0
LAYER
  2
087780-1ROU1_GBR
 70
0
 62
11
  6
CONTINUOUS
  0
LAYER
  2
087782-9ROU1_GBR
 70
0
 62
13
  6
CONTINUOUS
  0
LAYER
  2
088783-4ROU1_GBR
 70
0
 62
8
  6
CONTINUOUS
  0
LAYER
  2
088785-1ROU1_GBR
 70
0
 62
15
  6
CONTINUOUS
  0
LAYER
  2
097800-6ROU1_GBR
 70
0
 62
7
  6
CONTINUOUS
  0
LAYER
  2
097810-1ROU1_GBR
 70
0
 62
7
  6
CONTINUOUS
  0
LAYER
  2
098787-1ROU1_GBR
 70
0
 62
2
  6
CONTINUOUS
  0
LAYER
  2
098787-2ROU1_GBR
 70
0
 62
6
  6
CONTINUOUS
  0
LAYER
  2
098789-1ROU1_GBR
 70
0
 62
1
  6
CONTINUOUS
  0
LAYER
  2
098811-1ROU1_GBR
 70
0
 62
4
  6
CONTINUOUS
  0
LAYER
  2
098815-1ROU1_GBR
 70
0
 62
3
  6
CONTINUOUS
  0
LAYER
  2
098815-2ROU1_GBR
 70
0
 62
5
  6
CONTINUOUS
  0
LAYER
  2
107824-1ROU1_GBR
 70
0
 62
10
  6
CONTINUOUS
  0
LAYER
  2
118200-1ROU1_GBR
 70
0
 62
14
  6
CONTINUOUS
  0
LAYER
  2
257017-1ROU1_GBR
 70
0
 62
9
  6
CONTINUOUS
  0
LAYER
  2
268076-7ROU1_GBR
 70
0
 62
12
  6
CONTINUOUS
  0
LAYER
  2
288088-1ROU1_GBR
 70
0
 62
11
  6
CONTINUOUS
  0
LAYER
  2
307251-1ROU1_GBR
 70
0
 62
13
  6
CONTINUOUS
  0
LAYER
  2
307273-4ROU1_GBR
 70
0
 62
8
  6
CONTINUOUS
  0
LAYER
  2
307283-1ROU1_GBR
 70
0
 62
15
  6
CONTINUOUS
  0
LAYER
  2
307291-1ROU1_GBR
 70
0
 62
7
  6
CONTINUOUS
  0
LAYER
  2
308108-1ROU1_GBR
 70
0
 62
7
  6
CONTINUOUS
  0
LAYER
  2
308111-1ROU1_GBR
 70
0
 62
2
  6
CONTINUOUS
  0
LAYER
  2
308112-1ROU1_GBR
 70
0
 62
6
  6
CONTINUOUS
  0
ENDTAB
  0
TABLE
  2
STYLE
 70
0
  0
ENDTAB
  0
ENDSEC
  0
SECTION
  2
BLOCKS
  0
BLOCK
  2
ROUND_1
  3
ROUND_1
 70
64
 10
0.00
 20
0.00
 30
0.00
  0
CIRCLE
  8
0
 10
0.00
 20
0.00
 30
0.00
 40
0.10
  0
ENDBLK
  0
ENDSEC
  0
SECTION
  2
ENTITIES
  0
POLYLINE
  8
098811-1ROU1_GBR
 66
1
 10
0.00
 20
0.00
 30
0.00
 40
0.20
 41
0.20
  0
VERTEX
  8
098811-1ROU1_GBR
 10
202.222456
 20
179.092454
 30
0.00
  0
VERTEX
  8
098811-1ROU1_GBR
 10
202.222456
 20
174.093682
 30
0.00
  0
VERTEX
  8
098811-1ROU1_GBR
 10
202.410212
 20
174.087434
 30
0.00
  0
SEQEND
  0
POLYLINE
  8
098811-1ROU1_GBR
 66
1
 10
0.00
 20
0.00
 30
0.00
 40
0.20
 41
0.20
  0
VERTEX
  8
098811-1ROU1_GBR
 10
202.858116
 20
174.01987
 30
0.00
 42
0.0508424
  0
VERTEX
  8
098811-1ROU1_GBR
 10
202.410212
 20
174.087434
 30
0.00
 42
0.00
  0
SEQEND
  0
POLYLINE
  8
098811-1ROU1_GBR
 66
1
 10
0.00
 20
0.00
 30
0.00
 40
0.20
 41
0.20
  0
VERTEX
  8
098811-1ROU1_GBR
 10
202.858116
 20
174.01987
 30
0.00
  0
VERTEX
  8
098811-1ROU1_GBR
 10
203.005792
 20
173.97984
 30
0.00
  0
VERTEX
  8
098811-1ROU1_GBR
 10
203.14826
 20
173.929828
 30
0.00
  0
SEQEND
  0
POLYLINE
  8
098811-1ROU1_GBR
 66
1
 10
0.00
 20
0.00
 30
0.00
 40
0.20
 41
0.20
  0
VERTEX
  8
098811-1ROU1_GBR
 10
203.553772
 20
173.732088
 30
0.00
 42
0.0418511
  0
VERTEX
  8
098811-1ROU1_GBR
 10
203.148262
 20
173.929834
 30
0.00
 42
0.00
  0
SEQEND
  0
POLYLINE
  8
098811-1ROU1_GBR
 66
1
 10
0.00
 20
0.00
 30
0.00
 40
0.20
 41
0.20
  0
VERTEX
  8
098811-1ROU1_GBR
 10
203.553772
 20
173.732088
 30
0.00
  0
VERTEX
  8
098811-1ROU1_GBR
 10
203.681406
 20
173.649514
 30
0.00
  0
VERTEX
  8
098811-1ROU1_GBR
 10
203.804062
 20
173.559394
 30
0.00
  0
VERTEX
  8
098811-1ROU1_GBR
 10
203.9191
 20
173.464348
 30
0.00
  0
VERTEX
  8
098811-1ROU1_GBR
 10
204.029234
 20
173.359242
 30
0.00
  0
VERTEX
  8
098811-1ROU1_GBR
 10
204.13434
 20
173.249108
 30
0.00
  0
VERTEX
  8
098811-1ROU1_GBR
 10
204.229386
 20
173.134046
 30
0.00
  0
SEQEND
  0
POLYLINE
  8
098811-1ROU1_GBR
 66
1
 10
0.00
 20
0.00
 30
0.00
 40
0.20
 41
0.20
  0
VERTEX
  8
098811-1ROU1_GBR
 10
204.474648
 20
172.75363
 30
0.00
 42
0.0466805
  0
VERTEX
  8
098811-1ROU1_GBR
 10
204.22938
 20
173.134042
 30
0.00
 42
0.00
  0
SEQEND
  0
POLYLINE
  8
098811-1ROU1_GBR
 66
1
 10
0.00
 20
0.00
 30
0.00
 40
0.20
 41
0.20
  0
VERTEX
  8
098811-1ROU1_GBR
 10
204.474648
 20
172.75363
 30
0.00
  0
VERTEX
  8
098811-1ROU1_GBR
 10
204.542288
 20
172.615886
 30
0.00
  0
VERTEX
  8
098811-1ROU1_GBR
 10
204.599844
 20
172.478242
 30
0.00
  0
VERTEX
  8
098811-1ROU1_GBR
 10
204.649832
 20
172.335774
 30
0.00
  0
VERTEX
  8
098811-1ROU1_GBR
 10
204.689862
 20
172.188098
 30
0.00
  0
SEQEND
  0
POLYLINE
  8
098811-1ROU1_GBR
 66
1
 10
0.00
 20
0.00
 30
0.00
 40
0.20
 41
0.20
  0
VERTEX
  8
098811-1ROU1_GBR
 10
204.757426
 20
171.740196
 30
0.00
 42
0.0508375
  0
VERTEX
  8
098811-1ROU1_GBR
 10
204.689866
 20
172.188098
 30
0.00
 42
0.00
  0
SEQEND
  0
POLYLINE
  8
098811-1ROU1_GBR
 66
1
 10
0.00
 20
0.00
 30
0.00
 40
0.20
 41
0.20
  0
VERTEX
  8
098811-1ROU1_GBR
 10
204.757426
 20
171.740196
 30
0.00
  0
VERTEX
  8
098811-1ROU1_GBR
 10
204.762456
 20
171.589396
 30
0.00
  0
VERTEX
  8
098811-1ROU1_GBR
 10
204.762456
 20
152.54059
 30
0.00
  0
VERTEX
  8
098811-1ROU1_GBR
 10
204.757426
 20
152.38979
 30
0.00
  0
SEQEND
  0
POLYLINE
  8
098811-1ROU1_GBR
 66
1
 10
0.00
 20
0.00
 30
0.00
 40
0.20
 41
0.20
  0
VERTEX
  8
098811-1ROU1_GBR
 10
204.689862
 20
151.941886
 30
0.00
 42
0.0508424
  0
VERTEX
  8
098811-1ROU1_GBR
 10
204.757426
 20
152.38979
 30
0.00
 42
0.00
  0
SEQEND
  0
POLYLINE
  8
098811-1ROU1_GBR
 66
1
 10
0.00
 20
0.00
 30
0.00
 40
0.20
 41
0.20
  0
VERTEX
  8
098811-1ROU1_GBR
 10
204.689862
 20
151.941886
 30
0.00
  0
VERTEX
  8
098811-1ROU1_GBR
 10
204.649832
 20
151.79421
 30
0.00
  0
VERTEX
  8
098811-1ROU1_GBR
 10
204.59982
 20
151.651742
 30
0.00
  0
VERTEX
  8
098811-1ROU1_GBR
 10
204.542264
 20
151.514074
 30
0.00
  0
VERTEX
  8
098811-1ROU1_GBR
 10
204.474648
 20
151.37633
 30
0.00
  0
SEQEND
  0
POLYLINE
  8
098811-1ROU1_GBR
 66
1
 10
0.00
 20
0.00
 30
0.00
 40
0.20
 41
0.20
  0
VERTEX
  8
098811-1ROU1_GBR
 10
204.13434
 20
150.880902
 30
0.00
 42
0.0602235
  0
VERTEX
  8
098811-1ROU1_GBR
 10
204.474632
 20
151.376336
 30
0.00
 42
0.00
  0
SEQEND
  0
POLYLINE
  8
098811-1ROU1_GBR
 66
1
 10
0.00
 20
0.00
 30
0.00
 40
0.20
 41
0.20
  0
VERTEX
  8
098811-1ROU1_GBR
 10
204.13434
 20
150.880902
 30
0.00
  0
VERTEX
  8
098811-1ROU1_GBR
 10
204.029234
 20
150.770768
 30
0.00
  0
VERTEX
  8
098811-1ROU1_GBR
 10
203.9191
 20
150.665662
 30
0.00
  0
VERTEX
  8
098811-1ROU1_GBR
 10
203.804038
 20
150.570616
 30
0.00
  0
SEQEND
  0
POLYLINE
  8
098811-1ROU1_GBR
 66
1
 10
0.00
 20
0.00
 30
0.00
 40
0.20
 41
0.20
  0
VERTEX
  8
098811-1ROU1_GBR
 10
203.005766
 20
150.15017
 30
0.00
 42
0.0896243
  0
VERTEX
  8
098811-1ROU1_GBR
 10
203.804046
 20
150.570604
 30
0.00
 42
0.00
  0
SEQEND
  0
POLYLINE
  8
098811-1ROU1_GBR
 66
1
 10
0.00
 20
0.00
 30
0.00
 40
0.20
 41
0.20
  0
VERTEX
  8
098811-1ROU1_GBR
 10
203.005766
 20
150.15017
 30
0.00
  0
VERTEX
  8
098811-1ROU1_GBR
 10
202.45202
 20
150.000004
 30
0.00
  0
VERTEX
  8
098811-1ROU1_GBR
 10
203.005792
 20
149.84984
 30
0.00
  0
VERTEX
  8
098811-1ROU1_GBR
 10
203.14826
 20
149.799828
 30
0.00
  0
VERTEX
  8
098811-1ROU1_GBR
 10
203.285928
 20
149.742272
 30
0.00
  0
VERTEX
  8
098811-1ROU1_GBR
 10
203.423672
 20
149.674656
 30
0.00
  0
VERTEX
  8
098811-1ROU1_GBR
 10
203.553772
 20
149.602088
 30
0.00
  0
VERTEX
  8
098811-1ROU1_GBR
 10
203.681406
 20
149.519514
 30
0.00
  0
VERTEX
  8
098811-1ROU1_GBR
 10
203.804062
 20
149.429394
 30
0.00
  0
VERTEX
  8
098811-1ROU1_GBR
 10
203.9191
 20
149.334348
 30
0.00
  0
VERTEX
  8
098811-1ROU1_GBR
 10
204.029234
 20
149.229242
 30
0.00
  0
VERTEX
  8
098811-1ROU1_GBR
 10
204.13434
 20
149.119108
 30
0.00
  0
VERTEX
  8
098811-1ROU1_GBR
 10
204.229386
 20
149.004046
 30
0.00
  0
VERTEX
  8
098811-1ROU1_GBR
 10
204.319506
 20
148.881414
 30
0.00
  0
VERTEX
  8
098811-1ROU1_GBR
 10
204.402056
 20
148.75383
 30
0.00
  0
VERTEX
  8
098811-1ROU1_GBR
 10
204.474648
 20
148.62363
 30
0.00
  0
VERTEX
  8
098811-1ROU1_GBR
 10
204.542288
 20
148.485886
 30
0.00
  0
VERTEX
  8
098811-1ROU1_GBR
 10
204.599844
 20
148.348242
 30
0.00
  0
VERTEX
  8
098811-1ROU1_GBR
 10
204.649832
 20
148.205774
 30
0.00
  0
VERTEX
  8
098811-1ROU1_GBR
 10
204.689862
 20
148.058098
 30
0.00
  0
VERTEX
  8
098811-1ROU1_GBR
 10
204.722426
 20
147.910322
 30
0.00
  0
VERTEX
  8
098811-1ROU1_GBR
 10
204.744904
 20
147.763026
 30
0.00
  0
VERTEX
  8
098811-1ROU1_GBR
 10
204.757426
 20
147.610196
 30
0.00
  0
VERTEX
  8
098811-1ROU1_GBR
 10
204.762456
 20
147.459396
 30
0.00
  0
VERTEX
  8
098811-1ROU1_GBR
 10
204.762456
 20
128.41059
 30
0.00
  0
VERTEX
  8
098811-1ROU1_GBR
 10
204.757426
 20
128.25979
 30
0.00
  0
SEQEND
  0
POLYLINE
  8
098811-1ROU1_GBR
 66
1
 10
0.00
 20
0.00
 30
0.00
 40
0.20
 41
0.20
  0
VERTEX
  8
098811-1ROU1_GBR
 10
204.689862
 20
127.811886
 30
0.00
 42
0.0508424
  0
VERTEX
  8
098811-1ROU1_GBR
 10
204.757426
 20
128.25979
 30
0.00
 42
0.00
  0
SEQEND
  0
POLYLINE
  8
098811-1ROU1_GBR
 66
1
 10
0.00
 20
0.00
 30
0.00
 40
0.20
 41
0.20
  0
VERTEX
  8
098811-1ROU1_GBR
 10
204.689862
 20
127.811886
 30
0.00
  0
VERTEX
  8
098811-1ROU1_GBR
 10
204.649832
 20
127.66421
 30
0.00
  0
VERTEX
  8
098811-1ROU1_GBR
 10
204.59982
 20
127.521742
 30
0.00
  0
VERTEX
  8
098811-1ROU1_GBR
 10
204.542264
 20
127.384074
 30
0.00
  0
VERTEX
  8
098811-1ROU1_GBR
 10
204.474648
 20
127.24633
 30
0.00
  0
SEQEND
  0
POLYLINE
  8
098811-1ROU1_GBR
 66
1
 10
0.00
 20
0.00
 30
0.00
 40
0.20
 41
0.20
  0
VERTEX
  8
098811-1ROU1_GBR
 10
204.13434
 20
126.750902
 30
0.00
 42
0.0602235
  0
VERTEX
  8
098811-1ROU1_GBR
 10
204.474632
 20
127.246336
 30
0.00
 42
0.00
  0
SEQEND
  0
POLYLINE
  8
098811-1ROU1_GBR
 66
1
 10
0.00
 20
0.00
 30
0.00
 40
0.20
 41
0.20
  0
VERTEX
  8
098811-1ROU1_GBR
 10
204.13434
 20
126.750902
 30
0.00
  0
VERTEX
  8
098811-1ROU1_GBR
 10
204.029234
 20
126.640768
 30
0.00
  0
VERTEX
  8
098811-1ROU1_GBR
 10
203.9191
 20
126.535662
 30
0.00
  0
VERTEX
  8
098811-1ROU1_GBR
 10
203.804038
 20
126.440616
 30
0.00
  0
SEQEND
  0
POLYLINE
  8
098811-1ROU1_GBR
 66
1
 10
0.00
 20
0.00
 30
0.00
 40
0.20
 41
0.20
  0
VERTEX
  8
098811-1ROU1_GBR
 10
203.005766
 20
126.02017
 30
0.00
 42
0.0896252
  0
VERTEX
  8
098811-1ROU1_GBR
 10
203.804044
 20
126.440608
 30
0.00
 42
0.00
  0
SEQEND
  0
POLYLINE
  8
098811-1ROU1_GBR
 66
1
 10
0.00
 20
0.00
 30
0.00
 40
0.20
 41
0.20
  0
VERTEX
  8
098811-1ROU1_GBR
 10
203.005766
 20
126.02017
 30
0.00
  0
VERTEX
  8
098811-1ROU1_GBR
 10
202.85809
 20
125.98014
 30
0.00
  0
SEQEND
  0
POLYLINE
  8
098811-1ROU1_GBR
 66
1
 10
0.00
 20
0.00
 30
0.00
 40
0.20
 41
0.20
  0
VERTEX
  8
098811-1ROU1_GBR
 10
202.410188
 20
125.912576
 30
0.00
 42
0.0508375
  0
VERTEX
  8
098811-1ROU1_GBR
 10
202.85809
 20
125.980134
 30
0.00
 42
0.00
  0
SEQEND
  0
POLYLINE
  8
098811-1ROU1_GBR
 66
1
 10
0.00
 20
0.00
 30
0.00
 40
0.20
 41
0.20
  0
VERTEX
  8
098811-1ROU1_GBR
 10
202.410188
 20
125.912576
 30
0.00
  0
VERTEX
  8
098811-1ROU1_GBR
 10
202.222456
 20
125.906302
 30
0.00
  0
VERTEX
  8
098811-1ROU1_GBR
 10
202.222456
 20
120.90753
 30
0.00
  0
VERTEX
  8
098811-1ROU1_GBR
 10
97.777528
 20
120.90753
 30
0.00
  0
VERTEX
  8
098811-1ROU1_GBR
 10
97.777528
 20
125.906326
 30
0.00
  0
VERTEX
  8
098811-1ROU1_GBR
 10
97.589772
 20
125.912576
 30
0.00
  0
SEQEND
  0
POLYLINE
  8
098811-1ROU1_GBR
 66
1
 10
0.00
 20
0.00
 30
0.00
 40
0.20
 41
0.20
  0
VERTEX
  8
098811-1ROU1_GBR
 10
97.141868
 20
125.98014
 30
0.00
 42
0.050843
  0
VERTEX
  8
098811-1ROU1_GBR
 10
97.589772
 20
125.912576
 30
0.00
 42
0.00
  0
SEQEND
  0
POLYLINE
  8
098811-1ROU1_GBR
 66
1
 10
0.00
 20
0.00
 30
0.00
 40
0.20
 41
0.20
  0
VERTEX
  8
098811-1ROU1_GBR
 10
97.141868
 20
125.98014
 30
0.00
  0
VERTEX
  8
098811-1ROU1_GBR
 10
96.994192
 20
126.020196
 30
0.00
  0
VERTEX
  8
098811-1ROU1_GBR
 10
96.851724
 20
126.070182
 30
0.00
  0
SEQEND
  0
POLYLINE
  8
098811-1ROU1_GBR
 66
1
 10
0.00
 20
0.00
 30
0.00
 40
0.20
 41
0.20
  0
VERTEX
  8
098811-1ROU1_GBR
 10
96.446214
 20
126.267922
 30
0.00
 42
0.0418507
  0
VERTEX
  8
098811-1ROU1_GBR
 10
96.85172
 20
126.070176
 30
0.00
 42
0.00
  0
SEQEND
  0
POLYLINE
  8
098811-1ROU1_GBR
 66
1
 10
0.00
 20
0.00
 30
0.00
 40
0.20
 41
0.20
  0
VERTEX
  8
098811-1ROU1_GBR
 10
96.446214
 20
126.267922
 30
0.00
  0
VERTEX
  8
098811-1ROU1_GBR
 10
96.318578
 20
126.350496
 30
0.00
  0
VERTEX
  8
098811-1ROU1_GBR
 10
96.195922
 20
126.440616
 30
0.00
  0
VERTEX
  8
098811-1ROU1_GBR
 10
96.080884
 20
126.535662
 30
0.00
  0
VERTEX
  8
098811-1ROU1_GBR
 10
95.97075
 20
126.640768
 30
0.00
  0
VERTEX
  8
098811-1ROU1_GBR
 10
95.865646
 20
126.750902
 30
0.00
  0
VERTEX
  8
098811-1ROU1_GBR
 10
95.770598
 20
126.865964
 30
0.00
  0
SEQEND
  0
POLYLINE
  8
098811-1ROU1_GBR
 66
1
 10
0.00
 20
0.00
 30
0.00
 40
0.20
 41
0.20
  0
VERTEX
  8
098811-1ROU1_GBR
 10
95.525336
 20
127.24638
 30
0.00
 42
0.0466809
  0
VERTEX
  8
098811-1ROU1_GBR
 10
95.770604
 20
126.865968
 30
0.00
 42
0.00
  0
SEQEND
  0
POLYLINE
  8
098811-1ROU1_GBR
 66
1
 10
0.00
 20
0.00
 30
0.00
 40
0.20
 41
0.20
  0
VERTEX
  8
098811-1ROU1_GBR
 10
95.525336
 20
127.24638
 30
0.00
  0
VERTEX
  8
098811-1ROU1_GBR
 10
95.457696
 20
127.384124
 30
0.00
  0
VERTEX
  8
098811-1ROU1_GBR
 10
95.40014
 20
127.521766
 30
0.00
  0
VERTEX
  8
098811-1ROU1_GBR
 10
95.350152
 20
127.664236
 30
0.00
  0
VERTEX
  8
098811-1ROU1_GBR
 10
95.310122
 20
127.81191
 30
0.00
  0
SEQEND
  0
POLYLINE
  8
098811-1ROU1_GBR
 66
1
 10
0.00
 20
0.00
 30
0.00
 40
0.20
 41
0.20
  0
VERTEX
  8
098811-1ROU1_GBR
 10
95.242558
 20
128.259814
 30
0.00
 42
0.0508379
  0
VERTEX
  8
098811-1ROU1_GBR
 10
95.310116
 20
127.811908
 30
0.00
 42
0.00
  0
SEQEND
  0
POLYLINE
  8
098811-1ROU1_GBR
 66
1
 10
0.00
 20
0.00
 30
0.00
 40
0.20
 41
0.20
  0
VERTEX
  8
098811-1ROU1_GBR
 10
95.242558
 20
128.259814
 30
0.00
  0
VERTEX
  8
098811-1ROU1_GBR
 10
95.237528
 20
128.410614
 30
0.00
  0
VERTEX
  8
098811-1ROU1_GBR
 10
95.237528
 20
147.45942
 30
0.00
  0
VERTEX
  8
098811-1ROU1_GBR
 10
95.242558
 20
147.61022
 30
0.00
  0
SEQEND
  0
POLYLINE
  8
098811-1ROU1_GBR
 66
1
 10
0.00
 20
0.00
 30
0.00
 40
0.20
 41
0.20
  0
VERTEX
  8
098811-1ROU1_GBR
 10
95.310122
 20
148.058124
 30
0.00
 42
0.0508424
  0
VERTEX
  8
098811-1ROU1_GBR
 10
95.242558
 20
147.61022
 30
0.00
 42
0.00
  0
SEQEND
  0
POLYLINE
  8
098811-1ROU1_GBR
 66
1
 10
0.00
 20
0.00
 30
0.00
 40
0.20
 41
0.20
  0
VERTEX
  8
098811-1ROU1_GBR
 10
95.310122
 20
148.058124
 30
0.00
  0
VERTEX
  8
098811-1ROU1_GBR
 10
95.350178
 20
148.2058
 30
0.00
  0
VERTEX
  8
098811-1ROU1_GBR
 10
95.400164
 20
148.348268
 30
0.00
  0
VERTEX
  8
098811-1ROU1_GBR
 10
95.457722
 20
148.485936
 30
0.00
  0
VERTEX
  8
098811-1ROU1_GBR
 10
95.525336
 20
148.62368
 30
0.00
  0
SEQEND
  0
POLYLINE
  8
098811-1ROU1_GBR
 66
1
 10
0.00
 20
0.00
 30
0.00
 40
0.20
 41
0.20
  0
VERTEX
  8
098811-1ROU1_GBR
 10
95.865646
 20
149.119108
 30
0.00
 42
0.0602241
  0
VERTEX
  8
098811-1ROU1_GBR
 10
95.52535
 20
148.62367
 30
0.00
 42
0.00
  0
SEQEND
  0
POLYLINE
  8
098811-1ROU1_GBR
 66
1
 10
0.00
 20
0.00
 30
0.00
 40
0.20
 41
0.20
  0
VERTEX
  8
098811-1ROU1_GBR
 10
95.865646
 20
149.119108
 30
0.00
  0
VERTEX
  8
098811-1ROU1_GBR
 10
95.97075
 20
149.229242
 30
0.00
  0
VERTEX
  8
098811-1ROU1_GBR
 10
96.080884
 20
149.334348
 30
0.00
  0
VERTEX
  8
098811-1ROU1_GBR
 10
96.195946
 20
149.429394
 30
0.00
  0
SEQEND
  0
POLYLINE
  8
098811-1ROU1_GBR
 66
1
 10
0.00
 20
0.00
 30
0.00
 40
0.20
 41
0.20
  0
VERTEX
  8
098811-1ROU1_GBR
 10
96.994192
 20
149.849814
 30
0.00
 42
0.0896241
  0
VERTEX
  8
098811-1ROU1_GBR
 10
96.19595
 20
149.429386
 30
0.00
 42
0.00
  0
SEQEND
  0
POLYLINE
  8
098811-1ROU1_GBR
 66
1
 10
0.00
 20
0.00
 30
0.00
 40
0.20
 41
0.20
  0
VERTEX
  8
098811-1ROU1_GBR
 10
96.994192
 20
149.849814
 30
0.00
  0
VERTEX
  8
098811-1ROU1_GBR
 10
97.547988
 20
150.000004
 30
0.00
  0
VERTEX
  8
098811-1ROU1_GBR
 10
96.994192
 20
150.150196
 30
0.00
  0
VERTEX
  8
098811-1ROU1_GBR
 10
96.851724
 20
150.200182
 30
0.00
  0
VERTEX
  8
098811-1ROU1_GBR
 10
96.714056
 20
150.257738
 30
0.00
  0
VERTEX
  8
098811-1ROU1_GBR
 10
96.576312
 20
150.325354
 30
0.00
  0
VERTEX
  8
098811-1ROU1_GBR
 10
96.446214
 20
150.397922
 30
0.00
  0
VERTEX
  8
098811-1ROU1_GBR
 10
96.318578
 20
150.480496
 30
0.00
  0
VERTEX
  8
098811-1ROU1_GBR
 10
96.195922
 20
150.570616
 30
0.00
  0
VERTEX
  8
098811-1ROU1_GBR
 10
96.080884
 20
150.665662
 30
0.00
  0
VERTEX
  8
098811-1ROU1_GBR
 10
95.97075
 20
150.770768
 30
0.00
  0
VERTEX
  8
098811-1ROU1_GBR
 10
95.865646
 20
150.880902
 30
0.00
  0
VERTEX
  8
098811-1ROU1_GBR
 10
95.770598
 20
150.995964
 30
0.00
  0
VERTEX
  8
098811-1ROU1_GBR
 10
95.68048
 20
151.118596
 30
0.00
  0
VERTEX
  8
098811-1ROU1_GBR
 10
95.59793
 20
151.24618
 30
0.00
  0
VERTEX
  8
098811-1ROU1_GBR
 10
95.525336
 20
151.37638
 30
0.00
  0
VERTEX
  8
098811-1ROU1_GBR
 10
95.457696
 20
151.514124
 30
0.00
  0
VERTEX
  8
098811-1ROU1_GBR
 10
95.40014
 20
151.651766
 30
0.00
  0
VERTEX
  8
098811-1ROU1_GBR
 10
95.350152
 20
151.794236
 30
0.00
  0
VERTEX
  8
098811-1ROU1_GBR
 10
95.310122
 20
151.941912
 30
0.00
  0
VERTEX
  8
098811-1ROU1_GBR
 10
95.27756
 20
152.089688
 30
0.00
  0
VERTEX
  8
098811-1ROU1_GBR
 10
95.25508
 20
152.236982
 30
0.00
  0
VERTEX
  8
098811-1ROU1_GBR
 10
95.242558
 20
152.389814
 30
0.00
  0
VERTEX
  8
098811-1ROU1_GBR
 10
95.237528
 20
152.540614
 30
0.00
  0
VERTEX
  8
098811-1ROU1_GBR
 10
95.237528
 20
171.58942
 30
0.00
  0
VERTEX
  8
098811-1ROU1_GBR
 10
95.242558
 20
171.74022
 30
0.00
  0
SEQEND
  0
POLYLINE
  8
098811-1ROU1_GBR
 66
1
 10
0.00
 20
0.00
 30
0.00
 40
0.20
 41
0.20
  0
VERTEX
  8
098811-1ROU1_GBR
 10
95.310122
 20
172.188124
 30
0.00
 42
0.0508424
  0
VERTEX
  8
098811-1ROU1_GBR
 10
95.242558
 20
171.74022
 30
0.00
 42
0.00
  0
SEQEND
  0
POLYLINE
  8
098811-1ROU1_GBR
 66
1
 10
0.00
 20
0.00
 30
0.00
 40
0.20
 41
0.20
  0
VERTEX
  8
098811-1ROU1_GBR
 10
95.310122
 20
172.188124
 30
0.00
  0
VERTEX
  8
098811-1ROU1_GBR
 10
95.350178
 20
172.3358
 30
0.00
  0
VERTEX
  8
098811-1ROU1_GBR
 10
95.400164
 20
172.478268
 30
0.00
  0
VERTEX
  8
098811-1ROU1_GBR
 10
95.457722
 20
172.615936
 30
0.00
  0
VERTEX
  8
098811-1ROU1_GBR
 10
95.525336
 20
172.75368
 30
0.00
  0
SEQEND
  0
POLYLINE
  8
098811-1ROU1_GBR
 66
1
 10
0.00
 20
0.00
 30
0.00
 40
0.20
 41
0.20
  0
VERTEX
  8
098811-1ROU1_GBR
 10
95.865646
 20
173.249108
 30
0.00
 42
0.0602241
  0
VERTEX
  8
098811-1ROU1_GBR
 10
95.52535
 20
172.75367
 30
0.00
 42
0.00
  0
SEQEND
  0
POLYLINE
  8
098811-1ROU1_GBR
 66
1
 10
0.00
 20
0.00
 30
0.00
 40
0.20
 41
0.20
  0
VERTEX
  8
098811-1ROU1_GBR
 10
95.865646
 20
173.249108
 30
0.00
  0
VERTEX
  8
098811-1ROU1_GBR
 10
95.97075
 20
173.359242
 30
0.00
  0
VERTEX
  8
098811-1ROU1_GBR
 10
96.080884
 20
173.464348
 30
0.00
  0
VERTEX
  8
098811-1ROU1_GBR
 10
96.195946
 20
173.559394
 30
0.00
  0
SEQEND
  0
POLYLINE
  8
098811-1ROU1_GBR
 66
1
 10
0.00
 20
0.00
 30
0.00
 40
0.20
 41
0.20
  0
VERTEX
  8
098811-1ROU1_GBR
 10
96.994218
 20
173.97984
 30
0.00
 42
0.0896252
  0
VERTEX
  8
098811-1ROU1_GBR
 10
96.19594
 20
173.5594
 30
0.00
 42
0.00
  0
SEQEND
  0
POLYLINE
  8
098811-1ROU1_GBR
 66
1
 10
0.00
 20
0.00
 30
0.00
 40
0.20
 41
0.20
  0
VERTEX
  8
098811-1ROU1_GBR
 10
96.994218
 20
173.97984
 30
0.00
  0
VERTEX
  8
098811-1ROU1_GBR
 10
97.141894
 20
174.01987
 30
0.00
  0
SEQEND
  0
POLYLINE
  8
098811-1ROU1_GBR
 66
1
 10
0.00
 20
0.00
 30
0.00
 40
0.20
 41
0.20
  0
VERTEX
  8
098811-1ROU1_GBR
 10
97.589798
 20
174.087434
 30
0.00
 42
0.050838
  0
VERTEX
  8
098811-1ROU1_GBR
 10
97.141892
 20
174.019874
 30
0.00
 42
0.00
  0
SEQEND
  0
POLYLINE
  8
098811-1ROU1_GBR
 66
1
 10
0.00
 20
0.00
 30
0.00
 40
0.20
 41
0.20
  0
VERTEX
  8
098811-1ROU1_GBR
 10
97.589798
 20
174.087434
 30
0.00
  0
VERTEX
  8
098811-1ROU1_GBR
 10
97.777528
 20
174.093708
 30
0.00
  0
VERTEX
  8
098811-1ROU1_GBR
 10
97.777528
 20
179.092454
 30
0.00
  0
VERTEX
  8
098811-1ROU1_GBR
 10
202.222456
 20
179.092454
 30
0.00
  0
SEQEND
  0
ENDSEC
  0
EOF
