  0
SECTION
  2
HEADER
  9
$EXTMIN
 10
-258.359834
 20
-58.010602
 30
0.00
  9
$EXTMAX
 10
470.00
 20
419.20
 30
0.00
  0
ENDSEC
  0
SECTION
  2
TABLES
  0
TABLE
  2
LTYPE
 70
3
  0
LTYPE
  2
BYBLOCK
 70
0
  3

 72
65
 73
0
 40
0.00
  0
LTYPE
  2
BYLAYER
 70
0
  3

 72
65
 73
0
 40
0.00
  0
LTYPE
  2
CONTINUOUS
 70
0
  3
Solid line
 72
65
 73
0
 40
0.00
  0
ENDTAB
  0
TABLE
  2
LAYER
 70
99
  0
LAYER
  2
0
 70
0
 62
7
  6
CONTINUOUS
  0
LAYER
  2
020671-1ROU1_GBR
 70
0
 62
7
  6
CONTINUOUS
  0
LAYER
  2
027417-3ROU1_GBR
 70
0
 62
7
  6
CONTINUOUS
  0
LAYER
  2
027419-1ROU1_GBR
 70
0
 62
2
  6
CONTINUOUS
  0
LAYER
  2
027419-2ROU1_GBR
 70
0
 62
6
  6
CONTINUOUS
  0
LAYER
  2
027674-1ROU1_GBR
 70
0
 62
1
  6
CONTINUOUS
  0
LAYER
  2
027676-1ROU1_GBR
 70
0
 62
4
  6
CONTINUOUS
  0
LAYER
  2
027678-3ROU1_GBR
 70
0
 62
3
  6
CONTINUOUS
  0
LAYER
  2
028122-1ROU1_GBR
 70
0
 62
5
  6
CONTINUOUS
  0
LAYER
  2
028124-5ROU1_GBR
 70
0
 62
10
  6
CONTINUOUS
  0
LAYER
  2
028126-1ROU1_GBR
 70
0
 62
14
  6
CONTINUOUS
  0
LAYER
  2
028126-3ROU1_GBR
 70
0
 62
9
  6
CONTINUOUS
  0
LAYER
  2
028126-6ROU1_GBR
 70
0
 62
12
  6
CONTINUOUS
  0
LAYER
  2
028126-7ROU1_GBR
 70
0
 62
11
  6
CONTINUOUS
  0
LAYER
  2
028129-1ROU1_GBR
 70
0
 62
13
  6
CONTINUOUS
  0
LAYER
  2
028130-1ROU1_GBR
 70
0
 62
8
  6
CONTINUOUS
  0
LAYER
  2
028130-4ROU1_GBR
 70
0
 62
15
  6
CONTINUOUS
  0
LAYER
  2
028130-5ROU1_GBR
 70
0
 62
7
  6
CONTINUOUS
  0
LAYER
  2
028130-7ROU1_GBR
 70
0
 62
7
  6
CONTINUOUS
  0
LAYER
  2
028655-1ROU1_GBR
 70
0
 62
2
  6
CONTINUOUS
  0
LAYER
  2
028657-1ROU1_GBR
 70
0
 62
6
  6
CONTINUOUS
  0
LAYER
  2
028659-2ROU1_GBR
 70
0
 62
1
  6
CONTINUOUS
  0
LAYER
  2
028659-4ROU1_GBR
 70
0
 62
4
  6
CONTINUOUS
  0
LAYER
  2
028661-1ROU1_GBR
 70
0
 62
3
  6
CONTINUOUS
  0
LAYER
  2
028663-1ROU1_GBR
 70
0
 62
5
  6
CONTINUOUS
  0
LAYER
  2
028665-1ROU1_GBR
 70
0
 62
10
  6
CONTINUOUS
  0
LAYER
  2
028669-1ROU1_GBR
 70
0
 62
14
  6
CONTINUOUS
  0
LAYER
  2
028673-2ROU1_GBR
 70
0
 62
9
  6
CONTINUOUS
  0
LAYER
  2
037088-3ROU1_GBR
 70
0
 62
12
  6
CONTINUOUS
  0
LAYER
  2
037682-1ROU1_GBR
 70
0
 62
11
  6
CONTINUOUS
  0
LAYER
  2
037686-1ROU1_GBR
 70
0
 62
13
  6
CONTINUOUS
  0
LAYER
  2
037688-1ROU1_GBR
 70
0
 62
8
  6
CONTINUOUS
  0
LAYER
  2
038681-1ROU1_GBR
 70
0
 62
15
  6
CONTINUOUS
  0
LAYER
  2
038683-1ROU1_GBR
 70
0
 62
7
  6
CONTINUOUS
  0
LAYER
  2
038683-2ROU1_GBR
 70
0
 62
7
  6
CONTINUOUS
  0
LAYER
  2
038685-1ROU1_GBR
 70
0
 62
2
  6
CONTINUOUS
  0
LAYER
  2
038689-1ROU1_GBR
 70
0
 62
6
  6
CONTINUOUS
  0
LAYER
  2
038689-2ROU1_GBR
 70
0
 62
1
  6
CONTINUOUS
  0
LAYER
  2
038691-1ROU1_GBR
 70
0
 62
4
  6
CONTINUOUS
  0
LAYER
  2
038691-2ROU1_GBR
 70
0
 62
3
  6
CONTINUOUS
  0
LAYER
  2
038691-3ROU1_GBR
 70
0
 62
5
  6
CONTINUOUS
  0
LAYER
  2
038691-4ROU1_GBR
 70
0
 62
10
  6
CONTINUOUS
  0
LAYER
  2
038693-1ROU1_GBR
 70
0
 62
14
  6
CONTINUOUS
  0
LAYER
  2
038695-1ROU1_GBR
 70
0
 62
9
  6
CONTINUOUS
  0
LAYER
  2
038697-1ROU1_GBR
 70
0
 62
12
  6
CONTINUOUS
  0
LAYER
  2
038697-3ROU1_GBR
 70
0
 62
11
  6
CONTINUOUS
  0
LAYER
  2
038697-4ROU1_GBR
 70
0
 62
13
  6
CONTINUOUS
  0
LAYER
  2
038697-5ROU1_GBR
 70
0
 62
8
  6
CONTINUOUS
  0
LAYER
  2
047706-4ROU1_GBR
 70
0
 62
15
  6
CONTINUOUS
  0
LAYER
  2
047706-5ROU1_GBR
 70
0
 62
7
  6
CONTINUOUS
  0
LAYER
  2
047706-6ROU1_GBR
 70
0
 62
7
  6
CONTINUOUS
  0
LAYER
  2
047708-1ROU1_GBR
 70
0
 62
2
  6
CONTINUOUS
  0
LAYER
  2
047710-1ROU1_GBR
 70
0
 62
6
  6
CONTINUOUS
  0
LAYER
  2
047712-1ROU1_GBR
 70
0
 62
1
  6
CONTINUOUS
  0
LAYER
  2
047714-2ROU1_GBR
 70
0
 62
4
  6
CONTINUOUS
  0
LAYER
  2
048701-1ROU1_GBR
 70
0
 62
3
  6
CONTINUOUS
  0
LAYER
  2
048703-1ROU1_GBR
 70
0
 62
10
  6
CONTINUOUS
  0
LAYER
  2
048711-1ROU1_GBR
 70
0
 62
14
  6
CONTINUOUS
  0
LAYER
  2
048715-1ROU1_GBR
 70
0
 62
9
  6
CONTINUOUS
  0
LAYER
  2
058721-2ROU1_GBR
 70
0
 62
12
  6
CONTINUOUS
  0
LAYER
  2
058723-10ROU1_GBR
 70
0
 62
11
  6
CONTINUOUS
  0
LAYER
  2
058723-1ROU1_GBR
 70
0
 62
13
  6
CONTINUOUS
  0
LAYER
  2
058723-6ROU1_GBR
 70
0
 62
8
  6
CONTINUOUS
  0
LAYER
  2
058723-9ROU1_GBR
 70
0
 62
15
  6
CONTINUOUS
  0
LAYER
  2
067601-1ROU1_GBR
 70
0
 62
7
  6
CONTINUOUS
  0
LAYER
  2
068162-1ROU1_GBR
 70
0
 62
7
  6
CONTINUOUS
  0
LAYER
  2
068162-3ROU1_GBR
 70
0
 62
2
  6
CONTINUOUS
  0
LAYER
  2
068162-4ROU1_GBR
 70
0
 62
6
  6
CONTINUOUS
  0
LAYER
  2
077742-1ROU1_GBR
 70
0
 62
1
  6
CONTINUOUS
  0
LAYER
  2
078731-1ROU1_GBR
 70
0
 62
4
  6
CONTINUOUS
  0
LAYER
  2
078735-3ROU1_GBR
 70
0
 62
3
  6
CONTINUOUS
  0
LAYER
  2
078739-1ROU1_GBR
 70
0
 62
5
  6
CONTINUOUS
  0
LAYER
  2
078753-1ROU1_GBR
 70
0
 62
10
  6
CONTINUOUS
  0
LAYER
  2
078757-1ROU1_GBR
 70
0
 62
14
  6
CONTINUOUS
  0
LAYER
  2
087768-2ROU1_GBR
 70
0
 62
9
  6
CONTINUOUS
  0
LAYER
  2
087772-1ROU1_GBR
 70
0
 62
12
  6
CONTINUOUS
  0
LAYER
  2
087780-1ROU1_GBR
 70
0
 62
11
  6
CONTINUOUS
  0
LAYER
  2
087782-9ROU1_GBR
 70
0
 62
13
  6
CONTINUOUS
  0
LAYER
  2
088783-4ROU1_GBR
 70
0
 62
8
  6
CONTINUOUS
  0
LAYER
  2
088785-1ROU1_GBR
 70
0
 62
15
  6
CONTINUOUS
  0
LAYER
  2
097800-6ROU1_GBR
 70
0
 62
7
  6
CONTINUOUS
  0
LAYER
  2
097810-1ROU1_GBR
 70
0
 62
7
  6
CONTINUOUS
  0
LAYER
  2
098787-1ROU1_GBR
 70
0
 62
2
  6
CONTINUOUS
  0
LAYER
  2
098787-2ROU1_GBR
 70
0
 62
6
  6
CONTINUOUS
  0
LAYER
  2
098789-1ROU1_GBR
 70
0
 62
1
  6
CONTINUOUS
  0
LAYER
  2
098811-1ROU1_GBR
 70
0
 62
4
  6
CONTINUOUS
  0
LAYER
  2
098815-1ROU1_GBR
 70
0
 62
3
  6
CONTINUOUS
  0
LAYER
  2
098815-2ROU1_GBR
 70
0
 62
5
  6
CONTINUOUS
  0
LAYER
  2
107824-1ROU1_GBR
 70
0
 62
10
  6
CONTINUOUS
  0
LAYER
  2
118200-1ROU1_GBR
 70
0
 62
14
  6
CONTINUOUS
  0
LAYER
  2
257017-1ROU1_GBR
 70
0
 62
9
  6
CONTINUOUS
  0
LAYER
  2
268076-7ROU1_GBR
 70
0
 62
12
  6
CONTINUOUS
  0
LAYER
  2
288088-1ROU1_GBR
 70
0
 62
11
  6
CONTINUOUS
  0
LAYER
  2
307251-1ROU1_GBR
 70
0
 62
13
  6
CONTINUOUS
  0
LAYER
  2
307273-4ROU1_GBR
 70
0
 62
8
  6
CONTINUOUS
  0
LAYER
  2
307283-1ROU1_GBR
 70
0
 62
15
  6
CONTINUOUS
  0
LAYER
  2
307291-1ROU1_GBR
 70
0
 62
7
  6
CONTINUOUS
  0
LAYER
  2
308108-1ROU1_GBR
 70
0
 62
7
  6
CONTINUOUS
  0
LAYER
  2
308111-1ROU1_GBR
 70
0
 62
2
  6
CONTINUOUS
  0
LAYER
  2
308112-1ROU1_GBR
 70
0
 62
6
  6
CONTINUOUS
  0
ENDTAB
  0
TABLE
  2
STYLE
 70
0
  0
ENDTAB
  0
ENDSEC
  0
SECTION
  2
BLOCKS
  0
BLOCK
  2
ROUND_1
  3
ROUND_1
 70
64
 10
0.00
 20
0.00
 30
0.00
  0
CIRCLE
  8
0
 10
0.00
 20
0.00
 30
0.00
 40
0.10
  0
ENDBLK
  0
ENDSEC
  0
SECTION
  2
ENTITIES
  0
POLYLINE
  8
118200-1ROU1_GBR
 66
1
 10
0.00
 20
0.00
 30
0.00
 40
0.20
 41
0.20
  0
VERTEX
  8
118200-1ROU1_GBR
 10
395.96121
 20
293.397712
 30
0.00
  0
VERTEX
  8
118200-1ROU1_GBR
 10
395.96121
 20
287.373696
 30
0.00
  0
VERTEX
  8
118200-1ROU1_GBR
 10
382.7288
 20
287.373696
 30
0.00
  0
VERTEX
  8
118200-1ROU1_GBR
 10
382.7288
 20
283.399306
 30
0.00
  0
VERTEX
  8
118200-1ROU1_GBR
 10
385.359198
 20
283.399306
 30
0.00
  0
VERTEX
  8
118200-1ROU1_GBR
 10
385.618
 20
283.433394
 30
0.00
  0
VERTEX
  8
118200-1ROU1_GBR
 10
385.859198
 20
283.533292
 30
0.00
  0
VERTEX
  8
118200-1ROU1_GBR
 10
386.06631
 20
283.692194
 30
0.00
  0
VERTEX
  8
118200-1ROU1_GBR
 10
386.225212
 20
283.899306
 30
0.00
  0
VERTEX
  8
118200-1ROU1_GBR
 10
386.32511
 20
284.140504
 30
0.00
  0
VERTEX
  8
118200-1ROU1_GBR
 10
386.359196
 20
284.399304
 30
0.00
  0
VERTEX
  8
118200-1ROU1_GBR
 10
386.359196
 20
284.899304
 30
0.00
  0
VERTEX
  8
118200-1ROU1_GBR
 10
386.4261
 20
285.14929
 30
0.00
  0
VERTEX
  8
118200-1ROU1_GBR
 10
386.60921
 20
285.332298
 30
0.00
  0
VERTEX
  8
118200-1ROU1_GBR
 10
386.859196
 20
285.399302
 30
0.00
  0
VERTEX
  8
118200-1ROU1_GBR
 10
391.859212
 20
285.399302
 30
0.00
  0
VERTEX
  8
118200-1ROU1_GBR
 10
392.109198
 20
285.332298
 30
0.00
  0
VERTEX
  8
118200-1ROU1_GBR
 10
392.292206
 20
285.14929
 30
0.00
  0
VERTEX
  8
118200-1ROU1_GBR
 10
392.35921
 20
284.899304
 30
0.00
  0
VERTEX
  8
118200-1ROU1_GBR
 10
392.35921
 20
278.949302
 30
0.00
  0
VERTEX
  8
118200-1ROU1_GBR
 10
392.393196
 20
278.690502
 30
0.00
  0
VERTEX
  8
118200-1ROU1_GBR
 10
392.493196
 20
278.449304
 30
0.00
  0
VERTEX
  8
118200-1ROU1_GBR
 10
392.652098
 20
278.242192
 30
0.00
  0
VERTEX
  8
118200-1ROU1_GBR
 10
392.85921
 20
278.08329
 30
0.00
  0
VERTEX
  8
118200-1ROU1_GBR
 10
393.100408
 20
277.983392
 30
0.00
  0
VERTEX
  8
118200-1ROU1_GBR
 10
393.359234
 20
277.949304
 30
0.00
  0
VERTEX
  8
118200-1ROU1_GBR
 10
393.559208
 20
277.949304
 30
0.00
  0
VERTEX
  8
118200-1ROU1_GBR
 10
393.809194
 20
277.8823
 30
0.00
  0
VERTEX
  8
118200-1ROU1_GBR
 10
393.992202
 20
277.699292
 30
0.00
  0
VERTEX
  8
118200-1ROU1_GBR
 10
394.059206
 20
277.449306
 30
0.00
  0
VERTEX
  8
118200-1ROU1_GBR
 10
394.059206
 20
273.954342
 30
0.00
  0
VERTEX
  8
118200-1ROU1_GBR
 10
393.992202
 20
273.6993
 30
0.00
  0
VERTEX
  8
118200-1ROU1_GBR
 10
393.809194
 20
273.516294
 30
0.00
  0
VERTEX
  8
118200-1ROU1_GBR
 10
393.559208
 20
273.449288
 30
0.00
  0
VERTEX
  8
118200-1ROU1_GBR
 10
393.359208
 20
273.449288
 30
0.00
  0
VERTEX
  8
118200-1ROU1_GBR
 10
393.100408
 20
273.415202
 30
0.00
  0
VERTEX
  8
118200-1ROU1_GBR
 10
392.85921
 20
273.315304
 30
0.00
  0
VERTEX
  8
118200-1ROU1_GBR
 10
392.652098
 20
273.1564
 30
0.00
  0
VERTEX
  8
118200-1ROU1_GBR
 10
392.493196
 20
272.94929
 30
0.00
  0
VERTEX
  8
118200-1ROU1_GBR
 10
392.393196
 20
272.70809
 30
0.00
  0
VERTEX
  8
118200-1ROU1_GBR
 10
392.35921
 20
272.44929
 30
0.00
  0
VERTEX
  8
118200-1ROU1_GBR
 10
392.35921
 20
220.699304
 30
0.00
  0
VERTEX
  8
118200-1ROU1_GBR
 10
392.393196
 20
220.440504
 30
0.00
  0
VERTEX
  8
118200-1ROU1_GBR
 10
392.493196
 20
220.199306
 30
0.00
  0
VERTEX
  8
118200-1ROU1_GBR
 10
392.652098
 20
219.992194
 30
0.00
  0
VERTEX
  8
118200-1ROU1_GBR
 10
392.85921
 20
219.833292
 30
0.00
  0
VERTEX
  8
118200-1ROU1_GBR
 10
393.100408
 20
219.733394
 30
0.00
  0
VERTEX
  8
118200-1ROU1_GBR
 10
393.359234
 20
219.699306
 30
0.00
  0
VERTEX
  8
118200-1ROU1_GBR
 10
395.559204
 20
219.699306
 30
0.00
  0
VERTEX
  8
118200-1ROU1_GBR
 10
395.80919
 20
219.632302
 30
0.00
  0
VERTEX
  8
118200-1ROU1_GBR
 10
395.992198
 20
219.449294
 30
0.00
  0
VERTEX
  8
118200-1ROU1_GBR
 10
396.059202
 20
219.199308
 30
0.00
  0
VERTEX
  8
118200-1ROU1_GBR
 10
396.059202
 20
214.199292
 30
0.00
  0
VERTEX
  8
118200-1ROU1_GBR
 10
395.992198
 20
213.949306
 30
0.00
  0
VERTEX
  8
118200-1ROU1_GBR
 10
395.80919
 20
213.766298
 30
0.00
  0
VERTEX
  8
118200-1ROU1_GBR
 10
395.559204
 20
213.699294
 30
0.00
  0
VERTEX
  8
118200-1ROU1_GBR
 10
395.05923
 20
213.699294
 30
0.00
  0
VERTEX
  8
118200-1ROU1_GBR
 10
394.800404
 20
213.665206
 30
0.00
  0
VERTEX
  8
118200-1ROU1_GBR
 10
394.559206
 20
213.565308
 30
0.00
  0
VERTEX
  8
118200-1ROU1_GBR
 10
394.352094
 20
213.406406
 30
0.00
  0
VERTEX
  8
118200-1ROU1_GBR
 10
394.19309
 20
213.199294
 30
0.00
  0
VERTEX
  8
118200-1ROU1_GBR
 10
394.093294
 20
212.958122
 30
0.00
  0
VERTEX
  8
118200-1ROU1_GBR
 10
394.059206
 20
212.69927
 30
0.00
  0
VERTEX
  8
118200-1ROU1_GBR
 10
394.059206
 20
207.949292
 30
0.00
  0
VERTEX
  8
118200-1ROU1_GBR
 10
393.992202
 20
207.699306
 30
0.00
  0
VERTEX
  8
118200-1ROU1_GBR
 10
393.809194
 20
207.516298
 30
0.00
  0
VERTEX
  8
118200-1ROU1_GBR
 10
393.559208
 20
207.449292
 30
0.00
  0
VERTEX
  8
118200-1ROU1_GBR
 10
393.359208
 20
207.449292
 30
0.00
  0
VERTEX
  8
118200-1ROU1_GBR
 10
393.100408
 20
207.415206
 30
0.00
  0
VERTEX
  8
118200-1ROU1_GBR
 10
392.85921
 20
207.315308
 30
0.00
  0
VERTEX
  8
118200-1ROU1_GBR
 10
392.652098
 20
207.156406
 30
0.00
  0
VERTEX
  8
118200-1ROU1_GBR
 10
392.493196
 20
206.949294
 30
0.00
  0
VERTEX
  8
118200-1ROU1_GBR
 10
392.393196
 20
206.708096
 30
0.00
  0
VERTEX
  8
118200-1ROU1_GBR
 10
392.35921
 20
206.449294
 30
0.00
  0
VERTEX
  8
118200-1ROU1_GBR
 10
392.35921
 20
202.52431
 30
0.00
  0
VERTEX
  8
118200-1ROU1_GBR
 10
390.05919
 20
200.799294
 30
0.00
  0
VERTEX
  8
118200-1ROU1_GBR
 10
382.724406
 20
200.799294
 30
0.00
  0
VERTEX
  8
118200-1ROU1_GBR
 10
382.724406
 20
196.794908
 30
0.00
  0
VERTEX
  8
118200-1ROU1_GBR
 10
385.354804
 20
196.794908
 30
0.00
  0
VERTEX
  8
118200-1ROU1_GBR
 10
385.613606
 20
196.828994
 30
0.00
  0
VERTEX
  8
118200-1ROU1_GBR
 10
385.854804
 20
196.928892
 30
0.00
  0
VERTEX
  8
118200-1ROU1_GBR
 10
386.06189
 20
197.087794
 30
0.00
  0
VERTEX
  8
118200-1ROU1_GBR
 10
386.220792
 20
197.294906
 30
0.00
  0
VERTEX
  8
118200-1ROU1_GBR
 10
386.32069
 20
197.536104
 30
0.00
  0
VERTEX
  8
118200-1ROU1_GBR
 10
386.354802
 20
197.794906
 30
0.00
  0
VERTEX
  8
118200-1ROU1_GBR
 10
386.354802
 20
198.294904
 30
0.00
  0
VERTEX
  8
118200-1ROU1_GBR
 10
386.421808
 20
198.544892
 30
0.00
  0
VERTEX
  8
118200-1ROU1_GBR
 10
386.60479
 20
198.727898
 30
0.00
  0
VERTEX
  8
118200-1ROU1_GBR
 10
386.848172
 20
198.793126
 30
0.00
  0
VERTEX
  8
118200-1ROU1_GBR
 10
386.861532
 20
198.794904
 30
0.00
  0
VERTEX
  8
118200-1ROU1_GBR
 10
391.849762
 20
198.794904
 30
0.00
  0
VERTEX
  8
118200-1ROU1_GBR
 10
392.104804
 20
198.727898
 30
0.00
  0
VERTEX
  8
118200-1ROU1_GBR
 10
392.28781
 20
198.544892
 30
0.00
  0
VERTEX
  8
118200-1ROU1_GBR
 10
392.35479
 20
198.294904
 30
0.00
  0
VERTEX
  8
118200-1ROU1_GBR
 10
392.35479
 20
192.344904
 30
0.00
  0
VERTEX
  8
118200-1ROU1_GBR
 10
392.388902
 20
192.086104
 30
0.00
  0
VERTEX
  8
118200-1ROU1_GBR
 10
392.4887
 20
191.844904
 30
0.00
  0
VERTEX
  8
118200-1ROU1_GBR
 10
392.647704
 20
191.637794
 30
0.00
  0
VERTEX
  8
118200-1ROU1_GBR
 10
392.85479
 20
191.47889
 30
0.00
  0
VERTEX
  8
118200-1ROU1_GBR
 10
393.095912
 20
191.378992
 30
0.00
  0
VERTEX
  8
118200-1ROU1_GBR
 10
393.354788
 20
191.344906
 30
0.00
  0
VERTEX
  8
118200-1ROU1_GBR
 10
393.54976
 20
191.344906
 30
0.00
  0
VERTEX
  8
118200-1ROU1_GBR
 10
393.8048
 20
191.2779
 30
0.00
  0
VERTEX
  8
118200-1ROU1_GBR
 10
393.987808
 20
191.094894
 30
0.00
  0
VERTEX
  8
118200-1ROU1_GBR
 10
394.054812
 20
190.844906
 30
0.00
  0
VERTEX
  8
118200-1ROU1_GBR
 10
394.054812
 20
187.344888
 30
0.00
  0
VERTEX
  8
118200-1ROU1_GBR
 10
393.987808
 20
187.094902
 30
0.00
  0
VERTEX
  8
118200-1ROU1_GBR
 10
393.8048
 20
186.911894
 30
0.00
  0
VERTEX
  8
118200-1ROU1_GBR
 10
393.561418
 20
186.846668
 30
0.00
  0
VERTEX
  8
118200-1ROU1_GBR
 10
393.548058
 20
186.84489
 30
0.00
  0
VERTEX
  8
118200-1ROU1_GBR
 10
393.354788
 20
186.84489
 30
0.00
  0
VERTEX
  8
118200-1ROU1_GBR
 10
393.095912
 20
186.810802
 30
0.00
  0
VERTEX
  8
118200-1ROU1_GBR
 10
392.85479
 20
186.710904
 30
0.00
  0
VERTEX
  8
118200-1ROU1_GBR
 10
392.647704
 20
186.552002
 30
0.00
  0
VERTEX
  8
118200-1ROU1_GBR
 10
392.4887
 20
186.34489
 30
0.00
  0
VERTEX
  8
118200-1ROU1_GBR
 10
392.388902
 20
186.103692
 30
0.00
  0
VERTEX
  8
118200-1ROU1_GBR
 10
392.35479
 20
185.844892
 30
0.00
  0
VERTEX
  8
118200-1ROU1_GBR
 10
392.35479
 20
134.094906
 30
0.00
  0
VERTEX
  8
118200-1ROU1_GBR
 10
392.388902
 20
133.836106
 30
0.00
  0
VERTEX
  8
118200-1ROU1_GBR
 10
392.4887
 20
133.594906
 30
0.00
  0
VERTEX
  8
118200-1ROU1_GBR
 10
392.647704
 20
133.387796
 30
0.00
  0
VERTEX
  8
118200-1ROU1_GBR
 10
392.85479
 20
133.228892
 30
0.00
  0
VERTEX
  8
118200-1ROU1_GBR
 10
393.095912
 20
133.128994
 30
0.00
  0
VERTEX
  8
118200-1ROU1_GBR
 10
393.354788
 20
133.094908
 30
0.00
  0
VERTEX
  8
118200-1ROU1_GBR
 10
395.55481
 20
133.094908
 30
0.00
  0
VERTEX
  8
118200-1ROU1_GBR
 10
395.804796
 20
133.027902
 30
0.00
  0
VERTEX
  8
118200-1ROU1_GBR
 10
395.987804
 20
132.844896
 30
0.00
  0
VERTEX
  8
118200-1ROU1_GBR
 10
396.054808
 20
132.594908
 30
0.00
  0
VERTEX
  8
118200-1ROU1_GBR
 10
396.054808
 20
127.594894
 30
0.00
  0
VERTEX
  8
118200-1ROU1_GBR
 10
395.987804
 20
127.344906
 30
0.00
  0
VERTEX
  8
118200-1ROU1_GBR
 10
395.804796
 20
127.1619
 30
0.00
  0
VERTEX
  8
118200-1ROU1_GBR
 10
395.55481
 20
127.094894
 30
0.00
  0
VERTEX
  8
118200-1ROU1_GBR
 10
395.05481
 20
127.094894
 30
0.00
  0
VERTEX
  8
118200-1ROU1_GBR
 10
394.79601
 20
127.060808
 30
0.00
  0
VERTEX
  8
118200-1ROU1_GBR
 10
394.554812
 20
126.96091
 30
0.00
  0
VERTEX
  8
118200-1ROU1_GBR
 10
394.3477
 20
126.802008
 30
0.00
  0
VERTEX
  8
118200-1ROU1_GBR
 10
394.188798
 20
126.594896
 30
0.00
  0
VERTEX
  8
118200-1ROU1_GBR
 10
394.088798
 20
126.353696
 30
0.00
  0
VERTEX
  8
118200-1ROU1_GBR
 10
394.054812
 20
126.094896
 30
0.00
  0
VERTEX
  8
118200-1ROU1_GBR
 10
394.054812
 20
121.344894
 30
0.00
  0
VERTEX
  8
118200-1ROU1_GBR
 10
393.987808
 20
121.094906
 30
0.00
  0
VERTEX
  8
118200-1ROU1_GBR
 10
393.8048
 20
120.9119
 30
0.00
  0
VERTEX
  8
118200-1ROU1_GBR
 10
393.561418
 20
120.846672
 30
0.00
  0
VERTEX
  8
118200-1ROU1_GBR
 10
393.548058
 20
120.844894
 30
0.00
  0
VERTEX
  8
118200-1ROU1_GBR
 10
393.354788
 20
120.844894
 30
0.00
  0
VERTEX
  8
118200-1ROU1_GBR
 10
393.095912
 20
120.810808
 30
0.00
  0
VERTEX
  8
118200-1ROU1_GBR
 10
392.85479
 20
120.71091
 30
0.00
  0
VERTEX
  8
118200-1ROU1_GBR
 10
392.647704
 20
120.552006
 30
0.00
  0
VERTEX
  8
118200-1ROU1_GBR
 10
392.4887
 20
120.344896
 30
0.00
  0
VERTEX
  8
118200-1ROU1_GBR
 10
392.388902
 20
120.103696
 30
0.00
  0
VERTEX
  8
118200-1ROU1_GBR
 10
392.35479
 20
119.844896
 30
0.00
  0
VERTEX
  8
118200-1ROU1_GBR
 10
392.35479
 20
115.91991
 30
0.00
  0
VERTEX
  8
118200-1ROU1_GBR
 10
390.054796
 20
114.194894
 30
0.00
  0
VERTEX
  8
118200-1ROU1_GBR
 10
382.724406
 20
114.194894
 30
0.00
  0
VERTEX
  8
118200-1ROU1_GBR
 10
382.724406
 20
112.246892
 30
0.00
  0
VERTEX
  8
118200-1ROU1_GBR
 10
395.966798
 20
112.246892
 30
0.00
  0
VERTEX
  8
118200-1ROU1_GBR
 10
395.966798
 20
106.222902
 30
0.00
  0
VERTEX
  8
118200-1ROU1_GBR
 10
223.1708
 20
106.222902
 30
0.00
  0
VERTEX
  8
118200-1ROU1_GBR
 10
223.1708
 20
112.216896
 30
0.00
  0
VERTEX
  8
118200-1ROU1_GBR
 10
236.694396
 20
112.216896
 30
0.00
  0
VERTEX
  8
118200-1ROU1_GBR
 10
236.694396
 20
114.194894
 30
0.00
  0
VERTEX
  8
118200-1ROU1_GBR
 10
229.154812
 20
114.194894
 30
0.00
  0
VERTEX
  8
118200-1ROU1_GBR
 10
226.854792
 20
115.91991
 30
0.00
  0
VERTEX
  8
118200-1ROU1_GBR
 10
226.854792
 20
119.844896
 30
0.00
  0
VERTEX
  8
118200-1ROU1_GBR
 10
226.820704
 20
120.103696
 30
0.00
  0
VERTEX
  8
118200-1ROU1_GBR
 10
226.720806
 20
120.344896
 30
0.00
  0
VERTEX
  8
118200-1ROU1_GBR
 10
226.561904
 20
120.552006
 30
0.00
  0
VERTEX
  8
118200-1ROU1_GBR
 10
226.354792
 20
120.71091
 30
0.00
  0
VERTEX
  8
118200-1ROU1_GBR
 10
226.113594
 20
120.810808
 30
0.00
  0
VERTEX
  8
118200-1ROU1_GBR
 10
225.854794
 20
120.844894
 30
0.00
  0
VERTEX
  8
118200-1ROU1_GBR
 10
225.654794
 20
120.844894
 30
0.00
  0
VERTEX
  8
118200-1ROU1_GBR
 10
225.404808
 20
120.9119
 30
0.00
  0
VERTEX
  8
118200-1ROU1_GBR
 10
225.2218
 20
121.094906
 30
0.00
  0
VERTEX
  8
118200-1ROU1_GBR
 10
225.154794
 20
121.344894
 30
0.00
  0
VERTEX
  8
118200-1ROU1_GBR
 10
225.154794
 20
126.094896
 30
0.00
  0
VERTEX
  8
118200-1ROU1_GBR
 10
225.120708
 20
126.353696
 30
0.00
  0
VERTEX
  8
118200-1ROU1_GBR
 10
225.02081
 20
126.594896
 30
0.00
  0
VERTEX
  8
118200-1ROU1_GBR
 10
224.861908
 20
126.802008
 30
0.00
  0
VERTEX
  8
118200-1ROU1_GBR
 10
224.654796
 20
126.96091
 30
0.00
  0
VERTEX
  8
118200-1ROU1_GBR
 10
224.413598
 20
127.060808
 30
0.00
  0
VERTEX
  8
118200-1ROU1_GBR
 10
224.154796
 20
127.094894
 30
0.00
  0
VERTEX
  8
118200-1ROU1_GBR
 10
223.654798
 20
127.094894
 30
0.00
  0
VERTEX
  8
118200-1ROU1_GBR
 10
223.404812
 20
127.1619
 30
0.00
  0
VERTEX
  8
118200-1ROU1_GBR
 10
223.221804
 20
127.344906
 30
0.00
  0
VERTEX
  8
118200-1ROU1_GBR
 10
223.154798
 20
127.594894
 30
0.00
  0
VERTEX
  8
118200-1ROU1_GBR
 10
223.154798
 20
132.594908
 30
0.00
  0
VERTEX
  8
118200-1ROU1_GBR
 10
223.221804
 20
132.844896
 30
0.00
  0
VERTEX
  8
118200-1ROU1_GBR
 10
223.404812
 20
133.027902
 30
0.00
  0
VERTEX
  8
118200-1ROU1_GBR
 10
223.654798
 20
133.094908
 30
0.00
  0
VERTEX
  8
118200-1ROU1_GBR
 10
225.854794
 20
133.094908
 30
0.00
  0
VERTEX
  8
118200-1ROU1_GBR
 10
226.113594
 20
133.128994
 30
0.00
  0
VERTEX
  8
118200-1ROU1_GBR
 10
226.354792
 20
133.228892
 30
0.00
  0
VERTEX
  8
118200-1ROU1_GBR
 10
226.561904
 20
133.387796
 30
0.00
  0
VERTEX
  8
118200-1ROU1_GBR
 10
226.720806
 20
133.594906
 30
0.00
  0
VERTEX
  8
118200-1ROU1_GBR
 10
226.820704
 20
133.836106
 30
0.00
  0
VERTEX
  8
118200-1ROU1_GBR
 10
226.854792
 20
134.094906
 30
0.00
  0
VERTEX
  8
118200-1ROU1_GBR
 10
226.854792
 20
185.844892
 30
0.00
  0
VERTEX
  8
118200-1ROU1_GBR
 10
226.820704
 20
186.103692
 30
0.00
  0
VERTEX
  8
118200-1ROU1_GBR
 10
226.720806
 20
186.34489
 30
0.00
  0
VERTEX
  8
118200-1ROU1_GBR
 10
226.561904
 20
186.552002
 30
0.00
  0
VERTEX
  8
118200-1ROU1_GBR
 10
226.354792
 20
186.710904
 30
0.00
  0
VERTEX
  8
118200-1ROU1_GBR
 10
226.113594
 20
186.810802
 30
0.00
  0
VERTEX
  8
118200-1ROU1_GBR
 10
225.854794
 20
186.84489
 30
0.00
  0
VERTEX
  8
118200-1ROU1_GBR
 10
225.654794
 20
186.84489
 30
0.00
  0
VERTEX
  8
118200-1ROU1_GBR
 10
225.404808
 20
186.911894
 30
0.00
  0
VERTEX
  8
118200-1ROU1_GBR
 10
225.2218
 20
187.094902
 30
0.00
  0
VERTEX
  8
118200-1ROU1_GBR
 10
225.154794
 20
187.344888
 30
0.00
  0
VERTEX
  8
118200-1ROU1_GBR
 10
225.154794
 20
190.844906
 30
0.00
  0
VERTEX
  8
118200-1ROU1_GBR
 10
225.2218
 20
191.094894
 30
0.00
  0
VERTEX
  8
118200-1ROU1_GBR
 10
225.404808
 20
191.2779
 30
0.00
  0
VERTEX
  8
118200-1ROU1_GBR
 10
225.654794
 20
191.344906
 30
0.00
  0
VERTEX
  8
118200-1ROU1_GBR
 10
225.854794
 20
191.344906
 30
0.00
  0
VERTEX
  8
118200-1ROU1_GBR
 10
226.113594
 20
191.378992
 30
0.00
  0
VERTEX
  8
118200-1ROU1_GBR
 10
226.354792
 20
191.47889
 30
0.00
  0
VERTEX
  8
118200-1ROU1_GBR
 10
226.561904
 20
191.637794
 30
0.00
  0
VERTEX
  8
118200-1ROU1_GBR
 10
226.720806
 20
191.844904
 30
0.00
  0
VERTEX
  8
118200-1ROU1_GBR
 10
226.820704
 20
192.086104
 30
0.00
  0
VERTEX
  8
118200-1ROU1_GBR
 10
226.854792
 20
192.344904
 30
0.00
  0
VERTEX
  8
118200-1ROU1_GBR
 10
226.854792
 20
198.294904
 30
0.00
  0
VERTEX
  8
118200-1ROU1_GBR
 10
226.921796
 20
198.544892
 30
0.00
  0
VERTEX
  8
118200-1ROU1_GBR
 10
227.104804
 20
198.727898
 30
0.00
  0
VERTEX
  8
118200-1ROU1_GBR
 10
227.35479
 20
198.794904
 30
0.00
  0
VERTEX
  8
118200-1ROU1_GBR
 10
232.354806
 20
198.794904
 30
0.00
  0
VERTEX
  8
118200-1ROU1_GBR
 10
232.604792
 20
198.727898
 30
0.00
  0
VERTEX
  8
118200-1ROU1_GBR
 10
232.7878
 20
198.544892
 30
0.00
  0
VERTEX
  8
118200-1ROU1_GBR
 10
232.854804
 20
198.294904
 30
0.00
  0
VERTEX
  8
118200-1ROU1_GBR
 10
232.854804
 20
197.794906
 30
0.00
  0
VERTEX
  8
118200-1ROU1_GBR
 10
232.888892
 20
197.536104
 30
0.00
  0
VERTEX
  8
118200-1ROU1_GBR
 10
232.98879
 20
197.294906
 30
0.00
  0
VERTEX
  8
118200-1ROU1_GBR
 10
233.147692
 20
197.087794
 30
0.00
  0
VERTEX
  8
118200-1ROU1_GBR
 10
233.354804
 20
196.928892
 30
0.00
  0
VERTEX
  8
118200-1ROU1_GBR
 10
233.5959
 20
196.828994
 30
0.00
  0
VERTEX
  8
118200-1ROU1_GBR
 10
233.854802
 20
196.794908
 30
0.00
  0
VERTEX
  8
118200-1ROU1_GBR
 10
236.694396
 20
196.794908
 30
0.00
  0
VERTEX
  8
118200-1ROU1_GBR
 10
236.694396
 20
200.799294
 30
0.00
  0
VERTEX
  8
118200-1ROU1_GBR
 10
229.159206
 20
200.799294
 30
0.00
  0
VERTEX
  8
118200-1ROU1_GBR
 10
226.85921
 20
202.52431
 30
0.00
  0
VERTEX
  8
118200-1ROU1_GBR
 10
226.85921
 20
206.44932
 30
0.00
  0
VERTEX
  8
118200-1ROU1_GBR
 10
226.825098
 20
206.70807
 30
0.00
  0
VERTEX
  8
118200-1ROU1_GBR
 10
226.7252
 20
206.949294
 30
0.00
  0
VERTEX
  8
118200-1ROU1_GBR
 10
226.566298
 20
207.156406
 30
0.00
  0
VERTEX
  8
118200-1ROU1_GBR
 10
226.359212
 20
207.315308
 30
0.00
  0
VERTEX
  8
118200-1ROU1_GBR
 10
226.117988
 20
207.415206
 30
0.00
  0
VERTEX
  8
118200-1ROU1_GBR
 10
225.859188
 20
207.449292
 30
0.00
  0
VERTEX
  8
118200-1ROU1_GBR
 10
225.659188
 20
207.449292
 30
0.00
  0
VERTEX
  8
118200-1ROU1_GBR
 10
225.409202
 20
207.516298
 30
0.00
  0
VERTEX
  8
118200-1ROU1_GBR
 10
225.226194
 20
207.699306
 30
0.00
  0
VERTEX
  8
118200-1ROU1_GBR
 10
225.15919
 20
207.949292
 30
0.00
  0
VERTEX
  8
118200-1ROU1_GBR
 10
225.15919
 20
212.699296
 30
0.00
  0
VERTEX
  8
118200-1ROU1_GBR
 10
225.125102
 20
212.958096
 30
0.00
  0
VERTEX
  8
118200-1ROU1_GBR
 10
225.025204
 20
213.199294
 30
0.00
  0
VERTEX
  8
118200-1ROU1_GBR
 10
224.866302
 20
213.406406
 30
0.00
  0
VERTEX
  8
118200-1ROU1_GBR
 10
224.65919
 20
213.565308
 30
0.00
  0
VERTEX
  8
118200-1ROU1_GBR
 10
224.417992
 20
213.665206
 30
0.00
  0
VERTEX
  8
118200-1ROU1_GBR
 10
224.159166
 20
213.699294
 30
0.00
  0
VERTEX
  8
118200-1ROU1_GBR
 10
223.659192
 20
213.699294
 30
0.00
  0
VERTEX
  8
118200-1ROU1_GBR
 10
223.409206
 20
213.766298
 30
0.00
  0
VERTEX
  8
118200-1ROU1_GBR
 10
223.226198
 20
213.949306
 30
0.00
  0
VERTEX
  8
118200-1ROU1_GBR
 10
223.159194
 20
214.199292
 30
0.00
  0
VERTEX
  8
118200-1ROU1_GBR
 10
223.159194
 20
219.199308
 30
0.00
  0
VERTEX
  8
118200-1ROU1_GBR
 10
223.226198
 20
219.449294
 30
0.00
  0
VERTEX
  8
118200-1ROU1_GBR
 10
223.409206
 20
219.632302
 30
0.00
  0
VERTEX
  8
118200-1ROU1_GBR
 10
223.659192
 20
219.699306
 30
0.00
  0
VERTEX
  8
118200-1ROU1_GBR
 10
225.859162
 20
219.699306
 30
0.00
  0
VERTEX
  8
118200-1ROU1_GBR
 10
226.117988
 20
219.733394
 30
0.00
  0
VERTEX
  8
118200-1ROU1_GBR
 10
226.359212
 20
219.833292
 30
0.00
  0
VERTEX
  8
118200-1ROU1_GBR
 10
226.566298
 20
219.992194
 30
0.00
  0
VERTEX
  8
118200-1ROU1_GBR
 10
226.7252
 20
220.199306
 30
0.00
  0
VERTEX
  8
118200-1ROU1_GBR
 10
226.825098
 20
220.44053
 30
0.00
  0
VERTEX
  8
118200-1ROU1_GBR
 10
226.85921
 20
220.69928
 30
0.00
  0
VERTEX
  8
118200-1ROU1_GBR
 10
226.85921
 20
272.449316
 30
0.00
  0
VERTEX
  8
118200-1ROU1_GBR
 10
226.825098
 20
272.708066
 30
0.00
  0
VERTEX
  8
118200-1ROU1_GBR
 10
226.7252
 20
272.94929
 30
0.00
  0
VERTEX
  8
118200-1ROU1_GBR
 10
226.566298
 20
273.1564
 30
0.00
  0
VERTEX
  8
118200-1ROU1_GBR
 10
226.359212
 20
273.315304
 30
0.00
  0
VERTEX
  8
118200-1ROU1_GBR
 10
226.117988
 20
273.415202
 30
0.00
  0
VERTEX
  8
118200-1ROU1_GBR
 10
225.859188
 20
273.449288
 30
0.00
  0
VERTEX
  8
118200-1ROU1_GBR
 10
225.659188
 20
273.449288
 30
0.00
  0
VERTEX
  8
118200-1ROU1_GBR
 10
225.409202
 20
273.516294
 30
0.00
  0
VERTEX
  8
118200-1ROU1_GBR
 10
225.226194
 20
273.6993
 30
0.00
  0
VERTEX
  8
118200-1ROU1_GBR
 10
225.160966
 20
273.942684
 30
0.00
  0
VERTEX
  8
118200-1ROU1_GBR
 10
225.15919
 20
273.956044
 30
0.00
  0
VERTEX
  8
118200-1ROU1_GBR
 10
225.15919
 20
277.449306
 30
0.00
  0
VERTEX
  8
118200-1ROU1_GBR
 10
225.226194
 20
277.699292
 30
0.00
  0
VERTEX
  8
118200-1ROU1_GBR
 10
225.409202
 20
277.8823
 30
0.00
  0
VERTEX
  8
118200-1ROU1_GBR
 10
225.659188
 20
277.949304
 30
0.00
  0
VERTEX
  8
118200-1ROU1_GBR
 10
225.859162
 20
277.949304
 30
0.00
  0
VERTEX
  8
118200-1ROU1_GBR
 10
226.117988
 20
277.983392
 30
0.00
  0
VERTEX
  8
118200-1ROU1_GBR
 10
226.359212
 20
278.08329
 30
0.00
  0
VERTEX
  8
118200-1ROU1_GBR
 10
226.566298
 20
278.242192
 30
0.00
  0
VERTEX
  8
118200-1ROU1_GBR
 10
226.7252
 20
278.449304
 30
0.00
  0
VERTEX
  8
118200-1ROU1_GBR
 10
226.825098
 20
278.690528
 30
0.00
  0
VERTEX
  8
118200-1ROU1_GBR
 10
226.85921
 20
278.949278
 30
0.00
  0
VERTEX
  8
118200-1ROU1_GBR
 10
226.85921
 20
284.899304
 30
0.00
  0
VERTEX
  8
118200-1ROU1_GBR
 10
226.92619
 20
285.14929
 30
0.00
  0
VERTEX
  8
118200-1ROU1_GBR
 10
227.109198
 20
285.332298
 30
0.00
  0
VERTEX
  8
118200-1ROU1_GBR
 10
227.35258
 20
285.397524
 30
0.00
  0
VERTEX
  8
118200-1ROU1_GBR
 10
227.365942
 20
285.399302
 30
0.00
  0
VERTEX
  8
118200-1ROU1_GBR
 10
232.35417
 20
285.399302
 30
0.00
  0
VERTEX
  8
118200-1ROU1_GBR
 10
232.609212
 20
285.332298
 30
0.00
  0
VERTEX
  8
118200-1ROU1_GBR
 10
232.792194
 20
285.14929
 30
0.00
  0
VERTEX
  8
118200-1ROU1_GBR
 10
232.8592
 20
284.899304
 30
0.00
  0
VERTEX
  8
118200-1ROU1_GBR
 10
232.8592
 20
284.399304
 30
0.00
  0
VERTEX
  8
118200-1ROU1_GBR
 10
232.89321
 20
284.140504
 30
0.00
  0
VERTEX
  8
118200-1ROU1_GBR
 10
232.993108
 20
283.899306
 30
0.00
  0
VERTEX
  8
118200-1ROU1_GBR
 10
233.152112
 20
283.692194
 30
0.00
  0
VERTEX
  8
118200-1ROU1_GBR
 10
233.359172
 20
283.533292
 30
0.00
  0
VERTEX
  8
118200-1ROU1_GBR
 10
233.600396
 20
283.433394
 30
0.00
  0
VERTEX
  8
118200-1ROU1_GBR
 10
233.859198
 20
283.399306
 30
0.00
  0
VERTEX
  8
118200-1ROU1_GBR
 10
236.69879
 20
283.399306
 30
0.00
  0
VERTEX
  8
118200-1ROU1_GBR
 10
236.69879
 20
287.403692
 30
0.00
  0
VERTEX
  8
118200-1ROU1_GBR
 10
223.179412
 20
287.403692
 30
0.00
  0
VERTEX
  8
118200-1ROU1_GBR
 10
223.179412
 20
293.397712
 30
0.00
  0
VERTEX
  8
118200-1ROU1_GBR
 10
395.96121
 20
293.397712
 30
0.00
  0
SEQEND
  0
ENDSEC
  0
EOF
