  0
SECTION
  2
HEADER
  9
$EXTMIN
 10
-0.10
 20
-0.10
 30
0.00
  9
$EXTMAX
 10
142.099996
 20
85.100008
 30
0.00
  0
ENDSEC
  0
SECTION
  2
TABLES
  0
TABLE
  2
LTYPE
 70
3
  0
LTYPE
  2
BYBLOCK
 70
0
  3

 72
65
 73
0
 40
0.00
  0
LTYPE
  2
BYLAYER
 70
0
  3

 72
65
 73
0
 40
0.00
  0
LTYPE
  2
CONTINUOUS
 70
0
  3
Solid line
 72
65
 73
0
 40
0.00
  0
ENDTAB
  0
TABLE
  2
LAYER
 70
1
  0
LAYER
  2
0
 70
0
 62
7
  6
CONTINUOUS
  0
LAYER
  2
128209-3ROU1_GBR
 70
0
 62
7
  6
CONTINUOUS
  0
ENDTAB
  0
TABLE
  2
STYLE
 70
0
  0
ENDTAB
  0
ENDSEC
  0
SECTION
  2
BLOCKS
  0
BLOCK
  2
ROUND_1
  3
ROUND_1
 70
64
 10
0.00
 20
0.00
 30
0.00
  0
CIRCLE
  8
0
 10
0.00
 20
0.00
 30
0.00
 40
0.10
  0
ENDBLK
  0
ENDSEC
  0
SECTION
  2
ENTITIES
  0
POLYLINE
  8
128209-3ROU1_GBR
 66
1
 10
0.00
 20
0.00
 30
0.00
 40
0.20
 41
0.20
  0
VERTEX
  8
128209-3ROU1_GBR
 10
141.999996
 20
85.000008
 30
0.00
  0
VERTEX
  8
128209-3ROU1_GBR
 10
141.999996
 20
78.999994
 30
0.00
  0
VERTEX
  8
128209-3ROU1_GBR
 10
130.674008
 20
78.999994
 30
0.00
  0
VERTEX
  8
128209-3ROU1_GBR
 10
130.674008
 20
76.999998
 30
0.00
  0
VERTEX
  8
128209-3ROU1_GBR
 10
139.000002
 20
76.999998
 30
0.00
  0
VERTEX
  8
128209-3ROU1_GBR
 10
139.000002
 20
67.499992
 30
0.00
  0
VERTEX
  8
128209-3ROU1_GBR
 10
141.999996
 20
67.499992
 30
0.00
  0
VERTEX
  8
128209-3ROU1_GBR
 10
141.999996
 20
62.500002
 30
0.00
  0
VERTEX
  8
128209-3ROU1_GBR
 10
137.500004
 20
62.500002
 30
0.00
  0
VERTEX
  8
128209-3ROU1_GBR
 10
137.500004
 20
34.500008
 30
0.00
  0
VERTEX
  8
128209-3ROU1_GBR
 10
141.999996
 20
34.500008
 30
0.00
  0
VERTEX
  8
128209-3ROU1_GBR
 10
141.999996
 20
17.49999
 30
0.00
  0
VERTEX
  8
128209-3ROU1_GBR
 10
139.000002
 20
17.49999
 30
0.00
  0
VERTEX
  8
128209-3ROU1_GBR
 10
139.000002
 20
8.00001
 30
0.00
  0
VERTEX
  8
128209-3ROU1_GBR
 10
130.420008
 20
8.00001
 30
0.00
  0
VERTEX
  8
128209-3ROU1_GBR
 10
130.420008
 20
5.999988
 30
0.00
  0
VERTEX
  8
128209-3ROU1_GBR
 10
141.999996
 20
5.999988
 30
0.00
  0
VERTEX
  8
128209-3ROU1_GBR
 10
141.999996
 20
0.00
 30
0.00
  0
VERTEX
  8
128209-3ROU1_GBR
 10
0.00
 20
0.00
 30
0.00
  0
VERTEX
  8
128209-3ROU1_GBR
 10
0.00
 20
5.999988
 30
0.00
  0
VERTEX
  8
128209-3ROU1_GBR
 10
11.938
 20
5.999988
 30
0.00
  0
VERTEX
  8
128209-3ROU1_GBR
 10
11.938
 20
8.00001
 30
0.00
  0
VERTEX
  8
128209-3ROU1_GBR
 10
2.993212
 20
8.00001
 30
0.00
  0
VERTEX
  8
128209-3ROU1_GBR
 10
2.993212
 20
17.512894
 30
0.00
  0
VERTEX
  8
128209-3ROU1_GBR
 10
0.076226
 20
17.512894
 30
0.00
  0
VERTEX
  8
128209-3ROU1_GBR
 10
0.00
 20
17.55737
 30
0.00
  0
VERTEX
  8
128209-3ROU1_GBR
 10
0.00
 20
22.500006
 30
0.00
  0
VERTEX
  8
128209-3ROU1_GBR
 10
4.499992
 20
22.500006
 30
0.00
  0
VERTEX
  8
128209-3ROU1_GBR
 10
4.499992
 20
50.000002
 30
0.00
  0
VERTEX
  8
128209-3ROU1_GBR
 10
0.00
 20
50.000002
 30
0.00
  0
VERTEX
  8
128209-3ROU1_GBR
 10
0.00
 20
67.499992
 30
0.00
  0
VERTEX
  8
128209-3ROU1_GBR
 10
2.999994
 20
67.499992
 30
0.00
  0
VERTEX
  8
128209-3ROU1_GBR
 10
2.999994
 20
76.999998
 30
0.00
  0
VERTEX
  8
128209-3ROU1_GBR
 10
11.684
 20
76.999998
 30
0.00
  0
VERTEX
  8
128209-3ROU1_GBR
 10
11.684
 20
78.999994
 30
0.00
  0
VERTEX
  8
128209-3ROU1_GBR
 10
0.00
 20
78.999994
 30
0.00
  0
VERTEX
  8
128209-3ROU1_GBR
 10
0.00
 20
85.000008
 30
0.00
  0
VERTEX
  8
128209-3ROU1_GBR
 10
141.999996
 20
85.000008
 30
0.00
  0
SEQEND
  0
ENDSEC
  0
EOF
