  0
SECTION
  2
HEADER
  9
$EXTMIN
 10
-258.359834
 20
-58.010602
 30
0.00
  9
$EXTMAX
 10
470.00
 20
419.20
 30
0.00
  0
ENDSEC
  0
SECTION
  2
TABLES
  0
TABLE
  2
LTYPE
 70
3
  0
LTYPE
  2
BYBLOCK
 70
0
  3

 72
65
 73
0
 40
0.00
  0
LTYPE
  2
BYLAYER
 70
0
  3

 72
65
 73
0
 40
0.00
  0
LTYPE
  2
CONTINUOUS
 70
0
  3
Solid line
 72
65
 73
0
 40
0.00
  0
ENDTAB
  0
TABLE
  2
LAYER
 70
99
  0
LAYER
  2
0
 70
0
 62
7
  6
CONTINUOUS
  0
LAYER
  2
020671-1ROU1_GBR
 70
0
 62
7
  6
CONTINUOUS
  0
LAYER
  2
027417-3ROU1_GBR
 70
0
 62
7
  6
CONTINUOUS
  0
LAYER
  2
027419-1ROU1_GBR
 70
0
 62
2
  6
CONTINUOUS
  0
LAYER
  2
027419-2ROU1_GBR
 70
0
 62
6
  6
CONTINUOUS
  0
LAYER
  2
027674-1ROU1_GBR
 70
0
 62
1
  6
CONTINUOUS
  0
LAYER
  2
027676-1ROU1_GBR
 70
0
 62
4
  6
CONTINUOUS
  0
LAYER
  2
027678-3ROU1_GBR
 70
0
 62
3
  6
CONTINUOUS
  0
LAYER
  2
028122-1ROU1_GBR
 70
0
 62
5
  6
CONTINUOUS
  0
LAYER
  2
028124-5ROU1_GBR
 70
0
 62
10
  6
CONTINUOUS
  0
LAYER
  2
028126-1ROU1_GBR
 70
0
 62
14
  6
CONTINUOUS
  0
LAYER
  2
028126-3ROU1_GBR
 70
0
 62
9
  6
CONTINUOUS
  0
LAYER
  2
028126-6ROU1_GBR
 70
0
 62
12
  6
CONTINUOUS
  0
LAYER
  2
028126-7ROU1_GBR
 70
0
 62
11
  6
CONTINUOUS
  0
LAYER
  2
028129-1ROU1_GBR
 70
0
 62
13
  6
CONTINUOUS
  0
LAYER
  2
028130-1ROU1_GBR
 70
0
 62
8
  6
CONTINUOUS
  0
LAYER
  2
028130-4ROU1_GBR
 70
0
 62
15
  6
CONTINUOUS
  0
LAYER
  2
028130-5ROU1_GBR
 70
0
 62
7
  6
CONTINUOUS
  0
LAYER
  2
028130-7ROU1_GBR
 70
0
 62
7
  6
CONTINUOUS
  0
LAYER
  2
028655-1ROU1_GBR
 70
0
 62
2
  6
CONTINUOUS
  0
LAYER
  2
028657-1ROU1_GBR
 70
0
 62
6
  6
CONTINUOUS
  0
LAYER
  2
028659-2ROU1_GBR
 70
0
 62
1
  6
CONTINUOUS
  0
LAYER
  2
028659-4ROU1_GBR
 70
0
 62
4
  6
CONTINUOUS
  0
LAYER
  2
028661-1ROU1_GBR
 70
0
 62
3
  6
CONTINUOUS
  0
LAYER
  2
028663-1ROU1_GBR
 70
0
 62
5
  6
CONTINUOUS
  0
LAYER
  2
028665-1ROU1_GBR
 70
0
 62
10
  6
CONTINUOUS
  0
LAYER
  2
028669-1ROU1_GBR
 70
0
 62
14
  6
CONTINUOUS
  0
LAYER
  2
028673-2ROU1_GBR
 70
0
 62
9
  6
CONTINUOUS
  0
LAYER
  2
037088-3ROU1_GBR
 70
0
 62
12
  6
CONTINUOUS
  0
LAYER
  2
037682-1ROU1_GBR
 70
0
 62
11
  6
CONTINUOUS
  0
LAYER
  2
037686-1ROU1_GBR
 70
0
 62
13
  6
CONTINUOUS
  0
LAYER
  2
037688-1ROU1_GBR
 70
0
 62
8
  6
CONTINUOUS
  0
LAYER
  2
038681-1ROU1_GBR
 70
0
 62
15
  6
CONTINUOUS
  0
LAYER
  2
038683-1ROU1_GBR
 70
0
 62
7
  6
CONTINUOUS
  0
LAYER
  2
038683-2ROU1_GBR
 70
0
 62
7
  6
CONTINUOUS
  0
LAYER
  2
038685-1ROU1_GBR
 70
0
 62
2
  6
CONTINUOUS
  0
LAYER
  2
038689-1ROU1_GBR
 70
0
 62
6
  6
CONTINUOUS
  0
LAYER
  2
038689-2ROU1_GBR
 70
0
 62
1
  6
CONTINUOUS
  0
LAYER
  2
038691-1ROU1_GBR
 70
0
 62
4
  6
CONTINUOUS
  0
LAYER
  2
038691-2ROU1_GBR
 70
0
 62
3
  6
CONTINUOUS
  0
LAYER
  2
038691-3ROU1_GBR
 70
0
 62
5
  6
CONTINUOUS
  0
LAYER
  2
038691-4ROU1_GBR
 70
0
 62
10
  6
CONTINUOUS
  0
LAYER
  2
038693-1ROU1_GBR
 70
0
 62
14
  6
CONTINUOUS
  0
LAYER
  2
038695-1ROU1_GBR
 70
0
 62
9
  6
CONTINUOUS
  0
LAYER
  2
038697-1ROU1_GBR
 70
0
 62
12
  6
CONTINUOUS
  0
LAYER
  2
038697-3ROU1_GBR
 70
0
 62
11
  6
CONTINUOUS
  0
LAYER
  2
038697-4ROU1_GBR
 70
0
 62
13
  6
CONTINUOUS
  0
LAYER
  2
038697-5ROU1_GBR
 70
0
 62
8
  6
CONTINUOUS
  0
LAYER
  2
047706-4ROU1_GBR
 70
0
 62
15
  6
CONTINUOUS
  0
LAYER
  2
047706-5ROU1_GBR
 70
0
 62
7
  6
CONTINUOUS
  0
LAYER
  2
047706-6ROU1_GBR
 70
0
 62
7
  6
CONTINUOUS
  0
LAYER
  2
047708-1ROU1_GBR
 70
0
 62
2
  6
CONTINUOUS
  0
LAYER
  2
047710-1ROU1_GBR
 70
0
 62
6
  6
CONTINUOUS
  0
LAYER
  2
047712-1ROU1_GBR
 70
0
 62
1
  6
CONTINUOUS
  0
LAYER
  2
047714-2ROU1_GBR
 70
0
 62
4
  6
CONTINUOUS
  0
LAYER
  2
048701-1ROU1_GBR
 70
0
 62
3
  6
CONTINUOUS
  0
LAYER
  2
048703-1ROU1_GBR
 70
0
 62
10
  6
CONTINUOUS
  0
LAYER
  2
048711-1ROU1_GBR
 70
0
 62
14
  6
CONTINUOUS
  0
LAYER
  2
048715-1ROU1_GBR
 70
0
 62
9
  6
CONTINUOUS
  0
LAYER
  2
058721-2ROU1_GBR
 70
0
 62
12
  6
CONTINUOUS
  0
LAYER
  2
058723-10ROU1_GBR
 70
0
 62
11
  6
CONTINUOUS
  0
LAYER
  2
058723-1ROU1_GBR
 70
0
 62
13
  6
CONTINUOUS
  0
LAYER
  2
058723-6ROU1_GBR
 70
0
 62
8
  6
CONTINUOUS
  0
LAYER
  2
058723-9ROU1_GBR
 70
0
 62
15
  6
CONTINUOUS
  0
LAYER
  2
067601-1ROU1_GBR
 70
0
 62
7
  6
CONTINUOUS
  0
LAYER
  2
068162-1ROU1_GBR
 70
0
 62
7
  6
CONTINUOUS
  0
LAYER
  2
068162-3ROU1_GBR
 70
0
 62
2
  6
CONTINUOUS
  0
LAYER
  2
068162-4ROU1_GBR
 70
0
 62
6
  6
CONTINUOUS
  0
LAYER
  2
077742-1ROU1_GBR
 70
0
 62
1
  6
CONTINUOUS
  0
LAYER
  2
078731-1ROU1_GBR
 70
0
 62
4
  6
CONTINUOUS
  0
LAYER
  2
078735-3ROU1_GBR
 70
0
 62
3
  6
CONTINUOUS
  0
LAYER
  2
078739-1ROU1_GBR
 70
0
 62
5
  6
CONTINUOUS
  0
LAYER
  2
078753-1ROU1_GBR
 70
0
 62
10
  6
CONTINUOUS
  0
LAYER
  2
078757-1ROU1_GBR
 70
0
 62
14
  6
CONTINUOUS
  0
LAYER
  2
087768-2ROU1_GBR
 70
0
 62
9
  6
CONTINUOUS
  0
LAYER
  2
087772-1ROU1_GBR
 70
0
 62
12
  6
CONTINUOUS
  0
LAYER
  2
087780-1ROU1_GBR
 70
0
 62
11
  6
CONTINUOUS
  0
LAYER
  2
087782-9ROU1_GBR
 70
0
 62
13
  6
CONTINUOUS
  0
LAYER
  2
088783-4ROU1_GBR
 70
0
 62
8
  6
CONTINUOUS
  0
LAYER
  2
088785-1ROU1_GBR
 70
0
 62
15
  6
CONTINUOUS
  0
LAYER
  2
097800-6ROU1_GBR
 70
0
 62
7
  6
CONTINUOUS
  0
LAYER
  2
097810-1ROU1_GBR
 70
0
 62
7
  6
CONTINUOUS
  0
LAYER
  2
098787-1ROU1_GBR
 70
0
 62
2
  6
CONTINUOUS
  0
LAYER
  2
098787-2ROU1_GBR
 70
0
 62
6
  6
CONTINUOUS
  0
LAYER
  2
098789-1ROU1_GBR
 70
0
 62
1
  6
CONTINUOUS
  0
LAYER
  2
098811-1ROU1_GBR
 70
0
 62
4
  6
CONTINUOUS
  0
LAYER
  2
098815-1ROU1_GBR
 70
0
 62
3
  6
CONTINUOUS
  0
LAYER
  2
098815-2ROU1_GBR
 70
0
 62
5
  6
CONTINUOUS
  0
LAYER
  2
107824-1ROU1_GBR
 70
0
 62
10
  6
CONTINUOUS
  0
LAYER
  2
118200-1ROU1_GBR
 70
0
 62
14
  6
CONTINUOUS
  0
LAYER
  2
257017-1ROU1_GBR
 70
0
 62
9
  6
CONTINUOUS
  0
LAYER
  2
268076-7ROU1_GBR
 70
0
 62
12
  6
CONTINUOUS
  0
LAYER
  2
288088-1ROU1_GBR
 70
0
 62
11
  6
CONTINUOUS
  0
LAYER
  2
307251-1ROU1_GBR
 70
0
 62
13
  6
CONTINUOUS
  0
LAYER
  2
307273-4ROU1_GBR
 70
0
 62
8
  6
CONTINUOUS
  0
LAYER
  2
307283-1ROU1_GBR
 70
0
 62
15
  6
CONTINUOUS
  0
LAYER
  2
307291-1ROU1_GBR
 70
0
 62
7
  6
CONTINUOUS
  0
LAYER
  2
308108-1ROU1_GBR
 70
0
 62
7
  6
CONTINUOUS
  0
LAYER
  2
308111-1ROU1_GBR
 70
0
 62
2
  6
CONTINUOUS
  0
LAYER
  2
308112-1ROU1_GBR
 70
0
 62
6
  6
CONTINUOUS
  0
ENDTAB
  0
TABLE
  2
STYLE
 70
0
  0
ENDTAB
  0
ENDSEC
  0
SECTION
  2
BLOCKS
  0
BLOCK
  2
ROUND_1
  3
ROUND_1
 70
64
 10
0.00
 20
0.00
 30
0.00
  0
CIRCLE
  8
0
 10
0.00
 20
0.00
 30
0.00
 40
0.10
  0
ENDBLK
  0
ENDSEC
  0
SECTION
  2
ENTITIES
  0
POLYLINE
  8
268076-7ROU1_GBR
 66
1
 10
0.00
 20
0.00
 30
0.00
 40
0.20
 41
0.20
  0
VERTEX
  8
268076-7ROU1_GBR
 10
172.000012
 20
129.999994
 30
0.00
  0
VERTEX
  8
268076-7ROU1_GBR
 10
172.000012
 20
124.000006
 30
0.00
  0
VERTEX
  8
268076-7ROU1_GBR
 10
151.786006
 20
124.000006
 30
0.00
  0
VERTEX
  8
268076-7ROU1_GBR
 10
151.786006
 20
122.000392
 30
0.00
  0
VERTEX
  8
268076-7ROU1_GBR
 10
168.500018
 20
122.000392
 30
0.00
  0
VERTEX
  8
268076-7ROU1_GBR
 10
170.49999
 20
120.000396
 30
0.00
  0
VERTEX
  8
268076-7ROU1_GBR
 10
170.49999
 20
115.999996
 30
0.00
  0
VERTEX
  8
268076-7ROU1_GBR
 10
172.000012
 20
114.50
 30
0.00
  0
VERTEX
  8
268076-7ROU1_GBR
 10
172.000012
 20
111.149994
 30
0.00
  0
VERTEX
  8
268076-7ROU1_GBR
 10
170.456276
 20
111.149994
 30
0.00
  0
VERTEX
  8
268076-7ROU1_GBR
 10
170.49999
 20
110.98685
 30
0.00
  0
VERTEX
  8
268076-7ROU1_GBR
 10
170.49999
 20
104.513152
 30
0.00
  0
VERTEX
  8
268076-7ROU1_GBR
 10
170.456276
 20
104.350008
 30
0.00
  0
VERTEX
  8
268076-7ROU1_GBR
 10
172.000012
 20
104.350008
 30
0.00
  0
VERTEX
  8
268076-7ROU1_GBR
 10
172.000012
 20
68.007204
 30
0.00
  0
VERTEX
  8
268076-7ROU1_GBR
 10
169.992802
 20
65.999996
 30
0.00
  0
VERTEX
  8
268076-7ROU1_GBR
 10
151.786006
 20
65.999996
 30
0.00
  0
VERTEX
  8
268076-7ROU1_GBR
 10
151.786006
 20
64.000406
 30
0.00
  0
VERTEX
  8
268076-7ROU1_GBR
 10
168.499994
 20
64.000406
 30
0.00
  0
VERTEX
  8
268076-7ROU1_GBR
 10
170.49999
 20
62.00041
 30
0.00
  0
VERTEX
  8
268076-7ROU1_GBR
 10
170.49999
 20
58.000012
 30
0.00
  0
VERTEX
  8
268076-7ROU1_GBR
 10
172.000012
 20
56.499988
 30
0.00
  0
VERTEX
  8
268076-7ROU1_GBR
 10
172.000012
 20
53.150008
 30
0.00
  0
VERTEX
  8
268076-7ROU1_GBR
 10
170.45625
 20
53.150008
 30
0.00
  0
VERTEX
  8
268076-7ROU1_GBR
 10
170.49999
 20
52.986838
 30
0.00
  0
VERTEX
  8
268076-7ROU1_GBR
 10
170.49999
 20
46.513166
 30
0.00
  0
VERTEX
  8
268076-7ROU1_GBR
 10
170.45625
 20
46.349996
 30
0.00
  0
VERTEX
  8
268076-7ROU1_GBR
 10
172.000012
 20
46.349996
 30
0.00
  0
VERTEX
  8
268076-7ROU1_GBR
 10
172.000012
 20
10.007194
 30
0.00
  0
VERTEX
  8
268076-7ROU1_GBR
 10
169.992802
 20
8.00001
 30
0.00
  0
VERTEX
  8
268076-7ROU1_GBR
 10
151.786006
 20
8.00001
 30
0.00
  0
VERTEX
  8
268076-7ROU1_GBR
 10
151.786006
 20
5.999988
 30
0.00
  0
VERTEX
  8
268076-7ROU1_GBR
 10
172.000012
 20
5.999988
 30
0.00
  0
VERTEX
  8
268076-7ROU1_GBR
 10
172.000012
 20
0.00
 30
0.00
  0
VERTEX
  8
268076-7ROU1_GBR
 10
0.00
 20
0.00
 30
0.00
  0
VERTEX
  8
268076-7ROU1_GBR
 10
0.00
 20
5.999988
 30
0.00
  0
VERTEX
  8
268076-7ROU1_GBR
 10
20.214006
 20
5.999988
 30
0.00
  0
VERTEX
  8
268076-7ROU1_GBR
 10
20.214006
 20
8.00001
 30
0.00
  0
VERTEX
  8
268076-7ROU1_GBR
 10
2.032
 20
8.00001
 30
0.00
  0
VERTEX
  8
268076-7ROU1_GBR
 10
0.00
 20
10.03201
 30
0.00
  0
VERTEX
  8
268076-7ROU1_GBR
 10
0.00
 20
46.349996
 30
0.00
  0
VERTEX
  8
268076-7ROU1_GBR
 10
1.543736
 20
46.349996
 30
0.00
  0
VERTEX
  8
268076-7ROU1_GBR
 10
1.499998
 20
46.513166
 30
0.00
  0
VERTEX
  8
268076-7ROU1_GBR
 10
1.499998
 20
52.986838
 30
0.00
  0
VERTEX
  8
268076-7ROU1_GBR
 10
1.543736
 20
53.150008
 30
0.00
  0
VERTEX
  8
268076-7ROU1_GBR
 10
0.00
 20
53.150008
 30
0.00
  0
VERTEX
  8
268076-7ROU1_GBR
 10
0.00
 20
56.499988
 30
0.00
  0
VERTEX
  8
268076-7ROU1_GBR
 10
1.499998
 20
58.000012
 30
0.00
  0
VERTEX
  8
268076-7ROU1_GBR
 10
1.499998
 20
61.994796
 30
0.00
  0
VERTEX
  8
268076-7ROU1_GBR
 10
3.505606
 20
64.000406
 30
0.00
  0
VERTEX
  8
268076-7ROU1_GBR
 10
20.214006
 20
64.000406
 30
0.00
  0
VERTEX
  8
268076-7ROU1_GBR
 10
20.214006
 20
65.999996
 30
0.00
  0
VERTEX
  8
268076-7ROU1_GBR
 10
2.032
 20
65.999996
 30
0.00
  0
VERTEX
  8
268076-7ROU1_GBR
 10
0.00
 20
68.031996
 30
0.00
  0
VERTEX
  8
268076-7ROU1_GBR
 10
0.00
 20
104.350008
 30
0.00
  0
VERTEX
  8
268076-7ROU1_GBR
 10
1.54371
 20
104.350008
 30
0.00
  0
VERTEX
  8
268076-7ROU1_GBR
 10
1.499998
 20
104.513152
 30
0.00
  0
VERTEX
  8
268076-7ROU1_GBR
 10
1.499998
 20
110.98685
 30
0.00
  0
VERTEX
  8
268076-7ROU1_GBR
 10
1.543686
 20
111.149994
 30
0.00
  0
VERTEX
  8
268076-7ROU1_GBR
 10
0.00
 20
111.149994
 30
0.00
  0
VERTEX
  8
268076-7ROU1_GBR
 10
0.00
 20
114.50
 30
0.00
  0
VERTEX
  8
268076-7ROU1_GBR
 10
1.499998
 20
115.999996
 30
0.00
  0
VERTEX
  8
268076-7ROU1_GBR
 10
1.499998
 20
119.994808
 30
0.00
  0
VERTEX
  8
268076-7ROU1_GBR
 10
3.505606
 20
122.000392
 30
0.00
  0
VERTEX
  8
268076-7ROU1_GBR
 10
20.214006
 20
122.000392
 30
0.00
  0
VERTEX
  8
268076-7ROU1_GBR
 10
20.214006
 20
124.000006
 30
0.00
  0
VERTEX
  8
268076-7ROU1_GBR
 10
0.00
 20
124.000006
 30
0.00
  0
VERTEX
  8
268076-7ROU1_GBR
 10
0.00
 20
129.999994
 30
0.00
  0
VERTEX
  8
268076-7ROU1_GBR
 10
172.000012
 20
129.999994
 30
0.00
  0
SEQEND
  0
ENDSEC
  0
EOF
