  0
SECTION
  2
HEADER
  9
$EXTMIN
 10
-258.359834
 20
-58.010602
 30
0.00
  9
$EXTMAX
 10
470.00
 20
419.20
 30
0.00
  0
ENDSEC
  0
SECTION
  2
TABLES
  0
TABLE
  2
LTYPE
 70
3
  0
LTYPE
  2
BYBLOCK
 70
0
  3

 72
65
 73
0
 40
0.00
  0
LTYPE
  2
BYLAYER
 70
0
  3

 72
65
 73
0
 40
0.00
  0
LTYPE
  2
CONTINUOUS
 70
0
  3
Solid line
 72
65
 73
0
 40
0.00
  0
ENDTAB
  0
TABLE
  2
LAYER
 70
99
  0
LAYER
  2
0
 70
0
 62
7
  6
CONTINUOUS
  0
LAYER
  2
020671-1ROU1_GBR
 70
0
 62
7
  6
CONTINUOUS
  0
LAYER
  2
027417-3ROU1_GBR
 70
0
 62
7
  6
CONTINUOUS
  0
LAYER
  2
027419-1ROU1_GBR
 70
0
 62
2
  6
CONTINUOUS
  0
LAYER
  2
027419-2ROU1_GBR
 70
0
 62
6
  6
CONTINUOUS
  0
LAYER
  2
027674-1ROU1_GBR
 70
0
 62
1
  6
CONTINUOUS
  0
LAYER
  2
027676-1ROU1_GBR
 70
0
 62
4
  6
CONTINUOUS
  0
LAYER
  2
027678-3ROU1_GBR
 70
0
 62
3
  6
CONTINUOUS
  0
LAYER
  2
028122-1ROU1_GBR
 70
0
 62
5
  6
CONTINUOUS
  0
LAYER
  2
028124-5ROU1_GBR
 70
0
 62
10
  6
CONTINUOUS
  0
LAYER
  2
028126-1ROU1_GBR
 70
0
 62
14
  6
CONTINUOUS
  0
LAYER
  2
028126-3ROU1_GBR
 70
0
 62
9
  6
CONTINUOUS
  0
LAYER
  2
028126-6ROU1_GBR
 70
0
 62
12
  6
CONTINUOUS
  0
LAYER
  2
028126-7ROU1_GBR
 70
0
 62
11
  6
CONTINUOUS
  0
LAYER
  2
028129-1ROU1_GBR
 70
0
 62
13
  6
CONTINUOUS
  0
LAYER
  2
028130-1ROU1_GBR
 70
0
 62
8
  6
CONTINUOUS
  0
LAYER
  2
028130-4ROU1_GBR
 70
0
 62
15
  6
CONTINUOUS
  0
LAYER
  2
028130-5ROU1_GBR
 70
0
 62
7
  6
CONTINUOUS
  0
LAYER
  2
028130-7ROU1_GBR
 70
0
 62
7
  6
CONTINUOUS
  0
LAYER
  2
028655-1ROU1_GBR
 70
0
 62
2
  6
CONTINUOUS
  0
LAYER
  2
028657-1ROU1_GBR
 70
0
 62
6
  6
CONTINUOUS
  0
LAYER
  2
028659-2ROU1_GBR
 70
0
 62
1
  6
CONTINUOUS
  0
LAYER
  2
028659-4ROU1_GBR
 70
0
 62
4
  6
CONTINUOUS
  0
LAYER
  2
028661-1ROU1_GBR
 70
0
 62
3
  6
CONTINUOUS
  0
LAYER
  2
028663-1ROU1_GBR
 70
0
 62
5
  6
CONTINUOUS
  0
LAYER
  2
028665-1ROU1_GBR
 70
0
 62
10
  6
CONTINUOUS
  0
LAYER
  2
028669-1ROU1_GBR
 70
0
 62
14
  6
CONTINUOUS
  0
LAYER
  2
028673-2ROU1_GBR
 70
0
 62
9
  6
CONTINUOUS
  0
LAYER
  2
037088-3ROU1_GBR
 70
0
 62
12
  6
CONTINUOUS
  0
LAYER
  2
037682-1ROU1_GBR
 70
0
 62
11
  6
CONTINUOUS
  0
LAYER
  2
037686-1ROU1_GBR
 70
0
 62
13
  6
CONTINUOUS
  0
LAYER
  2
037688-1ROU1_GBR
 70
0
 62
8
  6
CONTINUOUS
  0
LAYER
  2
038681-1ROU1_GBR
 70
0
 62
15
  6
CONTINUOUS
  0
LAYER
  2
038683-1ROU1_GBR
 70
0
 62
7
  6
CONTINUOUS
  0
LAYER
  2
038683-2ROU1_GBR
 70
0
 62
7
  6
CONTINUOUS
  0
LAYER
  2
038685-1ROU1_GBR
 70
0
 62
2
  6
CONTINUOUS
  0
LAYER
  2
038689-1ROU1_GBR
 70
0
 62
6
  6
CONTINUOUS
  0
LAYER
  2
038689-2ROU1_GBR
 70
0
 62
1
  6
CONTINUOUS
  0
LAYER
  2
038691-1ROU1_GBR
 70
0
 62
4
  6
CONTINUOUS
  0
LAYER
  2
038691-2ROU1_GBR
 70
0
 62
3
  6
CONTINUOUS
  0
LAYER
  2
038691-3ROU1_GBR
 70
0
 62
5
  6
CONTINUOUS
  0
LAYER
  2
038691-4ROU1_GBR
 70
0
 62
10
  6
CONTINUOUS
  0
LAYER
  2
038693-1ROU1_GBR
 70
0
 62
14
  6
CONTINUOUS
  0
LAYER
  2
038695-1ROU1_GBR
 70
0
 62
9
  6
CONTINUOUS
  0
LAYER
  2
038697-1ROU1_GBR
 70
0
 62
12
  6
CONTINUOUS
  0
LAYER
  2
038697-3ROU1_GBR
 70
0
 62
11
  6
CONTINUOUS
  0
LAYER
  2
038697-4ROU1_GBR
 70
0
 62
13
  6
CONTINUOUS
  0
LAYER
  2
038697-5ROU1_GBR
 70
0
 62
8
  6
CONTINUOUS
  0
LAYER
  2
047706-4ROU1_GBR
 70
0
 62
15
  6
CONTINUOUS
  0
LAYER
  2
047706-5ROU1_GBR
 70
0
 62
7
  6
CONTINUOUS
  0
LAYER
  2
047706-6ROU1_GBR
 70
0
 62
7
  6
CONTINUOUS
  0
LAYER
  2
047708-1ROU1_GBR
 70
0
 62
2
  6
CONTINUOUS
  0
LAYER
  2
047710-1ROU1_GBR
 70
0
 62
6
  6
CONTINUOUS
  0
LAYER
  2
047712-1ROU1_GBR
 70
0
 62
1
  6
CONTINUOUS
  0
LAYER
  2
047714-2ROU1_GBR
 70
0
 62
4
  6
CONTINUOUS
  0
LAYER
  2
048701-1ROU1_GBR
 70
0
 62
3
  6
CONTINUOUS
  0
LAYER
  2
048703-1ROU1_GBR
 70
0
 62
10
  6
CONTINUOUS
  0
LAYER
  2
048711-1ROU1_GBR
 70
0
 62
14
  6
CONTINUOUS
  0
LAYER
  2
048715-1ROU1_GBR
 70
0
 62
9
  6
CONTINUOUS
  0
LAYER
  2
058721-2ROU1_GBR
 70
0
 62
12
  6
CONTINUOUS
  0
LAYER
  2
058723-10ROU1_GBR
 70
0
 62
11
  6
CONTINUOUS
  0
LAYER
  2
058723-1ROU1_GBR
 70
0
 62
13
  6
CONTINUOUS
  0
LAYER
  2
058723-6ROU1_GBR
 70
0
 62
8
  6
CONTINUOUS
  0
LAYER
  2
058723-9ROU1_GBR
 70
0
 62
15
  6
CONTINUOUS
  0
LAYER
  2
067601-1ROU1_GBR
 70
0
 62
7
  6
CONTINUOUS
  0
LAYER
  2
068162-1ROU1_GBR
 70
0
 62
7
  6
CONTINUOUS
  0
LAYER
  2
068162-3ROU1_GBR
 70
0
 62
2
  6
CONTINUOUS
  0
LAYER
  2
068162-4ROU1_GBR
 70
0
 62
6
  6
CONTINUOUS
  0
LAYER
  2
077742-1ROU1_GBR
 70
0
 62
1
  6
CONTINUOUS
  0
LAYER
  2
078731-1ROU1_GBR
 70
0
 62
4
  6
CONTINUOUS
  0
LAYER
  2
078735-3ROU1_GBR
 70
0
 62
3
  6
CONTINUOUS
  0
LAYER
  2
078739-1ROU1_GBR
 70
0
 62
5
  6
CONTINUOUS
  0
LAYER
  2
078753-1ROU1_GBR
 70
0
 62
10
  6
CONTINUOUS
  0
LAYER
  2
078757-1ROU1_GBR
 70
0
 62
14
  6
CONTINUOUS
  0
LAYER
  2
087768-2ROU1_GBR
 70
0
 62
9
  6
CONTINUOUS
  0
LAYER
  2
087772-1ROU1_GBR
 70
0
 62
12
  6
CONTINUOUS
  0
LAYER
  2
087780-1ROU1_GBR
 70
0
 62
11
  6
CONTINUOUS
  0
LAYER
  2
087782-9ROU1_GBR
 70
0
 62
13
  6
CONTINUOUS
  0
LAYER
  2
088783-4ROU1_GBR
 70
0
 62
8
  6
CONTINUOUS
  0
LAYER
  2
088785-1ROU1_GBR
 70
0
 62
15
  6
CONTINUOUS
  0
LAYER
  2
097800-6ROU1_GBR
 70
0
 62
7
  6
CONTINUOUS
  0
LAYER
  2
097810-1ROU1_GBR
 70
0
 62
7
  6
CONTINUOUS
  0
LAYER
  2
098787-1ROU1_GBR
 70
0
 62
2
  6
CONTINUOUS
  0
LAYER
  2
098787-2ROU1_GBR
 70
0
 62
6
  6
CONTINUOUS
  0
LAYER
  2
098789-1ROU1_GBR
 70
0
 62
1
  6
CONTINUOUS
  0
LAYER
  2
098811-1ROU1_GBR
 70
0
 62
4
  6
CONTINUOUS
  0
LAYER
  2
098815-1ROU1_GBR
 70
0
 62
3
  6
CONTINUOUS
  0
LAYER
  2
098815-2ROU1_GBR
 70
0
 62
5
  6
CONTINUOUS
  0
LAYER
  2
107824-1ROU1_GBR
 70
0
 62
10
  6
CONTINUOUS
  0
LAYER
  2
118200-1ROU1_GBR
 70
0
 62
14
  6
CONTINUOUS
  0
LAYER
  2
257017-1ROU1_GBR
 70
0
 62
9
  6
CONTINUOUS
  0
LAYER
  2
268076-7ROU1_GBR
 70
0
 62
12
  6
CONTINUOUS
  0
LAYER
  2
288088-1ROU1_GBR
 70
0
 62
11
  6
CONTINUOUS
  0
LAYER
  2
307251-1ROU1_GBR
 70
0
 62
13
  6
CONTINUOUS
  0
LAYER
  2
307273-4ROU1_GBR
 70
0
 62
8
  6
CONTINUOUS
  0
LAYER
  2
307283-1ROU1_GBR
 70
0
 62
15
  6
CONTINUOUS
  0
LAYER
  2
307291-1ROU1_GBR
 70
0
 62
7
  6
CONTINUOUS
  0
LAYER
  2
308108-1ROU1_GBR
 70
0
 62
7
  6
CONTINUOUS
  0
LAYER
  2
308111-1ROU1_GBR
 70
0
 62
2
  6
CONTINUOUS
  0
LAYER
  2
308112-1ROU1_GBR
 70
0
 62
6
  6
CONTINUOUS
  0
ENDTAB
  0
TABLE
  2
STYLE
 70
0
  0
ENDTAB
  0
ENDSEC
  0
SECTION
  2
BLOCKS
  0
BLOCK
  2
ROUND_1
  3
ROUND_1
 70
64
 10
0.00
 20
0.00
 30
0.00
  0
CIRCLE
  8
0
 10
0.00
 20
0.00
 30
0.00
 40
0.10
  0
ENDBLK
  0
ENDSEC
  0
SECTION
  2
ENTITIES
  0
POLYLINE
  8
288088-1ROU1_GBR
 66
1
 10
0.00
 20
0.00
 30
0.00
 40
0.20
 41
0.20
  0
VERTEX
  8
288088-1ROU1_GBR
 10
225.90158
 20
207.299992
 30
0.00
  0
VERTEX
  8
288088-1ROU1_GBR
 10
226.061752
 20
207.286632
 30
0.00
  0
VERTEX
  8
288088-1ROU1_GBR
 10
226.215346
 20
207.24876
 30
0.00
  0
VERTEX
  8
288088-1ROU1_GBR
 10
226.360914
 20
207.18719
 30
0.00
  0
VERTEX
  8
288088-1ROU1_GBR
 10
226.49401
 20
207.10431
 30
0.00
  0
VERTEX
  8
288088-1ROU1_GBR
 10
226.614
 20
206.99984
 30
0.00
  0
VERTEX
  8
288088-1ROU1_GBR
 10
226.715498
 20
206.878378
 30
0.00
  0
VERTEX
  8
288088-1ROU1_GBR
 10
226.796574
 20
206.742234
 30
0.00
  0
VERTEX
  8
288088-1ROU1_GBR
 10
226.854106
 20
206.599612
 30
0.00
  0
VERTEX
  8
288088-1ROU1_GBR
 10
226.889666
 20
206.441548
 30
0.00
  0
VERTEX
  8
288088-1ROU1_GBR
 10
226.900004
 20
206.298012
 30
0.00
  0
VERTEX
  8
288088-1ROU1_GBR
 10
226.900004
 20
202.300128
 30
0.00
  0
VERTEX
  8
288088-1ROU1_GBR
 10
215.359692
 20
202.300128
 30
0.00
  0
VERTEX
  8
288088-1ROU1_GBR
 10
215.359692
 20
203.300126
 30
0.00
  0
VERTEX
  8
288088-1ROU1_GBR
 10
203.278232
 20
203.300126
 30
0.00
  0
VERTEX
  8
288088-1ROU1_GBR
 10
203.278232
 20
202.1475
 30
0.00
  0
VERTEX
  8
288088-1ROU1_GBR
 10
209.300572
 20
201.600028
 30
0.00
  0
VERTEX
  8
288088-1ROU1_GBR
 10
212.901962
 20
201.199724
 30
0.00
  0
VERTEX
  8
288088-1ROU1_GBR
 10
218.701214
 20
200.199752
 30
0.00
  0
VERTEX
  8
288088-1ROU1_GBR
 10
221.904102
 20
199.498408
 30
0.00
  0
VERTEX
  8
288088-1ROU1_GBR
 10
222.40085
 20
199.299678
 30
0.00
  0
VERTEX
  8
288088-1ROU1_GBR
 10
223.695336
 20
198.70227
 30
0.00
  0
VERTEX
  8
288088-1ROU1_GBR
 10
225.199982
 20
197.600112
 30
0.00
  0
VERTEX
  8
288088-1ROU1_GBR
 10
225.800616
 20
196.798972
 30
0.00
  0
VERTEX
  8
288088-1ROU1_GBR
 10
226.399878
 20
195.90009
 30
0.00
  0
VERTEX
  8
288088-1ROU1_GBR
 10
226.700562
 20
194.995826
 30
0.00
  0
VERTEX
  8
288088-1ROU1_GBR
 10
226.900004
 20
193.800018
 30
0.00
  0
VERTEX
  8
288088-1ROU1_GBR
 10
226.899318
 20
192.09578
 30
0.00
  0
VERTEX
  8
288088-1ROU1_GBR
 10
226.49937
 20
189.597868
 30
0.00
  0
VERTEX
  8
288088-1ROU1_GBR
 10
224.099908
 20
180.200096
 30
0.00
  0
VERTEX
  8
288088-1ROU1_GBR
 10
223.650582
 20
179.701494
 30
0.00
  0
VERTEX
  8
288088-1ROU1_GBR
 10
223.426528
 20
179.585392
 30
0.00
  0
SEQEND
  0
POLYLINE
  8
288088-1ROU1_GBR
 66
1
 10
0.00
 20
0.00
 30
0.00
 40
0.20
 41
0.20
  0
VERTEX
  8
288088-1ROU1_GBR
 10
223.426528
 20
179.585392
 30
0.00
 42
0.4373236
  0
VERTEX
  8
288088-1ROU1_GBR
 10
221.699862
 20
172.600162
 30
0.00
 42
0.00
  0
SEQEND
  0
POLYLINE
  8
288088-1ROU1_GBR
 66
1
 10
0.00
 20
0.00
 30
0.00
 40
0.20
 41
0.20
  0
VERTEX
  8
288088-1ROU1_GBR
 10
221.699862
 20
172.600162
 30
0.00
  0
VERTEX
  8
288088-1ROU1_GBR
 10
217.801672
 20
161.704832
 30
0.00
  0
VERTEX
  8
288088-1ROU1_GBR
 10
215.499976
 20
157.900166
 30
0.00
  0
VERTEX
  8
288088-1ROU1_GBR
 10
213.09993
 20
156.200144
 30
0.00
  0
VERTEX
  8
288088-1ROU1_GBR
 10
202.996648
 20
152.099188
 30
0.00
  0
VERTEX
  8
288088-1ROU1_GBR
 10
197.897724
 20
150.699598
 30
0.00
  0
VERTEX
  8
288088-1ROU1_GBR
 10
195.698288
 20
150.299776
 30
0.00
  0
VERTEX
  8
288088-1ROU1_GBR
 10
194.45445
 20
150.137546
 30
0.00
  0
VERTEX
  8
288088-1ROU1_GBR
 10
194.463366
 20
150.00003
 30
0.00
  0
VERTEX
  8
288088-1ROU1_GBR
 10
199.600972
 20
150.000004
 30
0.00
  0
VERTEX
  8
288088-1ROU1_GBR
 10
202.701272
 20
149.899828
 30
0.00
  0
VERTEX
  8
288088-1ROU1_GBR
 10
209.300572
 20
149.29993
 30
0.00
  0
VERTEX
  8
288088-1ROU1_GBR
 10
212.901962
 20
148.899626
 30
0.00
  0
VERTEX
  8
288088-1ROU1_GBR
 10
218.701214
 20
147.899654
 30
0.00
  0
VERTEX
  8
288088-1ROU1_GBR
 10
221.904102
 20
147.198308
 30
0.00
  0
VERTEX
  8
288088-1ROU1_GBR
 10
222.40085
 20
146.99958
 30
0.00
  0
VERTEX
  8
288088-1ROU1_GBR
 10
223.695336
 20
146.402172
 30
0.00
  0
VERTEX
  8
288088-1ROU1_GBR
 10
225.199982
 20
145.300014
 30
0.00
  0
VERTEX
  8
288088-1ROU1_GBR
 10
225.800616
 20
144.498872
 30
0.00
  0
VERTEX
  8
288088-1ROU1_GBR
 10
226.399878
 20
143.599992
 30
0.00
  0
VERTEX
  8
288088-1ROU1_GBR
 10
226.700562
 20
142.695726
 30
0.00
  0
VERTEX
  8
288088-1ROU1_GBR
 10
226.900004
 20
141.49992
 30
0.00
  0
VERTEX
  8
288088-1ROU1_GBR
 10
226.899318
 20
139.795682
 30
0.00
  0
VERTEX
  8
288088-1ROU1_GBR
 10
226.49937
 20
137.29777
 30
0.00
  0
VERTEX
  8
288088-1ROU1_GBR
 10
224.099908
 20
127.899998
 30
0.00
  0
VERTEX
  8
288088-1ROU1_GBR
 10
223.650582
 20
127.401396
 30
0.00
  0
VERTEX
  8
288088-1ROU1_GBR
 10
223.426528
 20
127.285292
 30
0.00
  0
SEQEND
  0
POLYLINE
  8
288088-1ROU1_GBR
 66
1
 10
0.00
 20
0.00
 30
0.00
 40
0.20
 41
0.20
  0
VERTEX
  8
288088-1ROU1_GBR
 10
223.426528
 20
127.285292
 30
0.00
 42
0.4373257
  0
VERTEX
  8
288088-1ROU1_GBR
 10
221.699858
 20
120.30006
 30
0.00
 42
0.00
  0
SEQEND
  0
POLYLINE
  8
288088-1ROU1_GBR
 66
1
 10
0.00
 20
0.00
 30
0.00
 40
0.20
 41
0.20
  0
VERTEX
  8
288088-1ROU1_GBR
 10
221.699862
 20
120.300064
 30
0.00
  0
VERTEX
  8
288088-1ROU1_GBR
 10
217.801672
 20
109.404734
 30
0.00
  0
VERTEX
  8
288088-1ROU1_GBR
 10
215.499976
 20
105.600068
 30
0.00
  0
VERTEX
  8
288088-1ROU1_GBR
 10
213.09993
 20
103.900046
 30
0.00
  0
VERTEX
  8
288088-1ROU1_GBR
 10
202.996648
 20
99.79909
 30
0.00
  0
VERTEX
  8
288088-1ROU1_GBR
 10
197.897724
 20
98.399498
 30
0.00
  0
VERTEX
  8
288088-1ROU1_GBR
 10
195.698288
 20
97.999678
 30
0.00
  0
VERTEX
  8
288088-1ROU1_GBR
 10
193.399944
 20
97.699906
 30
0.00
  0
VERTEX
  8
288088-1ROU1_GBR
 10
193.399944
 20
96.699908
 30
0.00
  0
VERTEX
  8
288088-1ROU1_GBR
 10
201.49688
 20
96.699908
 30
0.00
  0
VERTEX
  8
288088-1ROU1_GBR
 10
201.49688
 20
97.699906
 30
0.00
  0
VERTEX
  8
288088-1ROU1_GBR
 10
226.900004
 20
97.699906
 30
0.00
  0
VERTEX
  8
288088-1ROU1_GBR
 10
226.899826
 20
93.69768
 30
0.00
  0
VERTEX
  8
288088-1ROU1_GBR
 10
226.886592
 20
93.538522
 30
0.00
  0
VERTEX
  8
288088-1ROU1_GBR
 10
226.848696
 20
93.384752
 30
0.00
  0
VERTEX
  8
288088-1ROU1_GBR
 10
226.787202
 20
93.239184
 30
0.00
  0
VERTEX
  8
288088-1ROU1_GBR
 10
226.706074
 20
93.108068
 30
0.00
  0
VERTEX
  8
288088-1ROU1_GBR
 10
226.599344
 20
92.98559
 30
0.00
  0
VERTEX
  8
288088-1ROU1_GBR
 10
226.47811
 20
92.884346
 30
0.00
  0
VERTEX
  8
288088-1ROU1_GBR
 10
226.342092
 20
92.80332
 30
0.00
  0
VERTEX
  8
288088-1ROU1_GBR
 10
226.19561
 20
92.744926
 30
0.00
  0
VERTEX
  8
288088-1ROU1_GBR
 10
226.041356
 20
92.710228
 30
0.00
  0
VERTEX
  8
288088-1ROU1_GBR
 10
225.898152
 20
92.699916
 30
0.00
  0
VERTEX
  8
288088-1ROU1_GBR
 10
74.10008
 20
92.699916
 30
0.00
  0
VERTEX
  8
288088-1ROU1_GBR
 10
73.950652
 20
92.711422
 30
0.00
  0
VERTEX
  8
288088-1ROU1_GBR
 10
73.796906
 20
92.747262
 30
0.00
  0
VERTEX
  8
288088-1ROU1_GBR
 10
73.650196
 20
92.80713
 30
0.00
  0
VERTEX
  8
288088-1ROU1_GBR
 10
73.51494
 20
92.889324
 30
0.00
  0
VERTEX
  8
288088-1ROU1_GBR
 10
73.394722
 20
92.991406
 30
0.00
  0
VERTEX
  8
288088-1ROU1_GBR
 10
73.291776
 20
93.111498
 30
0.00
  0
VERTEX
  8
288088-1ROU1_GBR
 10
73.210674
 20
93.242588
 30
0.00
  0
VERTEX
  8
288088-1ROU1_GBR
 10
73.149688
 20
93.38851
 30
0.00
  0
VERTEX
  8
288088-1ROU1_GBR
 10
73.112122
 20
93.546752
 30
0.00
  0
VERTEX
  8
288088-1ROU1_GBR
 10
73.09998
 20
93.699914
 30
0.00
  0
VERTEX
  8
288088-1ROU1_GBR
 10
73.09998
 20
97.699906
 30
0.00
  0
VERTEX
  8
288088-1ROU1_GBR
 10
97.911768
 20
97.699906
 30
0.00
  0
VERTEX
  8
288088-1ROU1_GBR
 10
97.911768
 20
96.699908
 30
0.00
  0
VERTEX
  8
288088-1ROU1_GBR
 10
105.39989
 20
96.699908
 30
0.00
  0
VERTEX
  8
288088-1ROU1_GBR
 10
105.39989
 20
97.699906
 30
0.00
  0
VERTEX
  8
288088-1ROU1_GBR
 10
104.59847
 20
97.90054
 30
0.00
  0
VERTEX
  8
288088-1ROU1_GBR
 10
103.600046
 20
98.200032
 30
0.00
  0
VERTEX
  8
288088-1ROU1_GBR
 10
102.09972
 20
98.600134
 30
0.00
  0
VERTEX
  8
288088-1ROU1_GBR
 10
96.59709
 20
100.101146
 30
0.00
  0
VERTEX
  8
288088-1ROU1_GBR
 10
86.697642
 20
104.101164
 30
0.00
  0
VERTEX
  8
288088-1ROU1_GBR
 10
85.59668
 20
104.702534
 30
0.00
  0
VERTEX
  8
288088-1ROU1_GBR
 10
84.699906
 20
105.399916
 30
0.00
  0
VERTEX
  8
288088-1ROU1_GBR
 10
83.399934
 20
106.999862
 30
0.00
  0
VERTEX
  8
288088-1ROU1_GBR
 10
82.099404
 20
109.701178
 30
0.00
  0
VERTEX
  8
288088-1ROU1_GBR
 10
81.499584
 20
111.101048
 30
0.00
  0
VERTEX
  8
288088-1ROU1_GBR
 10
79.299536
 20
116.90101
 30
0.00
  0
VERTEX
  8
288088-1ROU1_GBR
 10
78.399336
 20
119.602606
 30
0.00
  0
VERTEX
  8
288088-1ROU1_GBR
 10
78.186584
 20
120.507582
 30
0.00
  0
SEQEND
  0
POLYLINE
  8
288088-1ROU1_GBR
 66
1
 10
0.00
 20
0.00
 30
0.00
 40
0.20
 41
0.20
  0
VERTEX
  8
288088-1ROU1_GBR
 10
78.186584
 20
120.507582
 30
0.00
 42
0.0771927
  0
VERTEX
  8
288088-1ROU1_GBR
 10
78.70856
 20
121.916036
 30
0.00
 42
0.00
  0
SEQEND
  0
POLYLINE
  8
288088-1ROU1_GBR
 66
1
 10
0.00
 20
0.00
 30
0.00
 40
0.20
 41
0.20
  0
VERTEX
  8
288088-1ROU1_GBR
 10
78.708554
 20
121.916038
 30
0.00
 42
0.0511691
  0
VERTEX
  8
288088-1ROU1_GBR
 10
78.80736
 20
122.914994
 30
0.00
 42
0.00
  0
SEQEND
  0
POLYLINE
  8
288088-1ROU1_GBR
 66
1
 10
0.00
 20
0.00
 30
0.00
 40
0.20
 41
0.20
  0
VERTEX
  8
288088-1ROU1_GBR
 10
78.80736
 20
122.914994
 30
0.00
 42
0.1027616
  0
VERTEX
  8
288088-1ROU1_GBR
 10
78.392072
 20
124.868254
 30
0.00
 42
0.00
  0
SEQEND
  0
POLYLINE
  8
288088-1ROU1_GBR
 66
1
 10
0.00
 20
0.00
 30
0.00
 40
0.20
 41
0.20
  0
VERTEX
  8
288088-1ROU1_GBR
 10
78.39207
 20
124.868254
 30
0.00
 42
0.0514961
  0
VERTEX
  8
288088-1ROU1_GBR
 10
77.895734
 20
125.740772
 30
0.00
 42
0.00
  0
SEQEND
  0
POLYLINE
  8
288088-1ROU1_GBR
 66
1
 10
0.00
 20
0.00
 30
0.00
 40
0.20
 41
0.20
  0
VERTEX
  8
288088-1ROU1_GBR
 10
77.89573
 20
125.74077
 30
0.00
 42
0.0511847
  0
VERTEX
  8
288088-1ROU1_GBR
 10
77.232328
 20
126.49357
 30
0.00
 42
0.00
  0
SEQEND
  0
POLYLINE
  8
288088-1ROU1_GBR
 66
1
 10
0.00
 20
0.00
 30
0.00
 40
0.20
 41
0.20
  0
VERTEX
  8
288088-1ROU1_GBR
 10
77.232332
 20
126.493574
 30
0.00
 42
0.0635485
  0
VERTEX
  8
288088-1ROU1_GBR
 10
76.230984
 20
127.207892
 30
0.00
 42
0.00
  0
SEQEND
  0
POLYLINE
  8
288088-1ROU1_GBR
 66
1
 10
0.00
 20
0.00
 30
0.00
 40
0.20
 41
0.20
  0
VERTEX
  8
288088-1ROU1_GBR
 10
76.230988
 20
127.2079
 30
0.00
  0
VERTEX
  8
288088-1ROU1_GBR
 10
76.204622
 20
127.239904
 30
0.00
  0
VERTEX
  8
288088-1ROU1_GBR
 10
74.299572
 20
134.201484
 30
0.00
  0
VERTEX
  8
288088-1ROU1_GBR
 10
73.2996
 20
139.102896
 30
0.00
  0
VERTEX
  8
288088-1ROU1_GBR
 10
73.09998
 20
141.10015
 30
0.00
  0
VERTEX
  8
288088-1ROU1_GBR
 10
73.200184
 20
141.800606
 30
0.00
  0
VERTEX
  8
288088-1ROU1_GBR
 10
73.30148
 20
142.40449
 30
0.00
  0
VERTEX
  8
288088-1ROU1_GBR
 10
73.702088
 20
143.503676
 30
0.00
  0
VERTEX
  8
288088-1ROU1_GBR
 10
74.101502
 20
144.2021
 30
0.00
  0
VERTEX
  8
288088-1ROU1_GBR
 10
74.601528
 20
144.90192
 30
0.00
  0
VERTEX
  8
288088-1ROU1_GBR
 10
75.196116
 20
145.595416
 30
0.00
  0
VERTEX
  8
288088-1ROU1_GBR
 10
75.204498
 20
145.603316
 30
0.00
  0
VERTEX
  8
288088-1ROU1_GBR
 10
76.003278
 20
146.201816
 30
0.00
  0
VERTEX
  8
288088-1ROU1_GBR
 10
76.903606
 20
146.701434
 30
0.00
  0
VERTEX
  8
288088-1ROU1_GBR
 10
78.004136
 20
147.100926
 30
0.00
  0
VERTEX
  8
288088-1ROU1_GBR
 10
81.100372
 20
147.700136
 30
0.00
  0
VERTEX
  8
288088-1ROU1_GBR
 10
87.20201
 20
148.800338
 30
0.00
  0
VERTEX
  8
288088-1ROU1_GBR
 10
90.100024
 20
149.100108
 30
0.00
  0
VERTEX
  8
288088-1ROU1_GBR
 10
93.70088
 20
149.49998
 30
0.00
  0
VERTEX
  8
288088-1ROU1_GBR
 10
97.20105
 20
149.79993
 30
0.00
  0
VERTEX
  8
288088-1ROU1_GBR
 10
101.001424
 20
150.00003
 30
0.00
  0
VERTEX
  8
288088-1ROU1_GBR
 10
105.070326
 20
150.00003
 30
0.00
  0
VERTEX
  8
288088-1ROU1_GBR
 10
105.080156
 20
150.080014
 30
0.00
  0
VERTEX
  8
288088-1ROU1_GBR
 10
104.59847
 20
150.20064
 30
0.00
  0
VERTEX
  8
288088-1ROU1_GBR
 10
103.600122
 20
150.500106
 30
0.00
  0
VERTEX
  8
288088-1ROU1_GBR
 10
102.09972
 20
150.900232
 30
0.00
  0
VERTEX
  8
288088-1ROU1_GBR
 10
96.59709
 20
152.401244
 30
0.00
  0
VERTEX
  8
288088-1ROU1_GBR
 10
86.697642
 20
156.401262
 30
0.00
  0
VERTEX
  8
288088-1ROU1_GBR
 10
85.59668
 20
157.002632
 30
0.00
  0
VERTEX
  8
288088-1ROU1_GBR
 10
84.699906
 20
157.700014
 30
0.00
  0
VERTEX
  8
288088-1ROU1_GBR
 10
83.39996
 20
159.299936
 30
0.00
  0
VERTEX
  8
288088-1ROU1_GBR
 10
82.09948
 20
162.001098
 30
0.00
  0
VERTEX
  8
288088-1ROU1_GBR
 10
81.49976
 20
163.400664
 30
0.00
  0
VERTEX
  8
288088-1ROU1_GBR
 10
79.299536
 20
169.20111
 30
0.00
  0
VERTEX
  8
288088-1ROU1_GBR
 10
78.399336
 20
171.902704
 30
0.00
  0
VERTEX
  8
288088-1ROU1_GBR
 10
78.186584
 20
172.80768
 30
0.00
  0
SEQEND
  0
POLYLINE
  8
288088-1ROU1_GBR
 66
1
 10
0.00
 20
0.00
 30
0.00
 40
0.20
 41
0.20
  0
VERTEX
  8
288088-1ROU1_GBR
 10
78.186584
 20
172.80768
 30
0.00
 42
0.077197
  0
VERTEX
  8
288088-1ROU1_GBR
 10
78.708554
 20
174.21611
 30
0.00
 42
0.00
  0
SEQEND
  0
POLYLINE
  8
288088-1ROU1_GBR
 66
1
 10
0.00
 20
0.00
 30
0.00
 40
0.20
 41
0.20
  0
VERTEX
  8
288088-1ROU1_GBR
 10
78.708554
 20
174.21611
 30
0.00
 42
0.0511714
  0
VERTEX
  8
288088-1ROU1_GBR
 10
78.807356
 20
175.21509
 30
0.00
 42
0.00
  0
SEQEND
  0
POLYLINE
  8
288088-1ROU1_GBR
 66
1
 10
0.00
 20
0.00
 30
0.00
 40
0.20
 41
0.20
  0
VERTEX
  8
288088-1ROU1_GBR
 10
78.80736
 20
175.215092
 30
0.00
 42
0.051242
  0
VERTEX
  8
288088-1ROU1_GBR
 10
78.700178
 20
176.213058
 30
0.00
 42
0.00
  0
SEQEND
  0
POLYLINE
  8
288088-1ROU1_GBR
 66
1
 10
0.00
 20
0.00
 30
0.00
 40
0.20
 41
0.20
  0
VERTEX
  8
288088-1ROU1_GBR
 10
78.700172
 20
176.213058
 30
0.00
 42
0.1550602
  0
VERTEX
  8
288088-1ROU1_GBR
 10
77.232308
 20
178.7937
 30
0.00
 42
0.00
  0
SEQEND
  0
POLYLINE
  8
288088-1ROU1_GBR
 66
1
 10
0.00
 20
0.00
 30
0.00
 40
0.20
 41
0.20
  0
VERTEX
  8
288088-1ROU1_GBR
 10
77.232306
 20
178.793698
 30
0.00
 42
0.0635476
  0
VERTEX
  8
288088-1ROU1_GBR
 10
76.230912
 20
179.508048
 30
0.00
 42
0.00
  0
SEQEND
  0
POLYLINE
  8
288088-1ROU1_GBR
 66
1
 10
0.00
 20
0.00
 30
0.00
 40
0.20
 41
0.20
  0
VERTEX
  8
288088-1ROU1_GBR
 10
76.230912
 20
179.508048
 30
0.00
  0
VERTEX
  8
288088-1ROU1_GBR
 10
76.204598
 20
179.540104
 30
0.00
  0
VERTEX
  8
288088-1ROU1_GBR
 10
74.299572
 20
186.501582
 30
0.00
  0
VERTEX
  8
288088-1ROU1_GBR
 10
73.2996
 20
191.402996
 30
0.00
  0
VERTEX
  8
288088-1ROU1_GBR
 10
73.09998
 20
193.400248
 30
0.00
  0
VERTEX
  8
288088-1ROU1_GBR
 10
73.200184
 20
194.100704
 30
0.00
  0
VERTEX
  8
288088-1ROU1_GBR
 10
73.30148
 20
194.70459
 30
0.00
  0
VERTEX
  8
288088-1ROU1_GBR
 10
73.702088
 20
195.803774
 30
0.00
  0
VERTEX
  8
288088-1ROU1_GBR
 10
74.101502
 20
196.502198
 30
0.00
  0
VERTEX
  8
288088-1ROU1_GBR
 10
74.601552
 20
197.20207
 30
0.00
  0
VERTEX
  8
288088-1ROU1_GBR
 10
75.196166
 20
197.89554
 30
0.00
  0
VERTEX
  8
288088-1ROU1_GBR
 10
75.204548
 20
197.903466
 30
0.00
  0
VERTEX
  8
288088-1ROU1_GBR
 10
76.003278
 20
198.501914
 30
0.00
  0
VERTEX
  8
288088-1ROU1_GBR
 10
76.903606
 20
199.001532
 30
0.00
  0
VERTEX
  8
288088-1ROU1_GBR
 10
78.004136
 20
199.401024
 30
0.00
  0
VERTEX
  8
288088-1ROU1_GBR
 10
81.100498
 20
200.00026
 30
0.00
  0
VERTEX
  8
288088-1ROU1_GBR
 10
87.202036
 20
201.100436
 30
0.00
  0
VERTEX
  8
288088-1ROU1_GBR
 10
90.100024
 20
201.400206
 30
0.00
  0
VERTEX
  8
288088-1ROU1_GBR
 10
93.70088
 20
201.80008
 30
0.00
  0
VERTEX
  8
288088-1ROU1_GBR
 10
97.20105
 20
202.100028
 30
0.00
  0
VERTEX
  8
288088-1ROU1_GBR
 10
98.304198
 20
202.158142
 30
0.00
  0
VERTEX
  8
288088-1ROU1_GBR
 10
98.304198
 20
203.300126
 30
0.00
  0
VERTEX
  8
288088-1ROU1_GBR
 10
86.222764
 20
203.300126
 30
0.00
  0
VERTEX
  8
288088-1ROU1_GBR
 10
86.222764
 20
202.300128
 30
0.00
  0
VERTEX
  8
288088-1ROU1_GBR
 10
73.09998
 20
202.300128
 30
0.00
  0
VERTEX
  8
288088-1ROU1_GBR
 10
73.09998
 20
206.30012
 30
0.00
  0
VERTEX
  8
288088-1ROU1_GBR
 10
73.113596
 20
206.462376
 30
0.00
  0
VERTEX
  8
288088-1ROU1_GBR
 10
73.149688
 20
206.611524
 30
0.00
  0
VERTEX
  8
288088-1ROU1_GBR
 10
73.210674
 20
206.757474
 30
0.00
  0
VERTEX
  8
288088-1ROU1_GBR
 10
73.296704
 20
206.895218
 30
0.00
  0
VERTEX
  8
288088-1ROU1_GBR
 10
73.40026
 20
207.01414
 30
0.00
  0
VERTEX
  8
288088-1ROU1_GBR
 10
73.5219
 20
207.11569
 30
0.00
  0
VERTEX
  8
288088-1ROU1_GBR
 10
73.657688
 20
207.196664
 30
0.00
  0
VERTEX
  8
288088-1ROU1_GBR
 10
73.80473
 20
207.255212
 30
0.00
  0
VERTEX
  8
288088-1ROU1_GBR
 10
73.959186
 20
207.289858
 30
0.00
  0
VERTEX
  8
288088-1ROU1_GBR
 10
74.101834
 20
207.300118
 30
0.00
  0
VERTEX
  8
288088-1ROU1_GBR
 10
225.90158
 20
207.299992
 30
0.00
  0
SEQEND
  0
ENDSEC
  0
EOF
