  0
SECTION
  2
HEADER
  9
$EXTMIN
 10
-258.359834
 20
-58.010602
 30
0.00
  9
$EXTMAX
 10
470.00
 20
419.20
 30
0.00
  0
ENDSEC
  0
SECTION
  2
TABLES
  0
TABLE
  2
LTYPE
 70
3
  0
LTYPE
  2
BYBLOCK
 70
0
  3

 72
65
 73
0
 40
0.00
  0
LTYPE
  2
BYLAYER
 70
0
  3

 72
65
 73
0
 40
0.00
  0
LTYPE
  2
CONTINUOUS
 70
0
  3
Solid line
 72
65
 73
0
 40
0.00
  0
ENDTAB
  0
TABLE
  2
LAYER
 70
99
  0
LAYER
  2
0
 70
0
 62
7
  6
CONTINUOUS
  0
LAYER
  2
020671-1ROU1_GBR
 70
0
 62
7
  6
CONTINUOUS
  0
LAYER
  2
027417-3ROU1_GBR
 70
0
 62
7
  6
CONTINUOUS
  0
LAYER
  2
027419-1ROU1_GBR
 70
0
 62
2
  6
CONTINUOUS
  0
LAYER
  2
027419-2ROU1_GBR
 70
0
 62
6
  6
CONTINUOUS
  0
LAYER
  2
027674-1ROU1_GBR
 70
0
 62
1
  6
CONTINUOUS
  0
LAYER
  2
027676-1ROU1_GBR
 70
0
 62
4
  6
CONTINUOUS
  0
LAYER
  2
027678-3ROU1_GBR
 70
0
 62
3
  6
CONTINUOUS
  0
LAYER
  2
028122-1ROU1_GBR
 70
0
 62
5
  6
CONTINUOUS
  0
LAYER
  2
028124-5ROU1_GBR
 70
0
 62
10
  6
CONTINUOUS
  0
LAYER
  2
028126-1ROU1_GBR
 70
0
 62
14
  6
CONTINUOUS
  0
LAYER
  2
028126-3ROU1_GBR
 70
0
 62
9
  6
CONTINUOUS
  0
LAYER
  2
028126-6ROU1_GBR
 70
0
 62
12
  6
CONTINUOUS
  0
LAYER
  2
028126-7ROU1_GBR
 70
0
 62
11
  6
CONTINUOUS
  0
LAYER
  2
028129-1ROU1_GBR
 70
0
 62
13
  6
CONTINUOUS
  0
LAYER
  2
028130-1ROU1_GBR
 70
0
 62
8
  6
CONTINUOUS
  0
LAYER
  2
028130-4ROU1_GBR
 70
0
 62
15
  6
CONTINUOUS
  0
LAYER
  2
028130-5ROU1_GBR
 70
0
 62
7
  6
CONTINUOUS
  0
LAYER
  2
028130-7ROU1_GBR
 70
0
 62
7
  6
CONTINUOUS
  0
LAYER
  2
028655-1ROU1_GBR
 70
0
 62
2
  6
CONTINUOUS
  0
LAYER
  2
028657-1ROU1_GBR
 70
0
 62
6
  6
CONTINUOUS
  0
LAYER
  2
028659-2ROU1_GBR
 70
0
 62
1
  6
CONTINUOUS
  0
LAYER
  2
028659-4ROU1_GBR
 70
0
 62
4
  6
CONTINUOUS
  0
LAYER
  2
028661-1ROU1_GBR
 70
0
 62
3
  6
CONTINUOUS
  0
LAYER
  2
028663-1ROU1_GBR
 70
0
 62
5
  6
CONTINUOUS
  0
LAYER
  2
028665-1ROU1_GBR
 70
0
 62
10
  6
CONTINUOUS
  0
LAYER
  2
028669-1ROU1_GBR
 70
0
 62
14
  6
CONTINUOUS
  0
LAYER
  2
028673-2ROU1_GBR
 70
0
 62
9
  6
CONTINUOUS
  0
LAYER
  2
037088-3ROU1_GBR
 70
0
 62
12
  6
CONTINUOUS
  0
LAYER
  2
037682-1ROU1_GBR
 70
0
 62
11
  6
CONTINUOUS
  0
LAYER
  2
037686-1ROU1_GBR
 70
0
 62
13
  6
CONTINUOUS
  0
LAYER
  2
037688-1ROU1_GBR
 70
0
 62
8
  6
CONTINUOUS
  0
LAYER
  2
038681-1ROU1_GBR
 70
0
 62
15
  6
CONTINUOUS
  0
LAYER
  2
038683-1ROU1_GBR
 70
0
 62
7
  6
CONTINUOUS
  0
LAYER
  2
038683-2ROU1_GBR
 70
0
 62
7
  6
CONTINUOUS
  0
LAYER
  2
038685-1ROU1_GBR
 70
0
 62
2
  6
CONTINUOUS
  0
LAYER
  2
038689-1ROU1_GBR
 70
0
 62
6
  6
CONTINUOUS
  0
LAYER
  2
038689-2ROU1_GBR
 70
0
 62
1
  6
CONTINUOUS
  0
LAYER
  2
038691-1ROU1_GBR
 70
0
 62
4
  6
CONTINUOUS
  0
LAYER
  2
038691-2ROU1_GBR
 70
0
 62
3
  6
CONTINUOUS
  0
LAYER
  2
038691-3ROU1_GBR
 70
0
 62
5
  6
CONTINUOUS
  0
LAYER
  2
038691-4ROU1_GBR
 70
0
 62
10
  6
CONTINUOUS
  0
LAYER
  2
038693-1ROU1_GBR
 70
0
 62
14
  6
CONTINUOUS
  0
LAYER
  2
038695-1ROU1_GBR
 70
0
 62
9
  6
CONTINUOUS
  0
LAYER
  2
038697-1ROU1_GBR
 70
0
 62
12
  6
CONTINUOUS
  0
LAYER
  2
038697-3ROU1_GBR
 70
0
 62
11
  6
CONTINUOUS
  0
LAYER
  2
038697-4ROU1_GBR
 70
0
 62
13
  6
CONTINUOUS
  0
LAYER
  2
038697-5ROU1_GBR
 70
0
 62
8
  6
CONTINUOUS
  0
LAYER
  2
047706-4ROU1_GBR
 70
0
 62
15
  6
CONTINUOUS
  0
LAYER
  2
047706-5ROU1_GBR
 70
0
 62
7
  6
CONTINUOUS
  0
LAYER
  2
047706-6ROU1_GBR
 70
0
 62
7
  6
CONTINUOUS
  0
LAYER
  2
047708-1ROU1_GBR
 70
0
 62
2
  6
CONTINUOUS
  0
LAYER
  2
047710-1ROU1_GBR
 70
0
 62
6
  6
CONTINUOUS
  0
LAYER
  2
047712-1ROU1_GBR
 70
0
 62
1
  6
CONTINUOUS
  0
LAYER
  2
047714-2ROU1_GBR
 70
0
 62
4
  6
CONTINUOUS
  0
LAYER
  2
048701-1ROU1_GBR
 70
0
 62
3
  6
CONTINUOUS
  0
LAYER
  2
048703-1ROU1_GBR
 70
0
 62
10
  6
CONTINUOUS
  0
LAYER
  2
048711-1ROU1_GBR
 70
0
 62
14
  6
CONTINUOUS
  0
LAYER
  2
048715-1ROU1_GBR
 70
0
 62
9
  6
CONTINUOUS
  0
LAYER
  2
058721-2ROU1_GBR
 70
0
 62
12
  6
CONTINUOUS
  0
LAYER
  2
058723-10ROU1_GBR
 70
0
 62
11
  6
CONTINUOUS
  0
LAYER
  2
058723-1ROU1_GBR
 70
0
 62
13
  6
CONTINUOUS
  0
LAYER
  2
058723-6ROU1_GBR
 70
0
 62
8
  6
CONTINUOUS
  0
LAYER
  2
058723-9ROU1_GBR
 70
0
 62
15
  6
CONTINUOUS
  0
LAYER
  2
067601-1ROU1_GBR
 70
0
 62
7
  6
CONTINUOUS
  0
LAYER
  2
068162-1ROU1_GBR
 70
0
 62
7
  6
CONTINUOUS
  0
LAYER
  2
068162-3ROU1_GBR
 70
0
 62
2
  6
CONTINUOUS
  0
LAYER
  2
068162-4ROU1_GBR
 70
0
 62
6
  6
CONTINUOUS
  0
LAYER
  2
077742-1ROU1_GBR
 70
0
 62
1
  6
CONTINUOUS
  0
LAYER
  2
078731-1ROU1_GBR
 70
0
 62
4
  6
CONTINUOUS
  0
LAYER
  2
078735-3ROU1_GBR
 70
0
 62
3
  6
CONTINUOUS
  0
LAYER
  2
078739-1ROU1_GBR
 70
0
 62
5
  6
CONTINUOUS
  0
LAYER
  2
078753-1ROU1_GBR
 70
0
 62
10
  6
CONTINUOUS
  0
LAYER
  2
078757-1ROU1_GBR
 70
0
 62
14
  6
CONTINUOUS
  0
LAYER
  2
087768-2ROU1_GBR
 70
0
 62
9
  6
CONTINUOUS
  0
LAYER
  2
087772-1ROU1_GBR
 70
0
 62
12
  6
CONTINUOUS
  0
LAYER
  2
087780-1ROU1_GBR
 70
0
 62
11
  6
CONTINUOUS
  0
LAYER
  2
087782-9ROU1_GBR
 70
0
 62
13
  6
CONTINUOUS
  0
LAYER
  2
088783-4ROU1_GBR
 70
0
 62
8
  6
CONTINUOUS
  0
LAYER
  2
088785-1ROU1_GBR
 70
0
 62
15
  6
CONTINUOUS
  0
LAYER
  2
097800-6ROU1_GBR
 70
0
 62
7
  6
CONTINUOUS
  0
LAYER
  2
097810-1ROU1_GBR
 70
0
 62
7
  6
CONTINUOUS
  0
LAYER
  2
098787-1ROU1_GBR
 70
0
 62
2
  6
CONTINUOUS
  0
LAYER
  2
098787-2ROU1_GBR
 70
0
 62
6
  6
CONTINUOUS
  0
LAYER
  2
098789-1ROU1_GBR
 70
0
 62
1
  6
CONTINUOUS
  0
LAYER
  2
098811-1ROU1_GBR
 70
0
 62
4
  6
CONTINUOUS
  0
LAYER
  2
098815-1ROU1_GBR
 70
0
 62
3
  6
CONTINUOUS
  0
LAYER
  2
098815-2ROU1_GBR
 70
0
 62
5
  6
CONTINUOUS
  0
LAYER
  2
107824-1ROU1_GBR
 70
0
 62
10
  6
CONTINUOUS
  0
LAYER
  2
118200-1ROU1_GBR
 70
0
 62
14
  6
CONTINUOUS
  0
LAYER
  2
257017-1ROU1_GBR
 70
0
 62
9
  6
CONTINUOUS
  0
LAYER
  2
268076-7ROU1_GBR
 70
0
 62
12
  6
CONTINUOUS
  0
LAYER
  2
288088-1ROU1_GBR
 70
0
 62
11
  6
CONTINUOUS
  0
LAYER
  2
307251-1ROU1_GBR
 70
0
 62
13
  6
CONTINUOUS
  0
LAYER
  2
307273-4ROU1_GBR
 70
0
 62
8
  6
CONTINUOUS
  0
LAYER
  2
307283-1ROU1_GBR
 70
0
 62
15
  6
CONTINUOUS
  0
LAYER
  2
307291-1ROU1_GBR
 70
0
 62
7
  6
CONTINUOUS
  0
LAYER
  2
308108-1ROU1_GBR
 70
0
 62
7
  6
CONTINUOUS
  0
LAYER
  2
308111-1ROU1_GBR
 70
0
 62
2
  6
CONTINUOUS
  0
LAYER
  2
308112-1ROU1_GBR
 70
0
 62
6
  6
CONTINUOUS
  0
ENDTAB
  0
TABLE
  2
STYLE
 70
0
  0
ENDTAB
  0
ENDSEC
  0
SECTION
  2
BLOCKS
  0
BLOCK
  2
ROUND_1
  3
ROUND_1
 70
64
 10
0.00
 20
0.00
 30
0.00
  0
CIRCLE
  8
0
 10
0.00
 20
0.00
 30
0.00
 40
0.10
  0
ENDBLK
  0
ENDSEC
  0
SECTION
  2
ENTITIES
  0
POLYLINE
  8
308108-1ROU1_GBR
 66
1
 10
0.00
 20
0.00
 30
0.00
 40
0.20
 41
0.20
  0
VERTEX
  8
308108-1ROU1_GBR
 10
339.79104
 20
205.613
 30
0.00
  0
VERTEX
  8
308108-1ROU1_GBR
 10
339.79104
 20
199.61098
 30
0.00
  0
VERTEX
  8
308108-1ROU1_GBR
 10
334.57642
 20
199.61098
 30
0.00
  0
VERTEX
  8
308108-1ROU1_GBR
 10
334.57642
 20
197.612
 30
0.00
  0
VERTEX
  8
308108-1ROU1_GBR
 10
337.022796
 20
197.611696
 30
0.00
  0
VERTEX
  8
308108-1ROU1_GBR
 10
337.26882
 20
197.5866
 30
0.00
  0
VERTEX
  8
308108-1ROU1_GBR
 10
337.50758
 20
197.51548
 30
0.00
  0
VERTEX
  8
308108-1ROU1_GBR
 10
337.730008
 20
197.395388
 30
0.00
  0
VERTEX
  8
308108-1ROU1_GBR
 10
337.91906
 20
197.24116
 30
0.00
  0
VERTEX
  8
308108-1ROU1_GBR
 10
338.073366
 20
197.052006
 30
0.00
  0
VERTEX
  8
308108-1ROU1_GBR
 10
338.19338
 20
196.82714
 30
0.00
  0
VERTEX
  8
308108-1ROU1_GBR
 10
338.26704
 20
196.59092
 30
0.00
  0
VERTEX
  8
308108-1ROU1_GBR
 10
338.2899
 20
196.339612
 30
0.00
  0
VERTEX
  8
308108-1ROU1_GBR
 10
338.2899
 20
191.61252
 30
0.00
  0
VERTEX
  8
308108-1ROU1_GBR
 10
339.79104
 20
190.11138
 30
0.00
  0
VERTEX
  8
308108-1ROU1_GBR
 10
339.79104
 20
186.761272
 30
0.00
  0
VERTEX
  8
308108-1ROU1_GBR
 10
338.246162
 20
186.761272
 30
0.00
  0
VERTEX
  8
308108-1ROU1_GBR
 10
338.2899
 20
186.598102
 30
0.00
  0
VERTEX
  8
308108-1ROU1_GBR
 10
338.2899
 20
180.12636
 30
0.00
  0
VERTEX
  8
308108-1ROU1_GBR
 10
338.237526
 20
179.955394
 30
0.00
  0
VERTEX
  8
308108-1ROU1_GBR
 10
339.79104
 20
179.955394
 30
0.00
  0
VERTEX
  8
308108-1ROU1_GBR
 10
339.790736
 20
133.880504
 30
0.00
  0
VERTEX
  8
308108-1ROU1_GBR
 10
339.76564
 20
133.634454
 30
0.00
  0
VERTEX
  8
308108-1ROU1_GBR
 10
339.696094
 20
133.401004
 30
0.00
  0
VERTEX
  8
308108-1ROU1_GBR
 10
339.691878
 20
133.390894
 30
0.00
  0
VERTEX
  8
308108-1ROU1_GBR
 10
339.577222
 20
133.18109
 30
0.00
  0
VERTEX
  8
308108-1ROU1_GBR
 10
339.41766
 20
132.98424
 30
0.00
  0
VERTEX
  8
308108-1ROU1_GBR
 10
339.23102
 20
132.82996
 30
0.00
  0
VERTEX
  8
308108-1ROU1_GBR
 10
339.00618
 20
132.70992
 30
0.00
  0
VERTEX
  8
308108-1ROU1_GBR
 10
338.772296
 20
132.637758
 30
0.00
  0
VERTEX
  8
308108-1ROU1_GBR
 10
338.52104
 20
132.6134
 30
0.00
  0
VERTEX
  8
308108-1ROU1_GBR
 10
327.57618
 20
132.6134
 30
0.00
  0
VERTEX
  8
308108-1ROU1_GBR
 10
327.57618
 20
130.61188
 30
0.00
  0
VERTEX
  8
308108-1ROU1_GBR
 10
339.79104
 20
130.61188
 30
0.00
  0
VERTEX
  8
308108-1ROU1_GBR
 10
339.79104
 20
124.6124
 30
0.00
  0
VERTEX
  8
308108-1ROU1_GBR
 10
167.78986
 20
124.6124
 30
0.00
  0
VERTEX
  8
308108-1ROU1_GBR
 10
167.78986
 20
130.61188
 30
0.00
  0
VERTEX
  8
308108-1ROU1_GBR
 10
180.00472
 20
130.61188
 30
0.00
  0
VERTEX
  8
308108-1ROU1_GBR
 10
180.00472
 20
132.6134
 30
0.00
  0
VERTEX
  8
308108-1ROU1_GBR
 10
169.05986
 20
132.6134
 30
0.00
  0
VERTEX
  8
308108-1ROU1_GBR
 10
168.818966
 20
132.635752
 30
0.00
  0
VERTEX
  8
308108-1ROU1_GBR
 10
168.808426
 20
132.63781
 30
0.00
  0
VERTEX
  8
308108-1ROU1_GBR
 10
168.57472
 20
132.70992
 30
0.00
  0
VERTEX
  8
308108-1ROU1_GBR
 10
168.349904
 20
132.829936
 30
0.00
  0
VERTEX
  8
308108-1ROU1_GBR
 10
168.16324
 20
132.98424
 30
0.00
  0
VERTEX
  8
308108-1ROU1_GBR
 10
168.006268
 20
133.173622
 30
0.00
  0
VERTEX
  8
308108-1ROU1_GBR
 10
167.88638
 20
133.39572
 30
0.00
  0
VERTEX
  8
308108-1ROU1_GBR
 10
167.81526
 20
133.63448
 30
0.00
  0
VERTEX
  8
308108-1ROU1_GBR
 10
167.78986
 20
133.886016
 30
0.00
  0
VERTEX
  8
308108-1ROU1_GBR
 10
167.78986
 20
179.955394
 30
0.00
  0
VERTEX
  8
308108-1ROU1_GBR
 10
169.343374
 20
179.955394
 30
0.00
  0
VERTEX
  8
308108-1ROU1_GBR
 10
169.291
 20
180.12636
 30
0.00
  0
VERTEX
  8
308108-1ROU1_GBR
 10
169.291
 20
186.598102
 30
0.00
  0
VERTEX
  8
308108-1ROU1_GBR
 10
169.334738
 20
186.761272
 30
0.00
  0
VERTEX
  8
308108-1ROU1_GBR
 10
167.78986
 20
186.761272
 30
0.00
  0
VERTEX
  8
308108-1ROU1_GBR
 10
167.78986
 20
190.11138
 30
0.00
  0
VERTEX
  8
308108-1ROU1_GBR
 10
169.291
 20
191.61252
 30
0.00
  0
VERTEX
  8
308108-1ROU1_GBR
 10
169.291228
 20
196.344566
 30
0.00
  0
VERTEX
  8
308108-1ROU1_GBR
 10
169.31386
 20
196.59092
 30
0.00
  0
VERTEX
  8
308108-1ROU1_GBR
 10
169.38752
 20
196.82714
 30
0.00
  0
VERTEX
  8
308108-1ROU1_GBR
 10
169.507408
 20
197.051854
 30
0.00
  0
VERTEX
  8
308108-1ROU1_GBR
 10
169.66184
 20
197.24116
 30
0.00
  0
VERTEX
  8
308108-1ROU1_GBR
 10
169.851172
 20
197.395618
 30
0.00
  0
VERTEX
  8
308108-1ROU1_GBR
 10
170.07332
 20
197.51548
 30
0.00
  0
VERTEX
  8
308108-1ROU1_GBR
 10
170.31208
 20
197.5866
 30
0.00
  0
VERTEX
  8
308108-1ROU1_GBR
 10
170.563616
 20
197.612
 30
0.00
  0
VERTEX
  8
308108-1ROU1_GBR
 10
173.00448
 20
197.612
 30
0.00
  0
VERTEX
  8
308108-1ROU1_GBR
 10
173.00448
 20
199.61098
 30
0.00
  0
VERTEX
  8
308108-1ROU1_GBR
 10
167.78986
 20
199.61098
 30
0.00
  0
VERTEX
  8
308108-1ROU1_GBR
 10
167.78986
 20
205.613
 30
0.00
  0
VERTEX
  8
308108-1ROU1_GBR
 10
339.79104
 20
205.613
 30
0.00
  0
SEQEND
  0
ENDSEC
  0
EOF
