  0
SECTION
  2
HEADER
  9
$EXTMIN
 10
-258.359834
 20
-58.010602
 30
0.00
  9
$EXTMAX
 10
470.00
 20
419.20
 30
0.00
  0
ENDSEC
  0
SECTION
  2
TABLES
  0
TABLE
  2
LTYPE
 70
3
  0
LTYPE
  2
BYBLOCK
 70
0
  3

 72
65
 73
0
 40
0.00
  0
LTYPE
  2
BYLAYER
 70
0
  3

 72
65
 73
0
 40
0.00
  0
LTYPE
  2
CONTINUOUS
 70
0
  3
Solid line
 72
65
 73
0
 40
0.00
  0
ENDTAB
  0
TABLE
  2
LAYER
 70
99
  0
LAYER
  2
0
 70
0
 62
7
  6
CONTINUOUS
  0
LAYER
  2
020671-1ROU1_GBR
 70
0
 62
7
  6
CONTINUOUS
  0
LAYER
  2
027417-3ROU1_GBR
 70
0
 62
7
  6
CONTINUOUS
  0
LAYER
  2
027419-1ROU1_GBR
 70
0
 62
2
  6
CONTINUOUS
  0
LAYER
  2
027419-2ROU1_GBR
 70
0
 62
6
  6
CONTINUOUS
  0
LAYER
  2
027674-1ROU1_GBR
 70
0
 62
1
  6
CONTINUOUS
  0
LAYER
  2
027676-1ROU1_GBR
 70
0
 62
4
  6
CONTINUOUS
  0
LAYER
  2
027678-3ROU1_GBR
 70
0
 62
3
  6
CONTINUOUS
  0
LAYER
  2
028122-1ROU1_GBR
 70
0
 62
5
  6
CONTINUOUS
  0
LAYER
  2
028124-5ROU1_GBR
 70
0
 62
10
  6
CONTINUOUS
  0
LAYER
  2
028126-1ROU1_GBR
 70
0
 62
14
  6
CONTINUOUS
  0
LAYER
  2
028126-3ROU1_GBR
 70
0
 62
9
  6
CONTINUOUS
  0
LAYER
  2
028126-6ROU1_GBR
 70
0
 62
12
  6
CONTINUOUS
  0
LAYER
  2
028126-7ROU1_GBR
 70
0
 62
11
  6
CONTINUOUS
  0
LAYER
  2
028129-1ROU1_GBR
 70
0
 62
13
  6
CONTINUOUS
  0
LAYER
  2
028130-1ROU1_GBR
 70
0
 62
8
  6
CONTINUOUS
  0
LAYER
  2
028130-4ROU1_GBR
 70
0
 62
15
  6
CONTINUOUS
  0
LAYER
  2
028130-5ROU1_GBR
 70
0
 62
7
  6
CONTINUOUS
  0
LAYER
  2
028130-7ROU1_GBR
 70
0
 62
7
  6
CONTINUOUS
  0
LAYER
  2
028655-1ROU1_GBR
 70
0
 62
2
  6
CONTINUOUS
  0
LAYER
  2
028657-1ROU1_GBR
 70
0
 62
6
  6
CONTINUOUS
  0
LAYER
  2
028659-2ROU1_GBR
 70
0
 62
1
  6
CONTINUOUS
  0
LAYER
  2
028659-4ROU1_GBR
 70
0
 62
4
  6
CONTINUOUS
  0
LAYER
  2
028661-1ROU1_GBR
 70
0
 62
3
  6
CONTINUOUS
  0
LAYER
  2
028663-1ROU1_GBR
 70
0
 62
5
  6
CONTINUOUS
  0
LAYER
  2
028665-1ROU1_GBR
 70
0
 62
10
  6
CONTINUOUS
  0
LAYER
  2
028669-1ROU1_GBR
 70
0
 62
14
  6
CONTINUOUS
  0
LAYER
  2
028673-2ROU1_GBR
 70
0
 62
9
  6
CONTINUOUS
  0
LAYER
  2
037088-3ROU1_GBR
 70
0
 62
12
  6
CONTINUOUS
  0
LAYER
  2
037682-1ROU1_GBR
 70
0
 62
11
  6
CONTINUOUS
  0
LAYER
  2
037686-1ROU1_GBR
 70
0
 62
13
  6
CONTINUOUS
  0
LAYER
  2
037688-1ROU1_GBR
 70
0
 62
8
  6
CONTINUOUS
  0
LAYER
  2
038681-1ROU1_GBR
 70
0
 62
15
  6
CONTINUOUS
  0
LAYER
  2
038683-1ROU1_GBR
 70
0
 62
7
  6
CONTINUOUS
  0
LAYER
  2
038683-2ROU1_GBR
 70
0
 62
7
  6
CONTINUOUS
  0
LAYER
  2
038685-1ROU1_GBR
 70
0
 62
2
  6
CONTINUOUS
  0
LAYER
  2
038689-1ROU1_GBR
 70
0
 62
6
  6
CONTINUOUS
  0
LAYER
  2
038689-2ROU1_GBR
 70
0
 62
1
  6
CONTINUOUS
  0
LAYER
  2
038691-1ROU1_GBR
 70
0
 62
4
  6
CONTINUOUS
  0
LAYER
  2
038691-2ROU1_GBR
 70
0
 62
3
  6
CONTINUOUS
  0
LAYER
  2
038691-3ROU1_GBR
 70
0
 62
5
  6
CONTINUOUS
  0
LAYER
  2
038691-4ROU1_GBR
 70
0
 62
10
  6
CONTINUOUS
  0
LAYER
  2
038693-1ROU1_GBR
 70
0
 62
14
  6
CONTINUOUS
  0
LAYER
  2
038695-1ROU1_GBR
 70
0
 62
9
  6
CONTINUOUS
  0
LAYER
  2
038697-1ROU1_GBR
 70
0
 62
12
  6
CONTINUOUS
  0
LAYER
  2
038697-3ROU1_GBR
 70
0
 62
11
  6
CONTINUOUS
  0
LAYER
  2
038697-4ROU1_GBR
 70
0
 62
13
  6
CONTINUOUS
  0
LAYER
  2
038697-5ROU1_GBR
 70
0
 62
8
  6
CONTINUOUS
  0
LAYER
  2
047706-4ROU1_GBR
 70
0
 62
15
  6
CONTINUOUS
  0
LAYER
  2
047706-5ROU1_GBR
 70
0
 62
7
  6
CONTINUOUS
  0
LAYER
  2
047706-6ROU1_GBR
 70
0
 62
7
  6
CONTINUOUS
  0
LAYER
  2
047708-1ROU1_GBR
 70
0
 62
2
  6
CONTINUOUS
  0
LAYER
  2
047710-1ROU1_GBR
 70
0
 62
6
  6
CONTINUOUS
  0
LAYER
  2
047712-1ROU1_GBR
 70
0
 62
1
  6
CONTINUOUS
  0
LAYER
  2
047714-2ROU1_GBR
 70
0
 62
4
  6
CONTINUOUS
  0
LAYER
  2
048701-1ROU1_GBR
 70
0
 62
3
  6
CONTINUOUS
  0
LAYER
  2
048703-1ROU1_GBR
 70
0
 62
10
  6
CONTINUOUS
  0
LAYER
  2
048711-1ROU1_GBR
 70
0
 62
14
  6
CONTINUOUS
  0
LAYER
  2
048715-1ROU1_GBR
 70
0
 62
9
  6
CONTINUOUS
  0
LAYER
  2
058721-2ROU1_GBR
 70
0
 62
12
  6
CONTINUOUS
  0
LAYER
  2
058723-10ROU1_GBR
 70
0
 62
11
  6
CONTINUOUS
  0
LAYER
  2
058723-1ROU1_GBR
 70
0
 62
13
  6
CONTINUOUS
  0
LAYER
  2
058723-6ROU1_GBR
 70
0
 62
8
  6
CONTINUOUS
  0
LAYER
  2
058723-9ROU1_GBR
 70
0
 62
15
  6
CONTINUOUS
  0
LAYER
  2
067601-1ROU1_GBR
 70
0
 62
7
  6
CONTINUOUS
  0
LAYER
  2
068162-1ROU1_GBR
 70
0
 62
7
  6
CONTINUOUS
  0
LAYER
  2
068162-3ROU1_GBR
 70
0
 62
2
  6
CONTINUOUS
  0
LAYER
  2
068162-4ROU1_GBR
 70
0
 62
6
  6
CONTINUOUS
  0
LAYER
  2
077742-1ROU1_GBR
 70
0
 62
1
  6
CONTINUOUS
  0
LAYER
  2
078731-1ROU1_GBR
 70
0
 62
4
  6
CONTINUOUS
  0
LAYER
  2
078735-3ROU1_GBR
 70
0
 62
3
  6
CONTINUOUS
  0
LAYER
  2
078739-1ROU1_GBR
 70
0
 62
5
  6
CONTINUOUS
  0
LAYER
  2
078753-1ROU1_GBR
 70
0
 62
10
  6
CONTINUOUS
  0
LAYER
  2
078757-1ROU1_GBR
 70
0
 62
14
  6
CONTINUOUS
  0
LAYER
  2
087768-2ROU1_GBR
 70
0
 62
9
  6
CONTINUOUS
  0
LAYER
  2
087772-1ROU1_GBR
 70
0
 62
12
  6
CONTINUOUS
  0
LAYER
  2
087780-1ROU1_GBR
 70
0
 62
11
  6
CONTINUOUS
  0
LAYER
  2
087782-9ROU1_GBR
 70
0
 62
13
  6
CONTINUOUS
  0
LAYER
  2
088783-4ROU1_GBR
 70
0
 62
8
  6
CONTINUOUS
  0
LAYER
  2
088785-1ROU1_GBR
 70
0
 62
15
  6
CONTINUOUS
  0
LAYER
  2
097800-6ROU1_GBR
 70
0
 62
7
  6
CONTINUOUS
  0
LAYER
  2
097810-1ROU1_GBR
 70
0
 62
7
  6
CONTINUOUS
  0
LAYER
  2
098787-1ROU1_GBR
 70
0
 62
2
  6
CONTINUOUS
  0
LAYER
  2
098787-2ROU1_GBR
 70
0
 62
6
  6
CONTINUOUS
  0
LAYER
  2
098789-1ROU1_GBR
 70
0
 62
1
  6
CONTINUOUS
  0
LAYER
  2
098811-1ROU1_GBR
 70
0
 62
4
  6
CONTINUOUS
  0
LAYER
  2
098815-1ROU1_GBR
 70
0
 62
3
  6
CONTINUOUS
  0
LAYER
  2
098815-2ROU1_GBR
 70
0
 62
5
  6
CONTINUOUS
  0
LAYER
  2
107824-1ROU1_GBR
 70
0
 62
10
  6
CONTINUOUS
  0
LAYER
  2
118200-1ROU1_GBR
 70
0
 62
14
  6
CONTINUOUS
  0
LAYER
  2
257017-1ROU1_GBR
 70
0
 62
9
  6
CONTINUOUS
  0
LAYER
  2
268076-7ROU1_GBR
 70
0
 62
12
  6
CONTINUOUS
  0
LAYER
  2
288088-1ROU1_GBR
 70
0
 62
11
  6
CONTINUOUS
  0
LAYER
  2
307251-1ROU1_GBR
 70
0
 62
13
  6
CONTINUOUS
  0
LAYER
  2
307273-4ROU1_GBR
 70
0
 62
8
  6
CONTINUOUS
  0
LAYER
  2
307283-1ROU1_GBR
 70
0
 62
15
  6
CONTINUOUS
  0
LAYER
  2
307291-1ROU1_GBR
 70
0
 62
7
  6
CONTINUOUS
  0
LAYER
  2
308108-1ROU1_GBR
 70
0
 62
7
  6
CONTINUOUS
  0
LAYER
  2
308111-1ROU1_GBR
 70
0
 62
2
  6
CONTINUOUS
  0
LAYER
  2
308112-1ROU1_GBR
 70
0
 62
6
  6
CONTINUOUS
  0
ENDTAB
  0
TABLE
  2
STYLE
 70
0
  0
ENDTAB
  0
ENDSEC
  0
SECTION
  2
BLOCKS
  0
BLOCK
  2
ROUND_1
  3
ROUND_1
 70
64
 10
0.00
 20
0.00
 30
0.00
  0
CIRCLE
  8
0
 10
0.00
 20
0.00
 30
0.00
 40
0.10
  0
ENDBLK
  0
ENDSEC
  0
SECTION
  2
ENTITIES
  0
POLYLINE
  8
308112-1ROU1_GBR
 66
1
 10
0.00
 20
0.00
 30
0.00
 40
0.20
 41
0.20
  0
VERTEX
  8
308112-1ROU1_GBR
 10
257.577108
 20
221.85752
 30
0.00
 42
0.0453437
  0
VERTEX
  8
308112-1ROU1_GBR
 10
254.055092
 20
222.32053
 30
0.00
 42
0.00
  0
SEQEND
  0
POLYLINE
  8
308112-1ROU1_GBR
 66
1
 10
0.00
 20
0.00
 30
0.00
 40
0.20
 41
0.20
  0
VERTEX
  8
308112-1ROU1_GBR
 10
257.577108
 20
221.85752
 30
0.00
  0
VERTEX
  8
308112-1ROU1_GBR
 10
258.070908
 20
221.73951
 30
0.00
  0
VERTEX
  8
308112-1ROU1_GBR
 10
258.562932
 20
221.608802
 30
0.00
  0
VERTEX
  8
308112-1ROU1_GBR
 10
259.050942
 20
221.46519
 30
0.00
  0
VERTEX
  8
308112-1ROU1_GBR
 10
259.534456
 20
221.309336
 30
0.00
  0
VERTEX
  8
308112-1ROU1_GBR
 10
260.013526
 20
221.141188
 30
0.00
  0
VERTEX
  8
308112-1ROU1_GBR
 10
260.48965
 20
220.959908
 30
0.00
  0
VERTEX
  8
308112-1ROU1_GBR
 10
260.959422
 20
220.767098
 30
0.00
  0
VERTEX
  8
308112-1ROU1_GBR
 10
261.424522
 20
220.56212
 30
0.00
  0
VERTEX
  8
308112-1ROU1_GBR
 10
261.88482
 20
220.34467
 30
0.00
  0
VERTEX
  8
308112-1ROU1_GBR
 10
262.338642
 20
220.115968
 30
0.00
  0
VERTEX
  8
308112-1ROU1_GBR
 10
262.78586
 20
219.87576
 30
0.00
  0
SEQEND
  0
POLYLINE
  8
308112-1ROU1_GBR
 66
1
 10
0.00
 20
0.00
 30
0.00
 40
0.20
 41
0.20
  0
VERTEX
  8
308112-1ROU1_GBR
 10
264.511282
 20
218.79974
 30
0.00
 42
0.0257576
  0
VERTEX
  8
308112-1ROU1_GBR
 10
262.78586
 20
219.87576
 30
0.00
 42
0.00
  0
SEQEND
  0
POLYLINE
  8
308112-1ROU1_GBR
 66
1
 10
0.00
 20
0.00
 30
0.00
 40
0.20
 41
0.20
  0
VERTEX
  8
308112-1ROU1_GBR
 10
264.511282
 20
218.79974
 30
0.00
  0
VERTEX
  8
308112-1ROU1_GBR
 10
264.923728
 20
218.503728
 30
0.00
  0
VERTEX
  8
308112-1ROU1_GBR
 10
265.329594
 20
218.196516
 30
0.00
  0
VERTEX
  8
308112-1ROU1_GBR
 10
265.726444
 20
217.879626
 30
0.00
  0
VERTEX
  8
308112-1ROU1_GBR
 10
266.115368
 20
217.552168
 30
0.00
  0
VERTEX
  8
308112-1ROU1_GBR
 10
266.49548
 20
217.21473
 30
0.00
  0
SEQEND
  0
POLYLINE
  8
308112-1ROU1_GBR
 66
1
 10
0.00
 20
0.00
 30
0.00
 40
0.20
 41
0.20
  0
VERTEX
  8
308112-1ROU1_GBR
 10
268.259534
 20
215.386438
 30
0.00
 42
0.0322704
  0
VERTEX
  8
308112-1ROU1_GBR
 10
266.495472
 20
217.214722
 30
0.00
 42
0.00
  0
SEQEND
  0
POLYLINE
  8
308112-1ROU1_GBR
 66
1
 10
0.00
 20
0.00
 30
0.00
 40
0.20
 41
0.20
  0
VERTEX
  8
308112-1ROU1_GBR
 10
268.259534
 20
215.386438
 30
0.00
  0
VERTEX
  8
308112-1ROU1_GBR
 10
268.582724
 20
214.994464
 30
0.00
  0
VERTEX
  8
308112-1ROU1_GBR
 10
268.898142
 20
214.591088
 30
0.00
  0
VERTEX
  8
308112-1ROU1_GBR
 10
269.186888
 20
214.208132
 30
0.00
  0
VERTEX
  8
308112-1ROU1_GBR
 10
269.636418
 20
213.595992
 30
0.00
  0
VERTEX
  8
308112-1ROU1_GBR
 10
270.076042
 20
212.97768
 30
0.00
  0
VERTEX
  8
308112-1ROU1_GBR
 10
270.51193
 20
212.343492
 30
0.00
  0
VERTEX
  8
308112-1ROU1_GBR
 10
270.79095
 20
211.920506
 30
0.00
  0
VERTEX
  8
308112-1ROU1_GBR
 10
271.061662
 20
211.494142
 30
0.00
  0
VERTEX
  8
308112-1ROU1_GBR
 10
271.325696
 20
211.062418
 30
0.00
  0
VERTEX
  8
308112-1ROU1_GBR
 10
271.582438
 20
210.625664
 30
0.00
  0
VERTEX
  8
308112-1ROU1_GBR
 10
271.830876
 20
210.185838
 30
0.00
  0
VERTEX
  8
308112-1ROU1_GBR
 10
272.072634
 20
209.740196
 30
0.00
  0
VERTEX
  8
308112-1ROU1_GBR
 10
272.30606
 20
209.291886
 30
0.00
  0
VERTEX
  8
308112-1ROU1_GBR
 10
272.42003
 20
209.066004
 30
0.00
  0
VERTEX
  8
308112-1ROU1_GBR
 10
272.64205
 20
208.610708
 30
0.00
  0
VERTEX
  8
308112-1ROU1_GBR
 10
272.856148
 20
208.152034
 30
0.00
  0
VERTEX
  8
308112-1ROU1_GBR
 10
273.062344
 20
207.690136
 30
0.00
  0
VERTEX
  8
308112-1ROU1_GBR
 10
273.26044
 20
207.22458
 30
0.00
  0
VERTEX
  8
308112-1ROU1_GBR
 10
273.450786
 20
206.755162
 30
0.00
  0
VERTEX
  8
308112-1ROU1_GBR
 10
273.632448
 20
206.28351
 30
0.00
  0
VERTEX
  8
308112-1ROU1_GBR
 10
273.806438
 20
205.808224
 30
0.00
  0
VERTEX
  8
308112-1ROU1_GBR
 10
273.972046
 20
205.329942
 30
0.00
  0
VERTEX
  8
308112-1ROU1_GBR
 10
274.128942
 20
204.850188
 30
0.00
  0
VERTEX
  8
308112-1ROU1_GBR
 10
274.278242
 20
204.36591
 30
0.00
  0
VERTEX
  8
308112-1ROU1_GBR
 10
274.350176
 20
204.122122
 30
0.00
  0
VERTEX
  8
308112-1ROU1_GBR
 10
274.48637
 20
203.63561
 30
0.00
  0
VERTEX
  8
308112-1ROU1_GBR
 10
274.614844
 20
203.145086
 30
0.00
  0
VERTEX
  8
308112-1ROU1_GBR
 10
274.734324
 20
202.654002
 30
0.00
  0
VERTEX
  8
308112-1ROU1_GBR
 10
274.844814
 20
202.163832
 30
0.00
  0
VERTEX
  8
308112-1ROU1_GBR
 10
274.846466
 20
202.149684
 30
0.00
  0
VERTEX
  8
308112-1ROU1_GBR
 10
274.851114
 20
202.131828
 30
0.00
  0
VERTEX
  8
308112-1ROU1_GBR
 10
274.873212
 20
201.923294
 30
0.00
  0
VERTEX
  8
308112-1ROU1_GBR
 10
274.873162
 20
179.93492
 30
0.00
  0
VERTEX
  8
308112-1ROU1_GBR
 10
274.867674
 20
179.83073
 30
0.00
  0
VERTEX
  8
308112-1ROU1_GBR
 10
273.273266
 20
179.83073
 30
0.00
  0
VERTEX
  8
308112-1ROU1_GBR
 10
273.273266
 20
174.674606
 30
0.00
  0
VERTEX
  8
308112-1ROU1_GBR
 10
273.26976
 20
174.65929
 30
0.00
  0
VERTEX
  8
308112-1ROU1_GBR
 10
273.073088
 20
174.195868
 30
0.00
  0
VERTEX
  8
308112-1ROU1_GBR
 10
272.866536
 20
173.731758
 30
0.00
  0
VERTEX
  8
308112-1ROU1_GBR
 10
272.65155
 20
173.270316
 30
0.00
  0
VERTEX
  8
308112-1ROU1_GBR
 10
272.42892
 20
172.81337
 30
0.00
  0
VERTEX
  8
308112-1ROU1_GBR
 10
272.198186
 20
172.360056
 30
0.00
  0
VERTEX
  8
308112-1ROU1_GBR
 10
271.959934
 20
171.91073
 30
0.00
  0
VERTEX
  8
308112-1ROU1_GBR
 10
271.713706
 20
171.46557
 30
0.00
  0
VERTEX
  8
308112-1ROU1_GBR
 10
271.460164
 20
171.025414
 30
0.00
  0
VERTEX
  8
308112-1ROU1_GBR
 10
271.198772
 20
170.589244
 30
0.00
  0
VERTEX
  8
308112-1ROU1_GBR
 10
270.929252
 20
170.156606
 30
0.00
  0
VERTEX
  8
308112-1ROU1_GBR
 10
270.653206
 20
169.73009
 30
0.00
  0
VERTEX
  8
308112-1ROU1_GBR
 10
270.220618
 20
169.091484
 30
0.00
  0
VERTEX
  8
308112-1ROU1_GBR
 10
269.63657
 20
168.265552
 30
0.00
  0
VERTEX
  8
308112-1ROU1_GBR
 10
269.18699
 20
167.65331
 30
0.00
  0
VERTEX
  8
308112-1ROU1_GBR
 10
268.895322
 20
167.266062
 30
0.00
  0
SEQEND
  0
POLYLINE
  8
308112-1ROU1_GBR
 66
1
 10
0.00
 20
0.00
 30
0.00
 40
0.20
 41
0.20
  0
VERTEX
  8
308112-1ROU1_GBR
 10
264.924312
 20
163.357764
 30
0.00
 42
0.0712662
  0
VERTEX
  8
308112-1ROU1_GBR
 10
268.895318
 20
167.266064
 30
0.00
 42
0.00
  0
SEQEND
  0
POLYLINE
  8
308112-1ROU1_GBR
 66
1
 10
0.00
 20
0.00
 30
0.00
 40
0.20
 41
0.20
  0
VERTEX
  8
308112-1ROU1_GBR
 10
261.884718
 20
161.516466
 30
0.00
 42
0.0454361
  0
VERTEX
  8
308112-1ROU1_GBR
 10
264.924312
 20
163.357764
 30
0.00
 42
0.00
  0
SEQEND
  0
POLYLINE
  8
308112-1ROU1_GBR
 66
1
 10
0.00
 20
0.00
 30
0.00
 40
0.20
 41
0.20
  0
VERTEX
  8
308112-1ROU1_GBR
 10
261.884718
 20
161.516466
 30
0.00
  0
VERTEX
  8
308112-1ROU1_GBR
 10
261.424268
 20
161.298966
 30
0.00
  0
VERTEX
  8
308112-1ROU1_GBR
 10
260.9596
 20
161.09404
 30
0.00
  0
VERTEX
  8
308112-1ROU1_GBR
 10
260.489166
 20
160.900872
 30
0.00
  0
SEQEND
  0
POLYLINE
  8
308112-1ROU1_GBR
 66
1
 10
0.00
 20
0.00
 30
0.00
 40
0.20
 41
0.20
  0
VERTEX
  8
308112-1ROU1_GBR
 10
258.563008
 20
160.252538
 30
0.00
 42
0.0256529
  0
VERTEX
  8
308112-1ROU1_GBR
 10
260.489166
 20
160.900872
 30
0.00
 42
0.00
  0
SEQEND
  0
POLYLINE
  8
308112-1ROU1_GBR
 66
1
 10
0.00
 20
0.00
 30
0.00
 40
0.20
 41
0.20
  0
VERTEX
  8
308112-1ROU1_GBR
 10
258.563008
 20
160.252538
 30
0.00
  0
VERTEX
  8
308112-1ROU1_GBR
 10
258.07157
 20
160.121956
 30
0.00
  0
SEQEND
  0
POLYLINE
  8
308112-1ROU1_GBR
 66
1
 10
0.00
 20
0.00
 30
0.00
 40
0.20
 41
0.20
  0
VERTEX
  8
308112-1ROU1_GBR
 10
255.067206
 20
159.607732
 30
0.00
 42
0.0389993
  0
VERTEX
  8
308112-1ROU1_GBR
 10
258.071564
 20
160.121972
 30
0.00
 42
0.00
  0
SEQEND
  0
POLYLINE
  8
308112-1ROU1_GBR
 66
1
 10
0.00
 20
0.00
 30
0.00
 40
0.20
 41
0.20
  0
VERTEX
  8
308112-1ROU1_GBR
 10
255.067206
 20
159.607732
 30
0.00
  0
VERTEX
  8
308112-1ROU1_GBR
 10
254.559892
 20
159.567576
 30
0.00
  0
VERTEX
  8
308112-1ROU1_GBR
 10
254.055144
 20
159.540804
 30
0.00
  0
VERTEX
  8
308112-1ROU1_GBR
 10
253.549404
 20
159.567626
 30
0.00
  0
VERTEX
  8
308112-1ROU1_GBR
 10
253.043004
 20
159.607478
 30
0.00
  0
SEQEND
  0
POLYLINE
  8
308112-1ROU1_GBR
 66
1
 10
0.00
 20
0.00
 30
0.00
 40
0.20
 41
0.20
  0
VERTEX
  8
308112-1ROU1_GBR
 10
250.520556
 20
160.00664
 30
0.00
 42
0.0323992
  0
VERTEX
  8
308112-1ROU1_GBR
 10
253.043002
 20
159.607472
 30
0.00
 42
0.00
  0
SEQEND
  0
POLYLINE
  8
308112-1ROU1_GBR
 66
1
 10
0.00
 20
0.00
 30
0.00
 40
0.20
 41
0.20
  0
VERTEX
  8
308112-1ROU1_GBR
 10
247.620638
 20
160.90105
 30
0.00
 42
0.0384502
  0
VERTEX
  8
308112-1ROU1_GBR
 10
250.520558
 20
160.006656
 30
0.00
 42
0.00
  0
SEQEND
  0
POLYLINE
  8
308112-1ROU1_GBR
 66
1
 10
0.00
 20
0.00
 30
0.00
 40
0.20
 41
0.20
  0
VERTEX
  8
308112-1ROU1_GBR
 10
247.620638
 20
160.90105
 30
0.00
  0
VERTEX
  8
308112-1ROU1_GBR
 10
247.151042
 20
161.093734
 30
0.00
  0
VERTEX
  8
308112-1ROU1_GBR
 10
246.685282
 20
161.299272
 30
0.00
  0
VERTEX
  8
308112-1ROU1_GBR
 10
246.226406
 20
161.51578
 30
0.00
  0
VERTEX
  8
308112-1ROU1_GBR
 10
245.772382
 20
161.744914
 30
0.00
  0
SEQEND
  0
POLYLINE
  8
308112-1ROU1_GBR
 66
1
 10
0.00
 20
0.00
 30
0.00
 40
0.20
 41
0.20
  0
VERTEX
  8
308112-1ROU1_GBR
 10
244.364892
 20
162.552938
 30
0.00
  0
VERTEX
  8
308112-1ROU1_GBR
 10
245.772384
 20
161.74492
 30
0.00
  0
SEQEND
  0
POLYLINE
  8
308112-1ROU1_GBR
 66
1
 10
0.00
 20
0.00
 30
0.00
 40
0.20
 41
0.20
  0
VERTEX
  8
308112-1ROU1_GBR
 10
241.994792
 20
164.309222
 30
0.00
 42
0.0374684
  0
VERTEX
  8
308112-1ROU1_GBR
 10
244.364896
 20
162.552944
 30
0.00
 42
0.00
  0
SEQEND
  0
POLYLINE
  8
308112-1ROU1_GBR
 66
1
 10
0.00
 20
0.00
 30
0.00
 40
0.20
 41
0.20
  0
VERTEX
  8
308112-1ROU1_GBR
 10
239.369118
 20
167.066188
 30
0.00
 42
0.048417
  0
VERTEX
  8
308112-1ROU1_GBR
 10
241.994788
 20
164.309218
 30
0.00
 42
0.00
  0
SEQEND
  0
POLYLINE
  8
308112-1ROU1_GBR
 66
1
 10
0.00
 20
0.00
 30
0.00
 40
0.20
 41
0.20
  0
VERTEX
  8
308112-1ROU1_GBR
 10
239.369118
 20
167.066188
 30
0.00
  0
VERTEX
  8
308112-1ROU1_GBR
 10
239.074402
 20
167.451532
 30
0.00
  0
VERTEX
  8
308112-1ROU1_GBR
 10
238.622688
 20
168.060472
 30
0.00
  0
VERTEX
  8
308112-1ROU1_GBR
 10
238.179026
 20
168.67754
 30
0.00
  0
VERTEX
  8
308112-1ROU1_GBR
 10
237.750324
 20
169.293514
 30
0.00
  0
VERTEX
  8
308112-1ROU1_GBR
 10
237.73671
 20
169.330802
 30
0.00
  0
VERTEX
  8
308112-1ROU1_GBR
 10
237.706992
 20
169.35709
 30
0.00
  0
VERTEX
  8
308112-1ROU1_GBR
 10
237.428888
 20
169.772534
 30
0.00
  0
VERTEX
  8
308112-1ROU1_GBR
 10
237.289722
 20
169.986402
 30
0.00
  0
VERTEX
  8
308112-1ROU1_GBR
 10
237.01756
 20
170.416372
 30
0.00
  0
VERTEX
  8
308112-1ROU1_GBR
 10
236.753274
 20
170.850788
 30
0.00
  0
VERTEX
  8
308112-1ROU1_GBR
 10
236.49648
 20
171.2897
 30
0.00
  0
VERTEX
  8
308112-1ROU1_GBR
 10
236.246974
 20
171.733312
 30
0.00
  0
VERTEX
  8
308112-1ROU1_GBR
 10
236.005242
 20
172.181216
 30
0.00
  0
VERTEX
  8
308112-1ROU1_GBR
 10
235.772198
 20
172.631888
 30
0.00
  0
VERTEX
  8
308112-1ROU1_GBR
 10
235.545732
 20
173.088858
 30
0.00
  0
VERTEX
  8
308112-1ROU1_GBR
 10
235.32813
 20
173.547684
 30
0.00
  0
VERTEX
  8
308112-1ROU1_GBR
 10
235.117818
 20
174.01159
 30
0.00
  0
VERTEX
  8
308112-1ROU1_GBR
 10
234.915964
 20
174.478316
 30
0.00
  0
VERTEX
  8
308112-1ROU1_GBR
 10
234.82361
 20
174.699372
 30
0.00
  0
VERTEX
  8
308112-1ROU1_GBR
 10
234.825286
 20
179.83073
 30
0.00
  0
VERTEX
  8
308112-1ROU1_GBR
 10
233.238014
 20
179.83073
 30
0.00
  0
VERTEX
  8
308112-1ROU1_GBR
 10
233.225086
 20
179.991664
 30
0.00
  0
VERTEX
  8
308112-1ROU1_GBR
 10
233.225086
 20
201.870818
 30
0.00
  0
VERTEX
  8
308112-1ROU1_GBR
 10
233.24632
 20
202.073052
 30
0.00
  0
VERTEX
  8
308112-1ROU1_GBR
 10
233.253052
 20
202.09576
 30
0.00
  0
VERTEX
  8
308112-1ROU1_GBR
 10
233.254652
 20
202.114354
 30
0.00
  0
VERTEX
  8
308112-1ROU1_GBR
 10
233.308068
 20
202.358142
 30
0.00
  0
VERTEX
  8
308112-1ROU1_GBR
 10
233.423282
 20
202.854078
 30
0.00
  0
VERTEX
  8
308112-1ROU1_GBR
 10
233.547082
 20
203.347472
 30
0.00
  0
VERTEX
  8
308112-1ROU1_GBR
 10
233.679212
 20
203.837438
 30
0.00
  0
VERTEX
  8
308112-1ROU1_GBR
 10
233.819954
 20
204.326236
 30
0.00
  0
VERTEX
  8
308112-1ROU1_GBR
 10
233.893436
 20
204.569796
 30
0.00
  0
VERTEX
  8
308112-1ROU1_GBR
 10
234.046446
 20
205.053996
 30
0.00
  0
VERTEX
  8
308112-1ROU1_GBR
 10
234.208218
 20
205.535758
 30
0.00
  0
VERTEX
  8
308112-1ROU1_GBR
 10
234.37812
 20
206.014726
 30
0.00
  0
VERTEX
  8
308112-1ROU1_GBR
 10
234.556732
 20
206.491764
 30
0.00
  0
VERTEX
  8
308112-1ROU1_GBR
 10
234.743092
 20
206.96456
 30
0.00
  0
VERTEX
  8
308112-1ROU1_GBR
 10
234.937732
 20
207.434332
 30
0.00
  0
VERTEX
  8
308112-1ROU1_GBR
 10
235.037656
 20
207.666818
 30
0.00
  0
VERTEX
  8
308112-1ROU1_GBR
 10
235.244844
 20
208.132376
 30
0.00
  0
VERTEX
  8
308112-1ROU1_GBR
 10
235.45955
 20
208.593258
 30
0.00
  0
VERTEX
  8
308112-1ROU1_GBR
 10
235.681952
 20
209.049442
 30
0.00
  0
VERTEX
  8
308112-1ROU1_GBR
 10
235.912356
 20
209.502376
 30
0.00
  0
VERTEX
  8
308112-1ROU1_GBR
 10
236.030288
 20
209.727114
 30
0.00
  0
VERTEX
  8
308112-1ROU1_GBR
 10
236.272706
 20
210.174332
 30
0.00
  0
VERTEX
  8
308112-1ROU1_GBR
 10
236.523022
 20
210.61774
 30
0.00
  0
VERTEX
  8
308112-1ROU1_GBR
 10
236.780374
 20
211.05556
 30
0.00
  0
VERTEX
  8
308112-1ROU1_GBR
 10
236.911846
 20
211.273034
 30
0.00
  0
VERTEX
  8
308112-1ROU1_GBR
 10
237.180578
 20
211.704352
 30
0.00
  0
VERTEX
  8
308112-1ROU1_GBR
 10
237.456852
 20
212.131326
 30
0.00
  0
VERTEX
  8
308112-1ROU1_GBR
 10
237.746692
 20
212.56249
 30
0.00
  0
VERTEX
  8
308112-1ROU1_GBR
 10
238.179992
 20
213.185146
 30
0.00
  0
VERTEX
  8
308112-1ROU1_GBR
 10
238.47387
 20
213.596118
 30
0.00
  0
VERTEX
  8
308112-1ROU1_GBR
 10
238.92317
 20
214.20798
 30
0.00
  0
VERTEX
  8
308112-1ROU1_GBR
 10
239.368966
 20
214.794948
 30
0.00
  0
VERTEX
  8
308112-1ROU1_GBR
 10
239.687658
 20
215.19139
 30
0.00
  0
VERTEX
  8
308112-1ROU1_GBR
 10
240.016436
 20
215.579376
 30
0.00
  0
VERTEX
  8
308112-1ROU1_GBR
 10
240.354638
 20
215.9587
 30
0.00
  0
SEQEND
  0
POLYLINE
  8
308112-1ROU1_GBR
 66
1
 10
0.00
 20
0.00
 30
0.00
 40
0.20
 41
0.20
  0
VERTEX
  8
308112-1ROU1_GBR
 10
243.392172
 20
218.653462
 30
0.00
 42
0.0518407
  0
VERTEX
  8
308112-1ROU1_GBR
 10
240.354626
 20
215.95871
 30
0.00
 42
0.00
  0
SEQEND
  0
POLYLINE
  8
308112-1ROU1_GBR
 66
1
 10
0.00
 20
0.00
 30
0.00
 40
0.20
 41
0.20
  0
VERTEX
  8
308112-1ROU1_GBR
 10
243.392172
 20
218.653462
 30
0.00
  0
VERTEX
  8
308112-1ROU1_GBR
 10
243.808378
 20
218.944114
 30
0.00
  0
VERTEX
  8
308112-1ROU1_GBR
 10
244.23271
 20
219.223946
 30
0.00
  0
VERTEX
  8
308112-1ROU1_GBR
 10
244.664332
 20
219.493388
 30
0.00
  0
VERTEX
  8
308112-1ROU1_GBR
 10
245.102684
 20
219.751072
 30
0.00
  0
VERTEX
  8
308112-1ROU1_GBR
 10
245.547058
 20
219.997224
 30
0.00
  0
VERTEX
  8
308112-1ROU1_GBR
 10
245.998644
 20
220.232174
 30
0.00
  0
SEQEND
  0
POLYLINE
  8
308112-1ROU1_GBR
 66
1
 10
0.00
 20
0.00
 30
0.00
 40
0.20
 41
0.20
  0
VERTEX
  8
308112-1ROU1_GBR
 10
248.335114
 20
221.226736
 30
0.00
 42
0.0323192
  0
VERTEX
  8
308112-1ROU1_GBR
 10
245.998644
 20
220.232174
 30
0.00
 42
0.00
  0
SEQEND
  0
POLYLINE
  8
308112-1ROU1_GBR
 66
1
 10
0.00
 20
0.00
 30
0.00
 40
0.20
 41
0.20
  0
VERTEX
  8
308112-1ROU1_GBR
 10
248.335114
 20
221.226736
 30
0.00
  0
VERTEX
  8
308112-1ROU1_GBR
 10
248.81807
 20
221.389168
 30
0.00
  0
VERTEX
  8
308112-1ROU1_GBR
 10
249.303794
 20
221.538952
 30
0.00
  0
VERTEX
  8
308112-1ROU1_GBR
 10
249.792744
 20
221.675706
 30
0.00
  0
VERTEX
  8
308112-1ROU1_GBR
 10
250.285936
 20
221.800216
 30
0.00
  0
VERTEX
  8
308112-1ROU1_GBR
 10
250.781464
 20
221.911596
 30
0.00
  0
VERTEX
  8
308112-1ROU1_GBR
 10
251.280194
 20
222.010428
 30
0.00
  0
VERTEX
  8
308112-1ROU1_GBR
 10
251.782098
 20
222.096152
 30
0.00
  0
VERTEX
  8
308112-1ROU1_GBR
 10
252.284688
 20
222.168974
 30
0.00
  0
VERTEX
  8
308112-1ROU1_GBR
 10
252.78997
 20
222.22869
 30
0.00
  0
VERTEX
  8
308112-1ROU1_GBR
 10
253.295938
 20
222.275146
 30
0.00
  0
VERTEX
  8
308112-1ROU1_GBR
 10
253.803048
 20
222.308674
 30
0.00
  0
VERTEX
  8
308112-1ROU1_GBR
 10
254.055092
 20
222.32051
 30
0.00
  0
SEQEND
  0
ENDSEC
  0
EOF
